<?xml version="1.0" encoding="UTF-8" standalone="no"?>
<!DOCTYPE svg PUBLIC "-//W3C//DTD SVG 1.1//EN"
 "http://www.w3.org/Graphics/SVG/1.1/DTD/svg11.dtd">
<!-- Generated by graphviz version 15.0.0 (20260523.1842)
 -->
<!-- Title: G Pages: 1 -->
<svg style="background-color:#141414" width="1544pt" height="573pt"
 viewBox="0.00 0.00 1544.00 573.00" xmlns="http://www.w3.org/2000/svg" xmlns:xlink="http://www.w3.org/1999/xlink">
<g id="graph0" class="graph" transform="scale(1 1) rotate(0) translate(4 569)">
<title>G</title><style>.edge>path:hover{stroke-width:8}</style>
<polygon fill="#141414" stroke="none" points="-4,4 -4,-569 1539.99,-569 1539.99,4 -4,4"/>
<!-- annotated_types -->
<g id="node1" class="node">
<title>annotated_types</title><style>.edge>path:hover{stroke-width:8}</style>
<polygon fill="#d92626" stroke="#ffffff" points="308.75,-408 305.75,-412 284.75,-412 281.75,-408 220.75,-408 220.75,-372 308.75,-372 308.75,-408"/>
<text xml:space="preserve" text-anchor="middle" x="264.75" y="-386.5" font-family="Helvetica,sans-Serif" font-size="10.00" fill="#e0e0e0">annotated_types</text>
</g>
<!-- pydantic -->
<g id="node13" class="node">
<title>pydantic</title><style>.edge>path:hover{stroke-width:8}</style>
<polygon fill="#5a5a5a" stroke="#ffffff" points="924.75,-496 921.75,-500 900.75,-500 897.75,-496 870.75,-496 870.75,-460 924.75,-460 924.75,-496"/>
<text xml:space="preserve" text-anchor="middle" x="897.75" y="-474.5" font-family="Helvetica,sans-Serif" font-size="10.00" fill="#e0e0e0">pydantic</text>
</g>
<!-- annotated_types&#45;&gt;pydantic -->
<g id="edge1" class="edge">
<title>annotated_types&#45;&gt;pydantic</title><style>.edge>path:hover{stroke-width:8}</style>
<path fill="none" stroke="#ffffff" d="M381.5,-486C519.4,-513.46 558.66,-466.21 697.88,-486"/>
<path fill="none" stroke="#ffffff" d="M278.52,-408.39C297.21,-433.2 334.71,-475.52 379.5,-486"/>
</g>
<!-- anyio -->
<g id="node2" class="node">
<title>anyio</title><style>.edge>path:hover{stroke-width:8}</style>
<polygon fill="#5a5a5a" stroke="#ffffff" points="407.5,-124 404.5,-128 383.5,-128 380.5,-124 353.5,-124 353.5,-88 407.5,-88 407.5,-124"/>
<text xml:space="preserve" text-anchor="middle" x="380.5" y="-102.5" font-family="Helvetica,sans-Serif" font-size="10.00" fill="#e0e0e0">anyio</text>
</g>
<!-- watchfiles -->
<g id="node23" class="node">
<title>watchfiles</title><style>.edge>path:hover{stroke-width:8}</style>
<polygon fill="#9d4384" stroke="#ffffff" points="617,-128 614,-132 593,-132 590,-128 556.75,-128 556.75,-92 617,-92 617,-128"/>
<text xml:space="preserve" text-anchor="middle" x="586.88" y="-106.5" font-family="Helvetica,sans-Serif" font-size="10.00" fill="#e0e0e0">watchfiles</text>
</g>
<!-- anyio&#45;&gt;watchfiles -->
<g id="edge2" class="edge">
<title>anyio&#45;&gt;watchfiles</title><style>.edge>path:hover{stroke-width:8}</style>
<path fill="none" stroke="#ffffff" d="M407.74,-97.66C420.94,-93.9 437.28,-89.87 452.25,-88 482.46,-84.22 490.71,-83.06 520.75,-88 529.01,-89.36 537.63,-91.62 545.79,-94.19"/>
<polygon fill="#5a5a5a" stroke="#ffffff" points="544.54,-97.47 555.13,-97.35 546.78,-90.83 544.54,-97.47"/>
</g>
<!-- attr -->
<g id="node3" class="node">
<title>attr</title><style>.edge>path:hover{stroke-width:8}</style>
<polygon fill="#5a5a5a" stroke="#ffffff" points="407.5,-366 404.5,-370 383.5,-370 380.5,-366 353.5,-366 353.5,-330 407.5,-330 407.5,-366"/>
<text xml:space="preserve" text-anchor="middle" x="380.5" y="-344.5" font-family="Helvetica,sans-Serif" font-size="10.00" fill="#e0e0e0">attr</text>
</g>
<!-- rich -->
<g id="node17" class="node">
<title>rich</title><style>.edge>path:hover{stroke-width:8}</style>
<polygon fill="#5a5a5a" stroke="#ffffff" points="613.88,-439 610.88,-443 589.88,-443 586.88,-439 559.88,-439 559.88,-403 613.88,-403 613.88,-439"/>
<text xml:space="preserve" text-anchor="middle" x="586.88" y="-417.5" font-family="Helvetica,sans-Serif" font-size="10.00" fill="#e0e0e0">rich</text>
</g>
<!-- attr&#45;&gt;rich -->
<g id="edge3" class="edge">
<title>attr&#45;&gt;rich</title><style>.edge>path:hover{stroke-width:8}</style>
<path fill="none" stroke="#ffffff" d="M407.83,-366.45C428.03,-379.37 457.15,-395.45 485.5,-402"/>
</g>
<!-- click -->
<g id="node4" class="node">
<title>click</title><style>.edge>path:hover{stroke-width:8}</style>
<polygon fill="#5a5a5a" stroke="#ffffff" points="407.5,-220 404.5,-224 383.5,-224 380.5,-220 353.5,-220 353.5,-184 407.5,-184 407.5,-220"/>
<text xml:space="preserve" text-anchor="middle" x="380.5" y="-198.5" font-family="Helvetica,sans-Serif" font-size="10.00" fill="#e0e0e0">click</text>
</g>
<!-- uvicorn -->
<g id="node22" class="node">
<title>uvicorn</title><style>.edge>path:hover{stroke-width:8}</style>
<polygon fill="#5a5a5a" stroke="#ffffff" points="924.75,-366 921.75,-370 900.75,-370 897.75,-366 870.75,-366 870.75,-330 924.75,-330 924.75,-366"/>
<text xml:space="preserve" text-anchor="middle" x="897.75" y="-344.5" font-family="Helvetica,sans-Serif" font-size="10.00" fill="#e0e0e0">uvicorn</text>
</g>
<!-- click&#45;&gt;uvicorn -->
<g id="edge4" class="edge">
<title>click&#45;&gt;uvicorn</title><style>.edge>path:hover{stroke-width:8}</style>
<path fill="none" stroke="#ffffff" d="M391.12,-183.76C402.66,-164.07 424.03,-133.82 452.25,-121 479.97,-108.41 491.23,-113.57 520.75,-121 552.62,-129.02 553.16,-159.07 585.88,-156"/>
<path fill="none" stroke="#ffffff" d="M587.88,-156C636.46,-150.55 652,-139.11 697.88,-156"/>
</g>
<!-- colorama -->
<g id="node5" class="node">
<title>colorama</title><style>.edge>path:hover{stroke-width:8}</style>
<polygon fill="#5a5a5a" stroke="#ffffff" points="165.25,-247 162.25,-251 141.25,-251 138.25,-247 109.5,-247 109.5,-211 165.25,-211 165.25,-247"/>
<text xml:space="preserve" text-anchor="middle" x="137.38" y="-225.5" font-family="Helvetica,sans-Serif" font-size="10.00" fill="#e0e0e0">colorama</text>
</g>
<!-- colorama&#45;&gt;click -->
<g id="edge5" class="edge">
<title>colorama&#45;&gt;click</title><style>.edge>path:hover{stroke-width:8}</style>
<path fill="none" stroke="#ffffff" d="M165.57,-225.96C208.69,-221.13 292.88,-211.7 341.8,-206.22"/>
<polygon fill="#5a5a5a" stroke="#ffffff" points="342.09,-209.71 351.64,-205.12 341.31,-202.75 342.09,-209.71"/>
</g>
<!-- dotenv -->
<g id="node6" class="node">
<title>dotenv</title><style>.edge>path:hover{stroke-width:8}</style>
<polygon fill="#a7c431" stroke="#ffffff" points="613.88,-220 610.88,-224 589.88,-224 586.88,-220 559.88,-220 559.88,-184 613.88,-184 613.88,-220"/>
<text xml:space="preserve" text-anchor="middle" x="586.88" y="-198.5" font-family="Helvetica,sans-Serif" font-size="10.00" fill="#e0e0e0">dotenv</text>
</g>
<!-- dotenv&#45;&gt;pydantic -->
<g id="edge6" class="edge">
<title>dotenv&#45;&gt;pydantic</title><style>.edge>path:hover{stroke-width:8}</style>
<path fill="none" stroke="#ffffff" d="M808.75,-486C825.08,-490.39 843.67,-489.51 859.54,-487.09"/>
<polygon fill="#a7c431" stroke="#ffffff" points="859.83,-490.6 869.05,-485.38 858.59,-483.71 859.83,-490.6"/>
<path fill="none" stroke="#ffffff" d="M699.88,-348C714.82,-363.67 729.86,-351.27 744.75,-367 785.75,-410.31 749.16,-470.53 806.75,-486"/>
</g>
<!-- pydantic_settings -->
<g id="node15" class="node">
<title>pydantic_settings</title><style>.edge>path:hover{stroke-width:8}</style>
<polygon fill="#5a5a5a" stroke="#ffffff" points="1127.25,-440 1124.25,-444 1103.25,-444 1100.25,-440 1034.75,-440 1034.75,-404 1127.25,-404 1127.25,-440"/>
<text xml:space="preserve" text-anchor="middle" x="1081" y="-418.5" font-family="Helvetica,sans-Serif" font-size="10.00" fill="#e0e0e0">pydantic_settings</text>
</g>
<!-- dotenv&#45;&gt;pydantic_settings -->
<g id="edge7" class="edge">
<title>dotenv&#45;&gt;pydantic_settings</title><style>.edge>path:hover{stroke-width:8}</style>
<path fill="none" stroke="#ffffff" d="M808.75,-394C847.65,-398.06 858.7,-384.97 896.75,-394"/>
<path fill="none" stroke="#ffffff" d="M592.91,-220.45C601.19,-247.63 620.15,-298.47 653,-329 668.87,-343.74 682.93,-332.33 697.88,-348"/>
<path fill="none" stroke="#ffffff" d="M699.88,-348C714.82,-363.67 724.85,-358.45 744.75,-367 772.37,-378.86 776.86,-390.88 806.75,-394"/>
</g>
<!-- dotenv&#45;&gt;uvicorn -->
<g id="edge8" class="edge">
<title>dotenv&#45;&gt;uvicorn</title><style>.edge>path:hover{stroke-width:8}</style>
<path fill="none" stroke="#ffffff" d="M612.52,-183.54C634.1,-169.41 666.78,-152.84 697.88,-156"/>
</g>
<!-- h11 -->
<g id="node7" class="node">
<title>h11</title><style>.edge>path:hover{stroke-width:8}</style>
<polygon fill="#6c9933" stroke="#ffffff" points="513.5,-166 510.5,-170 489.5,-170 486.5,-166 459.5,-166 459.5,-130 513.5,-130 513.5,-166"/>
<text xml:space="preserve" text-anchor="middle" x="486.5" y="-144.5" font-family="Helvetica,sans-Serif" font-size="10.00" fill="#e0e0e0">h11</text>
</g>
<!-- h11&#45;&gt;uvicorn -->
<g id="edge9" class="edge">
<title>h11&#45;&gt;uvicorn</title><style>.edge>path:hover{stroke-width:8}</style>
<path fill="none" stroke="#ffffff" d="M513.82,-152.64C533.64,-155.52 561.48,-158.29 585.88,-156"/>
</g>
<!-- httptools -->
<g id="node8" class="node">
<title>httptools</title><style>.edge>path:hover{stroke-width:8}</style>
<polygon fill="#60b03a" stroke="#ffffff" points="513.5,-36 510.5,-40 489.5,-40 486.5,-36 459.5,-36 459.5,0 513.5,0 513.5,-36"/>
<text xml:space="preserve" text-anchor="middle" x="486.5" y="-14.5" font-family="Helvetica,sans-Serif" font-size="10.00" fill="#e0e0e0">httptools</text>
</g>
<!-- httptools&#45;&gt;uvicorn -->
<g id="edge10" class="edge">
<title>httptools&#45;&gt;uvicorn</title><style>.edge>path:hover{stroke-width:8}</style>
<path fill="none" stroke="#ffffff" d="M513.95,-28.77C540.97,-40.33 583.57,-60.14 617,-83 656.97,-110.33 649.7,-151.1 697.88,-156"/>
<path fill="none" stroke="#ffffff" d="M699.88,-156C791.02,-165.04 856.13,-268.37 883.03,-319.58"/>
<polygon fill="#60b03a" stroke="#ffffff" points="879.83,-321.01 887.5,-328.32 886.06,-317.82 879.83,-321.01"/>
</g>
<!-- idna -->
<g id="node9" class="node">
<title>idna</title><style>.edge>path:hover{stroke-width:8}</style>
<polygon fill="#5a5a5a" stroke="#ffffff" points="54,-201 51,-205 30,-205 27,-201 0,-201 0,-165 54,-165 54,-201"/>
<text xml:space="preserve" text-anchor="middle" x="27" y="-179.5" font-family="Helvetica,sans-Serif" font-size="10.00" fill="#e0e0e0">idna</text>
</g>
<!-- idna&#45;&gt;anyio -->
<g id="edge11" class="edge">
<title>idna&#45;&gt;anyio</title><style>.edge>path:hover{stroke-width:8}</style>
<path fill="none" stroke="#ffffff" d="M265.75,-183C292.12,-166.01 321.42,-146.15 343.68,-130.86"/>
<polygon fill="#5a5a5a" stroke="#ffffff" points="345.57,-133.8 351.82,-125.25 341.6,-128.04 345.57,-133.8"/>
<path fill="none" stroke="#ffffff" d="M54.39,-186.48C108.52,-193.07 229.86,-204.84 263.75,-183"/>
</g>
<!-- main_py -->
<g id="node10" class="node">
<title>main_py</title><style>.edge>path:hover{stroke-width:8}</style>
<ellipse fill="#4b8b55" stroke="#ffffff" cx="1505.62" cy="-413" rx="30.37" ry="18"/>
<text xml:space="preserve" text-anchor="middle" x="1505.62" y="-409.5" font-family="Helvetica,sans-Serif" font-size="10.00" fill="#e0e0e0">main.py</text>
</g>
<!-- markdown_it -->
<g id="node11" class="node">
<title>markdown_it</title><style>.edge>path:hover{stroke-width:8}</style>
<polygon fill="#5a5a5a" stroke="#ffffff" points="416.25,-312 413.25,-316 392.25,-316 389.25,-312 344.75,-312 344.75,-276 416.25,-276 416.25,-312"/>
<text xml:space="preserve" text-anchor="middle" x="380.5" y="-290.5" font-family="Helvetica,sans-Serif" font-size="10.00" fill="#e0e0e0">markdown_it</text>
</g>
<!-- markdown_it&#45;&gt;rich -->
<g id="edge12" class="edge">
<title>markdown_it&#45;&gt;rich</title><style>.edge>path:hover{stroke-width:8}</style>
<path fill="none" stroke="#ffffff" d="M406.32,-312.28C409.75,-315.09 413.15,-318.05 416.25,-321 450.52,-353.7 439.35,-391.34 485.5,-402"/>
<path fill="none" stroke="#ffffff" d="M487.5,-402C507.48,-406.62 529.91,-411.01 548.31,-414.41"/>
<polygon fill="#5a5a5a" stroke="#ffffff" points="547.51,-417.82 557.97,-416.16 548.76,-410.93 547.51,-417.82"/>
</g>
<!-- mdurl -->
<g id="node12" class="node">
<title>mdurl</title><style>.edge>path:hover{stroke-width:8}</style>
<polygon fill="#5a5a5a" stroke="#ffffff" points="54,-542 51,-546 30,-546 27,-542 0,-542 0,-506 54,-506 54,-542"/>
<text xml:space="preserve" text-anchor="middle" x="27" y="-520.5" font-family="Helvetica,sans-Serif" font-size="10.00" fill="#e0e0e0">mdurl</text>
</g>
<!-- mdurl&#45;&gt;markdown_it -->
<g id="edge13" class="edge">
<title>mdurl&#45;&gt;markdown_it</title><style>.edge>path:hover{stroke-width:8}</style>
<path fill="none" stroke="#ffffff" d="M54.32,-521.18C109.09,-513.94 236.28,-489.86 308.75,-417 340.89,-384.69 317.74,-357.7 344.75,-321 344.82,-320.9 344.89,-320.81 344.96,-320.71"/>
<polygon fill="#5a5a5a" stroke="#ffffff" points="347.43,-323.2 351.59,-313.45 342.26,-318.48 347.43,-323.2"/>
</g>
<!-- pydantic&#45;&gt;pydantic_settings -->
<g id="edge14" class="edge">
<title>pydantic&#45;&gt;pydantic_settings</title><style>.edge>path:hover{stroke-width:8}</style>
<path fill="none" stroke="#ffffff" d="M925.12,-471.69C936.18,-468.91 949.15,-465.49 960.75,-462"/>
<path fill="none" stroke="#ffffff" d="M961.75,-462C982.25,-455.83 977.81,-437.78 997.75,-430"/>
</g>
<!-- src2 -->
<g id="node18" class="node">
<title>src2</title><style>.edge>path:hover{stroke-width:8}</style>
<polygon fill="#5147c2" stroke="#ffffff" points="1328.25,-431 1325.25,-435 1304.25,-435 1301.25,-431 1274.25,-431 1274.25,-395 1328.25,-395 1328.25,-431"/>
<text xml:space="preserve" text-anchor="middle" x="1301.25" y="-409.5" font-family="Helvetica,sans-Serif" font-size="10.00" fill="#e0e0e0">src2</text>
</g>
<!-- pydantic&#45;&gt;src2 -->
<g id="edge15" class="edge">
<title>pydantic&#45;&gt;src2</title><style>.edge>path:hover{stroke-width:8}</style>
<path fill="none" stroke="#ffffff" d="M961.75,-462C1047.54,-436.18 1074.22,-457.97 1163.25,-468"/>
</g>
<!-- pydantic_core -->
<g id="node14" class="node">
<title>pydantic_core</title><style>.edge>path:hover{stroke-width:8}</style>
<polygon fill="#5a5a5a" stroke="#ffffff" points="737.25,-565 734.25,-569 713.25,-569 710.25,-565 660.5,-565 660.5,-529 737.25,-529 737.25,-565"/>
<text xml:space="preserve" text-anchor="middle" x="698.88" y="-543.5" font-family="Helvetica,sans-Serif" font-size="10.00" fill="#e0e0e0">pydantic_core</text>
</g>
<!-- pydantic_core&#45;&gt;pydantic -->
<g id="edge16" class="edge">
<title>pydantic_core&#45;&gt;pydantic</title><style>.edge>path:hover{stroke-width:8}</style>
<path fill="none" stroke="#ffffff" d="M808.75,-524C826.93,-519.76 845.47,-510.88 860.82,-502.04"/>
<polygon fill="#5a5a5a" stroke="#ffffff" points="862.34,-505.21 869.11,-497.06 858.74,-499.21 862.34,-505.21"/>
<path fill="none" stroke="#ffffff" d="M737.54,-539.23C758.04,-534.91 783.83,-529.35 806.75,-524"/>
</g>
<!-- pydantic_core&#45;&gt;pydantic_settings -->
<g id="edge17" class="edge">
<title>pydantic_core&#45;&gt;pydantic_settings</title><style>.edge>path:hover{stroke-width:8}</style>
<path fill="none" stroke="#ffffff" d="M808.75,-524C859.63,-512.13 876.91,-525.99 924.75,-505 943.88,-496.6 946.98,-490.78 961.75,-476 980.1,-457.64 974,-440.48 997.75,-430"/>
</g>
<!-- pydantic_settings&#45;&gt;src2 -->
<g id="edge18" class="edge">
<title>pydantic_settings&#45;&gt;src2</title><style>.edge>path:hover{stroke-width:8}</style>
<path fill="none" stroke="#ffffff" d="M1164.25,-468C1201.11,-473.03 1240.18,-454.41 1266.94,-437.5"/>
<polygon fill="#5a5a5a" stroke="#ffffff" points="1268.53,-440.65 1274.95,-432.22 1264.68,-434.8 1268.53,-440.65"/>
<path fill="none" stroke="#ffffff" d="M1109.18,-440.48C1128.07,-452.7 1151.81,-466.71 1163.25,-468"/>
</g>
<!-- pygments -->
<g id="node16" class="node">
<title>pygments</title><style>.edge>path:hover{stroke-width:8}</style>
<polygon fill="#5a5a5a" stroke="#ffffff" points="409.88,-420 406.88,-424 385.88,-424 382.88,-420 351.12,-420 351.12,-384 409.88,-384 409.88,-420"/>
<text xml:space="preserve" text-anchor="middle" x="380.5" y="-398.5" font-family="Helvetica,sans-Serif" font-size="10.00" fill="#e0e0e0">pygments</text>
</g>
<!-- pygments&#45;&gt;rich -->
<g id="edge19" class="edge">
<title>pygments&#45;&gt;rich</title><style>.edge>path:hover{stroke-width:8}</style>
<path fill="none" stroke="#ffffff" d="M410.14,-398.57C431.25,-396.86 460.52,-396.23 485.5,-402"/>
</g>
<!-- rich&#45;&gt;pydantic -->
<g id="edge20" class="edge">
<title>rich&#45;&gt;pydantic</title><style>.edge>path:hover{stroke-width:8}</style>
<path fill="none" stroke="#ffffff" d="M699.88,-486C746.9,-492.69 760.88,-473.68 806.75,-486"/>
<path fill="none" stroke="#ffffff" d="M607.86,-439.46C628.55,-456.86 662.74,-481 697.88,-486"/>
</g>
<!-- src2&#45;&gt;main_py -->
<g id="edge21" class="edge">
<title>src2&#45;&gt;main_py</title><style>.edge>path:hover{stroke-width:8}</style>
<path fill="none" stroke="#ffffff" d="M1328.67,-410.99C1339.74,-410.67 1352.69,-410.97 1364.25,-413"/>
</g>
<!-- tomli -->
<g id="node19" class="node">
<title>tomli</title><style>.edge>path:hover{stroke-width:8}</style>
<polygon fill="#7353b6" stroke="#ffffff" points="834.75,-458 831.75,-462 810.75,-462 807.75,-458 780.75,-458 780.75,-422 834.75,-422 834.75,-458"/>
<text xml:space="preserve" text-anchor="middle" x="807.75" y="-436.5" font-family="Helvetica,sans-Serif" font-size="10.00" fill="#e0e0e0">tomli</text>
</g>
<!-- tomli&#45;&gt;pydantic_settings -->
<g id="edge22" class="edge">
<title>tomli&#45;&gt;pydantic_settings</title><style>.edge>path:hover{stroke-width:8}</style>
<path fill="none" stroke="#ffffff" d="M827.98,-421.52C844.94,-407.38 870.92,-390.8 896.75,-394"/>
</g>
<!-- typing_extensions -->
<g id="node20" class="node">
<title>typing_extensions</title><style>.edge>path:hover{stroke-width:8}</style>
<polygon fill="#9310f9" stroke="#ffffff" points="184.75,-360 181.75,-364 160.75,-364 157.75,-360 90,-360 90,-324 184.75,-324 184.75,-360"/>
<text xml:space="preserve" text-anchor="middle" x="137.38" y="-338.5" font-family="Helvetica,sans-Serif" font-size="10.00" fill="#e0e0e0">typing_extensions</text>
</g>
<!-- typing_extensions&#45;&gt;annotated_types -->
<g id="edge23" class="edge">
<title>typing_extensions&#45;&gt;annotated_types</title><style>.edge>path:hover{stroke-width:8}</style>
<path fill="none" stroke="#ffffff" d="M185.06,-359.87C193.1,-362.95 201.51,-366.17 209.72,-369.31"/>
<polygon fill="#9310f9" stroke="#ffffff" points="208.34,-372.53 218.93,-372.84 210.84,-366 208.34,-372.53"/>
</g>
<!-- typing_extensions&#45;&gt;anyio -->
<g id="edge24" class="edge">
<title>typing_extensions&#45;&gt;anyio</title><style>.edge>path:hover{stroke-width:8}</style>
<path fill="none" stroke="#ffffff" d="M147.46,-323.75C165.08,-290.35 207.16,-219.47 263.75,-183"/>
</g>
<!-- typing_extensions&#45;&gt;click -->
<g id="edge25" class="edge">
<title>typing_extensions&#45;&gt;click</title><style>.edge>path:hover{stroke-width:8}</style>
<path fill="none" stroke="#ffffff" d="M174.85,-323.51C199.29,-312.27 232.59,-299.12 263.75,-294"/>
<path fill="none" stroke="#ffffff" d="M265.75,-294C276.13,-292.29 320.7,-254.28 350.87,-227.65"/>
<polygon fill="#9310f9" stroke="#ffffff" points="353.05,-230.4 358.21,-221.15 348.4,-225.17 353.05,-230.4"/>
</g>
<!-- typing_extensions&#45;&gt;h11 -->
<g id="edge26" class="edge">
<title>typing_extensions&#45;&gt;h11</title><style>.edge>path:hover{stroke-width:8}</style>
<path fill="none" stroke="#ffffff" d="M381.5,-248C397.65,-240.99 403.27,-240.89 416.25,-229 437.52,-209.52 432.84,-196.33 452.25,-175 452.5,-174.72 452.76,-174.44 453.02,-174.17"/>
<polygon fill="#9310f9" stroke="#ffffff" points="455.26,-176.87 460.02,-167.41 450.4,-171.83 455.26,-176.87"/>
<path fill="none" stroke="#ffffff" d="M265.75,-294C319.56,-285.15 329.48,-269.71 379.5,-248"/>
</g>
<!-- typing_extensions&#45;&gt;markdown_it -->
<g id="edge27" class="edge">
<title>typing_extensions&#45;&gt;markdown_it</title><style>.edge>path:hover{stroke-width:8}</style>
<path fill="none" stroke="#ffffff" d="M265.75,-294C287.68,-290.4 312.31,-289.96 333.03,-290.6"/>
<polygon fill="#9310f9" stroke="#ffffff" points="332.76,-294.1 342.9,-291.01 333.05,-287.1 332.76,-294.1"/>
</g>
<!-- typing_extensions&#45;&gt;pydantic -->
<g id="edge28" class="edge">
<title>typing_extensions&#45;&gt;pydantic</title><style>.edge>path:hover{stroke-width:8}</style>
<path fill="none" stroke="#ffffff" d="M154.97,-360.21C170.69,-376.66 195.58,-400.71 220.75,-417 285.34,-458.79 304.59,-468.48 379.5,-486"/>
</g>
<!-- typing_extensions&#45;&gt;pydantic_core -->
<g id="edge29" class="edge">
<title>typing_extensions&#45;&gt;pydantic_core</title><style>.edge>path:hover{stroke-width:8}</style>
<path fill="none" stroke="#ffffff" d="M143.25,-360.26C152.82,-392.73 177,-460.75 220.75,-500 277.13,-550.58 303.75,-562 379.5,-562 379.5,-562 379.5,-562 487.5,-562 542.89,-562 606.28,-556.76 648.87,-552.48"/>
<polygon fill="#9310f9" stroke="#ffffff" points="649.22,-555.96 658.8,-551.45 648.5,-549 649.22,-555.96"/>
</g>
<!-- typing_extensions&#45;&gt;rich -->
<g id="edge30" class="edge">
<title>typing_extensions&#45;&gt;rich</title><style>.edge>path:hover{stroke-width:8}</style>
<path fill="none" stroke="#ffffff" d="M265.75,-294C334.35,-282.72 284.97,-393.51 344.75,-429 372.08,-445.22 385.02,-434.87 416.25,-429 448.72,-422.89 453.31,-394.56 485.5,-402"/>
</g>
<!-- typing_inspection -->
<g id="node21" class="node">
<title>typing_inspection</title><style>.edge>path:hover{stroke-width:8}</style>
<polygon fill="#cb10f9" stroke="#ffffff" points="744.75,-412 741.75,-416 720.75,-416 717.75,-412 653,-412 653,-376 744.75,-376 744.75,-412"/>
<text xml:space="preserve" text-anchor="middle" x="698.88" y="-390.5" font-family="Helvetica,sans-Serif" font-size="10.00" fill="#e0e0e0">typing_inspection</text>
</g>
<!-- typing_extensions&#45;&gt;typing_inspection -->
<g id="edge31" class="edge">
<title>typing_extensions&#45;&gt;typing_inspection</title><style>.edge>path:hover{stroke-width:8}</style>
<path fill="none" stroke="#ffffff" d="M487.5,-248C490.07,-247.44 603.49,-327.27 662.7,-369.1"/>
<polygon fill="#9310f9" stroke="#ffffff" points="660.63,-371.93 670.82,-374.84 664.67,-366.21 660.63,-371.93"/>
</g>
<!-- typing_extensions&#45;&gt;uvicorn -->
<g id="edge32" class="edge">
<title>typing_extensions&#45;&gt;uvicorn</title><style>.edge>path:hover{stroke-width:8}</style>
<path fill="none" stroke="#ffffff" d="M381.5,-248C423.9,-229.6 439.37,-250.93 485.5,-248"/>
<path fill="none" stroke="#ffffff" d="M487.5,-248C547.24,-244.2 526.39,-162.67 585.88,-156"/>
</g>
<!-- typing_inspection&#45;&gt;pydantic -->
<g id="edge33" class="edge">
<title>typing_inspection&#45;&gt;pydantic</title><style>.edge>path:hover{stroke-width:8}</style>
<path fill="none" stroke="#ffffff" d="M712.78,-412.46C730.62,-435.97 765.37,-474.88 806.75,-486"/>
</g>
<!-- typing_inspection&#45;&gt;pydantic_settings -->
<g id="edge34" class="edge">
<title>typing_inspection&#45;&gt;pydantic_settings</title><style>.edge>path:hover{stroke-width:8}</style>
<path fill="none" stroke="#ffffff" d="M745.23,-391.92C764.27,-391.59 786.63,-391.9 806.75,-394"/>
</g>
<!-- uvicorn&#45;&gt;main_py -->
<g id="edge35" class="edge">
<title>uvicorn&#45;&gt;main_py</title><style>.edge>path:hover{stroke-width:8}</style>
<path fill="none" stroke="#ffffff" d="M1365.25,-413C1398.09,-418.76 1435.96,-418.32 1463.93,-416.69"/>
<polygon fill="#5a5a5a" stroke="#ffffff" points="1464.01,-420.19 1473.76,-416.03 1463.55,-413.2 1464.01,-420.19"/>
<path fill="none" stroke="#ffffff" d="M924.96,-355.84C944.77,-361.07 972.72,-367 997.75,-367 997.75,-367 997.75,-367 1238.25,-367 1279.13,-367 1291.02,-369.11 1328.25,-386 1346.46,-394.26 1344.77,-408.48 1364.25,-413"/>
</g>
<!-- watchfiles&#45;&gt;uvicorn -->
<g id="edge36" class="edge">
<title>watchfiles&#45;&gt;uvicorn</title><style>.edge>path:hover{stroke-width:8}</style>
<path fill="none" stroke="#ffffff" d="M617.4,-127.97C638.85,-139.59 669.04,-153.07 697.88,-156"/>
</g>
<!-- websockets -->
<g id="node24" class="node">
<title>websockets</title><style>.edge>path:hover{stroke-width:8}</style>
<polygon fill="#5a5a5a" stroke="#ffffff" points="520.75,-220 517.75,-224 496.75,-224 493.75,-220 452.25,-220 452.25,-184 520.75,-184 520.75,-220"/>
<text xml:space="preserve" text-anchor="middle" x="486.5" y="-198.5" font-family="Helvetica,sans-Serif" font-size="10.00" fill="#e0e0e0">websockets</text>
</g>
<!-- websockets&#45;&gt;uvicorn -->
<g id="edge37" class="edge">
<title>websockets&#45;&gt;uvicorn</title><style>.edge>path:hover{stroke-width:8}</style>
<path fill="none" stroke="#ffffff" d="M513.6,-183.74C532.64,-171.99 559.59,-158.47 585.88,-156"/>
</g>
<!-- yaml -->
<g id="node25" class="node">
<title>yaml</title><style>.edge>path:hover{stroke-width:8}</style>
<polygon fill="#5a5a5a" stroke="#ffffff" points="725.88,-320 722.88,-324 701.88,-324 698.88,-320 671.88,-320 671.88,-284 725.88,-284 725.88,-320"/>
<text xml:space="preserve" text-anchor="middle" x="698.88" y="-298.5" font-family="Helvetica,sans-Serif" font-size="10.00" fill="#e0e0e0">yaml</text>
</g>
<!-- yaml&#45;&gt;pydantic_settings -->
<g id="edge38" class="edge">
<title>yaml&#45;&gt;pydantic_settings</title><style>.edge>path:hover{stroke-width:8}</style>
<path fill="none" stroke="#ffffff" d="M998.75,-430C1006.38,-427.02 1014.7,-424.98 1023.01,-423.61"/>
<polygon fill="#5a5a5a" stroke="#ffffff" points="1023.32,-427.1 1032.77,-422.32 1022.4,-420.16 1023.32,-427.1"/>
<path fill="none" stroke="#ffffff" d="M898.75,-394C945.21,-399.76 954.14,-447.02 997.75,-430"/>
<path fill="none" stroke="#ffffff" d="M808.75,-356C849.28,-369.11 855.3,-384.16 896.75,-394"/>
</g>
<!-- yaml&#45;&gt;uvicorn -->
<g id="edge39" class="edge">
<title>yaml&#45;&gt;uvicorn</title><style>.edge>path:hover{stroke-width:8}</style>
<path fill="none" stroke="#ffffff" d="M808.75,-356C824.84,-361.2 843.39,-360.44 859.3,-357.89"/>
<polygon fill="#5a5a5a" stroke="#ffffff" points="859.7,-361.38 868.86,-356.06 858.38,-354.5 859.7,-361.38"/>
<path fill="none" stroke="#ffffff" d="M726.12,-318.17C747.17,-330.41 777.87,-346.66 806.75,-356"/>
</g>
</g>
</svg>

