<?xml version="1.0" encoding="UTF-8" standalone="no"?>
<!DOCTYPE svg PUBLIC "-//W3C//DTD SVG 1.1//EN"
 "http://www.w3.org/Graphics/SVG/1.1/DTD/svg11.dtd">
<!-- Generated by graphviz version 15.0.0 (20260523.1842)
 -->
<!-- Title: G Pages: 1 -->
<svg style="background-color:#141414" width="736pt" height="488pt"
 viewBox="0.00 0.00 736.00 488.00" xmlns="http://www.w3.org/2000/svg" xmlns:xlink="http://www.w3.org/1999/xlink">
<g id="graph0" class="graph" transform="scale(1 1) rotate(0) translate(4 484.43)">
<title>G</title><style>.edge>path:hover{stroke-width:8}</style>
<polygon fill="#141414" stroke="none" points="-4,4 -4,-484.43 732.15,-484.43 732.15,4 -4,4"/>
<!-- django -->
<g id="node1" class="node">
<title>django</title><style>.edge>path:hover{stroke-width:8}</style>
<ellipse fill="#f90606" stroke="#ffffff" cx="27" cy="-139.12" rx="27" ry="18"/>
<text xml:space="preserve" text-anchor="middle" x="27" y="-135.62" font-family="Helvetica,sans-Serif" font-size="10.00" fill="#e0e0e0">django</text>
</g>
<!-- rest_framework_simplejwt_exceptions -->
<g id="node8" class="node">
<title>rest_framework_simplejwt_exceptions</title><style>.edge>path:hover{stroke-width:8}</style>
<ellipse fill="#3db8b8" stroke="#ffffff" cx="221.05" cy="-416.12" rx="94.05" ry="22.63"/>
<text xml:space="preserve" text-anchor="middle" x="221.05" y="-418.62" font-family="Helvetica,sans-Serif" font-size="10.00" fill="#e0e0e0">rest_framework_simplejwt.</text>
<text xml:space="preserve" text-anchor="middle" x="221.05" y="-406.62" font-family="Helvetica,sans-Serif" font-size="10.00" fill="#e0e0e0">exceptions</text>
</g>
<!-- django&#45;&gt;rest_framework_simplejwt_exceptions -->
<g id="edge1" class="edge">
<title>django&#45;&gt;rest_framework_simplejwt_exceptions</title><style>.edge>path:hover{stroke-width:8}</style>
<path fill="none" stroke="#ffffff" d="M91,-139.12C193.63,-159.16 214.72,-312.54 218.99,-382.06"/>
<polygon fill="#f90606" stroke="#ffffff" points="215.48,-381.92 219.5,-391.73 222.47,-381.56 215.48,-381.92"/>
</g>
<!-- rest_framework_simplejwt_tokens -->
<g id="node9" class="node">
<title>rest_framework_simplejwt_tokens</title><style>.edge>path:hover{stroke-width:8}</style>
<ellipse fill="#46a4a4" stroke="#ffffff" cx="445.14" cy="-416.12" rx="94.05" ry="22.63"/>
<text xml:space="preserve" text-anchor="middle" x="445.14" y="-418.62" font-family="Helvetica,sans-Serif" font-size="10.00" fill="#e0e0e0">rest_framework_simplejwt.</text>
<text xml:space="preserve" text-anchor="middle" x="445.14" y="-406.62" font-family="Helvetica,sans-Serif" font-size="10.00" fill="#e0e0e0">tokens</text>
</g>
<!-- django&#45;&gt;rest_framework_simplejwt_tokens -->
<g id="edge2" class="edge">
<title>django&#45;&gt;rest_framework_simplejwt_tokens</title><style>.edge>path:hover{stroke-width:8}</style>
<path fill="none" stroke="#ffffff" d="M222.05,-139.12C340.43,-172.75 257.65,-304.03 351.09,-384.12 355.99,-388.32 361.48,-391.98 367.26,-395.16"/>
<polygon fill="#f90606" stroke="#ffffff" points="365.36,-398.13 375.88,-399.42 368.46,-391.85 365.36,-398.13"/>
</g>
<!-- tests2_conftest -->
<g id="node10" class="node">
<title>tests2_conftest</title><style>.edge>path:hover{stroke-width:8}</style>
<ellipse fill="#43439d" stroke="#ffffff" cx="670.16" cy="-67.12" rx="36.24" ry="22.63"/>
<text xml:space="preserve" text-anchor="middle" x="670.16" y="-69.62" font-family="Helvetica,sans-Serif" font-size="10.00" fill="#e0e0e0">tests2.</text>
<text xml:space="preserve" text-anchor="middle" x="670.16" y="-57.62" font-family="Helvetica,sans-Serif" font-size="10.00" fill="#e0e0e0">conftest</text>
</g>
<!-- django&#45;&gt;tests2_conftest -->
<g id="edge3" class="edge">
<title>django&#45;&gt;tests2_conftest</title><style>.edge>path:hover{stroke-width:8}</style>
<path fill="none" stroke="#ffffff" d="M446.14,-29.12C509.48,-26.09 581.63,-41.99 626.29,-54.16"/>
<polygon fill="#f90606" stroke="#ffffff" points="625.27,-57.5 635.84,-56.82 627.15,-50.76 625.27,-57.5"/>
<path fill="none" stroke="#ffffff" d="M91,-139.12C136.95,-148.09 89.12,-67.64 127,-40.12 241.1,42.78 303.1,-28.93 444.14,-29.12"/>
<path fill="none" stroke="#ffffff" d="M54.15,-136.92C65.3,-136.54 78.38,-136.86 90,-139.12"/>
</g>
<!-- tests2_test_api -->
<g id="node11" class="node">
<title>tests2_test_api</title><style>.edge>path:hover{stroke-width:8}</style>
<ellipse fill="#3d3d8f" stroke="#ffffff" cx="670.16" cy="-151.12" rx="35.71" ry="22.63"/>
<text xml:space="preserve" text-anchor="middle" x="670.16" y="-153.62" font-family="Helvetica,sans-Serif" font-size="10.00" fill="#e0e0e0">tests2.</text>
<text xml:space="preserve" text-anchor="middle" x="670.16" y="-141.62" font-family="Helvetica,sans-Serif" font-size="10.00" fill="#e0e0e0">test_api</text>
</g>
<!-- django&#45;&gt;tests2_test_api -->
<g id="edge4" class="edge">
<title>django&#45;&gt;tests2_test_api</title><style>.edge>path:hover{stroke-width:8}</style>
<path fill="none" stroke="#ffffff" d="M91,-139.12C147.29,-150.11 164.87,-123.45 220.05,-139.12"/>
<path fill="none" stroke="#ffffff" d="M222.05,-139.12C316.99,-166.09 345.89,-129.61 444.14,-139.12"/>
</g>
<!-- django_test -->
<g id="node2" class="node">
<title>django_test</title><style>.edge>path:hover{stroke-width:8}</style>
<ellipse fill="#d02424" stroke="#ffffff" cx="445.14" cy="-75.12" rx="38.49" ry="18"/>
<text xml:space="preserve" text-anchor="middle" x="445.14" y="-71.62" font-family="Helvetica,sans-Serif" font-size="10.00" fill="#e0e0e0">django.test</text>
</g>
<!-- django_test&#45;&gt;tests2_conftest -->
<g id="edge5" class="edge">
<title>django_test&#45;&gt;tests2_conftest</title><style>.edge>path:hover{stroke-width:8}</style>
<path fill="none" stroke="#ffffff" d="M576.18,-67.12C591.25,-69.84 607.91,-70.54 622.92,-70.35"/>
<polygon fill="#d02424" stroke="#ffffff" points="622.61,-73.86 632.51,-70.09 622.41,-66.86 622.61,-73.86"/>
<path fill="none" stroke="#ffffff" d="M481.45,-68.4C507.54,-64.54 543.81,-61.46 575.18,-67.12"/>
</g>
<!-- django_test&#45;&gt;tests2_test_api -->
<g id="edge6" class="edge">
<title>django_test&#45;&gt;tests2_test_api</title><style>.edge>path:hover{stroke-width:8}</style>
<path fill="none" stroke="#ffffff" d="M576.18,-67.12C577.26,-67.31 613.58,-100.33 640.51,-124.91"/>
<polygon fill="#d02424" stroke="#ffffff" points="638,-127.36 647.74,-131.52 642.72,-122.19 638,-127.36"/>
</g>
<!-- django_test_Client -->
<g id="node3" class="node">
<title>django_test_Client</title><style>.edge>path:hover{stroke-width:8}</style>
<ellipse fill="#b83d3d" stroke="#ffffff" cx="221.05" cy="-80.12" rx="33.59" ry="31.11"/>
<text xml:space="preserve" text-anchor="middle" x="221.05" y="-88.62" font-family="Helvetica,sans-Serif" font-size="10.00" fill="#e0e0e0">django.</text>
<text xml:space="preserve" text-anchor="middle" x="221.05" y="-76.62" font-family="Helvetica,sans-Serif" font-size="10.00" fill="#e0e0e0">test.</text>
<text xml:space="preserve" text-anchor="middle" x="221.05" y="-64.62" font-family="Helvetica,sans-Serif" font-size="10.00" fill="#e0e0e0">Client</text>
</g>
<!-- django_test_Client&#45;&gt;tests2_conftest -->
<g id="edge7" class="edge">
<title>django_test_Client&#45;&gt;tests2_conftest</title><style>.edge>path:hover{stroke-width:8}</style>
<path fill="none" stroke="#ffffff" d="M252.82,-69.38C295.25,-55.43 374.39,-32.46 444.14,-29.12"/>
</g>
<!-- django_test_Client&#45;&gt;tests2_test_api -->
<g id="edge8" class="edge">
<title>django_test_Client&#45;&gt;tests2_test_api</title><style>.edge>path:hover{stroke-width:8}</style>
<path fill="none" stroke="#ffffff" d="M252.33,-91.88C294.53,-107.4 373.75,-133.42 444.14,-139.12"/>
<path fill="none" stroke="#ffffff" d="M446.14,-139.12C507.16,-144.06 577.75,-147.47 622.89,-149.36"/>
<polygon fill="#b83d3d" stroke="#ffffff" points="622.71,-152.85 632.84,-149.77 623,-145.86 622.71,-152.85"/>
</g>
<!-- hypothesis -->
<g id="node4" class="node">
<title>hypothesis</title><style>.edge>path:hover{stroke-width:8}</style>
<ellipse fill="#f3f30c" stroke="#ffffff" cx="445.14" cy="-303.12" rx="38.03" ry="18"/>
<text xml:space="preserve" text-anchor="middle" x="445.14" y="-299.62" font-family="Helvetica,sans-Serif" font-size="10.00" fill="#e0e0e0">hypothesis</text>
</g>
<!-- hypothesis&#45;&gt;tests2_test_api -->
<g id="edge9" class="edge">
<title>hypothesis&#45;&gt;tests2_test_api</title><style>.edge>path:hover{stroke-width:8}</style>
<path fill="none" stroke="#ffffff" d="M482,-308.12C509.02,-310.24 546.23,-309.5 575.18,-295.12"/>
<path fill="none" stroke="#ffffff" d="M576.18,-295.12C619.61,-273.54 583.16,-230.97 612.18,-192.12 617.83,-184.55 625.29,-177.81 632.93,-172.09"/>
<polygon fill="#f3f30c" stroke="#ffffff" points="634.78,-175.06 641,-166.49 630.79,-169.31 634.78,-175.06"/>
</g>
<!-- tests2_test_db -->
<g id="node12" class="node">
<title>tests2_test_db</title><style>.edge>path:hover{stroke-width:8}</style>
<ellipse fill="#4646a4" stroke="#ffffff" cx="670.16" cy="-219.12" rx="47.05" ry="18"/>
<text xml:space="preserve" text-anchor="middle" x="670.16" y="-215.62" font-family="Helvetica,sans-Serif" font-size="10.00" fill="#e0e0e0">tests2.test_db</text>
</g>
<!-- hypothesis&#45;&gt;tests2_test_db -->
<g id="edge10" class="edge">
<title>hypothesis&#45;&gt;tests2_test_db</title><style>.edge>path:hover{stroke-width:8}</style>
<path fill="none" stroke="#ffffff" d="M576.18,-295.12C595.89,-285.33 595.29,-275.23 612.18,-261.12 620.06,-254.53 628.87,-247.77 637.16,-241.65"/>
<polygon fill="#f3f30c" stroke="#ffffff" points="638.97,-244.66 644.99,-235.95 634.85,-239 638.97,-244.66"/>
</g>
<!-- tests2_test_security -->
<g id="node13" class="node">
<title>tests2_test_security</title><style>.edge>path:hover{stroke-width:8}</style>
<ellipse fill="#3a3a88" stroke="#ffffff" cx="670.16" cy="-356.12" rx="51.09" ry="22.63"/>
<text xml:space="preserve" text-anchor="middle" x="670.16" y="-358.62" font-family="Helvetica,sans-Serif" font-size="10.00" fill="#e0e0e0">tests2.</text>
<text xml:space="preserve" text-anchor="middle" x="670.16" y="-346.62" font-family="Helvetica,sans-Serif" font-size="10.00" fill="#e0e0e0">test_security</text>
</g>
<!-- hypothesis&#45;&gt;tests2_test_security -->
<g id="edge11" class="edge">
<title>hypothesis&#45;&gt;tests2_test_security</title><style>.edge>path:hover{stroke-width:8}</style>
<path fill="none" stroke="#ffffff" d="M576.18,-371.12C588.2,-371.26 600.98,-370.08 613.1,-368.33"/>
<polygon fill="#f3f30c" stroke="#ffffff" points="613.66,-371.78 622.97,-366.74 612.54,-364.87 613.66,-371.78"/>
</g>
<!-- tests2_test_serializers -->
<g id="node14" class="node">
<title>tests2_test_serializers</title><style>.edge>path:hover{stroke-width:8}</style>
<ellipse fill="#4646a4" stroke="#ffffff" cx="670.16" cy="-293.12" rx="57.98" ry="22.63"/>
<text xml:space="preserve" text-anchor="middle" x="670.16" y="-295.62" font-family="Helvetica,sans-Serif" font-size="10.00" fill="#e0e0e0">tests2.</text>
<text xml:space="preserve" text-anchor="middle" x="670.16" y="-283.62" font-family="Helvetica,sans-Serif" font-size="10.00" fill="#e0e0e0">test_serializers</text>
</g>
<!-- hypothesis&#45;&gt;tests2_test_serializers -->
<g id="edge12" class="edge">
<title>hypothesis&#45;&gt;tests2_test_serializers</title><style>.edge>path:hover{stroke-width:8}</style>
<path fill="none" stroke="#ffffff" d="M576.18,-371.12C602.49,-371.42 592.19,-341.22 612.18,-324.12 615.32,-321.43 618.72,-318.88 622.26,-316.48"/>
<polygon fill="#f3f30c" stroke="#ffffff" points="623.92,-319.57 630.54,-311.29 620.21,-313.64 623.92,-319.57"/>
<path fill="none" stroke="#ffffff" d="M481.69,-308.52C499.92,-312.46 521.86,-319.11 539.18,-330.12 559.64,-343.13 550.93,-370.84 575.18,-371.12"/>
</g>
<!-- hypothesis_strategies -->
<g id="node5" class="node">
<title>hypothesis_strategies</title><style>.edge>path:hover{stroke-width:8}</style>
<ellipse fill="#dddd18" stroke="#ffffff" cx="445.14" cy="-244.12" rx="46.85" ry="22.63"/>
<text xml:space="preserve" text-anchor="middle" x="445.14" y="-246.62" font-family="Helvetica,sans-Serif" font-size="10.00" fill="#e0e0e0">hypothesis.</text>
<text xml:space="preserve" text-anchor="middle" x="445.14" y="-234.62" font-family="Helvetica,sans-Serif" font-size="10.00" fill="#e0e0e0">strategies</text>
</g>
<!-- hypothesis_strategies&#45;&gt;tests2_test_api -->
<g id="edge13" class="edge">
<title>hypothesis_strategies&#45;&gt;tests2_test_api</title><style>.edge>path:hover{stroke-width:8}</style>
<path fill="none" stroke="#ffffff" d="M490.12,-237.3C515.25,-232.99 547.23,-226.77 575.18,-219.12"/>
<path fill="none" stroke="#ffffff" d="M576.18,-219.12C595.47,-213.84 596.06,-203.96 612.18,-192.12 619.93,-186.42 628.32,-180.34 636.21,-174.66"/>
<polygon fill="#dddd18" stroke="#ffffff" points="638.21,-177.53 644.29,-168.85 634.13,-171.85 638.21,-177.53"/>
</g>
<!-- hypothesis_strategies&#45;&gt;tests2_test_db -->
<g id="edge14" class="edge">
<title>hypothesis_strategies&#45;&gt;tests2_test_db</title><style>.edge>path:hover{stroke-width:8}</style>
<path fill="none" stroke="#ffffff" d="M576.18,-219.12C587.98,-215.89 600.95,-214.57 613.35,-214.31"/>
<polygon fill="#dddd18" stroke="#ffffff" points="613.01,-217.81 623.02,-214.35 613.03,-210.81 613.01,-217.81"/>
</g>
<!-- hypothesis_strategies&#45;&gt;tests2_test_security -->
<g id="edge15" class="edge">
<title>hypothesis_strategies&#45;&gt;tests2_test_security</title><style>.edge>path:hover{stroke-width:8}</style>
<path fill="none" stroke="#ffffff" d="M576.18,-333.12C588.26,-336.26 601.24,-339.53 613.56,-342.59"/>
<polygon fill="#dddd18" stroke="#ffffff" points="612.63,-345.97 623.18,-344.97 614.31,-339.17 612.63,-345.97"/>
</g>
<!-- hypothesis_strategies&#45;&gt;tests2_test_serializers -->
<g id="edge16" class="edge">
<title>hypothesis_strategies&#45;&gt;tests2_test_serializers</title><style>.edge>path:hover{stroke-width:8}</style>
<path fill="none" stroke="#ffffff" d="M488.97,-252.36C505.89,-257.19 524.71,-264.67 539.18,-276.12 562.68,-294.71 546.18,-325.58 575.18,-333.12"/>
<path fill="none" stroke="#ffffff" d="M576.18,-333.12C581.33,-334.46 602.44,-325.57 623.24,-315.83"/>
<polygon fill="#dddd18" stroke="#ffffff" points="624.46,-319.13 631.99,-311.68 621.46,-312.8 624.46,-319.13"/>
</g>
<!-- pytest -->
<g id="node6" class="node">
<title>pytest</title><style>.edge>path:hover{stroke-width:8}</style>
<ellipse fill="#22e722" stroke="#ffffff" cx="445.14" cy="-185.12" rx="27" ry="18"/>
<text xml:space="preserve" text-anchor="middle" x="445.14" y="-181.62" font-family="Helvetica,sans-Serif" font-size="10.00" fill="#e0e0e0">pytest</text>
</g>
<!-- pytest&#45;&gt;tests2_conftest -->
<g id="edge17" class="edge">
<title>pytest&#45;&gt;tests2_conftest</title><style>.edge>path:hover{stroke-width:8}</style>
<path fill="none" stroke="#ffffff" d="M467.12,-174.02C504.82,-154.07 584.5,-111.91 631.75,-86.91"/>
<polygon fill="#22e722" stroke="#ffffff" points="633.34,-90.03 640.54,-82.26 630.07,-83.84 633.34,-90.03"/>
</g>
<!-- pytest&#45;&gt;tests2_test_api -->
<g id="edge18" class="edge">
<title>pytest&#45;&gt;tests2_test_api</title><style>.edge>path:hover{stroke-width:8}</style>
<path fill="none" stroke="#ffffff" d="M472.33,-183.74C498.39,-182.5 539.54,-180.91 575.18,-181.12"/>
<path fill="none" stroke="#ffffff" d="M576.18,-181.12C594.83,-181.23 614.6,-175.71 631.1,-169.38"/>
<polygon fill="#22e722" stroke="#ffffff" points="632.1,-172.76 640.02,-165.73 629.44,-166.28 632.1,-172.76"/>
</g>
<!-- pytest&#45;&gt;tests2_test_db -->
<g id="edge19" class="edge">
<title>pytest&#45;&gt;tests2_test_db</title><style>.edge>path:hover{stroke-width:8}</style>
<path fill="none" stroke="#ffffff" d="M576.18,-181.12C596.83,-181.24 618.27,-189.38 635.36,-198.09"/>
<polygon fill="#22e722" stroke="#ffffff" points="633.59,-201.12 644.05,-202.81 636.93,-194.97 633.59,-201.12"/>
</g>
<!-- pytest&#45;&gt;tests2_test_security -->
<g id="edge20" class="edge">
<title>pytest&#45;&gt;tests2_test_security</title><style>.edge>path:hover{stroke-width:8}</style>
<path fill="none" stroke="#ffffff" d="M576.18,-257.12C605.11,-275.35 588.14,-300.8 612.18,-325.12 615.48,-328.45 619.21,-331.52 623.14,-334.32"/>
<polygon fill="#22e722" stroke="#ffffff" points="621.01,-337.12 631.32,-339.56 624.79,-331.22 621.01,-337.12"/>
</g>
<!-- pytest&#45;&gt;tests2_test_serializers -->
<g id="edge21" class="edge">
<title>pytest&#45;&gt;tests2_test_serializers</title><style>.edge>path:hover{stroke-width:8}</style>
<path fill="none" stroke="#ffffff" d="M576.18,-257.12C587.51,-264.25 600.48,-270.37 613.07,-275.42"/>
<polygon fill="#22e722" stroke="#ffffff" points="611.5,-278.57 622.09,-278.87 614,-272.03 611.5,-278.57"/>
<path fill="none" stroke="#ffffff" d="M472.01,-188.3C491.75,-191.7 518.9,-198.56 539.18,-212.12 560.47,-226.35 553.51,-243.47 575.18,-257.12"/>
</g>
<!-- rest_framework_simplejwt -->
<g id="node7" class="node">
<title>rest_framework_simplejwt</title><style>.edge>path:hover{stroke-width:8}</style>
<ellipse fill="#53b6b6" stroke="#ffffff" cx="445.14" cy="-357.12" rx="78.17" ry="18"/>
<text xml:space="preserve" text-anchor="middle" x="445.14" y="-353.62" font-family="Helvetica,sans-Serif" font-size="10.00" fill="#e0e0e0">rest_framework_simplejwt</text>
</g>
<!-- rest_framework_simplejwt&#45;&gt;tests2_test_security -->
<g id="edge22" class="edge">
<title>rest_framework_simplejwt&#45;&gt;tests2_test_security</title><style>.edge>path:hover{stroke-width:8}</style>
<path fill="none" stroke="#ffffff" d="M507.7,-368.12C518.87,-371.96 529.91,-377.14 539.18,-384.12 563.13,-402.13 546.24,-448.88 575.18,-441.12"/>
<path fill="none" stroke="#ffffff" d="M576.18,-441.12C606.18,-433.08 631.5,-407.81 648.11,-386.9"/>
<polygon fill="#53b6b6" stroke="#ffffff" points="650.72,-389.25 653.98,-379.17 645.14,-385.01 650.72,-389.25"/>
</g>
<!-- rest_framework_simplejwt_exceptions&#45;&gt;rest_framework_simplejwt_tokens -->
<g id="edge23" class="edge">
<title>rest_framework_simplejwt_exceptions&#45;&gt;rest_framework_simplejwt_tokens</title><style>.edge>path:hover{stroke-width:8}</style>
<path fill="none" stroke="#ffffff" d="M315.59,-416.12C323.39,-416.12 331.32,-416.12 339.2,-416.12"/>
<polygon fill="#3db8b8" stroke="#ffffff" points="339.19,-419.62 349.19,-416.12 339.19,-412.62 339.19,-419.62"/>
</g>
<!-- rest_framework_simplejwt_exceptions&#45;&gt;tests2_test_security -->
<g id="edge24" class="edge">
<title>rest_framework_simplejwt_exceptions&#45;&gt;tests2_test_security</title><style>.edge>path:hover{stroke-width:8}</style>
<path fill="none" stroke="#ffffff" d="M446.14,-467.12C504.59,-464.68 518.67,-456.27 575.18,-441.12"/>
<path fill="none" stroke="#ffffff" d="M271.6,-435.47C316.14,-450.93 383.66,-469.64 444.14,-467.12"/>
</g>
<!-- rest_framework_simplejwt_tokens&#45;&gt;tests2_test_security -->
<g id="edge25" class="edge">
<title>rest_framework_simplejwt_tokens&#45;&gt;tests2_test_security</title><style>.edge>path:hover{stroke-width:8}</style>
<path fill="none" stroke="#ffffff" d="M494.3,-435.79C518.72,-443.16 548.73,-448.21 575.18,-441.12"/>
</g>
<!-- typing -->
<g id="node15" class="node">
<title>typing</title><style>.edge>path:hover{stroke-width:8}</style>
<ellipse fill="#ce3bce" stroke="#ffffff" cx="27" cy="-416.12" rx="27" ry="18"/>
<text xml:space="preserve" text-anchor="middle" x="27" y="-412.62" font-family="Helvetica,sans-Serif" font-size="10.00" fill="#e0e0e0">typing</text>
</g>
<!-- typing&#45;&gt;rest_framework_simplejwt_exceptions -->
<g id="edge26" class="edge">
<title>typing&#45;&gt;rest_framework_simplejwt_exceptions</title><style>.edge>path:hover{stroke-width:8}</style>
<path fill="none" stroke="#ffffff" d="M91,-416.12C98.93,-416.12 107.14,-416.12 115.39,-416.12"/>
<polygon fill="#ce3bce" stroke="#ffffff" points="115.14,-419.62 125.14,-416.12 115.14,-412.62 115.14,-419.62"/>
</g>
<!-- typing&#45;&gt;rest_framework_simplejwt_tokens -->
<g id="edge27" class="edge">
<title>typing&#45;&gt;rest_framework_simplejwt_tokens</title><style>.edge>path:hover{stroke-width:8}</style>
<path fill="none" stroke="#ffffff" d="M54.25,-416.12C65.29,-416.12 78.27,-416.12 90,-416.12"/>
<path fill="none" stroke="#ffffff" d="M91,-416.12C112.41,-416.12 106.99,-391.73 127,-384.12 205.14,-354.41 232.11,-373.98 315.09,-384.12 334.53,-386.49 355.26,-390.81 374.29,-395.52"/>
<polygon fill="#ce3bce" stroke="#ffffff" points="373.25,-398.87 383.81,-397.95 374.98,-392.08 373.25,-398.87"/>
</g>
<!-- typing&#45;&gt;tests2_test_security -->
<g id="edge28" class="edge">
<title>typing&#45;&gt;tests2_test_security</title><style>.edge>path:hover{stroke-width:8}</style>
<path fill="none" stroke="#ffffff" d="M91,-416.12C112.41,-416.42 107.23,-439.92 127,-448.12 257.42,-502.22 303.06,-473 444.14,-467.12"/>
</g>
</g>
</svg>

