<?xml version="1.0" encoding="UTF-8" standalone="no"?>
<!DOCTYPE svg PUBLIC "-//W3C//DTD SVG 1.1//EN"
 "http://www.w3.org/Graphics/SVG/1.1/DTD/svg11.dtd">
<!-- Generated by graphviz version 15.0.0 (20260523.1842)
 -->
<!-- Title: G Pages: 1 -->
<svg style="background-color:#141414" width="1250pt" height="1171pt"
 viewBox="0.00 0.00 1250.00 1171.00" xmlns="http://www.w3.org/2000/svg" xmlns:xlink="http://www.w3.org/1999/xlink">
<g id="graph0" class="graph" transform="scale(1 1) rotate(0) translate(4 1167.38)">
<title>G</title><style>.edge>path:hover{stroke-width:8}</style>
<polygon fill="#141414" stroke="none" points="-4,4 -4,-1167.38 1245.96,-1167.38 1245.96,4 -4,4"/>
<!-- fastapi -->
<g id="node1" class="node">
<title>fastapi</title><style>.edge>path:hover{stroke-width:8}</style>
<polygon fill="#5a5a5a" stroke="#ffffff" points="156.17,-800 102.17,-800 102.17,-764 156.17,-764 156.17,-800"/>
<text xml:space="preserve" text-anchor="middle" x="129.17" y="-778.5" font-family="Helvetica,sans-Serif" font-size="10.00" fill="#e0e0e0">fastapi</text>
</g>
<!-- src_api_router -->
<g id="node15" class="node">
<title>src_api_router</title><style>.edge>path:hover{stroke-width:8}</style>
<ellipse fill="#2b2b82" stroke="#ffffff" cx="997.45" cy="-1032" rx="43.9" ry="18"/>
<text xml:space="preserve" text-anchor="middle" x="997.45" y="-1028.5" font-family="Helvetica,sans-Serif" font-size="10.00" fill="#e0e0e0">src.api.router</text>
</g>
<!-- fastapi&#45;&gt;src_api_router -->
<g id="edge1" class="edge">
<title>fastapi&#45;&gt;src_api_router</title><style>.edge>path:hover{stroke-width:8}</style>
<path fill="none" stroke="#ffffff" d="M863.46,-1055C892.47,-1056.66 924.58,-1051.31 949.98,-1045.36"/>
<polygon fill="#5a5a5a" stroke="#ffffff" points="950.81,-1048.76 959.68,-1042.97 949.13,-1041.97 950.81,-1048.76"/>
<path fill="none" stroke="#ffffff" d="M427.32,-1007C463.05,-1002.88 471.2,-996.12 507.04,-993 628.57,-982.41 667.53,-961.76 781.21,-1006 800.62,-1013.55 799.46,-1025.11 817.21,-1036 835.46,-1047.19 840.09,-1053.78 861.46,-1055"/>
<path fill="none" stroke="#ffffff" d="M198.34,-956C215.58,-968.7 214.73,-979.41 234.34,-988 312.47,-1022.23 340.1,-1010.67 425.32,-1007"/>
</g>
<!-- src_api_routes_auth -->
<g id="node17" class="node">
<title>src_api_routes_auth</title><style>.edge>path:hover{stroke-width:8}</style>
<ellipse fill="#3838a8" stroke="#ffffff" cx="745.5" cy="-919" rx="32.53" ry="39.6"/>
<text xml:space="preserve" text-anchor="middle" x="745.5" y="-933.5" font-family="Helvetica,sans-Serif" font-size="10.00" fill="#e0e0e0">src.</text>
<text xml:space="preserve" text-anchor="middle" x="745.5" y="-921.5" font-family="Helvetica,sans-Serif" font-size="10.00" fill="#e0e0e0">api.</text>
<text xml:space="preserve" text-anchor="middle" x="745.5" y="-909.5" font-family="Helvetica,sans-Serif" font-size="10.00" fill="#e0e0e0">routes.</text>
<text xml:space="preserve" text-anchor="middle" x="745.5" y="-897.5" font-family="Helvetica,sans-Serif" font-size="10.00" fill="#e0e0e0">auth</text>
</g>
<!-- fastapi&#45;&gt;src_api_routes_auth -->
<g id="edge2" class="edge">
<title>fastapi&#45;&gt;src_api_routes_auth</title><style>.edge>path:hover{stroke-width:8}</style>
<path fill="none" stroke="#ffffff" d="M198.34,-956C216.04,-968.04 214.33,-931.61 234.34,-924 280.56,-906.43 297.05,-914.62 345.59,-924 383.08,-931.24 387.2,-958.17 425.32,-956"/>
<path fill="none" stroke="#ffffff" d="M427.32,-956C525.95,-947.94 641.24,-933.13 702.01,-924.9"/>
<polygon fill="#5a5a5a" stroke="#ffffff" points="702.12,-928.42 711.56,-923.6 701.18,-921.48 702.12,-928.42"/>
<path fill="none" stroke="#ffffff" d="M136.02,-800.35C149.8,-843.06 184.14,-946.28 197.34,-956"/>
</g>
<!-- src_api_routes_health -->
<g id="node18" class="node">
<title>src_api_routes_health</title><style>.edge>path:hover{stroke-width:8}</style>
<ellipse fill="#3838a8" stroke="#ffffff" cx="745.5" cy="-1055" rx="32.53" ry="39.6"/>
<text xml:space="preserve" text-anchor="middle" x="745.5" y="-1069.5" font-family="Helvetica,sans-Serif" font-size="10.00" fill="#e0e0e0">src.</text>
<text xml:space="preserve" text-anchor="middle" x="745.5" y="-1057.5" font-family="Helvetica,sans-Serif" font-size="10.00" fill="#e0e0e0">api.</text>
<text xml:space="preserve" text-anchor="middle" x="745.5" y="-1045.5" font-family="Helvetica,sans-Serif" font-size="10.00" fill="#e0e0e0">routes.</text>
<text xml:space="preserve" text-anchor="middle" x="745.5" y="-1033.5" font-family="Helvetica,sans-Serif" font-size="10.00" fill="#e0e0e0">health</text>
</g>
<!-- fastapi&#45;&gt;src_api_routes_health -->
<g id="edge3" class="edge">
<title>fastapi&#45;&gt;src_api_routes_health</title><style>.edge>path:hover{stroke-width:8}</style>
<path fill="none" stroke="#ffffff" d="M427.32,-1007C462.51,-1002.94 473.51,-995.55 507.04,-1007"/>
</g>
<!-- src_api_routes_posts -->
<g id="node19" class="node">
<title>src_api_routes_posts</title><style>.edge>path:hover{stroke-width:8}</style>
<ellipse fill="#303091" stroke="#ffffff" cx="745.5" cy="-725" rx="32.53" ry="39.6"/>
<text xml:space="preserve" text-anchor="middle" x="745.5" y="-739.5" font-family="Helvetica,sans-Serif" font-size="10.00" fill="#e0e0e0">src.</text>
<text xml:space="preserve" text-anchor="middle" x="745.5" y="-727.5" font-family="Helvetica,sans-Serif" font-size="10.00" fill="#e0e0e0">api.</text>
<text xml:space="preserve" text-anchor="middle" x="745.5" y="-715.5" font-family="Helvetica,sans-Serif" font-size="10.00" fill="#e0e0e0">routes.</text>
<text xml:space="preserve" text-anchor="middle" x="745.5" y="-703.5" font-family="Helvetica,sans-Serif" font-size="10.00" fill="#e0e0e0">posts</text>
</g>
<!-- fastapi&#45;&gt;src_api_routes_posts -->
<g id="edge4" class="edge">
<title>fastapi&#45;&gt;src_api_routes_posts</title><style>.edge>path:hover{stroke-width:8}</style>
<path fill="none" stroke="#ffffff" d="M198.34,-712C222.5,-689.53 313.45,-700.44 345.59,-693 382.04,-684.56 391.31,-650.4 425.32,-666"/>
</g>
<!-- src_api_routes_root -->
<g id="node20" class="node">
<title>src_api_routes_root</title><style>.edge>path:hover{stroke-width:8}</style>
<ellipse fill="#3838a8" stroke="#ffffff" cx="745.5" cy="-822" rx="32.53" ry="39.6"/>
<text xml:space="preserve" text-anchor="middle" x="745.5" y="-836.5" font-family="Helvetica,sans-Serif" font-size="10.00" fill="#e0e0e0">src.</text>
<text xml:space="preserve" text-anchor="middle" x="745.5" y="-824.5" font-family="Helvetica,sans-Serif" font-size="10.00" fill="#e0e0e0">api.</text>
<text xml:space="preserve" text-anchor="middle" x="745.5" y="-812.5" font-family="Helvetica,sans-Serif" font-size="10.00" fill="#e0e0e0">routes.</text>
<text xml:space="preserve" text-anchor="middle" x="745.5" y="-800.5" font-family="Helvetica,sans-Serif" font-size="10.00" fill="#e0e0e0">root</text>
</g>
<!-- fastapi&#45;&gt;src_api_routes_root -->
<g id="edge5" class="edge">
<title>fastapi&#45;&gt;src_api_routes_root</title><style>.edge>path:hover{stroke-width:8}</style>
<path fill="none" stroke="#ffffff" d="M198.34,-712C211.52,-700.99 218.02,-720.68 234.34,-726 298.71,-746.97 315.27,-751.38 381.59,-765 510.17,-791.4 544.44,-785.69 673.79,-808 683,-809.59 692.85,-811.44 702.18,-813.27"/>
<polygon fill="#5a5a5a" stroke="#ffffff" points="701.26,-816.65 711.75,-815.17 702.63,-809.79 701.26,-816.65"/>
</g>
<!-- src_api_routes_users -->
<g id="node21" class="node">
<title>src_api_routes_users</title><style>.edge>path:hover{stroke-width:8}</style>
<ellipse fill="#2e2e8a" stroke="#ffffff" cx="745.5" cy="-516" rx="32.53" ry="39.6"/>
<text xml:space="preserve" text-anchor="middle" x="745.5" y="-530.5" font-family="Helvetica,sans-Serif" font-size="10.00" fill="#e0e0e0">src.</text>
<text xml:space="preserve" text-anchor="middle" x="745.5" y="-518.5" font-family="Helvetica,sans-Serif" font-size="10.00" fill="#e0e0e0">api.</text>
<text xml:space="preserve" text-anchor="middle" x="745.5" y="-506.5" font-family="Helvetica,sans-Serif" font-size="10.00" fill="#e0e0e0">routes.</text>
<text xml:space="preserve" text-anchor="middle" x="745.5" y="-494.5" font-family="Helvetica,sans-Serif" font-size="10.00" fill="#e0e0e0">users</text>
</g>
<!-- fastapi&#45;&gt;src_api_routes_users -->
<g id="edge6" class="edge">
<title>fastapi&#45;&gt;src_api_routes_users</title><style>.edge>path:hover{stroke-width:8}</style>
<path fill="none" stroke="#ffffff" d="M290.97,-448C352.92,-408.18 351.69,-546.73 425.32,-545"/>
<path fill="none" stroke="#ffffff" d="M427.32,-545C525.99,-542.69 641.27,-529.5 702.02,-521.73"/>
<polygon fill="#5a5a5a" stroke="#ffffff" points="702.1,-525.25 711.57,-520.49 701.2,-518.31 702.1,-525.25"/>
</g>
<!-- src_helpers_exceptions -->
<g id="node26" class="node">
<title>src_helpers_exceptions</title><style>.edge>path:hover{stroke-width:8}</style>
<ellipse fill="#2f2fbc" stroke="#ffffff" cx="426.32" cy="-389" rx="44.72" ry="31.11"/>
<text xml:space="preserve" text-anchor="middle" x="426.32" y="-397.5" font-family="Helvetica,sans-Serif" font-size="10.00" fill="#e0e0e0">src.</text>
<text xml:space="preserve" text-anchor="middle" x="426.32" y="-385.5" font-family="Helvetica,sans-Serif" font-size="10.00" fill="#e0e0e0">helpers.</text>
<text xml:space="preserve" text-anchor="middle" x="426.32" y="-373.5" font-family="Helvetica,sans-Serif" font-size="10.00" fill="#e0e0e0">exceptions</text>
</g>
<!-- fastapi&#45;&gt;src_helpers_exceptions -->
<g id="edge7" class="edge">
<title>fastapi&#45;&gt;src_helpers_exceptions</title><style>.edge>path:hover{stroke-width:8}</style>
<path fill="none" stroke="#ffffff" d="M145.74,-763.67C158.75,-748.88 178.22,-727.99 197.34,-712"/>
<path fill="none" stroke="#ffffff" d="M290.97,-448C291.1,-447.92 339.25,-426.78 377.86,-409.83"/>
<polygon fill="#5a5a5a" stroke="#ffffff" points="378.81,-413.23 386.56,-406.01 375.99,-406.82 378.81,-413.23"/>
<path fill="none" stroke="#ffffff" d="M198.34,-712C281.11,-642.83 168.82,-557.68 234.34,-472 250.45,-450.94 266.66,-462.34 288.97,-448"/>
</g>
<!-- src_main -->
<g id="node29" class="node">
<title>src_main</title><style>.edge>path:hover{stroke-width:8}</style>
<ellipse fill="#2e2e6b" stroke="#ffffff" cx="1209.79" cy="-661" rx="32.17" ry="18"/>
<text xml:space="preserve" text-anchor="middle" x="1209.79" y="-657.5" font-family="Helvetica,sans-Serif" font-size="10.00" fill="#e0e0e0">src.main</text>
</g>
<!-- fastapi&#45;&gt;src_main -->
<g id="edge8" class="edge">
<title>fastapi&#45;&gt;src_main</title><style>.edge>path:hover{stroke-width:8}</style>
<path fill="none" stroke="#ffffff" d="M290.97,-448C333.36,-420.76 694.27,-451.95 744.5,-448"/>
</g>
<!-- fastapi_responses -->
<g id="node2" class="node">
<title>fastapi_responses</title><style>.edge>path:hover{stroke-width:8}</style>
<polygon fill="#5a5a5a" stroke="#ffffff" points="61,-800 0,-800 0,-764 61,-764 61,-800"/>
<text xml:space="preserve" text-anchor="middle" x="30.5" y="-784.5" font-family="Helvetica,sans-Serif" font-size="10.00" fill="#e0e0e0">fastapi.</text>
<text xml:space="preserve" text-anchor="middle" x="30.5" y="-772.5" font-family="Helvetica,sans-Serif" font-size="10.00" fill="#e0e0e0">responses</text>
</g>
<!-- fastapi_responses&#45;&gt;fastapi -->
<g id="edge9" class="edge">
<title>fastapi_responses&#45;&gt;fastapi</title><style>.edge>path:hover{stroke-width:8}</style>
<path fill="none" stroke="#ffffff" d="M61.29,-782C70.52,-782 80.81,-782 90.5,-782"/>
<polygon fill="#5a5a5a" stroke="#ffffff" points="90.4,-785.5 100.4,-782 90.4,-778.5 90.4,-785.5"/>
</g>
<!-- fastapi_responses&#45;&gt;src_helpers_exceptions -->
<g id="edge10" class="edge">
<title>fastapi_responses&#45;&gt;src_helpers_exceptions</title><style>.edge>path:hover{stroke-width:8}</style>
<path fill="none" stroke="#ffffff" d="M36.49,-763.76C53.42,-705.54 114.34,-522.83 234.34,-434 273.67,-404.89 329,-394.28 369.98,-390.57"/>
<polygon fill="#5a5a5a" stroke="#ffffff" points="370.2,-394.07 379.9,-389.8 369.66,-387.09 370.2,-394.07"/>
</g>
<!-- fastapi_responses&#45;&gt;src_main -->
<g id="edge11" class="edge">
<title>fastapi_responses&#45;&gt;src_main</title><style>.edge>path:hover{stroke-width:8}</style>
<path fill="none" stroke="#ffffff" d="M31.78,-800.44C33.94,-871.69 51.83,-1125 197.34,-1125 197.34,-1125 197.34,-1125 290.97,-1125 657.82,-1125 801.01,-1247.32 1113.4,-1055"/>
</g>
<!-- fastapi_security -->
<g id="node3" class="node">
<title>fastapi_security</title><style>.edge>path:hover{stroke-width:8}</style>
<ellipse fill="#b65353" stroke="#ffffff" cx="289.97" cy="-956" rx="35.71" ry="22.63"/>
<text xml:space="preserve" text-anchor="middle" x="289.97" y="-958.5" font-family="Helvetica,sans-Serif" font-size="10.00" fill="#e0e0e0">fastapi.</text>
<text xml:space="preserve" text-anchor="middle" x="289.97" y="-946.5" font-family="Helvetica,sans-Serif" font-size="10.00" fill="#e0e0e0">security</text>
</g>
<!-- fastapi_security&#45;&gt;src_api_routes_auth -->
<g id="edge12" class="edge">
<title>fastapi_security&#45;&gt;src_api_routes_auth</title><style>.edge>path:hover{stroke-width:8}</style>
<path fill="none" stroke="#ffffff" d="M326.07,-957.09C353.2,-957.67 391.67,-957.92 425.32,-956"/>
</g>
<!-- fastapi_staticfiles -->
<g id="node4" class="node">
<title>fastapi_staticfiles</title><style>.edge>path:hover{stroke-width:8}</style>
<ellipse fill="#b65353" stroke="#ffffff" cx="997.45" cy="-973" rx="41.01" ry="22.63"/>
<text xml:space="preserve" text-anchor="middle" x="997.45" y="-975.5" font-family="Helvetica,sans-Serif" font-size="10.00" fill="#e0e0e0">fastapi.</text>
<text xml:space="preserve" text-anchor="middle" x="997.45" y="-963.5" font-family="Helvetica,sans-Serif" font-size="10.00" fill="#e0e0e0">staticfiles</text>
</g>
<!-- fastapi_staticfiles&#45;&gt;src_main -->
<g id="edge13" class="edge">
<title>fastapi_staticfiles&#45;&gt;src_main</title><style>.edge>path:hover{stroke-width:8}</style>
<path fill="none" stroke="#ffffff" d="M1026.81,-989.27C1034.83,-994.12 1043.47,-999.59 1051.19,-1005 1080.24,-1025.36 1083.2,-1073.6 1113.4,-1055"/>
<path fill="none" stroke="#ffffff" d="M1115.4,-1055C1178.31,-1016.27 1200.87,-775.59 1206.93,-690.64"/>
<polygon fill="#b65353" stroke="#ffffff" points="1210.41,-691.01 1207.6,-680.79 1203.43,-690.53 1210.41,-691.01"/>
</g>
<!-- jose -->
<g id="node5" class="node">
<title>jose</title><style>.edge>path:hover{stroke-width:8}</style>
<ellipse fill="#c29947" stroke="#ffffff" cx="608.92" cy="-126" rx="27" ry="18"/>
<text xml:space="preserve" text-anchor="middle" x="608.92" y="-122.5" font-family="Helvetica,sans-Serif" font-size="10.00" fill="#e0e0e0">jose</text>
</g>
<!-- src_helpers_security -->
<g id="node28" class="node">
<title>src_helpers_security</title><style>.edge>path:hover{stroke-width:8}</style>
<ellipse fill="#373781" stroke="#ffffff" cx="997.45" cy="-160" rx="35.71" ry="31.11"/>
<text xml:space="preserve" text-anchor="middle" x="997.45" y="-168.5" font-family="Helvetica,sans-Serif" font-size="10.00" fill="#e0e0e0">src.</text>
<text xml:space="preserve" text-anchor="middle" x="997.45" y="-156.5" font-family="Helvetica,sans-Serif" font-size="10.00" fill="#e0e0e0">helpers.</text>
<text xml:space="preserve" text-anchor="middle" x="997.45" y="-144.5" font-family="Helvetica,sans-Serif" font-size="10.00" fill="#e0e0e0">security</text>
</g>
<!-- jose&#45;&gt;src_helpers_security -->
<g id="edge14" class="edge">
<title>jose&#45;&gt;src_helpers_security</title><style>.edge>path:hover{stroke-width:8}</style>
<path fill="none" stroke="#ffffff" d="M636.29,-124.55C663.47,-123.4 707.05,-122.5 744.5,-126"/>
</g>
<!-- jose_jwt -->
<g id="node6" class="node">
<title>jose_jwt</title><style>.edge>path:hover{stroke-width:8}</style>
<ellipse fill="#b3914c" stroke="#ffffff" cx="608.92" cy="-72" rx="29.92" ry="18"/>
<text xml:space="preserve" text-anchor="middle" x="608.92" y="-68.5" font-family="Helvetica,sans-Serif" font-size="10.00" fill="#e0e0e0">jose.jwt</text>
</g>
<!-- jose_jwt&#45;&gt;src_helpers_security -->
<g id="edge15" class="edge">
<title>jose_jwt&#45;&gt;src_helpers_security</title><style>.edge>path:hover{stroke-width:8}</style>
<path fill="none" stroke="#ffffff" d="M634.2,-82.16C671.37,-97.65 738.72,-125.46 744.5,-126"/>
</g>
<!-- passlib -->
<g id="node7" class="node">
<title>passlib</title><style>.edge>path:hover{stroke-width:8}</style>
<ellipse fill="#99c247" stroke="#ffffff" cx="608.92" cy="-18" rx="28.11" ry="18"/>
<text xml:space="preserve" text-anchor="middle" x="608.92" y="-14.5" font-family="Helvetica,sans-Serif" font-size="10.00" fill="#e0e0e0">passlib</text>
</g>
<!-- passlib&#45;&gt;src_helpers_security -->
<g id="edge16" class="edge">
<title>passlib&#45;&gt;src_helpers_security</title><style>.edge>path:hover{stroke-width:8}</style>
<path fill="none" stroke="#ffffff" d="M746.5,-126C818.31,-132.71 901.16,-144.86 951.13,-152.67"/>
<polygon fill="#99c247" stroke="#ffffff" points="950.27,-156.08 960.7,-154.17 951.36,-149.16 950.27,-156.08"/>
<path fill="none" stroke="#ffffff" d="M634.94,-25.59C647.32,-30.07 662.09,-36.53 673.79,-45 712.5,-73.02 697.28,-118.69 744.5,-126"/>
</g>
<!-- passlib_context -->
<g id="node8" class="node">
<title>passlib_context</title><style>.edge>path:hover{stroke-width:8}</style>
<ellipse fill="#91b34c" stroke="#ffffff" cx="608.92" cy="-185" rx="35.18" ry="22.63"/>
<text xml:space="preserve" text-anchor="middle" x="608.92" y="-187.5" font-family="Helvetica,sans-Serif" font-size="10.00" fill="#e0e0e0">passlib.</text>
<text xml:space="preserve" text-anchor="middle" x="608.92" y="-175.5" font-family="Helvetica,sans-Serif" font-size="10.00" fill="#e0e0e0">context</text>
</g>
<!-- passlib_context&#45;&gt;src_helpers_security -->
<g id="edge17" class="edge">
<title>passlib_context&#45;&gt;src_helpers_security</title><style>.edge>path:hover{stroke-width:8}</style>
<path fill="none" stroke="#ffffff" d="M637.25,-171.31C673.23,-153.56 733.26,-124.95 744.5,-126"/>
</g>
<!-- pydantic -->
<g id="node9" class="node">
<title>pydantic</title><style>.edge>path:hover{stroke-width:8}</style>
<ellipse fill="#19e619" stroke="#ffffff" cx="129.17" cy="-906" rx="31.72" ry="18"/>
<text xml:space="preserve" text-anchor="middle" x="129.17" y="-902.5" font-family="Helvetica,sans-Serif" font-size="10.00" fill="#e0e0e0">pydantic</text>
</g>
<!-- pydantic&#45;&gt;src_api_routes_users -->
<g id="edge18" class="edge">
<title>pydantic&#45;&gt;src_api_routes_users</title><style>.edge>path:hover{stroke-width:8}</style>
<path fill="none" stroke="#ffffff" d="M198.34,-750C267.89,-664.7 151.06,-576.94 234.34,-505 271.76,-472.68 297.48,-493.61 345.59,-505 384.17,-514.13 385.72,-546.86 425.32,-545"/>
<path fill="none" stroke="#ffffff" d="M134.34,-887.83C142.22,-856.72 161.77,-792.52 197.34,-750"/>
</g>
<!-- src_schemas_health -->
<g id="node31" class="node">
<title>src_schemas_health</title><style>.edge>path:hover{stroke-width:8}</style>
<ellipse fill="#4040c0" stroke="#ffffff" cx="426.32" cy="-1066" rx="41.54" ry="31.11"/>
<text xml:space="preserve" text-anchor="middle" x="426.32" y="-1074.5" font-family="Helvetica,sans-Serif" font-size="10.00" fill="#e0e0e0">src.</text>
<text xml:space="preserve" text-anchor="middle" x="426.32" y="-1062.5" font-family="Helvetica,sans-Serif" font-size="10.00" fill="#e0e0e0">schemas.</text>
<text xml:space="preserve" text-anchor="middle" x="426.32" y="-1050.5" font-family="Helvetica,sans-Serif" font-size="10.00" fill="#e0e0e0">health</text>
</g>
<!-- pydantic&#45;&gt;src_schemas_health -->
<g id="edge19" class="edge">
<title>pydantic&#45;&gt;src_schemas_health</title><style>.edge>path:hover{stroke-width:8}</style>
<path fill="none" stroke="#ffffff" d="M140.67,-923.03C157.28,-948.47 192.12,-996.08 234.34,-1021 277.06,-1046.21 332.98,-1057.3 373.25,-1062.18"/>
<polygon fill="#19e619" stroke="#ffffff" points="372.86,-1065.65 383.19,-1063.28 373.64,-1058.7 372.86,-1065.65"/>
</g>
<!-- src_schemas_post -->
<g id="node32" class="node">
<title>src_schemas_post</title><style>.edge>path:hover{stroke-width:8}</style>
<ellipse fill="#4040c0" stroke="#ffffff" cx="426.32" cy="-725" rx="41.54" ry="31.11"/>
<text xml:space="preserve" text-anchor="middle" x="426.32" y="-733.5" font-family="Helvetica,sans-Serif" font-size="10.00" fill="#e0e0e0">src.</text>
<text xml:space="preserve" text-anchor="middle" x="426.32" y="-721.5" font-family="Helvetica,sans-Serif" font-size="10.00" fill="#e0e0e0">schemas.</text>
<text xml:space="preserve" text-anchor="middle" x="426.32" y="-709.5" font-family="Helvetica,sans-Serif" font-size="10.00" fill="#e0e0e0">post</text>
</g>
<!-- pydantic&#45;&gt;src_schemas_post -->
<g id="edge20" class="edge">
<title>pydantic&#45;&gt;src_schemas_post</title><style>.edge>path:hover{stroke-width:8}</style>
<path fill="none" stroke="#ffffff" d="M198.34,-750C209.46,-736.92 309.45,-730.09 372.95,-727.05"/>
<polygon fill="#19e619" stroke="#ffffff" points="373.02,-730.55 382.84,-726.59 372.69,-723.56 373.02,-730.55"/>
</g>
<!-- src_schemas_root -->
<g id="node33" class="node">
<title>src_schemas_root</title><style>.edge>path:hover{stroke-width:8}</style>
<ellipse fill="#4040c0" stroke="#ffffff" cx="426.32" cy="-897" rx="41.54" ry="31.11"/>
<text xml:space="preserve" text-anchor="middle" x="426.32" y="-905.5" font-family="Helvetica,sans-Serif" font-size="10.00" fill="#e0e0e0">src.</text>
<text xml:space="preserve" text-anchor="middle" x="426.32" y="-893.5" font-family="Helvetica,sans-Serif" font-size="10.00" fill="#e0e0e0">schemas.</text>
<text xml:space="preserve" text-anchor="middle" x="426.32" y="-881.5" font-family="Helvetica,sans-Serif" font-size="10.00" fill="#e0e0e0">root</text>
</g>
<!-- pydantic&#45;&gt;src_schemas_root -->
<g id="edge21" class="edge">
<title>pydantic&#45;&gt;src_schemas_root</title><style>.edge>path:hover{stroke-width:8}</style>
<path fill="none" stroke="#ffffff" d="M198.34,-750C216.32,-728.39 213.09,-783.6 234.34,-802 276.88,-838.82 336.19,-865.39 377.38,-880.92"/>
<polygon fill="#19e619" stroke="#ffffff" points="375.95,-884.12 386.54,-884.29 378.37,-877.55 375.95,-884.12"/>
</g>
<!-- pydantic_settings -->
<g id="node10" class="node">
<title>pydantic_settings</title><style>.edge>path:hover{stroke-width:8}</style>
<ellipse fill="#53b695" stroke="#ffffff" cx="289.97" cy="-236" rx="55.62" ry="18"/>
<text xml:space="preserve" text-anchor="middle" x="289.97" y="-232.5" font-family="Helvetica,sans-Serif" font-size="10.00" fill="#e0e0e0">pydantic_settings</text>
</g>
<!-- src_helpers_config_config -->
<g id="node24" class="node">
<title>src_helpers_config_config</title><style>.edge>path:hover{stroke-width:8}</style>
<ellipse fill="#2020b6" stroke="#ffffff" cx="745.5" cy="-304" rx="35.71" ry="39.6"/>
<text xml:space="preserve" text-anchor="middle" x="745.5" y="-318.5" font-family="Helvetica,sans-Serif" font-size="10.00" fill="#e0e0e0">src.</text>
<text xml:space="preserve" text-anchor="middle" x="745.5" y="-306.5" font-family="Helvetica,sans-Serif" font-size="10.00" fill="#e0e0e0">helpers.</text>
<text xml:space="preserve" text-anchor="middle" x="745.5" y="-294.5" font-family="Helvetica,sans-Serif" font-size="10.00" fill="#e0e0e0">config.</text>
<text xml:space="preserve" text-anchor="middle" x="745.5" y="-282.5" font-family="Helvetica,sans-Serif" font-size="10.00" fill="#e0e0e0">config</text>
</g>
<!-- pydantic_settings&#45;&gt;src_helpers_config_config -->
<g id="edge22" class="edge">
<title>pydantic_settings&#45;&gt;src_helpers_config_config</title><style>.edge>path:hover{stroke-width:8}</style>
<path fill="none" stroke="#ffffff" d="M342.8,-229.77C417.99,-222.67 560.71,-216.54 673.79,-255 685.7,-259.05 697.43,-265.74 707.8,-272.89"/>
<polygon fill="#53b695" stroke="#ffffff" points="705.55,-275.58 715.69,-278.64 709.67,-269.92 705.55,-275.58"/>
</g>
<!-- sqlalchemy -->
<g id="node11" class="node">
<title>sqlalchemy</title><style>.edge>path:hover{stroke-width:8}</style>
<ellipse fill="#269dd9" stroke="#ffffff" cx="289.97" cy="-666" rx="39.39" ry="18"/>
<text xml:space="preserve" text-anchor="middle" x="289.97" y="-662.5" font-family="Helvetica,sans-Serif" font-size="10.00" fill="#e0e0e0">sqlalchemy</text>
</g>
<!-- sqlalchemy&#45;&gt;src_api_routes_posts -->
<g id="edge23" class="edge">
<title>sqlalchemy&#45;&gt;src_api_routes_posts</title><style>.edge>path:hover{stroke-width:8}</style>
<path fill="none" stroke="#ffffff" d="M326.06,-658.27C354.21,-653.84 394.05,-651.65 425.32,-666"/>
</g>
<!-- sqlalchemy&#45;&gt;src_api_routes_users -->
<g id="edge24" class="edge">
<title>sqlalchemy&#45;&gt;src_api_routes_users</title><style>.edge>path:hover{stroke-width:8}</style>
<path fill="none" stroke="#ffffff" d="M320.34,-654.2C328.91,-650.05 338,-644.93 345.59,-639 388.76,-605.27 370.55,-546.28 425.32,-545"/>
</g>
<!-- sqlalchemy_ext -->
<g id="node12" class="node">
<title>sqlalchemy_ext</title><style>.edge>path:hover{stroke-width:8}</style>
<ellipse fill="#4095c0" stroke="#ffffff" cx="289.97" cy="-612" rx="48.86" ry="18"/>
<text xml:space="preserve" text-anchor="middle" x="289.97" y="-608.5" font-family="Helvetica,sans-Serif" font-size="10.00" fill="#e0e0e0">sqlalchemy.ext</text>
</g>
<!-- sqlalchemy_ext&#45;&gt;src_api_routes_posts -->
<g id="edge25" class="edge">
<title>sqlalchemy_ext&#45;&gt;src_api_routes_posts</title><style>.edge>path:hover{stroke-width:8}</style>
<path fill="none" stroke="#ffffff" d="M325.31,-624.76C352.68,-635.18 391.84,-650.64 425.32,-666"/>
</g>
<!-- sqlalchemy_ext&#45;&gt;src_api_routes_users -->
<g id="edge26" class="edge">
<title>sqlalchemy_ext&#45;&gt;src_api_routes_users</title><style>.edge>path:hover{stroke-width:8}</style>
<path fill="none" stroke="#ffffff" d="M320.47,-597.46C328.61,-593.43 337.45,-589.06 345.59,-585 381.08,-567.33 385.68,-545.93 425.32,-545"/>
</g>
<!-- sqlalchemy_ext_asyncio -->
<g id="node13" class="node">
<title>sqlalchemy_ext_asyncio</title><style>.edge>path:hover{stroke-width:8}</style>
<ellipse fill="#4799c2" stroke="#ffffff" cx="289.97" cy="-545" rx="47.91" ry="31.11"/>
<text xml:space="preserve" text-anchor="middle" x="289.97" y="-553.5" font-family="Helvetica,sans-Serif" font-size="10.00" fill="#e0e0e0">sqlalchemy.</text>
<text xml:space="preserve" text-anchor="middle" x="289.97" y="-541.5" font-family="Helvetica,sans-Serif" font-size="10.00" fill="#e0e0e0">ext.</text>
<text xml:space="preserve" text-anchor="middle" x="289.97" y="-529.5" font-family="Helvetica,sans-Serif" font-size="10.00" fill="#e0e0e0">asyncio</text>
</g>
<!-- sqlalchemy_ext_asyncio&#45;&gt;src_api_routes_posts -->
<g id="edge27" class="edge">
<title>sqlalchemy_ext_asyncio&#45;&gt;src_api_routes_posts</title><style>.edge>path:hover{stroke-width:8}</style>
<path fill="none" stroke="#ffffff" d="M427.32,-666C446.57,-674.84 453.84,-672.62 471.04,-685 490.45,-698.97 483.48,-720.85 507.04,-725"/>
<path fill="none" stroke="#ffffff" d="M508.04,-725C574.76,-736.74 653.71,-733.35 701.41,-729.45"/>
<polygon fill="#4799c2" stroke="#ffffff" points="701.67,-732.94 711.33,-728.59 701.06,-725.97 701.67,-732.94"/>
<path fill="none" stroke="#ffffff" d="M323.69,-567.64C331.07,-573.11 338.74,-579.08 345.59,-585 383.81,-618.03 379.41,-644.93 425.32,-666"/>
</g>
<!-- sqlalchemy_ext_asyncio&#45;&gt;src_api_routes_users -->
<g id="edge28" class="edge">
<title>sqlalchemy_ext_asyncio&#45;&gt;src_api_routes_users</title><style>.edge>path:hover{stroke-width:8}</style>
<path fill="none" stroke="#ffffff" d="M338.23,-545.54C363.98,-545.7 396.4,-545.68 425.32,-545"/>
</g>
<!-- src_api -->
<g id="node14" class="node">
<title>src_api</title><style>.edge>path:hover{stroke-width:8}</style>
<ellipse fill="#2f2fdb" stroke="#ffffff" cx="1114.4" cy="-661" rx="27.21" ry="18"/>
<text xml:space="preserve" text-anchor="middle" x="1114.4" y="-657.5" font-family="Helvetica,sans-Serif" font-size="10.00" fill="#e0e0e0">src.api</text>
</g>
<!-- src_api&#45;&gt;src_main -->
<g id="edge29" class="edge">
<title>src_api&#45;&gt;src_main</title><style>.edge>path:hover{stroke-width:8}</style>
<path fill="none" stroke="#ffffff" d="M1141.91,-661C1149.39,-661 1157.72,-661 1165.9,-661"/>
<polygon fill="#2f2fdb" stroke="#ffffff" points="1165.73,-664.5 1175.73,-661 1165.73,-657.5 1165.73,-664.5"/>
</g>
<!-- src_api_router&#45;&gt;src_main -->
<g id="edge30" class="edge">
<title>src_api_router&#45;&gt;src_main</title><style>.edge>path:hover{stroke-width:8}</style>
<path fill="none" stroke="#ffffff" d="M1023.59,-1046.71C1048.18,-1058.98 1085.85,-1071.96 1113.4,-1055"/>
</g>
<!-- src_api_routes -->
<g id="node16" class="node">
<title>src_api_routes</title><style>.edge>path:hover{stroke-width:8}</style>
<ellipse fill="#4747c2" stroke="#ffffff" cx="862.46" cy="-1009" rx="45.25" ry="18"/>
<text xml:space="preserve" text-anchor="middle" x="862.46" y="-1005.5" font-family="Helvetica,sans-Serif" font-size="10.00" fill="#e0e0e0">src.api.routes</text>
</g>
<!-- src_api_routes&#45;&gt;src_api_router -->
<g id="edge31" class="edge">
<title>src_api_routes&#45;&gt;src_api_router</title><style>.edge>path:hover{stroke-width:8}</style>
<path fill="none" stroke="#ffffff" d="M904.45,-1016.09C917.45,-1018.34 931.98,-1020.85 945.58,-1023.2"/>
<polygon fill="#4747c2" stroke="#ffffff" points="944.8,-1026.62 955.25,-1024.87 945.99,-1019.72 944.8,-1026.62"/>
</g>
<!-- src_api_routes_auth&#45;&gt;src_api_router -->
<g id="edge32" class="edge">
<title>src_api_routes_auth&#45;&gt;src_api_router</title><style>.edge>path:hover{stroke-width:8}</style>
<path fill="none" stroke="#ffffff" d="M768.91,-891.14C797.56,-857.06 845.37,-805.78 861.46,-822"/>
</g>
<!-- src_api_routes_health&#45;&gt;src_api_router -->
<g id="edge33" class="edge">
<title>src_api_routes_health&#45;&gt;src_api_router</title><style>.edge>path:hover{stroke-width:8}</style>
<path fill="none" stroke="#ffffff" d="M778.25,-1054.03C801.35,-1053.56 833.37,-1053.39 861.46,-1055"/>
</g>
<!-- src_api_routes_posts&#45;&gt;src_api_router -->
<g id="edge34" class="edge">
<title>src_api_routes_posts&#45;&gt;src_api_router</title><style>.edge>path:hover{stroke-width:8}</style>
<path fill="none" stroke="#ffffff" d="M773.69,-745.7C797.76,-764.53 833.32,-793.64 861.46,-822"/>
</g>
<!-- src_api_routes_root&#45;&gt;src_api_router -->
<g id="edge35" class="edge">
<title>src_api_routes_root&#45;&gt;src_api_router</title><style>.edge>path:hover{stroke-width:8}</style>
<path fill="none" stroke="#ffffff" d="M777.17,-811.4C803.33,-804.53 840.03,-800.39 861.46,-822"/>
</g>
<!-- src_api_routes_users&#45;&gt;src_api_router -->
<g id="edge36" class="edge">
<title>src_api_routes_users&#45;&gt;src_api_router</title><style>.edge>path:hover{stroke-width:8}</style>
<path fill="none" stroke="#ffffff" d="M863.46,-822C926.01,-885.05 882.82,-940.35 943.71,-1005 946.93,-1008.41 950.67,-1011.46 954.64,-1014.18"/>
<polygon fill="#2e2e8a" stroke="#ffffff" points="952.54,-1017 962.92,-1019.13 956.13,-1010.99 952.54,-1017"/>
<path fill="none" stroke="#ffffff" d="M756.49,-553.71C776.43,-626.54 822.59,-782.82 861.46,-822"/>
</g>
<!-- src_helpers -->
<g id="node22" class="node">
<title>src_helpers</title><style>.edge>path:hover{stroke-width:8}</style>
<ellipse fill="#1616f3" stroke="#ffffff" cx="426.32" cy="-494" rx="38.49" ry="18"/>
<text xml:space="preserve" text-anchor="middle" x="426.32" y="-490.5" font-family="Helvetica,sans-Serif" font-size="10.00" fill="#e0e0e0">src.helpers</text>
</g>
<!-- src_helpers&#45;&gt;src_api_routes_users -->
<g id="edge37" class="edge">
<title>src_helpers&#45;&gt;src_api_routes_users</title><style>.edge>path:hover{stroke-width:8}</style>
<path fill="none" stroke="#ffffff" d="M609.92,-486C641.75,-485.53 676.84,-493.65 703.2,-501.56"/>
<polygon fill="#1616f3" stroke="#ffffff" points="701.89,-504.82 712.48,-504.45 703.98,-498.13 701.89,-504.82"/>
</g>
<!-- src_helpers&#45;&gt;src_main -->
<g id="edge38" class="edge">
<title>src_helpers&#45;&gt;src_main</title><style>.edge>path:hover{stroke-width:8}</style>
<path fill="none" stroke="#ffffff" d="M609.92,-486C672.06,-485.09 682.55,-453 744.5,-448"/>
<path fill="none" stroke="#ffffff" d="M464.65,-491.7C501.16,-489.6 558.33,-486.73 607.92,-486"/>
</g>
<!-- src_helpers_config -->
<g id="node23" class="node">
<title>src_helpers_config</title><style>.edge>path:hover{stroke-width:8}</style>
<ellipse fill="#2222e7" stroke="#ffffff" cx="862.46" cy="-273" rx="35.71" ry="31.11"/>
<text xml:space="preserve" text-anchor="middle" x="862.46" y="-281.5" font-family="Helvetica,sans-Serif" font-size="10.00" fill="#e0e0e0">src.</text>
<text xml:space="preserve" text-anchor="middle" x="862.46" y="-269.5" font-family="Helvetica,sans-Serif" font-size="10.00" fill="#e0e0e0">helpers.</text>
<text xml:space="preserve" text-anchor="middle" x="862.46" y="-257.5" font-family="Helvetica,sans-Serif" font-size="10.00" fill="#e0e0e0">config</text>
</g>
<!-- src_helpers_logging_setup -->
<g id="node27" class="node">
<title>src_helpers_logging_setup</title><style>.edge>path:hover{stroke-width:8}</style>
<ellipse fill="#3535a1" stroke="#ffffff" cx="997.45" cy="-332" rx="53.74" ry="31.11"/>
<text xml:space="preserve" text-anchor="middle" x="997.45" y="-340.5" font-family="Helvetica,sans-Serif" font-size="10.00" fill="#e0e0e0">src.</text>
<text xml:space="preserve" text-anchor="middle" x="997.45" y="-328.5" font-family="Helvetica,sans-Serif" font-size="10.00" fill="#e0e0e0">helpers.</text>
<text xml:space="preserve" text-anchor="middle" x="997.45" y="-316.5" font-family="Helvetica,sans-Serif" font-size="10.00" fill="#e0e0e0">logging_setup</text>
</g>
<!-- src_helpers_config&#45;&gt;src_helpers_logging_setup -->
<g id="edge39" class="edge">
<title>src_helpers_config&#45;&gt;src_helpers_logging_setup</title><style>.edge>path:hover{stroke-width:8}</style>
<path fill="none" stroke="#ffffff" d="M894.64,-286.83C909.33,-293.35 927.25,-301.3 943.95,-308.71"/>
<polygon fill="#2222e7" stroke="#ffffff" points="942.2,-311.76 952.76,-312.61 945.04,-305.36 942.2,-311.76"/>
</g>
<!-- src_helpers_config&#45;&gt;src_helpers_security -->
<g id="edge40" class="edge">
<title>src_helpers_config&#45;&gt;src_helpers_security</title><style>.edge>path:hover{stroke-width:8}</style>
<path fill="none" stroke="#ffffff" d="M887.19,-250.38C902.91,-235.67 924.16,-216.25 943.71,-200 949.11,-195.52 954.93,-190.9 960.66,-186.46"/>
<polygon fill="#2222e7" stroke="#ffffff" points="962.51,-189.46 968.33,-180.61 958.26,-183.89 962.51,-189.46"/>
</g>
<!-- src_helpers_config&#45;&gt;src_main -->
<g id="edge41" class="edge">
<title>src_helpers_config&#45;&gt;src_main</title><style>.edge>path:hover{stroke-width:8}</style>
<path fill="none" stroke="#ffffff" d="M897.87,-266.82C925.37,-263.33 964.47,-261.64 996.45,-273"/>
</g>
<!-- src_helpers_config_config&#45;&gt;src_helpers_logging_setup -->
<g id="edge42" class="edge">
<title>src_helpers_config_config&#45;&gt;src_helpers_logging_setup</title><style>.edge>path:hover{stroke-width:8}</style>
<path fill="none" stroke="#ffffff" d="M781.37,-308.59C792.79,-310.05 805.53,-311.64 817.21,-313 855.61,-317.48 898.69,-322.06 932.99,-325.6"/>
<polygon fill="#2020b6" stroke="#ffffff" points="932.45,-329.06 942.76,-326.6 933.17,-322.1 932.45,-329.06"/>
</g>
<!-- src_helpers_config_config&#45;&gt;src_helpers_security -->
<g id="edge43" class="edge">
<title>src_helpers_config_config&#45;&gt;src_helpers_security</title><style>.edge>path:hover{stroke-width:8}</style>
<path fill="none" stroke="#ffffff" d="M770.54,-275.11C783.32,-261.06 799.94,-244.73 817.21,-233 834.92,-220.98 841.14,-220.71 861.46,-214"/>
<path fill="none" stroke="#ffffff" d="M863.46,-214C894.66,-203.71 929,-189.69 954.96,-178.52"/>
<polygon fill="#2020b6" stroke="#ffffff" points="956.02,-181.88 963.8,-174.69 953.23,-175.46 956.02,-181.88"/>
</g>
<!-- src_helpers_config_config&#45;&gt;src_main -->
<g id="edge44" class="edge">
<title>src_helpers_config_config&#45;&gt;src_main</title><style>.edge>path:hover{stroke-width:8}</style>
<path fill="none" stroke="#ffffff" d="M863.46,-214C883.79,-207.29 888.6,-223.37 907.71,-233 924.25,-241.34 926.93,-246.16 943.71,-254 966.29,-264.54 972.97,-264.66 996.45,-273"/>
<path fill="none" stroke="#ffffff" d="M998.45,-273C1052.57,-292.22 1071.57,-292.66 1113.4,-332"/>
</g>
<!-- src_helpers_config_env_loader_mixin -->
<g id="node25" class="node">
<title>src_helpers_config_env_loader_mixin</title><style>.edge>path:hover{stroke-width:8}</style>
<ellipse fill="#4747c2" stroke="#ffffff" cx="608.92" cy="-304" rx="64.88" ry="39.6"/>
<text xml:space="preserve" text-anchor="middle" x="608.92" y="-318.5" font-family="Helvetica,sans-Serif" font-size="10.00" fill="#e0e0e0">src.</text>
<text xml:space="preserve" text-anchor="middle" x="608.92" y="-306.5" font-family="Helvetica,sans-Serif" font-size="10.00" fill="#e0e0e0">helpers.</text>
<text xml:space="preserve" text-anchor="middle" x="608.92" y="-294.5" font-family="Helvetica,sans-Serif" font-size="10.00" fill="#e0e0e0">config.</text>
<text xml:space="preserve" text-anchor="middle" x="608.92" y="-282.5" font-family="Helvetica,sans-Serif" font-size="10.00" fill="#e0e0e0">env_loader_mixin</text>
</g>
<!-- src_helpers_config_env_loader_mixin&#45;&gt;src_helpers_config_config -->
<g id="edge45" class="edge">
<title>src_helpers_config_env_loader_mixin&#45;&gt;src_helpers_config_config</title><style>.edge>path:hover{stroke-width:8}</style>
<path fill="none" stroke="#ffffff" d="M674.06,-304C682.15,-304 690.3,-304 698.05,-304"/>
<polygon fill="#4747c2" stroke="#ffffff" points="697.91,-307.5 707.91,-304 697.91,-300.5 697.91,-307.5"/>
</g>
<!-- src_helpers_exceptions&#45;&gt;src_api_routes_users -->
<g id="edge46" class="edge">
<title>src_helpers_exceptions&#45;&gt;src_api_routes_users</title><style>.edge>path:hover{stroke-width:8}</style>
<path fill="none" stroke="#ffffff" d="M609.92,-410C651.99,-420.41 689.78,-453.32 714.52,-479.74"/>
<polygon fill="#2f2fbc" stroke="#ffffff" points="711.75,-481.89 721.07,-486.93 716.92,-477.18 711.75,-481.89"/>
</g>
<!-- src_helpers_exceptions&#45;&gt;src_main -->
<g id="edge47" class="edge">
<title>src_helpers_exceptions&#45;&gt;src_main</title><style>.edge>path:hover{stroke-width:8}</style>
<path fill="none" stroke="#ffffff" d="M609.92,-410C640.08,-417.46 713.53,-450.5 744.5,-448"/>
<path fill="none" stroke="#ffffff" d="M746.5,-448C860.07,-438.84 887.72,-425.06 996.45,-391"/>
<path fill="none" stroke="#ffffff" d="M471.29,-390.99C508.21,-393.41 562.11,-398.67 607.92,-410"/>
</g>
<!-- src_helpers_logging_setup&#45;&gt;src_main -->
<g id="edge48" class="edge">
<title>src_helpers_logging_setup&#45;&gt;src_main</title><style>.edge>path:hover{stroke-width:8}</style>
<path fill="none" stroke="#ffffff" d="M1045.96,-318.2C1069.17,-314.55 1095.81,-315.46 1113.4,-332"/>
</g>
<!-- src_schemas -->
<g id="node30" class="node">
<title>src_schemas</title><style>.edge>path:hover{stroke-width:8}</style>
<ellipse fill="#2f2fdb" stroke="#ffffff" cx="426.32" cy="-830" rx="43.45" ry="18"/>
<text xml:space="preserve" text-anchor="middle" x="426.32" y="-826.5" font-family="Helvetica,sans-Serif" font-size="10.00" fill="#e0e0e0">src.schemas</text>
</g>
<!-- src_schemas&#45;&gt;src_api_routes_health -->
<g id="edge49" class="edge">
<title>src_schemas&#45;&gt;src_api_routes_health</title><style>.edge>path:hover{stroke-width:8}</style>
<path fill="none" stroke="#ffffff" d="M508.04,-1007C575.56,-1022.49 654.51,-1038 701.96,-1047.03"/>
<polygon fill="#2f2fdb" stroke="#ffffff" points="701.07,-1050.43 711.54,-1048.85 702.37,-1043.55 701.07,-1050.43"/>
<path fill="none" stroke="#ffffff" d="M456.32,-843.43C461.88,-847.14 467.17,-851.65 471.04,-857 511.24,-912.54 442.16,-984.84 507.04,-1007"/>
</g>
<!-- src_schemas&#45;&gt;src_api_routes_posts -->
<g id="edge50" class="edge">
<title>src_schemas&#45;&gt;src_api_routes_posts</title><style>.edge>path:hover{stroke-width:8}</style>
<path fill="none" stroke="#ffffff" d="M609.92,-822C650.97,-814.93 688.6,-784.88 713.57,-760.08"/>
<polygon fill="#2f2fdb" stroke="#ffffff" points="716,-762.59 720.48,-752.99 710.99,-757.71 716,-762.59"/>
<path fill="none" stroke="#ffffff" d="M469.97,-831.13C506.77,-831.38 561.21,-830.05 607.92,-822"/>
</g>
<!-- src_schemas&#45;&gt;src_api_routes_root -->
<g id="edge51" class="edge">
<title>src_schemas&#45;&gt;src_api_routes_root</title><style>.edge>path:hover{stroke-width:8}</style>
<path fill="none" stroke="#ffffff" d="M609.92,-822C640.2,-816.78 674.9,-816.93 701.48,-818.3"/>
<polygon fill="#2f2fdb" stroke="#ffffff" points="701,-821.78 711.19,-818.89 701.42,-814.79 701,-821.78"/>
</g>
<!-- src_schemas_health&#45;&gt;src_api_routes_health -->
<g id="edge52" class="edge">
<title>src_schemas_health&#45;&gt;src_api_routes_health</title><style>.edge>path:hover{stroke-width:8}</style>
<path fill="none" stroke="#ffffff" d="M452.04,-1041.12C470.58,-1023.77 494.79,-1004.19 507.04,-1007"/>
</g>
<!-- src_schemas_post&#45;&gt;src_api_routes_posts -->
<g id="edge53" class="edge">
<title>src_schemas_post&#45;&gt;src_api_routes_posts</title><style>.edge>path:hover{stroke-width:8}</style>
<path fill="none" stroke="#ffffff" d="M468.11,-722.28C480.67,-722.17 494.5,-722.79 507.04,-725"/>
</g>
<!-- src_schemas_root&#45;&gt;src_api_routes_root -->
<g id="edge54" class="edge">
<title>src_schemas_root&#45;&gt;src_api_routes_root</title><style>.edge>path:hover{stroke-width:8}</style>
<path fill="none" stroke="#ffffff" d="M466.21,-887.8C526.17,-873.63 640.69,-846.55 702.49,-831.94"/>
<polygon fill="#4040c0" stroke="#ffffff" points="702.99,-835.41 711.91,-829.71 701.37,-828.6 702.99,-835.41"/>
</g>
<!-- structlog -->
<g id="node34" class="node">
<title>structlog</title><style>.edge>path:hover{stroke-width:8}</style>
<ellipse fill="#9d26d9" stroke="#ffffff" cx="129.17" cy="-364" rx="32.17" ry="18"/>
<text xml:space="preserve" text-anchor="middle" x="129.17" y="-360.5" font-family="Helvetica,sans-Serif" font-size="10.00" fill="#e0e0e0">structlog</text>
</g>
<!-- structlog&#45;&gt;src_helpers_exceptions -->
<g id="edge55" class="edge">
<title>structlog&#45;&gt;src_helpers_exceptions</title><style>.edge>path:hover{stroke-width:8}</style>
<path fill="none" stroke="#ffffff" d="M290.97,-372C317.73,-370.78 347.29,-374.01 371.85,-377.98"/>
<polygon fill="#9d26d9" stroke="#ffffff" points="371.17,-381.41 381.62,-379.65 372.35,-374.51 371.17,-381.41"/>
</g>
<!-- structlog&#45;&gt;src_helpers_logging_setup -->
<g id="edge56" class="edge">
<title>structlog&#45;&gt;src_helpers_logging_setup</title><style>.edge>path:hover{stroke-width:8}</style>
<path fill="none" stroke="#ffffff" d="M161.2,-367.33C193.21,-370.34 244.57,-374.03 288.97,-372"/>
<path fill="none" stroke="#ffffff" d="M290.97,-372C332.49,-370.49 340.36,-354.15 381.59,-349 421.04,-344.07 431.34,-346.87 471.04,-349 645.31,-358.35 687.36,-403.06 861.46,-391"/>
<path fill="none" stroke="#ffffff" d="M863.46,-391C894.39,-387.89 926.31,-374.14 951.12,-360.69"/>
<polygon fill="#9d26d9" stroke="#ffffff" points="952.62,-363.87 959.63,-355.92 949.2,-357.76 952.62,-363.87"/>
</g>
<!-- structlog&#45;&gt;src_main -->
<g id="edge57" class="edge">
<title>structlog&#45;&gt;src_main</title><style>.edge>path:hover{stroke-width:8}</style>
<path fill="none" stroke="#ffffff" d="M863.46,-391C922.27,-385.08 940.06,-408.72 996.45,-391"/>
<path fill="none" stroke="#ffffff" d="M998.45,-391C1022.22,-383.53 1028.85,-383.03 1051.19,-372 1080.67,-357.45 1089.46,-309.48 1113.4,-332"/>
</g>
<!-- uvicorn -->
<g id="node35" class="node">
<title>uvicorn</title><style>.edge>path:hover{stroke-width:8}</style>
<ellipse fill="#c04095" stroke="#ffffff" cx="997.45" cy="-227" rx="28.56" ry="18"/>
<text xml:space="preserve" text-anchor="middle" x="997.45" y="-223.5" font-family="Helvetica,sans-Serif" font-size="10.00" fill="#e0e0e0">uvicorn</text>
</g>
<!-- uvicorn&#45;&gt;src_main -->
<g id="edge58" class="edge">
<title>uvicorn&#45;&gt;src_main</title><style>.edge>path:hover{stroke-width:8}</style>
<path fill="none" stroke="#ffffff" d="M1020.29,-238.16C1030.22,-243.75 1041.81,-251.02 1051.19,-259 1083.65,-286.63 1082.35,-302.8 1113.4,-332"/>
<path fill="none" stroke="#ffffff" d="M1115.4,-332C1201.55,-413.01 1210.17,-567.1 1209.76,-631.53"/>
<polygon fill="#c04095" stroke="#ffffff" points="1206.26,-631.26 1209.61,-641.31 1213.26,-631.37 1206.26,-631.26"/>
</g>
</g>
</svg>

