<?xml version="1.0" encoding="UTF-8" standalone="no"?>
<!DOCTYPE svg PUBLIC "-//W3C//DTD SVG 1.1//EN"
 "http://www.w3.org/Graphics/SVG/1.1/DTD/svg11.dtd">
<!-- Generated by graphviz version 15.0.0 (20260523.1842)
 -->
<!-- Title: G Pages: 1 -->
<svg style="background-color:#141414" width="1181pt" height="585pt"
 viewBox="0.00 0.00 1181.00 585.00" xmlns="http://www.w3.org/2000/svg" xmlns:xlink="http://www.w3.org/1999/xlink">
<g id="graph0" class="graph" transform="scale(1 1) rotate(0) translate(4 581.22)">
<title>G</title><style>.edge>path:hover{stroke-width:8}</style>
<polygon fill="#141414" stroke="none" points="-4,4 -4,-581.22 1177.49,-581.22 1177.49,4 -4,4"/>
<!-- _collections_abc -->
<g id="node1" class="node">
<title>_collections_abc</title><style>.edge>path:hover{stroke-width:8}</style>
<ellipse fill="#b83d3d" stroke="#ffffff" cx="264.01" cy="-516" rx="53.37" ry="18"/>
<text xml:space="preserve" text-anchor="middle" x="264.01" y="-512.5" font-family="Helvetica,sans-Serif" font-size="10.00" fill="#e0e0e0">_collections_abc</text>
</g>
<!-- io -->
<g id="node5" class="node">
<title>io</title><style>.edge>path:hover{stroke-width:8}</style>
<ellipse fill="#85b83d" stroke="#ffffff" cx="394.01" cy="-516" rx="27" ry="18"/>
<text xml:space="preserve" text-anchor="middle" x="394.01" y="-512.5" font-family="Helvetica,sans-Serif" font-size="10.00" fill="#e0e0e0">io</text>
</g>
<!-- _collections_abc&#45;&gt;io -->
<g id="edge1" class="edge">
<title>_collections_abc&#45;&gt;io</title><style>.edge>path:hover{stroke-width:8}</style>
<path fill="none" stroke="#ffffff" d="M317.81,-516C330.41,-516 343.61,-516 355.37,-516"/>
<polygon fill="#b83d3d" stroke="#ffffff" points="355.06,-519.5 365.06,-516 355.06,-512.5 355.06,-519.5"/>
</g>
<!-- abc -->
<g id="node2" class="node">
<title>abc</title><style>.edge>path:hover{stroke-width:8}</style>
<ellipse fill="#e76822" stroke="#ffffff" cx="27" cy="-370" rx="27" ry="18"/>
<text xml:space="preserve" text-anchor="middle" x="27" y="-366.5" font-family="Helvetica,sans-Serif" font-size="10.00" fill="#e0e0e0">abc</text>
</g>
<!-- abc&#45;&gt;_collections_abc -->
<g id="edge2" class="edge">
<title>abc&#45;&gt;_collections_abc</title><style>.edge>path:hover{stroke-width:8}</style>
<path fill="none" stroke="#ffffff" d="M30.67,-388.2C37.84,-429.42 61.88,-528.91 130.19,-562"/>
<path fill="none" stroke="#ffffff" d="M132.19,-562C148.71,-570 191.97,-552.15 224.25,-536.4"/>
<polygon fill="#e76822" stroke="#ffffff" points="225.55,-539.66 232.94,-532.07 222.43,-533.4 225.55,-539.66"/>
</g>
<!-- dataclasses -->
<g id="node3" class="node">
<title>dataclasses</title><style>.edge>path:hover{stroke-width:8}</style>
<ellipse fill="#c09a40" stroke="#ffffff" cx="131.19" cy="-313" rx="41.19" ry="18"/>
<text xml:space="preserve" text-anchor="middle" x="131.19" y="-309.5" font-family="Helvetica,sans-Serif" font-size="10.00" fill="#e0e0e0">dataclasses</text>
</g>
<!-- abc&#45;&gt;dataclasses -->
<g id="edge3" class="edge">
<title>abc&#45;&gt;dataclasses</title><style>.edge>path:hover{stroke-width:8}</style>
<path fill="none" stroke="#ffffff" d="M48.19,-358.74C61.55,-351.29 79.43,-341.32 95.08,-332.59"/>
<polygon fill="#e76822" stroke="#ffffff" points="96.62,-335.73 103.65,-327.8 93.21,-329.62 96.62,-335.73"/>
</g>
<!-- functools -->
<g id="node4" class="node">
<title>functools</title><style>.edge>path:hover{stroke-width:8}</style>
<ellipse fill="#9fa446" stroke="#ffffff" cx="264.01" cy="-370" rx="33.52" ry="18"/>
<text xml:space="preserve" text-anchor="middle" x="264.01" y="-366.5" font-family="Helvetica,sans-Serif" font-size="10.00" fill="#e0e0e0">functools</text>
</g>
<!-- abc&#45;&gt;functools -->
<g id="edge4" class="edge">
<title>abc&#45;&gt;functools</title><style>.edge>path:hover{stroke-width:8}</style>
<path fill="none" stroke="#ffffff" d="M54.05,-370C93.79,-370 170.07,-370 218.65,-370"/>
<polygon fill="#e76822" stroke="#ffffff" points="218.55,-373.5 228.55,-370 218.55,-366.5 218.55,-373.5"/>
</g>
<!-- abc&#45;&gt;io -->
<g id="edge5" class="edge">
<title>abc&#45;&gt;io</title><style>.edge>path:hover{stroke-width:8}</style>
<path fill="none" stroke="#ffffff" d="M132.19,-562C209.26,-599.33 312.24,-557.99 362.64,-532.7"/>
<polygon fill="#e76822" stroke="#ffffff" points="363.94,-535.96 371.22,-528.27 360.73,-529.74 363.94,-535.96"/>
</g>
<!-- src2_helpers_config_config -->
<g id="node16" class="node">
<title>src2_helpers_config_config</title><style>.edge>path:hover{stroke-width:8}</style>
<ellipse fill="#483781" stroke="#ffffff" cx="777.34" cy="-276" rx="35.71" ry="39.6"/>
<text xml:space="preserve" text-anchor="middle" x="777.34" y="-290.5" font-family="Helvetica,sans-Serif" font-size="10.00" fill="#e0e0e0">src2.</text>
<text xml:space="preserve" text-anchor="middle" x="777.34" y="-278.5" font-family="Helvetica,sans-Serif" font-size="10.00" fill="#e0e0e0">helpers.</text>
<text xml:space="preserve" text-anchor="middle" x="777.34" y="-266.5" font-family="Helvetica,sans-Serif" font-size="10.00" fill="#e0e0e0">config.</text>
<text xml:space="preserve" text-anchor="middle" x="777.34" y="-254.5" font-family="Helvetica,sans-Serif" font-size="10.00" fill="#e0e0e0">config</text>
</g>
<!-- dataclasses&#45;&gt;src2_helpers_config_config -->
<g id="edge6" class="edge">
<title>dataclasses&#45;&gt;src2_helpers_config_config</title><style>.edge>path:hover{stroke-width:8}</style>
<path fill="none" stroke="#ffffff" d="M641.76,-344C669.86,-334.64 678.93,-337.82 705.63,-325 716.87,-319.61 728.3,-312.52 738.59,-305.42"/>
<polygon fill="#c09a40" stroke="#ffffff" points="740.34,-308.47 746.46,-299.82 736.28,-302.77 740.34,-308.47"/>
<path fill="none" stroke="#ffffff" d="M505.13,-344C564.89,-346.97 582.99,-362.9 639.76,-344"/>
</g>
<!-- src2_helpers_config_env_loader_mixin -->
<g id="node17" class="node">
<title>src2_helpers_config_env_loader_mixin</title><style>.edge>path:hover{stroke-width:8}</style>
<ellipse fill="#6049ac" stroke="#ffffff" cx="640.76" cy="-276" rx="64.88" ry="39.6"/>
<text xml:space="preserve" text-anchor="middle" x="640.76" y="-290.5" font-family="Helvetica,sans-Serif" font-size="10.00" fill="#e0e0e0">src2.</text>
<text xml:space="preserve" text-anchor="middle" x="640.76" y="-278.5" font-family="Helvetica,sans-Serif" font-size="10.00" fill="#e0e0e0">helpers.</text>
<text xml:space="preserve" text-anchor="middle" x="640.76" y="-266.5" font-family="Helvetica,sans-Serif" font-size="10.00" fill="#e0e0e0">config.</text>
<text xml:space="preserve" text-anchor="middle" x="640.76" y="-254.5" font-family="Helvetica,sans-Serif" font-size="10.00" fill="#e0e0e0">env_loader_mixin</text>
</g>
<!-- dataclasses&#45;&gt;src2_helpers_config_env_loader_mixin -->
<g id="edge7" class="edge">
<title>dataclasses&#45;&gt;src2_helpers_config_env_loader_mixin</title><style>.edge>path:hover{stroke-width:8}</style>
<path fill="none" stroke="#ffffff" d="M170.23,-307.05C227.81,-299.28 340.15,-288.99 432.38,-310 466.4,-317.75 468.5,-339.81 503.13,-344"/>
<path fill="none" stroke="#ffffff" d="M505.13,-344C536.42,-345.55 567.86,-330.81 592.48,-314.66"/>
<polygon fill="#c09a40" stroke="#ffffff" points="594.4,-317.59 600.66,-309.04 590.43,-311.81 594.4,-317.59"/>
</g>
<!-- functools&#45;&gt;src2_helpers_config_config -->
<g id="edge8" class="edge">
<title>functools&#45;&gt;src2_helpers_config_config</title><style>.edge>path:hover{stroke-width:8}</style>
<path fill="none" stroke="#ffffff" d="M505.13,-394C568.92,-391.83 579.2,-364.17 639.76,-344"/>
<path fill="none" stroke="#ffffff" d="M297.42,-372.93C331.15,-376.02 385.49,-381.11 432.38,-386 463.85,-389.28 471.5,-395.08 503.13,-394"/>
</g>
<!-- subprocess -->
<g id="node19" class="node">
<title>subprocess</title><style>.edge>path:hover{stroke-width:8}</style>
<polygon fill="#5a5a5a" stroke="#ffffff" points="537.26,-488 471.01,-488 471.01,-452 537.26,-452 537.26,-488"/>
<text xml:space="preserve" text-anchor="middle" x="504.13" y="-466.5" font-family="Helvetica,sans-Serif" font-size="10.00" fill="#e0e0e0">subprocess</text>
</g>
<!-- io&#45;&gt;subprocess -->
<g id="edge9" class="edge">
<title>io&#45;&gt;subprocess</title><style>.edge>path:hover{stroke-width:8}</style>
<path fill="none" stroke="#ffffff" d="M417.41,-506.47C429.85,-501.17 445.75,-494.41 460.47,-488.15"/>
<polygon fill="#85b83d" stroke="#ffffff" points="461.69,-491.44 469.52,-484.3 458.95,-484.99 461.69,-491.44"/>
</g>
<!-- main_py -->
<g id="node6" class="node">
<title>main_py</title><style>.edge>path:hover{stroke-width:8}</style>
<ellipse fill="#568547" stroke="#ffffff" cx="1143.12" cy="-269" rx="30.37" ry="18"/>
<text xml:space="preserve" text-anchor="middle" x="1143.12" y="-265.5" font-family="Helvetica,sans-Serif" font-size="10.00" fill="#e0e0e0">main.py</text>
</g>
<!-- nt -->
<g id="node7" class="node">
<title>nt</title><style>.edge>path:hover{stroke-width:8}</style>
<ellipse fill="#47c256" stroke="#ffffff" cx="131.19" cy="-72" rx="27" ry="18"/>
<text xml:space="preserve" text-anchor="middle" x="131.19" y="-68.5" font-family="Helvetica,sans-Serif" font-size="10.00" fill="#e0e0e0">nt</text>
</g>
<!-- ntpath -->
<g id="node8" class="node">
<title>ntpath</title><style>.edge>path:hover{stroke-width:8}</style>
<polygon fill="#5a5a5a" stroke="#ffffff" points="291.01,-90 237.01,-90 237.01,-54 291.01,-54 291.01,-90"/>
<text xml:space="preserve" text-anchor="middle" x="264.01" y="-68.5" font-family="Helvetica,sans-Serif" font-size="10.00" fill="#e0e0e0">ntpath</text>
</g>
<!-- nt&#45;&gt;ntpath -->
<g id="edge10" class="edge">
<title>nt&#45;&gt;ntpath</title><style>.edge>path:hover{stroke-width:8}</style>
<path fill="none" stroke="#ffffff" d="M158.66,-72C177.81,-72 203.96,-72 225.29,-72"/>
<polygon fill="#47c256" stroke="#ffffff" points="225.06,-75.5 235.06,-72 225.06,-68.5 225.06,-75.5"/>
</g>
<!-- os -->
<g id="node9" class="node">
<title>os</title><style>.edge>path:hover{stroke-width:8}</style>
<polygon fill="#5a5a5a" stroke="#ffffff" points="158.19,-205 104.19,-205 104.19,-169 158.19,-169 158.19,-205"/>
<text xml:space="preserve" text-anchor="middle" x="131.19" y="-183.5" font-family="Helvetica,sans-Serif" font-size="10.00" fill="#e0e0e0">os</text>
</g>
<!-- os&#45;&gt;functools -->
<g id="edge11" class="edge">
<title>os&#45;&gt;functools</title><style>.edge>path:hover{stroke-width:8}</style>
<path fill="none" stroke="#ffffff" d="M139.89,-205.35C155.01,-240.84 188.83,-317.19 208.38,-338 213.79,-343.76 220.47,-348.81 227.28,-353.09"/>
<polygon fill="#5a5a5a" stroke="#ffffff" points="225.49,-356.1 235.9,-358.05 228.98,-350.03 225.49,-356.1"/>
</g>
<!-- os&#45;&gt;main_py -->
<g id="edge12" class="edge">
<title>os&#45;&gt;main_py</title><style>.edge>path:hover{stroke-width:8}</style>
<path fill="none" stroke="#ffffff" d="M999.11,-169C1015.78,-179.94 1025.79,-173.77 1039.76,-188 1067.35,-216.12 1037.03,-261.78 1075.76,-269"/>
<path fill="none" stroke="#ffffff" d="M265.01,-118C289.78,-111.14 295.73,-108.45 319.63,-99 335.91,-92.56 338.5,-86.63 355.63,-83 507.8,-50.71 552.66,-54.79 705.63,-83 738.72,-89.1 742.82,-107.2 776.34,-110"/>
<path fill="none" stroke="#ffffff" d="M157.8,-168.51C172.2,-158.64 190.78,-146.75 208.38,-138 231.53,-126.49 237.99,-124.53 263.01,-118"/>
<path fill="none" stroke="#ffffff" d="M1076.76,-269C1084.64,-270.47 1093.16,-271.13 1101.35,-271.31"/>
<polygon fill="#5a5a5a" stroke="#ffffff" points="1101.12,-274.81 1111.11,-271.29 1101.1,-267.81 1101.12,-274.81"/>
<path fill="none" stroke="#ffffff" d="M778.34,-110C878.82,-116.78 912.94,-113.72 997.11,-169"/>
</g>
<!-- os&#45;&gt;ntpath -->
<g id="edge13" class="edge">
<title>os&#45;&gt;ntpath</title><style>.edge>path:hover{stroke-width:8}</style>
<path fill="none" stroke="#ffffff" d="M146.29,-168.69C160.65,-150.82 184.18,-123.53 208.38,-104 214.05,-99.42 220.45,-95.07 226.81,-91.14"/>
<polygon fill="#5a5a5a" stroke="#ffffff" points="228.54,-94.18 235.38,-86.09 224.99,-88.15 228.54,-94.18"/>
</g>
<!-- posixpath -->
<g id="node10" class="node">
<title>posixpath</title><style>.edge>path:hover{stroke-width:8}</style>
<polygon fill="#5a5a5a" stroke="#ffffff" points="293.01,-36 235.01,-36 235.01,0 293.01,0 293.01,-36"/>
<text xml:space="preserve" text-anchor="middle" x="264.01" y="-14.5" font-family="Helvetica,sans-Serif" font-size="10.00" fill="#e0e0e0">posixpath</text>
</g>
<!-- os&#45;&gt;posixpath -->
<g id="edge14" class="edge">
<title>os&#45;&gt;posixpath</title><style>.edge>path:hover{stroke-width:8}</style>
<path fill="none" stroke="#ffffff" d="M140.36,-168.58C155.7,-134.58 189.03,-63.72 208.38,-45 213.16,-40.38 218.87,-36.41 224.79,-33.03"/>
<polygon fill="#5a5a5a" stroke="#ffffff" points="226.13,-36.28 233.44,-28.61 222.94,-30.05 226.13,-36.28"/>
</g>
<!-- os&#45;&gt;src2_helpers_config_env_loader_mixin -->
<g id="edge15" class="edge">
<title>os&#45;&gt;src2_helpers_config_env_loader_mixin</title><style>.edge>path:hover{stroke-width:8}</style>
<path fill="none" stroke="#ffffff" d="M158.52,-204.91C172.69,-213.65 190.81,-223.45 208.38,-229 328.86,-267.08 476.63,-275.44 564.22,-276.67"/>
<polygon fill="#5a5a5a" stroke="#ffffff" points="564.1,-280.17 574.14,-276.78 564.17,-273.17 564.1,-280.17"/>
</g>
<!-- os&#45;&gt;subprocess -->
<g id="edge16" class="edge">
<title>os&#45;&gt;subprocess</title><style>.edge>path:hover{stroke-width:8}</style>
<path fill="none" stroke="#ffffff" d="M149.28,-205.43C164.23,-221.17 186.88,-244.03 208.38,-262 232.07,-281.79 394.08,-394.46 467.32,-445.21"/>
<polygon fill="#5a5a5a" stroke="#ffffff" points="465.17,-447.98 475.38,-450.8 469.15,-442.23 465.17,-447.98"/>
</g>
<!-- uvicorn_config -->
<g id="node21" class="node">
<title>uvicorn_config</title><style>.edge>path:hover{stroke-width:8}</style>
<polygon fill="#5a5a5a" stroke="#ffffff" points="432.38,-128 355.63,-128 355.63,-92 432.38,-92 432.38,-128"/>
<text xml:space="preserve" text-anchor="middle" x="394.01" y="-106.5" font-family="Helvetica,sans-Serif" font-size="10.00" fill="#e0e0e0">uvicorn.config</text>
</g>
<!-- os&#45;&gt;uvicorn_config -->
<g id="edge17" class="edge">
<title>os&#45;&gt;uvicorn_config</title><style>.edge>path:hover{stroke-width:8}</style>
<path fill="none" stroke="#ffffff" d="M265.01,-118C290.45,-110.95 319.79,-108.71 343.96,-108.35"/>
<polygon fill="#5a5a5a" stroke="#ffffff" points="343.86,-111.85 353.85,-108.31 343.84,-104.85 343.86,-111.85"/>
</g>
<!-- uvicorn_main -->
<g id="node22" class="node">
<title>uvicorn_main</title><style>.edge>path:hover{stroke-width:8}</style>
<polygon fill="#5a5a5a" stroke="#ffffff" points="539.88,-174 468.38,-174 468.38,-138 539.88,-138 539.88,-174"/>
<text xml:space="preserve" text-anchor="middle" x="504.13" y="-152.5" font-family="Helvetica,sans-Serif" font-size="10.00" fill="#e0e0e0">uvicorn.main</text>
</g>
<!-- os&#45;&gt;uvicorn_main -->
<g id="edge18" class="edge">
<title>os&#45;&gt;uvicorn_main</title><style>.edge>path:hover{stroke-width:8}</style>
<path fill="none" stroke="#ffffff" d="M395.01,-156C415.16,-157.47 437.49,-157.7 456.59,-157.48"/>
<polygon fill="#5a5a5a" stroke="#ffffff" points="456.57,-160.98 466.51,-157.31 456.45,-153.98 456.57,-160.98"/>
<path fill="none" stroke="#ffffff" d="M265.01,-118C322.19,-102.15 333.82,-151.7 393.01,-156"/>
</g>
<!-- pydantic -->
<g id="node11" class="node">
<title>pydantic</title><style>.edge>path:hover{stroke-width:8}</style>
<ellipse fill="#3d77b8" stroke="#ffffff" cx="264.01" cy="-424" rx="31.72" ry="18"/>
<text xml:space="preserve" text-anchor="middle" x="264.01" y="-420.5" font-family="Helvetica,sans-Serif" font-size="10.00" fill="#e0e0e0">pydantic</text>
</g>
<!-- pydantic&#45;&gt;src2_helpers_config_config -->
<g id="edge19" class="edge">
<title>pydantic&#45;&gt;src2_helpers_config_config</title><style>.edge>path:hover{stroke-width:8}</style>
<path fill="none" stroke="#ffffff" d="M295.56,-420.89C340.97,-416.09 428.91,-406.17 503.13,-394"/>
</g>
<!-- pydantic_settings -->
<g id="node12" class="node">
<title>pydantic_settings</title><style>.edge>path:hover{stroke-width:8}</style>
<ellipse fill="#535fb6" stroke="#ffffff" cx="264.01" cy="-202" rx="55.62" ry="18"/>
<text xml:space="preserve" text-anchor="middle" x="264.01" y="-198.5" font-family="Helvetica,sans-Serif" font-size="10.00" fill="#e0e0e0">pydantic_settings</text>
</g>
<!-- pydantic_settings&#45;&gt;src2_helpers_config_config -->
<g id="edge20" class="edge">
<title>pydantic_settings&#45;&gt;src2_helpers_config_config</title><style>.edge>path:hover{stroke-width:8}</style>
<path fill="none" stroke="#ffffff" d="M316.96,-196.06C401.18,-188.37 571.6,-180.89 705.63,-227 717.53,-231.09 729.25,-237.79 739.62,-244.95"/>
<polygon fill="#535fb6" stroke="#ffffff" points="737.37,-247.64 747.52,-250.69 741.49,-241.98 737.37,-247.64"/>
</g>
<!-- src2 -->
<g id="node13" class="node">
<title>src2</title><style>.edge>path:hover{stroke-width:8}</style>
<ellipse fill="#6447c2" stroke="#ffffff" cx="998.11" cy="-269" rx="27" ry="18"/>
<text xml:space="preserve" text-anchor="middle" x="998.11" y="-265.5" font-family="Helvetica,sans-Serif" font-size="10.00" fill="#e0e0e0">src2</text>
</g>
<!-- src2&#45;&gt;main_py -->
<g id="edge21" class="edge">
<title>src2&#45;&gt;main_py</title><style>.edge>path:hover{stroke-width:8}</style>
<path fill="none" stroke="#ffffff" d="M1025.19,-266.87C1040.1,-266.18 1059.09,-266.2 1075.76,-269"/>
</g>
<!-- src2_helpers -->
<g id="node14" class="node">
<title>src2_helpers</title><style>.edge>path:hover{stroke-width:8}</style>
<ellipse fill="#6447c2" stroke="#ffffff" cx="998.11" cy="-215" rx="41.64" ry="18"/>
<text xml:space="preserve" text-anchor="middle" x="998.11" y="-211.5" font-family="Helvetica,sans-Serif" font-size="10.00" fill="#e0e0e0">src2.helpers</text>
</g>
<!-- src2_helpers&#45;&gt;main_py -->
<g id="edge22" class="edge">
<title>src2_helpers&#45;&gt;main_py</title><style>.edge>path:hover{stroke-width:8}</style>
<path fill="none" stroke="#ffffff" d="M1022.05,-229.91C1027.87,-233.78 1034.08,-237.99 1039.76,-242 1056.09,-253.54 1056.03,-265.69 1075.76,-269"/>
</g>
<!-- src2_helpers_config -->
<g id="node15" class="node">
<title>src2_helpers_config</title><style>.edge>path:hover{stroke-width:8}</style>
<ellipse fill="#6447c2" stroke="#ffffff" cx="884.76" cy="-169" rx="35.71" ry="31.11"/>
<text xml:space="preserve" text-anchor="middle" x="884.76" y="-177.5" font-family="Helvetica,sans-Serif" font-size="10.00" fill="#e0e0e0">src2.</text>
<text xml:space="preserve" text-anchor="middle" x="884.76" y="-165.5" font-family="Helvetica,sans-Serif" font-size="10.00" fill="#e0e0e0">helpers.</text>
<text xml:space="preserve" text-anchor="middle" x="884.76" y="-153.5" font-family="Helvetica,sans-Serif" font-size="10.00" fill="#e0e0e0">config</text>
</g>
<!-- src2_helpers_config&#45;&gt;main_py -->
<g id="edge23" class="edge">
<title>src2_helpers_config&#45;&gt;main_py</title><style>.edge>path:hover{stroke-width:8}</style>
<path fill="none" stroke="#ffffff" d="M919.19,-159.94C942.86,-155.56 974.33,-154.04 997.11,-169"/>
</g>
<!-- src2_helpers_config_config&#45;&gt;main_py -->
<g id="edge24" class="edge">
<title>src2_helpers_config_config&#45;&gt;main_py</title><style>.edge>path:hover{stroke-width:8}</style>
<path fill="none" stroke="#ffffff" d="M811.96,-286.73C862.74,-301.15 961.38,-322.12 1039.76,-296 1058.73,-289.68 1056.03,-265.69 1075.76,-269"/>
</g>
<!-- src2_helpers_config_env_loader_mixin&#45;&gt;src2_helpers_config_config -->
<g id="edge25" class="edge">
<title>src2_helpers_config_env_loader_mixin&#45;&gt;src2_helpers_config_config</title><style>.edge>path:hover{stroke-width:8}</style>
<path fill="none" stroke="#ffffff" d="M705.9,-276C713.99,-276 722.14,-276 729.89,-276"/>
<polygon fill="#6049ac" stroke="#ffffff" points="729.75,-279.5 739.75,-276 729.75,-272.5 729.75,-279.5"/>
</g>
<!-- stat -->
<g id="node18" class="node">
<title>stat</title><style>.edge>path:hover{stroke-width:8}</style>
<ellipse fill="#8f47c2" stroke="#ffffff" cx="131.19" cy="-18" rx="27" ry="18"/>
<text xml:space="preserve" text-anchor="middle" x="131.19" y="-14.5" font-family="Helvetica,sans-Serif" font-size="10.00" fill="#e0e0e0">stat</text>
</g>
<!-- stat&#45;&gt;posixpath -->
<g id="edge26" class="edge">
<title>stat&#45;&gt;posixpath</title><style>.edge>path:hover{stroke-width:8}</style>
<path fill="none" stroke="#ffffff" d="M158.66,-18C177.22,-18 202.36,-18 223.31,-18"/>
<polygon fill="#8f47c2" stroke="#ffffff" points="223.25,-21.5 233.25,-18 223.25,-14.5 223.25,-21.5"/>
</g>
<!-- uvicorn -->
<g id="node20" class="node">
<title>uvicorn</title><style>.edge>path:hover{stroke-width:8}</style>
<polygon fill="#5a5a5a" stroke="#ffffff" points="667.76,-128 613.76,-128 613.76,-92 667.76,-92 667.76,-128"/>
<text xml:space="preserve" text-anchor="middle" x="640.76" y="-106.5" font-family="Helvetica,sans-Serif" font-size="10.00" fill="#e0e0e0">uvicorn</text>
</g>
<!-- uvicorn&#45;&gt;main_py -->
<g id="edge27" class="edge">
<title>uvicorn&#45;&gt;main_py</title><style>.edge>path:hover{stroke-width:8}</style>
<path fill="none" stroke="#ffffff" d="M668.12,-108.71C695.29,-107.67 738.86,-106.87 776.34,-110"/>
</g>
<!-- uvicorn_config&#45;&gt;uvicorn -->
<g id="edge28" class="edge">
<title>uvicorn_config&#45;&gt;uvicorn</title><style>.edge>path:hover{stroke-width:8}</style>
<path fill="none" stroke="#ffffff" d="M432.71,-110C478.72,-110 556.05,-110 602.06,-110"/>
<polygon fill="#5a5a5a" stroke="#ffffff" points="601.81,-113.5 611.81,-110 601.81,-106.5 601.81,-113.5"/>
</g>
<!-- uvicorn_config&#45;&gt;uvicorn_main -->
<g id="edge29" class="edge">
<title>uvicorn_config&#45;&gt;uvicorn_main</title><style>.edge>path:hover{stroke-width:8}</style>
<path fill="none" stroke="#ffffff" d="M432.82,-126.09C440.78,-129.48 449.26,-133.08 457.48,-136.58"/>
<polygon fill="#5a5a5a" stroke="#ffffff" points="456.09,-139.79 466.66,-140.48 458.83,-133.35 456.09,-139.79"/>
</g>
<!-- uvicorn_main&#45;&gt;uvicorn -->
<g id="edge30" class="edge">
<title>uvicorn_main&#45;&gt;uvicorn</title><style>.edge>path:hover{stroke-width:8}</style>
<path fill="none" stroke="#ffffff" d="M540.15,-144.03C559.39,-137.46 583.24,-129.31 602.77,-122.64"/>
<polygon fill="#5a5a5a" stroke="#ffffff" points="603.66,-126.03 611.99,-119.49 601.39,-119.41 603.66,-126.03"/>
</g>
<!-- warnings -->
<g id="node23" class="node">
<title>warnings</title><style>.edge>path:hover{stroke-width:8}</style>
<ellipse fill="#f31664" stroke="#ffffff" cx="131.19" cy="-424" rx="33.07" ry="18"/>
<text xml:space="preserve" text-anchor="middle" x="131.19" y="-420.5" font-family="Helvetica,sans-Serif" font-size="10.00" fill="#e0e0e0">warnings</text>
</g>
<!-- warnings&#45;&gt;_collections_abc -->
<g id="edge31" class="edge">
<title>warnings&#45;&gt;_collections_abc</title><style>.edge>path:hover{stroke-width:8}</style>
<path fill="none" stroke="#ffffff" d="M149.83,-439.02C164.95,-451.62 187.52,-469.77 208.38,-484 213.79,-487.69 219.64,-491.39 225.44,-494.91"/>
<polygon fill="#f31664" stroke="#ffffff" points="223.35,-497.74 233.74,-499.83 226.92,-491.72 223.35,-497.74"/>
</g>
<!-- warnings&#45;&gt;functools -->
<g id="edge32" class="edge">
<title>warnings&#45;&gt;functools</title><style>.edge>path:hover{stroke-width:8}</style>
<path fill="none" stroke="#ffffff" d="M158.35,-413.2C177.87,-405.15 204.79,-394.03 226.43,-385.1"/>
<polygon fill="#f31664" stroke="#ffffff" points="227.59,-388.41 235.5,-381.36 224.92,-381.94 227.59,-388.41"/>
</g>
<!-- warnings&#45;&gt;pydantic -->
<g id="edge33" class="edge">
<title>warnings&#45;&gt;pydantic</title><style>.edge>path:hover{stroke-width:8}</style>
<path fill="none" stroke="#ffffff" d="M164.53,-424C181.41,-424 202.28,-424 220.46,-424"/>
<polygon fill="#f31664" stroke="#ffffff" points="220.43,-427.5 230.43,-424 220.43,-420.5 220.43,-427.5"/>
</g>
<!-- warnings&#45;&gt;subprocess -->
<g id="edge34" class="edge">
<title>warnings&#45;&gt;subprocess</title><style>.edge>path:hover{stroke-width:8}</style>
<path fill="none" stroke="#ffffff" d="M157.78,-435.07C172.33,-440.85 191.06,-447.44 208.38,-451 296.26,-469.04 401.68,-471.3 459.63,-470.92"/>
<polygon fill="#f31664" stroke="#ffffff" points="459.43,-474.42 469.39,-470.82 459.36,-467.42 459.43,-474.42"/>
</g>
<!-- warnings&#45;&gt;uvicorn_main -->
<g id="edge35" class="edge">
<title>warnings&#45;&gt;uvicorn_main</title><style>.edge>path:hover{stroke-width:8}</style>
<path fill="none" stroke="#ffffff" d="M141.88,-406.8C150.9,-390.16 164.15,-364.01 172.38,-340 196.74,-269 152.41,-225.01 208.38,-175 269.89,-120.04 310.74,-150.02 393.01,-156"/>
</g>
</g>
</svg>

