<?xml version="1.0" encoding="UTF-8" standalone="no"?>
<!DOCTYPE svg PUBLIC "-//W3C//DTD SVG 1.1//EN"
 "http://www.w3.org/Graphics/SVG/1.1/DTD/svg11.dtd">
<!-- Generated by graphviz version 15.0.0 (20260523.1842)
 -->
<!-- Title: G Pages: 1 -->
<svg style="background-color:#141414" width="832pt" height="287pt"
 viewBox="0.00 0.00 832.00 287.00" xmlns="http://www.w3.org/2000/svg" xmlns:xlink="http://www.w3.org/1999/xlink">
<g id="graph0" class="graph" transform="scale(1 1) rotate(0) translate(4 283)">
<title>G</title><style>.edge>path:hover{stroke-width:8}</style>
<polygon fill="#141414" stroke="none" points="-4,4 -4,-283 828.27,-283 828.27,4 -4,4"/>
<!-- main_py -->
<g id="node1" class="node">
<title>main_py</title><style>.edge>path:hover{stroke-width:8}</style>
<ellipse fill="#8b4b4b" stroke="#ffffff" cx="793.9" cy="-184" rx="30.37" ry="18"/>
<text xml:space="preserve" text-anchor="middle" x="793.9" y="-180.5" font-family="Helvetica,sans-Serif" font-size="10.00" fill="#e0e0e0">main.py</text>
</g>
<!-- pydantic -->
<g id="node2" class="node">
<title>pydantic</title><style>.edge>path:hover{stroke-width:8}</style>
<ellipse fill="#a6c040" stroke="#ffffff" cx="55.62" cy="-170" rx="31.72" ry="18"/>
<text xml:space="preserve" text-anchor="middle" x="55.62" y="-166.5" font-family="Helvetica,sans-Serif" font-size="10.00" fill="#e0e0e0">pydantic</text>
</g>
<!-- src2_helpers_config_config -->
<g id="node7" class="node">
<title>src2_helpers_config_config</title><style>.edge>path:hover{stroke-width:8}</style>
<ellipse fill="#3d5e8f" stroke="#ffffff" cx="425.38" cy="-102" rx="35.71" ry="39.6"/>
<text xml:space="preserve" text-anchor="middle" x="425.38" y="-116.5" font-family="Helvetica,sans-Serif" font-size="10.00" fill="#e0e0e0">src2.</text>
<text xml:space="preserve" text-anchor="middle" x="425.38" y="-104.5" font-family="Helvetica,sans-Serif" font-size="10.00" fill="#e0e0e0">helpers.</text>
<text xml:space="preserve" text-anchor="middle" x="425.38" y="-92.5" font-family="Helvetica,sans-Serif" font-size="10.00" fill="#e0e0e0">config.</text>
<text xml:space="preserve" text-anchor="middle" x="425.38" y="-80.5" font-family="Helvetica,sans-Serif" font-size="10.00" fill="#e0e0e0">config</text>
</g>
<!-- pydantic&#45;&gt;src2_helpers_config_config -->
<g id="edge1" class="edge">
<title>pydantic&#45;&gt;src2_helpers_config_config</title><style>.edge>path:hover{stroke-width:8}</style>
<path fill="none" stroke="#ffffff" d="M87.15,-166.9C104.88,-165.87 127.54,-165.87 147.25,-170"/>
</g>
<!-- pydantic_settings -->
<g id="node3" class="node">
<title>pydantic_settings</title><style>.edge>path:hover{stroke-width:8}</style>
<ellipse fill="#53b67b" stroke="#ffffff" cx="55.62" cy="-116" rx="55.62" ry="18"/>
<text xml:space="preserve" text-anchor="middle" x="55.62" y="-112.5" font-family="Helvetica,sans-Serif" font-size="10.00" fill="#e0e0e0">pydantic_settings</text>
</g>
<!-- pydantic_settings&#45;&gt;src2_helpers_config_config -->
<g id="edge2" class="edge">
<title>pydantic_settings&#45;&gt;src2_helpers_config_config</title><style>.edge>path:hover{stroke-width:8}</style>
<path fill="none" stroke="#ffffff" d="M148.25,-170C237.84,-182.86 265.71,-181.28 351,-151 363.51,-146.56 375.95,-139.52 386.94,-132.14"/>
<polygon fill="#53b67b" stroke="#ffffff" points="388.79,-135.11 394.96,-126.49 384.76,-129.39 388.79,-135.11"/>
<path fill="none" stroke="#ffffff" d="M88.93,-130.74C96.4,-134.48 104.22,-138.68 111.25,-143 128.28,-153.48 127.67,-165.9 147.25,-170"/>
</g>
<!-- src2 -->
<g id="node4" class="node">
<title>src2</title><style>.edge>path:hover{stroke-width:8}</style>
<ellipse fill="#4778c2" stroke="#ffffff" cx="648.89" cy="-261" rx="27" ry="18"/>
<text xml:space="preserve" text-anchor="middle" x="648.89" y="-257.5" font-family="Helvetica,sans-Serif" font-size="10.00" fill="#e0e0e0">src2</text>
</g>
<!-- src2&#45;&gt;main_py -->
<g id="edge3" class="edge">
<title>src2&#45;&gt;main_py</title><style>.edge>path:hover{stroke-width:8}</style>
<path fill="none" stroke="#ffffff" d="M669.98,-249.69C676.9,-245.28 684.44,-239.88 690.54,-234 710.26,-215.01 699.22,-182.13 726.54,-184"/>
</g>
<!-- src2_helpers -->
<g id="node5" class="node">
<title>src2_helpers</title><style>.edge>path:hover{stroke-width:8}</style>
<ellipse fill="#4778c2" stroke="#ffffff" cx="648.89" cy="-207" rx="41.64" ry="18"/>
<text xml:space="preserve" text-anchor="middle" x="648.89" y="-203.5" font-family="Helvetica,sans-Serif" font-size="10.00" fill="#e0e0e0">src2.helpers</text>
</g>
<!-- src2_helpers&#45;&gt;main_py -->
<g id="edge4" class="edge">
<title>src2_helpers&#45;&gt;main_py</title><style>.edge>path:hover{stroke-width:8}</style>
<path fill="none" stroke="#ffffff" d="M677.36,-193.6C691.73,-187.93 709.77,-182.85 726.54,-184"/>
</g>
<!-- src2_helpers_config -->
<g id="node6" class="node">
<title>src2_helpers_config</title><style>.edge>path:hover{stroke-width:8}</style>
<ellipse fill="#4778c2" stroke="#ffffff" cx="535.5" cy="-161" rx="35.71" ry="31.11"/>
<text xml:space="preserve" text-anchor="middle" x="535.5" y="-169.5" font-family="Helvetica,sans-Serif" font-size="10.00" fill="#e0e0e0">src2.</text>
<text xml:space="preserve" text-anchor="middle" x="535.5" y="-157.5" font-family="Helvetica,sans-Serif" font-size="10.00" fill="#e0e0e0">helpers.</text>
<text xml:space="preserve" text-anchor="middle" x="535.5" y="-145.5" font-family="Helvetica,sans-Serif" font-size="10.00" fill="#e0e0e0">config</text>
</g>
<!-- src2_helpers_config&#45;&gt;main_py -->
<g id="edge5" class="edge">
<title>src2_helpers_config&#45;&gt;main_py</title><style>.edge>path:hover{stroke-width:8}</style>
<path fill="none" stroke="#ffffff" d="M571.27,-156.28C593.57,-154.4 622.92,-154.08 647.89,-161"/>
</g>
<!-- src2_helpers_config_config&#45;&gt;main_py -->
<g id="edge6" class="edge">
<title>src2_helpers_config_config&#45;&gt;main_py</title><style>.edge>path:hover{stroke-width:8}</style>
<path fill="none" stroke="#ffffff" d="M649.89,-161C684.17,-170.5 691.06,-181.57 726.54,-184"/>
<path fill="none" stroke="#ffffff" d="M461.36,-103.17C491.17,-104.96 534.84,-109.51 571.25,-121 607.89,-132.56 610.87,-150.74 647.89,-161"/>
</g>
<!-- src2_helpers_config_env_loader_mixin -->
<g id="node8" class="node">
<title>src2_helpers_config_env_loader_mixin</title><style>.edge>path:hover{stroke-width:8}</style>
<ellipse fill="#537bb6" stroke="#ffffff" cx="286.12" cy="-102" rx="64.88" ry="39.6"/>
<text xml:space="preserve" text-anchor="middle" x="286.12" y="-116.5" font-family="Helvetica,sans-Serif" font-size="10.00" fill="#e0e0e0">src2.</text>
<text xml:space="preserve" text-anchor="middle" x="286.12" y="-104.5" font-family="Helvetica,sans-Serif" font-size="10.00" fill="#e0e0e0">helpers.</text>
<text xml:space="preserve" text-anchor="middle" x="286.12" y="-92.5" font-family="Helvetica,sans-Serif" font-size="10.00" fill="#e0e0e0">config.</text>
<text xml:space="preserve" text-anchor="middle" x="286.12" y="-80.5" font-family="Helvetica,sans-Serif" font-size="10.00" fill="#e0e0e0">env_loader_mixin</text>
</g>
<!-- src2_helpers_config_env_loader_mixin&#45;&gt;src2_helpers_config_config -->
<g id="edge7" class="edge">
<title>src2_helpers_config_env_loader_mixin&#45;&gt;src2_helpers_config_config</title><style>.edge>path:hover{stroke-width:8}</style>
<path fill="none" stroke="#ffffff" d="M351.33,-102C360.35,-102 369.47,-102 378.06,-102"/>
<polygon fill="#537bb6" stroke="#ffffff" points="377.89,-105.5 387.89,-102 377.89,-98.5 377.89,-105.5"/>
</g>
<!-- uvicorn -->
<g id="node9" class="node">
<title>uvicorn</title><style>.edge>path:hover{stroke-width:8}</style>
<polygon fill="#5a5a5a" stroke="#ffffff" points="675.89,-82 621.89,-82 621.89,-46 675.89,-46 675.89,-82"/>
<text xml:space="preserve" text-anchor="middle" x="648.89" y="-60.5" font-family="Helvetica,sans-Serif" font-size="10.00" fill="#e0e0e0">uvicorn</text>
</g>
<!-- uvicorn&#45;&gt;main_py -->
<g id="edge8" class="edge">
<title>uvicorn&#45;&gt;main_py</title><style>.edge>path:hover{stroke-width:8}</style>
<path fill="none" stroke="#ffffff" d="M659.51,-82.34C677.31,-115.74 714.67,-183.19 726.54,-184"/>
<path fill="none" stroke="#ffffff" d="M727.54,-184C735.37,-184.54 743.75,-184.78 751.8,-184.86"/>
<polygon fill="#5a5a5a" stroke="#ffffff" points="751.75,-188.36 761.75,-184.86 751.75,-181.36 751.75,-188.36"/>
</g>
<!-- uvicorn_config -->
<g id="node10" class="node">
<title>uvicorn_config</title><style>.edge>path:hover{stroke-width:8}</style>
<polygon fill="#5a5a5a" stroke="#ffffff" points="463.75,-40 387,-40 387,-4 463.75,-4 463.75,-40"/>
<text xml:space="preserve" text-anchor="middle" x="425.38" y="-18.5" font-family="Helvetica,sans-Serif" font-size="10.00" fill="#e0e0e0">uvicorn.config</text>
</g>
<!-- uvicorn_config&#45;&gt;uvicorn -->
<g id="edge9" class="edge">
<title>uvicorn_config&#45;&gt;uvicorn</title><style>.edge>path:hover{stroke-width:8}</style>
<path fill="none" stroke="#ffffff" d="M464.12,-35.23C475.46,-38.82 488.02,-42.43 499.75,-45 536.87,-53.13 580.04,-58.18 610.17,-61.01"/>
<polygon fill="#5a5a5a" stroke="#ffffff" points="609.65,-64.48 619.92,-61.89 610.27,-57.51 609.65,-64.48"/>
</g>
<!-- uvicorn_main -->
<g id="node11" class="node">
<title>uvicorn_main</title><style>.edge>path:hover{stroke-width:8}</style>
<polygon fill="#5a5a5a" stroke="#ffffff" points="571.25,-36 499.75,-36 499.75,0 571.25,0 571.25,-36"/>
<text xml:space="preserve" text-anchor="middle" x="535.5" y="-14.5" font-family="Helvetica,sans-Serif" font-size="10.00" fill="#e0e0e0">uvicorn.main</text>
</g>
<!-- uvicorn_config&#45;&gt;uvicorn_main -->
<g id="edge10" class="edge">
<title>uvicorn_config&#45;&gt;uvicorn_main</title><style>.edge>path:hover{stroke-width:8}</style>
<path fill="none" stroke="#ffffff" d="M464.19,-20.6C471.89,-20.32 480.06,-20.01 488.01,-19.72"/>
<polygon fill="#5a5a5a" stroke="#ffffff" points="488.05,-23.22 497.91,-19.35 487.79,-16.23 488.05,-23.22"/>
</g>
<!-- uvicorn_main&#45;&gt;uvicorn -->
<g id="edge11" class="edge">
<title>uvicorn_main&#45;&gt;uvicorn</title><style>.edge>path:hover{stroke-width:8}</style>
<path fill="none" stroke="#ffffff" d="M571.75,-32.55C584.4,-37.78 598.68,-43.68 611.43,-48.94"/>
<polygon fill="#5a5a5a" stroke="#ffffff" points="609.73,-52.03 620.31,-52.61 612.4,-45.56 609.73,-52.03"/>
</g>
</g>
</svg>

