<?xml version="1.0" encoding="UTF-8" standalone="no"?>
<!DOCTYPE svg PUBLIC "-//W3C//DTD SVG 1.1//EN"
 "http://www.w3.org/Graphics/SVG/1.1/DTD/svg11.dtd">
<!-- Generated by graphviz version 15.0.0 (20260523.1842)
 -->
<!-- Title: G Pages: 1 -->
<svg style="background-color:#141414" width="1570pt" height="1011pt"
 viewBox="0.00 0.00 1570.00 1011.00" xmlns="http://www.w3.org/2000/svg" xmlns:xlink="http://www.w3.org/1999/xlink">
<g id="graph0" class="graph" transform="scale(1 1) rotate(0) translate(4 1006.53)">
<title>G</title><style>.edge>path:hover{stroke-width:8}</style>
<polygon fill="#141414" stroke="none" points="-4,4 -4,-1006.53 1566.18,-1006.53 1566.18,4 -4,4"/>
<!-- main_py -->
<g id="node1" class="node">
<title>main_py</title><style>.edge>path:hover{stroke-width:8}</style>
<ellipse fill="#7e4444" stroke="#ffffff" cx="1531.81" cy="-886.53" rx="30.37" ry="18"/>
<text xml:space="preserve" text-anchor="middle" x="1531.81" y="-883.03" font-family="Helvetica,sans-Serif" font-size="10.00" fill="#e0e0e0">main.py</text>
</g>
<!-- pydantic -->
<g id="node2" class="node">
<title>pydantic</title><style>.edge>path:hover{stroke-width:8}</style>
<ellipse fill="#bfc040" stroke="#ffffff" cx="515.88" cy="-848.53" rx="31.72" ry="18"/>
<text xml:space="preserve" text-anchor="middle" x="515.88" y="-845.03" font-family="Helvetica,sans-Serif" font-size="10.00" fill="#e0e0e0">pydantic</text>
</g>
<!-- src2_helpers_config_config -->
<g id="node7" class="node">
<title>src2_helpers_config_config</title><style>.edge>path:hover{stroke-width:8}</style>
<ellipse fill="#339999" stroke="#ffffff" cx="1017.22" cy="-916.53" rx="35.71" ry="39.6"/>
<text xml:space="preserve" text-anchor="middle" x="1017.22" y="-931.03" font-family="Helvetica,sans-Serif" font-size="10.00" fill="#e0e0e0">src2.</text>
<text xml:space="preserve" text-anchor="middle" x="1017.22" y="-919.03" font-family="Helvetica,sans-Serif" font-size="10.00" fill="#e0e0e0">helpers.</text>
<text xml:space="preserve" text-anchor="middle" x="1017.22" y="-907.03" font-family="Helvetica,sans-Serif" font-size="10.00" fill="#e0e0e0">config.</text>
<text xml:space="preserve" text-anchor="middle" x="1017.22" y="-895.03" font-family="Helvetica,sans-Serif" font-size="10.00" fill="#e0e0e0">config</text>
</g>
<!-- pydantic&#45;&gt;src2_helpers_config_config -->
<g id="edge1" class="edge">
<title>pydantic&#45;&gt;src2_helpers_config_config</title><style>.edge>path:hover{stroke-width:8}</style>
<path fill="none" stroke="#ffffff" d="M547.02,-844.3C618.48,-835.43 802.93,-819.47 945.51,-867.53 957.43,-871.55 969.16,-878.23 979.53,-885.38"/>
<polygon fill="#bfc040" stroke="#ffffff" points="977.28,-888.07 987.42,-891.13 981.4,-882.41 977.28,-888.07"/>
</g>
<!-- pydantic_settings -->
<g id="node3" class="node">
<title>pydantic_settings</title><style>.edge>path:hover{stroke-width:8}</style>
<ellipse fill="#53b653" stroke="#ffffff" cx="515.88" cy="-984.53" rx="55.62" ry="18"/>
<text xml:space="preserve" text-anchor="middle" x="515.88" y="-981.03" font-family="Helvetica,sans-Serif" font-size="10.00" fill="#e0e0e0">pydantic_settings</text>
</g>
<!-- pydantic_settings&#45;&gt;src2_helpers_config_config -->
<g id="edge2" class="edge">
<title>pydantic_settings&#45;&gt;src2_helpers_config_config</title><style>.edge>path:hover{stroke-width:8}</style>
<path fill="none" stroke="#ffffff" d="M568.03,-991.19C650.13,-999.93 815.28,-1009.44 945.51,-965.53 957.43,-961.52 969.16,-954.84 979.53,-947.69"/>
<polygon fill="#53b653" stroke="#ffffff" points="981.4,-950.66 987.42,-941.94 977.28,-945 981.4,-950.66"/>
</g>
<!-- src2 -->
<g id="node4" class="node">
<title>src2</title><style>.edge>path:hover{stroke-width:8}</style>
<ellipse fill="#3bcece" stroke="#ffffff" cx="1386.8" cy="-963.53" rx="27" ry="18"/>
<text xml:space="preserve" text-anchor="middle" x="1386.8" y="-960.03" font-family="Helvetica,sans-Serif" font-size="10.00" fill="#e0e0e0">src2</text>
</g>
<!-- src2&#45;&gt;main_py -->
<g id="edge3" class="edge">
<title>src2&#45;&gt;main_py</title><style>.edge>path:hover{stroke-width:8}</style>
<path fill="none" stroke="#ffffff" d="M1407.88,-952.22C1414.8,-947.82 1422.34,-942.41 1428.44,-936.53 1448.16,-917.54 1437.12,-884.66 1464.44,-886.53"/>
</g>
<!-- src2_helpers -->
<g id="node5" class="node">
<title>src2_helpers</title><style>.edge>path:hover{stroke-width:8}</style>
<ellipse fill="#3bcece" stroke="#ffffff" cx="1386.8" cy="-909.53" rx="41.64" ry="18"/>
<text xml:space="preserve" text-anchor="middle" x="1386.8" y="-906.03" font-family="Helvetica,sans-Serif" font-size="10.00" fill="#e0e0e0">src2.helpers</text>
</g>
<!-- src2_helpers&#45;&gt;main_py -->
<g id="edge4" class="edge">
<title>src2_helpers&#45;&gt;main_py</title><style>.edge>path:hover{stroke-width:8}</style>
<path fill="none" stroke="#ffffff" d="M1415.27,-896.13C1429.63,-890.46 1447.67,-885.39 1464.44,-886.53"/>
</g>
<!-- src2_helpers_config -->
<g id="node6" class="node">
<title>src2_helpers_config</title><style>.edge>path:hover{stroke-width:8}</style>
<ellipse fill="#3bcece" stroke="#ffffff" cx="1127.3" cy="-901.53" rx="35.71" ry="31.11"/>
<text xml:space="preserve" text-anchor="middle" x="1127.3" y="-910.03" font-family="Helvetica,sans-Serif" font-size="10.00" fill="#e0e0e0">src2.</text>
<text xml:space="preserve" text-anchor="middle" x="1127.3" y="-898.03" font-family="Helvetica,sans-Serif" font-size="10.00" fill="#e0e0e0">helpers.</text>
<text xml:space="preserve" text-anchor="middle" x="1127.3" y="-886.03" font-family="Helvetica,sans-Serif" font-size="10.00" fill="#e0e0e0">config</text>
</g>
<!-- src2_helpers_config&#45;&gt;main_py -->
<g id="edge5" class="edge">
<title>src2_helpers_config&#45;&gt;main_py</title><style>.edge>path:hover{stroke-width:8}</style>
<path fill="none" stroke="#ffffff" d="M1152.69,-923.89C1177.25,-943.7 1216.78,-968.35 1254.41,-960.53"/>
<path fill="none" stroke="#ffffff" d="M1256.41,-960.53C1326.78,-945.92 1314.25,-856.71 1385.8,-863.53"/>
</g>
<!-- src2_helpers_logging_setup -->
<g id="node9" class="node">
<title>src2_helpers_logging_setup</title><style>.edge>path:hover{stroke-width:8}</style>
<ellipse fill="#409696" stroke="#ffffff" cx="1255.41" cy="-863.53" rx="53.74" ry="31.11"/>
<text xml:space="preserve" text-anchor="middle" x="1255.41" y="-872.03" font-family="Helvetica,sans-Serif" font-size="10.00" fill="#e0e0e0">src2.</text>
<text xml:space="preserve" text-anchor="middle" x="1255.41" y="-860.03" font-family="Helvetica,sans-Serif" font-size="10.00" fill="#e0e0e0">helpers.</text>
<text xml:space="preserve" text-anchor="middle" x="1255.41" y="-848.03" font-family="Helvetica,sans-Serif" font-size="10.00" fill="#e0e0e0">logging_setup</text>
</g>
<!-- src2_helpers_config&#45;&gt;src2_helpers_logging_setup -->
<g id="edge6" class="edge">
<title>src2_helpers_config&#45;&gt;src2_helpers_logging_setup</title><style>.edge>path:hover{stroke-width:8}</style>
<path fill="none" stroke="#ffffff" d="M1161.43,-891.55C1172.16,-888.32 1184.4,-884.63 1196.38,-881.02"/>
<polygon fill="#3bcece" stroke="#ffffff" points="1197.26,-884.41 1205.83,-878.17 1195.24,-877.71 1197.26,-884.41"/>
</g>
<!-- src2_helpers_config_config&#45;&gt;main_py -->
<g id="edge7" class="edge">
<title>src2_helpers_config_config&#45;&gt;main_py</title><style>.edge>path:hover{stroke-width:8}</style>
<path fill="none" stroke="#ffffff" d="M1050.77,-930.66C1096.4,-948.62 1181.92,-975.59 1254.41,-960.53"/>
</g>
<!-- src2_helpers_config_config&#45;&gt;src2_helpers_logging_setup -->
<g id="edge8" class="edge">
<title>src2_helpers_config_config&#45;&gt;src2_helpers_logging_setup</title><style>.edge>path:hover{stroke-width:8}</style>
<path fill="none" stroke="#ffffff" d="M1043.87,-889.85C1056.3,-878.82 1072.15,-867.29 1088.92,-861.53 1121.84,-850.24 1160.66,-850.08 1192.42,-853.05"/>
<polygon fill="#339999" stroke="#ffffff" points="1191.96,-856.52 1202.28,-854.11 1192.71,-849.56 1191.96,-856.52"/>
</g>
<!-- src2_helpers_config_env_loader_mixin -->
<g id="node8" class="node">
<title>src2_helpers_config_env_loader_mixin</title><style>.edge>path:hover{stroke-width:8}</style>
<ellipse fill="#53b6b6" stroke="#ffffff" cx="880.63" cy="-916.53" rx="64.88" ry="39.6"/>
<text xml:space="preserve" text-anchor="middle" x="880.63" y="-931.03" font-family="Helvetica,sans-Serif" font-size="10.00" fill="#e0e0e0">src2.</text>
<text xml:space="preserve" text-anchor="middle" x="880.63" y="-919.03" font-family="Helvetica,sans-Serif" font-size="10.00" fill="#e0e0e0">helpers.</text>
<text xml:space="preserve" text-anchor="middle" x="880.63" y="-907.03" font-family="Helvetica,sans-Serif" font-size="10.00" fill="#e0e0e0">config.</text>
<text xml:space="preserve" text-anchor="middle" x="880.63" y="-895.03" font-family="Helvetica,sans-Serif" font-size="10.00" fill="#e0e0e0">env_loader_mixin</text>
</g>
<!-- src2_helpers_config_env_loader_mixin&#45;&gt;src2_helpers_config_config -->
<g id="edge9" class="edge">
<title>src2_helpers_config_env_loader_mixin&#45;&gt;src2_helpers_config_config</title><style>.edge>path:hover{stroke-width:8}</style>
<path fill="none" stroke="#ffffff" d="M945.77,-916.53C953.86,-916.53 962.02,-916.53 969.76,-916.53"/>
<polygon fill="#53b6b6" stroke="#ffffff" points="969.63,-920.03 979.63,-916.53 969.63,-913.03 969.63,-920.03"/>
</g>
<!-- src2_helpers_logging_setup&#45;&gt;main_py -->
<g id="edge10" class="edge">
<title>src2_helpers_logging_setup&#45;&gt;main_py</title><style>.edge>path:hover{stroke-width:8}</style>
<path fill="none" stroke="#ffffff" d="M1309.4,-861.27C1332.86,-860.85 1360.75,-861.15 1385.8,-863.53"/>
</g>
<!-- structlog -->
<g id="node10" class="node">
<title>structlog</title><style>.edge>path:hover{stroke-width:8}</style>
<polygon fill="#5a5a5a" stroke="#ffffff" points="907.63,-404.53 853.63,-404.53 853.63,-368.53 907.63,-368.53 907.63,-404.53"/>
<text xml:space="preserve" text-anchor="middle" x="880.63" y="-383.03" font-family="Helvetica,sans-Serif" font-size="10.00" fill="#e0e0e0">structlog</text>
</g>
<!-- structlog&#45;&gt;main_py -->
<g id="edge11" class="edge">
<title>structlog&#45;&gt;main_py</title><style>.edge>path:hover{stroke-width:8}</style>
<path fill="none" stroke="#ffffff" d="M1128.3,-804.53C1208.61,-813.66 1231.77,-800.2 1309.15,-823.53 1345.94,-834.63 1347.55,-859.89 1385.8,-863.53"/>
<path fill="none" stroke="#ffffff" d="M1387.8,-863.53C1423.25,-866.4 1428.96,-884.1 1464.44,-886.53"/>
<path fill="none" stroke="#ffffff" d="M883.58,-404.85C892.95,-482.22 940.89,-779.51 1126.3,-804.53"/>
</g>
<!-- structlog&#45;&gt;src2_helpers_logging_setup -->
<g id="edge12" class="edge">
<title>structlog&#45;&gt;src2_helpers_logging_setup</title><style>.edge>path:hover{stroke-width:8}</style>
<path fill="none" stroke="#ffffff" d="M1128.3,-804.53C1157.17,-807.82 1186.74,-821.02 1209.98,-834.11"/>
<polygon fill="#5a5a5a" stroke="#ffffff" points="1208.15,-837.1 1218.55,-839.12 1211.68,-831.06 1208.15,-837.1"/>
</g>
<!-- structlog__base -->
<g id="node11" class="node">
<title>structlog__base</title><style>.edge>path:hover{stroke-width:8}</style>
<polygon fill="#5a5a5a" stroke="#ffffff" points="187.2,-535.53 130.7,-535.53 130.7,-499.53 187.2,-499.53 187.2,-535.53"/>
<text xml:space="preserve" text-anchor="middle" x="158.95" y="-520.03" font-family="Helvetica,sans-Serif" font-size="10.00" fill="#e0e0e0">structlog.</text>
<text xml:space="preserve" text-anchor="middle" x="158.95" y="-508.03" font-family="Helvetica,sans-Serif" font-size="10.00" fill="#e0e0e0">_base</text>
</g>
<!-- structlog__base&#45;&gt;structlog -->
<g id="edge13" class="edge">
<title>structlog__base&#45;&gt;structlog</title><style>.edge>path:hover{stroke-width:8}</style>
<path fill="none" stroke="#ffffff" d="M179.11,-536.02C192.07,-547.55 210.12,-561.81 228.45,-570.53 346.5,-626.71 384.38,-645.42 514.88,-637.53"/>
<path fill="none" stroke="#ffffff" d="M516.88,-637.53C573.48,-635.8 582.76,-589.53 638.5,-599.53"/>
</g>
<!-- structlog__generic -->
<g id="node13" class="node">
<title>structlog__generic</title><style>.edge>path:hover{stroke-width:8}</style>
<polygon fill="#5a5a5a" stroke="#ffffff" points="667.75,-663.53 611.25,-663.53 611.25,-627.53 667.75,-627.53 667.75,-663.53"/>
<text xml:space="preserve" text-anchor="middle" x="639.5" y="-648.03" font-family="Helvetica,sans-Serif" font-size="10.00" fill="#e0e0e0">structlog.</text>
<text xml:space="preserve" text-anchor="middle" x="639.5" y="-636.03" font-family="Helvetica,sans-Serif" font-size="10.00" fill="#e0e0e0">_generic</text>
</g>
<!-- structlog__base&#45;&gt;structlog__generic -->
<g id="edge14" class="edge">
<title>structlog__base&#45;&gt;structlog__generic</title><style>.edge>path:hover{stroke-width:8}</style>
<path fill="none" stroke="#ffffff" d="M516.88,-637.53C544.53,-635.86 575.69,-637.99 599.56,-640.47"/>
<polygon fill="#5a5a5a" stroke="#ffffff" points="599.14,-643.95 609.47,-641.57 599.92,-636.99 599.14,-643.95"/>
</g>
<!-- structlog__native -->
<g id="node14" class="node">
<title>structlog__native</title><style>.edge>path:hover{stroke-width:8}</style>
<polygon fill="#5a5a5a" stroke="#ffffff" points="296.65,-469.53 240.15,-469.53 240.15,-433.53 296.65,-433.53 296.65,-469.53"/>
<text xml:space="preserve" text-anchor="middle" x="268.4" y="-454.03" font-family="Helvetica,sans-Serif" font-size="10.00" fill="#e0e0e0">structlog.</text>
<text xml:space="preserve" text-anchor="middle" x="268.4" y="-442.03" font-family="Helvetica,sans-Serif" font-size="10.00" fill="#e0e0e0">_native</text>
</g>
<!-- structlog__base&#45;&gt;structlog__native -->
<g id="edge15" class="edge">
<title>structlog__base&#45;&gt;structlog__native</title><style>.edge>path:hover{stroke-width:8}</style>
<path fill="none" stroke="#ffffff" d="M187.62,-500.54C200.53,-492.61 216.09,-483.05 230.02,-474.49"/>
<polygon fill="#5a5a5a" stroke="#ffffff" points="231.84,-477.48 238.53,-469.27 228.18,-471.52 231.84,-477.48"/>
</g>
<!-- structlog_stdlib -->
<g id="node20" class="node">
<title>structlog_stdlib</title><style>.edge>path:hover{stroke-width:8}</style>
<polygon fill="#5a5a5a" stroke="#ffffff" points="771.88,-191.53 715.38,-191.53 715.38,-155.53 771.88,-155.53 771.88,-191.53"/>
<text xml:space="preserve" text-anchor="middle" x="743.63" y="-176.03" font-family="Helvetica,sans-Serif" font-size="10.00" fill="#e0e0e0">structlog.</text>
<text xml:space="preserve" text-anchor="middle" x="743.63" y="-164.03" font-family="Helvetica,sans-Serif" font-size="10.00" fill="#e0e0e0">stdlib</text>
</g>
<!-- structlog__base&#45;&gt;structlog_stdlib -->
<g id="edge16" class="edge">
<title>structlog__base&#45;&gt;structlog_stdlib</title><style>.edge>path:hover{stroke-width:8}</style>
<path fill="none" stroke="#ffffff" d="M173.02,-499.11C186.57,-480.17 208.53,-449.94 228.45,-424.53 327.71,-297.93 327.96,-238.07 460.26,-146.53 481.39,-131.91 489.23,-129.22 514.88,-127.53"/>
</g>
<!-- structlog_twisted -->
<g id="node24" class="node">
<title>structlog_twisted</title><style>.edge>path:hover{stroke-width:8}</style>
<polygon fill="#5a5a5a" stroke="#ffffff" points="771.88,-381.53 715.38,-381.53 715.38,-345.53 771.88,-345.53 771.88,-381.53"/>
<text xml:space="preserve" text-anchor="middle" x="743.63" y="-366.03" font-family="Helvetica,sans-Serif" font-size="10.00" fill="#e0e0e0">structlog.</text>
<text xml:space="preserve" text-anchor="middle" x="743.63" y="-354.03" font-family="Helvetica,sans-Serif" font-size="10.00" fill="#e0e0e0">twisted</text>
</g>
<!-- structlog__base&#45;&gt;structlog_twisted -->
<g id="edge17" class="edge">
<title>structlog__base&#45;&gt;structlog_twisted</title><style>.edge>path:hover{stroke-width:8}</style>
<path fill="none" stroke="#ffffff" d="M187.66,-530.16C199.9,-535.06 214.61,-540.09 228.45,-542.53 263.42,-548.72 273.28,-548.13 308.35,-542.53 476.07,-515.75 523.16,-506.26 671.5,-423.53 680.61,-418.46 698.62,-403.24 714.24,-389.41"/>
<polygon fill="#5a5a5a" stroke="#ffffff" points="716.34,-392.22 721.46,-382.94 711.68,-387 716.34,-392.22"/>
</g>
<!-- structlog__config -->
<g id="node12" class="node">
<title>structlog__config</title><style>.edge>path:hover{stroke-width:8}</style>
<polygon fill="#5a5a5a" stroke="#ffffff" points="412.55,-431.53 356.05,-431.53 356.05,-395.53 412.55,-395.53 412.55,-431.53"/>
<text xml:space="preserve" text-anchor="middle" x="384.3" y="-416.03" font-family="Helvetica,sans-Serif" font-size="10.00" fill="#e0e0e0">structlog.</text>
<text xml:space="preserve" text-anchor="middle" x="384.3" y="-404.03" font-family="Helvetica,sans-Serif" font-size="10.00" fill="#e0e0e0">_config</text>
</g>
<!-- structlog__config&#45;&gt;structlog -->
<g id="edge18" class="edge">
<title>structlog__config&#45;&gt;structlog</title><style>.edge>path:hover{stroke-width:8}</style>
<path fill="none" stroke="#ffffff" d="M640.5,-409.53C685.62,-404.61 697.71,-416.03 742.63,-409.53"/>
</g>
<!-- structlog_dev -->
<g id="node17" class="node">
<title>structlog_dev</title><style>.edge>path:hover{stroke-width:8}</style>
<polygon fill="#5a5a5a" stroke="#ffffff" points="779.75,-541.53 707.5,-541.53 707.5,-505.53 779.75,-505.53 779.75,-541.53"/>
<text xml:space="preserve" text-anchor="middle" x="743.63" y="-520.03" font-family="Helvetica,sans-Serif" font-size="10.00" fill="#e0e0e0">structlog.dev</text>
</g>
<!-- structlog__config&#45;&gt;structlog_dev -->
<g id="edge19" class="edge">
<title>structlog__config&#45;&gt;structlog_dev</title><style>.edge>path:hover{stroke-width:8}</style>
<path fill="none" stroke="#ffffff" d="M423.96,-425.43C490.19,-445.82 625.09,-487.35 696.26,-509.26"/>
<polygon fill="#5a5a5a" stroke="#ffffff" points="425.08,-422.12 414.49,-422.52 423.02,-428.81 425.08,-422.12"/>
<polygon fill="#5a5a5a" stroke="#ffffff" points="695.09,-512.56 705.67,-512.16 697.15,-505.87 695.09,-512.56"/>
</g>
<!-- structlog__config&#45;&gt;structlog_stdlib -->
<g id="edge20" class="edge">
<title>structlog__config&#45;&gt;structlog_stdlib</title><style>.edge>path:hover{stroke-width:8}</style>
<path fill="none" stroke="#ffffff" d="M412.81,-414.79C439.18,-415.51 480.02,-415.31 514.88,-409.53"/>
<path fill="none" stroke="#ffffff" d="M516.88,-409.53C540.83,-405.56 630.74,-292.57 671.5,-246.53 687.58,-228.38 690.51,-222.84 707.5,-205.53 709.47,-203.53 711.55,-201.48 713.65,-199.45"/>
<polygon fill="#5a5a5a" stroke="#ffffff" points="715.84,-202.2 720.73,-192.81 711.05,-197.1 715.84,-202.2"/>
</g>
<!-- structlog_testing -->
<g id="node21" class="node">
<title>structlog_testing</title><style>.edge>path:hover{stroke-width:8}</style>
<polygon fill="#5a5a5a" stroke="#ffffff" points="544.13,-701.53 487.63,-701.53 487.63,-665.53 544.13,-665.53 544.13,-701.53"/>
<text xml:space="preserve" text-anchor="middle" x="515.88" y="-686.03" font-family="Helvetica,sans-Serif" font-size="10.00" fill="#e0e0e0">structlog.</text>
<text xml:space="preserve" text-anchor="middle" x="515.88" y="-674.03" font-family="Helvetica,sans-Serif" font-size="10.00" fill="#e0e0e0">testing</text>
</g>
<!-- structlog__config&#45;&gt;structlog_testing -->
<g id="edge21" class="edge">
<title>structlog__config&#45;&gt;structlog_testing</title><style>.edge>path:hover{stroke-width:8}</style>
<path fill="none" stroke="#ffffff" d="M394.01,-431.67C416.08,-477.67 474.4,-599.19 501.14,-654.9"/>
<polygon fill="#5a5a5a" stroke="#ffffff" points="497.91,-656.26 505.39,-663.76 504.22,-653.23 497.91,-656.26"/>
</g>
<!-- structlog_threadlocal -->
<g id="node22" class="node">
<title>structlog_threadlocal</title><style>.edge>path:hover{stroke-width:8}</style>
<polygon fill="#5a5a5a" stroke="#ffffff" points="547.5,-191.53 484.25,-191.53 484.25,-155.53 547.5,-155.53 547.5,-191.53"/>
<text xml:space="preserve" text-anchor="middle" x="515.88" y="-176.03" font-family="Helvetica,sans-Serif" font-size="10.00" fill="#e0e0e0">structlog.</text>
<text xml:space="preserve" text-anchor="middle" x="515.88" y="-164.03" font-family="Helvetica,sans-Serif" font-size="10.00" fill="#e0e0e0">threadlocal</text>
</g>
<!-- structlog__config&#45;&gt;structlog_threadlocal -->
<g id="edge22" class="edge">
<title>structlog__config&#45;&gt;structlog_threadlocal</title><style>.edge>path:hover{stroke-width:8}</style>
<path fill="none" stroke="#ffffff" d="M411.26,-395.14C415.98,-391.03 420.56,-386.42 424.26,-381.53 446.72,-351.79 485.5,-252.34 504.19,-202.51"/>
<polygon fill="#5a5a5a" stroke="#ffffff" points="507.43,-203.84 507.65,-193.24 500.88,-201.39 507.43,-203.84"/>
</g>
<!-- structlog__config&#45;&gt;structlog_twisted -->
<g id="edge23" class="edge">
<title>structlog__config&#45;&gt;structlog_twisted</title><style>.edge>path:hover{stroke-width:8}</style>
<path fill="none" stroke="#ffffff" d="M640.5,-409.53C663.17,-407.06 686.51,-397.2 705.14,-387.24"/>
<polygon fill="#5a5a5a" stroke="#ffffff" points="706.63,-390.41 713.65,-382.48 703.21,-384.3 706.63,-390.41"/>
<path fill="none" stroke="#ffffff" d="M516.88,-409.53C570.21,-400.69 584.77,-415.4 638.5,-409.53"/>
</g>
<!-- structlog__generic&#45;&gt;structlog -->
<g id="edge24" class="edge">
<title>structlog__generic&#45;&gt;structlog</title><style>.edge>path:hover{stroke-width:8}</style>
<path fill="none" stroke="#ffffff" d="M668.18,-654.48C690.9,-659.94 722.51,-662.93 742.63,-645.53"/>
</g>
<!-- structlog__native&#45;&gt;structlog -->
<g id="edge25" class="edge">
<title>structlog__native&#45;&gt;structlog</title><style>.edge>path:hover{stroke-width:8}</style>
<path fill="none" stroke="#ffffff" d="M296.82,-450.8C362.03,-448.81 531.37,-442.13 671.5,-423.53 703.44,-419.3 710.74,-414.15 742.63,-409.53"/>
</g>
<!-- structlog__native&#45;&gt;structlog__config -->
<g id="edge26" class="edge">
<title>structlog__native&#45;&gt;structlog__config</title><style>.edge>path:hover{stroke-width:8}</style>
<path fill="none" stroke="#ffffff" d="M296.97,-442.34C311.42,-437.52 329.33,-431.54 345.09,-426.28"/>
<polygon fill="#5a5a5a" stroke="#ffffff" points="345.78,-429.74 354.15,-423.26 343.56,-423.1 345.78,-429.74"/>
</g>
<!-- structlog__output -->
<g id="node15" class="node">
<title>structlog__output</title><style>.edge>path:hover{stroke-width:8}</style>
<ellipse fill="#4747c2" stroke="#ffffff" cx="268.4" cy="-510.53" rx="39.95" ry="22.63"/>
<text xml:space="preserve" text-anchor="middle" x="268.4" y="-513.03" font-family="Helvetica,sans-Serif" font-size="10.00" fill="#e0e0e0">structlog.</text>
<text xml:space="preserve" text-anchor="middle" x="268.4" y="-501.03" font-family="Helvetica,sans-Serif" font-size="10.00" fill="#e0e0e0">_output</text>
</g>
<!-- structlog__output&#45;&gt;structlog -->
<g id="edge27" class="edge">
<title>structlog__output&#45;&gt;structlog</title><style>.edge>path:hover{stroke-width:8}</style>
<path fill="none" stroke="#ffffff" d="M303.8,-521.4C368.53,-541.27 513.2,-582.93 638.5,-599.53"/>
<path fill="none" stroke="#ffffff" d="M744.63,-645.53C817.92,-582.18 857,-469.14 872.12,-415.85"/>
<polygon fill="#4747c2" stroke="#ffffff" points="875.47,-416.87 874.74,-406.3 868.72,-415.01 875.47,-416.87"/>
<path fill="none" stroke="#ffffff" d="M640.5,-599.53C689.5,-608.33 704.97,-678.09 742.63,-645.53"/>
</g>
<!-- structlog__output&#45;&gt;structlog__config -->
<g id="edge28" class="edge">
<title>structlog__output&#45;&gt;structlog__config</title><style>.edge>path:hover{stroke-width:8}</style>
<path fill="none" stroke="#ffffff" d="M292.14,-492.02C297.48,-487.63 303.14,-482.94 308.35,-478.53 323.47,-465.77 340.11,-451.38 353.86,-439.39"/>
<polygon fill="#4747c2" stroke="#ffffff" points="356.07,-442.11 361.29,-432.89 351.46,-436.84 356.07,-442.11"/>
</g>
<!-- structlog_contextvars -->
<g id="node16" class="node">
<title>structlog_contextvars</title><style>.edge>path:hover{stroke-width:8}</style>
<polygon fill="#5a5a5a" stroke="#ffffff" points="192.45,-404.53 125.45,-404.53 125.45,-368.53 192.45,-368.53 192.45,-404.53"/>
<text xml:space="preserve" text-anchor="middle" x="158.95" y="-389.03" font-family="Helvetica,sans-Serif" font-size="10.00" fill="#e0e0e0">structlog.</text>
<text xml:space="preserve" text-anchor="middle" x="158.95" y="-377.03" font-family="Helvetica,sans-Serif" font-size="10.00" fill="#e0e0e0">contextvars</text>
</g>
<!-- structlog_contextvars&#45;&gt;structlog -->
<g id="edge29" class="edge">
<title>structlog_contextvars&#45;&gt;structlog</title><style>.edge>path:hover{stroke-width:8}</style>
<path fill="none" stroke="#ffffff" d="M744.63,-409.53C777.83,-407.85 815.03,-401.15 841.96,-395.41"/>
<polygon fill="#5a5a5a" stroke="#ffffff" points="842.7,-398.83 851.72,-393.27 841.2,-391.99 842.7,-398.83"/>
<path fill="none" stroke="#ffffff" d="M385.3,-367.53C511.61,-348.01 545.05,-376.95 671.5,-395.53 703.38,-400.22 710.45,-411.16 742.63,-409.53"/>
</g>
<!-- structlog_contextvars&#45;&gt;structlog__config -->
<g id="edge30" class="edge">
<title>structlog_contextvars&#45;&gt;structlog__config</title><style>.edge>path:hover{stroke-width:8}</style>
<path fill="none" stroke="#ffffff" d="M269.4,-367.53C296.34,-367.86 324.43,-379.06 345.97,-390.33"/>
<polygon fill="#5a5a5a" stroke="#ffffff" points="344.21,-393.36 354.66,-395.09 347.57,-387.22 344.21,-393.36"/>
</g>
<!-- structlog_contextvars&#45;&gt;structlog__native -->
<g id="edge31" class="edge">
<title>structlog_contextvars&#45;&gt;structlog__native</title><style>.edge>path:hover{stroke-width:8}</style>
<path fill="none" stroke="#ffffff" d="M190.45,-404.99C202.81,-412.46 217.2,-421.17 230.18,-429.02"/>
<polygon fill="#5a5a5a" stroke="#ffffff" points="228.1,-431.85 238.46,-434.03 231.72,-425.86 228.1,-431.85"/>
</g>
<!-- structlog_processors -->
<g id="node19" class="node">
<title>structlog_processors</title><style>.edge>path:hover{stroke-width:8}</style>
<polygon fill="#5a5a5a" stroke="#ffffff" points="671.5,-237.53 607.5,-237.53 607.5,-201.53 671.5,-201.53 671.5,-237.53"/>
<text xml:space="preserve" text-anchor="middle" x="639.5" y="-222.03" font-family="Helvetica,sans-Serif" font-size="10.00" fill="#e0e0e0">structlog.</text>
<text xml:space="preserve" text-anchor="middle" x="639.5" y="-210.03" font-family="Helvetica,sans-Serif" font-size="10.00" fill="#e0e0e0">processors</text>
</g>
<!-- structlog_contextvars&#45;&gt;structlog_processors -->
<g id="edge32" class="edge">
<title>structlog_contextvars&#45;&gt;structlog_processors</title><style>.edge>path:hover{stroke-width:8}</style>
<path fill="none" stroke="#ffffff" d="M385.3,-367.53C427.09,-362.22 424.64,-332.02 460.26,-309.53 505.08,-281.24 559.95,-254.64 596.87,-237.8"/>
<polygon fill="#5a5a5a" stroke="#ffffff" points="598.2,-241.04 605.87,-233.73 595.32,-234.66 598.2,-241.04"/>
<path fill="none" stroke="#ffffff" d="M192.61,-377.49C213.77,-372.45 242.02,-367.23 267.4,-367.53"/>
<path fill="none" stroke="#ffffff" d="M269.4,-367.53C320.02,-368.14 333.27,-375.27 383.3,-367.53"/>
</g>
<!-- structlog_contextvars&#45;&gt;structlog_stdlib -->
<g id="edge33" class="edge">
<title>structlog_contextvars&#45;&gt;structlog_stdlib</title><style>.edge>path:hover{stroke-width:8}</style>
<path fill="none" stroke="#ffffff" d="M161.5,-368.1C165.59,-331.55 179.95,-249.59 228.45,-205.53 277.28,-161.18 449.03,-131.52 514.88,-127.53"/>
</g>
<!-- structlog_dev&#45;&gt;structlog -->
<g id="edge34" class="edge">
<title>structlog_dev&#45;&gt;structlog</title><style>.edge>path:hover{stroke-width:8}</style>
<path fill="none" stroke="#ffffff" d="M762.83,-505.06C786.32,-481.23 827.29,-439.64 853.94,-412.61"/>
<polygon fill="#5a5a5a" stroke="#ffffff" points="856.12,-415.38 860.65,-405.8 851.14,-410.46 856.12,-415.38"/>
</g>
<!-- structlog_exceptions -->
<g id="node18" class="node">
<title>structlog_exceptions</title><style>.edge>path:hover{stroke-width:8}</style>
<ellipse fill="#2222e7" stroke="#ffffff" cx="44.72" cy="-537.53" rx="44.72" ry="22.63"/>
<text xml:space="preserve" text-anchor="middle" x="44.72" y="-540.03" font-family="Helvetica,sans-Serif" font-size="10.00" fill="#e0e0e0">structlog.</text>
<text xml:space="preserve" text-anchor="middle" x="44.72" y="-528.03" font-family="Helvetica,sans-Serif" font-size="10.00" fill="#e0e0e0">exceptions</text>
</g>
<!-- structlog_exceptions&#45;&gt;structlog -->
<g id="edge36" class="edge">
<title>structlog_exceptions&#45;&gt;structlog</title><style>.edge>path:hover{stroke-width:8}</style>
<path fill="none" stroke="#ffffff" d="M159.95,-827.53C261.26,-887.08 308.5,-854.79 424.26,-834.53 466.33,-827.17 472.16,-802.64 514.88,-802.53"/>
</g>
<!-- structlog_exceptions&#45;&gt;structlog__base -->
<g id="edge37" class="edge">
<title>structlog_exceptions&#45;&gt;structlog__base</title><style>.edge>path:hover{stroke-width:8}</style>
<path fill="none" stroke="#ffffff" d="M87.51,-530.09C97.93,-528.23 109.05,-526.25 119.3,-524.42"/>
<polygon fill="#2222e7" stroke="#ffffff" points="119.71,-527.9 128.94,-522.7 118.48,-521.01 119.71,-527.9"/>
</g>
<!-- structlog_exceptions&#45;&gt;structlog_dev -->
<g id="edge38" class="edge">
<title>structlog_exceptions&#45;&gt;structlog_dev</title><style>.edge>path:hover{stroke-width:8}</style>
<path fill="none" stroke="#ffffff" d="M45.33,-560.65C45.75,-620.84 56.65,-780.99 157.95,-827.53"/>
<path fill="none" stroke="#ffffff" d="M159.95,-827.53C179.44,-836.49 323.74,-776.44 344.35,-770.53 490.27,-728.73 559.86,-775.36 671.5,-672.53 706.87,-639.96 726.42,-586.11 735.7,-552.85"/>
<polygon fill="#2222e7" stroke="#ffffff" points="739.01,-554.03 738.18,-543.47 732.24,-552.25 739.01,-554.03"/>
</g>
<!-- structlog_exceptions&#45;&gt;structlog_stdlib -->
<g id="edge39" class="edge">
<title>structlog_exceptions&#45;&gt;structlog_stdlib</title><style>.edge>path:hover{stroke-width:8}</style>
<path fill="none" stroke="#ffffff" d="M65.5,-517.12C73.88,-507.55 83.14,-495.61 89.45,-483.53 116.03,-432.67 104.05,-412.78 125.45,-359.53 162.29,-267.86 150.33,-223.03 228.45,-162.53 329.85,-84.01 386.87,-135.35 514.88,-127.53"/>
<path fill="none" stroke="#ffffff" d="M516.88,-127.53C570.5,-120.71 589.33,-105.07 638.5,-127.53"/>
</g>
<!-- structlog_exceptions&#45;&gt;structlog_testing -->
<g id="edge40" class="edge">
<title>structlog_exceptions&#45;&gt;structlog_testing</title><style>.edge>path:hover{stroke-width:8}</style>
<path fill="none" stroke="#ffffff" d="M54.92,-560.06C66.98,-586.52 90.75,-629.59 125.45,-651.53 179.52,-685.74 203.65,-670.04 267.4,-675.53"/>
</g>
<!-- structlog_processors&#45;&gt;structlog -->
<g id="edge41" class="edge">
<title>structlog_processors&#45;&gt;structlog</title><style>.edge>path:hover{stroke-width:8}</style>
<path fill="none" stroke="#ffffff" d="M671.84,-211.45C693.32,-207.75 721.62,-206.64 742.63,-219.53"/>
</g>
<!-- structlog_processors&#45;&gt;structlog__config -->
<g id="edge42" class="edge">
<title>structlog_processors&#45;&gt;structlog__config</title><style>.edge>path:hover{stroke-width:8}</style>
<path fill="none" stroke="#ffffff" d="M628.07,-237.89C616.26,-257.46 595.52,-288.47 571.5,-309.53 526.12,-349.35 463.01,-380.63 423.17,-398.11"/>
<polygon fill="#5a5a5a" stroke="#ffffff" points="422.02,-394.79 414.22,-401.96 424.79,-401.22 422.02,-394.79"/>
</g>
<!-- structlog_processors&#45;&gt;structlog_dev -->
<g id="edge43" class="edge">
<title>structlog_processors&#45;&gt;structlog_dev</title><style>.edge>path:hover{stroke-width:8}</style>
<path fill="none" stroke="#ffffff" d="M646.38,-237.86C657.89,-273.64 684.3,-355.24 707.5,-423.53 715.62,-447.42 725.12,-474.4 732.19,-494.31"/>
<polygon fill="#5a5a5a" stroke="#ffffff" points="728.88,-495.47 735.53,-503.72 735.48,-493.12 728.88,-495.47"/>
</g>
<!-- structlog_processors&#45;&gt;structlog_stdlib -->
<g id="edge44" class="edge">
<title>structlog_processors&#45;&gt;structlog_stdlib</title><style>.edge>path:hover{stroke-width:8}</style>
<path fill="none" stroke="#ffffff" d="M671.98,-205.36C682.26,-200.72 693.8,-195.53 704.52,-190.7"/>
<polygon fill="#5a5a5a" stroke="#ffffff" points="705.83,-193.95 713.51,-186.65 702.95,-187.57 705.83,-193.95"/>
</g>
<!-- structlog_processors&#45;&gt;structlog_twisted -->
<g id="edge45" class="edge">
<title>structlog_processors&#45;&gt;structlog_twisted</title><style>.edge>path:hover{stroke-width:8}</style>
<path fill="none" stroke="#ffffff" d="M659.53,-237.9C663.65,-242.22 667.86,-246.92 671.5,-251.53 692.77,-278.51 713.4,-312.07 726.92,-335.39"/>
<polygon fill="#5a5a5a" stroke="#ffffff" points="723.84,-337.07 731.85,-344.01 729.92,-333.59 723.84,-337.07"/>
</g>
<!-- structlog_stdlib&#45;&gt;structlog -->
<g id="edge46" class="edge">
<title>structlog_stdlib&#45;&gt;structlog</title><style>.edge>path:hover{stroke-width:8}</style>
<path fill="none" stroke="#ffffff" d="M766.91,-191.79C771.44,-196.05 775.97,-200.74 779.75,-205.53 818.5,-254.64 850.79,-320.78 867.44,-358"/>
<polygon fill="#5a5a5a" stroke="#ffffff" points="864.06,-359.01 871.3,-366.74 870.47,-356.18 864.06,-359.01"/>
</g>
<!-- structlog_testing&#45;&gt;structlog -->
<g id="edge47" class="edge">
<title>structlog_testing&#45;&gt;structlog</title><style>.edge>path:hover{stroke-width:8}</style>
<path fill="none" stroke="#ffffff" d="M524.22,-701.76C540.4,-738.78 582.25,-818 638.5,-802.53"/>
<path fill="none" stroke="#ffffff" d="M640.5,-802.53C720.77,-780.47 679.65,-699.97 742.63,-645.53"/>
</g>
<!-- structlog_threadlocal&#45;&gt;structlog -->
<g id="edge48" class="edge">
<title>structlog_threadlocal&#45;&gt;structlog</title><style>.edge>path:hover{stroke-width:8}</style>
<path fill="none" stroke="#ffffff" d="M547.77,-173.31C593.63,-174.35 680.93,-181.66 742.63,-219.53"/>
<path fill="none" stroke="#ffffff" d="M744.63,-219.53C801.74,-252.84 844.51,-320.13 865.4,-358.35"/>
<polygon fill="#5a5a5a" stroke="#ffffff" points="862.2,-359.79 869.99,-366.97 868.38,-356.5 862.2,-359.79"/>
</g>
<!-- structlog_threadlocal&#45;&gt;structlog_processors -->
<g id="edge49" class="edge">
<title>structlog_threadlocal&#45;&gt;structlog_processors</title><style>.edge>path:hover{stroke-width:8}</style>
<path fill="none" stroke="#ffffff" d="M547.88,-185.26C562.64,-190.84 580.5,-197.6 596.45,-203.63"/>
<polygon fill="#5a5a5a" stroke="#ffffff" points="595.12,-206.87 605.72,-207.13 597.6,-200.32 595.12,-206.87"/>
</g>
<!-- structlog_tracebacks -->
<g id="node23" class="node">
<title>structlog_tracebacks</title><style>.edge>path:hover{stroke-width:8}</style>
<ellipse fill="#4040c0" stroke="#ffffff" cx="515.88" cy="-53.53" rx="45.25" ry="22.63"/>
<text xml:space="preserve" text-anchor="middle" x="515.88" y="-56.03" font-family="Helvetica,sans-Serif" font-size="10.00" fill="#e0e0e0">structlog.</text>
<text xml:space="preserve" text-anchor="middle" x="515.88" y="-44.03" font-family="Helvetica,sans-Serif" font-size="10.00" fill="#e0e0e0">tracebacks</text>
</g>
<!-- structlog_tracebacks&#45;&gt;structlog -->
<g id="edge50" class="edge">
<title>structlog_tracebacks&#45;&gt;structlog</title><style>.edge>path:hover{stroke-width:8}</style>
<path fill="none" stroke="#ffffff" d="M560.7,-58.08C617.99,-66.21 718.24,-88.28 779.75,-146.53 841.35,-204.88 866.34,-306.96 875.27,-357.08"/>
<polygon fill="#4040c0" stroke="#ffffff" points="871.81,-357.59 876.91,-366.87 878.71,-356.43 871.81,-357.59"/>
</g>
<!-- structlog_tracebacks&#45;&gt;structlog_processors -->
<g id="edge51" class="edge">
<title>structlog_tracebacks&#45;&gt;structlog_processors</title><style>.edge>path:hover{stroke-width:8}</style>
<path fill="none" stroke="#ffffff" d="M532.53,-74.9C554.43,-104.78 594.22,-159.1 618.32,-191.99"/>
<polygon fill="#4040c0" stroke="#ffffff" points="615.34,-193.84 624.07,-199.84 620.99,-189.71 615.34,-193.84"/>
</g>
<!-- structlog_twisted&#45;&gt;structlog -->
<g id="edge52" class="edge">
<title>structlog_twisted&#45;&gt;structlog</title><style>.edge>path:hover{stroke-width:8}</style>
<path fill="none" stroke="#ffffff" d="M772.27,-368.24C792.41,-371.67 819.93,-376.36 842.06,-380.13"/>
<polygon fill="#5a5a5a" stroke="#ffffff" points="841.46,-383.58 851.91,-381.81 842.64,-376.68 841.46,-383.58"/>
</g>
<!-- structlog_types -->
<g id="node25" class="node">
<title>structlog_types</title><style>.edge>path:hover{stroke-width:8}</style>
<ellipse fill="#4c4cb3" stroke="#ffffff" cx="384.3" cy="-802.53" rx="39.95" ry="22.63"/>
<text xml:space="preserve" text-anchor="middle" x="384.3" y="-805.03" font-family="Helvetica,sans-Serif" font-size="10.00" fill="#e0e0e0">structlog.</text>
<text xml:space="preserve" text-anchor="middle" x="384.3" y="-793.03" font-family="Helvetica,sans-Serif" font-size="10.00" fill="#e0e0e0">types</text>
</g>
<!-- structlog_types&#45;&gt;structlog -->
<g id="edge53" class="edge">
<title>structlog_types&#45;&gt;structlog</title><style>.edge>path:hover{stroke-width:8}</style>
<path fill="none" stroke="#ffffff" d="M424.71,-802.53C450.39,-802.53 484.62,-802.53 514.88,-802.53"/>
</g>
<!-- structlog_typing -->
<g id="node26" class="node">
<title>structlog_typing</title><style>.edge>path:hover{stroke-width:8}</style>
<ellipse fill="#1010f9" stroke="#ffffff" cx="44.72" cy="-451.53" rx="39.95" ry="22.63"/>
<text xml:space="preserve" text-anchor="middle" x="44.72" y="-454.03" font-family="Helvetica,sans-Serif" font-size="10.00" fill="#e0e0e0">structlog.</text>
<text xml:space="preserve" text-anchor="middle" x="44.72" y="-442.03" font-family="Helvetica,sans-Serif" font-size="10.00" fill="#e0e0e0">typing</text>
</g>
<!-- structlog_typing&#45;&gt;structlog -->
<g id="edge54" class="edge">
<title>structlog_typing&#45;&gt;structlog</title><style>.edge>path:hover{stroke-width:8}</style>
<path fill="none" stroke="#ffffff" d="M516.88,-802.53C570.93,-802.53 586.38,-816.86 638.5,-802.53"/>
<path fill="none" stroke="#ffffff" d="M159.95,-637.53C171.46,-648.26 179.55,-642.53 192.45,-651.53 211.52,-664.85 209.17,-676.51 228.45,-689.53 235.54,-694.32 506.33,-802.53 514.88,-802.53"/>
</g>
<!-- structlog_typing&#45;&gt;structlog__base -->
<g id="edge55" class="edge">
<title>structlog_typing&#45;&gt;structlog__base</title><style>.edge>path:hover{stroke-width:8}</style>
<path fill="none" stroke="#ffffff" d="M73.18,-467.68C87.44,-476.07 105.09,-486.45 120.58,-495.56"/>
<polygon fill="#1010f9" stroke="#ffffff" points="118.69,-498.51 129.09,-500.56 122.24,-492.47 118.69,-498.51"/>
</g>
<!-- structlog_typing&#45;&gt;structlog__config -->
<g id="edge56" class="edge">
<title>structlog_typing&#45;&gt;structlog__config</title><style>.edge>path:hover{stroke-width:8}</style>
<path fill="none" stroke="#ffffff" d="M159.95,-451.53C192.3,-456.44 196.54,-431.78 228.45,-424.53 267.25,-415.73 312.8,-413.42 344.41,-413.04"/>
<polygon fill="#1010f9" stroke="#ffffff" points="344.31,-416.54 354.29,-412.99 344.27,-409.54 344.31,-416.54"/>
<path fill="none" stroke="#ffffff" d="M84.69,-448.32C106.41,-447.33 133.85,-447.41 157.95,-451.53"/>
</g>
<!-- structlog_typing&#45;&gt;structlog__native -->
<g id="edge57" class="edge">
<title>structlog_typing&#45;&gt;structlog__native</title><style>.edge>path:hover{stroke-width:8}</style>
<path fill="none" stroke="#ffffff" d="M159.95,-451.53C182.46,-454.95 207.93,-455.11 228.42,-454.34"/>
<polygon fill="#1010f9" stroke="#ffffff" points="228.51,-457.84 238.34,-453.87 228.18,-450.85 228.51,-457.84"/>
</g>
<!-- structlog_typing&#45;&gt;structlog_contextvars -->
<g id="edge58" class="edge">
<title>structlog_typing&#45;&gt;structlog_contextvars</title><style>.edge>path:hover{stroke-width:8}</style>
<path fill="none" stroke="#ffffff" d="M73.47,-435.47C86.44,-427.95 102.16,-418.85 116.5,-410.54"/>
<polygon fill="#1010f9" stroke="#ffffff" points="117.95,-413.74 124.85,-405.7 114.45,-407.69 117.95,-413.74"/>
</g>
<!-- structlog_typing&#45;&gt;structlog_dev -->
<g id="edge59" class="edge">
<title>structlog_typing&#45;&gt;structlog_dev</title><style>.edge>path:hover{stroke-width:8}</style>
<path fill="none" stroke="#ffffff" d="M159.95,-451.53C182.19,-455.34 178.79,-472.57 192.45,-490.53 209.46,-512.91 203.55,-529.49 228.45,-542.53 383.37,-623.7 602.08,-569.6 696.39,-539.66"/>
<polygon fill="#1010f9" stroke="#ffffff" points="697.39,-543.02 705.82,-536.61 695.23,-536.36 697.39,-543.02"/>
</g>
<!-- structlog_typing&#45;&gt;structlog_processors -->
<g id="edge60" class="edge">
<title>structlog_typing&#45;&gt;structlog_processors</title><style>.edge>path:hover{stroke-width:8}</style>
<path fill="none" stroke="#ffffff" d="M269.4,-105.53C293.08,-106.19 437.52,-193.9 460.26,-200.53 505.41,-213.71 559.38,-217.95 596.01,-219.22"/>
<polygon fill="#1010f9" stroke="#ffffff" points="595.66,-222.71 605.75,-219.49 595.85,-215.71 595.66,-222.71"/>
</g>
<!-- structlog_typing&#45;&gt;structlog_stdlib -->
<g id="edge61" class="edge">
<title>structlog_typing&#45;&gt;structlog_stdlib</title><style>.edge>path:hover{stroke-width:8}</style>
<path fill="none" stroke="#ffffff" d="M269.4,-105.53C309.94,-105.49 310.42,-75.73 344.35,-53.53 361.37,-42.4 363.85,-35.46 383.3,-29.53"/>
<path fill="none" stroke="#ffffff" d="M385.3,-29.53C464.54,-5.38 498.95,18.44 571.5,-21.53 620.32,-48.43 588.13,-103.69 638.5,-127.53"/>
<path fill="none" stroke="#ffffff" d="M640.5,-127.53C661.74,-137.24 685.53,-147.96 704.8,-156.61"/>
<polygon fill="#1010f9" stroke="#ffffff" points="703.35,-159.79 713.9,-160.69 706.21,-153.41 703.35,-159.79"/>
<path fill="none" stroke="#ffffff" d="M48.17,-428.54C55.75,-361.9 81.01,-170.75 125.45,-129.53 172.36,-86.02 203.42,-105.6 267.4,-105.53"/>
</g>
<!-- structlog_typing&#45;&gt;structlog_testing -->
<g id="edge62" class="edge">
<title>structlog_typing&#45;&gt;structlog_testing</title><style>.edge>path:hover{stroke-width:8}</style>
<path fill="none" stroke="#ffffff" d="M159.95,-637.53C164.58,-641.85 261.11,-674.82 267.4,-675.53"/>
<path fill="none" stroke="#ffffff" d="M63.78,-471.82C72.09,-481.64 81.78,-493.83 89.45,-505.53 125.65,-560.83 109.59,-592.48 157.95,-637.53"/>
<path fill="none" stroke="#ffffff" d="M269.4,-675.53C342,-683.83 427.4,-684.6 475.94,-684.21"/>
<polygon fill="#1010f9" stroke="#ffffff" points="475.69,-687.71 485.65,-684.11 475.61,-680.71 475.69,-687.71"/>
</g>
<!-- structlog_typing&#45;&gt;structlog_threadlocal -->
<g id="edge63" class="edge">
<title>structlog_typing&#45;&gt;structlog_threadlocal</title><style>.edge>path:hover{stroke-width:8}</style>
<path fill="none" stroke="#ffffff" d="M269.4,-105.53C343.4,-105.53 425.55,-134.59 473.57,-154.72"/>
<polygon fill="#1010f9" stroke="#ffffff" points="471.9,-157.81 482.47,-158.52 474.65,-151.37 471.9,-157.81"/>
</g>
<!-- structlog_typing&#45;&gt;structlog_tracebacks -->
<g id="edge64" class="edge">
<title>structlog_typing&#45;&gt;structlog_tracebacks</title><style>.edge>path:hover{stroke-width:8}</style>
<path fill="none" stroke="#ffffff" d="M385.3,-29.53C413.04,-21.08 445.07,-26.88 470.35,-34.89"/>
<polygon fill="#1010f9" stroke="#ffffff" points="469.07,-38.15 479.66,-38.07 471.32,-31.52 469.07,-38.15"/>
</g>
<!-- structlog_typing&#45;&gt;structlog_twisted -->
<g id="edge65" class="edge">
<title>structlog_typing&#45;&gt;structlog_twisted</title><style>.edge>path:hover{stroke-width:8}</style>
<path fill="none" stroke="#ffffff" d="M57.15,-429.66C85.41,-378.92 163.84,-257.53 267.4,-257.53 267.4,-257.53 267.4,-257.53 385.3,-257.53 506.36,-257.53 641.32,-314.15 705.2,-344.62"/>
<polygon fill="#1010f9" stroke="#ffffff" points="703.31,-347.6 713.84,-348.8 706.36,-341.29 703.31,-347.6"/>
</g>
<!-- structlog_typing&#45;&gt;structlog_types -->
<g id="edge66" class="edge">
<title>structlog_typing&#45;&gt;structlog_types</title><style>.edge>path:hover{stroke-width:8}</style>
<path fill="none" stroke="#ffffff" d="M65.29,-471.33C73.83,-480.95 83.28,-493.11 89.45,-505.53 119.19,-565.38 88.35,-595.94 125.45,-651.53 175.76,-726.94 277.53,-769.76 337.06,-789.34"/>
<polygon fill="#1010f9" stroke="#ffffff" points="335.99,-792.67 346.58,-792.38 338.12,-786 335.99,-792.67"/>
</g>
<!-- uvicorn -->
<g id="node27" class="node">
<title>uvicorn</title><style>.edge>path:hover{stroke-width:8}</style>
<polygon fill="#5a5a5a" stroke="#ffffff" points="1413.8,-784.53 1359.8,-784.53 1359.8,-748.53 1413.8,-748.53 1413.8,-784.53"/>
<text xml:space="preserve" text-anchor="middle" x="1386.8" y="-763.03" font-family="Helvetica,sans-Serif" font-size="10.00" fill="#e0e0e0">uvicorn</text>
</g>
<!-- uvicorn&#45;&gt;main_py -->
<g id="edge67" class="edge">
<title>uvicorn&#45;&gt;main_py</title><style>.edge>path:hover{stroke-width:8}</style>
<path fill="none" stroke="#ffffff" d="M1465.44,-886.53C1473.28,-887.07 1481.65,-887.32 1489.7,-887.39"/>
<polygon fill="#5a5a5a" stroke="#ffffff" points="1489.65,-890.89 1499.65,-887.39 1489.65,-883.89 1489.65,-890.89"/>
<path fill="none" stroke="#ffffff" d="M1397.41,-784.87C1415.22,-818.28 1452.57,-885.72 1464.44,-886.53"/>
</g>
<!-- uvicorn_config -->
<g id="node28" class="node">
<title>uvicorn_config</title><style>.edge>path:hover{stroke-width:8}</style>
<polygon fill="#5a5a5a" stroke="#ffffff" points="1165.67,-757.53 1088.92,-757.53 1088.92,-721.53 1165.67,-721.53 1165.67,-757.53"/>
<text xml:space="preserve" text-anchor="middle" x="1127.3" y="-736.03" font-family="Helvetica,sans-Serif" font-size="10.00" fill="#e0e0e0">uvicorn.config</text>
</g>
<!-- uvicorn_config&#45;&gt;uvicorn -->
<g id="edge68" class="edge">
<title>uvicorn_config&#45;&gt;uvicorn</title><style>.edge>path:hover{stroke-width:8}</style>
<path fill="none" stroke="#ffffff" d="M1166,-743.69C1177.46,-744.94 1190.08,-746.3 1201.67,-747.53 1252.42,-752.92 1311.07,-758.93 1348.28,-762.73"/>
<polygon fill="#5a5a5a" stroke="#ffffff" points="1347.76,-766.19 1358.06,-763.72 1348.47,-759.23 1347.76,-766.19"/>
</g>
<!-- uvicorn_main -->
<g id="node29" class="node">
<title>uvicorn_main</title><style>.edge>path:hover{stroke-width:8}</style>
<polygon fill="#5a5a5a" stroke="#ffffff" points="1291.16,-738.53 1219.66,-738.53 1219.66,-702.53 1291.16,-702.53 1291.16,-738.53"/>
<text xml:space="preserve" text-anchor="middle" x="1255.41" y="-717.03" font-family="Helvetica,sans-Serif" font-size="10.00" fill="#e0e0e0">uvicorn.main</text>
</g>
<!-- uvicorn_config&#45;&gt;uvicorn_main -->
<g id="edge69" class="edge">
<title>uvicorn_config&#45;&gt;uvicorn_main</title><style>.edge>path:hover{stroke-width:8}</style>
<path fill="none" stroke="#ffffff" d="M1166.14,-733.83C1179.29,-731.85 1194.19,-729.61 1207.96,-727.53"/>
<polygon fill="#5a5a5a" stroke="#ffffff" points="1208.33,-731.02 1217.69,-726.07 1207.28,-724.1 1208.33,-731.02"/>
</g>
<!-- uvicorn_main&#45;&gt;uvicorn -->
<g id="edge70" class="edge">
<title>uvicorn_main&#45;&gt;uvicorn</title><style>.edge>path:hover{stroke-width:8}</style>
<path fill="none" stroke="#ffffff" d="M1291.43,-732.98C1309.15,-739.28 1330.67,-746.94 1348.68,-753.34"/>
<polygon fill="#5a5a5a" stroke="#ffffff" points="1347.36,-756.58 1357.95,-756.63 1349.7,-749.99 1347.36,-756.58"/>
</g>
</g>
</svg>

