<?xml version="1.0" encoding="UTF-8" standalone="no"?>
<!DOCTYPE svg PUBLIC "-//W3C//DTD SVG 1.1//EN"
 "http://www.w3.org/Graphics/SVG/1.1/DTD/svg11.dtd">
<!-- Generated by graphviz version 15.1.0 (20260618.0150)
 -->
<!-- Title: G Pages: 1 -->
<svg style="background-color:#141414" width="1715pt" height="962pt"
 viewBox="0.00 0.00 1715.00 962.00" xmlns="http://www.w3.org/2000/svg" xmlns:xlink="http://www.w3.org/1999/xlink">
<g id="graph0" class="graph" transform="scale(1 1) rotate(0) translate(4 957.51)">
<title>G</title><style>.edge>path:hover{stroke-width:8}</style>
<polygon fill="#141414" stroke="none" points="-4,4 -4,-957.51 1711.24,-957.51 1711.24,4 -4,4"/>
<!-- annotated_doc -->
<g id="node1" class="node">
<title>annotated_doc</title><style>.edge>path:hover{stroke-width:8}</style>
<polygon fill="#f90606" stroke="#ffffff" points="1064,-226.13 1061,-230.13 1040,-230.13 1037,-226.13 984.25,-226.13 984.25,-190.13 1064,-190.13 1064,-226.13"/>
<text xml:space="preserve" text-anchor="middle" x="1024.12" y="-204.63" font-family="Helvetica,sans-Serif" font-size="10.00" fill="#e0e0e0">annotated_doc</text>
</g>
<!-- fastapi -->
<g id="node12" class="node">
<title>fastapi</title><style>.edge>path:hover{stroke-width:8}</style>
<polygon fill="#5a5a5a" stroke="#ffffff" points="1263.25,-390.13 1260.25,-394.13 1239.25,-394.13 1236.25,-390.13 1209.25,-390.13 1209.25,-354.13 1263.25,-354.13 1263.25,-390.13"/>
<text xml:space="preserve" text-anchor="middle" x="1236.25" y="-368.63" font-family="Helvetica,sans-Serif" font-size="10.00" fill="#e0e0e0">fastapi</text>
</g>
<!-- annotated_doc&#45;&gt;fastapi -->
<g id="edge1" class="edge">
<title>annotated_doc&#45;&gt;fastapi</title><style>.edge>path:hover{stroke-width:8}</style>
<path fill="none" stroke="#ffffff" d="M1064.11,-199.79C1083.76,-197.58 1107.32,-198.13 1126,-208.13"/>
</g>
<!-- annotated_types -->
<g id="node2" class="node">
<title>annotated_types</title><style>.edge>path:hover{stroke-width:8}</style>
<polygon fill="#d93f26" stroke="#ffffff" points="308.75,-466.13 305.75,-470.13 284.75,-470.13 281.75,-466.13 220.75,-466.13 220.75,-430.13 308.75,-430.13 308.75,-466.13"/>
<text xml:space="preserve" text-anchor="middle" x="264.75" y="-444.63" font-family="Helvetica,sans-Serif" font-size="10.00" fill="#e0e0e0">annotated_types</text>
</g>
<!-- pydantic -->
<g id="node24" class="node">
<title>pydantic</title><style>.edge>path:hover{stroke-width:8}</style>
<polygon fill="#5a5a5a" stroke="#ffffff" points="942.5,-450.13 939.5,-454.13 918.5,-454.13 915.5,-450.13 888.5,-450.13 888.5,-414.13 942.5,-414.13 942.5,-450.13"/>
<text xml:space="preserve" text-anchor="middle" x="915.5" y="-428.63" font-family="Helvetica,sans-Serif" font-size="10.00" fill="#e0e0e0">pydantic</text>
</g>
<!-- annotated_types&#45;&gt;pydantic -->
<g id="edge2" class="edge">
<title>annotated_types&#45;&gt;pydantic</title><style>.edge>path:hover{stroke-width:8}</style>
<path fill="none" stroke="#ffffff" d="M308.96,-448.13C355.17,-448.13 430.57,-448.13 495.62,-448.13 495.62,-448.13 495.62,-448.13 711.88,-448.13 769.53,-448.13 836.12,-441.62 876.76,-436.9"/>
<polygon fill="#d93f26" stroke="#ffffff" points="876.98,-440.4 886.5,-435.74 876.15,-433.45 876.98,-440.4"/>
</g>
<!-- anyio -->
<g id="node3" class="node">
<title>anyio</title><style>.edge>path:hover{stroke-width:8}</style>
<polygon fill="#5a5a5a" stroke="#ffffff" points="523.62,-84.13 520.62,-88.13 499.62,-88.13 496.62,-84.13 469.62,-84.13 469.62,-48.13 523.62,-48.13 523.62,-84.13"/>
<text xml:space="preserve" text-anchor="middle" x="496.62" y="-62.63" font-family="Helvetica,sans-Serif" font-size="10.00" fill="#e0e0e0">anyio</text>
</g>
<!-- anyio&#45;&gt;fastapi -->
<g id="edge3" class="edge">
<title>anyio&#45;&gt;fastapi</title><style>.edge>path:hover{stroke-width:8}</style>
<path fill="none" stroke="#ffffff" d="M524.04,-60.7C544.01,-57.85 571.66,-56.67 593.75,-66.13"/>
</g>
<!-- starlette -->
<g id="node34" class="node">
<title>starlette</title><style>.edge>path:hover{stroke-width:8}</style>
<polygon fill="#b710f9" stroke="#ffffff" points="737.88,-206.13 734.88,-210.13 713.88,-210.13 710.88,-206.13 683.88,-206.13 683.88,-170.13 737.88,-170.13 737.88,-206.13"/>
<text xml:space="preserve" text-anchor="middle" x="710.88" y="-184.63" font-family="Helvetica,sans-Serif" font-size="10.00" fill="#e0e0e0">starlette</text>
</g>
<!-- anyio&#45;&gt;starlette -->
<g id="edge4" class="edge">
<title>anyio&#45;&gt;starlette</title><style>.edge>path:hover{stroke-width:8}</style>
<path fill="none" stroke="#ffffff" d="M595.75,-184.13C620.4,-191.43 649.37,-192.36 671.95,-191.5"/>
<polygon fill="#5a5a5a" stroke="#ffffff" points="672.13,-195 681.93,-190.97 671.76,-188.01 672.13,-195"/>
<path fill="none" stroke="#ffffff" d="M504.48,-84.17C516.92,-113.61 546.37,-170.1 593.75,-184.13"/>
</g>
<!-- watchfiles -->
<g id="node40" class="node">
<title>watchfiles</title><style>.edge>path:hover{stroke-width:8}</style>
<polygon fill="#9d436a" stroke="#ffffff" points="741,-826.13 738,-830.13 717,-830.13 714,-826.13 680.75,-826.13 680.75,-790.13 741,-790.13 741,-826.13"/>
<text xml:space="preserve" text-anchor="middle" x="710.88" y="-804.63" font-family="Helvetica,sans-Serif" font-size="10.00" fill="#e0e0e0">watchfiles</text>
</g>
<!-- anyio&#45;&gt;watchfiles -->
<g id="edge5" class="edge">
<title>anyio&#45;&gt;watchfiles</title><style>.edge>path:hover{stroke-width:8}</style>
<path fill="none" stroke="#ffffff" d="M504.26,-84.33C510.58,-102.5 519.81,-131.36 524.5,-157.13 544.2,-265.42 519.21,-549.1 560.5,-651.13 583.4,-707.72 637.27,-755.64 673.66,-783.15"/>
<polygon fill="#5a5a5a" stroke="#ffffff" points="671.17,-785.66 681.29,-788.8 675.34,-780.04 671.17,-785.66"/>
</g>
<!-- attr -->
<g id="node4" class="node">
<title>attr</title><style>.edge>path:hover{stroke-width:8}</style>
<polygon fill="#5a5a5a" stroke="#ffffff" points="415.75,-550.13 412.75,-554.13 391.75,-554.13 388.75,-550.13 361.75,-550.13 361.75,-514.13 415.75,-514.13 415.75,-550.13"/>
<text xml:space="preserve" text-anchor="middle" x="388.75" y="-528.63" font-family="Helvetica,sans-Serif" font-size="10.00" fill="#e0e0e0">attr</text>
</g>
<!-- rich -->
<g id="node29" class="node">
<title>rich</title><style>.edge>path:hover{stroke-width:8}</style>
<polygon fill="#5a5a5a" stroke="#ffffff" points="621.75,-588.13 618.75,-592.13 597.75,-592.13 594.75,-588.13 567.75,-588.13 567.75,-552.13 621.75,-552.13 621.75,-588.13"/>
<text xml:space="preserve" text-anchor="middle" x="594.75" y="-566.63" font-family="Helvetica,sans-Serif" font-size="10.00" fill="#e0e0e0">rich</text>
</g>
<!-- attr&#45;&gt;rich -->
<g id="edge6" class="edge">
<title>attr&#45;&gt;rich</title><style>.edge>path:hover{stroke-width:8}</style>
<path fill="none" stroke="#ffffff" d="M497.62,-578.13C516.81,-575.14 538.33,-573.22 556.14,-572.01"/>
<polygon fill="#5a5a5a" stroke="#ffffff" points="556.25,-575.51 566.01,-571.39 555.81,-568.53 556.25,-575.51"/>
<path fill="none" stroke="#ffffff" d="M412.26,-550.48C433.01,-565.27 465.13,-582.88 495.62,-578.13"/>
</g>
<!-- bcrypt -->
<g id="node5" class="node">
<title>bcrypt</title><style>.edge>path:hover{stroke-width:8}</style>
<polygon fill="#b3874c" stroke="#ffffff" points="846.75,-626.13 843.75,-630.13 822.75,-630.13 819.75,-626.13 792.75,-626.13 792.75,-590.13 846.75,-590.13 846.75,-626.13"/>
<text xml:space="preserve" text-anchor="middle" x="819.75" y="-604.63" font-family="Helvetica,sans-Serif" font-size="10.00" fill="#e0e0e0">bcrypt</text>
</g>
<!-- cryptography -->
<g id="node8" class="node">
<title>cryptography</title><style>.edge>path:hover{stroke-width:8}</style>
<polygon fill="#efef06" stroke="#ffffff" points="1272.38,-588.13 1269.38,-592.13 1248.38,-592.13 1245.38,-588.13 1200.12,-588.13 1200.12,-552.13 1272.38,-552.13 1272.38,-588.13"/>
<text xml:space="preserve" text-anchor="middle" x="1236.25" y="-566.63" font-family="Helvetica,sans-Serif" font-size="10.00" fill="#e0e0e0">cryptography</text>
</g>
<!-- bcrypt&#45;&gt;cryptography -->
<g id="edge7" class="edge">
<title>bcrypt&#45;&gt;cryptography</title><style>.edge>path:hover{stroke-width:8}</style>
<path fill="none" stroke="#ffffff" d="M847.13,-601.23C858.08,-598.61 870.96,-595.85 882.75,-594.13 991.62,-578.23 1120.98,-572.83 1188.67,-571.02"/>
<polygon fill="#b3874c" stroke="#ffffff" points="1188.36,-574.53 1198.27,-570.78 1188.19,-567.53 1188.36,-574.53"/>
</g>
<!-- click -->
<g id="node6" class="node">
<title>click</title><style>.edge>path:hover{stroke-width:8}</style>
<polygon fill="#5a5a5a" stroke="#ffffff" points="737.88,-918.13 734.88,-922.13 713.88,-922.13 710.88,-918.13 683.88,-918.13 683.88,-882.13 737.88,-882.13 737.88,-918.13"/>
<text xml:space="preserve" text-anchor="middle" x="710.88" y="-896.63" font-family="Helvetica,sans-Serif" font-size="10.00" fill="#e0e0e0">click</text>
</g>
<!-- uvicorn -->
<g id="node39" class="node">
<title>uvicorn</title><style>.edge>path:hover{stroke-width:8}</style>
<polygon fill="#5a5a5a" stroke="#ffffff" points="1051.12,-845.13 1048.12,-849.13 1027.12,-849.13 1024.12,-845.13 997.12,-845.13 997.12,-809.13 1051.12,-809.13 1051.12,-845.13"/>
<text xml:space="preserve" text-anchor="middle" x="1024.12" y="-823.63" font-family="Helvetica,sans-Serif" font-size="10.00" fill="#e0e0e0">uvicorn</text>
</g>
<!-- click&#45;&gt;uvicorn -->
<g id="edge8" class="edge">
<title>click&#45;&gt;uvicorn</title><style>.edge>path:hover{stroke-width:8}</style>
<path fill="none" stroke="#ffffff" d="M738.21,-881.69C759.06,-868.89 789.46,-854.13 818.75,-854.13"/>
</g>
<!-- colorama -->
<g id="node7" class="node">
<title>colorama</title><style>.edge>path:hover{stroke-width:8}</style>
<polygon fill="#5a5a5a" stroke="#ffffff" points="524.5,-807.13 521.5,-811.13 500.5,-811.13 497.5,-807.13 468.75,-807.13 468.75,-771.13 524.5,-771.13 524.5,-807.13"/>
<text xml:space="preserve" text-anchor="middle" x="496.62" y="-785.63" font-family="Helvetica,sans-Serif" font-size="10.00" fill="#e0e0e0">colorama</text>
</g>
<!-- colorama&#45;&gt;click -->
<g id="edge9" class="edge">
<title>colorama&#45;&gt;click</title><style>.edge>path:hover{stroke-width:8}</style>
<path fill="none" stroke="#ffffff" d="M518.08,-807.42C536.48,-822.72 564.97,-843.67 593.75,-854.13"/>
<path fill="none" stroke="#ffffff" d="M595.75,-854.13C621.98,-863.66 651.15,-875.44 673.44,-884.7"/>
<polygon fill="#5a5a5a" stroke="#ffffff" points="671.81,-887.81 682.39,-888.43 674.51,-881.35 671.81,-887.81"/>
</g>
<!-- structlog -->
<g id="node35" class="node">
<title>structlog</title><style>.edge>path:hover{stroke-width:8}</style>
<polygon fill="#5a5a5a" stroke="#ffffff" points="846.75,-688.13 843.75,-692.13 822.75,-692.13 819.75,-688.13 792.75,-688.13 792.75,-652.13 846.75,-652.13 846.75,-688.13"/>
<text xml:space="preserve" text-anchor="middle" x="819.75" y="-666.63" font-family="Helvetica,sans-Serif" font-size="10.00" fill="#e0e0e0">structlog</text>
</g>
<!-- colorama&#45;&gt;structlog -->
<g id="edge10" class="edge">
<title>colorama&#45;&gt;structlog</title><style>.edge>path:hover{stroke-width:8}</style>
<path fill="none" stroke="#ffffff" d="M514.3,-770.76C547.99,-735.87 627.94,-663.99 709.88,-670.13"/>
</g>
<!-- jose -->
<g id="node17" class="node">
<title>jose</title><style>.edge>path:hover{stroke-width:8}</style>
<polygon fill="#06f94b" stroke="#ffffff" points="1372.5,-588.13 1369.5,-592.13 1348.5,-592.13 1345.5,-588.13 1318.5,-588.13 1318.5,-552.13 1372.5,-552.13 1372.5,-588.13"/>
<text xml:space="preserve" text-anchor="middle" x="1345.5" y="-566.63" font-family="Helvetica,sans-Serif" font-size="10.00" fill="#e0e0e0">jose</text>
</g>
<!-- cryptography&#45;&gt;jose -->
<g id="edge11" class="edge">
<title>cryptography&#45;&gt;jose</title><style>.edge>path:hover{stroke-width:8}</style>
<path fill="none" stroke="#ffffff" d="M1272.66,-570.13C1283.71,-570.13 1295.93,-570.13 1307.11,-570.13"/>
<polygon fill="#efef06" stroke="#ffffff" points="1306.78,-573.63 1316.78,-570.13 1306.78,-566.63 1306.78,-573.63"/>
</g>
<!-- dotenv -->
<g id="node9" class="node">
<title>dotenv</title><style>.edge>path:hover{stroke-width:8}</style>
<polygon fill="#afc431" stroke="#ffffff" points="621.75,-420.13 618.75,-424.13 597.75,-424.13 594.75,-420.13 567.75,-420.13 567.75,-384.13 621.75,-384.13 621.75,-420.13"/>
<text xml:space="preserve" text-anchor="middle" x="594.75" y="-398.63" font-family="Helvetica,sans-Serif" font-size="10.00" fill="#e0e0e0">dotenv</text>
</g>
<!-- dotenv&#45;&gt;pydantic -->
<g id="edge12" class="edge">
<title>dotenv&#45;&gt;pydantic</title><style>.edge>path:hover{stroke-width:8}</style>
<path fill="none" stroke="#ffffff" d="M820.75,-410.13C839.81,-410.03 860.49,-414.39 877.57,-419.24"/>
<polygon fill="#afc431" stroke="#ffffff" points="876.18,-422.48 886.77,-422.03 878.21,-415.78 876.18,-422.48"/>
</g>
<!-- pydantic_settings -->
<g id="node26" class="node">
<title>pydantic_settings</title><style>.edge>path:hover{stroke-width:8}</style>
<polygon fill="#5a5a5a" stroke="#ffffff" points="1282.5,-450.13 1279.5,-454.13 1258.5,-454.13 1255.5,-450.13 1190,-450.13 1190,-414.13 1282.5,-414.13 1282.5,-450.13"/>
<text xml:space="preserve" text-anchor="middle" x="1236.25" y="-428.63" font-family="Helvetica,sans-Serif" font-size="10.00" fill="#e0e0e0">pydantic_settings</text>
</g>
<!-- dotenv&#45;&gt;pydantic_settings -->
<g id="edge13" class="edge">
<title>dotenv&#45;&gt;pydantic_settings</title><style>.edge>path:hover{stroke-width:8}</style>
<path fill="none" stroke="#ffffff" d="M622.17,-403.78C663.91,-406.23 747.66,-410.5 818.75,-410.13"/>
<path fill="none" stroke="#ffffff" d="M820.75,-410.13C848.39,-410.28 855.13,-406.24 882.75,-405.13 990.8,-400.78 1019.51,-391.36 1126,-410.13"/>
</g>
<!-- dotenv&#45;&gt;uvicorn -->
<g id="edge14" class="edge">
<title>dotenv&#45;&gt;uvicorn</title><style>.edge>path:hover{stroke-width:8}</style>
<path fill="none" stroke="#ffffff" d="M600.37,-420.31C607.09,-447.11 619.79,-498.81 629,-543.13 647.37,-631.56 608.34,-672.8 665,-743.13 692.69,-777.5 721.08,-755.14 756.75,-781.13 791.15,-806.2 776.18,-853.72 818.75,-854.13"/>
<path fill="none" stroke="#ffffff" d="M820.75,-854.13C878.66,-854.69 945.07,-843.54 985.56,-835.4"/>
<polygon fill="#afc431" stroke="#ffffff" points="986.19,-838.84 995.27,-833.39 984.77,-831.98 986.19,-838.84"/>
</g>
<!-- ecdsa -->
<g id="node10" class="node">
<title>ecdsa</title><style>.edge>path:hover{stroke-width:8}</style>
<polygon fill="#5a5a5a" stroke="#ffffff" points="1154,-714.13 1151,-718.13 1130,-718.13 1127,-714.13 1100,-714.13 1100,-678.13 1154,-678.13 1154,-714.13"/>
<text xml:space="preserve" text-anchor="middle" x="1127" y="-692.63" font-family="Helvetica,sans-Serif" font-size="10.00" fill="#e0e0e0">ecdsa</text>
</g>
<!-- ecdsa&#45;&gt;jose -->
<g id="edge15" class="edge">
<title>ecdsa&#45;&gt;jose</title><style>.edge>path:hover{stroke-width:8}</style>
<path fill="none" stroke="#ffffff" d="M1237.25,-781.13C1310.21,-753.58 1333.94,-650.92 1341.33,-599.65"/>
<polygon fill="#5a5a5a" stroke="#ffffff" points="1344.78,-600.25 1342.61,-589.88 1337.84,-599.33 1344.78,-600.25"/>
<path fill="none" stroke="#ffffff" d="M1137.84,-714.28C1155.21,-743.67 1193.46,-796.91 1235.25,-781.13"/>
</g>
<!-- exceptiongroup -->
<g id="node11" class="node">
<title>exceptiongroup</title><style>.edge>path:hover{stroke-width:8}</style>
<polygon fill="#70ae1e" stroke="#ffffff" points="178.38,-76.13 175.38,-80.13 154.38,-80.13 151.38,-76.13 96.38,-76.13 96.38,-40.13 178.38,-40.13 178.38,-76.13"/>
<text xml:space="preserve" text-anchor="middle" x="137.38" y="-54.63" font-family="Helvetica,sans-Serif" font-size="10.00" fill="#e0e0e0">exceptiongroup</text>
</g>
<!-- exceptiongroup&#45;&gt;anyio -->
<g id="edge16" class="edge">
<title>exceptiongroup&#45;&gt;anyio</title><style>.edge>path:hover{stroke-width:8}</style>
<path fill="none" stroke="#ffffff" d="M147.39,-76.57C164.6,-109 205.67,-174.17 263.75,-188.13"/>
<path fill="none" stroke="#ffffff" d="M265.75,-188.13C318.47,-200.81 343.03,-218.79 387.75,-188.13"/>
<path fill="none" stroke="#ffffff" d="M389.75,-188.13C426.83,-162.71 458.99,-121.28 477.85,-93.87"/>
<polygon fill="#70ae1e" stroke="#ffffff" points="480.66,-95.96 483.34,-85.71 474.85,-92.06 480.66,-95.96"/>
</g>
<!-- exceptiongroup&#45;&gt;starlette -->
<g id="edge17" class="edge">
<title>exceptiongroup&#45;&gt;starlette</title><style>.edge>path:hover{stroke-width:8}</style>
<path fill="none" stroke="#ffffff" d="M159.78,-39.83C175.5,-27.64 198.01,-12.71 220.75,-6.13 298.96,16.49 513.2,-32.94 524.5,-39.13 545.77,-50.78 542.58,-63.79 560.5,-80.13 602.93,-118.83 618.4,-122.57 665,-156.13 668.2,-158.44 671.54,-160.83 674.88,-163.23"/>
<polygon fill="#70ae1e" stroke="#ffffff" points="672.81,-166.05 682.98,-169.02 676.88,-160.35 672.81,-166.05"/>
</g>
<!-- main_py -->
<g id="node18" class="node">
<title>main_py</title><style>.edge>path:hover{stroke-width:8}</style>
<ellipse fill="#356349" stroke="#ffffff" cx="1676.87" cy="-486.13" rx="30.37" ry="18"/>
<text xml:space="preserve" text-anchor="middle" x="1676.87" y="-482.63" font-family="Helvetica,sans-Serif" font-size="10.00" fill="#e0e0e0">main.py</text>
</g>
<!-- fastapi&#45;&gt;main_py -->
<g id="edge18" class="edge">
<title>fastapi&#45;&gt;main_py</title><style>.edge>path:hover{stroke-width:8}</style>
<path fill="none" stroke="#ffffff" d="M1263.74,-380.32C1291.81,-389.58 1336.91,-406.14 1372.5,-427.13 1408.43,-448.33 1405.33,-474.89 1445.5,-486.13"/>
<path fill="none" stroke="#ffffff" d="M1446.5,-486.13C1466.37,-488.4 1463.53,-465.46 1482.5,-459.13 1505.27,-451.54 1513.73,-451.54 1536.5,-459.13 1555.47,-465.46 1552.5,-486.13 1572.5,-486.13"/>
<path fill="none" stroke="#ffffff" d="M1573.5,-486.13C1593.7,-485.28 1616.15,-485.18 1634.88,-485.34"/>
<polygon fill="#5a5a5a" stroke="#ffffff" points="1634.74,-488.84 1644.77,-485.45 1634.82,-481.84 1634.74,-488.84"/>
</g>
<!-- src -->
<g id="node33" class="node">
<title>src</title><style>.edge>path:hover{stroke-width:8}</style>
<polygon fill="#9510f9" stroke="#ffffff" points="1536.5,-504.13 1533.5,-508.13 1512.5,-508.13 1509.5,-504.13 1482.5,-504.13 1482.5,-468.13 1536.5,-468.13 1536.5,-504.13"/>
<text xml:space="preserve" text-anchor="middle" x="1509.5" y="-482.63" font-family="Helvetica,sans-Serif" font-size="10.00" fill="#e0e0e0">src</text>
</g>
<!-- fastapi&#45;&gt;src -->
<g id="edge19" class="edge">
<title>fastapi&#45;&gt;src</title><style>.edge>path:hover{stroke-width:8}</style>
<path fill="none" stroke="#ffffff" d="M1446.5,-486.13C1454.16,-488.28 1462.57,-489.18 1470.65,-489.39"/>
<polygon fill="#5a5a5a" stroke="#ffffff" points="1470.66,-492.89 1480.62,-489.26 1470.57,-485.89 1470.66,-492.89"/>
</g>
<!-- greenlet -->
<g id="node13" class="node">
<title>greenlet</title><style>.edge>path:hover{stroke-width:8}</style>
<polygon fill="#5fcc33" stroke="#ffffff" points="621.75,-642.13 618.75,-646.13 597.75,-646.13 594.75,-642.13 567.75,-642.13 567.75,-606.13 621.75,-606.13 621.75,-642.13"/>
<text xml:space="preserve" text-anchor="middle" x="594.75" y="-620.63" font-family="Helvetica,sans-Serif" font-size="10.00" fill="#e0e0e0">greenlet</text>
</g>
<!-- sqlalchemy -->
<g id="node32" class="node">
<title>sqlalchemy</title><style>.edge>path:hover{stroke-width:8}</style>
<polygon fill="#5a5a5a" stroke="#ffffff" points="948.25,-504.13 945.25,-508.13 924.25,-508.13 921.25,-504.13 882.75,-504.13 882.75,-468.13 948.25,-468.13 948.25,-504.13"/>
<text xml:space="preserve" text-anchor="middle" x="915.5" y="-482.63" font-family="Helvetica,sans-Serif" font-size="10.00" fill="#e0e0e0">sqlalchemy</text>
</g>
<!-- greenlet&#45;&gt;sqlalchemy -->
<g id="edge20" class="edge">
<title>greenlet&#45;&gt;sqlalchemy</title><style>.edge>path:hover{stroke-width:8}</style>
<path fill="none" stroke="#ffffff" d="M622.19,-618.09C669.25,-606.69 769.83,-579.39 846.75,-538.13 860.36,-530.83 874.11,-520.86 885.63,-511.61"/>
<polygon fill="#5fcc33" stroke="#ffffff" points="887.71,-514.43 893.19,-505.37 883.25,-509.04 887.71,-514.43"/>
</g>
<!-- greenlet&#45;&gt;structlog -->
<g id="edge21" class="edge">
<title>greenlet&#45;&gt;structlog</title><style>.edge>path:hover{stroke-width:8}</style>
<path fill="none" stroke="#ffffff" d="M621.81,-640.03C644.23,-652.36 677.92,-667.74 709.88,-670.13"/>
</g>
<!-- h11 -->
<g id="node14" class="node">
<title>h11</title><style>.edge>path:hover{stroke-width:8}</style>
<polygon fill="#419933" stroke="#ffffff" points="523.62,-918.13 520.62,-922.13 499.62,-922.13 496.62,-918.13 469.62,-918.13 469.62,-882.13 523.62,-882.13 523.62,-918.13"/>
<text xml:space="preserve" text-anchor="middle" x="496.62" y="-896.63" font-family="Helvetica,sans-Serif" font-size="10.00" fill="#e0e0e0">h11</text>
</g>
<!-- h11&#45;&gt;uvicorn -->
<g id="edge22" class="edge">
<title>h11&#45;&gt;uvicorn</title><style>.edge>path:hover{stroke-width:8}</style>
<path fill="none" stroke="#ffffff" d="M595.75,-946.13C646.14,-951.96 660.77,-958.83 709.88,-946.13"/>
<path fill="none" stroke="#ffffff" d="M523.9,-918.57C542.44,-930.06 568.39,-943.2 593.75,-946.13"/>
</g>
<!-- httptools -->
<g id="node15" class="node">
<title>httptools</title><style>.edge>path:hover{stroke-width:8}</style>
<polygon fill="#3ab03a" stroke="#ffffff" points="621.75,-918.13 618.75,-922.13 597.75,-922.13 594.75,-918.13 567.75,-918.13 567.75,-882.13 621.75,-882.13 621.75,-918.13"/>
<text xml:space="preserve" text-anchor="middle" x="594.75" y="-896.63" font-family="Helvetica,sans-Serif" font-size="10.00" fill="#e0e0e0">httptools</text>
</g>
<!-- httptools&#45;&gt;uvicorn -->
<g id="edge23" class="edge">
<title>httptools&#45;&gt;uvicorn</title><style>.edge>path:hover{stroke-width:8}</style>
<path fill="none" stroke="#ffffff" d="M711.88,-946.13C732.84,-940.71 739.3,-939.95 756.75,-927.13 791.05,-901.93 776.18,-853.72 818.75,-854.13"/>
<path fill="none" stroke="#ffffff" d="M618.32,-918.6C640.93,-934.83 676.99,-954.63 709.88,-946.13"/>
</g>
<!-- idna -->
<g id="node16" class="node">
<title>idna</title><style>.edge>path:hover{stroke-width:8}</style>
<polygon fill="#5a5a5a" stroke="#ffffff" points="164.38,-206.13 161.38,-210.13 140.38,-210.13 137.38,-206.13 110.38,-206.13 110.38,-170.13 164.38,-170.13 164.38,-206.13"/>
<text xml:space="preserve" text-anchor="middle" x="137.38" y="-184.63" font-family="Helvetica,sans-Serif" font-size="10.00" fill="#e0e0e0">idna</text>
</g>
<!-- idna&#45;&gt;anyio -->
<g id="edge24" class="edge">
<title>idna&#45;&gt;anyio</title><style>.edge>path:hover{stroke-width:8}</style>
<path fill="none" stroke="#ffffff" d="M164.73,-184.6C190.39,-181.98 230.31,-180.09 263.75,-188.13"/>
</g>
<!-- jose&#45;&gt;src -->
<g id="edge25" class="edge">
<title>jose&#45;&gt;src</title><style>.edge>path:hover{stroke-width:8}</style>
<path fill="none" stroke="#ffffff" d="M1364.79,-551.84C1379.28,-538.27 1398.67,-522.41 1408.5,-524.13"/>
</g>
<!-- markdown_it -->
<g id="node19" class="node">
<title>markdown_it</title><style>.edge>path:hover{stroke-width:8}</style>
<polygon fill="#5a5a5a" stroke="#ffffff" points="424.5,-696.13 421.5,-700.13 400.5,-700.13 397.5,-696.13 353,-696.13 353,-660.13 424.5,-660.13 424.5,-696.13"/>
<text xml:space="preserve" text-anchor="middle" x="388.75" y="-674.63" font-family="Helvetica,sans-Serif" font-size="10.00" fill="#e0e0e0">markdown_it</text>
</g>
<!-- markdown_it&#45;&gt;rich -->
<g id="edge26" class="edge">
<title>markdown_it&#45;&gt;rich</title><style>.edge>path:hover{stroke-width:8}</style>
<path fill="none" stroke="#ffffff" d="M421.53,-659.71C425.44,-657.01 429.27,-654.12 432.75,-651.13 465.22,-623.21 453.32,-584.72 495.62,-578.13"/>
</g>
<!-- mdurl -->
<g id="node20" class="node">
<title>mdurl</title><style>.edge>path:hover{stroke-width:8}</style>
<polygon fill="#5a5a5a" stroke="#ffffff" points="54,-696.13 51,-700.13 30,-700.13 27,-696.13 0,-696.13 0,-660.13 54,-660.13 54,-696.13"/>
<text xml:space="preserve" text-anchor="middle" x="27" y="-674.63" font-family="Helvetica,sans-Serif" font-size="10.00" fill="#e0e0e0">mdurl</text>
</g>
<!-- mdurl&#45;&gt;markdown_it -->
<g id="edge27" class="edge">
<title>mdurl&#45;&gt;markdown_it</title><style>.edge>path:hover{stroke-width:8}</style>
<path fill="none" stroke="#ffffff" d="M54.45,-678.13C115.19,-678.13 265.24,-678.13 341.56,-678.13"/>
<polygon fill="#5a5a5a" stroke="#ffffff" points="341.2,-681.63 351.2,-678.13 341.2,-674.63 341.2,-681.63"/>
</g>
<!-- multipart -->
<g id="node21" class="node">
<title>multipart</title><style>.edge>path:hover{stroke-width:8}</style>
<polygon fill="#33ccb6" stroke="#ffffff" points="523.62,-202.13 520.62,-206.13 499.62,-206.13 496.62,-202.13 469.62,-202.13 469.62,-166.13 523.62,-166.13 523.62,-202.13"/>
<text xml:space="preserve" text-anchor="middle" x="496.62" y="-180.63" font-family="Helvetica,sans-Serif" font-size="10.00" fill="#e0e0e0">multipart</text>
</g>
<!-- multipart&#45;&gt;fastapi -->
<g id="edge28" class="edge">
<title>multipart&#45;&gt;fastapi</title><style>.edge>path:hover{stroke-width:8}</style>
<path fill="none" stroke="#ffffff" d="M523.85,-169.96C564.7,-149.86 645.49,-118.04 709.88,-142.13"/>
</g>
<!-- multipart&#45;&gt;starlette -->
<g id="edge29" class="edge">
<title>multipart&#45;&gt;starlette</title><style>.edge>path:hover{stroke-width:8}</style>
<path fill="none" stroke="#ffffff" d="M523.9,-180.17C543.56,-178.15 570.87,-177.36 593.75,-184.13"/>
</g>
<!-- passlib -->
<g id="node22" class="node">
<title>passlib</title><style>.edge>path:hover{stroke-width:8}</style>
<polygon fill="#10f9f9" stroke="#ffffff" points="1372.5,-496.13 1369.5,-500.13 1348.5,-500.13 1345.5,-496.13 1318.5,-496.13 1318.5,-460.13 1372.5,-460.13 1372.5,-496.13"/>
<text xml:space="preserve" text-anchor="middle" x="1345.5" y="-474.63" font-family="Helvetica,sans-Serif" font-size="10.00" fill="#e0e0e0">passlib</text>
</g>
<!-- passlib&#45;&gt;src -->
<g id="edge30" class="edge">
<title>passlib&#45;&gt;src</title><style>.edge>path:hover{stroke-width:8}</style>
<path fill="none" stroke="#ffffff" d="M1362.26,-496.4C1373.69,-507.82 1390.28,-520.93 1408.5,-524.13"/>
</g>
<!-- pyasn1 -->
<g id="node23" class="node">
<title>pyasn1</title><style>.edge>path:hover{stroke-width:8}</style>
<polygon fill="#10d8f9" stroke="#ffffff" points="737.88,-734.13 734.88,-738.13 713.88,-738.13 710.88,-734.13 683.88,-734.13 683.88,-698.13 737.88,-698.13 737.88,-734.13"/>
<text xml:space="preserve" text-anchor="middle" x="710.88" y="-712.63" font-family="Helvetica,sans-Serif" font-size="10.00" fill="#e0e0e0">pyasn1</text>
</g>
<!-- pyasn1&#45;&gt;jose -->
<g id="edge31" class="edge">
<title>pyasn1&#45;&gt;jose</title><style>.edge>path:hover{stroke-width:8}</style>
<path fill="none" stroke="#ffffff" d="M916.5,-781.13C1009.55,-777.68 1033.45,-770.91 1126,-781.13"/>
</g>
<!-- rsa -->
<g id="node30" class="node">
<title>rsa</title><style>.edge>path:hover{stroke-width:8}</style>
<polygon fill="#5a5a5a" stroke="#ffffff" points="1051.12,-753.13 1048.12,-757.13 1027.12,-757.13 1024.12,-753.13 997.12,-753.13 997.12,-717.13 1051.12,-717.13 1051.12,-753.13"/>
<text xml:space="preserve" text-anchor="middle" x="1024.12" y="-731.63" font-family="Helvetica,sans-Serif" font-size="10.00" fill="#e0e0e0">rsa</text>
</g>
<!-- pyasn1&#45;&gt;rsa -->
<g id="edge32" class="edge">
<title>pyasn1&#45;&gt;rsa</title><style>.edge>path:hover{stroke-width:8}</style>
<path fill="none" stroke="#ffffff" d="M738.31,-732.28C776.28,-753.69 848.91,-788 914.5,-781.13"/>
<path fill="none" stroke="#ffffff" d="M916.5,-781.13C941.38,-780.21 967.06,-769.48 986.99,-758.61"/>
<polygon fill="#10d8f9" stroke="#ffffff" points="988.59,-761.72 995.53,-753.72 985.12,-755.65 988.59,-761.72"/>
</g>
<!-- pydantic&#45;&gt;fastapi -->
<g id="edge33" class="edge">
<title>pydantic&#45;&gt;fastapi</title><style>.edge>path:hover{stroke-width:8}</style>
<path fill="none" stroke="#ffffff" d="M942.91,-426.79C978.54,-419.63 1043.99,-406.59 1100,-396.13 1132.88,-389.99 1170.32,-383.37 1197.47,-378.65"/>
<polygon fill="#5a5a5a" stroke="#ffffff" points="1198.05,-382.1 1207.3,-376.94 1196.85,-375.2 1198.05,-382.1"/>
</g>
<!-- pydantic&#45;&gt;pydantic_settings -->
<g id="edge34" class="edge">
<title>pydantic&#45;&gt;pydantic_settings</title><style>.edge>path:hover{stroke-width:8}</style>
<path fill="none" stroke="#ffffff" d="M942.86,-436.56C982.47,-442.89 1059.77,-454.01 1126,-456.13"/>
<path fill="none" stroke="#ffffff" d="M1128,-456.13C1144.62,-457.36 1162.38,-454.96 1178.58,-451.26"/>
<polygon fill="#5a5a5a" stroke="#ffffff" points="1179.19,-454.72 1188.03,-448.89 1177.48,-447.93 1179.19,-454.72"/>
</g>
<!-- pydantic&#45;&gt;src -->
<g id="edge35" class="edge">
<title>pydantic&#45;&gt;src</title><style>.edge>path:hover{stroke-width:8}</style>
<path fill="none" stroke="#ffffff" d="M1128,-456.13C1178.43,-459.87 1184.69,-492.94 1235.25,-494.13"/>
<path fill="none" stroke="#ffffff" d="M1237.25,-494.13C1314.5,-495.96 1331.77,-514.98 1408.5,-524.13"/>
</g>
<!-- pydantic_core -->
<g id="node25" class="node">
<title>pydantic_core</title><style>.edge>path:hover{stroke-width:8}</style>
<polygon fill="#5a5a5a" stroke="#ffffff" points="749.25,-352.13 746.25,-356.13 725.25,-356.13 722.25,-352.13 672.5,-352.13 672.5,-316.13 749.25,-316.13 749.25,-352.13"/>
<text xml:space="preserve" text-anchor="middle" x="710.88" y="-330.63" font-family="Helvetica,sans-Serif" font-size="10.00" fill="#e0e0e0">pydantic_core</text>
</g>
<!-- pydantic_core&#45;&gt;fastapi -->
<g id="edge36" class="edge">
<title>pydantic_core&#45;&gt;fastapi</title><style>.edge>path:hover{stroke-width:8}</style>
<path fill="none" stroke="#ffffff" d="M745.67,-315.67C749.56,-313.01 753.34,-310.14 756.75,-307.13 786.65,-280.68 779.95,-251.54 818.75,-242.13"/>
</g>
<!-- pydantic_core&#45;&gt;pydantic -->
<g id="edge37" class="edge">
<title>pydantic_core&#45;&gt;pydantic</title><style>.edge>path:hover{stroke-width:8}</style>
<path fill="none" stroke="#ffffff" d="M749.69,-343.41C770.95,-349.63 797.42,-359.08 818.75,-372.13"/>
</g>
<!-- pydantic_core&#45;&gt;pydantic_settings -->
<g id="edge38" class="edge">
<title>pydantic_core&#45;&gt;pydantic_settings</title><style>.edge>path:hover{stroke-width:8}</style>
<path fill="none" stroke="#ffffff" d="M749.6,-331.91C770.12,-331.25 795.91,-331.34 818.75,-334.13"/>
</g>
<!-- pydantic_settings&#45;&gt;src -->
<g id="edge39" class="edge">
<title>pydantic_settings&#45;&gt;src</title><style>.edge>path:hover{stroke-width:8}</style>
<path fill="none" stroke="#ffffff" d="M1409.5,-524.13C1431.28,-527.95 1454.41,-519.83 1472.83,-510.12"/>
<polygon fill="#5a5a5a" stroke="#ffffff" points="1474.52,-513.19 1481.5,-505.21 1471.07,-507.09 1474.52,-513.19"/>
<path fill="none" stroke="#ffffff" d="M1282.9,-428.28C1311.17,-428.21 1346.85,-432.58 1372.5,-451.13 1401.81,-472.33 1372.65,-519.27 1408.5,-524.13"/>
</g>
<!-- pygments -->
<g id="node27" class="node">
<title>pygments</title><style>.edge>path:hover{stroke-width:8}</style>
<polygon fill="#5a5a5a" stroke="#ffffff" points="418.12,-642.13 415.12,-646.13 394.12,-646.13 391.12,-642.13 359.38,-642.13 359.38,-606.13 418.12,-606.13 418.12,-642.13"/>
<text xml:space="preserve" text-anchor="middle" x="388.75" y="-620.63" font-family="Helvetica,sans-Serif" font-size="10.00" fill="#e0e0e0">pygments</text>
</g>
<!-- pygments&#45;&gt;rich -->
<g id="edge40" class="edge">
<title>pygments&#45;&gt;rich</title><style>.edge>path:hover{stroke-width:8}</style>
<path fill="none" stroke="#ffffff" d="M418.19,-607.02C438.84,-595.8 467.9,-582.45 495.62,-578.13"/>
</g>
<!-- python_multipart -->
<g id="node28" class="node">
<title>python_multipart</title><style>.edge>path:hover{stroke-width:8}</style>
<polygon fill="#1936e6" stroke="#ffffff" points="432.75,-252.13 429.75,-256.13 408.75,-256.13 405.75,-252.13 344.75,-252.13 344.75,-216.13 432.75,-216.13 432.75,-252.13"/>
<text xml:space="preserve" text-anchor="middle" x="388.75" y="-230.63" font-family="Helvetica,sans-Serif" font-size="10.00" fill="#e0e0e0">python_multipart</text>
</g>
<!-- python_multipart&#45;&gt;fastapi -->
<g id="edge41" class="edge">
<title>python_multipart&#45;&gt;fastapi</title><style>.edge>path:hover{stroke-width:8}</style>
<path fill="none" stroke="#ffffff" d="M595.75,-234.13C667.31,-225.71 687.2,-233.94 756.75,-215.13 785.76,-207.29 788.76,-190.16 818.75,-188.13"/>
</g>
<!-- python_multipart&#45;&gt;multipart -->
<g id="edge42" class="edge">
<title>python_multipart&#45;&gt;multipart</title><style>.edge>path:hover{stroke-width:8}</style>
<path fill="none" stroke="#ffffff" d="M428.87,-215.66C438.74,-211 449.29,-206.01 459.02,-201.42"/>
<polygon fill="#1936e6" stroke="#ffffff" points="460.28,-204.7 467.82,-197.26 457.29,-198.37 460.28,-204.7"/>
</g>
<!-- python_multipart&#45;&gt;starlette -->
<g id="edge43" class="edge">
<title>python_multipart&#45;&gt;starlette</title><style>.edge>path:hover{stroke-width:8}</style>
<path fill="none" stroke="#ffffff" d="M433.25,-236.58C474.63,-238.34 538.59,-239.54 593.75,-234.13"/>
<path fill="none" stroke="#ffffff" d="M595.75,-234.13C623.1,-230.91 651.84,-219.27 673.64,-208.51"/>
<polygon fill="#1936e6" stroke="#ffffff" points="675.09,-211.7 682.4,-204.02 671.9,-205.47 675.09,-211.7"/>
</g>
<!-- rich&#45;&gt;pydantic -->
<g id="edge44" class="edge">
<title>rich&#45;&gt;pydantic</title><style>.edge>path:hover{stroke-width:8}</style>
<path fill="none" stroke="#ffffff" d="M621.93,-567.78C669.88,-562.45 773.59,-546.11 846.75,-500.13 867.28,-487.23 865.47,-476.14 882.75,-459.13 883.02,-458.86 883.29,-458.6 883.57,-458.33"/>
<polygon fill="#5a5a5a" stroke="#ffffff" points="885.84,-461 890.82,-451.64 881.1,-455.85 885.84,-461"/>
</g>
<!-- rich&#45;&gt;structlog -->
<g id="edge45" class="edge">
<title>rich&#45;&gt;structlog</title><style>.edge>path:hover{stroke-width:8}</style>
<path fill="none" stroke="#ffffff" d="M711.88,-670.13C734.77,-671.85 760.49,-671.9 780.97,-671.51"/>
<polygon fill="#5a5a5a" stroke="#ffffff" points="780.93,-675.01 790.84,-671.26 780.76,-668.01 780.93,-675.01"/>
<path fill="none" stroke="#ffffff" d="M618.77,-588.57C622.23,-591.41 625.72,-594.33 629,-597.13 665.78,-628.63 661.59,-666.51 709.88,-670.13"/>
</g>
<!-- rsa&#45;&gt;jose -->
<g id="edge46" class="edge">
<title>rsa&#45;&gt;jose</title><style>.edge>path:hover{stroke-width:8}</style>
<path fill="none" stroke="#ffffff" d="M1051.57,-752.84C1071.16,-764.5 1099.02,-778.15 1126,-781.13"/>
<path fill="none" stroke="#ffffff" d="M1128,-781.13C1175.38,-786.36 1190.66,-797.97 1235.25,-781.13"/>
</g>
<!-- six -->
<g id="node31" class="node">
<title>six</title><style>.edge>path:hover{stroke-width:8}</style>
<polygon fill="#5310f9" stroke="#ffffff" points="942.5,-672.13 939.5,-676.13 918.5,-676.13 915.5,-672.13 888.5,-672.13 888.5,-636.13 942.5,-636.13 942.5,-672.13"/>
<text xml:space="preserve" text-anchor="middle" x="915.5" y="-650.63" font-family="Helvetica,sans-Serif" font-size="10.00" fill="#e0e0e0">six</text>
</g>
<!-- six&#45;&gt;ecdsa -->
<g id="edge47" class="edge">
<title>six&#45;&gt;ecdsa</title><style>.edge>path:hover{stroke-width:8}</style>
<path fill="none" stroke="#ffffff" d="M942.89,-656.4C972.61,-659.3 1022.23,-665.18 1064,-675.13 1072.21,-677.09 1080.87,-679.68 1089.03,-682.36"/>
<polygon fill="#5310f9" stroke="#ffffff" points="1087.74,-685.62 1098.33,-685.55 1090.01,-679 1087.74,-685.62"/>
</g>
<!-- sqlalchemy&#45;&gt;src -->
<g id="edge48" class="edge">
<title>sqlalchemy&#45;&gt;src</title><style>.edge>path:hover{stroke-width:8}</style>
<path fill="none" stroke="#ffffff" d="M948.62,-487.04C1006.1,-488.65 1130.37,-492.03 1235.25,-494.13"/>
</g>
<!-- src&#45;&gt;main_py -->
<g id="edge49" class="edge">
<title>src&#45;&gt;main_py</title><style>.edge>path:hover{stroke-width:8}</style>
<path fill="none" stroke="#ffffff" d="M1536.75,-486.13C1547.79,-486.13 1560.77,-486.13 1572.5,-486.13"/>
</g>
<!-- starlette&#45;&gt;fastapi -->
<g id="edge50" class="edge">
<title>starlette&#45;&gt;fastapi</title><style>.edge>path:hover{stroke-width:8}</style>
<path fill="none" stroke="#ffffff" d="M738.26,-189.12C759.91,-189.69 791.35,-189.98 818.75,-188.13"/>
</g>
<!-- structlog&#45;&gt;main_py -->
<g id="edge51" class="edge">
<title>structlog&#45;&gt;main_py</title><style>.edge>path:hover{stroke-width:8}</style>
<path fill="none" stroke="#ffffff" d="M1128,-827.13C1195.45,-846.32 1221.32,-829.41 1282.5,-795.13 1303.04,-783.62 1548.99,-487.39 1572.5,-486.13"/>
<path fill="none" stroke="#ffffff" d="M846.97,-674.95C858,-676.93 870.99,-679.21 882.75,-681.13 963.13,-694.25 999.82,-657.99 1064,-708.13 1111,-744.84 1068.06,-813 1126,-827.13"/>
</g>
<!-- structlog&#45;&gt;src -->
<g id="edge52" class="edge">
<title>structlog&#45;&gt;src</title><style>.edge>path:hover{stroke-width:8}</style>
<path fill="none" stroke="#ffffff" d="M844.32,-651.74C855.55,-643.52 869.41,-634.14 882.75,-627.13 956.87,-588.2 1151.56,-496.58 1235.25,-494.13"/>
</g>
<!-- tomli -->
<g id="node36" class="node">
<title>tomli</title><style>.edge>path:hover{stroke-width:8}</style>
<polygon fill="#b34cb3" stroke="#ffffff" points="846.75,-306.13 843.75,-310.13 822.75,-310.13 819.75,-306.13 792.75,-306.13 792.75,-270.13 846.75,-270.13 846.75,-306.13"/>
<text xml:space="preserve" text-anchor="middle" x="819.75" y="-284.63" font-family="Helvetica,sans-Serif" font-size="10.00" fill="#e0e0e0">tomli</text>
</g>
<!-- tomli&#45;&gt;pydantic_settings -->
<g id="edge53" class="edge">
<title>tomli&#45;&gt;pydantic_settings</title><style>.edge>path:hover{stroke-width:8}</style>
<path fill="none" stroke="#ffffff" d="M847.23,-287.81C892.92,-288.09 988.91,-292.3 1064,-320.13 1092.58,-330.73 1159.81,-377.46 1201.02,-407.11"/>
<polygon fill="#b34cb3" stroke="#ffffff" points="1198.77,-409.8 1208.92,-412.81 1202.87,-404.12 1198.77,-409.8"/>
</g>
<!-- typing_extensions -->
<g id="node37" class="node">
<title>typing_extensions</title><style>.edge>path:hover{stroke-width:8}</style>
<polygon fill="#f910d8" stroke="#ffffff" points="184.75,-466.13 181.75,-470.13 160.75,-470.13 157.75,-466.13 90,-466.13 90,-430.13 184.75,-430.13 184.75,-466.13"/>
<text xml:space="preserve" text-anchor="middle" x="137.38" y="-444.63" font-family="Helvetica,sans-Serif" font-size="10.00" fill="#e0e0e0">typing_extensions</text>
</g>
<!-- typing_extensions&#45;&gt;annotated_types -->
<g id="edge54" class="edge">
<title>typing_extensions&#45;&gt;annotated_types</title><style>.edge>path:hover{stroke-width:8}</style>
<path fill="none" stroke="#ffffff" d="M185.06,-448.13C192.82,-448.13 200.94,-448.13 208.89,-448.13"/>
<polygon fill="#f910d8" stroke="#ffffff" points="208.83,-451.63 218.83,-448.13 208.83,-444.63 208.83,-451.63"/>
</g>
<!-- typing_extensions&#45;&gt;anyio -->
<g id="edge55" class="edge">
<title>typing_extensions&#45;&gt;anyio</title><style>.edge>path:hover{stroke-width:8}</style>
<path fill="none" stroke="#ffffff" d="M147.45,-429.69C165.18,-395.46 207.65,-321.79 263.75,-280.13"/>
<path fill="none" stroke="#ffffff" d="M265.75,-280.13C304.13,-251.63 304.79,-233.37 344.75,-207.13 362.22,-195.66 370.52,-199.95 387.75,-188.13"/>
</g>
<!-- typing_extensions&#45;&gt;click -->
<g id="edge56" class="edge">
<title>typing_extensions&#45;&gt;click</title><style>.edge>path:hover{stroke-width:8}</style>
<path fill="none" stroke="#ffffff" d="M389.75,-900.13C426.86,-900.13 432.71,-881.95 468.75,-873.13 523.33,-859.77 540.93,-834.94 593.75,-854.13"/>
<path fill="none" stroke="#ffffff" d="M139.61,-466.56C146.37,-551.02 186.34,-897.14 387.75,-900.13"/>
</g>
<!-- typing_extensions&#45;&gt;fastapi -->
<g id="edge57" class="edge">
<title>typing_extensions&#45;&gt;fastapi</title><style>.edge>path:hover{stroke-width:8}</style>
<path fill="none" stroke="#ffffff" d="M711.88,-142.13C732.19,-149.63 736.85,-152.59 756.75,-161.13 784.37,-172.99 788.73,-189.61 818.75,-188.13"/>
<path fill="none" stroke="#ffffff" d="M139.19,-429.95C142.21,-382.58 156.24,-253.56 220.75,-174.13 299.87,-76.72 347.13,-70.09 468.75,-39.13 523.83,-25.11 541.51,-43.74 593.75,-66.13"/>
<path fill="none" stroke="#ffffff" d="M1128,-208.13C1180.24,-237.78 1211.44,-304.55 1225.77,-343.13"/>
<polygon fill="#f910d8" stroke="#ffffff" points="1222.36,-343.99 1229.02,-352.24 1228.96,-341.65 1222.36,-343.99"/>
<path fill="none" stroke="#ffffff" d="M820.75,-188.13C956.54,-181.46 1007.76,-141.02 1126,-208.13"/>
<path fill="none" stroke="#ffffff" d="M595.75,-66.13C610.73,-71.84 615.14,-72.08 629,-80.13 668.16,-102.88 667.39,-126.44 709.88,-142.13"/>
</g>
<!-- typing_extensions&#45;&gt;h11 -->
<g id="edge58" class="edge">
<title>typing_extensions&#45;&gt;h11</title><style>.edge>path:hover{stroke-width:8}</style>
<path fill="none" stroke="#ffffff" d="M389.75,-900.13C412.49,-900.13 437.98,-900.13 458.25,-900.13"/>
<polygon fill="#f910d8" stroke="#ffffff" points="458.01,-903.63 468.01,-900.13 458.01,-896.63 458.01,-903.63"/>
</g>
<!-- typing_extensions&#45;&gt;markdown_it -->
<g id="edge59" class="edge">
<title>typing_extensions&#45;&gt;markdown_it</title><style>.edge>path:hover{stroke-width:8}</style>
<path fill="none" stroke="#ffffff" d="M265.75,-578.13C306.55,-603.05 306.79,-622.07 344.75,-651.13 345.69,-651.85 346.66,-652.58 347.64,-653.3"/>
<polygon fill="#f910d8" stroke="#ffffff" points="345.29,-655.93 355.5,-658.77 349.29,-650.18 345.29,-655.93"/>
</g>
<!-- typing_extensions&#45;&gt;pydantic -->
<g id="edge60" class="edge">
<title>typing_extensions&#45;&gt;pydantic</title><style>.edge>path:hover{stroke-width:8}</style>
<path fill="none" stroke="#ffffff" d="M265.75,-578.13C306.62,-602.93 301.41,-525.3 344.75,-505.13 406.02,-476.61 428.04,-486.13 495.62,-486.13 495.62,-486.13 495.62,-486.13 595.75,-486.13 694.86,-486.13 720.57,-499.71 818.75,-486.13"/>
<path fill="none" stroke="#ffffff" d="M151.24,-466.46C171.84,-494.5 214.93,-547.98 263.75,-578.13"/>
<path fill="none" stroke="#ffffff" d="M820.75,-486.13C843.92,-482.46 866.79,-469.52 884.14,-457.23"/>
<polygon fill="#f910d8" stroke="#ffffff" points="886.02,-460.2 891.97,-451.43 881.85,-454.57 886.02,-460.2"/>
</g>
<!-- typing_extensions&#45;&gt;pydantic_core -->
<g id="edge61" class="edge">
<title>typing_extensions&#45;&gt;pydantic_core</title><style>.edge>path:hover{stroke-width:8}</style>
<path fill="none" stroke="#ffffff" d="M595.75,-280.13C610.99,-279.3 643.4,-295.34 669.8,-310.15"/>
<polygon fill="#f910d8" stroke="#ffffff" points="667.85,-313.07 678.27,-314.98 671.32,-306.99 667.85,-313.07"/>
</g>
<!-- typing_extensions&#45;&gt;rich -->
<g id="edge62" class="edge">
<title>typing_extensions&#45;&gt;rich</title><style>.edge>path:hover{stroke-width:8}</style>
<path fill="none" stroke="#ffffff" d="M265.75,-578.13C309.34,-604.76 445.15,-585.99 495.62,-578.13"/>
</g>
<!-- typing_extensions&#45;&gt;sqlalchemy -->
<g id="edge63" class="edge">
<title>typing_extensions&#45;&gt;sqlalchemy</title><style>.edge>path:hover{stroke-width:8}</style>
<path fill="none" stroke="#ffffff" d="M820.75,-486.13C837.18,-483.53 855.43,-483 871.43,-483.31"/>
<polygon fill="#f910d8" stroke="#ffffff" points="871.01,-486.8 881.11,-483.62 871.23,-479.8 871.01,-486.8"/>
</g>
<!-- typing_extensions&#45;&gt;starlette -->
<g id="edge64" class="edge">
<title>typing_extensions&#45;&gt;starlette</title><style>.edge>path:hover{stroke-width:8}</style>
<path fill="none" stroke="#ffffff" d="M265.75,-280.13C324.27,-236.68 520.97,-284.09 593.75,-280.13"/>
<path fill="none" stroke="#ffffff" d="M595.75,-280.13C637,-279.4 671.76,-242.71 691.72,-215.89"/>
<polygon fill="#f910d8" stroke="#ffffff" points="694.55,-217.95 697.51,-207.77 688.85,-213.88 694.55,-217.95"/>
</g>
<!-- typing_extensions&#45;&gt;structlog -->
<g id="edge65" class="edge">
<title>typing_extensions&#45;&gt;structlog</title><style>.edge>path:hover{stroke-width:8}</style>
<path fill="none" stroke="#ffffff" d="M265.75,-578.13C322.12,-613.36 286.64,-672.85 344.75,-705.13 378.94,-724.13 393.77,-708.31 432.75,-705.13 556.48,-695.03 586.56,-655.79 709.88,-670.13"/>
</g>
<!-- typing_inspection -->
<g id="node38" class="node">
<title>typing_inspection</title><style>.edge>path:hover{stroke-width:8}</style>
<polygon fill="#f910b7" stroke="#ffffff" points="756.75,-298.13 753.75,-302.13 732.75,-302.13 729.75,-298.13 665,-298.13 665,-262.13 756.75,-262.13 756.75,-298.13"/>
<text xml:space="preserve" text-anchor="middle" x="710.88" y="-276.63" font-family="Helvetica,sans-Serif" font-size="10.00" fill="#e0e0e0">typing_inspection</text>
</g>
<!-- typing_extensions&#45;&gt;typing_inspection -->
<g id="edge66" class="edge">
<title>typing_extensions&#45;&gt;typing_inspection</title><style>.edge>path:hover{stroke-width:8}</style>
<path fill="none" stroke="#ffffff" d="M595.75,-280.13C614.42,-279.12 634.84,-278.85 653.17,-278.92"/>
<polygon fill="#f910d8" stroke="#ffffff" points="653.04,-282.42 663.07,-278.99 653.09,-275.42 653.04,-282.42"/>
</g>
<!-- typing_extensions&#45;&gt;uvicorn -->
<g id="edge67" class="edge">
<title>typing_extensions&#45;&gt;uvicorn</title><style>.edge>path:hover{stroke-width:8}</style>
<path fill="none" stroke="#ffffff" d="M389.75,-900.13C425.56,-909.87 432.71,-918.31 468.75,-927.13 523.33,-940.49 537.93,-939.68 593.75,-946.13"/>
</g>
<!-- typing_inspection&#45;&gt;fastapi -->
<g id="edge68" class="edge">
<title>typing_inspection&#45;&gt;fastapi</title><style>.edge>path:hover{stroke-width:8}</style>
<path fill="none" stroke="#ffffff" d="M820.75,-242.13C925.86,-216.65 958.44,-258.71 1064,-235.13 1093.33,-228.58 1099.5,-193.94 1126,-208.13"/>
<path fill="none" stroke="#ffffff" d="M757.1,-263.12C776.03,-256.24 798.34,-248.45 818.75,-242.13"/>
</g>
<!-- typing_inspection&#45;&gt;pydantic -->
<g id="edge69" class="edge">
<title>typing_inspection&#45;&gt;pydantic</title><style>.edge>path:hover{stroke-width:8}</style>
<path fill="none" stroke="#ffffff" d="M820.75,-372.13C840.08,-383.96 861.38,-397.54 878.78,-408.79"/>
<polygon fill="#f910b7" stroke="#ffffff" points="876.45,-411.45 886.74,-413.95 880.25,-405.57 876.45,-411.45"/>
<path fill="none" stroke="#ffffff" d="M745.04,-298.47C749.12,-301.19 753.12,-304.1 756.75,-307.13 787.39,-332.73 784.69,-351.3 818.75,-372.13"/>
</g>
<!-- typing_inspection&#45;&gt;pydantic_settings -->
<g id="edge70" class="edge">
<title>typing_inspection&#45;&gt;pydantic_settings</title><style>.edge>path:hover{stroke-width:8}</style>
<path fill="none" stroke="#ffffff" d="M742.44,-298.53C768.1,-313.41 803.02,-332.21 818.75,-334.13"/>
<path fill="none" stroke="#ffffff" d="M1128,-410.13C1144.27,-414.74 1162.18,-418.81 1178.64,-422.15"/>
<polygon fill="#f910b7" stroke="#ffffff" points="1177.78,-425.55 1188.27,-424.05 1179.13,-418.68 1177.78,-425.55"/>
<path fill="none" stroke="#ffffff" d="M820.75,-334.13C959.53,-351.08 991.49,-372 1126,-410.13"/>
</g>
<!-- uvicorn&#45;&gt;main_py -->
<g id="edge71" class="edge">
<title>uvicorn&#45;&gt;main_py</title><style>.edge>path:hover{stroke-width:8}</style>
<path fill="none" stroke="#ffffff" d="M1051.37,-823.26C1072.05,-821.12 1101.41,-820.14 1126,-827.13"/>
</g>
<!-- watchfiles&#45;&gt;uvicorn -->
<g id="edge72" class="edge">
<title>watchfiles&#45;&gt;uvicorn</title><style>.edge>path:hover{stroke-width:8}</style>
<path fill="none" stroke="#ffffff" d="M738.21,-826.58C759.06,-839.37 789.46,-854.13 818.75,-854.13"/>
</g>
<!-- websockets -->
<g id="node41" class="node">
<title>websockets</title><style>.edge>path:hover{stroke-width:8}</style>
<polygon fill="#5a5a5a" stroke="#ffffff" points="629,-826.13 626,-830.13 605,-830.13 602,-826.13 560.5,-826.13 560.5,-790.13 629,-790.13 629,-826.13"/>
<text xml:space="preserve" text-anchor="middle" x="594.75" y="-804.63" font-family="Helvetica,sans-Serif" font-size="10.00" fill="#e0e0e0">websockets</text>
</g>
<!-- websockets&#45;&gt;uvicorn -->
<g id="edge73" class="edge">
<title>websockets&#45;&gt;uvicorn</title><style>.edge>path:hover{stroke-width:8}</style>
<path fill="none" stroke="#ffffff" d="M629.37,-823.17C640.51,-827.64 653.11,-832.13 665,-835.13 731.76,-851.99 749.9,-854.13 818.75,-854.13"/>
</g>
<!-- yaml -->
<g id="node42" class="node">
<title>yaml</title><style>.edge>path:hover{stroke-width:8}</style>
<polygon fill="#5a5a5a" stroke="#ffffff" points="846.75,-746.13 843.75,-750.13 822.75,-750.13 819.75,-746.13 792.75,-746.13 792.75,-710.13 846.75,-710.13 846.75,-746.13"/>
<text xml:space="preserve" text-anchor="middle" x="819.75" y="-724.63" font-family="Helvetica,sans-Serif" font-size="10.00" fill="#e0e0e0">yaml</text>
</g>
<!-- yaml&#45;&gt;pydantic_settings -->
<g id="edge74" class="edge">
<title>yaml&#45;&gt;pydantic_settings</title><style>.edge>path:hover{stroke-width:8}</style>
<path fill="none" stroke="#ffffff" d="M837.4,-709.64C840.67,-705.64 843.95,-701.34 846.75,-697.13 866.11,-667.99 858.39,-652.24 882.75,-627.13 928.8,-579.67 1099.17,-495.92 1185.06,-455.39"/>
<polygon fill="#5a5a5a" stroke="#ffffff" points="1186.42,-458.62 1193.98,-451.2 1183.45,-452.28 1186.42,-458.62"/>
</g>
<!-- yaml&#45;&gt;uvicorn -->
<g id="edge75" class="edge">
<title>yaml&#45;&gt;uvicorn</title><style>.edge>path:hover{stroke-width:8}</style>
<path fill="none" stroke="#ffffff" d="M846.78,-733.06C873.37,-738.78 915.3,-749.72 948.25,-767.13 965.53,-776.26 982.69,-789.62 996.22,-801.42"/>
<polygon fill="#5a5a5a" stroke="#ffffff" points="993.64,-803.81 1003.42,-807.88 998.31,-798.6 993.64,-803.81"/>
</g>
</g>
</svg>

