<?xml version="1.0" encoding="UTF-8" standalone="no"?>
<!DOCTYPE svg PUBLIC "-//W3C//DTD SVG 1.1//EN"
 "http://www.w3.org/Graphics/SVG/1.1/DTD/svg11.dtd">
<!-- Generated by graphviz version 15.0.0 (20260523.1842)
 -->
<!-- Title: G Pages: 1 -->
<svg style="background-color:#141414" width="852pt" height="664pt"
 viewBox="0.00 0.00 852.00 664.00" xmlns="http://www.w3.org/2000/svg" xmlns:xlink="http://www.w3.org/1999/xlink">
<g id="graph0" class="graph" transform="scale(1 1) rotate(0) translate(4 659.6)">
<title>G</title><style>.edge>path:hover{stroke-width:8}</style>
<polygon fill="#141414" stroke="none" points="-4,4 -4,-659.6 847.85,-659.6 847.85,4 -4,4"/>
<!-- fastapi -->
<g id="node1" class="node">
<title>fastapi</title><style>.edge>path:hover{stroke-width:8}</style>
<ellipse fill="#c24747" stroke="#ffffff" cx="269.77" cy="-282" rx="27.21" ry="18"/>
<text xml:space="preserve" text-anchor="middle" x="269.77" y="-278.5" font-family="Helvetica,sans-Serif" font-size="10.00" fill="#e0e0e0">fastapi</text>
</g>
<!-- src_main -->
<g id="node13" class="node">
<title>src_main</title><style>.edge>path:hover{stroke-width:8}</style>
<ellipse fill="#3d6c8f" stroke="#ffffff" cx="534.27" cy="-330" rx="32.17" ry="18"/>
<text xml:space="preserve" text-anchor="middle" x="534.27" y="-326.5" font-family="Helvetica,sans-Serif" font-size="10.00" fill="#e0e0e0">src.main</text>
</g>
<!-- fastapi&#45;&gt;src_main -->
<g id="edge1" class="edge">
<title>fastapi&#45;&gt;src_main</title><style>.edge>path:hover{stroke-width:8}</style>
<path fill="none" stroke="#ffffff" d="M296.42,-286.69C341.94,-295.01 437.23,-312.44 492.06,-322.46"/>
<polygon fill="#c24747" stroke="#ffffff" points="491.15,-325.86 501.62,-324.21 492.41,-318.97 491.15,-325.86"/>
</g>
<!-- tests_conftest -->
<g id="node15" class="node">
<title>tests_conftest</title><style>.edge>path:hover{stroke-width:8}</style>
<ellipse fill="#6b2e62" stroke="#ffffff" cx="798.15" cy="-159" rx="45.7" ry="18"/>
<text xml:space="preserve" text-anchor="middle" x="798.15" y="-155.5" font-family="Helvetica,sans-Serif" font-size="10.00" fill="#e0e0e0">tests.conftest</text>
</g>
<!-- fastapi&#45;&gt;tests_conftest -->
<g id="edge2" class="edge">
<title>fastapi&#45;&gt;tests_conftest</title><style>.edge>path:hover{stroke-width:8}</style>
<path fill="none" stroke="#ffffff" d="M288.14,-268.63C293.71,-264.31 299.87,-259.48 305.48,-255 345.36,-223.1 343.43,-187.4 394.22,-182"/>
</g>
<!-- fastapi_testclient -->
<g id="node2" class="node">
<title>fastapi_testclient</title><style>.edge>path:hover{stroke-width:8}</style>
<ellipse fill="#b65353" stroke="#ffffff" cx="534.27" cy="-233" rx="39.42" ry="22.63"/>
<text xml:space="preserve" text-anchor="middle" x="534.27" y="-235.5" font-family="Helvetica,sans-Serif" font-size="10.00" fill="#e0e0e0">fastapi.</text>
<text xml:space="preserve" text-anchor="middle" x="534.27" y="-223.5" font-family="Helvetica,sans-Serif" font-size="10.00" fill="#e0e0e0">testclient</text>
</g>
<!-- fastapi_testclient&#45;&gt;tests_conftest -->
<g id="edge3" class="edge">
<title>fastapi_testclient&#45;&gt;tests_conftest</title><style>.edge>path:hover{stroke-width:8}</style>
<path fill="none" stroke="#ffffff" d="M563.2,-217.16C589.14,-203.69 629.33,-185.93 667.01,-182"/>
</g>
<!-- pytest -->
<g id="node3" class="node">
<title>pytest</title><style>.edge>path:hover{stroke-width:8}</style>
<ellipse fill="#c2b147" stroke="#ffffff" cx="269.77" cy="-228" rx="27" ry="18"/>
<text xml:space="preserve" text-anchor="middle" x="269.77" y="-224.5" font-family="Helvetica,sans-Serif" font-size="10.00" fill="#e0e0e0">pytest</text>
</g>
<!-- pytest&#45;&gt;tests_conftest -->
<g id="edge4" class="edge">
<title>pytest&#45;&gt;tests_conftest</title><style>.edge>path:hover{stroke-width:8}</style>
<path fill="none" stroke="#ffffff" d="M291.39,-216.65C315.28,-204.39 356.24,-186.04 394.22,-182"/>
</g>
<!-- tests_helpers_test_logging -->
<g id="node17" class="node">
<title>tests_helpers_test_logging</title><style>.edge>path:hover{stroke-width:8}</style>
<ellipse fill="#96408a" stroke="#ffffff" cx="668.01" cy="-363" rx="48.44" ry="31.11"/>
<text xml:space="preserve" text-anchor="middle" x="668.01" y="-371.5" font-family="Helvetica,sans-Serif" font-size="10.00" fill="#e0e0e0">tests.</text>
<text xml:space="preserve" text-anchor="middle" x="668.01" y="-359.5" font-family="Helvetica,sans-Serif" font-size="10.00" fill="#e0e0e0">helpers.</text>
<text xml:space="preserve" text-anchor="middle" x="668.01" y="-347.5" font-family="Helvetica,sans-Serif" font-size="10.00" fill="#e0e0e0">test_logging</text>
</g>
<!-- pytest&#45;&gt;tests_helpers_test_logging -->
<g id="edge5" class="edge">
<title>pytest&#45;&gt;tests_helpers_test_logging</title><style>.edge>path:hover{stroke-width:8}</style>
<path fill="none" stroke="#ffffff" d="M296.22,-232.94C343.22,-242.17 446.78,-263.01 533.27,-284"/>
<path fill="none" stroke="#ffffff" d="M535.27,-284C557.69,-289.46 563.32,-291.96 583.58,-303 598.85,-311.33 614.59,-322.01 628.23,-332.06"/>
<polygon fill="#c2b147" stroke="#ffffff" points="626,-334.75 636.1,-337.96 630.2,-329.16 626,-334.75"/>
</g>
<!-- pytest_asyncio -->
<g id="node4" class="node">
<title>pytest_asyncio</title><style>.edge>path:hover{stroke-width:8}</style>
<ellipse fill="#70b653" stroke="#ffffff" cx="534.27" cy="-18" rx="49.31" ry="18"/>
<text xml:space="preserve" text-anchor="middle" x="534.27" y="-14.5" font-family="Helvetica,sans-Serif" font-size="10.00" fill="#e0e0e0">pytest_asyncio</text>
</g>
<!-- pytest_asyncio&#45;&gt;tests_conftest -->
<g id="edge6" class="edge">
<title>pytest_asyncio&#45;&gt;tests_conftest</title><style>.edge>path:hover{stroke-width:8}</style>
<path fill="none" stroke="#ffffff" d="M565.51,-32.17C601.84,-49.42 664.38,-79.87 716.45,-109 732.35,-117.89 749.55,-128.42 763.98,-137.52"/>
<polygon fill="#70b653" stroke="#ffffff" points="761.88,-140.33 772.2,-142.74 765.63,-134.43 761.88,-140.33"/>
</g>
<!-- sqlalchemy -->
<g id="node5" class="node">
<title>sqlalchemy</title><style>.edge>path:hover{stroke-width:8}</style>
<ellipse fill="#26d98c" stroke="#ffffff" cx="149.2" cy="-198" rx="39.39" ry="18"/>
<text xml:space="preserve" text-anchor="middle" x="149.2" y="-194.5" font-family="Helvetica,sans-Serif" font-size="10.00" fill="#e0e0e0">sqlalchemy</text>
</g>
<!-- sqlalchemy&#45;&gt;tests_conftest -->
<g id="edge7" class="edge">
<title>sqlalchemy&#45;&gt;tests_conftest</title><style>.edge>path:hover{stroke-width:8}</style>
<path fill="none" stroke="#ffffff" d="M270.77,-182C325.09,-174.28 339.66,-187.78 394.22,-182"/>
</g>
<!-- tests_utils_db_config -->
<g id="node19" class="node">
<title>tests_utils_db_config</title><style>.edge>path:hover{stroke-width:8}</style>
<ellipse fill="#b03a9f" stroke="#ffffff" cx="534.27" cy="-123" rx="41.01" ry="31.11"/>
<text xml:space="preserve" text-anchor="middle" x="534.27" y="-131.5" font-family="Helvetica,sans-Serif" font-size="10.00" fill="#e0e0e0">tests.</text>
<text xml:space="preserve" text-anchor="middle" x="534.27" y="-119.5" font-family="Helvetica,sans-Serif" font-size="10.00" fill="#e0e0e0">utils.</text>
<text xml:space="preserve" text-anchor="middle" x="534.27" y="-107.5" font-family="Helvetica,sans-Serif" font-size="10.00" fill="#e0e0e0">db_config</text>
</g>
<!-- sqlalchemy&#45;&gt;tests_utils_db_config -->
<g id="edge8" class="edge">
<title>sqlalchemy&#45;&gt;tests_utils_db_config</title><style>.edge>path:hover{stroke-width:8}</style>
<path fill="none" stroke="#ffffff" d="M187.6,-193.09C210.95,-189.99 241.62,-185.86 268.77,-182"/>
<path fill="none" stroke="#ffffff" d="M270.77,-182C327.61,-173.93 337.46,-152.58 394.22,-144"/>
</g>
<!-- sqlalchemy_ext -->
<g id="node6" class="node">
<title>sqlalchemy_ext</title><style>.edge>path:hover{stroke-width:8}</style>
<ellipse fill="#40c089" stroke="#ffffff" cx="149.2" cy="-144" rx="48.86" ry="18"/>
<text xml:space="preserve" text-anchor="middle" x="149.2" y="-140.5" font-family="Helvetica,sans-Serif" font-size="10.00" fill="#e0e0e0">sqlalchemy.ext</text>
</g>
<!-- sqlalchemy_ext&#45;&gt;tests_conftest -->
<g id="edge9" class="edge">
<title>sqlalchemy_ext&#45;&gt;tests_conftest</title><style>.edge>path:hover{stroke-width:8}</style>
<path fill="none" stroke="#ffffff" d="M270.77,-144C328.01,-148.31 337.13,-188.07 394.22,-182"/>
<path fill="none" stroke="#ffffff" d="M396.22,-182C515.9,-169.27 547.31,-194.48 667.01,-182"/>
</g>
<!-- sqlalchemy_ext&#45;&gt;tests_utils_db_config -->
<g id="edge10" class="edge">
<title>sqlalchemy_ext&#45;&gt;tests_utils_db_config</title><style>.edge>path:hover{stroke-width:8}</style>
<path fill="none" stroke="#ffffff" d="M396.22,-144C424.83,-139.67 456.79,-134.78 482.65,-130.8"/>
<polygon fill="#40c089" stroke="#ffffff" points="482.84,-134.32 492.2,-129.34 481.78,-127.4 482.84,-134.32"/>
<path fill="none" stroke="#ffffff" d="M270.77,-144C325.48,-148.12 339.97,-152.2 394.22,-144"/>
<path fill="none" stroke="#ffffff" d="M198.15,-142.37C219.75,-142.05 245.57,-142.25 268.77,-144"/>
</g>
<!-- sqlalchemy_ext_asyncio -->
<g id="node7" class="node">
<title>sqlalchemy_ext_asyncio</title><style>.edge>path:hover{stroke-width:8}</style>
<ellipse fill="#47c28d" stroke="#ffffff" cx="149.2" cy="-77" rx="47.91" ry="31.11"/>
<text xml:space="preserve" text-anchor="middle" x="149.2" y="-85.5" font-family="Helvetica,sans-Serif" font-size="10.00" fill="#e0e0e0">sqlalchemy.</text>
<text xml:space="preserve" text-anchor="middle" x="149.2" y="-73.5" font-family="Helvetica,sans-Serif" font-size="10.00" fill="#e0e0e0">ext.</text>
<text xml:space="preserve" text-anchor="middle" x="149.2" y="-61.5" font-family="Helvetica,sans-Serif" font-size="10.00" fill="#e0e0e0">asyncio</text>
</g>
<!-- sqlalchemy_ext_asyncio&#45;&gt;tests_conftest -->
<g id="edge11" class="edge">
<title>sqlalchemy_ext_asyncio&#45;&gt;tests_conftest</title><style>.edge>path:hover{stroke-width:8}</style>
<path fill="none" stroke="#ffffff" d="M396.22,-106C480.03,-102.24 513.13,-37.45 583.58,-83 616.32,-104.17 591.44,-136.01 619.58,-163 635.97,-178.72 644.43,-184.36 667.01,-182"/>
<path fill="none" stroke="#ffffff" d="M669.01,-182C694.59,-179.12 722.76,-174.25 746.17,-169.73"/>
<polygon fill="#47c28d" stroke="#ffffff" points="746.62,-173.21 755.75,-167.85 745.27,-166.34 746.62,-173.21"/>
<path fill="none" stroke="#ffffff" d="M195.44,-86.31C244.29,-95.45 324.49,-107.76 394.22,-106"/>
</g>
<!-- sqlalchemy_ext_asyncio&#45;&gt;tests_utils_db_config -->
<g id="edge12" class="edge">
<title>sqlalchemy_ext_asyncio&#45;&gt;tests_utils_db_config</title><style>.edge>path:hover{stroke-width:8}</style>
<path fill="none" stroke="#ffffff" d="M396.22,-106C425.22,-104.7 457.45,-108.43 483.36,-112.73"/>
<polygon fill="#47c28d" stroke="#ffffff" points="482.47,-116.13 492.93,-114.4 483.68,-109.23 482.47,-116.13"/>
</g>
<!-- src -->
<g id="node8" class="node">
<title>src</title><style>.edge>path:hover{stroke-width:8}</style>
<ellipse fill="#1694f3" stroke="#ffffff" cx="269.77" cy="-418" rx="27" ry="18"/>
<text xml:space="preserve" text-anchor="middle" x="269.77" y="-414.5" font-family="Helvetica,sans-Serif" font-size="10.00" fill="#e0e0e0">src</text>
</g>
<!-- src&#45;&gt;tests_conftest -->
<g id="edge13" class="edge">
<title>src&#45;&gt;tests_conftest</title><style>.edge>path:hover{stroke-width:8}</style>
<path fill="none" stroke="#ffffff" d="M535.27,-460C593.18,-451.33 613.76,-484.35 667.01,-460"/>
<path fill="none" stroke="#ffffff" d="M669.01,-460C772.58,-412.64 792.52,-254.8 796.3,-188.61"/>
<polygon fill="#1694f3" stroke="#ffffff" points="799.78,-189.03 796.76,-178.88 792.79,-188.7 799.78,-189.03"/>
</g>
<!-- tests_helpers_config_test_config -->
<g id="node16" class="node">
<title>tests_helpers_config_test_config</title><style>.edge>path:hover{stroke-width:8}</style>
<ellipse fill="#9d4390" stroke="#ffffff" cx="798.15" cy="-460" rx="45.25" ry="39.6"/>
<text xml:space="preserve" text-anchor="middle" x="798.15" y="-474.5" font-family="Helvetica,sans-Serif" font-size="10.00" fill="#e0e0e0">tests.</text>
<text xml:space="preserve" text-anchor="middle" x="798.15" y="-462.5" font-family="Helvetica,sans-Serif" font-size="10.00" fill="#e0e0e0">helpers.</text>
<text xml:space="preserve" text-anchor="middle" x="798.15" y="-450.5" font-family="Helvetica,sans-Serif" font-size="10.00" fill="#e0e0e0">config.</text>
<text xml:space="preserve" text-anchor="middle" x="798.15" y="-438.5" font-family="Helvetica,sans-Serif" font-size="10.00" fill="#e0e0e0">test_config</text>
</g>
<!-- src&#45;&gt;tests_helpers_config_test_config -->
<g id="edge14" class="edge">
<title>src&#45;&gt;tests_helpers_config_test_config</title><style>.edge>path:hover{stroke-width:8}</style>
<path fill="none" stroke="#ffffff" d="M669.01,-460C691.62,-449.66 718.9,-448.35 742.46,-450.15"/>
<polygon fill="#1694f3" stroke="#ffffff" points="741.9,-453.61 752.19,-451.11 742.59,-446.65 741.9,-453.61"/>
</g>
<!-- src&#45;&gt;tests_helpers_test_logging -->
<g id="edge15" class="edge">
<title>src&#45;&gt;tests_helpers_test_logging</title><style>.edge>path:hover{stroke-width:8}</style>
<path fill="none" stroke="#ffffff" d="M535.27,-460C575.48,-452.93 612.07,-423.22 636.43,-398.52"/>
<polygon fill="#1694f3" stroke="#ffffff" points="638.79,-401.12 643.17,-391.47 633.73,-396.28 638.79,-401.12"/>
<path fill="none" stroke="#ffffff" d="M293.63,-426.8C339.26,-443.22 444.86,-475.54 533.27,-460"/>
</g>
<!-- src_helpers -->
<g id="node9" class="node">
<title>src_helpers</title><style>.edge>path:hover{stroke-width:8}</style>
<ellipse fill="#2293e7" stroke="#ffffff" cx="395.22" cy="-414" rx="38.49" ry="18"/>
<text xml:space="preserve" text-anchor="middle" x="395.22" y="-410.5" font-family="Helvetica,sans-Serif" font-size="10.00" fill="#e0e0e0">src.helpers</text>
</g>
<!-- src_helpers&#45;&gt;src_main -->
<g id="edge16" class="edge">
<title>src_helpers&#45;&gt;src_main</title><style>.edge>path:hover{stroke-width:8}</style>
<path fill="none" stroke="#ffffff" d="M419.87,-399.7C428.97,-394.18 439.46,-387.81 448.96,-382 466.7,-371.15 486.48,-358.95 502.43,-349.09"/>
<polygon fill="#2293e7" stroke="#ffffff" points="503.86,-352.33 510.52,-344.09 500.18,-346.37 503.86,-352.33"/>
</g>
<!-- src_helpers&#45;&gt;tests_helpers_config_test_config -->
<g id="edge17" class="edge">
<title>src_helpers&#45;&gt;tests_helpers_config_test_config</title><style>.edge>path:hover{stroke-width:8}</style>
<path fill="none" stroke="#ffffff" d="M535.27,-422C607.8,-416.2 690.82,-432.12 743.59,-445.11"/>
<polygon fill="#2293e7" stroke="#ffffff" points="742.68,-448.49 753.24,-447.54 744.4,-441.7 742.68,-448.49"/>
</g>
<!-- src_helpers&#45;&gt;tests_helpers_test_logging -->
<g id="edge18" class="edge">
<title>src_helpers&#45;&gt;tests_helpers_test_logging</title><style>.edge>path:hover{stroke-width:8}</style>
<path fill="none" stroke="#ffffff" d="M432.61,-418.86C460.24,-421.88 499.18,-424.73 533.27,-422"/>
<path fill="none" stroke="#ffffff" d="M535.27,-422C566.78,-419.48 599.22,-405.12 624.02,-391.2"/>
<polygon fill="#2293e7" stroke="#ffffff" points="625.62,-394.32 632.51,-386.27 622.11,-388.27 625.62,-394.32"/>
</g>
<!-- src_helpers_config -->
<g id="node10" class="node">
<title>src_helpers_config</title><style>.edge>path:hover{stroke-width:8}</style>
<ellipse fill="#2f91db" stroke="#ffffff" cx="269.77" cy="-485" rx="35.71" ry="31.11"/>
<text xml:space="preserve" text-anchor="middle" x="269.77" y="-493.5" font-family="Helvetica,sans-Serif" font-size="10.00" fill="#e0e0e0">src.</text>
<text xml:space="preserve" text-anchor="middle" x="269.77" y="-481.5" font-family="Helvetica,sans-Serif" font-size="10.00" fill="#e0e0e0">helpers.</text>
<text xml:space="preserve" text-anchor="middle" x="269.77" y="-469.5" font-family="Helvetica,sans-Serif" font-size="10.00" fill="#e0e0e0">config</text>
</g>
<!-- src_helpers_logging_setup -->
<g id="node12" class="node">
<title>src_helpers_logging_setup</title><style>.edge>path:hover{stroke-width:8}</style>
<ellipse fill="#407196" stroke="#ffffff" cx="395.22" cy="-557" rx="53.74" ry="31.11"/>
<text xml:space="preserve" text-anchor="middle" x="395.22" y="-565.5" font-family="Helvetica,sans-Serif" font-size="10.00" fill="#e0e0e0">src.</text>
<text xml:space="preserve" text-anchor="middle" x="395.22" y="-553.5" font-family="Helvetica,sans-Serif" font-size="10.00" fill="#e0e0e0">helpers.</text>
<text xml:space="preserve" text-anchor="middle" x="395.22" y="-541.5" font-family="Helvetica,sans-Serif" font-size="10.00" fill="#e0e0e0">logging_setup</text>
</g>
<!-- src_helpers_config&#45;&gt;src_helpers_logging_setup -->
<g id="edge19" class="edge">
<title>src_helpers_config&#45;&gt;src_helpers_logging_setup</title><style>.edge>path:hover{stroke-width:8}</style>
<path fill="none" stroke="#ffffff" d="M300.03,-502.06C314.08,-510.26 331.27,-520.29 347.1,-529.52"/>
<polygon fill="#2f91db" stroke="#ffffff" points="345.03,-532.37 355.44,-534.38 348.56,-526.32 345.03,-532.37"/>
</g>
<!-- src_helpers_config&#45;&gt;src_main -->
<g id="edge20" class="edge">
<title>src_helpers_config&#45;&gt;src_main</title><style>.edge>path:hover{stroke-width:8}</style>
<path fill="none" stroke="#ffffff" d="M292.7,-460.97C297.09,-455.82 301.55,-450.33 305.48,-445 323.48,-420.58 317.9,-406.09 341.48,-387 360.84,-371.32 370.83,-376.58 394.22,-368"/>
</g>
<!-- src_helpers_config&#45;&gt;tests_helpers_config_test_config -->
<g id="edge21" class="edge">
<title>src_helpers_config&#45;&gt;tests_helpers_config_test_config</title><style>.edge>path:hover{stroke-width:8}</style>
<path fill="none" stroke="#ffffff" d="M535.27,-616C627.13,-634.68 717.25,-552.82 764.06,-500.61"/>
<polygon fill="#2f91db" stroke="#ffffff" points="766.49,-503.14 770.47,-493.32 761.24,-498.52 766.49,-503.14"/>
<path fill="none" stroke="#ffffff" d="M305.95,-484.48C343.71,-485.41 404.27,-491.32 448.96,-517 499.07,-545.79 475.58,-612.44 533.27,-616"/>
</g>
<!-- src_helpers_config_config -->
<g id="node11" class="node">
<title>src_helpers_config_config</title><style>.edge>path:hover{stroke-width:8}</style>
<ellipse fill="#2f7fbc" stroke="#ffffff" cx="149.2" cy="-616" rx="35.71" ry="39.6"/>
<text xml:space="preserve" text-anchor="middle" x="149.2" y="-630.5" font-family="Helvetica,sans-Serif" font-size="10.00" fill="#e0e0e0">src.</text>
<text xml:space="preserve" text-anchor="middle" x="149.2" y="-618.5" font-family="Helvetica,sans-Serif" font-size="10.00" fill="#e0e0e0">helpers.</text>
<text xml:space="preserve" text-anchor="middle" x="149.2" y="-606.5" font-family="Helvetica,sans-Serif" font-size="10.00" fill="#e0e0e0">config.</text>
<text xml:space="preserve" text-anchor="middle" x="149.2" y="-594.5" font-family="Helvetica,sans-Serif" font-size="10.00" fill="#e0e0e0">config</text>
</g>
<!-- src_helpers_config_config&#45;&gt;src_helpers_logging_setup -->
<g id="edge22" class="edge">
<title>src_helpers_config_config&#45;&gt;src_helpers_logging_setup</title><style>.edge>path:hover{stroke-width:8}</style>
<path fill="none" stroke="#ffffff" d="M185.34,-618.12C209,-619.02 240.86,-619.24 268.77,-616"/>
<path fill="none" stroke="#ffffff" d="M270.77,-616C298.93,-612.73 327.66,-599.69 350.31,-586.7"/>
<polygon fill="#2f7fbc" stroke="#ffffff" points="351.84,-589.86 358.65,-581.74 348.26,-583.84 351.84,-589.86"/>
</g>
<!-- src_helpers_config_config&#45;&gt;src_main -->
<g id="edge23" class="edge">
<title>src_helpers_config_config&#45;&gt;src_main</title><style>.edge>path:hover{stroke-width:8}</style>
<path fill="none" stroke="#ffffff" d="M176.27,-589.86C184.33,-580.48 192.54,-569.4 198.06,-558 231.16,-489.67 178.53,-442.79 234.06,-391 286.65,-341.95 326.71,-392.76 394.22,-368"/>
<path fill="none" stroke="#ffffff" d="M396.22,-368C427.98,-355.66 465.32,-345.58 492.99,-338.91"/>
<polygon fill="#2f7fbc" stroke="#ffffff" points="493.44,-342.4 502.37,-336.7 491.83,-335.59 493.44,-342.4"/>
</g>
<!-- src_helpers_config_config&#45;&gt;tests_helpers_config_test_config -->
<g id="edge24" class="edge">
<title>src_helpers_config_config&#45;&gt;tests_helpers_config_test_config</title><style>.edge>path:hover{stroke-width:8}</style>
<path fill="none" stroke="#ffffff" d="M270.77,-616C386.66,-602.56 416.78,-609.51 533.27,-616"/>
</g>
<!-- src_helpers_logging_setup&#45;&gt;tests_helpers_test_logging -->
<g id="edge25" class="edge">
<title>src_helpers_logging_setup&#45;&gt;tests_helpers_test_logging</title><style>.edge>path:hover{stroke-width:8}</style>
<path fill="none" stroke="#ffffff" d="M444.1,-543.3C484.28,-530.15 541.66,-507.32 583.58,-474 608.51,-454.18 629.93,-425.25 644.83,-401.9"/>
<polygon fill="#407196" stroke="#ffffff" points="647.7,-403.9 650,-393.56 641.76,-400.21 647.7,-403.9"/>
</g>
<!-- src_main&#45;&gt;tests_conftest -->
<g id="edge26" class="edge">
<title>src_main&#45;&gt;tests_conftest</title><style>.edge>path:hover{stroke-width:8}</style>
<path fill="none" stroke="#ffffff" d="M548.07,-313.26C577.7,-274.91 649.74,-183.8 667.01,-182"/>
</g>
<!-- structlog -->
<g id="node14" class="node">
<title>structlog</title><style>.edge>path:hover{stroke-width:8}</style>
<ellipse fill="#5926d9" stroke="#ffffff" cx="32.17" cy="-544" rx="32.17" ry="18"/>
<text xml:space="preserve" text-anchor="middle" x="32.17" y="-540.5" font-family="Helvetica,sans-Serif" font-size="10.00" fill="#e0e0e0">structlog</text>
</g>
<!-- structlog&#45;&gt;src_helpers_logging_setup -->
<g id="edge27" class="edge">
<title>structlog&#45;&gt;src_helpers_logging_setup</title><style>.edge>path:hover{stroke-width:8}</style>
<path fill="none" stroke="#ffffff" d="M150.2,-544C210.3,-521.18 284.76,-529.93 335.51,-540.87"/>
<polygon fill="#5926d9" stroke="#ffffff" points="334.6,-544.25 345.12,-543.05 336.14,-537.43 334.6,-544.25"/>
</g>
<!-- structlog&#45;&gt;src_main -->
<g id="edge28" class="edge">
<title>structlog&#45;&gt;src_main</title><style>.edge>path:hover{stroke-width:8}</style>
<path fill="none" stroke="#ffffff" d="M396.22,-330C427.72,-327.41 463.43,-327.51 490.5,-328.2"/>
<polygon fill="#5926d9" stroke="#ffffff" points="490.3,-331.7 500.4,-328.5 490.51,-324.7 490.3,-331.7"/>
</g>
<!-- structlog&#45;&gt;tests_helpers_test_logging -->
<g id="edge29" class="edge">
<title>structlog&#45;&gt;tests_helpers_test_logging</title><style>.edge>path:hover{stroke-width:8}</style>
<path fill="none" stroke="#ffffff" d="M396.22,-330C460.25,-324.74 470.84,-268.8 533.27,-284"/>
<path fill="none" stroke="#ffffff" d="M63.12,-549.86C87.02,-553.18 120.9,-554.78 148.2,-544"/>
<path fill="none" stroke="#ffffff" d="M150.2,-544C231.92,-511.73 165.41,-419.82 234.06,-365 290.99,-319.53 321.6,-335.97 394.22,-330"/>
</g>
<!-- tests_utils -->
<g id="node18" class="node">
<title>tests_utils</title><style>.edge>path:hover{stroke-width:8}</style>
<ellipse fill="#c247b1" stroke="#ffffff" cx="668.01" cy="-136" rx="35.33" ry="18"/>
<text xml:space="preserve" text-anchor="middle" x="668.01" y="-132.5" font-family="Helvetica,sans-Serif" font-size="10.00" fill="#e0e0e0">tests.utils</text>
</g>
<!-- tests_utils&#45;&gt;tests_conftest -->
<g id="edge30" class="edge">
<title>tests_utils&#45;&gt;tests_conftest</title><style>.edge>path:hover{stroke-width:8}</style>
<path fill="none" stroke="#ffffff" d="M701.68,-141.86C714.92,-144.24 730.53,-147.04 745.25,-149.68"/>
<polygon fill="#c247b1" stroke="#ffffff" points="744.33,-153.07 754.79,-151.4 745.57,-146.18 744.33,-153.07"/>
</g>
<!-- tests_utils_db_config&#45;&gt;tests_conftest -->
<g id="edge31" class="edge">
<title>tests_utils_db_config&#45;&gt;tests_conftest</title><style>.edge>path:hover{stroke-width:8}</style>
<path fill="none" stroke="#ffffff" d="M563.06,-145.54C588.75,-163.84 628.63,-186 667.01,-182"/>
</g>
</g>
</svg>

