<?xml version="1.0" encoding="UTF-8" standalone="no"?>
<!DOCTYPE svg PUBLIC "-//W3C//DTD SVG 1.1//EN"
 "http://www.w3.org/Graphics/SVG/1.1/DTD/svg11.dtd">
<!-- Generated by graphviz version 15.1.0 (20260618.0150)
 -->
<!-- Title: G Pages: 1 -->
<svg style="background-color:#141414" width="1507pt" height="800pt"
 viewBox="0.00 0.00 1507.00 800.00" xmlns="http://www.w3.org/2000/svg" xmlns:xlink="http://www.w3.org/1999/xlink">
<g id="graph0" class="graph" transform="scale(1 1) rotate(0) translate(4 795.91)">
<title>G</title><style>.edge>path:hover{stroke-width:8}</style>
<polygon fill="#141414" stroke="none" points="-4,4 -4,-795.91 1502.99,-795.91 1502.99,4 -4,4"/>
<!-- annotated_types -->
<g id="node1" class="node">
<title>annotated_types</title><style>.edge>path:hover{stroke-width:8}</style>
<polygon fill="#d92626" stroke="#ffffff" points="308.75,-292.12 305.75,-296.12 284.75,-296.12 281.75,-292.12 220.75,-292.12 220.75,-256.12 308.75,-256.12 308.75,-292.12"/>
<text xml:space="preserve" text-anchor="middle" x="264.75" y="-270.62" font-family="Helvetica,sans-Serif" font-size="10.00" fill="#e0e0e0">annotated_types</text>
</g>
<!-- pydantic -->
<g id="node14" class="node">
<title>pydantic</title><style>.edge>path:hover{stroke-width:8}</style>
<polygon fill="#5a5a5a" stroke="#ffffff" points="924.75,-521.12 921.75,-525.12 900.75,-525.12 897.75,-521.12 870.75,-521.12 870.75,-485.12 924.75,-485.12 924.75,-521.12"/>
<text xml:space="preserve" text-anchor="middle" x="897.75" y="-499.62" font-family="Helvetica,sans-Serif" font-size="10.00" fill="#e0e0e0">pydantic</text>
</g>
<!-- annotated_types&#45;&gt;pydantic -->
<g id="edge1" class="edge">
<title>annotated_types&#45;&gt;pydantic</title><style>.edge>path:hover{stroke-width:8}</style>
<path fill="none" stroke="#ffffff" d="M309.11,-274.12C353.44,-274.12 424.27,-274.12 485.5,-274.12 485.5,-274.12 485.5,-274.12 587.88,-274.12 690.85,-274.12 714.21,-304.95 806.75,-350.12"/>
</g>
<!-- anyio -->
<g id="node2" class="node">
<title>anyio</title><style>.edge>path:hover{stroke-width:8}</style>
<polygon fill="#5a5a5a" stroke="#ffffff" points="407.5,-674.12 404.5,-678.12 383.5,-678.12 380.5,-674.12 353.5,-674.12 353.5,-638.12 407.5,-638.12 407.5,-674.12"/>
<text xml:space="preserve" text-anchor="middle" x="380.5" y="-652.62" font-family="Helvetica,sans-Serif" font-size="10.00" fill="#e0e0e0">anyio</text>
</g>
<!-- watchfiles -->
<g id="node25" class="node">
<title>watchfiles</title><style>.edge>path:hover{stroke-width:8}</style>
<polygon fill="#9d437f" stroke="#ffffff" points="617,-766.12 614,-770.12 593,-770.12 590,-766.12 556.75,-766.12 556.75,-730.12 617,-730.12 617,-766.12"/>
<text xml:space="preserve" text-anchor="middle" x="586.88" y="-744.62" font-family="Helvetica,sans-Serif" font-size="10.00" fill="#e0e0e0">watchfiles</text>
</g>
<!-- anyio&#45;&gt;watchfiles -->
<g id="edge2" class="edge">
<title>anyio&#45;&gt;watchfiles</title><style>.edge>path:hover{stroke-width:8}</style>
<path fill="none" stroke="#ffffff" d="M385.52,-674.55C392.97,-703.67 411.99,-759.46 452.25,-783.12 482.17,-800.7 520.97,-787.22 549.04,-772.17"/>
<polygon fill="#5a5a5a" stroke="#ffffff" points="550.57,-775.33 557.55,-767.36 547.12,-769.24 550.57,-775.33"/>
</g>
<!-- attr -->
<g id="node3" class="node">
<title>attr</title><style>.edge>path:hover{stroke-width:8}</style>
<polygon fill="#5a5a5a" stroke="#ffffff" points="407.5,-208.12 404.5,-212.12 383.5,-212.12 380.5,-208.12 353.5,-208.12 353.5,-172.12 407.5,-172.12 407.5,-208.12"/>
<text xml:space="preserve" text-anchor="middle" x="380.5" y="-186.62" font-family="Helvetica,sans-Serif" font-size="10.00" fill="#e0e0e0">attr</text>
</g>
<!-- rich -->
<g id="node18" class="node">
<title>rich</title><style>.edge>path:hover{stroke-width:8}</style>
<polygon fill="#5a5a5a" stroke="#ffffff" points="613.88,-227.12 610.88,-231.12 589.88,-231.12 586.88,-227.12 559.88,-227.12 559.88,-191.12 613.88,-191.12 613.88,-227.12"/>
<text xml:space="preserve" text-anchor="middle" x="586.88" y="-205.62" font-family="Helvetica,sans-Serif" font-size="10.00" fill="#e0e0e0">rich</text>
</g>
<!-- attr&#45;&gt;rich -->
<g id="edge3" class="edge">
<title>attr&#45;&gt;rich</title><style>.edge>path:hover{stroke-width:8}</style>
<path fill="none" stroke="#ffffff" d="M407.94,-186.87C429.19,-185.03 459.64,-184.14 485.5,-190.12"/>
</g>
<!-- click -->
<g id="node4" class="node">
<title>click</title><style>.edge>path:hover{stroke-width:8}</style>
<polygon fill="#5a5a5a" stroke="#ffffff" points="613.88,-674.12 610.88,-678.12 589.88,-678.12 586.88,-674.12 559.88,-674.12 559.88,-638.12 613.88,-638.12 613.88,-674.12"/>
<text xml:space="preserve" text-anchor="middle" x="586.88" y="-652.62" font-family="Helvetica,sans-Serif" font-size="10.00" fill="#e0e0e0">click</text>
</g>
<!-- uvicorn -->
<g id="node24" class="node">
<title>uvicorn</title><style>.edge>path:hover{stroke-width:8}</style>
<polygon fill="#5a5a5a" stroke="#ffffff" points="924.75,-613.12 921.75,-617.12 900.75,-617.12 897.75,-613.12 870.75,-613.12 870.75,-577.12 924.75,-577.12 924.75,-613.12"/>
<text xml:space="preserve" text-anchor="middle" x="897.75" y="-591.62" font-family="Helvetica,sans-Serif" font-size="10.00" fill="#e0e0e0">uvicorn</text>
</g>
<!-- click&#45;&gt;uvicorn -->
<g id="edge4" class="edge">
<title>click&#45;&gt;uvicorn</title><style>.edge>path:hover{stroke-width:8}</style>
<path fill="none" stroke="#ffffff" d="M613.99,-670.85C635.68,-682.13 667.73,-696.65 697.88,-702.12"/>
</g>
<!-- colorama -->
<g id="node5" class="node">
<title>colorama</title><style>.edge>path:hover{stroke-width:8}</style>
<polygon fill="#5a5a5a" stroke="#ffffff" points="408.38,-552.12 405.38,-556.12 384.38,-556.12 381.38,-552.12 352.62,-552.12 352.62,-516.12 408.38,-516.12 408.38,-552.12"/>
<text xml:space="preserve" text-anchor="middle" x="380.5" y="-530.62" font-family="Helvetica,sans-Serif" font-size="10.00" fill="#e0e0e0">colorama</text>
</g>
<!-- colorama&#45;&gt;click -->
<g id="edge5" class="edge">
<title>colorama&#45;&gt;click</title><style>.edge>path:hover{stroke-width:8}</style>
<path fill="none" stroke="#ffffff" d="M487.5,-526.12C537.3,-529.02 565.16,-589.56 577.68,-626.99"/>
<polygon fill="#5a5a5a" stroke="#ffffff" points="574.28,-627.84 580.63,-636.33 580.96,-625.74 574.28,-627.84"/>
</g>
<!-- structlog -->
<g id="node20" class="node">
<title>structlog</title><style>.edge>path:hover{stroke-width:8}</style>
<polygon fill="#5a5a5a" stroke="#ffffff" points="834.75,-261.12 831.75,-265.12 810.75,-265.12 807.75,-261.12 780.75,-261.12 780.75,-225.12 834.75,-225.12 834.75,-261.12"/>
<text xml:space="preserve" text-anchor="middle" x="807.75" y="-239.62" font-family="Helvetica,sans-Serif" font-size="10.00" fill="#e0e0e0">structlog</text>
</g>
<!-- colorama&#45;&gt;structlog -->
<g id="edge6" class="edge">
<title>colorama&#45;&gt;structlog</title><style>.edge>path:hover{stroke-width:8}</style>
<path fill="none" stroke="#ffffff" d="M487.5,-526.12C505.69,-527.18 506.89,-513.95 520.75,-502.12 584.15,-447.99 591.29,-425.16 653,-369.12 693.22,-332.58 742.13,-293.32 773.82,-268.51"/>
<polygon fill="#5a5a5a" stroke="#ffffff" points="775.76,-271.45 781.49,-262.54 771.45,-265.93 775.76,-271.45"/>
<path fill="none" stroke="#ffffff" d="M408.85,-529.95C429.82,-527.26 459.47,-524.53 485.5,-526.12"/>
</g>
<!-- dotenv -->
<g id="node6" class="node">
<title>dotenv</title><style>.edge>path:hover{stroke-width:8}</style>
<polygon fill="#b4c431" stroke="#ffffff" points="613.88,-552.12 610.88,-556.12 589.88,-556.12 586.88,-552.12 559.88,-552.12 559.88,-516.12 613.88,-516.12 613.88,-552.12"/>
<text xml:space="preserve" text-anchor="middle" x="586.88" y="-530.62" font-family="Helvetica,sans-Serif" font-size="10.00" fill="#e0e0e0">dotenv</text>
</g>
<!-- dotenv&#45;&gt;pydantic -->
<g id="edge7" class="edge">
<title>dotenv&#45;&gt;pydantic</title><style>.edge>path:hover{stroke-width:8}</style>
<path fill="none" stroke="#ffffff" d="M604.57,-515.89C608.65,-511.4 612.99,-506.6 617,-502.12 633.16,-484.04 633.28,-475.24 653,-461.12 688.88,-435.42 709.08,-449.11 744.75,-423.12 779.15,-398.05 768.5,-331.45 806.75,-350.12"/>
</g>
<!-- pydantic_settings -->
<g id="node16" class="node">
<title>pydantic_settings</title><style>.edge>path:hover{stroke-width:8}</style>
<polygon fill="#5a5a5a" stroke="#ffffff" points="1127.25,-521.12 1124.25,-525.12 1103.25,-525.12 1100.25,-521.12 1034.75,-521.12 1034.75,-485.12 1127.25,-485.12 1127.25,-521.12"/>
<text xml:space="preserve" text-anchor="middle" x="1081" y="-499.62" font-family="Helvetica,sans-Serif" font-size="10.00" fill="#e0e0e0">pydantic_settings</text>
</g>
<!-- dotenv&#45;&gt;pydantic_settings -->
<g id="edge8" class="edge">
<title>dotenv&#45;&gt;pydantic_settings</title><style>.edge>path:hover{stroke-width:8}</style>
<path fill="none" stroke="#ffffff" d="M614.28,-530.69C670.54,-523.49 797.89,-507.69 806.75,-511.12"/>
</g>
<!-- dotenv&#45;&gt;uvicorn -->
<g id="edge9" class="edge">
<title>dotenv&#45;&gt;uvicorn</title><style>.edge>path:hover{stroke-width:8}</style>
<path fill="none" stroke="#ffffff" d="M699.88,-702.12C768.44,-714.55 837.45,-657.19 872.71,-621.62"/>
<polygon fill="#b4c431" stroke="#ffffff" points="875.04,-624.25 879.47,-614.63 870,-619.39 875.04,-624.25"/>
<path fill="none" stroke="#ffffff" d="M595.52,-552.52C614.07,-595.78 662.53,-700.43 697.88,-702.12"/>
</g>
<!-- greenlet -->
<g id="node7" class="node">
<title>greenlet</title><style>.edge>path:hover{stroke-width:8}</style>
<polygon fill="#91b34c" stroke="#ffffff" points="613.88,-100.12 610.88,-104.12 589.88,-104.12 586.88,-100.12 559.88,-100.12 559.88,-64.12 613.88,-64.12 613.88,-100.12"/>
<text xml:space="preserve" text-anchor="middle" x="586.88" y="-78.62" font-family="Helvetica,sans-Serif" font-size="10.00" fill="#e0e0e0">greenlet</text>
</g>
<!-- greenlet&#45;&gt;structlog -->
<g id="edge10" class="edge">
<title>greenlet&#45;&gt;structlog</title><style>.edge>path:hover{stroke-width:8}</style>
<path fill="none" stroke="#ffffff" d="M614.37,-66.76C637.72,-55.43 671.94,-44.33 697.88,-59.12"/>
</g>
<!-- h11 -->
<g id="node8" class="node">
<title>h11</title><style>.edge>path:hover{stroke-width:8}</style>
<polygon fill="#609933" stroke="#ffffff" points="513.5,-628.12 510.5,-632.12 489.5,-632.12 486.5,-628.12 459.5,-628.12 459.5,-592.12 513.5,-592.12 513.5,-628.12"/>
<text xml:space="preserve" text-anchor="middle" x="486.5" y="-606.62" font-family="Helvetica,sans-Serif" font-size="10.00" fill="#e0e0e0">h11</text>
</g>
<!-- h11&#45;&gt;uvicorn -->
<g id="edge11" class="edge">
<title>h11&#45;&gt;uvicorn</title><style>.edge>path:hover{stroke-width:8}</style>
<path fill="none" stroke="#ffffff" d="M587.88,-702.12C636.5,-707.15 649.04,-699.78 697.88,-702.12"/>
<path fill="none" stroke="#ffffff" d="M507.11,-628.46C511.66,-632.86 516.43,-637.6 520.75,-642.12 547.94,-670.57 546.73,-698.07 585.88,-702.12"/>
</g>
<!-- httptools -->
<g id="node9" class="node">
<title>httptools</title><style>.edge>path:hover{stroke-width:8}</style>
<polygon fill="#55b03a" stroke="#ffffff" points="513.5,-774.12 510.5,-778.12 489.5,-778.12 486.5,-774.12 459.5,-774.12 459.5,-738.12 513.5,-738.12 513.5,-774.12"/>
<text xml:space="preserve" text-anchor="middle" x="486.5" y="-752.62" font-family="Helvetica,sans-Serif" font-size="10.00" fill="#e0e0e0">httptools</text>
</g>
<!-- httptools&#45;&gt;uvicorn -->
<g id="edge12" class="edge">
<title>httptools&#45;&gt;uvicorn</title><style>.edge>path:hover{stroke-width:8}</style>
<path fill="none" stroke="#ffffff" d="M512.98,-737.74C536.68,-721.47 570.57,-700.53 585.88,-702.12"/>
</g>
<!-- idna -->
<g id="node10" class="node">
<title>idna</title><style>.edge>path:hover{stroke-width:8}</style>
<polygon fill="#5a5a5a" stroke="#ffffff" points="54,-674.12 51,-678.12 30,-678.12 27,-674.12 0,-674.12 0,-638.12 54,-638.12 54,-674.12"/>
<text xml:space="preserve" text-anchor="middle" x="27" y="-652.62" font-family="Helvetica,sans-Serif" font-size="10.00" fill="#e0e0e0">idna</text>
</g>
<!-- idna&#45;&gt;anyio -->
<g id="edge13" class="edge">
<title>idna&#45;&gt;anyio</title><style>.edge>path:hover{stroke-width:8}</style>
<path fill="none" stroke="#ffffff" d="M54.42,-656.12C116.28,-656.12 270.66,-656.12 342.12,-656.12"/>
<polygon fill="#5a5a5a" stroke="#ffffff" points="341.74,-659.62 351.74,-656.12 341.74,-652.62 341.74,-659.62"/>
</g>
<!-- main_py -->
<g id="node11" class="node">
<title>main_py</title><style>.edge>path:hover{stroke-width:8}</style>
<ellipse fill="#447e51" stroke="#ffffff" cx="1468.62" cy="-465.12" rx="30.37" ry="18"/>
<text xml:space="preserve" text-anchor="middle" x="1468.62" y="-461.62" font-family="Helvetica,sans-Serif" font-size="10.00" fill="#e0e0e0">main.py</text>
</g>
<!-- markdown_it -->
<g id="node12" class="node">
<title>markdown_it</title><style>.edge>path:hover{stroke-width:8}</style>
<polygon fill="#5a5a5a" stroke="#ffffff" points="416.25,-100.12 413.25,-104.12 392.25,-104.12 389.25,-100.12 344.75,-100.12 344.75,-64.12 416.25,-64.12 416.25,-100.12"/>
<text xml:space="preserve" text-anchor="middle" x="380.5" y="-78.62" font-family="Helvetica,sans-Serif" font-size="10.00" fill="#e0e0e0">markdown_it</text>
</g>
<!-- markdown_it&#45;&gt;rich -->
<g id="edge14" class="edge">
<title>markdown_it&#45;&gt;rich</title><style>.edge>path:hover{stroke-width:8}</style>
<path fill="none" stroke="#ffffff" d="M406.32,-100.4C409.75,-103.21 413.15,-106.16 416.25,-109.12 450.52,-141.82 439.35,-179.46 485.5,-190.12"/>
<path fill="none" stroke="#ffffff" d="M487.5,-190.12C507.48,-194.73 529.91,-199.13 548.31,-202.52"/>
<polygon fill="#5a5a5a" stroke="#ffffff" points="547.51,-205.93 557.97,-204.28 548.76,-199.05 547.51,-205.93"/>
</g>
<!-- mdurl -->
<g id="node13" class="node">
<title>mdurl</title><style>.edge>path:hover{stroke-width:8}</style>
<polygon fill="#5a5a5a" stroke="#ffffff" points="54,-100.12 51,-104.12 30,-104.12 27,-100.12 0,-100.12 0,-64.12 54,-64.12 54,-100.12"/>
<text xml:space="preserve" text-anchor="middle" x="27" y="-78.62" font-family="Helvetica,sans-Serif" font-size="10.00" fill="#e0e0e0">mdurl</text>
</g>
<!-- mdurl&#45;&gt;markdown_it -->
<g id="edge15" class="edge">
<title>mdurl&#45;&gt;markdown_it</title><style>.edge>path:hover{stroke-width:8}</style>
<path fill="none" stroke="#ffffff" d="M54.42,-82.12C113.75,-82.12 258.21,-82.12 332.97,-82.12"/>
<polygon fill="#5a5a5a" stroke="#ffffff" points="332.83,-85.62 342.83,-82.12 332.83,-78.62 332.83,-85.62"/>
</g>
<!-- pydantic&#45;&gt;pydantic_settings -->
<g id="edge16" class="edge">
<title>pydantic&#45;&gt;pydantic_settings</title><style>.edge>path:hover{stroke-width:8}</style>
<path fill="none" stroke="#ffffff" d="M925,-503.12C936.04,-503.12 949.02,-503.12 960.75,-503.12"/>
</g>
<!-- src2 -->
<g id="node19" class="node">
<title>src2</title><style>.edge>path:hover{stroke-width:8}</style>
<polygon fill="#3b3bce" stroke="#ffffff" points="1328.25,-483.12 1325.25,-487.12 1304.25,-487.12 1301.25,-483.12 1274.25,-483.12 1274.25,-447.12 1328.25,-447.12 1328.25,-483.12"/>
<text xml:space="preserve" text-anchor="middle" x="1301.25" y="-461.62" font-family="Helvetica,sans-Serif" font-size="10.00" fill="#e0e0e0">src2</text>
</g>
<!-- pydantic&#45;&gt;src2 -->
<g id="edge17" class="edge">
<title>pydantic&#45;&gt;src2</title><style>.edge>path:hover{stroke-width:8}</style>
<path fill="none" stroke="#ffffff" d="M925.24,-496.84C936.2,-494.32 949.07,-491.46 960.75,-489.12 1033.53,-474.52 1056.83,-452.65 1127.25,-476.12 1146.22,-482.44 1143.43,-500.41 1163.25,-503.12"/>
<path fill="none" stroke="#ffffff" d="M1164.25,-503.12C1198.67,-506.43 1236.45,-494.56 1263.44,-483.22"/>
<polygon fill="#5a5a5a" stroke="#ffffff" points="1264.81,-486.44 1272.56,-479.22 1261.99,-480.04 1264.81,-486.44"/>
</g>
<!-- pydantic_core -->
<g id="node15" class="node">
<title>pydantic_core</title><style>.edge>path:hover{stroke-width:8}</style>
<polygon fill="#5a5a5a" stroke="#ffffff" points="737.25,-506.12 734.25,-510.12 713.25,-510.12 710.25,-506.12 660.5,-506.12 660.5,-470.12 737.25,-470.12 737.25,-506.12"/>
<text xml:space="preserve" text-anchor="middle" x="698.88" y="-484.62" font-family="Helvetica,sans-Serif" font-size="10.00" fill="#e0e0e0">pydantic_core</text>
</g>
<!-- pydantic_core&#45;&gt;pydantic -->
<g id="edge18" class="edge">
<title>pydantic_core&#45;&gt;pydantic</title><style>.edge>path:hover{stroke-width:8}</style>
<path fill="none" stroke="#ffffff" d="M729.36,-469.82C734.83,-465.7 740.23,-461.06 744.75,-456.12 781.56,-415.82 757.7,-326.18 806.75,-350.12"/>
</g>
<!-- pydantic_core&#45;&gt;pydantic_settings -->
<g id="edge19" class="edge">
<title>pydantic_core&#45;&gt;pydantic_settings</title><style>.edge>path:hover{stroke-width:8}</style>
<path fill="none" stroke="#ffffff" d="M737.31,-493.21C758.21,-496.79 784.45,-502.49 806.75,-511.12"/>
</g>
<!-- pydantic_settings&#45;&gt;src2 -->
<g id="edge20" class="edge">
<title>pydantic_settings&#45;&gt;src2</title><style>.edge>path:hover{stroke-width:8}</style>
<path fill="none" stroke="#ffffff" d="M1127.7,-500.95C1139.33,-500.99 1151.79,-501.55 1163.25,-503.12"/>
</g>
<!-- pygments -->
<g id="node17" class="node">
<title>pygments</title><style>.edge>path:hover{stroke-width:8}</style>
<polygon fill="#5a5a5a" stroke="#ffffff" points="409.88,-154.12 406.88,-158.12 385.88,-158.12 382.88,-154.12 351.12,-154.12 351.12,-118.12 409.88,-118.12 409.88,-154.12"/>
<text xml:space="preserve" text-anchor="middle" x="380.5" y="-132.62" font-family="Helvetica,sans-Serif" font-size="10.00" fill="#e0e0e0">pygments</text>
</g>
<!-- pygments&#45;&gt;rich -->
<g id="edge21" class="edge">
<title>pygments&#45;&gt;rich</title><style>.edge>path:hover{stroke-width:8}</style>
<path fill="none" stroke="#ffffff" d="M407.83,-154.57C428.03,-167.49 457.15,-183.57 485.5,-190.12"/>
</g>
<!-- rich&#45;&gt;pydantic -->
<g id="edge22" class="edge">
<title>rich&#45;&gt;pydantic</title><style>.edge>path:hover{stroke-width:8}</style>
<path fill="none" stroke="#ffffff" d="M808.75,-350.12C863.05,-376.62 837.74,-420.5 870.75,-471.12 871.77,-472.68 872.86,-474.26 873.98,-475.84"/>
<polygon fill="#5a5a5a" stroke="#ffffff" points="870.92,-477.6 879.76,-483.46 876.5,-473.37 870.92,-477.6"/>
<path fill="none" stroke="#ffffff" d="M699.88,-236.12C720.95,-244.34 728.93,-243.95 744.75,-260.12 769.49,-285.41 757.84,-304.16 780.75,-331.12 790.02,-342.02 793.89,-343.84 806.75,-350.12"/>
</g>
<!-- rich&#45;&gt;structlog -->
<g id="edge23" class="edge">
<title>rich&#45;&gt;structlog</title><style>.edge>path:hover{stroke-width:8}</style>
<path fill="none" stroke="#ffffff" d="M614.25,-213.57C636.91,-217.87 670.21,-225.33 697.88,-236.12"/>
<path fill="none" stroke="#ffffff" d="M699.88,-236.12C721.7,-244.63 747.92,-246.46 768.93,-246.12"/>
<polygon fill="#5a5a5a" stroke="#ffffff" points="768.93,-249.62 778.81,-245.78 768.69,-242.63 768.93,-249.62"/>
</g>
<!-- src2&#45;&gt;main_py -->
<g id="edge24" class="edge">
<title>src2&#45;&gt;main_py</title><style>.edge>path:hover{stroke-width:8}</style>
<path fill="none" stroke="#ffffff" d="M1328.5,-465.12C1339.54,-465.12 1352.52,-465.12 1364.25,-465.12"/>
</g>
<!-- structlog&#45;&gt;main_py -->
<g id="edge25" class="edge">
<title>structlog&#45;&gt;main_py</title><style>.edge>path:hover{stroke-width:8}</style>
<path fill="none" stroke="#ffffff" d="M823.21,-261.29C859.16,-306.26 950.4,-419.12 960.75,-419.12 960.75,-419.12 960.75,-419.12 998.75,-419.12 1106.7,-419.12 1129.34,-468.28 1237.25,-465.12"/>
<path fill="none" stroke="#ffffff" d="M1365.25,-465.12C1385.46,-465.53 1407.92,-465.57 1426.64,-465.5"/>
<polygon fill="#5a5a5a" stroke="#ffffff" points="1426.55,-469 1436.54,-465.44 1426.52,-462 1426.55,-469"/>
<path fill="none" stroke="#ffffff" d="M1238.25,-465.12C1257.99,-461.93 1255.28,-444.44 1274.25,-438.12 1297.02,-430.53 1305.48,-430.53 1328.25,-438.12 1347.22,-444.44 1344.26,-464.61 1364.25,-465.12"/>
</g>
<!-- structlog&#45;&gt;src2 -->
<g id="edge26" class="edge">
<title>structlog&#45;&gt;src2</title><style>.edge>path:hover{stroke-width:8}</style>
<path fill="none" stroke="#ffffff" d="M1238.25,-465.12C1246.13,-464.89 1254.57,-464.79 1262.62,-464.76"/>
<polygon fill="#5a5a5a" stroke="#ffffff" points="1262.48,-468.26 1272.49,-464.78 1262.49,-461.26 1262.48,-468.26"/>
</g>
<!-- tomli -->
<g id="node21" class="node">
<title>tomli</title><style>.edge>path:hover{stroke-width:8}</style>
<polygon fill="#7f53b6" stroke="#ffffff" points="834.75,-322.12 831.75,-326.12 810.75,-326.12 807.75,-322.12 780.75,-322.12 780.75,-286.12 834.75,-286.12 834.75,-322.12"/>
<text xml:space="preserve" text-anchor="middle" x="807.75" y="-300.62" font-family="Helvetica,sans-Serif" font-size="10.00" fill="#e0e0e0">tomli</text>
</g>
<!-- tomli&#45;&gt;pydantic_settings -->
<g id="edge27" class="edge">
<title>tomli&#45;&gt;pydantic_settings</title><style>.edge>path:hover{stroke-width:8}</style>
<path fill="none" stroke="#ffffff" d="M961.75,-503.12C981.74,-503.12 1003.62,-503.12 1023.07,-503.12"/>
<polygon fill="#7f53b6" stroke="#ffffff" points="1023,-506.62 1033,-503.12 1023,-499.62 1023,-506.62"/>
<path fill="none" stroke="#ffffff" d="M825.23,-322.32C828.66,-326.65 832.05,-331.39 834.75,-336.12 857.55,-376.05 843.56,-396.03 870.75,-433.12 871.69,-434.39 959.17,-503.12 960.75,-503.12"/>
</g>
<!-- typing_extensions -->
<g id="node22" class="node">
<title>typing_extensions</title><style>.edge>path:hover{stroke-width:8}</style>
<polygon fill="#ac10f9" stroke="#ffffff" points="184.75,-292.12 181.75,-296.12 160.75,-296.12 157.75,-292.12 90,-292.12 90,-256.12 184.75,-256.12 184.75,-292.12"/>
<text xml:space="preserve" text-anchor="middle" x="137.38" y="-270.62" font-family="Helvetica,sans-Serif" font-size="10.00" fill="#e0e0e0">typing_extensions</text>
</g>
<!-- typing_extensions&#45;&gt;annotated_types -->
<g id="edge28" class="edge">
<title>typing_extensions&#45;&gt;annotated_types</title><style>.edge>path:hover{stroke-width:8}</style>
<path fill="none" stroke="#ffffff" d="M185.06,-274.12C192.82,-274.12 200.94,-274.12 208.89,-274.12"/>
<polygon fill="#ac10f9" stroke="#ffffff" points="208.83,-277.62 218.83,-274.12 208.83,-270.62 208.83,-277.62"/>
</g>
<!-- typing_extensions&#45;&gt;anyio -->
<g id="edge29" class="edge">
<title>typing_extensions&#45;&gt;anyio</title><style>.edge>path:hover{stroke-width:8}</style>
<path fill="none" stroke="#ffffff" d="M265.75,-610.12C290.54,-623.55 320.1,-635.38 342.87,-643.69"/>
<polygon fill="#ac10f9" stroke="#ffffff" points="341.43,-646.89 352.03,-646.96 343.79,-640.3 341.43,-646.89"/>
</g>
<!-- typing_extensions&#45;&gt;click -->
<g id="edge30" class="edge">
<title>typing_extensions&#45;&gt;click</title><style>.edge>path:hover{stroke-width:8}</style>
<path fill="none" stroke="#ffffff" d="M381.5,-610.12C415.16,-610.12 419.15,-589.22 452.25,-583.12 482.19,-577.6 492.97,-570.67 520.75,-583.12 541.48,-592.4 558.33,-611.91 569.69,-628.43"/>
<polygon fill="#ac10f9" stroke="#ffffff" points="566.51,-629.97 574.91,-636.44 572.38,-626.15 566.51,-629.97"/>
<path fill="none" stroke="#ffffff" d="M265.75,-610.12C310.2,-634.2 328.96,-608.89 379.5,-610.12"/>
</g>
<!-- typing_extensions&#45;&gt;h11 -->
<g id="edge31" class="edge">
<title>typing_extensions&#45;&gt;h11</title><style>.edge>path:hover{stroke-width:8}</style>
<path fill="none" stroke="#ffffff" d="M381.5,-610.12C403.58,-610.12 428.3,-610.12 448.1,-610.12"/>
<polygon fill="#ac10f9" stroke="#ffffff" points="447.91,-613.62 457.91,-610.12 447.91,-606.62 447.91,-613.62"/>
</g>
<!-- typing_extensions&#45;&gt;markdown_it -->
<g id="edge32" class="edge">
<title>typing_extensions&#45;&gt;markdown_it</title><style>.edge>path:hover{stroke-width:8}</style>
<path fill="none" stroke="#ffffff" d="M265.75,-174.12C304.32,-150.04 309.24,-137.51 344.75,-109.12 345.53,-108.49 346.33,-107.86 347.13,-107.22"/>
<polygon fill="#ac10f9" stroke="#ffffff" points="349,-110.2 354.69,-101.27 344.67,-104.7 349,-110.2"/>
</g>
<!-- typing_extensions&#45;&gt;pydantic -->
<g id="edge33" class="edge">
<title>typing_extensions&#45;&gt;pydantic</title><style>.edge>path:hover{stroke-width:8}</style>
<path fill="none" stroke="#ffffff" d="M137.94,-292.31C137.62,-352.7 146.05,-546.35 263.75,-610.12"/>
<path fill="none" stroke="#ffffff" d="M265.75,-610.12C316.48,-637.6 294.84,-536.05 344.75,-507.12 399.36,-475.46 424.72,-505.14 485.5,-488.12"/>
<path fill="none" stroke="#ffffff" d="M487.5,-488.12C573.32,-459.1 568.64,-402.15 653,-369.12 717.11,-344.02 744.34,-321.03 806.75,-350.12"/>
</g>
<!-- typing_extensions&#45;&gt;pydantic_core -->
<g id="edge34" class="edge">
<title>typing_extensions&#45;&gt;pydantic_core</title><style>.edge>path:hover{stroke-width:8}</style>
<path fill="none" stroke="#ffffff" d="M587.88,-488.12C607.5,-484.24 629.49,-483.54 648.61,-484.06"/>
<polygon fill="#ac10f9" stroke="#ffffff" points="648.46,-487.56 658.59,-484.47 648.74,-480.56 648.46,-487.56"/>
</g>
<!-- typing_extensions&#45;&gt;rich -->
<g id="edge35" class="edge">
<title>typing_extensions&#45;&gt;rich</title><style>.edge>path:hover{stroke-width:8}</style>
<path fill="none" stroke="#ffffff" d="M265.75,-174.12C299.66,-152.95 306.01,-207.26 344.75,-217.12 375.55,-224.96 385.02,-222.99 416.25,-217.12 448.72,-211.01 453.31,-182.68 485.5,-190.12"/>
</g>
<!-- typing_extensions&#45;&gt;structlog -->
<g id="edge36" class="edge">
<title>typing_extensions&#45;&gt;structlog</title><style>.edge>path:hover{stroke-width:8}</style>
<path fill="none" stroke="#ffffff" d="M699.88,-59.12C758.08,-92.31 787.46,-170.83 799.64,-213.79"/>
<polygon fill="#ac10f9" stroke="#ffffff" points="796.19,-214.44 802.17,-223.18 802.95,-212.61 796.19,-214.44"/>
<path fill="none" stroke="#ffffff" d="M158.74,-255.84C182.8,-234.72 224.54,-199.63 263.75,-174.12"/>
<path fill="none" stroke="#ffffff" d="M265.75,-174.12C318.96,-139.49 288.81,-85.13 344.75,-55.12 483.06,19.08 561.53,18.63 697.88,-59.12"/>
</g>
<!-- typing_inspection -->
<g id="node23" class="node">
<title>typing_inspection</title><style>.edge>path:hover{stroke-width:8}</style>
<polygon fill="#df10f9" stroke="#ffffff" points="744.75,-414.12 741.75,-418.12 720.75,-418.12 717.75,-414.12 653,-414.12 653,-378.12 744.75,-378.12 744.75,-414.12"/>
<text xml:space="preserve" text-anchor="middle" x="698.88" y="-392.62" font-family="Helvetica,sans-Serif" font-size="10.00" fill="#e0e0e0">typing_inspection</text>
</g>
<!-- typing_extensions&#45;&gt;typing_inspection -->
<g id="edge37" class="edge">
<title>typing_extensions&#45;&gt;typing_inspection</title><style>.edge>path:hover{stroke-width:8}</style>
<path fill="none" stroke="#ffffff" d="M487.5,-488.12C529.6,-476.33 542.98,-496.58 585.88,-488.12"/>
<path fill="none" stroke="#ffffff" d="M587.88,-488.12C626.01,-480.59 620.52,-449.82 651.03,-421.65"/>
<polygon fill="#ac10f9" stroke="#ffffff" points="652.97,-424.59 658.45,-415.52 648.51,-419.19 652.97,-424.59"/>
</g>
<!-- typing_extensions&#45;&gt;uvicorn -->
<g id="edge38" class="edge">
<title>typing_extensions&#45;&gt;uvicorn</title><style>.edge>path:hover{stroke-width:8}</style>
<path fill="none" stroke="#ffffff" d="M381.5,-610.12C406.4,-610.72 561.1,-699.55 585.88,-702.12"/>
</g>
<!-- typing_inspection&#45;&gt;pydantic -->
<g id="edge39" class="edge">
<title>typing_inspection&#45;&gt;pydantic</title><style>.edge>path:hover{stroke-width:8}</style>
<path fill="none" stroke="#ffffff" d="M729.07,-377.68C755.53,-362.04 792.5,-343.16 806.75,-350.12"/>
</g>
<!-- typing_inspection&#45;&gt;pydantic_settings -->
<g id="edge40" class="edge">
<title>typing_inspection&#45;&gt;pydantic_settings</title><style>.edge>path:hover{stroke-width:8}</style>
<path fill="none" stroke="#ffffff" d="M898.75,-549.12C932.31,-541.98 926.44,-502.83 960.75,-503.12"/>
<path fill="none" stroke="#ffffff" d="M808.75,-511.12C848.48,-526.48 855.08,-557.97 896.75,-549.12"/>
<path fill="none" stroke="#ffffff" d="M713.43,-414.19C736.42,-444.19 782.85,-501.88 806.75,-511.12"/>
</g>
<!-- uvicorn&#45;&gt;main_py -->
<g id="edge41" class="edge">
<title>uvicorn&#45;&gt;main_py</title><style>.edge>path:hover{stroke-width:8}</style>
<path fill="none" stroke="#ffffff" d="M925.14,-592.56C994.3,-585.06 1185.3,-559.32 1328.25,-492.12 1346.35,-483.61 1344.25,-465.12 1364.25,-465.12"/>
</g>
<!-- watchfiles&#45;&gt;uvicorn -->
<g id="edge42" class="edge">
<title>watchfiles&#45;&gt;uvicorn</title><style>.edge>path:hover{stroke-width:8}</style>
<path fill="none" stroke="#ffffff" d="M613.75,-729.68C635.29,-716.26 667.27,-700.65 697.88,-702.12"/>
</g>
<!-- websockets -->
<g id="node26" class="node">
<title>websockets</title><style>.edge>path:hover{stroke-width:8}</style>
<polygon fill="#5a5a5a" stroke="#ffffff" points="520.75,-720.12 517.75,-724.12 496.75,-724.12 493.75,-720.12 452.25,-720.12 452.25,-684.12 520.75,-684.12 520.75,-720.12"/>
<text xml:space="preserve" text-anchor="middle" x="486.5" y="-698.62" font-family="Helvetica,sans-Serif" font-size="10.00" fill="#e0e0e0">websockets</text>
</g>
<!-- websockets&#45;&gt;uvicorn -->
<g id="edge43" class="edge">
<title>websockets&#45;&gt;uvicorn</title><style>.edge>path:hover{stroke-width:8}</style>
<path fill="none" stroke="#ffffff" d="M520.83,-700.42C539.92,-699.87 564.3,-699.88 585.88,-702.12"/>
</g>
<!-- yaml -->
<g id="node27" class="node">
<title>yaml</title><style>.edge>path:hover{stroke-width:8}</style>
<polygon fill="#5a5a5a" stroke="#ffffff" points="725.88,-598.12 722.88,-602.12 701.88,-602.12 698.88,-598.12 671.88,-598.12 671.88,-562.12 725.88,-562.12 725.88,-598.12"/>
<text xml:space="preserve" text-anchor="middle" x="698.88" y="-576.62" font-family="Helvetica,sans-Serif" font-size="10.00" fill="#e0e0e0">yaml</text>
</g>
<!-- yaml&#45;&gt;pydantic_settings -->
<g id="edge44" class="edge">
<title>yaml&#45;&gt;pydantic_settings</title><style>.edge>path:hover{stroke-width:8}</style>
<path fill="none" stroke="#ffffff" d="M808.75,-549.12C847.86,-548.59 858.49,-557.25 896.75,-549.12"/>
<path fill="none" stroke="#ffffff" d="M726.06,-568.25C747.33,-559.67 778.35,-549.5 806.75,-549.12"/>
</g>
<!-- yaml&#45;&gt;uvicorn -->
<g id="edge45" class="edge">
<title>yaml&#45;&gt;uvicorn</title><style>.edge>path:hover{stroke-width:8}</style>
<path fill="none" stroke="#ffffff" d="M808.75,-549.12C829.79,-548.83 850.77,-559.27 866.96,-570.28"/>
<polygon fill="#5a5a5a" stroke="#ffffff" points="864.53,-572.84 874.68,-575.86 868.63,-567.17 864.53,-572.84"/>
</g>
</g>
</svg>

