<?xml version="1.0" encoding="UTF-8" standalone="no"?>
<!DOCTYPE svg PUBLIC "-//W3C//DTD SVG 1.1//EN"
 "http://www.w3.org/Graphics/SVG/1.1/DTD/svg11.dtd">
<!-- Generated by graphviz version 15.0.0 (20260523.1842)
 -->
<!-- Title: G Pages: 1 -->
<svg style="background-color:#141414" width="951pt" height="922pt"
 viewBox="0.00 0.00 951.00 922.00" xmlns="http://www.w3.org/2000/svg" xmlns:xlink="http://www.w3.org/1999/xlink">
<g id="graph0" class="graph" transform="scale(1 1) rotate(0) translate(4 918.21)">
<title>G</title><style>.edge>path:hover{stroke-width:8}</style>
<polygon fill="#141414" stroke="none" points="-4,4 -4,-918.21 947.4,-918.21 947.4,4 -4,4"/>
<!-- fastapi -->
<g id="node1" class="node">
<title>fastapi</title><style>.edge>path:hover{stroke-width:8}</style>
<ellipse fill="#c24747" stroke="#ffffff" cx="407.09" cy="-479.83" rx="27.21" ry="18"/>
<text xml:space="preserve" text-anchor="middle" x="407.09" y="-476.33" font-family="Helvetica,sans-Serif" font-size="10.00" fill="#e0e0e0">fastapi</text>
</g>
<!-- src2_main -->
<g id="node15" class="node">
<title>src2_main</title><style>.edge>path:hover{stroke-width:8}</style>
<ellipse fill="#375481" stroke="#ffffff" cx="672.65" cy="-74.83" rx="35.33" ry="18"/>
<text xml:space="preserve" text-anchor="middle" x="672.65" y="-71.33" font-family="Helvetica,sans-Serif" font-size="10.00" fill="#e0e0e0">src2.main</text>
</g>
<!-- fastapi&#45;&gt;src2_main -->
<g id="edge1" class="edge">
<title>fastapi&#45;&gt;src2_main</title><style>.edge>path:hover{stroke-width:8}</style>
<path fill="none" stroke="#ffffff" d="M430.01,-469.61C440.18,-464.13 451.96,-456.69 460.83,-447.83 509.4,-399.3 490.76,-362.54 541.08,-315.83"/>
</g>
<!-- tests2_conftest -->
<g id="node17" class="node">
<title>tests2_conftest</title><style>.edge>path:hover{stroke-width:8}</style>
<ellipse fill="#5f2e6b" stroke="#ffffff" cx="907.17" cy="-390.83" rx="36.24" ry="22.63"/>
<text xml:space="preserve" text-anchor="middle" x="907.17" y="-393.33" font-family="Helvetica,sans-Serif" font-size="10.00" fill="#e0e0e0">tests2.</text>
<text xml:space="preserve" text-anchor="middle" x="907.17" y="-381.33" font-family="Helvetica,sans-Serif" font-size="10.00" fill="#e0e0e0">conftest</text>
</g>
<!-- fastapi&#45;&gt;tests2_conftest -->
<g id="edge2" class="edge">
<title>fastapi&#45;&gt;tests2_conftest</title><style>.edge>path:hover{stroke-width:8}</style>
<path fill="none" stroke="#ffffff" d="M797.44,-752.83C854.67,-717.99 889.78,-508.39 901.64,-425.01"/>
<polygon fill="#c24747" stroke="#ffffff" points="905.1,-425.54 903.02,-415.16 898.17,-424.58 905.1,-425.54"/>
<path fill="none" stroke="#ffffff" d="M433.14,-474.44C491.27,-463.5 636.87,-445.3 721.96,-515.83 806.86,-586.21 701.24,-810.17 795.44,-752.83"/>
</g>
<!-- fastapi_testclient -->
<g id="node2" class="node">
<title>fastapi_testclient</title><style>.edge>path:hover{stroke-width:8}</style>
<ellipse fill="#b65353" stroke="#ffffff" cx="672.65" cy="-849.83" rx="39.42" ry="22.63"/>
<text xml:space="preserve" text-anchor="middle" x="672.65" y="-852.33" font-family="Helvetica,sans-Serif" font-size="10.00" fill="#e0e0e0">fastapi.</text>
<text xml:space="preserve" text-anchor="middle" x="672.65" y="-840.33" font-family="Helvetica,sans-Serif" font-size="10.00" fill="#e0e0e0">testclient</text>
</g>
<!-- fastapi_testclient&#45;&gt;tests2_conftest -->
<g id="edge3" class="edge">
<title>fastapi_testclient&#45;&gt;tests2_conftest</title><style>.edge>path:hover{stroke-width:8}</style>
<path fill="none" stroke="#ffffff" d="M697.35,-831.91C705.22,-825.9 714,-819.12 721.96,-812.83 755.03,-786.68 759.42,-774.75 795.44,-752.83"/>
</g>
<!-- logging -->
<g id="node3" class="node">
<title>logging</title><style>.edge>path:hover{stroke-width:8}</style>
<ellipse fill="#c29147" stroke="#ffffff" cx="32.17" cy="-534.83" rx="28.11" ry="18"/>
<text xml:space="preserve" text-anchor="middle" x="32.17" y="-531.33" font-family="Helvetica,sans-Serif" font-size="10.00" fill="#e0e0e0">logging</text>
</g>
<!-- src2_helpers_logging_setup -->
<g id="node14" class="node">
<title>src2_helpers_logging_setup</title><style>.edge>path:hover{stroke-width:8}</style>
<ellipse fill="#335c99" stroke="#ffffff" cx="407.09" cy="-374.83" rx="53.74" ry="31.11"/>
<text xml:space="preserve" text-anchor="middle" x="407.09" y="-383.33" font-family="Helvetica,sans-Serif" font-size="10.00" fill="#e0e0e0">src2.</text>
<text xml:space="preserve" text-anchor="middle" x="407.09" y="-371.33" font-family="Helvetica,sans-Serif" font-size="10.00" fill="#e0e0e0">helpers.</text>
<text xml:space="preserve" text-anchor="middle" x="407.09" y="-359.33" font-family="Helvetica,sans-Serif" font-size="10.00" fill="#e0e0e0">logging_setup</text>
</g>
<!-- logging&#45;&gt;src2_helpers_logging_setup -->
<g id="edge4" class="edge">
<title>logging&#45;&gt;src2_helpers_logging_setup</title><style>.edge>path:hover{stroke-width:8}</style>
<path fill="none" stroke="#ffffff" d="M58.93,-529.07C110.13,-517.01 227.48,-486.32 317.35,-439.83 334.62,-430.89 352.2,-418.78 367.1,-407.43"/>
<polygon fill="#c29147" stroke="#ffffff" points="369.07,-410.33 374.82,-401.42 364.78,-404.8 369.07,-410.33"/>
</g>
<!-- tests2_helpers_test_logging -->
<g id="node19" class="node">
<title>tests2_helpers_test_logging</title><style>.edge>path:hover{stroke-width:8}</style>
<ellipse fill="#723781" stroke="#ffffff" cx="672.65" cy="-555.83" rx="48.44" ry="31.11"/>
<text xml:space="preserve" text-anchor="middle" x="672.65" y="-564.33" font-family="Helvetica,sans-Serif" font-size="10.00" fill="#e0e0e0">tests2.</text>
<text xml:space="preserve" text-anchor="middle" x="672.65" y="-552.33" font-family="Helvetica,sans-Serif" font-size="10.00" fill="#e0e0e0">helpers.</text>
<text xml:space="preserve" text-anchor="middle" x="672.65" y="-540.33" font-family="Helvetica,sans-Serif" font-size="10.00" fill="#e0e0e0">test_logging</text>
</g>
<!-- logging&#45;&gt;tests2_helpers_test_logging -->
<g id="edge5" class="edge">
<title>logging&#45;&gt;tests2_helpers_test_logging</title><style>.edge>path:hover{stroke-width:8}</style>
<path fill="none" stroke="#ffffff" d="M60.36,-532.62C82.26,-531.37 113.77,-530.77 140.99,-534.83"/>
</g>
<!-- pathlib -->
<g id="node4" class="node">
<title>pathlib</title><style>.edge>path:hover{stroke-width:8}</style>
<ellipse fill="#aecc33" stroke="#ffffff" cx="268.49" cy="-412.83" rx="27" ry="18"/>
<text xml:space="preserve" text-anchor="middle" x="268.49" y="-409.33" font-family="Helvetica,sans-Serif" font-size="10.00" fill="#e0e0e0">pathlib</text>
</g>
<!-- pathlib&#45;&gt;src2_main -->
<g id="edge6" class="edge">
<title>pathlib&#45;&gt;src2_main</title><style>.edge>path:hover{stroke-width:8}</style>
<path fill="none" stroke="#ffffff" d="M293.9,-419.61C331.75,-428.73 405.95,-440.99 460.83,-414.83 511.96,-390.46 499.56,-354.36 541.08,-315.83"/>
</g>
<!-- pathlib&#45;&gt;tests2_helpers_test_logging -->
<g id="edge7" class="edge">
<title>pathlib&#45;&gt;tests2_helpers_test_logging</title><style>.edge>path:hover{stroke-width:8}</style>
<path fill="none" stroke="#ffffff" d="M290.13,-423.78C299.2,-429.27 309.55,-436.52 317.35,-444.83 339.15,-468.06 330.39,-484.73 353.35,-506.83 372.46,-525.24 380.2,-528.98 406.09,-534.83"/>
<path fill="none" stroke="#ffffff" d="M408.09,-534.83C477.12,-550.43 558.6,-554.86 612.5,-555.91"/>
<polygon fill="#aecc33" stroke="#ffffff" points="612.33,-559.41 622.39,-556.07 612.44,-552.41 612.33,-559.41"/>
</g>
<!-- pytest -->
<g id="node5" class="node">
<title>pytest</title><style>.edge>path:hover{stroke-width:8}</style>
<ellipse fill="#60c247" stroke="#ffffff" cx="268.49" cy="-580.83" rx="27" ry="18"/>
<text xml:space="preserve" text-anchor="middle" x="268.49" y="-577.33" font-family="Helvetica,sans-Serif" font-size="10.00" fill="#e0e0e0">pytest</text>
</g>
<!-- pytest&#45;&gt;tests2_conftest -->
<g id="edge8" class="edge">
<title>pytest&#45;&gt;tests2_conftest</title><style>.edge>path:hover{stroke-width:8}</style>
<path fill="none" stroke="#ffffff" d="M543.08,-588.83C602.65,-590.08 616.7,-603.79 671.65,-626.83"/>
<path fill="none" stroke="#ffffff" d="M673.65,-626.83C694.92,-635.75 703.9,-631.47 721.96,-645.83 767.11,-681.74 746.11,-782.74 795.44,-752.83"/>
</g>
<!-- pytest&#45;&gt;tests2_helpers_test_logging -->
<g id="edge9" class="edge">
<title>pytest&#45;&gt;tests2_helpers_test_logging</title><style>.edge>path:hover{stroke-width:8}</style>
<path fill="none" stroke="#ffffff" d="M543.08,-588.83C569.04,-589.08 597.05,-582.72 620.28,-575.52"/>
<polygon fill="#60c247" stroke="#ffffff" points="621.06,-578.94 629.49,-572.52 618.9,-572.29 621.06,-578.94"/>
<path fill="none" stroke="#ffffff" d="M295.7,-581.95C344.15,-583.94 450.99,-587.97 541.08,-588.83"/>
</g>
<!-- pytest_asyncio -->
<g id="node6" class="node">
<title>pytest_asyncio</title><style>.edge>path:hover{stroke-width:8}</style>
<ellipse fill="#53b67b" stroke="#ffffff" cx="672.65" cy="-752.83" rx="49.31" ry="18"/>
<text xml:space="preserve" text-anchor="middle" x="672.65" y="-749.33" font-family="Helvetica,sans-Serif" font-size="10.00" fill="#e0e0e0">pytest_asyncio</text>
</g>
<!-- pytest_asyncio&#45;&gt;tests2_conftest -->
<g id="edge10" class="edge">
<title>pytest_asyncio&#45;&gt;tests2_conftest</title><style>.edge>path:hover{stroke-width:8}</style>
<path fill="none" stroke="#ffffff" d="M714.06,-762.91C739.24,-766.88 771.33,-767.51 795.44,-752.83"/>
</g>
<!-- sqlalchemy -->
<g id="node7" class="node">
<title>sqlalchemy</title><style>.edge>path:hover{stroke-width:8}</style>
<ellipse fill="#24d0d0" stroke="#ffffff" cx="268.49" cy="-672.83" rx="39.39" ry="18"/>
<text xml:space="preserve" text-anchor="middle" x="268.49" y="-669.33" font-family="Helvetica,sans-Serif" font-size="10.00" fill="#e0e0e0">sqlalchemy</text>
</g>
<!-- sqlalchemy&#45;&gt;tests2_conftest -->
<g id="edge11" class="edge">
<title>sqlalchemy&#45;&gt;tests2_conftest</title><style>.edge>path:hover{stroke-width:8}</style>
<path fill="none" stroke="#ffffff" d="M543.08,-664.83C602.63,-662.89 616.7,-603.79 671.65,-626.83"/>
<path fill="none" stroke="#ffffff" d="M308.17,-671.77C360.85,-670.3 458.1,-667.53 541.08,-664.83"/>
</g>
<!-- tests2_utils_db_config -->
<g id="node21" class="node">
<title>tests2_utils_db_config</title><style>.edge>path:hover{stroke-width:8}</style>
<ellipse fill="#993ab0" stroke="#ffffff" cx="672.65" cy="-685.83" rx="41.01" ry="31.11"/>
<text xml:space="preserve" text-anchor="middle" x="672.65" y="-694.33" font-family="Helvetica,sans-Serif" font-size="10.00" fill="#e0e0e0">tests2.</text>
<text xml:space="preserve" text-anchor="middle" x="672.65" y="-682.33" font-family="Helvetica,sans-Serif" font-size="10.00" fill="#e0e0e0">utils.</text>
<text xml:space="preserve" text-anchor="middle" x="672.65" y="-670.33" font-family="Helvetica,sans-Serif" font-size="10.00" fill="#e0e0e0">db_config</text>
</g>
<!-- sqlalchemy&#45;&gt;tests2_utils_db_config -->
<g id="edge12" class="edge">
<title>sqlalchemy&#45;&gt;tests2_utils_db_config</title><style>.edge>path:hover{stroke-width:8}</style>
<path fill="none" stroke="#ffffff" d="M543.08,-664.83C569.5,-663.97 598.59,-668.27 622.41,-673.2"/>
<polygon fill="#24d0d0" stroke="#ffffff" points="621.65,-676.62 632.17,-675.33 623.14,-669.78 621.65,-676.62"/>
</g>
<!-- sqlalchemy_ext -->
<g id="node8" class="node">
<title>sqlalchemy_ext</title><style>.edge>path:hover{stroke-width:8}</style>
<ellipse fill="#40bfc0" stroke="#ffffff" cx="268.49" cy="-806.83" rx="48.86" ry="18"/>
<text xml:space="preserve" text-anchor="middle" x="268.49" y="-803.33" font-family="Helvetica,sans-Serif" font-size="10.00" fill="#e0e0e0">sqlalchemy.ext</text>
</g>
<!-- sqlalchemy_ext&#45;&gt;tests2_conftest -->
<g id="edge13" class="edge">
<title>sqlalchemy_ext&#45;&gt;tests2_conftest</title><style>.edge>path:hover{stroke-width:8}</style>
<path fill="none" stroke="#ffffff" d="M295.61,-822.24C368.55,-863.04 578.42,-965.26 721.96,-881.83 779,-848.67 739.12,-787.22 795.44,-752.83"/>
</g>
<!-- sqlalchemy_ext&#45;&gt;tests2_utils_db_config -->
<g id="edge14" class="edge">
<title>sqlalchemy_ext&#45;&gt;tests2_utils_db_config</title><style>.edge>path:hover{stroke-width:8}</style>
<path fill="none" stroke="#ffffff" d="M300.43,-792.76C327.6,-781.3 368.55,-766.17 406.09,-760.83"/>
</g>
<!-- sqlalchemy_ext_asyncio -->
<g id="node9" class="node">
<title>sqlalchemy_ext_asyncio</title><style>.edge>path:hover{stroke-width:8}</style>
<ellipse fill="#47c2c2" stroke="#ffffff" cx="268.49" cy="-739.83" rx="47.91" ry="31.11"/>
<text xml:space="preserve" text-anchor="middle" x="268.49" y="-748.33" font-family="Helvetica,sans-Serif" font-size="10.00" fill="#e0e0e0">sqlalchemy.</text>
<text xml:space="preserve" text-anchor="middle" x="268.49" y="-736.33" font-family="Helvetica,sans-Serif" font-size="10.00" fill="#e0e0e0">ext.</text>
<text xml:space="preserve" text-anchor="middle" x="268.49" y="-724.33" font-family="Helvetica,sans-Serif" font-size="10.00" fill="#e0e0e0">asyncio</text>
</g>
<!-- sqlalchemy_ext_asyncio&#45;&gt;tests2_conftest -->
<g id="edge15" class="edge">
<title>sqlalchemy_ext_asyncio&#45;&gt;tests2_conftest</title><style>.edge>path:hover{stroke-width:8}</style>
<path fill="none" stroke="#ffffff" d="M306.92,-759C321.09,-765.3 337.6,-771.52 353.35,-774.83 545.88,-815.25 627.22,-854.84 795.44,-752.83"/>
</g>
<!-- sqlalchemy_ext_asyncio&#45;&gt;tests2_utils_db_config -->
<g id="edge16" class="edge">
<title>sqlalchemy_ext_asyncio&#45;&gt;tests2_utils_db_config</title><style>.edge>path:hover{stroke-width:8}</style>
<path fill="none" stroke="#ffffff" d="M313.54,-751.1C340.19,-756.8 374.93,-762.23 406.09,-760.83"/>
<path fill="none" stroke="#ffffff" d="M408.09,-760.83C487.06,-757.28 574.57,-726.73 626.24,-705.74"/>
<polygon fill="#47c2c2" stroke="#ffffff" points="627.41,-709.04 635.31,-701.99 624.74,-702.57 627.41,-709.04"/>
</g>
<!-- src2 -->
<g id="node10" class="node">
<title>src2</title><style>.edge>path:hover{stroke-width:8}</style>
<ellipse fill="#166ff3" stroke="#ffffff" cx="32.17" cy="-250.83" rx="27" ry="18"/>
<text xml:space="preserve" text-anchor="middle" x="32.17" y="-247.33" font-family="Helvetica,sans-Serif" font-size="10.00" fill="#e0e0e0">src2</text>
</g>
<!-- src2&#45;&gt;tests2_conftest -->
<g id="edge17" class="edge">
<title>src2&#45;&gt;tests2_conftest</title><style>.edge>path:hover{stroke-width:8}</style>
<path fill="none" stroke="#ffffff" d="M797.44,-28.83C854.73,-63.57 889.8,-273.23 901.65,-356.64"/>
<polygon fill="#166ff3" stroke="#ffffff" points="898.18,-357.07 903.02,-366.5 905.11,-356.11 898.18,-357.07"/>
<path fill="none" stroke="#ffffff" d="M50.58,-237.18C82.31,-212.98 152.51,-162.6 219.63,-135.83 298.27,-104.47 321.55,-101.51 406.09,-96.83"/>
<path fill="none" stroke="#ffffff" d="M408.09,-96.83C449.31,-91 456.36,-76.63 496.83,-66.83 626.86,-35.35 681.04,40.54 795.44,-28.83"/>
</g>
<!-- tests2_helpers_config_test_config -->
<g id="node18" class="node">
<title>tests2_helpers_config_test_config</title><style>.edge>path:hover{stroke-width:8}</style>
<ellipse fill="#8b439d" stroke="#ffffff" cx="542.08" cy="-134.83" rx="45.25" ry="39.6"/>
<text xml:space="preserve" text-anchor="middle" x="542.08" y="-149.33" font-family="Helvetica,sans-Serif" font-size="10.00" fill="#e0e0e0">tests2.</text>
<text xml:space="preserve" text-anchor="middle" x="542.08" y="-137.33" font-family="Helvetica,sans-Serif" font-size="10.00" fill="#e0e0e0">helpers.</text>
<text xml:space="preserve" text-anchor="middle" x="542.08" y="-125.33" font-family="Helvetica,sans-Serif" font-size="10.00" fill="#e0e0e0">config.</text>
<text xml:space="preserve" text-anchor="middle" x="542.08" y="-113.33" font-family="Helvetica,sans-Serif" font-size="10.00" fill="#e0e0e0">test_config</text>
</g>
<!-- src2&#45;&gt;tests2_helpers_config_test_config -->
<g id="edge18" class="edge">
<title>src2&#45;&gt;tests2_helpers_config_test_config</title><style>.edge>path:hover{stroke-width:8}</style>
<path fill="none" stroke="#ffffff" d="M408.09,-96.83C436.28,-95.27 466.64,-103.16 491.22,-112.15"/>
<polygon fill="#166ff3" stroke="#ffffff" points="489.72,-115.33 500.31,-115.64 492.23,-108.79 489.72,-115.33"/>
</g>
<!-- src2&#45;&gt;tests2_helpers_test_logging -->
<g id="edge19" class="edge">
<title>src2&#45;&gt;tests2_helpers_test_logging</title><style>.edge>path:hover{stroke-width:8}</style>
<path fill="none" stroke="#ffffff" d="M38.48,-268.52C57.72,-328.61 130.02,-521.91 267.49,-534.83"/>
<path fill="none" stroke="#ffffff" d="M269.49,-534.83C330.14,-537.48 347.63,-518.44 406.09,-534.83"/>
</g>
<!-- src2_helpers -->
<g id="node11" class="node">
<title>src2_helpers</title><style>.edge>path:hover{stroke-width:8}</style>
<ellipse fill="#2271e7" stroke="#ffffff" cx="141.99" cy="-347.83" rx="41.64" ry="18"/>
<text xml:space="preserve" text-anchor="middle" x="141.99" y="-344.33" font-family="Helvetica,sans-Serif" font-size="10.00" fill="#e0e0e0">src2.helpers</text>
</g>
<!-- src2_helpers&#45;&gt;src2_main -->
<g id="edge20" class="edge">
<title>src2_helpers&#45;&gt;src2_main</title><style>.edge>path:hover{stroke-width:8}</style>
<path fill="none" stroke="#ffffff" d="M182.19,-342.87C233.58,-336.42 326.54,-324.89 406.09,-315.83"/>
<path fill="none" stroke="#ffffff" d="M408.09,-315.83C466.77,-308.8 497.48,-355.74 541.08,-315.83"/>
</g>
<!-- src2_helpers&#45;&gt;tests2_helpers_config_test_config -->
<g id="edge21" class="edge">
<title>src2_helpers&#45;&gt;tests2_helpers_config_test_config</title><style>.edge>path:hover{stroke-width:8}</style>
<path fill="none" stroke="#ffffff" d="M169.82,-333.98C174.99,-330.3 179.94,-325.9 183.63,-320.83 218.61,-272.67 175.55,-231.84 219.63,-191.83 220.25,-191.27 394.57,-160.57 486.21,-144.47"/>
<polygon fill="#2271e7" stroke="#ffffff" points="486.76,-147.92 496.01,-142.75 485.55,-141.03 486.76,-147.92"/>
</g>
<!-- src2_helpers&#45;&gt;tests2_helpers_test_logging -->
<g id="edge22" class="edge">
<title>src2_helpers&#45;&gt;tests2_helpers_test_logging</title><style>.edge>path:hover{stroke-width:8}</style>
<path fill="none" stroke="#ffffff" d="M155.97,-365.03C173.76,-388.32 205.17,-428.29 219.63,-439.83 292.31,-497.86 316.87,-508.57 406.09,-534.83"/>
</g>
<!-- src2_helpers_config -->
<g id="node12" class="node">
<title>src2_helpers_config</title><style>.edge>path:hover{stroke-width:8}</style>
<ellipse fill="#2f73db" stroke="#ffffff" cx="268.49" cy="-231.83" rx="35.71" ry="31.11"/>
<text xml:space="preserve" text-anchor="middle" x="268.49" y="-240.33" font-family="Helvetica,sans-Serif" font-size="10.00" fill="#e0e0e0">src2.</text>
<text xml:space="preserve" text-anchor="middle" x="268.49" y="-228.33" font-family="Helvetica,sans-Serif" font-size="10.00" fill="#e0e0e0">helpers.</text>
<text xml:space="preserve" text-anchor="middle" x="268.49" y="-216.33" font-family="Helvetica,sans-Serif" font-size="10.00" fill="#e0e0e0">config</text>
</g>
<!-- src2_helpers_config&#45;&gt;src2_helpers_logging_setup -->
<g id="edge23" class="edge">
<title>src2_helpers_config&#45;&gt;src2_helpers_logging_setup</title><style>.edge>path:hover{stroke-width:8}</style>
<path fill="none" stroke="#ffffff" d="M294.37,-253.29C302.09,-260.44 310.39,-268.68 317.35,-276.83 335.83,-298.49 334.34,-308.62 353.35,-329.83 357.16,-334.09 361.38,-338.32 365.72,-342.39"/>
<polygon fill="#2f73db" stroke="#ffffff" points="363.24,-344.86 373.01,-348.95 367.92,-339.66 363.24,-344.86"/>
</g>
<!-- src2_helpers_config&#45;&gt;src2_main -->
<g id="edge24" class="edge">
<title>src2_helpers_config&#45;&gt;src2_main</title><style>.edge>path:hover{stroke-width:8}</style>
<path fill="none" stroke="#ffffff" d="M408.09,-277.83C469.54,-276.28 496.02,-357.65 541.08,-315.83"/>
<path fill="none" stroke="#ffffff" d="M543.08,-315.83C608.56,-255.06 647.29,-153.21 663.18,-103.66"/>
<polygon fill="#2f73db" stroke="#ffffff" points="666.48,-104.83 666.12,-94.24 659.8,-102.75 666.48,-104.83"/>
</g>
<!-- src2_helpers_config&#45;&gt;tests2_helpers_config_test_config -->
<g id="edge25" class="edge">
<title>src2_helpers_config&#45;&gt;tests2_helpers_config_test_config</title><style>.edge>path:hover{stroke-width:8}</style>
<path fill="none" stroke="#ffffff" d="M408.09,-277.83C461.2,-276.49 499.13,-223.2 520.55,-182.07"/>
<polygon fill="#2f73db" stroke="#ffffff" points="523.61,-183.77 524.97,-173.26 517.36,-180.63 523.61,-183.77"/>
<path fill="none" stroke="#ffffff" d="M299.18,-248.51C326.23,-262.07 367.69,-278.8 406.09,-277.83"/>
</g>
<!-- src2_helpers_config_config -->
<g id="node13" class="node">
<title>src2_helpers_config_config</title><style>.edge>path:hover{stroke-width:8}</style>
<ellipse fill="#2f67bc" stroke="#ffffff" cx="141.99" cy="-271.83" rx="35.71" ry="39.6"/>
<text xml:space="preserve" text-anchor="middle" x="141.99" y="-286.33" font-family="Helvetica,sans-Serif" font-size="10.00" fill="#e0e0e0">src2.</text>
<text xml:space="preserve" text-anchor="middle" x="141.99" y="-274.33" font-family="Helvetica,sans-Serif" font-size="10.00" fill="#e0e0e0">helpers.</text>
<text xml:space="preserve" text-anchor="middle" x="141.99" y="-262.33" font-family="Helvetica,sans-Serif" font-size="10.00" fill="#e0e0e0">config.</text>
<text xml:space="preserve" text-anchor="middle" x="141.99" y="-250.33" font-family="Helvetica,sans-Serif" font-size="10.00" fill="#e0e0e0">config</text>
</g>
<!-- src2_helpers_config_config&#45;&gt;src2_helpers_logging_setup -->
<g id="edge26" class="edge">
<title>src2_helpers_config_config&#45;&gt;src2_helpers_logging_setup</title><style>.edge>path:hover{stroke-width:8}</style>
<path fill="none" stroke="#ffffff" d="M176.04,-284.77C220.07,-302.01 298.54,-332.73 351.44,-353.44"/>
<polygon fill="#2f67bc" stroke="#ffffff" points="350,-356.63 360.58,-357.02 352.55,-350.11 350,-356.63"/>
</g>
<!-- src2_helpers_config_config&#45;&gt;src2_main -->
<g id="edge27" class="edge">
<title>src2_helpers_config_config&#45;&gt;src2_main</title><style>.edge>path:hover{stroke-width:8}</style>
<path fill="none" stroke="#ffffff" d="M160.38,-237.46C173.57,-214.96 193.83,-186.87 219.63,-170.83 291.31,-126.27 322.33,-145.22 406.09,-134.83"/>
<path fill="none" stroke="#ffffff" d="M408.09,-134.83C433.34,-129.81 438.44,-123.56 460.83,-110.83 477.76,-101.2 478.43,-92.23 496.83,-85.83 538.94,-71.17 590.16,-69.7 626.24,-71.11"/>
<polygon fill="#2f67bc" stroke="#ffffff" points="625.73,-74.59 635.89,-71.59 626.07,-67.6 625.73,-74.59"/>
</g>
<!-- src2_helpers_config_config&#45;&gt;tests2_helpers_config_test_config -->
<g id="edge28" class="edge">
<title>src2_helpers_config_config&#45;&gt;tests2_helpers_config_test_config</title><style>.edge>path:hover{stroke-width:8}</style>
<path fill="none" stroke="#ffffff" d="M408.09,-134.83C433.29,-131.71 461.39,-131.27 485.24,-131.78"/>
<polygon fill="#2f67bc" stroke="#ffffff" points="484.97,-135.27 495.07,-132.06 485.17,-128.28 484.97,-135.27"/>
</g>
<!-- src2_helpers_logging_setup&#45;&gt;src2_main -->
<g id="edge29" class="edge">
<title>src2_helpers_logging_setup&#45;&gt;src2_main</title><style>.edge>path:hover{stroke-width:8}</style>
<path fill="none" stroke="#ffffff" d="M456.49,-361.93C483.87,-352.69 517.29,-337.91 541.08,-315.83"/>
</g>
<!-- src2_helpers_logging_setup&#45;&gt;tests2_helpers_test_logging -->
<g id="edge30" class="edge">
<title>src2_helpers_logging_setup&#45;&gt;tests2_helpers_test_logging</title><style>.edge>path:hover{stroke-width:8}</style>
<path fill="none" stroke="#ffffff" d="M442.54,-398.49C490.62,-431.51 577.74,-491.34 629.59,-526.95"/>
<polygon fill="#335c99" stroke="#ffffff" points="627.37,-529.67 637.59,-532.44 631.33,-523.9 627.37,-529.67"/>
</g>
<!-- src2_main&#45;&gt;tests2_conftest -->
<g id="edge31" class="edge">
<title>src2_main&#45;&gt;tests2_conftest</title><style>.edge>path:hover{stroke-width:8}</style>
<path fill="none" stroke="#ffffff" d="M696.65,-61.29C726.95,-44.27 778.38,-18.49 795.44,-28.83"/>
</g>
<!-- structlog -->
<g id="node16" class="node">
<title>structlog</title><style>.edge>path:hover{stroke-width:8}</style>
<ellipse fill="#4a26d9" stroke="#ffffff" cx="32.17" cy="-467.83" rx="32.17" ry="18"/>
<text xml:space="preserve" text-anchor="middle" x="32.17" y="-464.33" font-family="Helvetica,sans-Serif" font-size="10.00" fill="#e0e0e0">structlog</text>
</g>
<!-- structlog&#45;&gt;src2_helpers_logging_setup -->
<g id="edge32" class="edge">
<title>structlog&#45;&gt;src2_helpers_logging_setup</title><style>.edge>path:hover{stroke-width:8}</style>
<path fill="none" stroke="#ffffff" d="M269.49,-366.83C293.48,-357.23 321.74,-357.23 346.32,-360.41"/>
<polygon fill="#4a26d9" stroke="#ffffff" points="345.77,-363.86 356.19,-361.9 346.82,-356.94 345.77,-363.86"/>
</g>
<!-- structlog&#45;&gt;src2_main -->
<g id="edge33" class="edge">
<title>structlog&#45;&gt;src2_main</title><style>.edge>path:hover{stroke-width:8}</style>
<path fill="none" stroke="#ffffff" d="M269.49,-366.83C299.57,-354.79 373.91,-319.69 406.09,-315.83"/>
<path fill="none" stroke="#ffffff" d="M57.78,-456.67C93.34,-440.61 161.23,-410.25 219.63,-385.83 240.74,-377 246.24,-375.34 267.49,-366.83"/>
</g>
<!-- structlog&#45;&gt;tests2_helpers_test_logging -->
<g id="edge34" class="edge">
<title>structlog&#45;&gt;tests2_helpers_test_logging</title><style>.edge>path:hover{stroke-width:8}</style>
<path fill="none" stroke="#ffffff" d="M142.99,-534.83C197.71,-542.99 212.4,-529.65 267.49,-534.83"/>
<path fill="none" stroke="#ffffff" d="M48.95,-483.56C68.55,-501.57 103.93,-529.3 140.99,-534.83"/>
</g>
<!-- tests2_utils -->
<g id="node20" class="node">
<title>tests2_utils</title><style>.edge>path:hover{stroke-width:8}</style>
<ellipse fill="#a947c2" stroke="#ffffff" cx="796.44" cy="-390.83" rx="38.49" ry="18"/>
<text xml:space="preserve" text-anchor="middle" x="796.44" y="-387.33" font-family="Helvetica,sans-Serif" font-size="10.00" fill="#e0e0e0">tests2.utils</text>
</g>
<!-- tests2_utils&#45;&gt;tests2_conftest -->
<g id="edge35" class="edge">
<title>tests2_utils&#45;&gt;tests2_conftest</title><style>.edge>path:hover{stroke-width:8}</style>
<path fill="none" stroke="#ffffff" d="M835.16,-390.83C843,-390.83 851.35,-390.83 859.46,-390.83"/>
<polygon fill="#a947c2" stroke="#ffffff" points="859.19,-394.33 869.19,-390.83 859.19,-387.33 859.19,-394.33"/>
</g>
<!-- tests2_utils_db_config&#45;&gt;tests2_conftest -->
<g id="edge36" class="edge">
<title>tests2_utils_db_config&#45;&gt;tests2_conftest</title><style>.edge>path:hover{stroke-width:8}</style>
<path fill="none" stroke="#ffffff" d="M701.33,-708.29C731.64,-731.6 778.23,-763.31 795.44,-752.83"/>
</g>
<!-- typing -->
<g id="node22" class="node">
<title>typing</title><style>.edge>path:hover{stroke-width:8}</style>
<ellipse fill="#ce3b93" stroke="#ffffff" cx="141.99" cy="-580.83" rx="27" ry="18"/>
<text xml:space="preserve" text-anchor="middle" x="141.99" y="-577.33" font-family="Helvetica,sans-Serif" font-size="10.00" fill="#e0e0e0">typing</text>
</g>
<!-- typing&#45;&gt;sqlalchemy -->
<g id="edge37" class="edge">
<title>typing&#45;&gt;sqlalchemy</title><style>.edge>path:hover{stroke-width:8}</style>
<path fill="none" stroke="#ffffff" d="M159.75,-594.55C175.1,-606.95 198.55,-625.57 219.63,-640.83 224.69,-644.49 230.13,-648.28 235.47,-651.9"/>
<polygon fill="#ce3b93" stroke="#ffffff" points="233.34,-654.69 243.59,-657.35 237.24,-648.88 233.34,-654.69"/>
</g>
<!-- typing&#45;&gt;tests2_conftest -->
<g id="edge38" class="edge">
<title>typing&#45;&gt;tests2_conftest</title><style>.edge>path:hover{stroke-width:8}</style>
<path fill="none" stroke="#ffffff" d="M164.97,-590.54C180.03,-596.7 200.65,-604.17 219.63,-607.83 318.35,-626.85 578.93,-587.95 671.65,-626.83"/>
</g>
<!-- typing&#45;&gt;tests2_helpers_test_logging -->
<g id="edge39" class="edge">
<title>typing&#45;&gt;tests2_helpers_test_logging</title><style>.edge>path:hover{stroke-width:8}</style>
<path fill="none" stroke="#ffffff" d="M161.66,-568.02C185.39,-553.16 228.03,-531.12 267.49,-534.83"/>
</g>
</g>
</svg>

