<?xml version="1.0" encoding="UTF-8" standalone="no"?>
<!DOCTYPE svg PUBLIC "-//W3C//DTD SVG 1.1//EN"
 "http://www.w3.org/Graphics/SVG/1.1/DTD/svg11.dtd">
<!-- Generated by graphviz version 15.1.0 (20260618.0150)
 -->
<!-- Title: G Pages: 1 -->
<svg style="background-color:#141414" width="1684pt" height="946pt"
 viewBox="0.00 0.00 1684.00 946.00" xmlns="http://www.w3.org/2000/svg" xmlns:xlink="http://www.w3.org/1999/xlink">
<g id="graph0" class="graph" transform="scale(1 1) rotate(0) translate(4 942)">
<title>G</title><style>.edge>path:hover{stroke-width:8}</style>
<polygon fill="#141414" stroke="none" points="-4,4 -4,-942 1680.24,-942 1680.24,4 -4,4"/>
<!-- annotated_doc -->
<g id="node1" class="node">
<title>annotated_doc</title><style>.edge>path:hover{stroke-width:8}</style>
<polygon fill="#f90606" stroke="#ffffff" points="1086,-532 1083,-536 1062,-536 1059,-532 1006.25,-532 1006.25,-496 1086,-496 1086,-532"/>
<text xml:space="preserve" text-anchor="middle" x="1046.12" y="-510.5" font-family="Helvetica,sans-Serif" font-size="10.00" fill="#e0e0e0">annotated_doc</text>
</g>
<!-- fastapi -->
<g id="node8" class="node">
<title>fastapi</title><style>.edge>path:hover{stroke-width:8}</style>
<polygon fill="#5a5a5a" stroke="#ffffff" points="1285.25,-532 1282.25,-536 1261.25,-536 1258.25,-532 1231.25,-532 1231.25,-496 1285.25,-496 1285.25,-532"/>
<text xml:space="preserve" text-anchor="middle" x="1258.25" y="-510.5" font-family="Helvetica,sans-Serif" font-size="10.00" fill="#e0e0e0">fastapi</text>
</g>
<!-- annotated_doc&#45;&gt;fastapi -->
<g id="edge1" class="edge">
<title>annotated_doc&#45;&gt;fastapi</title><style>.edge>path:hover{stroke-width:8}</style>
<path fill="none" stroke="#ffffff" d="M1068.49,-495.52C1088.22,-480.65 1118.79,-462.98 1148,-468"/>
</g>
<!-- annotated_types -->
<g id="node2" class="node">
<title>annotated_types</title><style>.edge>path:hover{stroke-width:8}</style>
<polygon fill="#d94626" stroke="#ffffff" points="308.75,-348 305.75,-352 284.75,-352 281.75,-348 220.75,-348 220.75,-312 308.75,-312 308.75,-348"/>
<text xml:space="preserve" text-anchor="middle" x="264.75" y="-326.5" font-family="Helvetica,sans-Serif" font-size="10.00" fill="#e0e0e0">annotated_types</text>
</g>
<!-- pydantic -->
<g id="node17" class="node">
<title>pydantic</title><style>.edge>path:hover{stroke-width:8}</style>
<polygon fill="#5a5a5a" stroke="#ffffff" points="964.5,-362 961.5,-366 940.5,-366 937.5,-362 910.5,-362 910.5,-326 964.5,-326 964.5,-362"/>
<text xml:space="preserve" text-anchor="middle" x="937.5" y="-340.5" font-family="Helvetica,sans-Serif" font-size="10.00" fill="#e0e0e0">pydantic</text>
</g>
<!-- annotated_types&#45;&gt;pydantic -->
<g id="edge2" class="edge">
<title>annotated_types&#45;&gt;pydantic</title><style>.edge>path:hover{stroke-width:8}</style>
<path fill="none" stroke="#ffffff" d="M825.75,-352C850.07,-348.58 877.62,-346.58 899.15,-345.44"/>
<polygon fill="#d94626" stroke="#ffffff" points="899.11,-348.94 908.93,-344.96 898.77,-341.95 899.11,-348.94"/>
<path fill="none" stroke="#ffffff" d="M309.11,-330C353.44,-330 424.27,-330 485.5,-330 485.5,-330 485.5,-330 587.88,-330 640.52,-330 771.62,-359.34 823.75,-352"/>
</g>
<!-- anyio -->
<g id="node3" class="node">
<title>anyio</title><style>.edge>path:hover{stroke-width:8}</style>
<polygon fill="#5a5a5a" stroke="#ffffff" points="407.5,-670 404.5,-674 383.5,-674 380.5,-670 353.5,-670 353.5,-634 407.5,-634 407.5,-670"/>
<text xml:space="preserve" text-anchor="middle" x="380.5" y="-648.5" font-family="Helvetica,sans-Serif" font-size="10.00" fill="#e0e0e0">anyio</text>
</g>
<!-- anyio&#45;&gt;fastapi -->
<g id="edge3" class="edge">
<title>anyio&#45;&gt;fastapi</title><style>.edge>path:hover{stroke-width:8}</style>
<path fill="none" stroke="#ffffff" d="M1047.12,-674C1089.9,-660.57 1106.61,-691.23 1148,-674"/>
</g>
<!-- starlette -->
<g id="node25" class="node">
<title>starlette</title><style>.edge>path:hover{stroke-width:8}</style>
<polygon fill="#6510f9" stroke="#ffffff" points="1176,-578 1173,-582 1152,-582 1149,-578 1122,-578 1122,-542 1176,-542 1176,-578"/>
<text xml:space="preserve" text-anchor="middle" x="1149" y="-556.5" font-family="Helvetica,sans-Serif" font-size="10.00" fill="#e0e0e0">starlette</text>
</g>
<!-- anyio&#45;&gt;starlette -->
<g id="edge4" class="edge">
<title>anyio&#45;&gt;starlette</title><style>.edge>path:hover{stroke-width:8}</style>
<path fill="none" stroke="#ffffff" d="M407.67,-654.83C515,-666.14 921.52,-705.95 1045.12,-674"/>
<path fill="none" stroke="#ffffff" d="M1047.12,-674C1088.67,-660.96 1118.52,-617.48 1134.53,-588.15"/>
<polygon fill="#5a5a5a" stroke="#ffffff" points="1137.56,-589.89 1139.09,-579.41 1131.36,-586.65 1137.56,-589.89"/>
</g>
<!-- watchfiles -->
<g id="node31" class="node">
<title>watchfiles</title><style>.edge>path:hover{stroke-width:8}</style>
<polygon fill="#9d4374" stroke="#ffffff" points="617,-865 614,-869 593,-869 590,-865 556.75,-865 556.75,-829 617,-829 617,-865"/>
<text xml:space="preserve" text-anchor="middle" x="586.88" y="-843.5" font-family="Helvetica,sans-Serif" font-size="10.00" fill="#e0e0e0">watchfiles</text>
</g>
<!-- anyio&#45;&gt;watchfiles -->
<g id="edge5" class="edge">
<title>anyio&#45;&gt;watchfiles</title><style>.edge>path:hover{stroke-width:8}</style>
<path fill="none" stroke="#ffffff" d="M389.78,-670.22C396.91,-685.99 407.41,-709.43 416.25,-730 432.77,-768.45 420.23,-790.05 452.25,-817 477.99,-838.67 516.1,-845.55 545.04,-847.37"/>
<polygon fill="#5a5a5a" stroke="#ffffff" points="544.77,-850.86 554.91,-847.79 545.07,-843.86 544.77,-850.86"/>
</g>
<!-- attr -->
<g id="node4" class="node">
<title>attr</title><style>.edge>path:hover{stroke-width:8}</style>
<polygon fill="#5a5a5a" stroke="#ffffff" points="407.5,-210 404.5,-214 383.5,-214 380.5,-210 353.5,-210 353.5,-174 407.5,-174 407.5,-210"/>
<text xml:space="preserve" text-anchor="middle" x="380.5" y="-188.5" font-family="Helvetica,sans-Serif" font-size="10.00" fill="#e0e0e0">attr</text>
</g>
<!-- rich -->
<g id="node22" class="node">
<title>rich</title><style>.edge>path:hover{stroke-width:8}</style>
<polygon fill="#5a5a5a" stroke="#ffffff" points="613.88,-134 610.88,-138 589.88,-138 586.88,-134 559.88,-134 559.88,-98 613.88,-98 613.88,-134"/>
<text xml:space="preserve" text-anchor="middle" x="586.88" y="-112.5" font-family="Helvetica,sans-Serif" font-size="10.00" fill="#e0e0e0">rich</text>
</g>
<!-- attr&#45;&gt;rich -->
<g id="edge6" class="edge">
<title>attr&#45;&gt;rich</title><style>.edge>path:hover{stroke-width:8}</style>
<path fill="none" stroke="#ffffff" d="M407.91,-173.51C428.14,-161.09 457.28,-146.83 485.5,-146"/>
</g>
<!-- click -->
<g id="node5" class="node">
<title>click</title><style>.edge>path:hover{stroke-width:8}</style>
<polygon fill="#5a5a5a" stroke="#ffffff" points="613.88,-773 610.88,-777 589.88,-777 586.88,-773 559.88,-773 559.88,-737 613.88,-737 613.88,-773"/>
<text xml:space="preserve" text-anchor="middle" x="586.88" y="-751.5" font-family="Helvetica,sans-Serif" font-size="10.00" fill="#e0e0e0">click</text>
</g>
<!-- uvicorn -->
<g id="node30" class="node">
<title>uvicorn</title><style>.edge>path:hover{stroke-width:8}</style>
<polygon fill="#5a5a5a" stroke="#ffffff" points="964.5,-738 961.5,-742 940.5,-742 937.5,-738 910.5,-738 910.5,-702 964.5,-702 964.5,-738"/>
<text xml:space="preserve" text-anchor="middle" x="937.5" y="-716.5" font-family="Helvetica,sans-Serif" font-size="10.00" fill="#e0e0e0">uvicorn</text>
</g>
<!-- click&#45;&gt;uvicorn -->
<g id="edge7" class="edge">
<title>click&#45;&gt;uvicorn</title><style>.edge>path:hover{stroke-width:8}</style>
<path fill="none" stroke="#ffffff" d="M614.17,-772.92C635.69,-785.83 667.45,-801 697.88,-801"/>
</g>
<!-- colorama -->
<g id="node6" class="node">
<title>colorama</title><style>.edge>path:hover{stroke-width:8}</style>
<polygon fill="#5a5a5a" stroke="#ffffff" points="408.38,-575 405.38,-579 384.38,-579 381.38,-575 352.62,-575 352.62,-539 408.38,-539 408.38,-575"/>
<text xml:space="preserve" text-anchor="middle" x="380.5" y="-553.5" font-family="Helvetica,sans-Serif" font-size="10.00" fill="#e0e0e0">colorama</text>
</g>
<!-- colorama&#45;&gt;click -->
<g id="edge8" class="edge">
<title>colorama&#45;&gt;click</title><style>.edge>path:hover{stroke-width:8}</style>
<path fill="none" stroke="#ffffff" d="M407.35,-575.39C436.47,-596.72 484.46,-633.73 520.75,-671 537.91,-688.62 554.86,-710.67 567.16,-727.76"/>
<polygon fill="#5a5a5a" stroke="#ffffff" points="563.98,-729.31 572.62,-735.44 569.69,-725.26 563.98,-729.31"/>
</g>
<!-- structlog -->
<g id="node26" class="node">
<title>structlog</title><style>.edge>path:hover{stroke-width:8}</style>
<polygon fill="#5a5a5a" stroke="#ffffff" points="851.75,-80 848.75,-84 827.75,-84 824.75,-80 797.75,-80 797.75,-44 851.75,-44 851.75,-80"/>
<text xml:space="preserve" text-anchor="middle" x="824.75" y="-58.5" font-family="Helvetica,sans-Serif" font-size="10.00" fill="#e0e0e0">structlog</text>
</g>
<!-- colorama&#45;&gt;structlog -->
<g id="edge9" class="edge">
<title>colorama&#45;&gt;structlog</title><style>.edge>path:hover{stroke-width:8}</style>
<path fill="none" stroke="#ffffff" d="M400.55,-538.63C405.96,-532.93 411.63,-526.44 416.25,-520 542.15,-344.52 497.01,-203.34 697.88,-124"/>
</g>
<!-- dotenv -->
<g id="node7" class="node">
<title>dotenv</title><style>.edge>path:hover{stroke-width:8}</style>
<polygon fill="#b7c431" stroke="#ffffff" points="613.88,-302 610.88,-306 589.88,-306 586.88,-302 559.88,-302 559.88,-266 613.88,-266 613.88,-302"/>
<text xml:space="preserve" text-anchor="middle" x="586.88" y="-280.5" font-family="Helvetica,sans-Serif" font-size="10.00" fill="#e0e0e0">dotenv</text>
</g>
<!-- dotenv&#45;&gt;pydantic -->
<g id="edge10" class="edge">
<title>dotenv&#45;&gt;pydantic</title><style>.edge>path:hover{stroke-width:8}</style>
<path fill="none" stroke="#ffffff" d="M614.09,-280.04C636.38,-277.16 669.22,-274.09 697.88,-276"/>
</g>
<!-- pydantic_settings -->
<g id="node19" class="node">
<title>pydantic_settings</title><style>.edge>path:hover{stroke-width:8}</style>
<polygon fill="#5a5a5a" stroke="#ffffff" points="1304.5,-342 1301.5,-346 1280.5,-346 1277.5,-342 1212,-342 1212,-306 1304.5,-306 1304.5,-342"/>
<text xml:space="preserve" text-anchor="middle" x="1258.25" y="-320.5" font-family="Helvetica,sans-Serif" font-size="10.00" fill="#e0e0e0">pydantic_settings</text>
</g>
<!-- dotenv&#45;&gt;pydantic_settings -->
<g id="edge11" class="edge">
<title>dotenv&#45;&gt;pydantic_settings</title><style>.edge>path:hover{stroke-width:8}</style>
<path fill="none" stroke="#ffffff" d="M614.31,-272.89C625.95,-268.57 639.93,-264.15 653,-262 747.62,-246.45 775.71,-238.81 868.75,-262 901.84,-270.24 905.18,-284.52 936.5,-298"/>
</g>
<!-- dotenv&#45;&gt;uvicorn -->
<g id="edge12" class="edge">
<title>dotenv&#45;&gt;uvicorn</title><style>.edge>path:hover{stroke-width:8}</style>
<path fill="none" stroke="#ffffff" d="M591.95,-302.45C606.21,-367.04 653,-579 653,-579 709.79,-630.04 756.84,-561.21 823.75,-598"/>
</g>
<!-- main_py -->
<g id="node13" class="node">
<title>main_py</title><style>.edge>path:hover{stroke-width:8}</style>
<ellipse fill="#35633e" stroke="#ffffff" cx="1645.87" cy="-309" rx="30.37" ry="18"/>
<text xml:space="preserve" text-anchor="middle" x="1645.87" y="-305.5" font-family="Helvetica,sans-Serif" font-size="10.00" fill="#e0e0e0">main.py</text>
</g>
<!-- fastapi&#45;&gt;main_py -->
<g id="edge13" class="edge">
<title>fastapi&#45;&gt;main_py</title><style>.edge>path:hover{stroke-width:8}</style>
<path fill="none" stroke="#ffffff" d="M1479.5,-385C1515.9,-361.01 1498.04,-312.4 1541.5,-309"/>
<path fill="none" stroke="#ffffff" d="M1415.5,-385C1440.14,-372.67 1454.49,-400.16 1477.5,-385"/>
</g>
<!-- src -->
<g id="node24" class="node">
<title>src</title><style>.edge>path:hover{stroke-width:8}</style>
<polygon fill="#3a10f9" stroke="#ffffff" points="1505.5,-327 1502.5,-331 1481.5,-331 1478.5,-327 1451.5,-327 1451.5,-291 1505.5,-291 1505.5,-327"/>
<text xml:space="preserve" text-anchor="middle" x="1478.5" y="-305.5" font-family="Helvetica,sans-Serif" font-size="10.00" fill="#e0e0e0">src</text>
</g>
<!-- fastapi&#45;&gt;src -->
<g id="edge14" class="edge">
<title>fastapi&#45;&gt;src</title><style>.edge>path:hover{stroke-width:8}</style>
<path fill="none" stroke="#ffffff" d="M1415.5,-385C1438.52,-378.64 1454.93,-356.44 1465.06,-337.66"/>
<polygon fill="#5a5a5a" stroke="#ffffff" points="1468.15,-339.29 1469.49,-328.78 1461.89,-336.16 1468.15,-339.29"/>
<path fill="none" stroke="#ffffff" d="M1272.47,-495.74C1296.46,-464.55 1350.66,-402.64 1414.5,-385"/>
</g>
<!-- greenlet -->
<g id="node9" class="node">
<title>greenlet</title><style>.edge>path:hover{stroke-width:8}</style>
<polygon fill="#86cc33" stroke="#ffffff" points="613.88,-80 610.88,-84 589.88,-84 586.88,-80 559.88,-80 559.88,-44 613.88,-44 613.88,-80"/>
<text xml:space="preserve" text-anchor="middle" x="586.88" y="-58.5" font-family="Helvetica,sans-Serif" font-size="10.00" fill="#e0e0e0">greenlet</text>
</g>
<!-- sqlalchemy -->
<g id="node23" class="node">
<title>sqlalchemy</title><style>.edge>path:hover{stroke-width:8}</style>
<polygon fill="#5a5a5a" stroke="#ffffff" points="970.25,-270 967.25,-274 946.25,-274 943.25,-270 904.75,-270 904.75,-234 970.25,-234 970.25,-270"/>
<text xml:space="preserve" text-anchor="middle" x="937.5" y="-248.5" font-family="Helvetica,sans-Serif" font-size="10.00" fill="#e0e0e0">sqlalchemy</text>
</g>
<!-- greenlet&#45;&gt;sqlalchemy -->
<g id="edge15" class="edge">
<title>greenlet&#45;&gt;sqlalchemy</title><style>.edge>path:hover{stroke-width:8}</style>
<path fill="none" stroke="#ffffff" d="M825.75,-108C845.07,-115.94 854.33,-111.88 868.75,-127 899.35,-159.06 880.63,-182.82 904.75,-220 905.93,-221.82 907.23,-223.63 908.61,-225.39"/>
<polygon fill="#86cc33" stroke="#ffffff" points="905.76,-227.45 914.96,-232.7 911.04,-222.86 905.76,-227.45"/>
<path fill="none" stroke="#ffffff" d="M699.88,-86C755.5,-91.67 772.03,-86.74 823.75,-108"/>
</g>
<!-- greenlet&#45;&gt;structlog -->
<g id="edge16" class="edge">
<title>greenlet&#45;&gt;structlog</title><style>.edge>path:hover{stroke-width:8}</style>
<path fill="none" stroke="#ffffff" d="M614.28,-69.53C636.39,-75.4 668.9,-83.05 697.88,-86"/>
<path fill="none" stroke="#ffffff" d="M699.88,-86C729.22,-88.99 761.98,-82.19 786.43,-75.08"/>
<polygon fill="#86cc33" stroke="#ffffff" points="787.4,-78.44 795.93,-72.16 785.34,-71.75 787.4,-78.44"/>
</g>
<!-- h11 -->
<g id="node10" class="node">
<title>h11</title><style>.edge>path:hover{stroke-width:8}</style>
<polygon fill="#589933" stroke="#ffffff" points="513.5,-716 510.5,-720 489.5,-720 486.5,-716 459.5,-716 459.5,-680 513.5,-680 513.5,-716"/>
<text xml:space="preserve" text-anchor="middle" x="486.5" y="-694.5" font-family="Helvetica,sans-Serif" font-size="10.00" fill="#e0e0e0">h11</text>
</g>
<!-- h11&#45;&gt;uvicorn -->
<g id="edge17" class="edge">
<title>h11&#45;&gt;uvicorn</title><style>.edge>path:hover{stroke-width:8}</style>
<path fill="none" stroke="#ffffff" d="M699.88,-801C774.2,-801 854.92,-764.79 900.25,-740.79"/>
<polygon fill="#589933" stroke="#ffffff" points="901.72,-743.98 908.85,-736.15 898.39,-737.82 901.72,-743.98"/>
<path fill="none" stroke="#ffffff" d="M513.9,-700.2C541.07,-703.33 583.96,-710.76 617,-728 659.93,-750.4 649.75,-806.33 697.88,-801"/>
</g>
<!-- httptools -->
<g id="node11" class="node">
<title>httptools</title><style>.edge>path:hover{stroke-width:8}</style>
<polygon fill="#50b03a" stroke="#ffffff" points="513.5,-808 510.5,-812 489.5,-812 486.5,-808 459.5,-808 459.5,-772 513.5,-772 513.5,-808"/>
<text xml:space="preserve" text-anchor="middle" x="486.5" y="-786.5" font-family="Helvetica,sans-Serif" font-size="10.00" fill="#e0e0e0">httptools</text>
</g>
<!-- httptools&#45;&gt;uvicorn -->
<g id="edge18" class="edge">
<title>httptools&#45;&gt;uvicorn</title><style>.edge>path:hover{stroke-width:8}</style>
<path fill="none" stroke="#ffffff" d="M513.83,-794.24C553.76,-800.03 631.96,-808.84 697.88,-801"/>
</g>
<!-- idna -->
<g id="node12" class="node">
<title>idna</title><style>.edge>path:hover{stroke-width:8}</style>
<polygon fill="#5a5a5a" stroke="#ffffff" points="54,-670 51,-674 30,-674 27,-670 0,-670 0,-634 54,-634 54,-670"/>
<text xml:space="preserve" text-anchor="middle" x="27" y="-648.5" font-family="Helvetica,sans-Serif" font-size="10.00" fill="#e0e0e0">idna</text>
</g>
<!-- idna&#45;&gt;anyio -->
<g id="edge19" class="edge">
<title>idna&#45;&gt;anyio</title><style>.edge>path:hover{stroke-width:8}</style>
<path fill="none" stroke="#ffffff" d="M54.42,-652C116.28,-652 270.66,-652 342.12,-652"/>
<polygon fill="#5a5a5a" stroke="#ffffff" points="341.74,-655.5 351.74,-652 341.74,-648.5 341.74,-655.5"/>
</g>
<!-- markdown_it -->
<g id="node14" class="node">
<title>markdown_it</title><style>.edge>path:hover{stroke-width:8}</style>
<polygon fill="#5a5a5a" stroke="#ffffff" points="416.25,-64 413.25,-68 392.25,-68 389.25,-64 344.75,-64 344.75,-28 416.25,-28 416.25,-64"/>
<text xml:space="preserve" text-anchor="middle" x="380.5" y="-42.5" font-family="Helvetica,sans-Serif" font-size="10.00" fill="#e0e0e0">markdown_it</text>
</g>
<!-- markdown_it&#45;&gt;rich -->
<g id="edge20" class="edge">
<title>markdown_it&#45;&gt;rich</title><style>.edge>path:hover{stroke-width:8}</style>
<path fill="none" stroke="#ffffff" d="M406.18,-64.43C409.63,-67.22 413.08,-70.13 416.25,-73 449.39,-103.03 440.8,-147.31 485.5,-146"/>
<path fill="none" stroke="#ffffff" d="M487.5,-146C508.34,-145.39 530.64,-139.09 548.72,-132.43"/>
<polygon fill="#5a5a5a" stroke="#ffffff" points="549.93,-135.71 557.98,-128.82 547.39,-129.19 549.93,-135.71"/>
</g>
<!-- mdurl -->
<g id="node15" class="node">
<title>mdurl</title><style>.edge>path:hover{stroke-width:8}</style>
<polygon fill="#5a5a5a" stroke="#ffffff" points="54,-64 51,-68 30,-68 27,-64 0,-64 0,-28 54,-28 54,-64"/>
<text xml:space="preserve" text-anchor="middle" x="27" y="-42.5" font-family="Helvetica,sans-Serif" font-size="10.00" fill="#e0e0e0">mdurl</text>
</g>
<!-- mdurl&#45;&gt;markdown_it -->
<g id="edge21" class="edge">
<title>mdurl&#45;&gt;markdown_it</title><style>.edge>path:hover{stroke-width:8}</style>
<path fill="none" stroke="#ffffff" d="M54.42,-46C113.75,-46 258.21,-46 332.97,-46"/>
<polygon fill="#5a5a5a" stroke="#ffffff" points="332.83,-49.5 342.83,-46 332.83,-42.5 332.83,-49.5"/>
</g>
<!-- multipart -->
<g id="node16" class="node">
<title>multipart</title><style>.edge>path:hover{stroke-width:8}</style>
<polygon fill="#33cca2" stroke="#ffffff" points="964.5,-568 961.5,-572 940.5,-572 937.5,-568 910.5,-568 910.5,-532 964.5,-532 964.5,-568"/>
<text xml:space="preserve" text-anchor="middle" x="937.5" y="-546.5" font-family="Helvetica,sans-Serif" font-size="10.00" fill="#e0e0e0">multipart</text>
</g>
<!-- multipart&#45;&gt;fastapi -->
<g id="edge22" class="edge">
<title>multipart&#45;&gt;fastapi</title><style>.edge>path:hover{stroke-width:8}</style>
<path fill="none" stroke="#ffffff" d="M964.92,-556.24C986.58,-560.46 1017.98,-564.5 1045.12,-560"/>
<path fill="none" stroke="#ffffff" d="M1047.12,-560C1066.1,-556.85 1070.82,-552.8 1086,-541 1119.61,-514.88 1106.05,-460.79 1148,-468"/>
</g>
<!-- multipart&#45;&gt;starlette -->
<g id="edge23" class="edge">
<title>multipart&#45;&gt;starlette</title><style>.edge>path:hover{stroke-width:8}</style>
<path fill="none" stroke="#ffffff" d="M1047.12,-560C1067.87,-556.56 1091.35,-556.35 1110.43,-557.09"/>
<polygon fill="#33cca2" stroke="#ffffff" points="1110.01,-560.57 1120.17,-557.58 1110.36,-553.58 1110.01,-560.57"/>
</g>
<!-- pydantic&#45;&gt;fastapi -->
<g id="edge24" class="edge">
<title>pydantic&#45;&gt;fastapi</title><style>.edge>path:hover{stroke-width:8}</style>
<path fill="none" stroke="#ffffff" d="M1150,-468C1174.83,-472.26 1200.83,-483.24 1221.02,-493.4"/>
<polygon fill="#5a5a5a" stroke="#ffffff" points="1219.18,-496.38 1229.67,-497.89 1222.41,-490.17 1219.18,-496.38"/>
<path fill="none" stroke="#ffffff" d="M1047.12,-354C1113.23,-368.38 1081.32,-456.55 1148,-468"/>
</g>
<!-- pydantic&#45;&gt;pydantic_settings -->
<g id="edge25" class="edge">
<title>pydantic&#45;&gt;pydantic_settings</title><style>.edge>path:hover{stroke-width:8}</style>
<path fill="none" stroke="#ffffff" d="M1047.12,-354C1091.96,-363.75 1102.57,-338.49 1148,-332"/>
<path fill="none" stroke="#ffffff" d="M964.62,-344.69C986.38,-345.69 1018.06,-348.11 1045.12,-354"/>
</g>
<!-- pydantic&#45;&gt;src -->
<g id="edge26" class="edge">
<title>pydantic&#45;&gt;src</title><style>.edge>path:hover{stroke-width:8}</style>
<path fill="none" stroke="#ffffff" d="M1047.12,-354C1158.91,-378.32 1190.32,-357.99 1304.5,-351 1320.57,-350.02 1324.55,-344.82 1340.5,-347"/>
</g>
<!-- pydantic_core -->
<g id="node18" class="node">
<title>pydantic_core</title><style>.edge>path:hover{stroke-width:8}</style>
<polygon fill="#5a5a5a" stroke="#ffffff" points="737.25,-394 734.25,-398 713.25,-398 710.25,-394 660.5,-394 660.5,-358 737.25,-358 737.25,-394"/>
<text xml:space="preserve" text-anchor="middle" x="698.88" y="-372.5" font-family="Helvetica,sans-Serif" font-size="10.00" fill="#e0e0e0">pydantic_core</text>
</g>
<!-- pydantic_core&#45;&gt;fastapi -->
<g id="edge27" class="edge">
<title>pydantic_core&#45;&gt;fastapi</title><style>.edge>path:hover{stroke-width:8}</style>
<path fill="none" stroke="#ffffff" d="M1047.12,-468C1091.75,-472.27 1103.81,-460.41 1148,-468"/>
<path fill="none" stroke="#ffffff" d="M737.63,-383.64C771.99,-390.8 824.02,-402.14 868.75,-414 947.99,-435.01 963.52,-460.18 1045.12,-468"/>
</g>
<!-- pydantic_core&#45;&gt;pydantic -->
<g id="edge28" class="edge">
<title>pydantic_core&#45;&gt;pydantic</title><style>.edge>path:hover{stroke-width:8}</style>
<path fill="none" stroke="#ffffff" d="M737.66,-367.63C762.1,-362.47 794.68,-356.09 823.75,-352"/>
</g>
<!-- pydantic_core&#45;&gt;pydantic_settings -->
<g id="edge29" class="edge">
<title>pydantic_core&#45;&gt;pydantic_settings</title><style>.edge>path:hover{stroke-width:8}</style>
<path fill="none" stroke="#ffffff" d="M722.81,-357.56C765.57,-325.56 860.06,-266.08 936.5,-298"/>
</g>
<!-- pydantic_settings&#45;&gt;src -->
<g id="edge30" class="edge">
<title>pydantic_settings&#45;&gt;src</title><style>.edge>path:hover{stroke-width:8}</style>
<path fill="none" stroke="#ffffff" d="M1304.75,-339.3C1316.28,-342.5 1328.73,-345.4 1340.5,-347"/>
</g>
<!-- pygments -->
<g id="node20" class="node">
<title>pygments</title><style>.edge>path:hover{stroke-width:8}</style>
<polygon fill="#5a5a5a" stroke="#ffffff" points="409.88,-118 406.88,-122 385.88,-122 382.88,-118 351.12,-118 351.12,-82 409.88,-82 409.88,-118"/>
<text xml:space="preserve" text-anchor="middle" x="380.5" y="-96.5" font-family="Helvetica,sans-Serif" font-size="10.00" fill="#e0e0e0">pygments</text>
</g>
<!-- pygments&#45;&gt;rich -->
<g id="edge31" class="edge">
<title>pygments&#45;&gt;rich</title><style>.edge>path:hover{stroke-width:8}</style>
<path fill="none" stroke="#ffffff" d="M406.23,-118.38C426.5,-131.56 456.49,-146.85 485.5,-146"/>
</g>
<!-- python_multipart -->
<g id="node21" class="node">
<title>python_multipart</title><style>.edge>path:hover{stroke-width:8}</style>
<polygon fill="#1964e6" stroke="#ffffff" points="868.75,-530 865.75,-534 844.75,-534 841.75,-530 780.75,-530 780.75,-494 868.75,-494 868.75,-530"/>
<text xml:space="preserve" text-anchor="middle" x="824.75" y="-508.5" font-family="Helvetica,sans-Serif" font-size="10.00" fill="#e0e0e0">python_multipart</text>
</g>
<!-- python_multipart&#45;&gt;fastapi -->
<g id="edge32" class="edge">
<title>python_multipart&#45;&gt;fastapi</title><style>.edge>path:hover{stroke-width:8}</style>
<path fill="none" stroke="#ffffff" d="M869.09,-507.69C889.52,-505.96 914.24,-504.3 936.5,-504"/>
</g>
<!-- python_multipart&#45;&gt;multipart -->
<g id="edge33" class="edge">
<title>python_multipart&#45;&gt;multipart</title><style>.edge>path:hover{stroke-width:8}</style>
<path fill="none" stroke="#ffffff" d="M869.2,-526.91C879.13,-530.32 889.6,-533.91 899.25,-537.22"/>
<polygon fill="#1964e6" stroke="#ffffff" points="898.08,-540.52 908.68,-540.45 900.35,-533.9 898.08,-540.52"/>
</g>
<!-- python_multipart&#45;&gt;starlette -->
<g id="edge34" class="edge">
<title>python_multipart&#45;&gt;starlette</title><style>.edge>path:hover{stroke-width:8}</style>
<path fill="none" stroke="#ffffff" d="M938.5,-596C998.02,-611.43 1068.8,-591.53 1110.98,-575.75"/>
<polygon fill="#1964e6" stroke="#ffffff" points="1112.1,-579.07 1120.16,-572.19 1109.57,-572.54 1112.1,-579.07"/>
<path fill="none" stroke="#ffffff" d="M849.1,-530.17C855.51,-535.24 862.44,-540.79 868.75,-546 897.61,-569.82 900.07,-587.44 936.5,-596"/>
</g>
<!-- rich&#45;&gt;pydantic -->
<g id="edge35" class="edge">
<title>rich&#45;&gt;pydantic</title><style>.edge>path:hover{stroke-width:8}</style>
<path fill="none" stroke="#ffffff" d="M614.31,-124.98C667.15,-143.88 787.69,-191.9 868.75,-262 889.46,-279.91 887.05,-291.1 904.75,-312 906.31,-313.84 907.96,-315.71 909.65,-317.56"/>
<polygon fill="#5a5a5a" stroke="#ffffff" points="906.73,-319.57 916.14,-324.42 911.81,-314.75 906.73,-319.57"/>
</g>
<!-- rich&#45;&gt;structlog -->
<g id="edge36" class="edge">
<title>rich&#45;&gt;structlog</title><style>.edge>path:hover{stroke-width:8}</style>
<path fill="none" stroke="#ffffff" d="M699.88,-124C730.21,-112.02 763.17,-95.33 787.46,-82.28"/>
<polygon fill="#5a5a5a" stroke="#ffffff" points="788.86,-85.51 795.98,-77.66 785.52,-79.36 788.86,-85.51"/>
<path fill="none" stroke="#ffffff" d="M614.19,-124.18C637.1,-129.87 670.81,-134.69 697.88,-124"/>
</g>
<!-- sqlalchemy&#45;&gt;src -->
<g id="edge37" class="edge">
<title>sqlalchemy&#45;&gt;src</title><style>.edge>path:hover{stroke-width:8}</style>
<path fill="none" stroke="#ffffff" d="M1341.5,-347C1375.78,-352.61 1413.78,-340.37 1440.87,-328.32"/>
<polygon fill="#5a5a5a" stroke="#ffffff" points="1442.1,-331.61 1449.68,-324.21 1439.14,-325.26 1442.1,-331.61"/>
<path fill="none" stroke="#ffffff" d="M970.57,-247.83C1037.74,-240.74 1195.97,-232.75 1304.5,-297 1328.06,-310.95 1313.48,-342.54 1340.5,-347"/>
</g>
<!-- src&#45;&gt;main_py -->
<g id="edge38" class="edge">
<title>src&#45;&gt;main_py</title><style>.edge>path:hover{stroke-width:8}</style>
<path fill="none" stroke="#ffffff" d="M1505.78,-309.91C1516.83,-310.05 1529.8,-309.92 1541.5,-309"/>
</g>
<!-- starlette&#45;&gt;fastapi -->
<g id="edge39" class="edge">
<title>starlette&#45;&gt;fastapi</title><style>.edge>path:hover{stroke-width:8}</style>
<path fill="none" stroke="#ffffff" d="M1176.24,-548.75C1189.61,-543.01 1206.09,-535.94 1220.69,-529.68"/>
<polygon fill="#6510f9" stroke="#ffffff" points="1221.71,-533.05 1229.52,-525.89 1218.95,-526.62 1221.71,-533.05"/>
</g>
<!-- structlog&#45;&gt;main_py -->
<g id="edge40" class="edge">
<title>structlog&#45;&gt;main_py</title><style>.edge>path:hover{stroke-width:8}</style>
<path fill="none" stroke="#ffffff" d="M852.21,-72.04C925,-99.79 1134.15,-180.54 1304.5,-256 1354.12,-277.98 1360.26,-310.59 1414.5,-309"/>
<path fill="none" stroke="#ffffff" d="M1542.5,-309C1562.65,-307.42 1585.11,-307.25 1603.84,-307.54"/>
<polygon fill="#5a5a5a" stroke="#ffffff" points="1603.67,-311.04 1613.74,-307.75 1603.82,-304.04 1603.67,-311.04"/>
<path fill="none" stroke="#ffffff" d="M1415.5,-309C1435.41,-307.1 1432.53,-288.32 1451.5,-282 1474.27,-274.41 1482.73,-274.41 1505.5,-282 1524.47,-288.32 1521.6,-310.97 1541.5,-309"/>
</g>
<!-- structlog&#45;&gt;src -->
<g id="edge41" class="edge">
<title>structlog&#45;&gt;src</title><style>.edge>path:hover{stroke-width:8}</style>
<path fill="none" stroke="#ffffff" d="M1415.5,-309C1423.38,-308.77 1431.82,-308.67 1439.87,-308.65"/>
<polygon fill="#5a5a5a" stroke="#ffffff" points="1439.73,-312.15 1449.74,-308.66 1439.74,-305.15 1439.73,-312.15"/>
</g>
<!-- tomli -->
<g id="node27" class="node">
<title>tomli</title><style>.edge>path:hover{stroke-width:8}</style>
<polygon fill="#9b53b6" stroke="#ffffff" points="851.75,-172 848.75,-176 827.75,-176 824.75,-172 797.75,-172 797.75,-136 851.75,-136 851.75,-172"/>
<text xml:space="preserve" text-anchor="middle" x="824.75" y="-150.5" font-family="Helvetica,sans-Serif" font-size="10.00" fill="#e0e0e0">tomli</text>
</g>
<!-- tomli&#45;&gt;pydantic_settings -->
<g id="edge42" class="edge">
<title>tomli&#45;&gt;pydantic_settings</title><style>.edge>path:hover{stroke-width:8}</style>
<path fill="none" stroke="#ffffff" d="M938.5,-298C1027.56,-329.08 1054.62,-345.34 1148,-332"/>
<path fill="none" stroke="#ffffff" d="M846.63,-172.39C854.25,-179.82 862.51,-188.81 868.75,-198 890.87,-230.6 878.63,-249.51 904.75,-279 915.65,-291.31 921.32,-291.66 936.5,-298"/>
<path fill="none" stroke="#ffffff" d="M1150,-332C1166.32,-329.32 1184.18,-327.53 1200.57,-326.35"/>
<polygon fill="#9b53b6" stroke="#ffffff" points="1200.38,-329.87 1210.13,-325.72 1199.92,-322.88 1200.38,-329.87"/>
</g>
<!-- typing_extensions -->
<g id="node28" class="node">
<title>typing_extensions</title><style>.edge>path:hover{stroke-width:8}</style>
<polygon fill="#e410f9" stroke="#ffffff" points="184.75,-348 181.75,-352 160.75,-352 157.75,-348 90,-348 90,-312 184.75,-312 184.75,-348"/>
<text xml:space="preserve" text-anchor="middle" x="137.38" y="-326.5" font-family="Helvetica,sans-Serif" font-size="10.00" fill="#e0e0e0">typing_extensions</text>
</g>
<!-- typing_extensions&#45;&gt;annotated_types -->
<g id="edge43" class="edge">
<title>typing_extensions&#45;&gt;annotated_types</title><style>.edge>path:hover{stroke-width:8}</style>
<path fill="none" stroke="#ffffff" d="M185.06,-330C192.82,-330 200.94,-330 208.89,-330"/>
<polygon fill="#e410f9" stroke="#ffffff" points="208.83,-333.5 218.83,-330 208.83,-326.5 208.83,-333.5"/>
</g>
<!-- typing_extensions&#45;&gt;anyio -->
<g id="edge44" class="edge">
<title>typing_extensions&#45;&gt;anyio</title><style>.edge>path:hover{stroke-width:8}</style>
<path fill="none" stroke="#ffffff" d="M265.75,-606C290.44,-619.23 319.77,-631.01 342.47,-639.33"/>
<polygon fill="#e410f9" stroke="#ffffff" points="341.01,-642.53 351.6,-642.62 343.38,-635.94 341.01,-642.53"/>
</g>
<!-- typing_extensions&#45;&gt;click -->
<g id="edge45" class="edge">
<title>typing_extensions&#45;&gt;click</title><style>.edge>path:hover{stroke-width:8}</style>
<path fill="none" stroke="#ffffff" d="M381.5,-744C410.23,-756.91 497.18,-757.21 547.94,-756.18"/>
<polygon fill="#e410f9" stroke="#ffffff" points="547.97,-759.68 557.89,-755.95 547.81,-752.68 547.97,-759.68"/>
</g>
<!-- typing_extensions&#45;&gt;fastapi -->
<g id="edge46" class="edge">
<title>typing_extensions&#45;&gt;fastapi</title><style>.edge>path:hover{stroke-width:8}</style>
<path fill="none" stroke="#ffffff" d="M1150,-674C1204.93,-651.13 1235.32,-582.75 1248.74,-543.18"/>
<polygon fill="#e410f9" stroke="#ffffff" points="1252.02,-544.41 1251.76,-533.81 1245.36,-542.26 1252.02,-544.41"/>
<path fill="none" stroke="#ffffff" d="M265.75,-606C293.11,-620.67 792.71,-636 823.75,-636 823.75,-636 823.75,-636 938.5,-636 1004.92,-636 1020.8,-647.35 1086,-660 1113.73,-665.38 1121.92,-684.86 1148,-674"/>
</g>
<!-- typing_extensions&#45;&gt;h11 -->
<g id="edge47" class="edge">
<title>typing_extensions&#45;&gt;h11</title><style>.edge>path:hover{stroke-width:8}</style>
<path fill="none" stroke="#ffffff" d="M381.5,-744C407.13,-747.33 433.73,-735.23 453.62,-722.61"/>
<polygon fill="#e410f9" stroke="#ffffff" points="455.49,-725.57 461.83,-717.08 451.58,-719.76 455.49,-725.57"/>
<path fill="none" stroke="#ffffff" d="M140.28,-348.45C149.43,-425.69 196.18,-720.2 379.5,-744"/>
</g>
<!-- typing_extensions&#45;&gt;markdown_it -->
<g id="edge48" class="edge">
<title>typing_extensions&#45;&gt;markdown_it</title><style>.edge>path:hover{stroke-width:8}</style>
<path fill="none" stroke="#ffffff" d="M150.98,-311.51C171.55,-282.53 214.99,-226.2 263.75,-192"/>
<path fill="none" stroke="#ffffff" d="M265.75,-192C317.72,-155.54 301.56,-119.53 344.75,-73 345.1,-72.62 345.46,-72.25 345.82,-71.87"/>
<polygon fill="#e410f9" stroke="#ffffff" points="347.95,-74.67 352.87,-65.29 343.17,-69.55 347.95,-74.67"/>
</g>
<!-- typing_extensions&#45;&gt;pydantic -->
<g id="edge49" class="edge">
<title>typing_extensions&#45;&gt;pydantic</title><style>.edge>path:hover{stroke-width:8}</style>
<path fill="none" stroke="#ffffff" d="M487.5,-238C544.72,-227.53 559.86,-246.12 617,-257 653.27,-263.91 661.03,-273.54 697.88,-276"/>
<path fill="none" stroke="#ffffff" d="M699.88,-276C772.86,-279.07 853.86,-308.35 899.64,-327.47"/>
<polygon fill="#e410f9" stroke="#ffffff" points="898.26,-330.69 908.83,-331.38 901,-324.25 898.26,-330.69"/>
</g>
<!-- typing_extensions&#45;&gt;pydantic_core -->
<g id="edge50" class="edge">
<title>typing_extensions&#45;&gt;pydantic_core</title><style>.edge>path:hover{stroke-width:8}</style>
<path fill="none" stroke="#ffffff" d="M381.5,-506C465.19,-457.14 489.64,-441.44 585.88,-430"/>
<path fill="none" stroke="#ffffff" d="M265.75,-606C308.69,-629.02 307.03,-560.83 344.75,-530 359.28,-518.12 362.84,-514.65 379.5,-506"/>
<path fill="none" stroke="#ffffff" d="M139.63,-348.47C144.38,-401.51 166.34,-553.78 263.75,-606"/>
<path fill="none" stroke="#ffffff" d="M587.88,-430C601.48,-426.8 630.1,-412.66 654.73,-399.65"/>
<polygon fill="#e410f9" stroke="#ffffff" points="656.13,-402.88 663.3,-395.08 652.83,-396.7 656.13,-402.88"/>
</g>
<!-- typing_extensions&#45;&gt;rich -->
<g id="edge51" class="edge">
<title>typing_extensions&#45;&gt;rich</title><style>.edge>path:hover{stroke-width:8}</style>
<path fill="none" stroke="#ffffff" d="M265.75,-192C347.44,-134.7 385.76,-148.93 485.5,-146"/>
</g>
<!-- typing_extensions&#45;&gt;sqlalchemy -->
<g id="edge52" class="edge">
<title>typing_extensions&#45;&gt;sqlalchemy</title><style>.edge>path:hover{stroke-width:8}</style>
<path fill="none" stroke="#ffffff" d="M487.5,-238C488.74,-237.81 822.59,-107.52 823.75,-108"/>
<path fill="none" stroke="#ffffff" d="M265.75,-192C296.22,-170.83 308.64,-210.48 344.75,-219 406.19,-233.5 422.52,-242.27 485.5,-238"/>
</g>
<!-- typing_extensions&#45;&gt;starlette -->
<g id="edge53" class="edge">
<title>typing_extensions&#45;&gt;starlette</title><style>.edge>path:hover{stroke-width:8}</style>
<path fill="none" stroke="#ffffff" d="M381.5,-506C524.99,-431.53 586.69,-491.05 744.75,-525 761.53,-528.61 764.69,-532.94 780.75,-539 849.71,-565.03 864.74,-579.13 936.5,-596"/>
</g>
<!-- typing_extensions&#45;&gt;structlog -->
<g id="edge54" class="edge">
<title>typing_extensions&#45;&gt;structlog</title><style>.edge>path:hover{stroke-width:8}</style>
<path fill="none" stroke="#ffffff" d="M142.18,-311.79C157.82,-242.61 223.75,0 379.5,0 379.5,0 379.5,0 587.88,0 660.24,0 741.11,-27.63 786.88,-46"/>
<polygon fill="#e410f9" stroke="#ffffff" points="785.48,-49.21 796.06,-49.76 788.13,-42.73 785.48,-49.21"/>
</g>
<!-- typing_inspection -->
<g id="node29" class="node">
<title>typing_inspection</title><style>.edge>path:hover{stroke-width:8}</style>
<polygon fill="#f910e4" stroke="#ffffff" points="744.75,-448 741.75,-452 720.75,-452 717.75,-448 653,-448 653,-412 744.75,-412 744.75,-448"/>
<text xml:space="preserve" text-anchor="middle" x="698.88" y="-426.5" font-family="Helvetica,sans-Serif" font-size="10.00" fill="#e0e0e0">typing_inspection</text>
</g>
<!-- typing_extensions&#45;&gt;typing_inspection -->
<g id="edge55" class="edge">
<title>typing_extensions&#45;&gt;typing_inspection</title><style>.edge>path:hover{stroke-width:8}</style>
<path fill="none" stroke="#ffffff" d="M587.88,-430C605.03,-425.97 624.11,-424.84 641.5,-425.05"/>
<polygon fill="#e410f9" stroke="#ffffff" points="641.04,-428.54 651.13,-425.32 641.24,-421.54 641.04,-428.54"/>
</g>
<!-- typing_extensions&#45;&gt;uvicorn -->
<g id="edge56" class="edge">
<title>typing_extensions&#45;&gt;uvicorn</title><style>.edge>path:hover{stroke-width:8}</style>
<path fill="none" stroke="#ffffff" d="M587.88,-893C647.44,-870.32 634.59,-808.56 697.88,-801"/>
<path fill="none" stroke="#ffffff" d="M381.5,-744C431.09,-767.33 408.7,-811.73 452.25,-845 477.32,-864.15 556.39,-904.23 585.88,-893"/>
</g>
<!-- typing_inspection&#45;&gt;fastapi -->
<g id="edge57" class="edge">
<title>typing_inspection&#45;&gt;fastapi</title><style>.edge>path:hover{stroke-width:8}</style>
<path fill="none" stroke="#ffffff" d="M825.75,-428C884.74,-437.19 876.81,-504.81 936.5,-504"/>
<path fill="none" stroke="#ffffff" d="M938.5,-504C988.51,-503.32 995.34,-463.23 1045.12,-468"/>
</g>
<!-- typing_inspection&#45;&gt;pydantic -->
<g id="edge58" class="edge">
<title>typing_inspection&#45;&gt;pydantic</title><style>.edge>path:hover{stroke-width:8}</style>
<path fill="none" stroke="#ffffff" d="M730.85,-411.54C735.52,-408.7 740.27,-405.79 744.75,-403 780.21,-380.89 782.37,-357.82 823.75,-352"/>
</g>
<!-- typing_inspection&#45;&gt;pydantic_settings -->
<g id="edge59" class="edge">
<title>typing_inspection&#45;&gt;pydantic_settings</title><style>.edge>path:hover{stroke-width:8}</style>
<path fill="none" stroke="#ffffff" d="M745.14,-425.59C768.71,-424.22 797.93,-423.98 823.75,-428"/>
<path fill="none" stroke="#ffffff" d="M825.75,-428C943.04,-446.28 975.61,-411.62 1086,-368 1115.63,-356.29 1116.56,-337.17 1148,-332"/>
</g>
<!-- uvicorn&#45;&gt;main_py -->
<g id="edge60" class="edge">
<title>uvicorn&#45;&gt;main_py</title><style>.edge>path:hover{stroke-width:8}</style>
<path fill="none" stroke="#ffffff" d="M964.68,-721.77C1010.19,-723.74 1105.76,-722.88 1176,-688 1346.15,-603.51 1318.88,-489.55 1477.5,-385"/>
</g>
<!-- watchfiles&#45;&gt;uvicorn -->
<g id="edge61" class="edge">
<title>watchfiles&#45;&gt;uvicorn</title><style>.edge>path:hover{stroke-width:8}</style>
<path fill="none" stroke="#ffffff" d="M615.05,-828.56C636.56,-815.76 667.86,-801 697.88,-801"/>
</g>
<!-- websockets -->
<g id="node32" class="node">
<title>websockets</title><style>.edge>path:hover{stroke-width:8}</style>
<polygon fill="#5a5a5a" stroke="#ffffff" points="520.75,-938 517.75,-942 496.75,-942 493.75,-938 452.25,-938 452.25,-902 520.75,-902 520.75,-938"/>
<text xml:space="preserve" text-anchor="middle" x="486.5" y="-916.5" font-family="Helvetica,sans-Serif" font-size="10.00" fill="#e0e0e0">websockets</text>
</g>
<!-- websockets&#45;&gt;uvicorn -->
<g id="edge62" class="edge">
<title>websockets&#45;&gt;uvicorn</title><style>.edge>path:hover{stroke-width:8}</style>
<path fill="none" stroke="#ffffff" d="M520.8,-912.55C540.09,-907.82 564.69,-901.07 585.88,-893"/>
</g>
<!-- yaml -->
<g id="node33" class="node">
<title>yaml</title><style>.edge>path:hover{stroke-width:8}</style>
<polygon fill="#5a5a5a" stroke="#ffffff" points="725.88,-570 722.88,-574 701.88,-574 698.88,-570 671.88,-570 671.88,-534 725.88,-534 725.88,-570"/>
<text xml:space="preserve" text-anchor="middle" x="698.88" y="-548.5" font-family="Helvetica,sans-Serif" font-size="10.00" fill="#e0e0e0">yaml</text>
</g>
<!-- yaml&#45;&gt;pydantic_settings -->
<g id="edge63" class="edge">
<title>yaml&#45;&gt;pydantic_settings</title><style>.edge>path:hover{stroke-width:8}</style>
<path fill="none" stroke="#ffffff" d="M717.11,-533.66C732.43,-518.44 756.14,-497.35 780.75,-485 858.22,-446.14 887.09,-463.4 970.25,-439 1022.48,-423.67 1035.31,-418.82 1086,-399 1127.37,-382.82 1173.44,-362.51 1207.37,-347.11"/>
<polygon fill="#5a5a5a" stroke="#ffffff" points="1208.47,-350.45 1216.11,-343.12 1205.56,-344.08 1208.47,-350.45"/>
</g>
<!-- yaml&#45;&gt;uvicorn -->
<g id="edge64" class="edge">
<title>yaml&#45;&gt;uvicorn</title><style>.edge>path:hover{stroke-width:8}</style>
<path fill="none" stroke="#ffffff" d="M725.99,-559.24C751.74,-566.94 791.79,-580.42 823.75,-598"/>
<path fill="none" stroke="#ffffff" d="M825.75,-598C866.56,-620.44 900.25,-663.68 919.38,-692.19"/>
<polygon fill="#5a5a5a" stroke="#ffffff" points="916.3,-693.87 924.7,-700.33 922.16,-690.05 916.3,-693.87"/>
</g>
</g>
</svg>

