<?xml version="1.0" encoding="UTF-8" standalone="no"?>
<!DOCTYPE svg PUBLIC "-//W3C//DTD SVG 1.1//EN"
 "http://www.w3.org/Graphics/SVG/1.1/DTD/svg11.dtd">
<!-- Generated by graphviz version 15.1.0 (20260618.0150)
 -->
<!-- Title: G Pages: 1 -->
<svg style="background-color:#141414" width="1250pt" height="1344pt"
 viewBox="0.00 0.00 1250.00 1344.00" xmlns="http://www.w3.org/2000/svg" xmlns:xlink="http://www.w3.org/1999/xlink">
<g id="graph0" class="graph" transform="scale(1 1) rotate(0) translate(4 1339.86)">
<title>G</title><style>.edge>path:hover{stroke-width:8}</style>
<polygon fill="#141414" stroke="none" points="-4,4 -4,-1339.86 1245.96,-1339.86 1245.96,4 -4,4"/>
<!-- fastapi -->
<g id="node1" class="node">
<title>fastapi</title><style>.edge>path:hover{stroke-width:8}</style>
<polygon fill="#5a5a5a" stroke="#ffffff" points="156.17,-682 102.17,-682 102.17,-646 156.17,-646 156.17,-682"/>
<text xml:space="preserve" text-anchor="middle" x="129.17" y="-660.5" font-family="Helvetica,sans-Serif" font-size="10.00" fill="#e0e0e0">fastapi</text>
</g>
<!-- src_api_router -->
<g id="node15" class="node">
<title>src_api_router</title><style>.edge>path:hover{stroke-width:8}</style>
<ellipse fill="#2b2b82" stroke="#ffffff" cx="997.45" cy="-1246" rx="43.9" ry="18"/>
<text xml:space="preserve" text-anchor="middle" x="997.45" y="-1242.5" font-family="Helvetica,sans-Serif" font-size="10.00" fill="#e0e0e0">src.api.router</text>
</g>
<!-- fastapi&#45;&gt;src_api_router -->
<g id="edge1" class="edge">
<title>fastapi&#45;&gt;src_api_router</title><style>.edge>path:hover{stroke-width:8}</style>
<path fill="none" stroke="#ffffff" d="M863.46,-1292C895.55,-1286.25 930.32,-1274 956.26,-1263.58"/>
<polygon fill="#5a5a5a" stroke="#ffffff" points="957.48,-1266.86 965.4,-1259.83 954.82,-1260.39 957.48,-1266.86"/>
<path fill="none" stroke="#ffffff" d="M609.92,-1314C720.15,-1292.96 751,-1311.8 861.46,-1292"/>
</g>
<!-- src_api_routes_auth -->
<g id="node17" class="node">
<title>src_api_routes_auth</title><style>.edge>path:hover{stroke-width:8}</style>
<ellipse fill="#3838a8" stroke="#ffffff" cx="745.5" cy="-1246" rx="32.53" ry="39.6"/>
<text xml:space="preserve" text-anchor="middle" x="745.5" y="-1260.5" font-family="Helvetica,sans-Serif" font-size="10.00" fill="#e0e0e0">src.</text>
<text xml:space="preserve" text-anchor="middle" x="745.5" y="-1248.5" font-family="Helvetica,sans-Serif" font-size="10.00" fill="#e0e0e0">api.</text>
<text xml:space="preserve" text-anchor="middle" x="745.5" y="-1236.5" font-family="Helvetica,sans-Serif" font-size="10.00" fill="#e0e0e0">routes.</text>
<text xml:space="preserve" text-anchor="middle" x="745.5" y="-1224.5" font-family="Helvetica,sans-Serif" font-size="10.00" fill="#e0e0e0">auth</text>
</g>
<!-- fastapi&#45;&gt;src_api_routes_auth -->
<g id="edge2" class="edge">
<title>fastapi&#45;&gt;src_api_routes_auth</title><style>.edge>path:hover{stroke-width:8}</style>
<path fill="none" stroke="#ffffff" d="M198.34,-1263C214.32,-1277.25 214.53,-1286.89 234.34,-1295 388.19,-1358.01 442.9,-1334.23 607.92,-1314"/>
<path fill="none" stroke="#ffffff" d="M609.92,-1314C645.37,-1307.23 681.68,-1288.03 707.63,-1271.75"/>
<polygon fill="#5a5a5a" stroke="#ffffff" points="709.26,-1274.86 715.78,-1266.5 705.47,-1268.97 709.26,-1274.86"/>
</g>
<!-- src_api_routes_health -->
<g id="node18" class="node">
<title>src_api_routes_health</title><style>.edge>path:hover{stroke-width:8}</style>
<ellipse fill="#3838a8" stroke="#ffffff" cx="745.5" cy="-934" rx="32.53" ry="39.6"/>
<text xml:space="preserve" text-anchor="middle" x="745.5" y="-948.5" font-family="Helvetica,sans-Serif" font-size="10.00" fill="#e0e0e0">src.</text>
<text xml:space="preserve" text-anchor="middle" x="745.5" y="-936.5" font-family="Helvetica,sans-Serif" font-size="10.00" fill="#e0e0e0">api.</text>
<text xml:space="preserve" text-anchor="middle" x="745.5" y="-924.5" font-family="Helvetica,sans-Serif" font-size="10.00" fill="#e0e0e0">routes.</text>
<text xml:space="preserve" text-anchor="middle" x="745.5" y="-912.5" font-family="Helvetica,sans-Serif" font-size="10.00" fill="#e0e0e0">health</text>
</g>
<!-- fastapi&#45;&gt;src_api_routes_health -->
<g id="edge3" class="edge">
<title>fastapi&#45;&gt;src_api_routes_health</title><style>.edge>path:hover{stroke-width:8}</style>
<path fill="none" stroke="#ffffff" d="M130.8,-682.19C134.28,-778.21 152.78,-1223.25 197.34,-1263"/>
<path fill="none" stroke="#ffffff" d="M198.34,-1263C214.32,-1277.25 215.88,-1241.83 234.34,-1231 256.51,-1217.99 265.9,-1223.34 288.97,-1212"/>
<path fill="none" stroke="#ffffff" d="M290.97,-1212C344.5,-1185.68 330.1,-1143.11 381.59,-1113 496.7,-1045.7 566.86,-1124.64 673.79,-1045 699.66,-1025.74 692.32,-1009.11 709.79,-982 711.89,-978.75 714.12,-975.41 716.4,-972.09"/>
<polygon fill="#5a5a5a" stroke="#ffffff" points="719.14,-974.28 722.02,-964.08 713.41,-970.26 719.14,-974.28"/>
</g>
<!-- src_api_routes_posts -->
<g id="node19" class="node">
<title>src_api_routes_posts</title><style>.edge>path:hover{stroke-width:8}</style>
<ellipse fill="#303091" stroke="#ffffff" cx="745.5" cy="-1031" rx="32.53" ry="39.6"/>
<text xml:space="preserve" text-anchor="middle" x="745.5" y="-1045.5" font-family="Helvetica,sans-Serif" font-size="10.00" fill="#e0e0e0">src.</text>
<text xml:space="preserve" text-anchor="middle" x="745.5" y="-1033.5" font-family="Helvetica,sans-Serif" font-size="10.00" fill="#e0e0e0">api.</text>
<text xml:space="preserve" text-anchor="middle" x="745.5" y="-1021.5" font-family="Helvetica,sans-Serif" font-size="10.00" fill="#e0e0e0">routes.</text>
<text xml:space="preserve" text-anchor="middle" x="745.5" y="-1009.5" font-family="Helvetica,sans-Serif" font-size="10.00" fill="#e0e0e0">posts</text>
</g>
<!-- fastapi&#45;&gt;src_api_routes_posts -->
<g id="edge4" class="edge">
<title>fastapi&#45;&gt;src_api_routes_posts</title><style>.edge>path:hover{stroke-width:8}</style>
<path fill="none" stroke="#ffffff" d="M290.97,-1212C363.43,-1177 399.35,-1229.56 471.04,-1193 492.35,-1182.13 483.17,-1154.49 507.04,-1153"/>
</g>
<!-- src_api_routes_root -->
<g id="node20" class="node">
<title>src_api_routes_root</title><style>.edge>path:hover{stroke-width:8}</style>
<ellipse fill="#3838a8" stroke="#ffffff" cx="745.5" cy="-740" rx="32.53" ry="39.6"/>
<text xml:space="preserve" text-anchor="middle" x="745.5" y="-754.5" font-family="Helvetica,sans-Serif" font-size="10.00" fill="#e0e0e0">src.</text>
<text xml:space="preserve" text-anchor="middle" x="745.5" y="-742.5" font-family="Helvetica,sans-Serif" font-size="10.00" fill="#e0e0e0">api.</text>
<text xml:space="preserve" text-anchor="middle" x="745.5" y="-730.5" font-family="Helvetica,sans-Serif" font-size="10.00" fill="#e0e0e0">routes.</text>
<text xml:space="preserve" text-anchor="middle" x="745.5" y="-718.5" font-family="Helvetica,sans-Serif" font-size="10.00" fill="#e0e0e0">root</text>
</g>
<!-- fastapi&#45;&gt;src_api_routes_root -->
<g id="edge5" class="edge">
<title>fastapi&#45;&gt;src_api_routes_root</title><style>.edge>path:hover{stroke-width:8}</style>
<path fill="none" stroke="#ffffff" d="M198.34,-656C320.51,-653.34 353.48,-654.31 471.04,-621 534.44,-603.04 544.63,-545.62 607.92,-564"/>
</g>
<!-- src_api_routes_users -->
<g id="node21" class="node">
<title>src_api_routes_users</title><style>.edge>path:hover{stroke-width:8}</style>
<ellipse fill="#2e2e8a" stroke="#ffffff" cx="745.5" cy="-837" rx="32.53" ry="39.6"/>
<text xml:space="preserve" text-anchor="middle" x="745.5" y="-851.5" font-family="Helvetica,sans-Serif" font-size="10.00" fill="#e0e0e0">src.</text>
<text xml:space="preserve" text-anchor="middle" x="745.5" y="-839.5" font-family="Helvetica,sans-Serif" font-size="10.00" fill="#e0e0e0">api.</text>
<text xml:space="preserve" text-anchor="middle" x="745.5" y="-827.5" font-family="Helvetica,sans-Serif" font-size="10.00" fill="#e0e0e0">routes.</text>
<text xml:space="preserve" text-anchor="middle" x="745.5" y="-815.5" font-family="Helvetica,sans-Serif" font-size="10.00" fill="#e0e0e0">users</text>
</g>
<!-- fastapi&#45;&gt;src_api_routes_users -->
<g id="edge6" class="edge">
<title>fastapi&#45;&gt;src_api_routes_users</title><style>.edge>path:hover{stroke-width:8}</style>
<path fill="none" stroke="#ffffff" d="M198.34,-656C211.64,-655.62 412.08,-730.66 425.32,-732"/>
</g>
<!-- src_helpers_exceptions -->
<g id="node26" class="node">
<title>src_helpers_exceptions</title><style>.edge>path:hover{stroke-width:8}</style>
<ellipse fill="#2f2fbc" stroke="#ffffff" cx="426.32" cy="-501" rx="44.72" ry="31.11"/>
<text xml:space="preserve" text-anchor="middle" x="426.32" y="-509.5" font-family="Helvetica,sans-Serif" font-size="10.00" fill="#e0e0e0">src.</text>
<text xml:space="preserve" text-anchor="middle" x="426.32" y="-497.5" font-family="Helvetica,sans-Serif" font-size="10.00" fill="#e0e0e0">helpers.</text>
<text xml:space="preserve" text-anchor="middle" x="426.32" y="-485.5" font-family="Helvetica,sans-Serif" font-size="10.00" fill="#e0e0e0">exceptions</text>
</g>
<!-- fastapi&#45;&gt;src_helpers_exceptions -->
<g id="edge7" class="edge">
<title>fastapi&#45;&gt;src_helpers_exceptions</title><style>.edge>path:hover{stroke-width:8}</style>
<path fill="none" stroke="#ffffff" d="M198.34,-656C220.22,-654.73 327.54,-575.49 386.44,-530.82"/>
<polygon fill="#5a5a5a" stroke="#ffffff" points="388.41,-533.72 394.25,-524.88 384.17,-528.15 388.41,-533.72"/>
<path fill="none" stroke="#ffffff" d="M156.57,-659.66C168.91,-657.94 183.84,-656.29 197.34,-656"/>
</g>
<!-- src_main -->
<g id="node29" class="node">
<title>src_main</title><style>.edge>path:hover{stroke-width:8}</style>
<ellipse fill="#2e2e6b" stroke="#ffffff" cx="1209.79" cy="-799" rx="32.17" ry="18"/>
<text xml:space="preserve" text-anchor="middle" x="1209.79" y="-795.5" font-family="Helvetica,sans-Serif" font-size="10.00" fill="#e0e0e0">src.main</text>
</g>
<!-- fastapi&#45;&gt;src_main -->
<g id="edge8" class="edge">
<title>fastapi&#45;&gt;src_main</title><style>.edge>path:hover{stroke-width:8}</style>
<path fill="none" stroke="#ffffff" d="M863.46,-1292C974.1,-1277.75 1019.52,-1329.24 1113.4,-1269"/>
</g>
<!-- fastapi_responses -->
<g id="node2" class="node">
<title>fastapi_responses</title><style>.edge>path:hover{stroke-width:8}</style>
<polygon fill="#5a5a5a" stroke="#ffffff" points="61,-597 0,-597 0,-561 61,-561 61,-597"/>
<text xml:space="preserve" text-anchor="middle" x="30.5" y="-581.5" font-family="Helvetica,sans-Serif" font-size="10.00" fill="#e0e0e0">fastapi.</text>
<text xml:space="preserve" text-anchor="middle" x="30.5" y="-569.5" font-family="Helvetica,sans-Serif" font-size="10.00" fill="#e0e0e0">responses</text>
</g>
<!-- fastapi_responses&#45;&gt;fastapi -->
<g id="edge9" class="edge">
<title>fastapi_responses&#45;&gt;fastapi</title><style>.edge>path:hover{stroke-width:8}</style>
<path fill="none" stroke="#ffffff" d="M52.1,-597.34C64.97,-608.78 81.92,-623.79 97,-637 97.5,-637.44 98.01,-637.89 98.53,-638.34"/>
<polygon fill="#5a5a5a" stroke="#ffffff" points="96.04,-640.81 105.88,-644.74 100.63,-635.53 96.04,-640.81"/>
</g>
<!-- fastapi_responses&#45;&gt;src_helpers_exceptions -->
<g id="edge10" class="edge">
<title>fastapi_responses&#45;&gt;src_helpers_exceptions</title><style>.edge>path:hover{stroke-width:8}</style>
<path fill="none" stroke="#ffffff" d="M130.17,-503C155.13,-486.62 169.92,-491.19 197.34,-503"/>
</g>
<!-- fastapi_responses&#45;&gt;src_main -->
<g id="edge11" class="edge">
<title>fastapi_responses&#45;&gt;src_main</title><style>.edge>path:hover{stroke-width:8}</style>
<path fill="none" stroke="#ffffff" d="M746.5,-602C900.85,-570.59 917.22,-503.83 1051.19,-421 1079.15,-403.71 1090.12,-357.8 1113.4,-381"/>
<path fill="none" stroke="#ffffff" d="M52.59,-560.7C71.67,-544.57 100.87,-520.92 128.17,-503"/>
<path fill="none" stroke="#ffffff" d="M508.04,-501C582.69,-519.11 604.99,-515.84 673.79,-550 708.73,-567.34 705.68,-605.8 744.5,-602"/>
<path fill="none" stroke="#ffffff" d="M130.17,-503C257.78,-419.24 331.6,-398.9 471.04,-461 492.89,-470.73 484.28,-493.64 507.04,-501"/>
</g>
<!-- fastapi_security -->
<g id="node3" class="node">
<title>fastapi_security</title><style>.edge>path:hover{stroke-width:8}</style>
<ellipse fill="#b65353" stroke="#ffffff" cx="289.97" cy="-1263" rx="35.71" ry="22.63"/>
<text xml:space="preserve" text-anchor="middle" x="289.97" y="-1265.5" font-family="Helvetica,sans-Serif" font-size="10.00" fill="#e0e0e0">fastapi.</text>
<text xml:space="preserve" text-anchor="middle" x="289.97" y="-1253.5" font-family="Helvetica,sans-Serif" font-size="10.00" fill="#e0e0e0">security</text>
</g>
<!-- fastapi_security&#45;&gt;src_api_routes_auth -->
<g id="edge12" class="edge">
<title>fastapi_security&#45;&gt;src_api_routes_auth</title><style>.edge>path:hover{stroke-width:8}</style>
<path fill="none" stroke="#ffffff" d="M325.8,-1261.69C407.59,-1258.63 611.72,-1250.98 701.26,-1247.62"/>
<polygon fill="#b65353" stroke="#ffffff" points="701.23,-1251.12 711.09,-1247.25 700.97,-1244.13 701.23,-1251.12"/>
</g>
<!-- fastapi_staticfiles -->
<g id="node4" class="node">
<title>fastapi_staticfiles</title><style>.edge>path:hover{stroke-width:8}</style>
<ellipse fill="#b65353" stroke="#ffffff" cx="997.45" cy="-1187" rx="41.01" ry="22.63"/>
<text xml:space="preserve" text-anchor="middle" x="997.45" y="-1189.5" font-family="Helvetica,sans-Serif" font-size="10.00" fill="#e0e0e0">fastapi.</text>
<text xml:space="preserve" text-anchor="middle" x="997.45" y="-1177.5" font-family="Helvetica,sans-Serif" font-size="10.00" fill="#e0e0e0">staticfiles</text>
</g>
<!-- fastapi_staticfiles&#45;&gt;src_main -->
<g id="edge13" class="edge">
<title>fastapi_staticfiles&#45;&gt;src_main</title><style>.edge>path:hover{stroke-width:8}</style>
<path fill="none" stroke="#ffffff" d="M1026.81,-1203.27C1034.83,-1208.12 1043.47,-1213.59 1051.19,-1219 1080.24,-1239.36 1083.55,-1288.16 1113.4,-1269"/>
<path fill="none" stroke="#ffffff" d="M1115.4,-1269C1190.36,-1220.9 1205.26,-924.48 1208.12,-828.77"/>
<polygon fill="#b65353" stroke="#ffffff" points="1211.62,-828.98 1208.39,-818.89 1204.62,-828.79 1211.62,-828.98"/>
</g>
<!-- jose -->
<g id="node5" class="node">
<title>jose</title><style>.edge>path:hover{stroke-width:8}</style>
<ellipse fill="#c29947" stroke="#ffffff" cx="608.92" cy="-72" rx="27" ry="18"/>
<text xml:space="preserve" text-anchor="middle" x="608.92" y="-68.5" font-family="Helvetica,sans-Serif" font-size="10.00" fill="#e0e0e0">jose</text>
</g>
<!-- src_helpers_security -->
<g id="node28" class="node">
<title>src_helpers_security</title><style>.edge>path:hover{stroke-width:8}</style>
<ellipse fill="#373781" stroke="#ffffff" cx="997.45" cy="-209" rx="35.71" ry="31.11"/>
<text xml:space="preserve" text-anchor="middle" x="997.45" y="-217.5" font-family="Helvetica,sans-Serif" font-size="10.00" fill="#e0e0e0">src.</text>
<text xml:space="preserve" text-anchor="middle" x="997.45" y="-205.5" font-family="Helvetica,sans-Serif" font-size="10.00" fill="#e0e0e0">helpers.</text>
<text xml:space="preserve" text-anchor="middle" x="997.45" y="-193.5" font-family="Helvetica,sans-Serif" font-size="10.00" fill="#e0e0e0">security</text>
</g>
<!-- jose&#45;&gt;src_helpers_security -->
<g id="edge14" class="edge">
<title>jose&#45;&gt;src_helpers_security</title><style>.edge>path:hover{stroke-width:8}</style>
<path fill="none" stroke="#ffffff" d="M632.44,-81.36C644.7,-86.49 660.12,-93.02 673.79,-99 705.4,-112.83 710.19,-127.49 744.5,-131"/>
</g>
<!-- jose_jwt -->
<g id="node6" class="node">
<title>jose_jwt</title><style>.edge>path:hover{stroke-width:8}</style>
<ellipse fill="#b3914c" stroke="#ffffff" cx="608.92" cy="-18" rx="29.92" ry="18"/>
<text xml:space="preserve" text-anchor="middle" x="608.92" y="-14.5" font-family="Helvetica,sans-Serif" font-size="10.00" fill="#e0e0e0">jose.jwt</text>
</g>
<!-- jose_jwt&#45;&gt;src_helpers_security -->
<g id="edge15" class="edge">
<title>jose_jwt&#45;&gt;src_helpers_security</title><style>.edge>path:hover{stroke-width:8}</style>
<path fill="none" stroke="#ffffff" d="M746.5,-131C822.39,-138.77 906.19,-169.87 954.92,-190.37"/>
<polygon fill="#b3914c" stroke="#ffffff" points="953.39,-193.53 963.96,-194.23 956.14,-187.09 953.39,-193.53"/>
<path fill="none" stroke="#ffffff" d="M636.29,-25.9C648.44,-30.32 662.6,-36.65 673.79,-45 713.45,-74.6 696.15,-120.47 744.5,-131"/>
</g>
<!-- passlib -->
<g id="node7" class="node">
<title>passlib</title><style>.edge>path:hover{stroke-width:8}</style>
<ellipse fill="#99c247" stroke="#ffffff" cx="608.92" cy="-190" rx="28.11" ry="18"/>
<text xml:space="preserve" text-anchor="middle" x="608.92" y="-186.5" font-family="Helvetica,sans-Serif" font-size="10.00" fill="#e0e0e0">passlib</text>
</g>
<!-- passlib&#45;&gt;src_helpers_security -->
<g id="edge16" class="edge">
<title>passlib&#45;&gt;src_helpers_security</title><style>.edge>path:hover{stroke-width:8}</style>
<path fill="none" stroke="#ffffff" d="M633.04,-180.39C645.2,-175.3 660.34,-168.89 673.79,-163 705.4,-149.17 710.19,-127.49 744.5,-131"/>
</g>
<!-- passlib_context -->
<g id="node8" class="node">
<title>passlib_context</title><style>.edge>path:hover{stroke-width:8}</style>
<ellipse fill="#91b34c" stroke="#ffffff" cx="608.92" cy="-131" rx="35.18" ry="22.63"/>
<text xml:space="preserve" text-anchor="middle" x="608.92" y="-133.5" font-family="Helvetica,sans-Serif" font-size="10.00" fill="#e0e0e0">passlib.</text>
<text xml:space="preserve" text-anchor="middle" x="608.92" y="-121.5" font-family="Helvetica,sans-Serif" font-size="10.00" fill="#e0e0e0">context</text>
</g>
<!-- passlib_context&#45;&gt;src_helpers_security -->
<g id="edge17" class="edge">
<title>passlib_context&#45;&gt;src_helpers_security</title><style>.edge>path:hover{stroke-width:8}</style>
<path fill="none" stroke="#ffffff" d="M644.31,-129.08C671.56,-128.02 710.57,-127.53 744.5,-131"/>
</g>
<!-- pydantic -->
<g id="node9" class="node">
<title>pydantic</title><style>.edge>path:hover{stroke-width:8}</style>
<ellipse fill="#0cf30c" stroke="#ffffff" cx="129.17" cy="-610" rx="31.72" ry="18"/>
<text xml:space="preserve" text-anchor="middle" x="129.17" y="-606.5" font-family="Helvetica,sans-Serif" font-size="10.00" fill="#e0e0e0">pydantic</text>
</g>
<!-- pydantic&#45;&gt;src_api_routes_users -->
<g id="edge18" class="edge">
<title>pydantic&#45;&gt;src_api_routes_users</title><style>.edge>path:hover{stroke-width:8}</style>
<path fill="none" stroke="#ffffff" d="M427.32,-732C509.91,-746.06 535.43,-636 607.92,-678"/>
<path fill="none" stroke="#ffffff" d="M198.34,-618C263.64,-625.63 292.23,-593.61 345.59,-632 377.57,-655.01 353.62,-685.26 381.59,-713 396.64,-727.92 404.25,-729.69 425.32,-732"/>
</g>
<!-- src_helpers_config_config -->
<g id="node24" class="node">
<title>src_helpers_config_config</title><style>.edge>path:hover{stroke-width:8}</style>
<ellipse fill="#1e1eae" stroke="#ffffff" cx="745.5" cy="-304" rx="35.71" ry="39.6"/>
<text xml:space="preserve" text-anchor="middle" x="745.5" y="-318.5" font-family="Helvetica,sans-Serif" font-size="10.00" fill="#e0e0e0">src.</text>
<text xml:space="preserve" text-anchor="middle" x="745.5" y="-306.5" font-family="Helvetica,sans-Serif" font-size="10.00" fill="#e0e0e0">helpers.</text>
<text xml:space="preserve" text-anchor="middle" x="745.5" y="-294.5" font-family="Helvetica,sans-Serif" font-size="10.00" fill="#e0e0e0">config.</text>
<text xml:space="preserve" text-anchor="middle" x="745.5" y="-282.5" font-family="Helvetica,sans-Serif" font-size="10.00" fill="#e0e0e0">config</text>
</g>
<!-- pydantic&#45;&gt;src_helpers_config_config -->
<g id="edge19" class="edge">
<title>pydantic&#45;&gt;src_helpers_config_config</title><style>.edge>path:hover{stroke-width:8}</style>
<path fill="none" stroke="#ffffff" d="M136.28,-592.38C145.87,-566.87 166.58,-519.4 197.34,-489 279.24,-408.08 312.97,-340.83 425.32,-366"/>
</g>
<!-- src_schemas_health -->
<g id="node31" class="node">
<title>src_schemas_health</title><style>.edge>path:hover{stroke-width:8}</style>
<ellipse fill="#4040c0" stroke="#ffffff" cx="426.32" cy="-791" rx="41.54" ry="31.11"/>
<text xml:space="preserve" text-anchor="middle" x="426.32" y="-799.5" font-family="Helvetica,sans-Serif" font-size="10.00" fill="#e0e0e0">src.</text>
<text xml:space="preserve" text-anchor="middle" x="426.32" y="-787.5" font-family="Helvetica,sans-Serif" font-size="10.00" fill="#e0e0e0">schemas.</text>
<text xml:space="preserve" text-anchor="middle" x="426.32" y="-775.5" font-family="Helvetica,sans-Serif" font-size="10.00" fill="#e0e0e0">health</text>
</g>
<!-- pydantic&#45;&gt;src_schemas_health -->
<g id="edge20" class="edge">
<title>pydantic&#45;&gt;src_schemas_health</title><style>.edge>path:hover{stroke-width:8}</style>
<path fill="none" stroke="#ffffff" d="M198.34,-618C243.34,-624.94 340.69,-711.07 392.05,-759.11"/>
<polygon fill="#0cf30c" stroke="#ffffff" points="389.4,-761.42 399.08,-765.73 394.19,-756.32 389.4,-761.42"/>
</g>
<!-- src_schemas_post -->
<g id="node32" class="node">
<title>src_schemas_post</title><style>.edge>path:hover{stroke-width:8}</style>
<ellipse fill="#4040c0" stroke="#ffffff" cx="426.32" cy="-1153" rx="41.54" ry="31.11"/>
<text xml:space="preserve" text-anchor="middle" x="426.32" y="-1161.5" font-family="Helvetica,sans-Serif" font-size="10.00" fill="#e0e0e0">src.</text>
<text xml:space="preserve" text-anchor="middle" x="426.32" y="-1149.5" font-family="Helvetica,sans-Serif" font-size="10.00" fill="#e0e0e0">schemas.</text>
<text xml:space="preserve" text-anchor="middle" x="426.32" y="-1137.5" font-family="Helvetica,sans-Serif" font-size="10.00" fill="#e0e0e0">post</text>
</g>
<!-- pydantic&#45;&gt;src_schemas_post -->
<g id="edge21" class="edge">
<title>pydantic&#45;&gt;src_schemas_post</title><style>.edge>path:hover{stroke-width:8}</style>
<path fill="none" stroke="#ffffff" d="M150.19,-623.63C154.49,-627.47 158.57,-631.99 161.34,-637 264.63,-823.96 87.83,-956.58 234.34,-1112 269.5,-1149.29 329.71,-1156.84 373.14,-1156.77"/>
<polygon fill="#0cf30c" stroke="#ffffff" points="373.17,-1160.27 383.11,-1156.6 373.06,-1153.27 373.17,-1160.27"/>
</g>
<!-- src_schemas_root -->
<g id="node33" class="node">
<title>src_schemas_root</title><style>.edge>path:hover{stroke-width:8}</style>
<ellipse fill="#4040c0" stroke="#ffffff" cx="426.32" cy="-581" rx="41.54" ry="31.11"/>
<text xml:space="preserve" text-anchor="middle" x="426.32" y="-589.5" font-family="Helvetica,sans-Serif" font-size="10.00" fill="#e0e0e0">src.</text>
<text xml:space="preserve" text-anchor="middle" x="426.32" y="-577.5" font-family="Helvetica,sans-Serif" font-size="10.00" fill="#e0e0e0">schemas.</text>
<text xml:space="preserve" text-anchor="middle" x="426.32" y="-565.5" font-family="Helvetica,sans-Serif" font-size="10.00" fill="#e0e0e0">root</text>
</g>
<!-- pydantic&#45;&gt;src_schemas_root -->
<g id="edge22" class="edge">
<title>pydantic&#45;&gt;src_schemas_root</title><style>.edge>path:hover{stroke-width:8}</style>
<path fill="none" stroke="#ffffff" d="M160.2,-614.36C171.78,-615.84 185.15,-617.29 197.34,-618"/>
<path fill="none" stroke="#ffffff" d="M198.34,-618C215.48,-618.99 217.69,-608.17 234.34,-604 280.63,-592.41 334.75,-586.59 373.53,-583.71"/>
<polygon fill="#0cf30c" stroke="#ffffff" points="373.3,-587.24 383.03,-583.05 372.81,-580.25 373.3,-587.24"/>
</g>
<!-- pydantic_settings -->
<g id="node10" class="node">
<title>pydantic_settings</title><style>.edge>path:hover{stroke-width:8}</style>
<ellipse fill="#53b695" stroke="#ffffff" cx="289.97" cy="-282" rx="55.62" ry="18"/>
<text xml:space="preserve" text-anchor="middle" x="289.97" y="-278.5" font-family="Helvetica,sans-Serif" font-size="10.00" fill="#e0e0e0">pydantic_settings</text>
</g>
<!-- pydantic_settings&#45;&gt;src_helpers_config_config -->
<g id="edge23" class="edge">
<title>pydantic_settings&#45;&gt;src_helpers_config_config</title><style>.edge>path:hover{stroke-width:8}</style>
<path fill="none" stroke="#ffffff" d="M318.63,-297.86C327.31,-302.93 336.9,-308.62 345.59,-314 381.57,-336.25 383.56,-359.19 425.32,-366"/>
<path fill="none" stroke="#ffffff" d="M427.32,-366C535.58,-383.66 569.99,-388.48 673.79,-353 685.7,-348.93 697.42,-342.24 707.79,-335.08"/>
<polygon fill="#53b695" stroke="#ffffff" points="709.66,-338.06 715.69,-329.34 705.54,-332.4 709.66,-338.06"/>
</g>
<!-- sqlalchemy -->
<g id="node11" class="node">
<title>sqlalchemy</title><style>.edge>path:hover{stroke-width:8}</style>
<ellipse fill="#269dd9" stroke="#ffffff" cx="289.97" cy="-1085" rx="39.39" ry="18"/>
<text xml:space="preserve" text-anchor="middle" x="289.97" y="-1081.5" font-family="Helvetica,sans-Serif" font-size="10.00" fill="#e0e0e0">sqlalchemy</text>
</g>
<!-- sqlalchemy&#45;&gt;src_api_routes_posts -->
<g id="edge24" class="edge">
<title>sqlalchemy&#45;&gt;src_api_routes_posts</title><style>.edge>path:hover{stroke-width:8}</style>
<path fill="none" stroke="#ffffff" d="M329.52,-1083.7C367.68,-1084.02 426.66,-1088.98 471.04,-1113 492.07,-1124.39 483.13,-1152.33 507.04,-1153"/>
<path fill="none" stroke="#ffffff" d="M508.04,-1153C552.57,-1150.23 563.89,-1150.19 607.92,-1143"/>
</g>
<!-- sqlalchemy&#45;&gt;src_api_routes_users -->
<g id="edge25" class="edge">
<title>sqlalchemy&#45;&gt;src_api_routes_users</title><style>.edge>path:hover{stroke-width:8}</style>
<path fill="none" stroke="#ffffff" d="M322.54,-1074.64C330.98,-1070.58 339.45,-1065.14 345.59,-1058 379.95,-1018.03 339.04,-976.1 381.59,-945 391.74,-937.58 596.08,-949.23 607.92,-945"/>
</g>
<!-- sqlalchemy_ext -->
<g id="node12" class="node">
<title>sqlalchemy_ext</title><style>.edge>path:hover{stroke-width:8}</style>
<ellipse fill="#4095c0" stroke="#ffffff" cx="289.97" cy="-901" rx="48.86" ry="18"/>
<text xml:space="preserve" text-anchor="middle" x="289.97" y="-897.5" font-family="Helvetica,sans-Serif" font-size="10.00" fill="#e0e0e0">sqlalchemy.ext</text>
</g>
<!-- sqlalchemy_ext&#45;&gt;src_api_routes_posts -->
<g id="edge26" class="edge">
<title>sqlalchemy_ext&#45;&gt;src_api_routes_posts</title><style>.edge>path:hover{stroke-width:8}</style>
<path fill="none" stroke="#ffffff" d="M427.32,-1018C516.39,-1057.93 511.58,-1158.74 607.92,-1143"/>
<path fill="none" stroke="#ffffff" d="M609.92,-1143C653.36,-1132.22 691.36,-1096.78 715.8,-1068.62"/>
<polygon fill="#4095c0" stroke="#ffffff" points="718.2,-1071.2 721.97,-1061.3 712.85,-1066.69 718.2,-1071.2"/>
<path fill="none" stroke="#ffffff" d="M303.62,-918.65C319.7,-940.04 349.28,-976.07 381.59,-999 398.87,-1011.26 407.49,-1006.54 425.32,-1018"/>
</g>
<!-- sqlalchemy_ext&#45;&gt;src_api_routes_users -->
<g id="edge27" class="edge">
<title>sqlalchemy_ext&#45;&gt;src_api_routes_users</title><style>.edge>path:hover{stroke-width:8}</style>
<path fill="none" stroke="#ffffff" d="M326.3,-888.79C342.9,-883.49 363.07,-877.67 381.59,-874 495.82,-851.37 633.17,-842.16 701.5,-838.77"/>
<polygon fill="#4095c0" stroke="#ffffff" points="701.32,-842.28 711.14,-838.31 700.99,-835.29 701.32,-842.28"/>
</g>
<!-- sqlalchemy_ext_asyncio -->
<g id="node13" class="node">
<title>sqlalchemy_ext_asyncio</title><style>.edge>path:hover{stroke-width:8}</style>
<ellipse fill="#4799c2" stroke="#ffffff" cx="289.97" cy="-1018" rx="47.91" ry="31.11"/>
<text xml:space="preserve" text-anchor="middle" x="289.97" y="-1026.5" font-family="Helvetica,sans-Serif" font-size="10.00" fill="#e0e0e0">sqlalchemy.</text>
<text xml:space="preserve" text-anchor="middle" x="289.97" y="-1014.5" font-family="Helvetica,sans-Serif" font-size="10.00" fill="#e0e0e0">ext.</text>
<text xml:space="preserve" text-anchor="middle" x="289.97" y="-1002.5" font-family="Helvetica,sans-Serif" font-size="10.00" fill="#e0e0e0">asyncio</text>
</g>
<!-- sqlalchemy_ext_asyncio&#45;&gt;src_api_routes_posts -->
<g id="edge28" class="edge">
<title>sqlalchemy_ext_asyncio&#45;&gt;src_api_routes_posts</title><style>.edge>path:hover{stroke-width:8}</style>
<path fill="none" stroke="#ffffff" d="M336.15,-1009.02C363.17,-1005.79 397.54,-1005.55 425.32,-1018"/>
</g>
<!-- sqlalchemy_ext_asyncio&#45;&gt;src_api_routes_users -->
<g id="edge29" class="edge">
<title>sqlalchemy_ext_asyncio&#45;&gt;src_api_routes_users</title><style>.edge>path:hover{stroke-width:8}</style>
<path fill="none" stroke="#ffffff" d="M306.53,-988.36C321.81,-962.79 347.73,-927.6 381.59,-912 473.92,-869.46 509.22,-969.35 607.92,-945"/>
<path fill="none" stroke="#ffffff" d="M609.92,-945C650.9,-930.35 688.71,-897.55 713.75,-871.91"/>
<polygon fill="#4799c2" stroke="#ffffff" points="716.01,-874.62 720.38,-864.97 710.94,-869.79 716.01,-874.62"/>
</g>
<!-- src_api -->
<g id="node14" class="node">
<title>src_api</title><style>.edge>path:hover{stroke-width:8}</style>
<ellipse fill="#2f2fdb" stroke="#ffffff" cx="1114.4" cy="-799" rx="27.21" ry="18"/>
<text xml:space="preserve" text-anchor="middle" x="1114.4" y="-795.5" font-family="Helvetica,sans-Serif" font-size="10.00" fill="#e0e0e0">src.api</text>
</g>
<!-- src_api&#45;&gt;src_main -->
<g id="edge30" class="edge">
<title>src_api&#45;&gt;src_main</title><style>.edge>path:hover{stroke-width:8}</style>
<path fill="none" stroke="#ffffff" d="M1141.91,-799C1149.39,-799 1157.72,-799 1165.9,-799"/>
<polygon fill="#2f2fdb" stroke="#ffffff" points="1165.73,-802.5 1175.73,-799 1165.73,-795.5 1165.73,-802.5"/>
</g>
<!-- src_api_router&#45;&gt;src_main -->
<g id="edge31" class="edge">
<title>src_api_router&#45;&gt;src_main</title><style>.edge>path:hover{stroke-width:8}</style>
<path fill="none" stroke="#ffffff" d="M1023.26,-1260.7C1047.95,-1273.2 1086,-1286.59 1113.4,-1269"/>
</g>
<!-- src_api_routes -->
<g id="node16" class="node">
<title>src_api_routes</title><style>.edge>path:hover{stroke-width:8}</style>
<ellipse fill="#4747c2" stroke="#ffffff" cx="862.46" cy="-1200" rx="45.25" ry="18"/>
<text xml:space="preserve" text-anchor="middle" x="862.46" y="-1196.5" font-family="Helvetica,sans-Serif" font-size="10.00" fill="#e0e0e0">src.api.routes</text>
</g>
<!-- src_api_routes&#45;&gt;src_api_router -->
<g id="edge32" class="edge">
<title>src_api_routes&#45;&gt;src_api_router</title><style>.edge>path:hover{stroke-width:8}</style>
<path fill="none" stroke="#ffffff" d="M897.37,-1211.73C914.06,-1217.5 934.4,-1224.54 952.3,-1230.73"/>
<polygon fill="#4747c2" stroke="#ffffff" points="951.05,-1234 961.64,-1233.96 953.34,-1227.38 951.05,-1234"/>
</g>
<!-- src_api_routes_auth&#45;&gt;src_api_router -->
<g id="edge33" class="edge">
<title>src_api_routes_auth&#45;&gt;src_api_router</title><style>.edge>path:hover{stroke-width:8}</style>
<path fill="none" stroke="#ffffff" d="M778.41,-1246C819.68,-1246 892.19,-1246 942.19,-1246"/>
<polygon fill="#3838a8" stroke="#ffffff" points="941.92,-1249.5 951.92,-1246 941.92,-1242.5 941.92,-1249.5"/>
</g>
<!-- src_api_routes_health&#45;&gt;src_api_router -->
<g id="edge34" class="edge">
<title>src_api_routes_health&#45;&gt;src_api_router</title><style>.edge>path:hover{stroke-width:8}</style>
<path fill="none" stroke="#ffffff" d="M777.3,-923.46C803.37,-916.7 839.85,-912.71 861.46,-934"/>
</g>
<!-- src_api_routes_posts&#45;&gt;src_api_router -->
<g id="edge35" class="edge">
<title>src_api_routes_posts&#45;&gt;src_api_router</title><style>.edge>path:hover{stroke-width:8}</style>
<path fill="none" stroke="#ffffff" d="M768.86,-1003.2C797.44,-969.18 845.18,-917.97 861.46,-934"/>
</g>
<!-- src_api_routes_root&#45;&gt;src_api_router -->
<g id="edge36" class="edge">
<title>src_api_routes_root&#45;&gt;src_api_router</title><style>.edge>path:hover{stroke-width:8}</style>
<path fill="none" stroke="#ffffff" d="M863.46,-934C957.22,-1026.34 860.35,-1117.18 943.71,-1219 946.56,-1222.48 949.98,-1225.56 953.69,-1228.28"/>
<polygon fill="#3838a8" stroke="#ffffff" points="951.71,-1231.17 962.05,-1233.49 955.42,-1225.23 951.71,-1231.17"/>
<path fill="none" stroke="#ffffff" d="M768.2,-768.79C772.65,-775.03 777.2,-781.66 781.21,-788 820.81,-850.56 808.71,-882.04 861.46,-934"/>
</g>
<!-- src_api_routes_users&#45;&gt;src_api_router -->
<g id="edge37" class="edge">
<title>src_api_routes_users&#45;&gt;src_api_router</title><style>.edge>path:hover{stroke-width:8}</style>
<path fill="none" stroke="#ffffff" d="M773.53,-857.86C797.49,-876.79 833,-905.96 861.46,-934"/>
</g>
<!-- src_helpers -->
<g id="node22" class="node">
<title>src_helpers</title><style>.edge>path:hover{stroke-width:8}</style>
<ellipse fill="#1616f3" stroke="#ffffff" cx="426.32" cy="-686" rx="38.49" ry="18"/>
<text xml:space="preserve" text-anchor="middle" x="426.32" y="-682.5" font-family="Helvetica,sans-Serif" font-size="10.00" fill="#e0e0e0">src.helpers</text>
</g>
<!-- src_helpers&#45;&gt;src_api_routes_users -->
<g id="edge38" class="edge">
<title>src_helpers&#45;&gt;src_api_routes_users</title><style>.edge>path:hover{stroke-width:8}</style>
<path fill="none" stroke="#ffffff" d="M508.04,-678C551.28,-667.95 568.81,-657 607.92,-678"/>
</g>
<!-- src_helpers&#45;&gt;src_main -->
<g id="edge39" class="edge">
<title>src_helpers&#45;&gt;src_main</title><style>.edge>path:hover{stroke-width:8}</style>
<path fill="none" stroke="#ffffff" d="M464.95,-684.22C478.36,-683.06 493.49,-681.15 507.04,-678"/>
<path fill="none" stroke="#ffffff" d="M508.04,-678C524.76,-674.11 527.83,-669.65 544.04,-664 632.1,-633.3 652.1,-614.58 744.5,-602"/>
</g>
<!-- src_helpers_config -->
<g id="node23" class="node">
<title>src_helpers_config</title><style>.edge>path:hover{stroke-width:8}</style>
<ellipse fill="#2222e7" stroke="#ffffff" cx="862.46" cy="-351" rx="35.71" ry="31.11"/>
<text xml:space="preserve" text-anchor="middle" x="862.46" y="-359.5" font-family="Helvetica,sans-Serif" font-size="10.00" fill="#e0e0e0">src.</text>
<text xml:space="preserve" text-anchor="middle" x="862.46" y="-347.5" font-family="Helvetica,sans-Serif" font-size="10.00" fill="#e0e0e0">helpers.</text>
<text xml:space="preserve" text-anchor="middle" x="862.46" y="-335.5" font-family="Helvetica,sans-Serif" font-size="10.00" fill="#e0e0e0">config</text>
</g>
<!-- src_helpers_logging_setup -->
<g id="node27" class="node">
<title>src_helpers_logging_setup</title><style>.edge>path:hover{stroke-width:8}</style>
<ellipse fill="#3535a1" stroke="#ffffff" cx="997.45" cy="-381" rx="53.74" ry="31.11"/>
<text xml:space="preserve" text-anchor="middle" x="997.45" y="-389.5" font-family="Helvetica,sans-Serif" font-size="10.00" fill="#e0e0e0">src.</text>
<text xml:space="preserve" text-anchor="middle" x="997.45" y="-377.5" font-family="Helvetica,sans-Serif" font-size="10.00" fill="#e0e0e0">helpers.</text>
<text xml:space="preserve" text-anchor="middle" x="997.45" y="-365.5" font-family="Helvetica,sans-Serif" font-size="10.00" fill="#e0e0e0">logging_setup</text>
</g>
<!-- src_helpers_config&#45;&gt;src_helpers_logging_setup -->
<g id="edge40" class="edge">
<title>src_helpers_config&#45;&gt;src_helpers_logging_setup</title><style>.edge>path:hover{stroke-width:8}</style>
<path fill="none" stroke="#ffffff" d="M897.37,-358.65C909.09,-361.29 922.61,-364.34 935.82,-367.32"/>
<polygon fill="#2222e7" stroke="#ffffff" points="934.79,-370.68 945.32,-369.46 936.33,-363.85 934.79,-370.68"/>
</g>
<!-- src_helpers_config&#45;&gt;src_helpers_security -->
<g id="edge41" class="edge">
<title>src_helpers_config&#45;&gt;src_helpers_security</title><style>.edge>path:hover{stroke-width:8}</style>
<path fill="none" stroke="#ffffff" d="M887.42,-328.52C894.3,-321.58 901.59,-313.73 907.71,-306 926.32,-282.52 923.45,-271.07 943.71,-249 948.46,-243.83 953.93,-238.86 959.53,-234.27"/>
<polygon fill="#2222e7" stroke="#ffffff" points="961.39,-237.26 967.13,-228.35 957.09,-231.73 961.39,-237.26"/>
</g>
<!-- src_helpers_config&#45;&gt;src_main -->
<g id="edge42" class="edge">
<title>src_helpers_config&#45;&gt;src_main</title><style>.edge>path:hover{stroke-width:8}</style>
<path fill="none" stroke="#ffffff" d="M893.57,-335.26C920.88,-323.13 962.01,-310.25 996.45,-322"/>
</g>
<!-- src_helpers_config_config&#45;&gt;src_helpers_logging_setup -->
<g id="edge43" class="edge">
<title>src_helpers_config_config&#45;&gt;src_helpers_logging_setup</title><style>.edge>path:hover{stroke-width:8}</style>
<path fill="none" stroke="#ffffff" d="M765.58,-336.98C785.23,-366.37 818.95,-405.44 861.46,-410"/>
<path fill="none" stroke="#ffffff" d="M863.46,-410C889.22,-412.77 917.31,-407.84 941.01,-401.31"/>
<polygon fill="#1e1eae" stroke="#ffffff" points="941.85,-404.71 950.46,-398.54 939.88,-397.99 941.85,-404.71"/>
</g>
<!-- src_helpers_config_config&#45;&gt;src_helpers_security -->
<g id="edge44" class="edge">
<title>src_helpers_config_config&#45;&gt;src_helpers_security</title><style>.edge>path:hover{stroke-width:8}</style>
<path fill="none" stroke="#ffffff" d="M863.46,-292C884.41,-288.88 929.04,-258.87 960.82,-235.83"/>
<polygon fill="#1e1eae" stroke="#ffffff" points="962.59,-238.86 968.6,-230.13 958.46,-233.22 962.59,-238.86"/>
<path fill="none" stroke="#ffffff" d="M781.57,-301.15C804.39,-299.09 834.77,-295.98 861.46,-292"/>
</g>
<!-- src_helpers_config_config&#45;&gt;src_main -->
<g id="edge45" class="edge">
<title>src_helpers_config_config&#45;&gt;src_main</title><style>.edge>path:hover{stroke-width:8}</style>
<path fill="none" stroke="#ffffff" d="M863.46,-292C893.43,-287.53 967.78,-312.22 996.45,-322"/>
</g>
<!-- src_helpers_config_env_loader_mixin -->
<g id="node25" class="node">
<title>src_helpers_config_env_loader_mixin</title><style>.edge>path:hover{stroke-width:8}</style>
<ellipse fill="#4747c2" stroke="#ffffff" cx="608.92" cy="-304" rx="64.88" ry="39.6"/>
<text xml:space="preserve" text-anchor="middle" x="608.92" y="-318.5" font-family="Helvetica,sans-Serif" font-size="10.00" fill="#e0e0e0">src.</text>
<text xml:space="preserve" text-anchor="middle" x="608.92" y="-306.5" font-family="Helvetica,sans-Serif" font-size="10.00" fill="#e0e0e0">helpers.</text>
<text xml:space="preserve" text-anchor="middle" x="608.92" y="-294.5" font-family="Helvetica,sans-Serif" font-size="10.00" fill="#e0e0e0">config.</text>
<text xml:space="preserve" text-anchor="middle" x="608.92" y="-282.5" font-family="Helvetica,sans-Serif" font-size="10.00" fill="#e0e0e0">env_loader_mixin</text>
</g>
<!-- src_helpers_config_env_loader_mixin&#45;&gt;src_helpers_config_config -->
<g id="edge46" class="edge">
<title>src_helpers_config_env_loader_mixin&#45;&gt;src_helpers_config_config</title><style>.edge>path:hover{stroke-width:8}</style>
<path fill="none" stroke="#ffffff" d="M674.06,-304C682.15,-304 690.3,-304 698.05,-304"/>
<polygon fill="#4747c2" stroke="#ffffff" points="697.91,-307.5 707.91,-304 697.91,-300.5 697.91,-307.5"/>
</g>
<!-- src_helpers_exceptions&#45;&gt;src_api_routes_users -->
<g id="edge47" class="edge">
<title>src_helpers_exceptions&#45;&gt;src_api_routes_users</title><style>.edge>path:hover{stroke-width:8}</style>
<path fill="none" stroke="#ffffff" d="M454.31,-525.35C459.89,-530.47 465.69,-535.88 471.04,-541 533.23,-600.51 532.08,-637.29 607.92,-678"/>
<path fill="none" stroke="#ffffff" d="M609.92,-678C636.1,-693.17 685.56,-756.45 716.68,-798.46"/>
<polygon fill="#2f2fbc" stroke="#ffffff" points="713.76,-800.4 722.51,-806.38 719.4,-796.25 713.76,-800.4"/>
</g>
<!-- src_helpers_exceptions&#45;&gt;src_main -->
<g id="edge48" class="edge">
<title>src_helpers_exceptions&#45;&gt;src_main</title><style>.edge>path:hover{stroke-width:8}</style>
<path fill="none" stroke="#ffffff" d="M471.2,-497.29C482.98,-497.3 495.61,-498.23 507.04,-501"/>
</g>
<!-- src_helpers_logging_setup&#45;&gt;src_main -->
<g id="edge49" class="edge">
<title>src_helpers_logging_setup&#45;&gt;src_main</title><style>.edge>path:hover{stroke-width:8}</style>
<path fill="none" stroke="#ffffff" d="M1045.79,-366.87C1069.24,-363.01 1096.16,-363.81 1113.4,-381"/>
</g>
<!-- src_schemas -->
<g id="node30" class="node">
<title>src_schemas</title><style>.edge>path:hover{stroke-width:8}</style>
<ellipse fill="#2f2fdb" stroke="#ffffff" cx="426.32" cy="-972" rx="43.45" ry="18"/>
<text xml:space="preserve" text-anchor="middle" x="426.32" y="-968.5" font-family="Helvetica,sans-Serif" font-size="10.00" fill="#e0e0e0">src.schemas</text>
</g>
<!-- src_schemas&#45;&gt;src_api_routes_health -->
<g id="edge50" class="edge">
<title>src_schemas&#45;&gt;src_api_routes_health</title><style>.edge>path:hover{stroke-width:8}</style>
<path fill="none" stroke="#ffffff" d="M451.42,-987C485.39,-1006.46 549.7,-1037.24 607.92,-1031"/>
<path fill="none" stroke="#ffffff" d="M609.92,-1031C651.86,-1027.34 689.79,-996.23 714.61,-970.22"/>
<polygon fill="#2f2fdb" stroke="#ffffff" points="716.96,-972.83 721.17,-963.1 711.81,-968.08 716.96,-972.83"/>
</g>
<!-- src_schemas&#45;&gt;src_api_routes_posts -->
<g id="edge51" class="edge">
<title>src_schemas&#45;&gt;src_api_routes_posts</title><style>.edge>path:hover{stroke-width:8}</style>
<path fill="none" stroke="#ffffff" d="M609.92,-1031C640.43,-1028.34 674.99,-1028.4 701.45,-1029.1"/>
<polygon fill="#2f2fdb" stroke="#ffffff" points="701,-1032.59 711.11,-1029.4 701.22,-1025.59 701,-1032.59"/>
</g>
<!-- src_schemas&#45;&gt;src_api_routes_root -->
<g id="edge52" class="edge">
<title>src_schemas&#45;&gt;src_api_routes_root</title><style>.edge>path:hover{stroke-width:8}</style>
<path fill="none" stroke="#ffffff" d="M448.62,-956.42C501.95,-917.41 641.68,-815.21 708.24,-766.52"/>
<polygon fill="#2f2fdb" stroke="#ffffff" points="709.9,-769.64 715.91,-760.91 705.77,-763.99 709.9,-769.64"/>
</g>
<!-- src_schemas_health&#45;&gt;src_api_routes_health -->
<g id="edge53" class="edge">
<title>src_schemas_health&#45;&gt;src_api_routes_health</title><style>.edge>path:hover{stroke-width:8}</style>
<path fill="none" stroke="#ffffff" d="M462.47,-806.85C521.94,-833.66 642,-887.79 704.55,-915.99"/>
<polygon fill="#4040c0" stroke="#ffffff" points="702.87,-919.07 713.43,-919.99 705.75,-912.69 702.87,-919.07"/>
</g>
<!-- src_schemas_post&#45;&gt;src_api_routes_posts -->
<g id="edge54" class="edge">
<title>src_schemas_post&#45;&gt;src_api_routes_posts</title><style>.edge>path:hover{stroke-width:8}</style>
<path fill="none" stroke="#ffffff" d="M468.29,-1152.56C480.74,-1152.54 494.45,-1152.65 507.04,-1153"/>
</g>
<!-- src_schemas_root&#45;&gt;src_api_routes_root -->
<g id="edge55" class="edge">
<title>src_schemas_root&#45;&gt;src_api_routes_root</title><style>.edge>path:hover{stroke-width:8}</style>
<path fill="none" stroke="#ffffff" d="M465.4,-569.47C502.47,-560.09 560.04,-550.44 607.92,-564"/>
<path fill="none" stroke="#ffffff" d="M609.92,-564C669.72,-581.37 707.71,-647.15 727.56,-693.17"/>
<polygon fill="#4040c0" stroke="#ffffff" points="724.21,-694.25 731.28,-702.14 730.68,-691.56 724.21,-694.25"/>
</g>
<!-- structlog -->
<g id="node34" class="node">
<title>structlog</title><style>.edge>path:hover{stroke-width:8}</style>
<ellipse fill="#9d26d9" stroke="#ffffff" cx="129.17" cy="-392" rx="32.17" ry="18"/>
<text xml:space="preserve" text-anchor="middle" x="129.17" y="-388.5" font-family="Helvetica,sans-Serif" font-size="10.00" fill="#e0e0e0">structlog</text>
</g>
<!-- structlog&#45;&gt;src_helpers_exceptions -->
<g id="edge56" class="edge">
<title>structlog&#45;&gt;src_helpers_exceptions</title><style>.edge>path:hover{stroke-width:8}</style>
<path fill="none" stroke="#ffffff" d="M133.85,-410.12C140.66,-437.89 158.27,-489.18 197.34,-503"/>
<path fill="none" stroke="#ffffff" d="M198.34,-503C254.98,-523.02 324.64,-518.49 371.73,-511.55"/>
<polygon fill="#9d26d9" stroke="#ffffff" points="372.07,-515.04 381.41,-510.03 370.99,-508.12 372.07,-515.04"/>
</g>
<!-- structlog&#45;&gt;src_helpers_logging_setup -->
<g id="edge57" class="edge">
<title>structlog&#45;&gt;src_helpers_logging_setup</title><style>.edge>path:hover{stroke-width:8}</style>
<path fill="none" stroke="#ffffff" d="M198.34,-328C267.9,-279.73 298.39,-364.35 381.59,-380 436.63,-390.35 451.18,-387.91 507.04,-392 664.34,-403.51 704.64,-393.17 861.46,-410"/>
</g>
<!-- structlog&#45;&gt;src_main -->
<g id="edge58" class="edge">
<title>structlog&#45;&gt;src_main</title><style>.edge>path:hover{stroke-width:8}</style>
<path fill="none" stroke="#ffffff" d="M198.34,-328C228.63,-308.22 204.61,-275.6 234.34,-255 304.45,-206.42 340.02,-236 425.32,-236 425.32,-236 425.32,-236 609.92,-236 743.58,-236 784.26,-226.76 907.71,-278 925.7,-285.47 926.4,-294.07 943.71,-303 965.85,-314.43 972.87,-313.96 996.45,-322"/>
<path fill="none" stroke="#ffffff" d="M143.95,-375.68C156.62,-361.51 176.55,-341.24 197.34,-328"/>
<path fill="none" stroke="#ffffff" d="M998.45,-322C1053.18,-339.39 1072.73,-340.47 1113.4,-381"/>
</g>
<!-- uvicorn -->
<g id="node35" class="node">
<title>uvicorn</title><style>.edge>path:hover{stroke-width:8}</style>
<ellipse fill="#c04095" stroke="#ffffff" cx="997.45" cy="-276" rx="28.56" ry="18"/>
<text xml:space="preserve" text-anchor="middle" x="997.45" y="-272.5" font-family="Helvetica,sans-Serif" font-size="10.00" fill="#e0e0e0">uvicorn</text>
</g>
<!-- uvicorn&#45;&gt;src_main -->
<g id="edge59" class="edge">
<title>uvicorn&#45;&gt;src_main</title><style>.edge>path:hover{stroke-width:8}</style>
<path fill="none" stroke="#ffffff" d="M1115.4,-381C1170.88,-436.28 1198.28,-683.59 1206.25,-769.49"/>
<polygon fill="#c04095" stroke="#ffffff" points="1202.77,-769.8 1207.15,-779.44 1209.74,-769.17 1202.77,-769.8"/>
<path fill="none" stroke="#ffffff" d="M1020.29,-287.16C1030.22,-292.75 1041.81,-300.02 1051.19,-308 1083.65,-335.63 1083.21,-350.91 1113.4,-381"/>
</g>
</g>
</svg>

