<?xml version="1.0" encoding="UTF-8" standalone="no"?>
<!DOCTYPE svg PUBLIC "-//W3C//DTD SVG 1.1//EN"
 "http://www.w3.org/Graphics/SVG/1.1/DTD/svg11.dtd">
<!-- Generated by graphviz version 15.0.0 (20260523.1842)
 -->
<!-- Title: G Pages: 1 -->
<svg style="background-color:#141414" width="1795pt" height="795pt"
 viewBox="0.00 0.00 1795.00 795.00" xmlns="http://www.w3.org/2000/svg" xmlns:xlink="http://www.w3.org/1999/xlink">
<g id="graph0" class="graph" transform="scale(1 1) rotate(0) translate(4 791)">
<title>G</title><style>.edge>path:hover{stroke-width:8}</style>
<polygon fill="#141414" stroke="none" points="-4,4 -4,-791 1791.26,-791 1791.26,4 -4,4"/>
<!-- __main__ -->
<g id="node1" class="node">
<title>__main__</title><style>.edge>path:hover{stroke-width:8}</style>
<polygon fill="#5a5a5a" stroke="#ffffff" points="430.38,-570 427.38,-574 406.38,-574 403.38,-570 372.38,-570 372.38,-534 430.38,-534 430.38,-570"/>
<text xml:space="preserve" text-anchor="middle" x="401.38" y="-548.5" font-family="Helvetica,sans-Serif" font-size="10.00" fill="#e0e0e0">__main__</text>
</g>
<!-- django -->
<g id="node12" class="node">
<title>django</title><style>.edge>path:hover{stroke-width:8}</style>
<polygon fill="#5a5a5a" stroke="#ffffff" points="781,-626 778,-630 757,-630 754,-626 727,-626 727,-590 781,-590 781,-626"/>
<text xml:space="preserve" text-anchor="middle" x="754" y="-604.5" font-family="Helvetica,sans-Serif" font-size="10.00" fill="#e0e0e0">django</text>
</g>
<!-- __main__&#45;&gt;django -->
<g id="edge1" class="edge">
<title>__main__&#45;&gt;django</title><style>.edge>path:hover{stroke-width:8}</style>
<path fill="none" stroke="#ffffff" d="M430.81,-554.97C450.15,-556.84 476.34,-559.07 499.5,-560"/>
</g>
<!-- _hypothesis_ftz_detector -->
<g id="node2" class="node">
<title>_hypothesis_ftz_detector</title><style>.edge>path:hover{stroke-width:8}</style>
<polygon fill="#b66453" stroke="#ffffff" points="816.75,-496 813.75,-500 792.75,-500 789.75,-496 691.25,-496 691.25,-460 816.75,-460 816.75,-496"/>
<text xml:space="preserve" text-anchor="middle" x="754" y="-474.5" font-family="Helvetica,sans-Serif" font-size="10.00" fill="#e0e0e0">_hypothesis_ftz_detector</text>
</g>
<!-- hypothesis -->
<g id="node14" class="node">
<title>hypothesis</title><style>.edge>path:hover{stroke-width:8}</style>
<polygon fill="#5a5a5a" stroke="#ffffff" points="1327.12,-550 1324.12,-554 1303.12,-554 1300.12,-550 1263.88,-550 1263.88,-514 1327.12,-514 1327.12,-550"/>
<text xml:space="preserve" text-anchor="middle" x="1295.5" y="-528.5" font-family="Helvetica,sans-Serif" font-size="10.00" fill="#e0e0e0">hypothesis</text>
</g>
<!-- _hypothesis_ftz_detector&#45;&gt;hypothesis -->
<g id="edge2" class="edge">
<title>_hypothesis_ftz_detector&#45;&gt;hypothesis</title><style>.edge>path:hover{stroke-width:8}</style>
<path fill="none" stroke="#ffffff" d="M880.75,-524C998.72,-534.7 1028.8,-527.16 1147.25,-528"/>
<path fill="none" stroke="#ffffff" d="M790.4,-496.4C814.55,-507.62 847.66,-520.47 878.75,-524"/>
</g>
<!-- _hypothesis_globals -->
<g id="node3" class="node">
<title>_hypothesis_globals</title><style>.edge>path:hover{stroke-width:8}</style>
<polygon fill="#c27047" stroke="#ffffff" points="1047.25,-588 1044.25,-592 1023.25,-592 1020.25,-588 942.75,-588 942.75,-552 1047.25,-552 1047.25,-588"/>
<text xml:space="preserve" text-anchor="middle" x="995" y="-566.5" font-family="Helvetica,sans-Serif" font-size="10.00" fill="#e0e0e0">_hypothesis_globals</text>
</g>
<!-- _hypothesis_globals&#45;&gt;hypothesis -->
<g id="edge3" class="edge">
<title>_hypothesis_globals&#45;&gt;hypothesis</title><style>.edge>path:hover{stroke-width:8}</style>
<path fill="none" stroke="#ffffff" d="M1038.16,-551.53C1068.03,-540.14 1109.37,-527.73 1147.25,-528"/>
</g>
<!-- _pytest -->
<g id="node4" class="node">
<title>_pytest</title><style>.edge>path:hover{stroke-width:8}</style>
<polygon fill="#f98006" stroke="#ffffff" points="1175.25,-212 1172.25,-216 1151.25,-216 1148.25,-212 1121.25,-212 1121.25,-176 1175.25,-176 1175.25,-212"/>
<text xml:space="preserve" text-anchor="middle" x="1148.25" y="-190.5" font-family="Helvetica,sans-Serif" font-size="10.00" fill="#e0e0e0">_pytest</text>
</g>
<!-- py -->
<g id="node21" class="node">
<title>py</title><style>.edge>path:hover{stroke-width:8}</style>
<polygon fill="#5a5a5a" stroke="#ffffff" points="1482.75,-212 1479.75,-216 1458.75,-216 1455.75,-212 1428.75,-212 1428.75,-176 1482.75,-176 1482.75,-212"/>
<text xml:space="preserve" text-anchor="middle" x="1455.75" y="-190.5" font-family="Helvetica,sans-Serif" font-size="10.00" fill="#e0e0e0">py</text>
</g>
<!-- _pytest&#45;&gt;py -->
<g id="edge4" class="edge">
<title>_pytest&#45;&gt;py</title><style>.edge>path:hover{stroke-width:8}</style>
<path fill="none" stroke="#ffffff" d="M1186.89,-194C1245.6,-194 1358.32,-194 1417.06,-194"/>
<polygon fill="#f98006" stroke="#ffffff" points="1187.07,-190.5 1177.07,-194 1187.07,-197.5 1187.07,-190.5"/>
<polygon fill="#f98006" stroke="#ffffff" points="1416.88,-197.5 1426.88,-194 1416.88,-190.5 1416.88,-197.5"/>
</g>
<!-- pytest -->
<g id="node26" class="node">
<title>pytest</title><style>.edge>path:hover{stroke-width:8}</style>
<polygon fill="#5a5a5a" stroke="#ffffff" points="906.75,-672 903.75,-676 882.75,-676 879.75,-672 852.75,-672 852.75,-636 906.75,-636 906.75,-672"/>
<text xml:space="preserve" text-anchor="middle" x="879.75" y="-650.5" font-family="Helvetica,sans-Serif" font-size="10.00" fill="#e0e0e0">pytest</text>
</g>
<!-- annotated_types -->
<g id="node5" class="node">
<title>annotated_types</title><style>.edge>path:hover{stroke-width:8}</style>
<polygon fill="#e6a219" stroke="#ffffff" points="653.38,-304 650.38,-308 629.38,-308 626.38,-304 565.38,-304 565.38,-268 653.38,-268 653.38,-304"/>
<text xml:space="preserve" text-anchor="middle" x="609.38" y="-282.5" font-family="Helvetica,sans-Serif" font-size="10.00" fill="#e0e0e0">annotated_types</text>
</g>
<!-- annotated_types&#45;&gt;hypothesis -->
<g id="edge6" class="edge">
<title>annotated_types&#45;&gt;hypothesis</title><style>.edge>path:hover{stroke-width:8}</style>
<path fill="none" stroke="#ffffff" d="M653.69,-301.58C777.45,-346.08 1131.49,-473.39 1252.99,-517.07"/>
<polygon fill="#e6a219" stroke="#ffffff" points="1251.65,-520.31 1262.25,-520.4 1254.02,-513.72 1251.65,-520.31"/>
</g>
<!-- pydantic -->
<g id="node22" class="node">
<title>pydantic</title><style>.edge>path:hover{stroke-width:8}</style>
<polygon fill="#5a5a5a" stroke="#ffffff" points="906.75,-128 903.75,-132 882.75,-132 879.75,-128 852.75,-128 852.75,-92 906.75,-92 906.75,-128"/>
<text xml:space="preserve" text-anchor="middle" x="879.75" y="-106.5" font-family="Helvetica,sans-Serif" font-size="10.00" fill="#e0e0e0">pydantic</text>
</g>
<!-- annotated_types&#45;&gt;pydantic -->
<g id="edge7" class="edge">
<title>annotated_types&#45;&gt;pydantic</title><style>.edge>path:hover{stroke-width:8}</style>
<path fill="none" stroke="#ffffff" d="M622.44,-267.57C643.79,-235.04 686.45,-170.54 691.25,-167 714.35,-149.94 724.44,-151.02 753,-148"/>
</g>
<!-- asgiref -->
<g id="node6" class="node">
<title>asgiref</title><style>.edge>path:hover{stroke-width:8}</style>
<polygon fill="#f9d210" stroke="#ffffff" points="320.5,-510 317.5,-514 296.5,-514 293.5,-510 266.5,-510 266.5,-474 320.5,-474 320.5,-510"/>
<text xml:space="preserve" text-anchor="middle" x="293.5" y="-488.5" font-family="Helvetica,sans-Serif" font-size="10.00" fill="#e0e0e0">asgiref</text>
</g>
<!-- asgiref&#45;&gt;django -->
<g id="edge8" class="edge">
<title>asgiref&#45;&gt;django</title><style>.edge>path:hover{stroke-width:8}</style>
<path fill="none" stroke="#ffffff" d="M315.9,-510.16C320.52,-514.49 325.22,-519.25 329.25,-524 348.14,-546.29 339.55,-565.11 365.25,-579 393.5,-594.27 405.74,-583.76 437.5,-579 466,-574.73 470.7,-558.84 499.5,-560"/>
</g>
<!-- attr -->
<g id="node7" class="node">
<title>attr</title><style>.edge>path:hover{stroke-width:8}</style>
<polygon fill="#5a5a5a" stroke="#ffffff" points="320.5,-364 317.5,-368 296.5,-368 293.5,-364 266.5,-364 266.5,-328 320.5,-328 320.5,-364"/>
<text xml:space="preserve" text-anchor="middle" x="293.5" y="-342.5" font-family="Helvetica,sans-Serif" font-size="10.00" fill="#e0e0e0">attr</text>
</g>
<!-- attrs -->
<g id="node8" class="node">
<title>attrs</title><style>.edge>path:hover{stroke-width:8}</style>
<polygon fill="#74822b" stroke="#ffffff" points="527.5,-494 524.5,-498 503.5,-498 500.5,-494 473.5,-494 473.5,-458 527.5,-458 527.5,-494"/>
<text xml:space="preserve" text-anchor="middle" x="500.5" y="-472.5" font-family="Helvetica,sans-Serif" font-size="10.00" fill="#e0e0e0">attrs</text>
</g>
<!-- attr&#45;&gt;attrs -->
<g id="edge9" class="edge">
<title>attr&#45;&gt;attrs</title><style>.edge>path:hover{stroke-width:8}</style>
<path fill="none" stroke="#ffffff" d="M402.38,-392C431.91,-404.55 458.94,-429.55 476.94,-449.03"/>
<polygon fill="#5a5a5a" stroke="#ffffff" points="474.27,-451.28 483.55,-456.39 479.48,-446.61 474.27,-451.28"/>
</g>
<!-- attr&#45;&gt;hypothesis -->
<g id="edge10" class="edge">
<title>attr&#45;&gt;hypothesis</title><style>.edge>path:hover{stroke-width:8}</style>
<path fill="none" stroke="#ffffff" d="M320.99,-357.65C342.38,-367.02 373.26,-380.48 400.38,-392"/>
<path fill="none" stroke="#ffffff" d="M402.38,-392C465.81,-418.97 624.24,-488.82 691.25,-505 772.67,-524.66 795.53,-514.54 878.75,-524"/>
</g>
<!-- rich -->
<g id="node29" class="node">
<title>rich</title><style>.edge>path:hover{stroke-width:8}</style>
<polygon fill="#5a5a5a" stroke="#ffffff" points="527.5,-174 524.5,-178 503.5,-178 500.5,-174 473.5,-174 473.5,-138 527.5,-138 527.5,-174"/>
<text xml:space="preserve" text-anchor="middle" x="500.5" y="-152.5" font-family="Helvetica,sans-Serif" font-size="10.00" fill="#e0e0e0">rich</text>
</g>
<!-- attr&#45;&gt;rich -->
<g id="edge11" class="edge">
<title>attr&#45;&gt;rich</title><style>.edge>path:hover{stroke-width:8}</style>
<path fill="none" stroke="#ffffff" d="M314.36,-327.74C319.23,-323.25 324.43,-318.45 329.25,-314 379.4,-267.64 437.71,-213.47 471.43,-182.11"/>
<polygon fill="#5a5a5a" stroke="#ffffff" points="473.81,-184.68 478.75,-175.3 469.05,-179.55 473.81,-184.68"/>
</g>
<!-- attrs&#45;&gt;hypothesis -->
<g id="edge12" class="edge">
<title>attrs&#45;&gt;hypothesis</title><style>.edge>path:hover{stroke-width:8}</style>
<path fill="none" stroke="#ffffff" d="M527.87,-490.31C548.99,-501.04 579.72,-515.02 608.38,-522"/>
<path fill="none" stroke="#ffffff" d="M610.38,-522C703.06,-544.58 726.96,-548.77 816.75,-581 845.04,-591.15 848.93,-604.25 878.75,-608"/>
<path fill="none" stroke="#ffffff" d="M880.75,-608C954.33,-617.3 977.21,-621.38 1047.25,-597 1098.25,-579.25 1093.41,-532.06 1147.25,-528"/>
</g>
<!-- bcrypt -->
<g id="node9" class="node">
<title>bcrypt</title><style>.edge>path:hover{stroke-width:8}</style>
<polygon fill="#91b34c" stroke="#ffffff" points="54,-700 51,-704 30,-704 27,-700 0,-700 0,-664 54,-664 54,-700"/>
<text xml:space="preserve" text-anchor="middle" x="27" y="-678.5" font-family="Helvetica,sans-Serif" font-size="10.00" fill="#e0e0e0">bcrypt</text>
</g>
<!-- cryptography -->
<g id="node11" class="node">
<title>cryptography</title><style>.edge>path:hover{stroke-width:8}</style>
<polygon fill="#53ef06" stroke="#ffffff" points="437.5,-700 434.5,-704 413.5,-704 410.5,-700 365.25,-700 365.25,-664 437.5,-664 437.5,-700"/>
<text xml:space="preserve" text-anchor="middle" x="401.38" y="-678.5" font-family="Helvetica,sans-Serif" font-size="10.00" fill="#e0e0e0">cryptography</text>
</g>
<!-- bcrypt&#45;&gt;cryptography -->
<g id="edge13" class="edge">
<title>bcrypt&#45;&gt;cryptography</title><style>.edge>path:hover{stroke-width:8}</style>
<path fill="none" stroke="#ffffff" d="M54.48,-682C117.12,-682 275.02,-682 353.95,-682"/>
<polygon fill="#91b34c" stroke="#ffffff" points="353.49,-685.5 363.49,-682 353.49,-678.5 353.49,-685.5"/>
</g>
<!-- colorama -->
<g id="node10" class="node">
<title>colorama</title><style>.edge>path:hover{stroke-width:8}</style>
<polygon fill="#5a5a5a" stroke="#ffffff" points="321.38,-456 318.38,-460 297.38,-460 294.38,-456 265.62,-456 265.62,-420 321.38,-420 321.38,-456"/>
<text xml:space="preserve" text-anchor="middle" x="293.5" y="-434.5" font-family="Helvetica,sans-Serif" font-size="10.00" fill="#e0e0e0">colorama</text>
</g>
<!-- colorama&#45;&gt;_pytest -->
<g id="edge14" class="edge">
<title>colorama&#45;&gt;_pytest</title><style>.edge>path:hover{stroke-width:8}</style>
<path fill="none" stroke="#ffffff" d="M321.8,-437.55C376.29,-436.6 502.43,-434.13 608.38,-430"/>
</g>
<!-- colorama&#45;&gt;django -->
<g id="edge15" class="edge">
<title>colorama&#45;&gt;django</title><style>.edge>path:hover{stroke-width:8}</style>
<path fill="none" stroke="#ffffff" d="M321.6,-455.12C334.72,-463.34 350.75,-473.28 365.25,-482 368.95,-484.22 495.2,-559.72 499.5,-560"/>
<path fill="none" stroke="#ffffff" d="M501.5,-560C578.68,-565.42 667.16,-585.66 715.91,-598.06"/>
<polygon fill="#5a5a5a" stroke="#ffffff" points="714.81,-601.39 725.37,-600.5 716.56,-594.61 714.81,-601.39"/>
</g>
<!-- jwt -->
<g id="node16" class="node">
<title>jwt</title><style>.edge>path:hover{stroke-width:8}</style>
<polygon fill="#3d8f66" stroke="#ffffff" points="906.75,-787 903.75,-791 882.75,-791 879.75,-787 852.75,-787 852.75,-751 906.75,-751 906.75,-787"/>
<text xml:space="preserve" text-anchor="middle" x="879.75" y="-765.5" font-family="Helvetica,sans-Serif" font-size="10.00" fill="#e0e0e0">jwt</text>
</g>
<!-- cryptography&#45;&gt;jwt -->
<g id="edge16" class="edge">
<title>cryptography&#45;&gt;jwt</title><style>.edge>path:hover{stroke-width:8}</style>
<path fill="none" stroke="#ffffff" d="M437.55,-680.08C456.05,-679.55 479.06,-679.66 499.5,-682"/>
</g>
<!-- django&#45;&gt;hypothesis -->
<g id="edge17" class="edge">
<title>django&#45;&gt;hypothesis</title><style>.edge>path:hover{stroke-width:8}</style>
<path fill="none" stroke="#ffffff" d="M781.19,-606.11C806.32,-604.74 845.28,-603.79 878.75,-608"/>
</g>
<!-- rest_framework -->
<g id="node27" class="node">
<title>rest_framework</title><style>.edge>path:hover{stroke-width:8}</style>
<polygon fill="#6422e7" stroke="#ffffff" points="1036.75,-764 1033.75,-768 1012.75,-768 1009.75,-764 953.25,-764 953.25,-728 1036.75,-728 1036.75,-764"/>
<text xml:space="preserve" text-anchor="middle" x="995" y="-742.5" font-family="Helvetica,sans-Serif" font-size="10.00" fill="#e0e0e0">rest_framework</text>
</g>
<!-- django&#45;&gt;rest_framework -->
<g id="edge18" class="edge">
<title>django&#45;&gt;rest_framework</title><style>.edge>path:hover{stroke-width:8}</style>
<path fill="none" stroke="#ffffff" d="M880.75,-700C900.75,-708.79 922.97,-717.95 942.4,-725.76"/>
<polygon fill="#5a5a5a" stroke="#ffffff" points="940.89,-728.93 951.47,-729.39 943.49,-722.43 940.89,-728.93"/>
</g>
<!-- rest_framework_simplejwt -->
<g id="node28" class="node">
<title>rest_framework_simplejwt</title><style>.edge>path:hover{stroke-width:8}</style>
<polygon fill="#8553b6" stroke="#ffffff" points="1213.25,-764 1210.25,-768 1189.25,-768 1186.25,-764 1083.25,-764 1083.25,-728 1213.25,-728 1213.25,-764"/>
<text xml:space="preserve" text-anchor="middle" x="1148.25" y="-742.5" font-family="Helvetica,sans-Serif" font-size="10.00" fill="#e0e0e0">rest_framework_simplejwt</text>
</g>
<!-- django&#45;&gt;rest_framework_simplejwt -->
<g id="edge19" class="edge">
<title>django&#45;&gt;rest_framework_simplejwt</title><style>.edge>path:hover{stroke-width:8}</style>
<path fill="none" stroke="#ffffff" d="M996,-700C1031.44,-700 1069.62,-711.71 1098.75,-723.31"/>
<polygon fill="#5a5a5a" stroke="#ffffff" points="1097.07,-726.4 1107.65,-726.98 1099.74,-719.93 1097.07,-726.4"/>
</g>
<!-- tests2_conftest -->
<g id="node32" class="node">
<title>tests2_conftest</title><style>.edge>path:hover{stroke-width:8}</style>
<polygon fill="#5a5a5a" stroke="#ffffff" points="1175.25,-672 1121.25,-672 1121.25,-636 1175.25,-636 1175.25,-672"/>
<text xml:space="preserve" text-anchor="middle" x="1148.25" y="-656.5" font-family="Helvetica,sans-Serif" font-size="10.00" fill="#e0e0e0">tests2.</text>
<text xml:space="preserve" text-anchor="middle" x="1148.25" y="-644.5" font-family="Helvetica,sans-Serif" font-size="10.00" fill="#e0e0e0">conftest</text>
</g>
<!-- django&#45;&gt;tests2_conftest -->
<g id="edge20" class="edge">
<title>django&#45;&gt;tests2_conftest</title><style>.edge>path:hover{stroke-width:8}</style>
<path fill="none" stroke="#ffffff" d="M880.75,-700C926.82,-720.26 943.67,-700 994,-700"/>
<path fill="none" stroke="#ffffff" d="M773.81,-626.34C796.67,-647.53 837.33,-681.79 878.75,-700"/>
<path fill="none" stroke="#ffffff" d="M996,-700C1036.46,-700 1080.47,-684.75 1110.53,-671.81"/>
<polygon fill="#5a5a5a" stroke="#ffffff" points="1111.84,-675.06 1119.56,-667.8 1109,-668.66 1111.84,-675.06"/>
</g>
<!-- tests2_test_api -->
<g id="node34" class="node">
<title>tests2_test_api</title><style>.edge>path:hover{stroke-width:8}</style>
<polygon fill="#5a5a5a" stroke="#ffffff" points="1482.75,-604 1428.75,-604 1428.75,-568 1482.75,-568 1482.75,-604"/>
<text xml:space="preserve" text-anchor="middle" x="1455.75" y="-588.5" font-family="Helvetica,sans-Serif" font-size="10.00" fill="#e0e0e0">tests2.</text>
<text xml:space="preserve" text-anchor="middle" x="1455.75" y="-576.5" font-family="Helvetica,sans-Serif" font-size="10.00" fill="#e0e0e0">test_api</text>
</g>
<!-- django&#45;&gt;tests2_test_api -->
<g id="edge21" class="edge">
<title>django&#45;&gt;tests2_test_api</title><style>.edge>path:hover{stroke-width:8}</style>
<path fill="none" stroke="#ffffff" d="M996,-700C1150.04,-700 1198.19,-731.84 1341.75,-676 1344.17,-675.06 1390.66,-637.75 1423.24,-611.46"/>
<polygon fill="#5a5a5a" stroke="#ffffff" points="1425.26,-614.34 1430.84,-605.33 1420.86,-608.89 1425.26,-614.34"/>
</g>
<!-- dotenv -->
<g id="node13" class="node">
<title>dotenv</title><style>.edge>path:hover{stroke-width:8}</style>
<polygon fill="#3db83d" stroke="#ffffff" points="527.5,-82 524.5,-86 503.5,-86 500.5,-82 473.5,-82 473.5,-46 527.5,-46 527.5,-82"/>
<text xml:space="preserve" text-anchor="middle" x="500.5" y="-60.5" font-family="Helvetica,sans-Serif" font-size="10.00" fill="#e0e0e0">dotenv</text>
</g>
<!-- dotenv&#45;&gt;pydantic -->
<g id="edge22" class="edge">
<title>dotenv&#45;&gt;pydantic</title><style>.edge>path:hover{stroke-width:8}</style>
<path fill="none" stroke="#ffffff" d="M610.38,-64C631.55,-68.54 637.69,-70.32 655.25,-83 674.91,-97.2 671.38,-110.1 691.25,-124 715.38,-140.88 723.72,-151.1 753,-148"/>
</g>
<!-- pydantic_settings -->
<g id="node24" class="node">
<title>pydantic_settings</title><style>.edge>path:hover{stroke-width:8}</style>
<polygon fill="#5a5a5a" stroke="#ffffff" points="1341.75,-82 1338.75,-86 1317.75,-86 1314.75,-82 1249.25,-82 1249.25,-46 1341.75,-46 1341.75,-82"/>
<text xml:space="preserve" text-anchor="middle" x="1295.5" y="-60.5" font-family="Helvetica,sans-Serif" font-size="10.00" fill="#e0e0e0">pydantic_settings</text>
</g>
<!-- dotenv&#45;&gt;pydantic_settings -->
<g id="edge23" class="edge">
<title>dotenv&#45;&gt;pydantic_settings</title><style>.edge>path:hover{stroke-width:8}</style>
<path fill="none" stroke="#ffffff" d="M610.38,-64C675.5,-77.96 686.71,-116.42 753,-110"/>
<path fill="none" stroke="#ffffff" d="M755,-110C783.58,-107.23 789.82,-100.97 816.75,-91 844.94,-80.56 848.7,-64.53 878.75,-64"/>
<path fill="none" stroke="#ffffff" d="M527.74,-60.96C549.57,-59.16 581.34,-58.2 608.38,-64"/>
</g>
<!-- hypothesis&#45;&gt;tests2_test_api -->
<g id="edge24" class="edge">
<title>hypothesis&#45;&gt;tests2_test_api</title><style>.edge>path:hover{stroke-width:8}</style>
<path fill="none" stroke="#ffffff" d="M1378.75,-532C1398.75,-532 1398.46,-547.4 1414.75,-559 1416.12,-559.97 1417.51,-560.96 1418.92,-561.95"/>
<polygon fill="#5a5a5a" stroke="#ffffff" points="1416.91,-564.81 1427.13,-567.61 1420.88,-559.05 1416.91,-564.81"/>
</g>
<!-- tests2_test_db -->
<g id="node35" class="node">
<title>tests2_test_db</title><style>.edge>path:hover{stroke-width:8}</style>
<polygon fill="#5a5a5a" stroke="#ffffff" points="1494.88,-496 1416.62,-496 1416.62,-460 1494.88,-460 1494.88,-496"/>
<text xml:space="preserve" text-anchor="middle" x="1455.75" y="-474.5" font-family="Helvetica,sans-Serif" font-size="10.00" fill="#e0e0e0">tests2.test_db</text>
</g>
<!-- hypothesis&#45;&gt;tests2_test_db -->
<g id="edge25" class="edge">
<title>hypothesis&#45;&gt;tests2_test_db</title><style>.edge>path:hover{stroke-width:8}</style>
<path fill="none" stroke="#ffffff" d="M1378.75,-532C1398.75,-532 1398.46,-516.6 1414.75,-505 1415.74,-504.3 1416.75,-503.58 1417.76,-502.87"/>
<polygon fill="#5a5a5a" stroke="#ffffff" points="1419.61,-505.85 1425.84,-497.27 1415.63,-500.09 1419.61,-505.85"/>
<path fill="none" stroke="#ffffff" d="M1327.37,-532C1342.54,-532 1361.11,-532 1377.75,-532"/>
</g>
<!-- tests2_test_security -->
<g id="node36" class="node">
<title>tests2_test_security</title><style>.edge>path:hover{stroke-width:8}</style>
<polygon fill="#5a5a5a" stroke="#ffffff" points="1491.88,-680 1419.62,-680 1419.62,-644 1491.88,-644 1491.88,-680"/>
<text xml:space="preserve" text-anchor="middle" x="1455.75" y="-664.5" font-family="Helvetica,sans-Serif" font-size="10.00" fill="#e0e0e0">tests2.</text>
<text xml:space="preserve" text-anchor="middle" x="1455.75" y="-652.5" font-family="Helvetica,sans-Serif" font-size="10.00" fill="#e0e0e0">test_security</text>
</g>
<!-- hypothesis&#45;&gt;tests2_test_security -->
<g id="edge26" class="edge">
<title>hypothesis&#45;&gt;tests2_test_security</title><style>.edge>path:hover{stroke-width:8}</style>
<path fill="none" stroke="#ffffff" d="M1299.51,-550.48C1306.33,-585.04 1326.55,-656.5 1377.75,-662"/>
<path fill="none" stroke="#ffffff" d="M1378.75,-662C1388.27,-663.02 1398.51,-663.47 1408.28,-663.58"/>
<polygon fill="#5a5a5a" stroke="#ffffff" points="1407.97,-667.08 1417.96,-663.57 1407.96,-660.08 1407.97,-667.08"/>
</g>
<!-- tests2_test_serializers -->
<g id="node37" class="node">
<title>tests2_test_serializers</title><style>.edge>path:hover{stroke-width:8}</style>
<polygon fill="#5a5a5a" stroke="#ffffff" points="1496.75,-550 1414.75,-550 1414.75,-514 1496.75,-514 1496.75,-550"/>
<text xml:space="preserve" text-anchor="middle" x="1455.75" y="-534.5" font-family="Helvetica,sans-Serif" font-size="10.00" fill="#e0e0e0">tests2.</text>
<text xml:space="preserve" text-anchor="middle" x="1455.75" y="-522.5" font-family="Helvetica,sans-Serif" font-size="10.00" fill="#e0e0e0">test_serializers</text>
</g>
<!-- hypothesis&#45;&gt;tests2_test_serializers -->
<g id="edge27" class="edge">
<title>hypothesis&#45;&gt;tests2_test_serializers</title><style>.edge>path:hover{stroke-width:8}</style>
<path fill="none" stroke="#ffffff" d="M1378.75,-532C1386.64,-532 1394.99,-532 1403.16,-532"/>
<polygon fill="#5a5a5a" stroke="#ffffff" points="1403.01,-535.5 1413.01,-532 1403.01,-528.5 1403.01,-535.5"/>
</g>
<!-- iniconfig -->
<g id="node15" class="node">
<title>iniconfig</title><style>.edge>path:hover{stroke-width:8}</style>
<polygon fill="#23c85a" stroke="#ffffff" points="906.75,-258 903.75,-262 882.75,-262 879.75,-258 852.75,-258 852.75,-222 906.75,-222 906.75,-258"/>
<text xml:space="preserve" text-anchor="middle" x="879.75" y="-236.5" font-family="Helvetica,sans-Serif" font-size="10.00" fill="#e0e0e0">iniconfig</text>
</g>
<!-- iniconfig&#45;&gt;_pytest -->
<g id="edge28" class="edge">
<title>iniconfig&#45;&gt;_pytest</title><style>.edge>path:hover{stroke-width:8}</style>
<path fill="none" stroke="#ffffff" d="M906.8,-253.1C929.73,-262.98 964.03,-273.77 994,-267"/>
</g>
<!-- jwt&#45;&gt;rest_framework_simplejwt -->
<g id="edge29" class="edge">
<title>jwt&#45;&gt;rest_framework_simplejwt</title><style>.edge>path:hover{stroke-width:8}</style>
<path fill="none" stroke="#ffffff" d="M906.98,-771.07C918.01,-771.84 931,-772.62 942.75,-773 989.17,-774.5 1001.21,-779.11 1047.25,-773 1057.33,-771.66 1067.84,-769.6 1078.09,-767.2"/>
<polygon fill="#3d8f66" stroke="#ffffff" points="1078.75,-770.64 1087.61,-764.84 1077.06,-763.84 1078.75,-770.64"/>
</g>
<!-- markdown_it -->
<g id="node17" class="node">
<title>markdown_it</title><style>.edge>path:hover{stroke-width:8}</style>
<polygon fill="#5a5a5a" stroke="#ffffff" points="329.25,-179 326.25,-183 305.25,-183 302.25,-179 257.75,-179 257.75,-143 329.25,-143 329.25,-179"/>
<text xml:space="preserve" text-anchor="middle" x="293.5" y="-157.5" font-family="Helvetica,sans-Serif" font-size="10.00" fill="#e0e0e0">markdown_it</text>
</g>
<!-- markdown_it&#45;&gt;rich -->
<g id="edge30" class="edge">
<title>markdown_it&#45;&gt;rich</title><style>.edge>path:hover{stroke-width:8}</style>
<path fill="none" stroke="#ffffff" d="M402.38,-148C421.94,-145.63 443.81,-147.07 461.83,-149.35"/>
<polygon fill="#5a5a5a" stroke="#ffffff" points="461.17,-152.79 471.56,-150.72 462.15,-145.86 461.17,-152.79"/>
<path fill="none" stroke="#ffffff" d="M329.31,-156.7C349.96,-154.16 376.66,-150.88 400.38,-148"/>
</g>
<!-- mdurl -->
<g id="node18" class="node">
<title>mdurl</title><style>.edge>path:hover{stroke-width:8}</style>
<polygon fill="#5a5a5a" stroke="#ffffff" points="54,-179 51,-183 30,-183 27,-179 0,-179 0,-143 54,-143 54,-179"/>
<text xml:space="preserve" text-anchor="middle" x="27" y="-157.5" font-family="Helvetica,sans-Serif" font-size="10.00" fill="#e0e0e0">mdurl</text>
</g>
<!-- mdurl&#45;&gt;markdown_it -->
<g id="edge31" class="edge">
<title>mdurl&#45;&gt;markdown_it</title><style>.edge>path:hover{stroke-width:8}</style>
<path fill="none" stroke="#ffffff" d="M54.33,-161C99.1,-161 190.61,-161 246.25,-161"/>
<polygon fill="#5a5a5a" stroke="#ffffff" points="246.04,-164.5 256.04,-161 246.04,-157.5 246.04,-164.5"/>
</g>
<!-- packaging -->
<g id="node19" class="node">
<title>packaging</title><style>.edge>path:hover{stroke-width:8}</style>
<polygon fill="#3bcece" stroke="#ffffff" points="431.5,-364 428.5,-368 407.5,-368 404.5,-364 371.25,-364 371.25,-328 431.5,-328 431.5,-364"/>
<text xml:space="preserve" text-anchor="middle" x="401.38" y="-342.5" font-family="Helvetica,sans-Serif" font-size="10.00" fill="#e0e0e0">packaging</text>
</g>
<!-- packaging&#45;&gt;_pytest -->
<g id="edge32" class="edge">
<title>packaging&#45;&gt;_pytest</title><style>.edge>path:hover{stroke-width:8}</style>
<path fill="none" stroke="#ffffff" d="M610.38,-430C648.96,-425.72 654.96,-410.79 691.25,-397 786.18,-360.92 815.15,-364.87 906.75,-321 947.88,-301.3 949.52,-277.05 994,-267"/>
<path fill="none" stroke="#ffffff" d="M431.82,-350.76C457.75,-355.6 496.15,-364.34 527.5,-378 566.68,-395.07 565.64,-430.32 608.38,-430"/>
</g>
<!-- pluggy -->
<g id="node20" class="node">
<title>pluggy</title><style>.edge>path:hover{stroke-width:8}</style>
<polygon fill="#5a5a5a" stroke="#ffffff" points="906.75,-312 903.75,-316 882.75,-316 879.75,-312 852.75,-312 852.75,-276 906.75,-276 906.75,-312"/>
<text xml:space="preserve" text-anchor="middle" x="879.75" y="-290.5" font-family="Helvetica,sans-Serif" font-size="10.00" fill="#e0e0e0">pluggy</text>
</g>
<!-- pluggy&#45;&gt;_pytest -->
<g id="edge33" class="edge">
<title>pluggy&#45;&gt;_pytest</title><style>.edge>path:hover{stroke-width:8}</style>
<path fill="none" stroke="#ffffff" d="M906.8,-287.61C929.73,-282.02 964.03,-273.77 994,-267"/>
</g>
<!-- pydantic&#45;&gt;pydantic_settings -->
<g id="edge35" class="edge">
<title>pydantic&#45;&gt;pydantic_settings</title><style>.edge>path:hover{stroke-width:8}</style>
<path fill="none" stroke="#ffffff" d="M906.9,-111.34C954.71,-113.49 1059.38,-116.82 1147.25,-110"/>
<path fill="none" stroke="#ffffff" d="M1149.25,-110C1181.12,-107.17 1215.29,-96.74 1242.48,-86.53"/>
<polygon fill="#5a5a5a" stroke="#ffffff" points="1243.44,-89.91 1251.51,-83.04 1240.92,-83.39 1243.44,-89.91"/>
</g>
<!-- src2 -->
<g id="node31" class="node">
<title>src2</title><style>.edge>path:hover{stroke-width:8}</style>
<polygon fill="#c247c2" stroke="#ffffff" points="1623.75,-128 1620.75,-132 1599.75,-132 1596.75,-128 1569.75,-128 1569.75,-92 1623.75,-92 1623.75,-128"/>
<text xml:space="preserve" text-anchor="middle" x="1596.75" y="-106.5" font-family="Helvetica,sans-Serif" font-size="10.00" fill="#e0e0e0">src2</text>
</g>
<!-- pydantic&#45;&gt;src2 -->
<g id="edge36" class="edge">
<title>pydantic&#45;&gt;src2</title><style>.edge>path:hover{stroke-width:8}</style>
<path fill="none" stroke="#ffffff" d="M1149.25,-110C1250.41,-101 1277.6,-93.17 1377.75,-110"/>
</g>
<!-- pydantic_core -->
<g id="node23" class="node">
<title>pydantic_core</title><style>.edge>path:hover{stroke-width:8}</style>
<polygon fill="#5a5a5a" stroke="#ffffff" points="647.75,-128 644.75,-132 623.75,-132 620.75,-128 571,-128 571,-92 647.75,-92 647.75,-128"/>
<text xml:space="preserve" text-anchor="middle" x="609.38" y="-106.5" font-family="Helvetica,sans-Serif" font-size="10.00" fill="#e0e0e0">pydantic_core</text>
</g>
<!-- pydantic_core&#45;&gt;pydantic -->
<g id="edge37" class="edge">
<title>pydantic_core&#45;&gt;pydantic</title><style>.edge>path:hover{stroke-width:8}</style>
<path fill="none" stroke="#ffffff" d="M648.21,-128.05C676.61,-139.63 716.69,-151.84 753,-148"/>
</g>
<!-- pydantic_core&#45;&gt;pydantic_settings -->
<g id="edge38" class="edge">
<title>pydantic_core&#45;&gt;pydantic_settings</title><style>.edge>path:hover{stroke-width:8}</style>
<path fill="none" stroke="#ffffff" d="M648.01,-111.97C676.82,-113.01 717.51,-113.44 753,-110"/>
</g>
<!-- pydantic_settings&#45;&gt;src2 -->
<g id="edge39" class="edge">
<title>pydantic_settings&#45;&gt;src2</title><style>.edge>path:hover{stroke-width:8}</style>
<path fill="none" stroke="#ffffff" d="M1378.75,-110C1441.19,-118.52 1514.68,-115.9 1558.12,-113.07"/>
<polygon fill="#5a5a5a" stroke="#ffffff" points="1558.3,-116.57 1568.03,-112.38 1557.81,-109.58 1558.3,-116.57"/>
<path fill="none" stroke="#ffffff" d="M1324.13,-82.36C1342.98,-94.34 1366.48,-108.11 1377.75,-110"/>
</g>
<!-- pygments -->
<g id="node25" class="node">
<title>pygments</title><style>.edge>path:hover{stroke-width:8}</style>
<polygon fill="#5a5a5a" stroke="#ffffff" points="322.88,-271 319.88,-275 298.88,-275 295.88,-271 264.12,-271 264.12,-235 322.88,-235 322.88,-271"/>
<text xml:space="preserve" text-anchor="middle" x="293.5" y="-249.5" font-family="Helvetica,sans-Serif" font-size="10.00" fill="#e0e0e0">pygments</text>
</g>
<!-- pygments&#45;&gt;_pytest -->
<g id="edge40" class="edge">
<title>pygments&#45;&gt;_pytest</title><style>.edge>path:hover{stroke-width:8}</style>
<path fill="none" stroke="#ffffff" d="M402.38,-186C494.79,-165.56 514.24,-249.83 608.38,-240"/>
<path fill="none" stroke="#ffffff" d="M996,-267C1037.98,-257.88 1081.74,-235.08 1111.33,-217.36"/>
<polygon fill="#5a5a5a" stroke="#ffffff" points="1112.79,-220.57 1119.5,-212.36 1109.14,-214.59 1112.79,-220.57"/>
<path fill="none" stroke="#ffffff" d="M610.38,-240C702.45,-237.32 725.75,-235.24 816.75,-221 832.94,-218.47 836.46,-214.79 852.75,-213 876.61,-210.38 883.67,-206.43 906.75,-213 950.61,-225.48 949.43,-276.68 994,-267"/>
</g>
<!-- pygments&#45;&gt;rich -->
<g id="edge41" class="edge">
<title>pygments&#45;&gt;rich</title><style>.edge>path:hover{stroke-width:8}</style>
<path fill="none" stroke="#ffffff" d="M402.38,-186C422.4,-181.57 444.26,-174.98 462.16,-169.1"/>
<polygon fill="#5a5a5a" stroke="#ffffff" points="463.21,-172.44 471.58,-165.95 460.99,-165.81 463.21,-172.44"/>
<path fill="none" stroke="#ffffff" d="M314.04,-234.65C333.94,-217.51 366.6,-193.47 400.38,-186"/>
</g>
<!-- pytest&#45;&gt;_pytest -->
<g id="edge42" class="edge">
<title>pytest&#45;&gt;_pytest</title><style>.edge>path:hover{stroke-width:8}</style>
<path fill="none" stroke="#ffffff" d="M887.75,-624.74C897.24,-587.82 916.12,-522.99 942.75,-472 995.12,-371.71 1081.5,-268.12 1123.22,-220.66"/>
<polygon fill="#5a5a5a" stroke="#ffffff" points="884.41,-623.67 885.37,-634.22 891.2,-625.37 884.41,-623.67"/>
<polygon fill="#5a5a5a" stroke="#ffffff" points="1125.7,-223.14 1129.7,-213.33 1120.46,-218.5 1125.7,-223.14"/>
</g>
<!-- pytest&#45;&gt;tests2_conftest -->
<g id="edge43" class="edge">
<title>pytest&#45;&gt;tests2_conftest</title><style>.edge>path:hover{stroke-width:8}</style>
<path fill="none" stroke="#ffffff" d="M996,-654C1034.61,-651.12 1078.91,-651.56 1109.54,-652.45"/>
<polygon fill="#5a5a5a" stroke="#ffffff" points="1109.35,-655.94 1119.46,-652.77 1109.58,-648.94 1109.35,-655.94"/>
</g>
<!-- pytest&#45;&gt;tests2_test_api -->
<g id="edge44" class="edge">
<title>pytest&#45;&gt;tests2_test_api</title><style>.edge>path:hover{stroke-width:8}</style>
<path fill="none" stroke="#ffffff" d="M1378.75,-586C1390.02,-579.26 1404.02,-577.76 1416.91,-578.44"/>
<polygon fill="#5a5a5a" stroke="#ffffff" points="1416.53,-581.92 1426.83,-579.45 1417.24,-574.96 1416.53,-581.92"/>
</g>
<!-- pytest&#45;&gt;tests2_test_db -->
<g id="edge45" class="edge">
<title>pytest&#45;&gt;tests2_test_db</title><style>.edge>path:hover{stroke-width:8}</style>
<path fill="none" stroke="#ffffff" d="M886.05,-635.71C894.16,-610.97 912.04,-567.16 942.75,-543 1016.9,-484.66 1052.9,-486 1147.25,-486 1147.25,-486 1147.25,-486 1296.5,-486 1332.85,-486 1373.83,-483.87 1404.98,-481.81"/>
<polygon fill="#5a5a5a" stroke="#ffffff" points="1405.16,-485.3 1414.89,-481.13 1404.68,-478.32 1405.16,-485.3"/>
</g>
<!-- pytest&#45;&gt;tests2_test_security -->
<g id="edge46" class="edge">
<title>pytest&#45;&gt;tests2_test_security</title><style>.edge>path:hover{stroke-width:8}</style>
<path fill="none" stroke="#ffffff" d="M1296.5,-662C1332.58,-660.57 1341.92,-657.52 1377.75,-662"/>
</g>
<!-- pytest&#45;&gt;tests2_test_serializers -->
<g id="edge47" class="edge">
<title>pytest&#45;&gt;tests2_test_serializers</title><style>.edge>path:hover{stroke-width:8}</style>
<path fill="none" stroke="#ffffff" d="M906.88,-655.1C929.86,-655.81 964.2,-656.22 994,-654"/>
<path fill="none" stroke="#ffffff" d="M1296.5,-662C1345.91,-660.05 1335.32,-611.38 1377.75,-586"/>
<path fill="none" stroke="#ffffff" d="M996,-654C1036.48,-650.98 1043.11,-633.07 1083.25,-627 1140.38,-618.36 1156.66,-615.33 1213.25,-627 1251.76,-634.94 1255.21,-663.55 1294.5,-662"/>
<path fill="none" stroke="#ffffff" d="M1378.75,-586C1395.91,-575.73 1398.46,-570.6 1414.75,-559 1415.74,-558.3 1416.75,-557.58 1417.76,-556.87"/>
<polygon fill="#5a5a5a" stroke="#ffffff" points="1419.61,-559.85 1425.84,-551.27 1415.63,-554.09 1419.61,-559.85"/>
</g>
<!-- rest_framework&#45;&gt;rest_framework_simplejwt -->
<g id="edge48" class="edge">
<title>rest_framework&#45;&gt;rest_framework_simplejwt</title><style>.edge>path:hover{stroke-width:8}</style>
<path fill="none" stroke="#ffffff" d="M1036.93,-746C1047.67,-746 1059.6,-746 1071.54,-746"/>
<polygon fill="#6422e7" stroke="#ffffff" points="1071.43,-749.5 1081.43,-746 1071.43,-742.5 1071.43,-749.5"/>
</g>
<!-- rest_framework_simplejwt&#45;&gt;tests2_test_security -->
<g id="edge49" class="edge">
<title>rest_framework_simplejwt&#45;&gt;tests2_test_security</title><style>.edge>path:hover{stroke-width:8}</style>
<path fill="none" stroke="#ffffff" d="M1213.51,-747.64C1253.22,-745.82 1303.69,-738.12 1341.75,-714 1365.49,-698.95 1349.8,-659 1377.75,-662"/>
</g>
<!-- rich&#45;&gt;pydantic -->
<g id="edge50" class="edge">
<title>rich&#45;&gt;pydantic</title><style>.edge>path:hover{stroke-width:8}</style>
<path fill="none" stroke="#ffffff" d="M610.38,-202C649.43,-199.08 654.51,-180.56 691.25,-167 718.19,-157.06 724.44,-151.02 753,-148"/>
<path fill="none" stroke="#ffffff" d="M525.75,-174.29C546.66,-188.08 578.16,-204.26 608.38,-202"/>
</g>
<!-- sortedcontainers -->
<g id="node30" class="node">
<title>sortedcontainers</title><style>.edge>path:hover{stroke-width:8}</style>
<polygon fill="#a42fbc" stroke="#ffffff" points="798,-442 795,-446 774,-446 771,-442 710,-442 710,-406 798,-406 798,-442"/>
<text xml:space="preserve" text-anchor="middle" x="754" y="-420.5" font-family="Helvetica,sans-Serif" font-size="10.00" fill="#e0e0e0">sortedcontainers</text>
</g>
<!-- sortedcontainers&#45;&gt;hypothesis -->
<g id="edge51" class="edge">
<title>sortedcontainers&#45;&gt;hypothesis</title><style>.edge>path:hover{stroke-width:8}</style>
<path fill="none" stroke="#ffffff" d="M796.13,-442.39C866.54,-472.16 1015.33,-527.63 1147.25,-528"/>
<path fill="none" stroke="#ffffff" d="M1149.25,-528C1183.85,-525.39 1223.2,-526.74 1252.21,-528.55"/>
<polygon fill="#a42fbc" stroke="#ffffff" points="1251.85,-532.03 1262.06,-529.21 1252.32,-525.05 1251.85,-532.03"/>
</g>
<!-- tests2_helpers_config_test_config -->
<g id="node33" class="node">
<title>tests2_helpers_config_test_config</title><style>.edge>path:hover{stroke-width:8}</style>
<ellipse fill="#9d438e" stroke="#ffffff" cx="1742" cy="-110" rx="45.25" ry="39.6"/>
<text xml:space="preserve" text-anchor="middle" x="1742" y="-124.5" font-family="Helvetica,sans-Serif" font-size="10.00" fill="#e0e0e0">tests2.</text>
<text xml:space="preserve" text-anchor="middle" x="1742" y="-112.5" font-family="Helvetica,sans-Serif" font-size="10.00" fill="#e0e0e0">helpers.</text>
<text xml:space="preserve" text-anchor="middle" x="1742" y="-100.5" font-family="Helvetica,sans-Serif" font-size="10.00" fill="#e0e0e0">config.</text>
<text xml:space="preserve" text-anchor="middle" x="1742" y="-88.5" font-family="Helvetica,sans-Serif" font-size="10.00" fill="#e0e0e0">test_config</text>
</g>
<!-- src2&#45;&gt;tests2_helpers_config_test_config -->
<g id="edge52" class="edge">
<title>src2&#45;&gt;tests2_helpers_config_test_config</title><style>.edge>path:hover{stroke-width:8}</style>
<path fill="none" stroke="#ffffff" d="M1624.03,-110C1641.06,-110 1663.92,-110 1684.9,-110"/>
<polygon fill="#c247c2" stroke="#ffffff" points="1684.81,-113.5 1694.81,-110 1684.81,-106.5 1684.81,-113.5"/>
</g>
<!-- tomli -->
<g id="node38" class="node">
<title>tomli</title><style>.edge>path:hover{stroke-width:8}</style>
<polygon fill="#c24799" stroke="#ffffff" points="781,-212 778,-216 757,-216 754,-212 727,-212 727,-176 781,-176 781,-212"/>
<text xml:space="preserve" text-anchor="middle" x="754" y="-190.5" font-family="Helvetica,sans-Serif" font-size="10.00" fill="#e0e0e0">tomli</text>
</g>
<!-- tomli&#45;&gt;_pytest -->
<g id="edge53" class="edge">
<title>tomli&#45;&gt;_pytest</title><style>.edge>path:hover{stroke-width:8}</style>
<path fill="none" stroke="#ffffff" d="M996,-156C1035.81,-157.94 1079.84,-170.21 1110.08,-180.3"/>
<polygon fill="#c24799" stroke="#ffffff" points="1108.93,-183.6 1119.53,-183.53 1111.2,-176.98 1108.93,-183.6"/>
</g>
<!-- tomli&#45;&gt;pydantic_settings -->
<g id="edge54" class="edge">
<title>tomli&#45;&gt;pydantic_settings</title><style>.edge>path:hover{stroke-width:8}</style>
<path fill="none" stroke="#ffffff" d="M996,-156C1093.48,-160.76 1123.02,-161.21 1213.25,-124 1232.85,-115.92 1252.06,-102.09 1266.88,-89.74"/>
<polygon fill="#c24799" stroke="#ffffff" points="1269.06,-92.48 1274.35,-83.3 1264.49,-87.17 1269.06,-92.48"/>
<path fill="none" stroke="#ffffff" d="M781.32,-186.38C825.13,-174.47 915.91,-153.09 994,-156"/>
</g>
<!-- typing_extensions -->
<g id="node39" class="node">
<title>typing_extensions</title><style>.edge>path:hover{stroke-width:8}</style>
<polygon fill="#f91085" stroke="#ffffff" points="184.75,-272 181.75,-276 160.75,-276 157.75,-272 90,-272 90,-236 184.75,-236 184.75,-272"/>
<text xml:space="preserve" text-anchor="middle" x="137.38" y="-250.5" font-family="Helvetica,sans-Serif" font-size="10.00" fill="#e0e0e0">typing_extensions</text>
</g>
<!-- typing_extensions&#45;&gt;_pytest -->
<g id="edge55" class="edge">
<title>typing_extensions&#45;&gt;_pytest</title><style>.edge>path:hover{stroke-width:8}</style>
<path fill="none" stroke="#ffffff" d="M501.5,-286C552.43,-277.03 556.78,-243.5 608.38,-240"/>
<path fill="none" stroke="#ffffff" d="M294.5,-300C385.79,-302.33 409.56,-301.83 499.5,-286"/>
</g>
<!-- typing_extensions&#45;&gt;annotated_types -->
<g id="edge56" class="edge">
<title>typing_extensions&#45;&gt;annotated_types</title><style>.edge>path:hover{stroke-width:8}</style>
<path fill="none" stroke="#ffffff" d="M501.5,-286C518.28,-283.05 536.77,-282.21 553.58,-282.36"/>
<polygon fill="#f91085" stroke="#ffffff" points="553.33,-285.85 563.4,-282.57 553.48,-278.85 553.33,-285.85"/>
</g>
<!-- typing_extensions&#45;&gt;asgiref -->
<g id="edge57" class="edge">
<title>typing_extensions&#45;&gt;asgiref</title><style>.edge>path:hover{stroke-width:8}</style>
<path fill="none" stroke="#ffffff" d="M221.75,-300C292.25,-325.76 217.72,-401.51 257.75,-465 258.04,-465.45 258.33,-465.9 258.64,-466.34"/>
<polygon fill="#f91085" stroke="#ffffff" points="255.96,-468.6 265.19,-473.8 261.22,-463.98 255.96,-468.6"/>
</g>
<!-- typing_extensions&#45;&gt;hypothesis -->
<g id="edge58" class="edge">
<title>typing_extensions&#45;&gt;hypothesis</title><style>.edge>path:hover{stroke-width:8}</style>
<path fill="none" stroke="#ffffff" d="M221.75,-300C255.48,-313.06 232.56,-347.04 257.75,-373 282.81,-398.83 298.17,-392.87 329.25,-411 345.67,-420.58 455.67,-496.41 473.5,-503 530.29,-523.98 549.54,-507.73 608.38,-522"/>
</g>
<!-- typing_extensions&#45;&gt;jwt -->
<g id="edge59" class="edge">
<title>typing_extensions&#45;&gt;jwt</title><style>.edge>path:hover{stroke-width:8}</style>
<path fill="none" stroke="#ffffff" d="M501.5,-682C628.38,-696.53 774.74,-737.42 841.76,-757.53"/>
<polygon fill="#f91085" stroke="#ffffff" points="840.55,-760.82 851.13,-760.37 842.57,-754.12 840.55,-760.82"/>
<path fill="none" stroke="#ffffff" d="M221.75,-300C267.91,-317.37 231.84,-477.03 257.75,-519 274.77,-546.57 467.72,-675.73 499.5,-682"/>
</g>
<!-- typing_extensions&#45;&gt;markdown_it -->
<g id="edge60" class="edge">
<title>typing_extensions&#45;&gt;markdown_it</title><style>.edge>path:hover{stroke-width:8}</style>
<path fill="none" stroke="#ffffff" d="M221.75,-300C268.88,-317.22 230.44,-235.09 257.75,-193 258.96,-191.14 260.29,-189.32 261.72,-187.55"/>
<polygon fill="#f91085" stroke="#ffffff" points="264.22,-190 268.41,-180.27 259.07,-185.27 264.22,-190"/>
</g>
<!-- typing_extensions&#45;&gt;packaging -->
<g id="edge61" class="edge">
<title>typing_extensions&#45;&gt;packaging</title><style>.edge>path:hover{stroke-width:8}</style>
<path fill="none" stroke="#ffffff" d="M294.5,-300C319.85,-298.83 346.02,-310.07 366,-321.73"/>
<polygon fill="#f91085" stroke="#ffffff" points="363.92,-324.56 374.27,-326.82 367.59,-318.6 363.92,-324.56"/>
</g>
<!-- typing_extensions&#45;&gt;pydantic -->
<g id="edge62" class="edge">
<title>typing_extensions&#45;&gt;pydantic</title><style>.edge>path:hover{stroke-width:8}</style>
<path fill="none" stroke="#ffffff" d="M221.75,-300C251.18,-311.08 261.09,-301.45 292.5,-300"/>
<path fill="none" stroke="#ffffff" d="M294.5,-300C367.49,-296.62 535.51,-207.44 608.38,-202"/>
</g>
<!-- typing_extensions&#45;&gt;pydantic_core -->
<g id="edge63" class="edge">
<title>typing_extensions&#45;&gt;pydantic_core</title><style>.edge>path:hover{stroke-width:8}</style>
<path fill="none" stroke="#ffffff" d="M165.9,-272.29C181.43,-281.84 201.52,-292.97 220.75,-300"/>
<path fill="none" stroke="#ffffff" d="M221.75,-300C292.66,-325.91 200.64,-183.37 257.75,-134 301.66,-96.04 473.96,-101.25 559.57,-106.43"/>
<polygon fill="#f91085" stroke="#ffffff" points="559.09,-109.9 569.29,-107.04 559.53,-102.92 559.09,-109.9"/>
</g>
<!-- typing_extensions&#45;&gt;rich -->
<g id="edge64" class="edge">
<title>typing_extensions&#45;&gt;rich</title><style>.edge>path:hover{stroke-width:8}</style>
<path fill="none" stroke="#ffffff" d="M221.75,-300C256.1,-312.55 232.35,-252.32 257.75,-226 282.74,-200.1 297.68,-205.27 329.25,-188 361.07,-170.6 364.37,-152.37 400.38,-148"/>
</g>
<!-- typing_inspection -->
<g id="node40" class="node">
<title>typing_inspection</title><style>.edge>path:hover{stroke-width:8}</style>
<polygon fill="#f9105e" stroke="#ffffff" points="655.25,-36 652.25,-40 631.25,-40 628.25,-36 563.5,-36 563.5,0 655.25,0 655.25,-36"/>
<text xml:space="preserve" text-anchor="middle" x="609.38" y="-14.5" font-family="Helvetica,sans-Serif" font-size="10.00" fill="#e0e0e0">typing_inspection</text>
</g>
<!-- typing_extensions&#45;&gt;typing_inspection -->
<g id="edge65" class="edge">
<title>typing_extensions&#45;&gt;typing_inspection</title><style>.edge>path:hover{stroke-width:8}</style>
<path fill="none" stroke="#ffffff" d="M141.21,-235.87C150.96,-180.61 188.51,-18 292.5,-18 292.5,-18 292.5,-18 402.38,-18 452.94,-18 510.48,-18 551.87,-18"/>
<polygon fill="#f91085" stroke="#ffffff" points="551.85,-21.5 561.85,-18 551.85,-14.5 551.85,-21.5"/>
</g>
<!-- typing_inspection&#45;&gt;pydantic -->
<g id="edge66" class="edge">
<title>typing_inspection&#45;&gt;pydantic</title><style>.edge>path:hover{stroke-width:8}</style>
<path fill="none" stroke="#ffffff" d="M755,-148C785.04,-144.82 817.65,-134.51 841.85,-125.42"/>
<polygon fill="#f9105e" stroke="#ffffff" points="842.86,-128.78 850.93,-121.91 840.34,-122.26 842.86,-128.78"/>
<path fill="none" stroke="#ffffff" d="M640.63,-36.39C645.91,-40.45 651.05,-45.03 655.25,-50 678.87,-77.93 664.35,-99.22 691.25,-124 712.91,-143.95 723.72,-151.1 753,-148"/>
</g>
<!-- typing_inspection&#45;&gt;pydantic_settings -->
<g id="edge67" class="edge">
<title>typing_inspection&#45;&gt;pydantic_settings</title><style>.edge>path:hover{stroke-width:8}</style>
<path fill="none" stroke="#ffffff" d="M655.36,-18.04C697.64,-19.04 762.38,-23.04 816.75,-37 845.86,-44.47 848.69,-64 878.75,-64"/>
<path fill="none" stroke="#ffffff" d="M880.75,-64C1008.25,-62.25 1157.88,-62.93 1237.64,-63.51"/>
<polygon fill="#f9105e" stroke="#ffffff" points="1237.35,-67 1247.37,-63.58 1237.4,-60 1237.35,-67"/>
</g>
<!-- yaml -->
<g id="node41" class="node">
<title>yaml</title><style>.edge>path:hover{stroke-width:8}</style>
<polygon fill="#5a5a5a" stroke="#ffffff" points="781,-82 778,-86 757,-86 754,-82 727,-82 727,-46 781,-46 781,-82"/>
<text xml:space="preserve" text-anchor="middle" x="754" y="-60.5" font-family="Helvetica,sans-Serif" font-size="10.00" fill="#e0e0e0">yaml</text>
</g>
<!-- yaml&#45;&gt;pydantic_settings -->
<g id="edge68" class="edge">
<title>yaml&#45;&gt;pydantic_settings</title><style>.edge>path:hover{stroke-width:8}</style>
<path fill="none" stroke="#ffffff" d="M781.07,-64C806.12,-64 845.02,-64 878.75,-64"/>
</g>
</g>
</svg>

