<?xml version="1.0" encoding="UTF-8" standalone="no"?>
<!DOCTYPE svg PUBLIC "-//W3C//DTD SVG 1.1//EN"
 "http://www.w3.org/Graphics/SVG/1.1/DTD/svg11.dtd">
<!-- Generated by graphviz version 15.0.0 (20260523.1842)
 -->
<!-- Title: G Pages: 1 -->
<svg style="background-color:#141414" width="1088pt" height="1015pt"
 viewBox="0.00 0.00 1088.00 1015.00" xmlns="http://www.w3.org/2000/svg" xmlns:xlink="http://www.w3.org/1999/xlink">
<g id="graph0" class="graph" transform="scale(1 1) rotate(0) translate(4 1011.01)">
<title>G</title><style>.edge>path:hover{stroke-width:8}</style>
<polygon fill="#141414" stroke="none" points="-4,4 -4,-1011.01 1084.16,-1011.01 1084.16,4 -4,4"/>
<!-- django -->
<g id="node1" class="node">
<title>django</title><style>.edge>path:hover{stroke-width:8}</style>
<ellipse fill="#f90606" stroke="#ffffff" cx="266.47" cy="-838.52" rx="27" ry="18"/>
<text xml:space="preserve" text-anchor="middle" x="266.47" y="-835.02" font-family="Helvetica,sans-Serif" font-size="10.00" fill="#e0e0e0">django</text>
</g>
<!-- rest_framework_simplejwt_exceptions -->
<g id="node10" class="node">
<title>rest_framework_simplejwt_exceptions</title><style>.edge>path:hover{stroke-width:8}</style>
<ellipse fill="#3db8b8" stroke="#ffffff" cx="586.85" cy="-935.52" rx="94.05" ry="22.63"/>
<text xml:space="preserve" text-anchor="middle" x="586.85" y="-938.02" font-family="Helvetica,sans-Serif" font-size="10.00" fill="#e0e0e0">rest_framework_simplejwt.</text>
<text xml:space="preserve" text-anchor="middle" x="586.85" y="-926.02" font-family="Helvetica,sans-Serif" font-size="10.00" fill="#e0e0e0">exceptions</text>
</g>
<!-- django&#45;&gt;rest_framework_simplejwt_exceptions -->
<g id="edge1" class="edge">
<title>django&#45;&gt;rest_framework_simplejwt_exceptions</title><style>.edge>path:hover{stroke-width:8}</style>
<path fill="none" stroke="#ffffff" d="M404.06,-906.52C432.15,-913.4 463.09,-919.05 491.36,-923.46"/>
<polygon fill="#f90606" stroke="#ffffff" points="490.56,-926.88 500.97,-924.93 491.61,-919.96 490.56,-926.88"/>
</g>
<!-- rest_framework_simplejwt_tokens -->
<g id="node11" class="node">
<title>rest_framework_simplejwt_tokens</title><style>.edge>path:hover{stroke-width:8}</style>
<ellipse fill="#46a4a4" stroke="#ffffff" cx="810.94" cy="-935.52" rx="94.05" ry="22.63"/>
<text xml:space="preserve" text-anchor="middle" x="810.94" y="-938.02" font-family="Helvetica,sans-Serif" font-size="10.00" fill="#e0e0e0">rest_framework_simplejwt.</text>
<text xml:space="preserve" text-anchor="middle" x="810.94" y="-926.02" font-family="Helvetica,sans-Serif" font-size="10.00" fill="#e0e0e0">tokens</text>
</g>
<!-- django&#45;&gt;rest_framework_simplejwt_tokens -->
<g id="edge2" class="edge">
<title>django&#45;&gt;rest_framework_simplejwt_tokens</title><style>.edge>path:hover{stroke-width:8}</style>
<path fill="none" stroke="#ffffff" d="M404.06,-906.52C442.39,-915.91 453.34,-904.18 492.8,-903.52 576.38,-902.1 597.91,-893.38 680.89,-903.52 700.33,-905.89 721.06,-910.21 740.09,-914.92"/>
<polygon fill="#f90606" stroke="#ffffff" points="739.05,-918.26 749.61,-917.35 740.78,-911.48 739.05,-918.26"/>
<path fill="none" stroke="#ffffff" d="M286.08,-851.05C311.17,-867.2 357.82,-894.61 402.06,-906.52"/>
</g>
<!-- tests2_conftest -->
<g id="node18" class="node">
<title>tests2_conftest</title><style>.edge>path:hover{stroke-width:8}</style>
<ellipse fill="#8b439d" stroke="#ffffff" cx="586.85" cy="-484.52" rx="36.24" ry="22.63"/>
<text xml:space="preserve" text-anchor="middle" x="586.85" y="-487.02" font-family="Helvetica,sans-Serif" font-size="10.00" fill="#e0e0e0">tests2.</text>
<text xml:space="preserve" text-anchor="middle" x="586.85" y="-475.02" font-family="Helvetica,sans-Serif" font-size="10.00" fill="#e0e0e0">conftest</text>
</g>
<!-- django&#45;&gt;tests2_conftest -->
<g id="edge3" class="edge">
<title>django&#45;&gt;tests2_conftest</title><style>.edge>path:hover{stroke-width:8}</style>
<path fill="none" stroke="#ffffff" d="M289.26,-828.27C334.33,-806.65 435.39,-755.77 456.8,-724.52 508.59,-648.92 434.91,-592.54 492.8,-521.52 504.72,-506.9 523.24,-498.03 540.64,-492.65"/>
<polygon fill="#f90606" stroke="#ffffff" points="541.07,-496.16 549.79,-490.14 539.22,-489.41 541.07,-496.16"/>
</g>
<!-- tests2_test_api -->
<g id="node21" class="node">
<title>tests2_test_api</title><style>.edge>path:hover{stroke-width:8}</style>
<ellipse fill="#7e3d8f" stroke="#ffffff" cx="586.85" cy="-586.52" rx="35.71" ry="22.63"/>
<text xml:space="preserve" text-anchor="middle" x="586.85" y="-589.02" font-family="Helvetica,sans-Serif" font-size="10.00" fill="#e0e0e0">tests2.</text>
<text xml:space="preserve" text-anchor="middle" x="586.85" y="-577.02" font-family="Helvetica,sans-Serif" font-size="10.00" fill="#e0e0e0">test_api</text>
</g>
<!-- django&#45;&gt;tests2_test_api -->
<g id="edge4" class="edge">
<title>django&#45;&gt;tests2_test_api</title><style>.edge>path:hover{stroke-width:8}</style>
<path fill="none" stroke="#ffffff" d="M293.25,-842.49C333.92,-847.18 412.86,-849.55 456.8,-806.52 517.89,-746.68 436.5,-681.88 492.8,-617.52 504.76,-603.85 522.9,-596.19 539.99,-591.9"/>
<polygon fill="#f90606" stroke="#ffffff" points="540.48,-595.38 549.52,-589.86 539.01,-588.53 540.48,-595.38"/>
</g>
<!-- django_test -->
<g id="node2" class="node">
<title>django_test</title><style>.edge>path:hover{stroke-width:8}</style>
<ellipse fill="#d02424" stroke="#ffffff" cx="266.47" cy="-530.52" rx="38.49" ry="18"/>
<text xml:space="preserve" text-anchor="middle" x="266.47" y="-527.02" font-family="Helvetica,sans-Serif" font-size="10.00" fill="#e0e0e0">django.test</text>
</g>
<!-- django_test&#45;&gt;tests2_conftest -->
<g id="edge5" class="edge">
<title>django_test&#45;&gt;tests2_conftest</title><style>.edge>path:hover{stroke-width:8}</style>
<path fill="none" stroke="#ffffff" d="M304.86,-533.51C331.85,-535.48 369.18,-537.82 402.06,-538.52"/>
<path fill="none" stroke="#ffffff" d="M404.06,-538.52C431.37,-539.09 499.65,-516.23 544.32,-500.08"/>
<polygon fill="#d02424" stroke="#ffffff" points="545.51,-503.37 553.7,-496.65 543.11,-496.79 545.51,-503.37"/>
</g>
<!-- django_test&#45;&gt;tests2_test_api -->
<g id="edge6" class="edge">
<title>django_test&#45;&gt;tests2_test_api</title><style>.edge>path:hover{stroke-width:8}</style>
<path fill="none" stroke="#ffffff" d="M404.06,-538.52C454.19,-539.57 509.61,-556.64 545.92,-570.13"/>
<polygon fill="#d02424" stroke="#ffffff" points="544.55,-573.35 555.14,-573.64 547.04,-566.81 544.55,-573.35"/>
</g>
<!-- django_test_Client -->
<g id="node3" class="node">
<title>django_test_Client</title><style>.edge>path:hover{stroke-width:8}</style>
<ellipse fill="#b83d3d" stroke="#ffffff" cx="141.99" cy="-561.52" rx="33.59" ry="31.11"/>
<text xml:space="preserve" text-anchor="middle" x="141.99" y="-570.02" font-family="Helvetica,sans-Serif" font-size="10.00" fill="#e0e0e0">django.</text>
<text xml:space="preserve" text-anchor="middle" x="141.99" y="-558.02" font-family="Helvetica,sans-Serif" font-size="10.00" fill="#e0e0e0">test.</text>
<text xml:space="preserve" text-anchor="middle" x="141.99" y="-546.02" font-family="Helvetica,sans-Serif" font-size="10.00" fill="#e0e0e0">Client</text>
</g>
<!-- django_test_Client&#45;&gt;tests2_conftest -->
<g id="edge7" class="edge">
<title>django_test_Client&#45;&gt;tests2_conftest</title><style>.edge>path:hover{stroke-width:8}</style>
<path fill="none" stroke="#ffffff" d="M165.27,-538.89C179.5,-526.02 199.09,-511.01 219.63,-503.52 328.83,-463.68 468.55,-471 539.71,-478.48"/>
<polygon fill="#b83d3d" stroke="#ffffff" points="539.11,-481.93 549.43,-479.55 539.88,-474.98 539.11,-481.93"/>
</g>
<!-- django_test_Client&#45;&gt;tests2_test_api -->
<g id="edge8" class="edge">
<title>django_test_Client&#45;&gt;tests2_test_api</title><style>.edge>path:hover{stroke-width:8}</style>
<path fill="none" stroke="#ffffff" d="M167.02,-582.43C181.28,-593.41 200.29,-605.77 219.63,-611.52 332.75,-645.15 473.85,-617.04 543.25,-598.92"/>
<polygon fill="#b83d3d" stroke="#ffffff" points="543.95,-602.35 552.7,-596.39 542.13,-595.59 543.95,-602.35"/>
</g>
<!-- hypothesis -->
<g id="node4" class="node">
<title>hypothesis</title><style>.edge>path:hover{stroke-width:8}</style>
<ellipse fill="#f3970c" stroke="#ffffff" cx="266.47" cy="-784.52" rx="38.03" ry="18"/>
<text xml:space="preserve" text-anchor="middle" x="266.47" y="-781.02" font-family="Helvetica,sans-Serif" font-size="10.00" fill="#e0e0e0">hypothesis</text>
</g>
<!-- hypothesis&#45;&gt;tests2_test_api -->
<g id="edge9" class="edge">
<title>hypothesis&#45;&gt;tests2_test_api</title><style>.edge>path:hover{stroke-width:8}</style>
<path fill="none" stroke="#ffffff" d="M301.42,-791.98C328.93,-796.73 368.5,-800.62 402.06,-792.52"/>
<path fill="none" stroke="#ffffff" d="M404.06,-792.52C429.86,-786.29 440.5,-785.46 456.8,-764.52 498.12,-711.44 447.21,-666.98 492.8,-617.52 505.11,-604.16 523.31,-596.56 540.35,-592.23"/>
<polygon fill="#f3970c" stroke="#ffffff" points="540.82,-595.71 549.84,-590.15 539.32,-588.87 540.82,-595.71"/>
</g>
<!-- tests2_test_db -->
<g id="node22" class="node">
<title>tests2_test_db</title><style>.edge>path:hover{stroke-width:8}</style>
<ellipse fill="#9246a4" stroke="#ffffff" cx="586.85" cy="-708.52" rx="47.05" ry="18"/>
<text xml:space="preserve" text-anchor="middle" x="586.85" y="-705.02" font-family="Helvetica,sans-Serif" font-size="10.00" fill="#e0e0e0">tests2.test_db</text>
</g>
<!-- hypothesis&#45;&gt;tests2_test_db -->
<g id="edge10" class="edge">
<title>hypothesis&#45;&gt;tests2_test_db</title><style>.edge>path:hover{stroke-width:8}</style>
<path fill="none" stroke="#ffffff" d="M404.06,-792.52C429.86,-786.29 434.01,-778.12 456.8,-764.52 473.31,-754.66 475.57,-749.05 492.8,-740.52 506.83,-733.57 522.74,-727.5 537.38,-722.56"/>
<polygon fill="#f3970c" stroke="#ffffff" points="538.42,-725.91 546.84,-719.48 536.25,-719.25 538.42,-725.91"/>
</g>
<!-- tests2_test_security -->
<g id="node23" class="node">
<title>tests2_test_security</title><style>.edge>path:hover{stroke-width:8}</style>
<ellipse fill="#783a88" stroke="#ffffff" cx="1029.07" cy="-884.52" rx="51.09" ry="22.63"/>
<text xml:space="preserve" text-anchor="middle" x="1029.07" y="-887.02" font-family="Helvetica,sans-Serif" font-size="10.00" fill="#e0e0e0">tests2.</text>
<text xml:space="preserve" text-anchor="middle" x="1029.07" y="-875.02" font-family="Helvetica,sans-Serif" font-size="10.00" fill="#e0e0e0">test_security</text>
</g>
<!-- hypothesis&#45;&gt;tests2_test_security -->
<g id="edge11" class="edge">
<title>hypothesis&#45;&gt;tests2_test_security</title><style>.edge>path:hover{stroke-width:8}</style>
<path fill="none" stroke="#ffffff" d="M404.06,-792.52C482.6,-773.55 505.54,-783.67 585.85,-792.52"/>
</g>
<!-- tests2_test_serializers -->
<g id="node24" class="node">
<title>tests2_test_serializers</title><style>.edge>path:hover{stroke-width:8}</style>
<ellipse fill="#9246a4" stroke="#ffffff" cx="586.85" cy="-649.52" rx="57.98" ry="22.63"/>
<text xml:space="preserve" text-anchor="middle" x="586.85" y="-652.02" font-family="Helvetica,sans-Serif" font-size="10.00" fill="#e0e0e0">tests2.</text>
<text xml:space="preserve" text-anchor="middle" x="586.85" y="-640.02" font-family="Helvetica,sans-Serif" font-size="10.00" fill="#e0e0e0">test_serializers</text>
</g>
<!-- hypothesis&#45;&gt;tests2_test_serializers -->
<g id="edge12" class="edge">
<title>hypothesis&#45;&gt;tests2_test_serializers</title><style>.edge>path:hover{stroke-width:8}</style>
<path fill="none" stroke="#ffffff" d="M404.06,-792.52C429.86,-786.29 438.79,-784.01 456.8,-764.52 484.09,-734.99 463.28,-708.82 492.8,-681.52 501.45,-673.52 512.19,-667.51 523.27,-662.99"/>
<polygon fill="#f3970c" stroke="#ffffff" points="524.31,-666.33 532.51,-659.62 521.92,-659.76 524.31,-666.33"/>
</g>
<!-- hypothesis_strategies -->
<g id="node5" class="node">
<title>hypothesis_strategies</title><style>.edge>path:hover{stroke-width:8}</style>
<ellipse fill="#dd8e18" stroke="#ffffff" cx="266.47" cy="-710.52" rx="46.85" ry="22.63"/>
<text xml:space="preserve" text-anchor="middle" x="266.47" y="-713.02" font-family="Helvetica,sans-Serif" font-size="10.00" fill="#e0e0e0">hypothesis.</text>
<text xml:space="preserve" text-anchor="middle" x="266.47" y="-701.02" font-family="Helvetica,sans-Serif" font-size="10.00" fill="#e0e0e0">strategies</text>
</g>
<!-- hypothesis_strategies&#45;&gt;tests2_test_api -->
<g id="edge13" class="edge">
<title>hypothesis_strategies&#45;&gt;tests2_test_api</title><style>.edge>path:hover{stroke-width:8}</style>
<path fill="none" stroke="#ffffff" d="M313.63,-712.13C339.63,-712.64 372.69,-712.6 402.06,-710.52"/>
<path fill="none" stroke="#ffffff" d="M404.06,-710.52C461.05,-706.47 444.55,-648.12 492.8,-617.52 507.64,-608.11 525.63,-601.24 541.82,-596.41"/>
<polygon fill="#dd8e18" stroke="#ffffff" points="542.54,-599.84 551.23,-593.78 540.66,-593.1 542.54,-599.84"/>
</g>
<!-- hypothesis_strategies&#45;&gt;tests2_test_db -->
<g id="edge14" class="edge">
<title>hypothesis_strategies&#45;&gt;tests2_test_db</title><style>.edge>path:hover{stroke-width:8}</style>
<path fill="none" stroke="#ffffff" d="M404.06,-710.52C445.54,-707.57 492.47,-707.13 528.25,-707.39"/>
<polygon fill="#dd8e18" stroke="#ffffff" points="527.91,-710.89 537.95,-707.48 527.98,-703.89 527.91,-710.89"/>
</g>
<!-- hypothesis_strategies&#45;&gt;tests2_test_security -->
<g id="edge15" class="edge">
<title>hypothesis_strategies&#45;&gt;tests2_test_security</title><style>.edge>path:hover{stroke-width:8}</style>
<path fill="none" stroke="#ffffff" d="M404.06,-710.52C492.47,-704.23 497.75,-782.81 585.85,-792.52"/>
<path fill="none" stroke="#ffffff" d="M587.85,-792.52C685.96,-803.33 726.69,-739.48 809.94,-792.52"/>
</g>
<!-- hypothesis_strategies&#45;&gt;tests2_test_serializers -->
<g id="edge16" class="edge">
<title>hypothesis_strategies&#45;&gt;tests2_test_serializers</title><style>.edge>path:hover{stroke-width:8}</style>
<path fill="none" stroke="#ffffff" d="M404.06,-710.52C407.42,-710.28 479.31,-685.92 531.66,-668.06"/>
<polygon fill="#dd8e18" stroke="#ffffff" points="532.73,-671.39 541.07,-664.85 530.47,-664.77 532.73,-671.39"/>
</g>
<!-- logging -->
<g id="node6" class="node">
<title>logging</title><style>.edge>path:hover{stroke-width:8}</style>
<ellipse fill="#a9c247" stroke="#ffffff" cx="32.17" cy="-433.52" rx="28.11" ry="18"/>
<text xml:space="preserve" text-anchor="middle" x="32.17" y="-430.02" font-family="Helvetica,sans-Serif" font-size="10.00" fill="#e0e0e0">logging</text>
</g>
<!-- src2_helpers_logging_setup -->
<g id="node16" class="node">
<title>src2_helpers_logging_setup</title><style>.edge>path:hover{stroke-width:8}</style>
<ellipse fill="#3d5e8f" stroke="#ffffff" cx="403.06" cy="-374.52" rx="53.74" ry="31.11"/>
<text xml:space="preserve" text-anchor="middle" x="403.06" y="-383.02" font-family="Helvetica,sans-Serif" font-size="10.00" fill="#e0e0e0">src2.</text>
<text xml:space="preserve" text-anchor="middle" x="403.06" y="-371.02" font-family="Helvetica,sans-Serif" font-size="10.00" fill="#e0e0e0">helpers.</text>
<text xml:space="preserve" text-anchor="middle" x="403.06" y="-359.02" font-family="Helvetica,sans-Serif" font-size="10.00" fill="#e0e0e0">logging_setup</text>
</g>
<!-- logging&#45;&gt;src2_helpers_logging_setup -->
<g id="edge17" class="edge">
<title>logging&#45;&gt;src2_helpers_logging_setup</title><style>.edge>path:hover{stroke-width:8}</style>
<path fill="none" stroke="#ffffff" d="M267.47,-433.52C298.69,-430.18 330.99,-416.42 356.12,-403.03"/>
<polygon fill="#a9c247" stroke="#ffffff" points="357.68,-406.17 364.75,-398.27 354.31,-400.04 357.68,-406.17"/>
<path fill="none" stroke="#ffffff" d="M60.45,-435.39C103.96,-437.95 191.69,-441.39 265.47,-433.52"/>
</g>
<!-- tests2_helpers_test_logging -->
<g id="node20" class="node">
<title>tests2_helpers_test_logging</title><style>.edge>path:hover{stroke-width:8}</style>
<ellipse fill="#723781" stroke="#ffffff" cx="810.94" cy="-484.52" rx="48.44" ry="31.11"/>
<text xml:space="preserve" text-anchor="middle" x="810.94" y="-493.02" font-family="Helvetica,sans-Serif" font-size="10.00" fill="#e0e0e0">tests2.</text>
<text xml:space="preserve" text-anchor="middle" x="810.94" y="-481.02" font-family="Helvetica,sans-Serif" font-size="10.00" fill="#e0e0e0">helpers.</text>
<text xml:space="preserve" text-anchor="middle" x="810.94" y="-469.02" font-family="Helvetica,sans-Serif" font-size="10.00" fill="#e0e0e0">test_logging</text>
</g>
<!-- logging&#45;&gt;tests2_helpers_test_logging -->
<g id="edge18" class="edge">
<title>logging&#45;&gt;tests2_helpers_test_logging</title><style>.edge>path:hover{stroke-width:8}</style>
<path fill="none" stroke="#ffffff" d="M267.47,-433.52C407.89,-416.01 446.93,-406.59 585.85,-433.52"/>
</g>
<!-- pathlib -->
<g id="node7" class="node">
<title>pathlib</title><style>.edge>path:hover{stroke-width:8}</style>
<ellipse fill="#59c040" stroke="#ffffff" cx="266.47" cy="-87.52" rx="27" ry="18"/>
<text xml:space="preserve" text-anchor="middle" x="266.47" y="-84.02" font-family="Helvetica,sans-Serif" font-size="10.00" fill="#e0e0e0">pathlib</text>
</g>
<!-- pathlib&#45;&gt;tests2_helpers_test_logging -->
<g id="edge19" class="edge">
<title>pathlib&#45;&gt;tests2_helpers_test_logging</title><style>.edge>path:hover{stroke-width:8}</style>
<path fill="none" stroke="#ffffff" d="M293.19,-83.13C320.77,-79.42 365.54,-76.31 402.06,-87.52"/>
</g>
<!-- pytest -->
<g id="node8" class="node">
<title>pytest</title><style>.edge>path:hover{stroke-width:8}</style>
<ellipse fill="#16f36f" stroke="#ffffff" cx="266.47" cy="-584.52" rx="27" ry="18"/>
<text xml:space="preserve" text-anchor="middle" x="266.47" y="-581.02" font-family="Helvetica,sans-Serif" font-size="10.00" fill="#e0e0e0">pytest</text>
</g>
<!-- pytest&#45;&gt;tests2_conftest -->
<g id="edge20" class="edge">
<title>pytest&#45;&gt;tests2_conftest</title><style>.edge>path:hover{stroke-width:8}</style>
<path fill="none" stroke="#ffffff" d="M293.78,-584.16C320.92,-583.88 364.45,-583.66 402.06,-584.52"/>
<path fill="none" stroke="#ffffff" d="M404.06,-584.52C452.42,-585.62 451.43,-546.58 492.8,-521.52 508.53,-511.98 527.16,-504.01 543.6,-497.94"/>
<polygon fill="#16f36f" stroke="#ffffff" points="544.36,-501.38 552.6,-494.73 542.01,-494.79 544.36,-501.38"/>
</g>
<!-- pytest&#45;&gt;tests2_helpers_test_logging -->
<g id="edge21" class="edge">
<title>pytest&#45;&gt;tests2_helpers_test_logging</title><style>.edge>path:hover{stroke-width:8}</style>
<path fill="none" stroke="#ffffff" d="M404.06,-584.52C445.68,-585.47 452.61,-565.37 492.8,-554.52 533.55,-543.51 543.79,-531.93 585.85,-535.52"/>
<path fill="none" stroke="#ffffff" d="M587.85,-535.52C647.75,-540.63 714.8,-521.7 759.39,-505.47"/>
<polygon fill="#16f36f" stroke="#ffffff" points="760.39,-508.83 768.53,-502.05 757.94,-502.28 760.39,-508.83"/>
</g>
<!-- pytest&#45;&gt;tests2_test_api -->
<g id="edge22" class="edge">
<title>pytest&#45;&gt;tests2_test_api</title><style>.edge>path:hover{stroke-width:8}</style>
<path fill="none" stroke="#ffffff" d="M404.06,-584.52C450.04,-585.57 502.58,-586.07 539.31,-586.31"/>
<polygon fill="#16f36f" stroke="#ffffff" points="539.12,-589.81 549.14,-586.37 539.16,-582.81 539.12,-589.81"/>
</g>
<!-- pytest&#45;&gt;tests2_test_db -->
<g id="edge23" class="edge">
<title>pytest&#45;&gt;tests2_test_db</title><style>.edge>path:hover{stroke-width:8}</style>
<path fill="none" stroke="#ffffff" d="M404.06,-584.52C462.48,-585.85 443.18,-650.67 492.8,-681.52 504.86,-689.01 519.09,-694.5 532.74,-698.49"/>
<polygon fill="#16f36f" stroke="#ffffff" points="531.48,-701.78 542.05,-700.99 533.3,-695.02 531.48,-701.78"/>
</g>
<!-- pytest&#45;&gt;tests2_test_security -->
<g id="edge24" class="edge">
<title>pytest&#45;&gt;tests2_test_security</title><style>.edge>path:hover{stroke-width:8}</style>
<path fill="none" stroke="#ffffff" d="M941.98,-884.52C949.8,-884.36 958.02,-884.27 966.15,-884.23"/>
<polygon fill="#16f36f" stroke="#ffffff" points="966.04,-887.73 976.02,-884.19 966.01,-880.73 966.04,-887.73"/>
<path fill="none" stroke="#ffffff" d="M811.94,-792.52C847.53,-815.2 871.56,-785.74 904.98,-811.52 933.62,-833.61 904.81,-885.22 940.98,-884.52"/>
<path fill="none" stroke="#ffffff" d="M587.85,-535.52C629.9,-539.11 646.98,-529.39 680.89,-554.52 777.57,-626.15 708.46,-727.86 809.94,-792.52"/>
</g>
<!-- pytest&#45;&gt;tests2_test_serializers -->
<g id="edge25" class="edge">
<title>pytest&#45;&gt;tests2_test_serializers</title><style>.edge>path:hover{stroke-width:8}</style>
<path fill="none" stroke="#ffffff" d="M404.06,-584.52C446.28,-585.48 453.04,-604.28 492.8,-618.52 504.95,-622.87 518.06,-627.36 530.5,-631.52"/>
<polygon fill="#16f36f" stroke="#ffffff" points="529.19,-634.78 539.78,-634.61 531.4,-628.14 529.19,-634.78"/>
</g>
<!-- rest_framework_simplejwt -->
<g id="node9" class="node">
<title>rest_framework_simplejwt</title><style>.edge>path:hover{stroke-width:8}</style>
<ellipse fill="#53b6b6" stroke="#ffffff" cx="810.94" cy="-838.52" rx="78.17" ry="18"/>
<text xml:space="preserve" text-anchor="middle" x="810.94" y="-835.02" font-family="Helvetica,sans-Serif" font-size="10.00" fill="#e0e0e0">rest_framework_simplejwt</text>
</g>
<!-- rest_framework_simplejwt&#45;&gt;tests2_test_security -->
<g id="edge26" class="edge">
<title>rest_framework_simplejwt&#45;&gt;tests2_test_security</title><style>.edge>path:hover{stroke-width:8}</style>
<path fill="none" stroke="#ffffff" d="M856.55,-853.46C871.94,-858.72 889.26,-864.76 904.98,-870.52 921.1,-876.42 923.81,-884.71 940.98,-884.52"/>
</g>
<!-- rest_framework_simplejwt_exceptions&#45;&gt;rest_framework_simplejwt_tokens -->
<g id="edge27" class="edge">
<title>rest_framework_simplejwt_exceptions&#45;&gt;rest_framework_simplejwt_tokens</title><style>.edge>path:hover{stroke-width:8}</style>
<path fill="none" stroke="#ffffff" d="M681.39,-935.52C689.19,-935.52 697.12,-935.52 705,-935.52"/>
<polygon fill="#3db8b8" stroke="#ffffff" points="704.99,-939.02 714.99,-935.52 704.99,-932.02 704.99,-939.02"/>
</g>
<!-- rest_framework_simplejwt_exceptions&#45;&gt;tests2_test_security -->
<g id="edge28" class="edge">
<title>rest_framework_simplejwt_exceptions&#45;&gt;tests2_test_security</title><style>.edge>path:hover{stroke-width:8}</style>
<path fill="none" stroke="#ffffff" d="M649.13,-918.21C670.43,-912.76 694.57,-907.21 716.89,-903.52 815.51,-887.21 841.03,-885.66 940.98,-884.52"/>
</g>
<!-- rest_framework_simplejwt_tokens&#45;&gt;tests2_test_security -->
<g id="edge29" class="edge">
<title>rest_framework_simplejwt_tokens&#45;&gt;tests2_test_security</title><style>.edge>path:hover{stroke-width:8}</style>
<path fill="none" stroke="#ffffff" d="M861.16,-915.95C897.38,-901.57 940.42,-884.52 940.98,-884.52"/>
</g>
<!-- src2 -->
<g id="node12" class="node">
<title>src2</title><style>.edge>path:hover{stroke-width:8}</style>
<ellipse fill="#2f73db" stroke="#ffffff" cx="32.17" cy="-132.52" rx="27" ry="18"/>
<text xml:space="preserve" text-anchor="middle" x="32.17" y="-129.02" font-family="Helvetica,sans-Serif" font-size="10.00" fill="#e0e0e0">src2</text>
</g>
<!-- tests2_helpers_config_test_config -->
<g id="node19" class="node">
<title>tests2_helpers_config_test_config</title><style>.edge>path:hover{stroke-width:8}</style>
<ellipse fill="#8b439d" stroke="#ffffff" cx="586.85" cy="-258.52" rx="45.25" ry="39.6"/>
<text xml:space="preserve" text-anchor="middle" x="586.85" y="-273.02" font-family="Helvetica,sans-Serif" font-size="10.00" fill="#e0e0e0">tests2.</text>
<text xml:space="preserve" text-anchor="middle" x="586.85" y="-261.02" font-family="Helvetica,sans-Serif" font-size="10.00" fill="#e0e0e0">helpers.</text>
<text xml:space="preserve" text-anchor="middle" x="586.85" y="-249.02" font-family="Helvetica,sans-Serif" font-size="10.00" fill="#e0e0e0">config.</text>
<text xml:space="preserve" text-anchor="middle" x="586.85" y="-237.02" font-family="Helvetica,sans-Serif" font-size="10.00" fill="#e0e0e0">test_config</text>
</g>
<!-- src2&#45;&gt;tests2_helpers_config_test_config -->
<g id="edge30" class="edge">
<title>src2&#45;&gt;tests2_helpers_config_test_config</title><style>.edge>path:hover{stroke-width:8}</style>
<path fill="none" stroke="#ffffff" d="M267.47,-277.52C326.76,-285.47 342.99,-286.92 402.06,-277.52"/>
<path fill="none" stroke="#ffffff" d="M52.38,-144.8C106.93,-179.65 259.29,-276.69 265.47,-277.52"/>
<path fill="none" stroke="#ffffff" d="M404.06,-277.52C446.19,-270.81 494.21,-265.91 530.31,-262.76"/>
<polygon fill="#2f73db" stroke="#ffffff" points="530.42,-266.27 540.08,-261.93 529.82,-259.29 530.42,-266.27"/>
</g>
<!-- src2&#45;&gt;tests2_helpers_test_logging -->
<g id="edge31" class="edge">
<title>src2&#45;&gt;tests2_helpers_test_logging</title><style>.edge>path:hover{stroke-width:8}</style>
<path fill="none" stroke="#ffffff" d="M587.85,-171.52C623.62,-198.26 648.51,-178.75 680.89,-209.52 749.31,-274.53 785.13,-383.04 800.5,-442.46"/>
<polygon fill="#2f73db" stroke="#ffffff" points="797.03,-442.99 802.85,-451.84 803.82,-441.29 797.03,-442.99"/>
<path fill="none" stroke="#ffffff" d="M37.35,-114.49C44.75,-87.18 63.05,-36.2 100.34,-14.52 164.63,22.86 193.49,-22.85 265.47,-41.52"/>
<path fill="none" stroke="#ffffff" d="M267.47,-41.52C329.01,-55.96 341.63,-68.97 402.06,-87.52"/>
<path fill="none" stroke="#ffffff" d="M404.06,-87.52C489.15,-113.63 514.56,-118.23 585.85,-171.52"/>
</g>
<!-- src2_helpers -->
<g id="node13" class="node">
<title>src2_helpers</title><style>.edge>path:hover{stroke-width:8}</style>
<ellipse fill="#2f73db" stroke="#ffffff" cx="141.99" cy="-41.52" rx="41.64" ry="18"/>
<text xml:space="preserve" text-anchor="middle" x="141.99" y="-38.02" font-family="Helvetica,sans-Serif" font-size="10.00" fill="#e0e0e0">src2.helpers</text>
</g>
<!-- src2_helpers&#45;&gt;tests2_helpers_config_test_config -->
<g id="edge32" class="edge">
<title>src2_helpers&#45;&gt;tests2_helpers_config_test_config</title><style>.edge>path:hover{stroke-width:8}</style>
<path fill="none" stroke="#ffffff" d="M157.32,-58.55C171.69,-74.75 195.15,-98.9 219.63,-114.52 321.66,-179.61 457.85,-223.57 532.07,-244.48"/>
<polygon fill="#2f73db" stroke="#ffffff" points="530.96,-247.8 541.53,-247.11 532.84,-241.06 530.96,-247.8"/>
</g>
<!-- src2_helpers&#45;&gt;tests2_helpers_test_logging -->
<g id="edge33" class="edge">
<title>src2_helpers&#45;&gt;tests2_helpers_test_logging</title><style>.edge>path:hover{stroke-width:8}</style>
<path fill="none" stroke="#ffffff" d="M182.51,-36.53C206.83,-34.69 238.41,-34.5 265.47,-41.52"/>
</g>
<!-- src2_helpers_config -->
<g id="node14" class="node">
<title>src2_helpers_config</title><style>.edge>path:hover{stroke-width:8}</style>
<ellipse fill="#3b76ce" stroke="#ffffff" cx="266.47" cy="-336.52" rx="35.71" ry="31.11"/>
<text xml:space="preserve" text-anchor="middle" x="266.47" y="-345.02" font-family="Helvetica,sans-Serif" font-size="10.00" fill="#e0e0e0">src2.</text>
<text xml:space="preserve" text-anchor="middle" x="266.47" y="-333.02" font-family="Helvetica,sans-Serif" font-size="10.00" fill="#e0e0e0">helpers.</text>
<text xml:space="preserve" text-anchor="middle" x="266.47" y="-321.02" font-family="Helvetica,sans-Serif" font-size="10.00" fill="#e0e0e0">config</text>
</g>
<!-- src2_helpers_config&#45;&gt;src2_helpers_logging_setup -->
<g id="edge34" class="edge">
<title>src2_helpers_config&#45;&gt;src2_helpers_logging_setup</title><style>.edge>path:hover{stroke-width:8}</style>
<path fill="none" stroke="#ffffff" d="M300.74,-345.91C313.58,-349.53 328.67,-353.79 343.21,-357.9"/>
<polygon fill="#3b76ce" stroke="#ffffff" points="342.16,-361.24 352.73,-360.59 344.06,-354.5 342.16,-361.24"/>
</g>
<!-- src2_helpers_config&#45;&gt;tests2_helpers_config_test_config -->
<g id="edge35" class="edge">
<title>src2_helpers_config&#45;&gt;tests2_helpers_config_test_config</title><style>.edge>path:hover{stroke-width:8}</style>
<path fill="none" stroke="#ffffff" d="M296.32,-318.68C322.7,-303.66 363.39,-283.67 402.06,-277.52"/>
</g>
<!-- src2_helpers_config_config -->
<g id="node15" class="node">
<title>src2_helpers_config_config</title><style>.edge>path:hover{stroke-width:8}</style>
<ellipse fill="#3a69b0" stroke="#ffffff" cx="141.99" cy="-277.52" rx="35.71" ry="39.6"/>
<text xml:space="preserve" text-anchor="middle" x="141.99" y="-292.02" font-family="Helvetica,sans-Serif" font-size="10.00" fill="#e0e0e0">src2.</text>
<text xml:space="preserve" text-anchor="middle" x="141.99" y="-280.02" font-family="Helvetica,sans-Serif" font-size="10.00" fill="#e0e0e0">helpers.</text>
<text xml:space="preserve" text-anchor="middle" x="141.99" y="-268.02" font-family="Helvetica,sans-Serif" font-size="10.00" fill="#e0e0e0">config.</text>
<text xml:space="preserve" text-anchor="middle" x="141.99" y="-256.02" font-family="Helvetica,sans-Serif" font-size="10.00" fill="#e0e0e0">config</text>
</g>
<!-- src2_helpers_config_config&#45;&gt;src2_helpers_logging_setup -->
<g id="edge36" class="edge">
<title>src2_helpers_config_config&#45;&gt;src2_helpers_logging_setup</title><style>.edge>path:hover{stroke-width:8}</style>
<path fill="none" stroke="#ffffff" d="M267.47,-395.52C292.41,-399.16 319.91,-396.13 343.51,-391.35"/>
<polygon fill="#3a69b0" stroke="#ffffff" points="344.26,-394.77 353.28,-389.21 342.76,-387.93 344.26,-394.77"/>
<path fill="none" stroke="#ffffff" d="M162.24,-310.55C175.98,-331.75 196.14,-358.57 219.63,-376.52 237.15,-389.91 243.65,-392.33 265.47,-395.52"/>
</g>
<!-- src2_helpers_config_config&#45;&gt;tests2_helpers_config_test_config -->
<g id="edge37" class="edge">
<title>src2_helpers_config_config&#45;&gt;tests2_helpers_config_test_config</title><style>.edge>path:hover{stroke-width:8}</style>
<path fill="none" stroke="#ffffff" d="M178,-275.05C202.58,-273.92 236.18,-273.59 265.47,-277.52"/>
</g>
<!-- src2_helpers_logging_setup&#45;&gt;tests2_helpers_test_logging -->
<g id="edge38" class="edge">
<title>src2_helpers_logging_setup&#45;&gt;tests2_helpers_test_logging</title><style>.edge>path:hover{stroke-width:8}</style>
<path fill="none" stroke="#ffffff" d="M587.85,-433.52C629.28,-441.55 639.72,-443.21 680.89,-452.52 705.06,-457.98 731.66,-464.49 754.39,-470.2"/>
<polygon fill="#3d5e8f" stroke="#ffffff" points="753.53,-473.6 764.08,-472.65 755.25,-466.81 753.53,-473.6"/>
<path fill="none" stroke="#ffffff" d="M447.71,-392.03C484.05,-405.79 537.47,-424.14 585.85,-433.52"/>
</g>
<!-- structlog -->
<g id="node17" class="node">
<title>structlog</title><style>.edge>path:hover{stroke-width:8}</style>
<ellipse fill="#5133cc" stroke="#ffffff" cx="32.17" cy="-247.52" rx="32.17" ry="18"/>
<text xml:space="preserve" text-anchor="middle" x="32.17" y="-244.02" font-family="Helvetica,sans-Serif" font-size="10.00" fill="#e0e0e0">structlog</text>
</g>
<!-- structlog&#45;&gt;src2_helpers_logging_setup -->
<g id="edge39" class="edge">
<title>structlog&#45;&gt;src2_helpers_logging_setup</title><style>.edge>path:hover{stroke-width:8}</style>
<path fill="none" stroke="#ffffff" d="M44.17,-264.68C56.16,-282.24 76.8,-309.3 100.34,-326.52 164.54,-373.48 186.77,-384.02 265.47,-395.52"/>
</g>
<!-- structlog&#45;&gt;tests2_helpers_test_logging -->
<g id="edge40" class="edge">
<title>structlog&#45;&gt;tests2_helpers_test_logging</title><style>.edge>path:hover{stroke-width:8}</style>
<path fill="none" stroke="#ffffff" d="M55.56,-234.66C135.42,-190.65 410.86,-55.1 585.85,-171.52"/>
</g>
<!-- typing -->
<g id="node25" class="node">
<title>typing</title><style>.edge>path:hover{stroke-width:8}</style>
<ellipse fill="#db2f96" stroke="#ffffff" cx="266.47" cy="-939.52" rx="27" ry="18"/>
<text xml:space="preserve" text-anchor="middle" x="266.47" y="-936.02" font-family="Helvetica,sans-Serif" font-size="10.00" fill="#e0e0e0">typing</text>
</g>
<!-- typing&#45;&gt;rest_framework_simplejwt_exceptions -->
<g id="edge41" class="edge">
<title>typing&#45;&gt;rest_framework_simplejwt_exceptions</title><style>.edge>path:hover{stroke-width:8}</style>
<path fill="none" stroke="#ffffff" d="M288.2,-950.27C314.04,-962.83 359.94,-982.43 402.06,-986.52"/>
<path fill="none" stroke="#ffffff" d="M404.06,-986.52C427.22,-988.76 480.6,-972.83 523.56,-958.2"/>
<polygon fill="#db2f96" stroke="#ffffff" points="524.49,-961.58 532.8,-955.01 522.2,-954.96 524.49,-961.58"/>
</g>
<!-- typing&#45;&gt;rest_framework_simplejwt_tokens -->
<g id="edge42" class="edge">
<title>typing&#45;&gt;rest_framework_simplejwt_tokens</title><style>.edge>path:hover{stroke-width:8}</style>
<path fill="none" stroke="#ffffff" d="M587.85,-986.52C640.89,-983.51 699.41,-969.62 743.05,-957.09"/>
<polygon fill="#db2f96" stroke="#ffffff" points="744.03,-960.45 752.65,-954.29 742.07,-953.73 744.03,-960.45"/>
<path fill="none" stroke="#ffffff" d="M404.06,-986.52C484.48,-994.32 505.18,-991.09 585.85,-986.52"/>
</g>
<!-- typing&#45;&gt;tests2_helpers_test_logging -->
<g id="edge43" class="edge">
<title>typing&#45;&gt;tests2_helpers_test_logging</title><style>.edge>path:hover{stroke-width:8}</style>
<path fill="none" stroke="#ffffff" d="M291.29,-931.77C329.91,-918.24 406.9,-887.11 456.8,-839.52 479.58,-817.79 467.39,-797.09 492.8,-778.52 562.03,-727.91 613.16,-788.11 680.89,-735.52 749.32,-682.37 784.78,-582.9 800.17,-526.45"/>
<polygon fill="#db2f96" stroke="#ffffff" points="803.53,-527.45 802.69,-516.89 796.76,-525.67 803.53,-527.45"/>
</g>
<!-- typing&#45;&gt;tests2_test_security -->
<g id="edge44" class="edge">
<title>typing&#45;&gt;tests2_test_security</title><style>.edge>path:hover{stroke-width:8}</style>
<path fill="none" stroke="#ffffff" d="M587.85,-986.52C728.82,-978.52 789.3,-1048.49 904.98,-967.52 937.92,-944.46 900.78,-885.28 940.98,-884.52"/>
</g>
</g>
</svg>

