<?xml version="1.0" encoding="UTF-8" standalone="no"?>
<!DOCTYPE svg PUBLIC "-//W3C//DTD SVG 1.1//EN"
 "http://www.w3.org/Graphics/SVG/1.1/DTD/svg11.dtd">
<!-- Generated by graphviz version 15.0.0 (20260523.1842)
 -->
<!-- Title: G Pages: 1 -->
<svg style="background-color:#141414" width="958pt" height="922pt"
 viewBox="0.00 0.00 958.00 922.00" xmlns="http://www.w3.org/2000/svg" xmlns:xlink="http://www.w3.org/1999/xlink">
<g id="graph0" class="graph" transform="scale(1 1) rotate(0) translate(4 917.99)">
<title>G</title><style>.edge>path:hover{stroke-width:8}</style>
<polygon fill="#141414" stroke="none" points="-4,4 -4,-917.99 953.7,-917.99 953.7,4 -4,4"/>
<!-- fastapi -->
<g id="node1" class="node">
<title>fastapi</title><style>.edge>path:hover{stroke-width:8}</style>
<ellipse fill="#c24747" stroke="#ffffff" cx="400.77" cy="-478.93" rx="27.21" ry="18"/>
<text xml:space="preserve" text-anchor="middle" x="400.77" y="-475.43" font-family="Helvetica,sans-Serif" font-size="10.00" fill="#e0e0e0">fastapi</text>
</g>
<!-- src_main -->
<g id="node15" class="node">
<title>src_main</title><style>.edge>path:hover{stroke-width:8}</style>
<ellipse fill="#375481" stroke="#ffffff" cx="666.33" cy="-73.93" rx="32.17" ry="18"/>
<text xml:space="preserve" text-anchor="middle" x="666.33" y="-70.43" font-family="Helvetica,sans-Serif" font-size="10.00" fill="#e0e0e0">src.main</text>
</g>
<!-- fastapi&#45;&gt;src_main -->
<g id="edge1" class="edge">
<title>fastapi&#45;&gt;src_main</title><style>.edge>path:hover{stroke-width:8}</style>
<path fill="none" stroke="#ffffff" d="M423.69,-468.71C433.87,-463.23 445.65,-455.79 454.51,-446.93 503.08,-398.4 484.44,-361.64 534.77,-314.93"/>
</g>
<!-- tests_conftest -->
<g id="node17" class="node">
<title>tests_conftest</title><style>.edge>path:hover{stroke-width:8}</style>
<ellipse fill="#5f2e6b" stroke="#ffffff" cx="904" cy="-389.93" rx="45.7" ry="18"/>
<text xml:space="preserve" text-anchor="middle" x="904" y="-386.43" font-family="Helvetica,sans-Serif" font-size="10.00" fill="#e0e0e0">tests.conftest</text>
</g>
<!-- fastapi&#45;&gt;tests_conftest -->
<g id="edge2" class="edge">
<title>fastapi&#45;&gt;tests_conftest</title><style>.edge>path:hover{stroke-width:8}</style>
<path fill="none" stroke="#ffffff" d="M787.97,-751.93C847,-716.82 886.13,-499.17 898.66,-419.29"/>
<polygon fill="#c24747" stroke="#ffffff" points="902.08,-420.03 900.14,-409.61 895.16,-418.97 902.08,-420.03"/>
<path fill="none" stroke="#ffffff" d="M426.88,-473.47C485.14,-462.38 630.99,-443.88 715.64,-514.93 799.8,-585.57 691.54,-808.1 785.97,-751.93"/>
</g>
<!-- fastapi_testclient -->
<g id="node2" class="node">
<title>fastapi_testclient</title><style>.edge>path:hover{stroke-width:8}</style>
<ellipse fill="#b65353" stroke="#ffffff" cx="666.33" cy="-848.93" rx="39.42" ry="22.63"/>
<text xml:space="preserve" text-anchor="middle" x="666.33" y="-851.43" font-family="Helvetica,sans-Serif" font-size="10.00" fill="#e0e0e0">fastapi.</text>
<text xml:space="preserve" text-anchor="middle" x="666.33" y="-839.43" font-family="Helvetica,sans-Serif" font-size="10.00" fill="#e0e0e0">testclient</text>
</g>
<!-- fastapi_testclient&#45;&gt;tests_conftest -->
<g id="edge3" class="edge">
<title>fastapi_testclient&#45;&gt;tests_conftest</title><style>.edge>path:hover{stroke-width:8}</style>
<path fill="none" stroke="#ffffff" d="M691.11,-831.11C698.99,-825.11 707.75,-818.31 715.64,-811.93 747.59,-786.1 750.66,-772.93 785.97,-751.93"/>
</g>
<!-- logging -->
<g id="node3" class="node">
<title>logging</title><style>.edge>path:hover{stroke-width:8}</style>
<ellipse fill="#c29147" stroke="#ffffff" cx="32.17" cy="-533.93" rx="28.11" ry="18"/>
<text xml:space="preserve" text-anchor="middle" x="32.17" y="-530.43" font-family="Helvetica,sans-Serif" font-size="10.00" fill="#e0e0e0">logging</text>
</g>
<!-- src_helpers_logging_setup -->
<g id="node14" class="node">
<title>src_helpers_logging_setup</title><style>.edge>path:hover{stroke-width:8}</style>
<ellipse fill="#335c99" stroke="#ffffff" cx="400.77" cy="-373.93" rx="53.74" ry="31.11"/>
<text xml:space="preserve" text-anchor="middle" x="400.77" y="-382.43" font-family="Helvetica,sans-Serif" font-size="10.00" fill="#e0e0e0">src.</text>
<text xml:space="preserve" text-anchor="middle" x="400.77" y="-370.43" font-family="Helvetica,sans-Serif" font-size="10.00" fill="#e0e0e0">helpers.</text>
<text xml:space="preserve" text-anchor="middle" x="400.77" y="-358.43" font-family="Helvetica,sans-Serif" font-size="10.00" fill="#e0e0e0">logging_setup</text>
</g>
<!-- logging&#45;&gt;src_helpers_logging_setup -->
<g id="edge4" class="edge">
<title>logging&#45;&gt;src_helpers_logging_setup</title><style>.edge>path:hover{stroke-width:8}</style>
<path fill="none" stroke="#ffffff" d="M59.13,-527.87C109.58,-515.48 223.57,-484.56 311.03,-438.93 328.28,-429.93 345.85,-417.81 360.76,-406.46"/>
<polygon fill="#c29147" stroke="#ffffff" points="362.72,-409.37 368.47,-400.47 358.43,-403.84 362.72,-409.37"/>
</g>
<!-- tests_helpers_test_logging -->
<g id="node19" class="node">
<title>tests_helpers_test_logging</title><style>.edge>path:hover{stroke-width:8}</style>
<ellipse fill="#723781" stroke="#ffffff" cx="666.33" cy="-554.93" rx="48.44" ry="31.11"/>
<text xml:space="preserve" text-anchor="middle" x="666.33" y="-563.43" font-family="Helvetica,sans-Serif" font-size="10.00" fill="#e0e0e0">tests.</text>
<text xml:space="preserve" text-anchor="middle" x="666.33" y="-551.43" font-family="Helvetica,sans-Serif" font-size="10.00" fill="#e0e0e0">helpers.</text>
<text xml:space="preserve" text-anchor="middle" x="666.33" y="-539.43" font-family="Helvetica,sans-Serif" font-size="10.00" fill="#e0e0e0">test_logging</text>
</g>
<!-- logging&#45;&gt;tests_helpers_test_logging -->
<g id="edge5" class="edge">
<title>logging&#45;&gt;tests_helpers_test_logging</title><style>.edge>path:hover{stroke-width:8}</style>
<path fill="none" stroke="#ffffff" d="M60.45,-531.68C81.67,-530.47 111.79,-529.94 137.83,-533.93"/>
</g>
<!-- pathlib -->
<g id="node4" class="node">
<title>pathlib</title><style>.edge>path:hover{stroke-width:8}</style>
<ellipse fill="#aecc33" stroke="#ffffff" cx="262.17" cy="-411.93" rx="27" ry="18"/>
<text xml:space="preserve" text-anchor="middle" x="262.17" y="-408.43" font-family="Helvetica,sans-Serif" font-size="10.00" fill="#e0e0e0">pathlib</text>
</g>
<!-- pathlib&#45;&gt;src_main -->
<g id="edge6" class="edge">
<title>pathlib&#45;&gt;src_main</title><style>.edge>path:hover{stroke-width:8}</style>
<path fill="none" stroke="#ffffff" d="M287.59,-418.71C325.44,-427.83 399.63,-440.09 454.51,-413.93 505.64,-389.56 493.25,-353.46 534.77,-314.93"/>
</g>
<!-- pathlib&#45;&gt;tests_helpers_test_logging -->
<g id="edge7" class="edge">
<title>pathlib&#45;&gt;tests_helpers_test_logging</title><style>.edge>path:hover{stroke-width:8}</style>
<path fill="none" stroke="#ffffff" d="M283.81,-422.88C292.89,-428.37 303.23,-435.62 311.03,-443.93 332.84,-467.16 324.08,-483.83 347.03,-505.93 366.15,-524.34 373.89,-528.08 399.77,-533.93"/>
<path fill="none" stroke="#ffffff" d="M401.77,-533.93C470.81,-549.53 552.29,-553.96 606.19,-555.01"/>
<polygon fill="#aecc33" stroke="#ffffff" points="606.02,-558.51 616.07,-555.17 606.13,-551.51 606.02,-558.51"/>
</g>
<!-- pytest -->
<g id="node5" class="node">
<title>pytest</title><style>.edge>path:hover{stroke-width:8}</style>
<ellipse fill="#60c247" stroke="#ffffff" cx="262.17" cy="-579.93" rx="27" ry="18"/>
<text xml:space="preserve" text-anchor="middle" x="262.17" y="-576.43" font-family="Helvetica,sans-Serif" font-size="10.00" fill="#e0e0e0">pytest</text>
</g>
<!-- pytest&#45;&gt;tests_conftest -->
<g id="edge8" class="edge">
<title>pytest&#45;&gt;tests_conftest</title><style>.edge>path:hover{stroke-width:8}</style>
<path fill="none" stroke="#ffffff" d="M536.77,-587.93C596.34,-589.18 610.53,-602.53 665.33,-625.93"/>
<path fill="none" stroke="#ffffff" d="M667.33,-625.93C688.55,-634.99 697.73,-630.39 715.64,-644.93 759.82,-680.8 737.01,-780.93 785.97,-751.93"/>
</g>
<!-- pytest&#45;&gt;tests_helpers_test_logging -->
<g id="edge9" class="edge">
<title>pytest&#45;&gt;tests_helpers_test_logging</title><style>.edge>path:hover{stroke-width:8}</style>
<path fill="none" stroke="#ffffff" d="M536.77,-587.93C562.73,-588.18 590.74,-581.82 613.96,-574.62"/>
<polygon fill="#60c247" stroke="#ffffff" points="614.75,-578.04 623.17,-571.62 612.58,-571.39 614.75,-578.04"/>
<path fill="none" stroke="#ffffff" d="M289.38,-581.05C337.83,-583.04 444.67,-587.07 534.77,-587.93"/>
</g>
<!-- pytest_asyncio -->
<g id="node6" class="node">
<title>pytest_asyncio</title><style>.edge>path:hover{stroke-width:8}</style>
<ellipse fill="#53b67b" stroke="#ffffff" cx="666.33" cy="-751.93" rx="49.31" ry="18"/>
<text xml:space="preserve" text-anchor="middle" x="666.33" y="-748.43" font-family="Helvetica,sans-Serif" font-size="10.00" fill="#e0e0e0">pytest_asyncio</text>
</g>
<!-- pytest_asyncio&#45;&gt;tests_conftest -->
<g id="edge10" class="edge">
<title>pytest_asyncio&#45;&gt;tests_conftest</title><style>.edge>path:hover{stroke-width:8}</style>
<path fill="none" stroke="#ffffff" d="M708.26,-761.84C732.49,-765.4 762.87,-765.67 785.97,-751.93"/>
</g>
<!-- sqlalchemy -->
<g id="node7" class="node">
<title>sqlalchemy</title><style>.edge>path:hover{stroke-width:8}</style>
<ellipse fill="#24d0d0" stroke="#ffffff" cx="262.17" cy="-671.93" rx="39.39" ry="18"/>
<text xml:space="preserve" text-anchor="middle" x="262.17" y="-668.43" font-family="Helvetica,sans-Serif" font-size="10.00" fill="#e0e0e0">sqlalchemy</text>
</g>
<!-- sqlalchemy&#45;&gt;tests_conftest -->
<g id="edge11" class="edge">
<title>sqlalchemy&#45;&gt;tests_conftest</title><style>.edge>path:hover{stroke-width:8}</style>
<path fill="none" stroke="#ffffff" d="M536.77,-663.93C596.32,-661.99 610.53,-602.53 665.33,-625.93"/>
<path fill="none" stroke="#ffffff" d="M301.85,-670.87C354.53,-669.4 451.79,-666.63 534.77,-663.93"/>
</g>
<!-- tests_utils_db_config -->
<g id="node21" class="node">
<title>tests_utils_db_config</title><style>.edge>path:hover{stroke-width:8}</style>
<ellipse fill="#993ab0" stroke="#ffffff" cx="666.33" cy="-684.93" rx="41.01" ry="31.11"/>
<text xml:space="preserve" text-anchor="middle" x="666.33" y="-693.43" font-family="Helvetica,sans-Serif" font-size="10.00" fill="#e0e0e0">tests.</text>
<text xml:space="preserve" text-anchor="middle" x="666.33" y="-681.43" font-family="Helvetica,sans-Serif" font-size="10.00" fill="#e0e0e0">utils.</text>
<text xml:space="preserve" text-anchor="middle" x="666.33" y="-669.43" font-family="Helvetica,sans-Serif" font-size="10.00" fill="#e0e0e0">db_config</text>
</g>
<!-- sqlalchemy&#45;&gt;tests_utils_db_config -->
<g id="edge12" class="edge">
<title>sqlalchemy&#45;&gt;tests_utils_db_config</title><style>.edge>path:hover{stroke-width:8}</style>
<path fill="none" stroke="#ffffff" d="M536.77,-663.93C563.19,-663.07 592.28,-667.37 616.1,-672.3"/>
<polygon fill="#24d0d0" stroke="#ffffff" points="615.34,-675.72 625.85,-674.43 616.83,-668.88 615.34,-675.72"/>
</g>
<!-- sqlalchemy_ext -->
<g id="node8" class="node">
<title>sqlalchemy_ext</title><style>.edge>path:hover{stroke-width:8}</style>
<ellipse fill="#40bfc0" stroke="#ffffff" cx="262.17" cy="-805.93" rx="48.86" ry="18"/>
<text xml:space="preserve" text-anchor="middle" x="262.17" y="-802.43" font-family="Helvetica,sans-Serif" font-size="10.00" fill="#e0e0e0">sqlalchemy.ext</text>
</g>
<!-- sqlalchemy_ext&#45;&gt;tests_conftest -->
<g id="edge13" class="edge">
<title>sqlalchemy_ext&#45;&gt;tests_conftest</title><style>.edge>path:hover{stroke-width:8}</style>
<path fill="none" stroke="#ffffff" d="M289.12,-821.33C362.03,-862.39 572.72,-965.79 715.64,-880.93 771.79,-847.59 729.85,-785.32 785.97,-751.93"/>
</g>
<!-- sqlalchemy_ext&#45;&gt;tests_utils_db_config -->
<g id="edge14" class="edge">
<title>sqlalchemy_ext&#45;&gt;tests_utils_db_config</title><style>.edge>path:hover{stroke-width:8}</style>
<path fill="none" stroke="#ffffff" d="M294.11,-791.86C321.29,-780.4 362.24,-765.27 399.77,-759.93"/>
</g>
<!-- sqlalchemy_ext_asyncio -->
<g id="node9" class="node">
<title>sqlalchemy_ext_asyncio</title><style>.edge>path:hover{stroke-width:8}</style>
<ellipse fill="#47c2c2" stroke="#ffffff" cx="262.17" cy="-738.93" rx="47.91" ry="31.11"/>
<text xml:space="preserve" text-anchor="middle" x="262.17" y="-747.43" font-family="Helvetica,sans-Serif" font-size="10.00" fill="#e0e0e0">sqlalchemy.</text>
<text xml:space="preserve" text-anchor="middle" x="262.17" y="-735.43" font-family="Helvetica,sans-Serif" font-size="10.00" fill="#e0e0e0">ext.</text>
<text xml:space="preserve" text-anchor="middle" x="262.17" y="-723.43" font-family="Helvetica,sans-Serif" font-size="10.00" fill="#e0e0e0">asyncio</text>
</g>
<!-- sqlalchemy_ext_asyncio&#45;&gt;tests_conftest -->
<g id="edge15" class="edge">
<title>sqlalchemy_ext_asyncio&#45;&gt;tests_conftest</title><style>.edge>path:hover{stroke-width:8}</style>
<path fill="none" stroke="#ffffff" d="M300.61,-758.1C314.77,-764.4 331.28,-770.62 347.03,-773.93 538.19,-814.07 617.91,-851.48 785.97,-751.93"/>
</g>
<!-- sqlalchemy_ext_asyncio&#45;&gt;tests_utils_db_config -->
<g id="edge16" class="edge">
<title>sqlalchemy_ext_asyncio&#45;&gt;tests_utils_db_config</title><style>.edge>path:hover{stroke-width:8}</style>
<path fill="none" stroke="#ffffff" d="M307.23,-750.2C333.87,-755.9 368.61,-761.33 399.77,-759.93"/>
<path fill="none" stroke="#ffffff" d="M401.77,-759.93C480.75,-756.38 568.25,-725.83 619.93,-704.84"/>
<polygon fill="#47c2c2" stroke="#ffffff" points="621.09,-708.15 629,-701.09 618.42,-701.67 621.09,-708.15"/>
</g>
<!-- src -->
<g id="node10" class="node">
<title>src</title><style>.edge>path:hover{stroke-width:8}</style>
<ellipse fill="#166ff3" stroke="#ffffff" cx="32.17" cy="-249.93" rx="27" ry="18"/>
<text xml:space="preserve" text-anchor="middle" x="32.17" y="-246.43" font-family="Helvetica,sans-Serif" font-size="10.00" fill="#e0e0e0">src</text>
</g>
<!-- src&#45;&gt;tests_conftest -->
<g id="edge17" class="edge">
<title>src&#45;&gt;tests_conftest</title><style>.edge>path:hover{stroke-width:8}</style>
<path fill="none" stroke="#ffffff" d="M787.97,-27.93C847.06,-62.94 886.15,-280.66 898.66,-360.56"/>
<polygon fill="#166ff3" stroke="#ffffff" points="895.17,-360.89 900.15,-370.24 902.09,-359.83 895.17,-360.89"/>
<path fill="none" stroke="#ffffff" d="M49.9,-236.25C80.42,-212 148.03,-161.55 213.31,-134.93 291.71,-102.96 315.24,-100.61 399.77,-95.93"/>
<path fill="none" stroke="#ffffff" d="M401.77,-95.93C443,-90.15 450.05,-75.73 490.51,-65.93 619.19,-34.78 672.06,39.55 785.97,-27.93"/>
</g>
<!-- tests_helpers_config_test_config -->
<g id="node18" class="node">
<title>tests_helpers_config_test_config</title><style>.edge>path:hover{stroke-width:8}</style>
<ellipse fill="#8b439d" stroke="#ffffff" cx="535.77" cy="-133.93" rx="45.25" ry="39.6"/>
<text xml:space="preserve" text-anchor="middle" x="535.77" y="-148.43" font-family="Helvetica,sans-Serif" font-size="10.00" fill="#e0e0e0">tests.</text>
<text xml:space="preserve" text-anchor="middle" x="535.77" y="-136.43" font-family="Helvetica,sans-Serif" font-size="10.00" fill="#e0e0e0">helpers.</text>
<text xml:space="preserve" text-anchor="middle" x="535.77" y="-124.43" font-family="Helvetica,sans-Serif" font-size="10.00" fill="#e0e0e0">config.</text>
<text xml:space="preserve" text-anchor="middle" x="535.77" y="-112.43" font-family="Helvetica,sans-Serif" font-size="10.00" fill="#e0e0e0">test_config</text>
</g>
<!-- src&#45;&gt;tests_helpers_config_test_config -->
<g id="edge18" class="edge">
<title>src&#45;&gt;tests_helpers_config_test_config</title><style>.edge>path:hover{stroke-width:8}</style>
<path fill="none" stroke="#ffffff" d="M401.77,-95.93C429.97,-94.37 460.32,-102.26 484.9,-111.25"/>
<polygon fill="#166ff3" stroke="#ffffff" points="483.41,-114.43 494,-114.74 485.92,-107.89 483.41,-114.43"/>
</g>
<!-- src&#45;&gt;tests_helpers_test_logging -->
<g id="edge19" class="edge">
<title>src&#45;&gt;tests_helpers_test_logging</title><style>.edge>path:hover{stroke-width:8}</style>
<path fill="none" stroke="#ffffff" d="M38.17,-267.61C56.37,-327.65 125.23,-520.83 261.17,-533.93"/>
<path fill="none" stroke="#ffffff" d="M263.17,-533.93C323.82,-536.65 341.31,-517.55 399.77,-533.93"/>
</g>
<!-- src_helpers -->
<g id="node11" class="node">
<title>src_helpers</title><style>.edge>path:hover{stroke-width:8}</style>
<ellipse fill="#2271e7" stroke="#ffffff" cx="138.83" cy="-346.93" rx="38.49" ry="18"/>
<text xml:space="preserve" text-anchor="middle" x="138.83" y="-343.43" font-family="Helvetica,sans-Serif" font-size="10.00" fill="#e0e0e0">src.helpers</text>
</g>
<!-- src_helpers&#45;&gt;src_main -->
<g id="edge20" class="edge">
<title>src_helpers&#45;&gt;src_main</title><style>.edge>path:hover{stroke-width:8}</style>
<path fill="none" stroke="#ffffff" d="M176.4,-342.22C226.68,-335.79 320.03,-324.02 399.77,-314.93"/>
<path fill="none" stroke="#ffffff" d="M401.77,-314.93C460.46,-307.87 491.17,-354.84 534.77,-314.93"/>
</g>
<!-- src_helpers&#45;&gt;tests_helpers_config_test_config -->
<g id="edge21" class="edge">
<title>src_helpers&#45;&gt;tests_helpers_config_test_config</title><style>.edge>path:hover{stroke-width:8}</style>
<path fill="none" stroke="#ffffff" d="M164.19,-333.07C169.1,-329.34 173.83,-324.93 177.31,-319.93 211.38,-271.12 169.24,-230.94 213.31,-190.93 213.93,-190.37 388.26,-159.67 479.9,-143.57"/>
<polygon fill="#2271e7" stroke="#ffffff" points="480.45,-147.02 489.69,-141.85 479.24,-140.13 480.45,-147.02"/>
</g>
<!-- src_helpers&#45;&gt;tests_helpers_test_logging -->
<g id="edge22" class="edge">
<title>src_helpers&#45;&gt;tests_helpers_test_logging</title><style>.edge>path:hover{stroke-width:8}</style>
<path fill="none" stroke="#ffffff" d="M150.47,-364.38C163.37,-384.39 186.7,-417.23 213.31,-438.93 285.4,-497.7 310.55,-507.67 399.77,-533.93"/>
</g>
<!-- src_helpers_config -->
<g id="node12" class="node">
<title>src_helpers_config</title><style>.edge>path:hover{stroke-width:8}</style>
<ellipse fill="#2f73db" stroke="#ffffff" cx="262.17" cy="-230.93" rx="35.71" ry="31.11"/>
<text xml:space="preserve" text-anchor="middle" x="262.17" y="-239.43" font-family="Helvetica,sans-Serif" font-size="10.00" fill="#e0e0e0">src.</text>
<text xml:space="preserve" text-anchor="middle" x="262.17" y="-227.43" font-family="Helvetica,sans-Serif" font-size="10.00" fill="#e0e0e0">helpers.</text>
<text xml:space="preserve" text-anchor="middle" x="262.17" y="-215.43" font-family="Helvetica,sans-Serif" font-size="10.00" fill="#e0e0e0">config</text>
</g>
<!-- src_helpers_config&#45;&gt;src_helpers_logging_setup -->
<g id="edge23" class="edge">
<title>src_helpers_config&#45;&gt;src_helpers_logging_setup</title><style>.edge>path:hover{stroke-width:8}</style>
<path fill="none" stroke="#ffffff" d="M288.05,-252.39C295.77,-259.54 304.07,-267.78 311.03,-275.93 329.52,-297.59 328.03,-307.72 347.03,-328.93 350.85,-333.19 355.07,-337.42 359.41,-341.49"/>
<polygon fill="#2f73db" stroke="#ffffff" points="356.92,-343.96 366.7,-348.05 361.61,-338.76 356.92,-343.96"/>
</g>
<!-- src_helpers_config&#45;&gt;src_main -->
<g id="edge24" class="edge">
<title>src_helpers_config&#45;&gt;src_main</title><style>.edge>path:hover{stroke-width:8}</style>
<path fill="none" stroke="#ffffff" d="M401.77,-276.93C463.23,-275.38 489.71,-356.75 534.77,-314.93"/>
<path fill="none" stroke="#ffffff" d="M536.77,-314.93C602.25,-254.16 640.98,-152.31 656.87,-102.76"/>
<polygon fill="#2f73db" stroke="#ffffff" points="660.17,-103.93 659.8,-93.34 653.49,-101.85 660.17,-103.93"/>
</g>
<!-- src_helpers_config&#45;&gt;tests_helpers_config_test_config -->
<g id="edge25" class="edge">
<title>src_helpers_config&#45;&gt;tests_helpers_config_test_config</title><style>.edge>path:hover{stroke-width:8}</style>
<path fill="none" stroke="#ffffff" d="M401.77,-276.93C454.89,-275.59 492.81,-222.3 514.24,-181.17"/>
<polygon fill="#2f73db" stroke="#ffffff" points="517.3,-182.87 518.65,-172.36 511.04,-179.73 517.3,-182.87"/>
<path fill="none" stroke="#ffffff" d="M292.87,-247.62C319.91,-261.17 361.37,-277.9 399.77,-276.93"/>
</g>
<!-- src_helpers_config_config -->
<g id="node13" class="node">
<title>src_helpers_config_config</title><style>.edge>path:hover{stroke-width:8}</style>
<ellipse fill="#2f67bc" stroke="#ffffff" cx="138.83" cy="-270.93" rx="35.71" ry="39.6"/>
<text xml:space="preserve" text-anchor="middle" x="138.83" y="-285.43" font-family="Helvetica,sans-Serif" font-size="10.00" fill="#e0e0e0">src.</text>
<text xml:space="preserve" text-anchor="middle" x="138.83" y="-273.43" font-family="Helvetica,sans-Serif" font-size="10.00" fill="#e0e0e0">helpers.</text>
<text xml:space="preserve" text-anchor="middle" x="138.83" y="-261.43" font-family="Helvetica,sans-Serif" font-size="10.00" fill="#e0e0e0">config.</text>
<text xml:space="preserve" text-anchor="middle" x="138.83" y="-249.43" font-family="Helvetica,sans-Serif" font-size="10.00" fill="#e0e0e0">config</text>
</g>
<!-- src_helpers_config_config&#45;&gt;src_helpers_logging_setup -->
<g id="edge26" class="edge">
<title>src_helpers_config_config&#45;&gt;src_helpers_logging_setup</title><style>.edge>path:hover{stroke-width:8}</style>
<path fill="none" stroke="#ffffff" d="M173.01,-284.08C216.55,-301.33 293.51,-331.83 345.57,-352.45"/>
<polygon fill="#2f67bc" stroke="#ffffff" points="343.96,-355.58 354.54,-356.01 346.53,-349.07 343.96,-355.58"/>
</g>
<!-- src_helpers_config_config&#45;&gt;src_main -->
<g id="edge27" class="edge">
<title>src_helpers_config_config&#45;&gt;src_main</title><style>.edge>path:hover{stroke-width:8}</style>
<path fill="none" stroke="#ffffff" d="M156.45,-236.08C168.96,-213.67 188.24,-185.87 213.31,-169.93 284.54,-124.65 316.01,-144.32 399.77,-133.93"/>
<path fill="none" stroke="#ffffff" d="M401.77,-133.93C427.03,-128.92 432.13,-122.66 454.51,-109.93 471.45,-100.3 472.11,-91.33 490.51,-84.93 533.92,-69.82 587.01,-68.72 623.22,-70.35"/>
<polygon fill="#2f67bc" stroke="#ffffff" points="622.66,-73.83 632.84,-70.88 623.04,-66.84 622.66,-73.83"/>
</g>
<!-- src_helpers_config_config&#45;&gt;tests_helpers_config_test_config -->
<g id="edge28" class="edge">
<title>src_helpers_config_config&#45;&gt;tests_helpers_config_test_config</title><style>.edge>path:hover{stroke-width:8}</style>
<path fill="none" stroke="#ffffff" d="M401.77,-133.93C426.98,-130.81 455.08,-130.37 478.93,-130.88"/>
<polygon fill="#2f67bc" stroke="#ffffff" points="478.66,-134.38 488.75,-131.16 478.86,-127.38 478.66,-134.38"/>
</g>
<!-- src_helpers_logging_setup&#45;&gt;src_main -->
<g id="edge29" class="edge">
<title>src_helpers_logging_setup&#45;&gt;src_main</title><style>.edge>path:hover{stroke-width:8}</style>
<path fill="none" stroke="#ffffff" d="M450.18,-361.04C477.56,-351.79 510.98,-337.01 534.77,-314.93"/>
</g>
<!-- src_helpers_logging_setup&#45;&gt;tests_helpers_test_logging -->
<g id="edge30" class="edge">
<title>src_helpers_logging_setup&#45;&gt;tests_helpers_test_logging</title><style>.edge>path:hover{stroke-width:8}</style>
<path fill="none" stroke="#ffffff" d="M436.23,-397.59C484.3,-430.61 571.43,-490.44 623.27,-526.05"/>
<polygon fill="#335c99" stroke="#ffffff" points="621.05,-528.77 631.28,-531.55 625.02,-523 621.05,-528.77"/>
</g>
<!-- src_main&#45;&gt;tests_conftest -->
<g id="edge31" class="edge">
<title>src_main&#45;&gt;tests_conftest</title><style>.edge>path:hover{stroke-width:8}</style>
<path fill="none" stroke="#ffffff" d="M688.95,-60.93C718.31,-44.06 769.05,-17.91 785.97,-27.93"/>
</g>
<!-- structlog -->
<g id="node16" class="node">
<title>structlog</title><style>.edge>path:hover{stroke-width:8}</style>
<ellipse fill="#4a26d9" stroke="#ffffff" cx="32.17" cy="-466.93" rx="32.17" ry="18"/>
<text xml:space="preserve" text-anchor="middle" x="32.17" y="-463.43" font-family="Helvetica,sans-Serif" font-size="10.00" fill="#e0e0e0">structlog</text>
</g>
<!-- structlog&#45;&gt;src_helpers_logging_setup -->
<g id="edge32" class="edge">
<title>structlog&#45;&gt;src_helpers_logging_setup</title><style>.edge>path:hover{stroke-width:8}</style>
<path fill="none" stroke="#ffffff" d="M263.17,-365.93C287.1,-356.18 315.36,-356.16 339.94,-359.37"/>
<polygon fill="#4a26d9" stroke="#ffffff" points="339.41,-362.82 349.82,-360.87 340.46,-355.9 339.41,-362.82"/>
</g>
<!-- structlog&#45;&gt;src_main -->
<g id="edge33" class="edge">
<title>structlog&#45;&gt;src_main</title><style>.edge>path:hover{stroke-width:8}</style>
<path fill="none" stroke="#ffffff" d="M263.17,-365.93C278.18,-359.82 383.69,-316.87 399.77,-314.93"/>
<path fill="none" stroke="#ffffff" d="M57.48,-455.41C91.93,-439.18 157.04,-408.89 213.31,-384.93 234.37,-375.97 239.98,-374.56 261.17,-365.93"/>
</g>
<!-- structlog&#45;&gt;tests_helpers_test_logging -->
<g id="edge34" class="edge">
<title>structlog&#45;&gt;tests_helpers_test_logging</title><style>.edge>path:hover{stroke-width:8}</style>
<path fill="none" stroke="#ffffff" d="M139.83,-533.93C193.14,-542.11 207.49,-528.76 261.17,-533.93"/>
<path fill="none" stroke="#ffffff" d="M48.4,-482.65C67.32,-500.65 101.58,-528.37 137.83,-533.93"/>
</g>
<!-- tests_utils -->
<g id="node20" class="node">
<title>tests_utils</title><style>.edge>path:hover{stroke-width:8}</style>
<ellipse fill="#a947c2" stroke="#ffffff" cx="786.97" cy="-389.93" rx="35.33" ry="18"/>
<text xml:space="preserve" text-anchor="middle" x="786.97" y="-386.43" font-family="Helvetica,sans-Serif" font-size="10.00" fill="#e0e0e0">tests.utils</text>
</g>
<!-- tests_utils&#45;&gt;tests_conftest -->
<g id="edge35" class="edge">
<title>tests_utils&#45;&gt;tests_conftest</title><style>.edge>path:hover{stroke-width:8}</style>
<path fill="none" stroke="#ffffff" d="M822.79,-389.93C830.35,-389.93 838.52,-389.93 846.66,-389.93"/>
<polygon fill="#a947c2" stroke="#ffffff" points="846.56,-393.43 856.56,-389.93 846.56,-386.43 846.56,-393.43"/>
</g>
<!-- tests_utils_db_config&#45;&gt;tests_conftest -->
<g id="edge36" class="edge">
<title>tests_utils_db_config&#45;&gt;tests_conftest</title><style>.edge>path:hover{stroke-width:8}</style>
<path fill="none" stroke="#ffffff" d="M694.75,-707.67C724.22,-730.82 769.1,-761.97 785.97,-751.93"/>
</g>
<!-- typing -->
<g id="node22" class="node">
<title>typing</title><style>.edge>path:hover{stroke-width:8}</style>
<ellipse fill="#ce3b93" stroke="#ffffff" cx="138.83" cy="-579.93" rx="27" ry="18"/>
<text xml:space="preserve" text-anchor="middle" x="138.83" y="-576.43" font-family="Helvetica,sans-Serif" font-size="10.00" fill="#e0e0e0">typing</text>
</g>
<!-- typing&#45;&gt;sqlalchemy -->
<g id="edge37" class="edge">
<title>typing&#45;&gt;sqlalchemy</title><style>.edge>path:hover{stroke-width:8}</style>
<path fill="none" stroke="#ffffff" d="M156.11,-593.97C170.77,-606.44 193.06,-624.94 213.31,-639.93 218.34,-643.65 223.76,-647.46 229.09,-651.09"/>
<polygon fill="#ce3b93" stroke="#ffffff" points="226.96,-653.88 237.21,-656.54 230.86,-648.07 226.96,-653.88"/>
</g>
<!-- typing&#45;&gt;tests_conftest -->
<g id="edge38" class="edge">
<title>typing&#45;&gt;tests_conftest</title><style>.edge>path:hover{stroke-width:8}</style>
<path fill="none" stroke="#ffffff" d="M161.82,-590.05C176.16,-596.13 195.45,-603.37 213.31,-606.93 311.91,-626.61 572.87,-586.45 665.33,-625.93"/>
</g>
<!-- typing&#45;&gt;tests_helpers_test_logging -->
<g id="edge39" class="edge">
<title>typing&#45;&gt;tests_helpers_test_logging</title><style>.edge>path:hover{stroke-width:8}</style>
<path fill="none" stroke="#ffffff" d="M157.99,-567.12C181.08,-552.26 222.6,-530.21 261.17,-533.93"/>
</g>
</g>
</svg>

