<?xml version="1.0" encoding="UTF-8" standalone="no"?>
<!DOCTYPE svg PUBLIC "-//W3C//DTD SVG 1.1//EN"
 "http://www.w3.org/Graphics/SVG/1.1/DTD/svg11.dtd">
<!-- Generated by graphviz version 15.0.0 (20260523.1842)
 -->
<!-- Title: G Pages: 1 -->
<svg style="background-color:#141414" width="1213pt" height="1153pt"
 viewBox="0.00 0.00 1213.00 1153.00" xmlns="http://www.w3.org/2000/svg" xmlns:xlink="http://www.w3.org/1999/xlink">
<g id="graph0" class="graph" transform="scale(1 1) rotate(0) translate(4 1148.74)">
<title>G</title><style>.edge>path:hover{stroke-width:8}</style>
<polygon fill="#141414" stroke="none" points="-4,4 -4,-1148.74 1209.27,-1148.74 1209.27,4 -4,4"/>
<!-- fastapi -->
<g id="node1" class="node">
<title>fastapi</title><style>.edge>path:hover{stroke-width:8}</style>
<polygon fill="#5a5a5a" stroke="#ffffff" points="155.72,-773.11 101.72,-773.11 101.72,-737.11 155.72,-737.11 155.72,-773.11"/>
<text xml:space="preserve" text-anchor="middle" x="128.72" y="-751.61" font-family="Helvetica,sans-Serif" font-size="10.00" fill="#e0e0e0">fastapi</text>
</g>
<!-- src_api_router -->
<g id="node15" class="node">
<title>src_api_router</title><style>.edge>path:hover{stroke-width:8}</style>
<ellipse fill="#572b82" stroke="#ffffff" cx="953.61" cy="-779.11" rx="43.9" ry="18"/>
<text xml:space="preserve" text-anchor="middle" x="953.61" y="-775.61" font-family="Helvetica,sans-Serif" font-size="10.00" fill="#e0e0e0">src.api.router</text>
</g>
<!-- fastapi&#45;&gt;src_api_router -->
<g id="edge1" class="edge">
<title>fastapi&#45;&gt;src_api_router</title><style>.edge>path:hover{stroke-width:8}</style>
<path fill="none" stroke="#ffffff" d="M412.88,-834.11C452.39,-828.95 454.25,-864.32 492.61,-875.11 601.54,-905.76 638.34,-904.96 747.21,-874.11 787.42,-862.72 785.85,-821.3 827.46,-825.11"/>
</g>
<!-- src_api_routes_auth -->
<g id="node17" class="node">
<title>src_api_routes_auth</title><style>.edge>path:hover{stroke-width:8}</style>
<ellipse fill="#7038a8" stroke="#ffffff" cx="712.03" cy="-825.11" rx="32.53" ry="39.6"/>
<text xml:space="preserve" text-anchor="middle" x="712.03" y="-839.61" font-family="Helvetica,sans-Serif" font-size="10.00" fill="#e0e0e0">src.</text>
<text xml:space="preserve" text-anchor="middle" x="712.03" y="-827.61" font-family="Helvetica,sans-Serif" font-size="10.00" fill="#e0e0e0">api.</text>
<text xml:space="preserve" text-anchor="middle" x="712.03" y="-815.61" font-family="Helvetica,sans-Serif" font-size="10.00" fill="#e0e0e0">routes.</text>
<text xml:space="preserve" text-anchor="middle" x="712.03" y="-803.61" font-family="Helvetica,sans-Serif" font-size="10.00" fill="#e0e0e0">auth</text>
</g>
<!-- fastapi&#45;&gt;src_api_routes_auth -->
<g id="edge2" class="edge">
<title>fastapi&#45;&gt;src_api_routes_auth</title><style>.edge>path:hover{stroke-width:8}</style>
<path fill="none" stroke="#ffffff" d="M197.44,-747.11C234.34,-731.13 216.47,-793.66 233.44,-830.11 253.57,-873.33 239.94,-902.4 281.3,-926.11"/>
<path fill="none" stroke="#ffffff" d="M412.88,-834.11C463,-826.63 590.22,-831.11 640.86,-829.11 649.59,-828.77 658.93,-828.3 667.85,-827.81"/>
<polygon fill="#5a5a5a" stroke="#ffffff" points="667.96,-831.31 677.74,-827.25 667.56,-824.32 667.96,-831.31"/>
<path fill="none" stroke="#ffffff" d="M283.3,-926.11C326.17,-950.69 325.37,-879.49 367.16,-853.11 385.08,-841.8 389.87,-836.86 410.88,-834.11"/>
</g>
<!-- src_api_routes_health -->
<g id="node18" class="node">
<title>src_api_routes_health</title><style>.edge>path:hover{stroke-width:8}</style>
<ellipse fill="#7038a8" stroke="#ffffff" cx="712.03" cy="-481.11" rx="32.53" ry="39.6"/>
<text xml:space="preserve" text-anchor="middle" x="712.03" y="-495.61" font-family="Helvetica,sans-Serif" font-size="10.00" fill="#e0e0e0">src.</text>
<text xml:space="preserve" text-anchor="middle" x="712.03" y="-483.61" font-family="Helvetica,sans-Serif" font-size="10.00" fill="#e0e0e0">api.</text>
<text xml:space="preserve" text-anchor="middle" x="712.03" y="-471.61" font-family="Helvetica,sans-Serif" font-size="10.00" fill="#e0e0e0">routes.</text>
<text xml:space="preserve" text-anchor="middle" x="712.03" y="-459.61" font-family="Helvetica,sans-Serif" font-size="10.00" fill="#e0e0e0">health</text>
</g>
<!-- fastapi&#45;&gt;src_api_routes_health -->
<g id="edge3" class="edge">
<title>fastapi&#45;&gt;src_api_routes_health</title><style>.edge>path:hover{stroke-width:8}</style>
<path fill="none" stroke="#ffffff" d="M197.44,-747.11C231.64,-732.3 244.13,-749.82 281.3,-747.11"/>
<path fill="none" stroke="#ffffff" d="M412.88,-709.11C432.31,-700.65 438.53,-701.17 456.61,-690.11 542.92,-637.34 631.49,-557.64 677.95,-513.47"/>
<polygon fill="#5a5a5a" stroke="#ffffff" points="680.22,-516.14 685.03,-506.7 675.38,-511.08 680.22,-516.14"/>
<path fill="none" stroke="#ffffff" d="M283.3,-747.11C342.31,-742.81 354.87,-728.16 410.88,-709.11"/>
</g>
<!-- src_api_routes_posts -->
<g id="node19" class="node">
<title>src_api_routes_posts</title><style>.edge>path:hover{stroke-width:8}</style>
<ellipse fill="#613091" stroke="#ffffff" cx="712.03" cy="-384.11" rx="32.53" ry="39.6"/>
<text xml:space="preserve" text-anchor="middle" x="712.03" y="-398.61" font-family="Helvetica,sans-Serif" font-size="10.00" fill="#e0e0e0">src.</text>
<text xml:space="preserve" text-anchor="middle" x="712.03" y="-386.61" font-family="Helvetica,sans-Serif" font-size="10.00" fill="#e0e0e0">api.</text>
<text xml:space="preserve" text-anchor="middle" x="712.03" y="-374.61" font-family="Helvetica,sans-Serif" font-size="10.00" fill="#e0e0e0">routes.</text>
<text xml:space="preserve" text-anchor="middle" x="712.03" y="-362.61" font-family="Helvetica,sans-Serif" font-size="10.00" fill="#e0e0e0">posts</text>
</g>
<!-- fastapi&#45;&gt;src_api_routes_posts -->
<g id="edge4" class="edge">
<title>fastapi&#45;&gt;src_api_routes_posts</title><style>.edge>path:hover{stroke-width:8}</style>
<path fill="none" stroke="#ffffff" d="M155.97,-755.41C168.65,-754.71 183.81,-752.58 196.44,-747.11"/>
<path fill="none" stroke="#ffffff" d="M197.44,-747.11C274.46,-713.75 184.27,-439.14 233.44,-371.11 261.24,-332.66 293.05,-356.39 331.16,-328.11 350.9,-313.46 345.66,-298.03 367.16,-286.11 416.48,-258.77 440.41,-245.77 492.61,-267.11"/>
</g>
<!-- src_api_routes_root -->
<g id="node20" class="node">
<title>src_api_routes_root</title><style>.edge>path:hover{stroke-width:8}</style>
<ellipse fill="#7038a8" stroke="#ffffff" cx="712.03" cy="-578.11" rx="32.53" ry="39.6"/>
<text xml:space="preserve" text-anchor="middle" x="712.03" y="-592.61" font-family="Helvetica,sans-Serif" font-size="10.00" fill="#e0e0e0">src.</text>
<text xml:space="preserve" text-anchor="middle" x="712.03" y="-580.61" font-family="Helvetica,sans-Serif" font-size="10.00" fill="#e0e0e0">api.</text>
<text xml:space="preserve" text-anchor="middle" x="712.03" y="-568.61" font-family="Helvetica,sans-Serif" font-size="10.00" fill="#e0e0e0">routes.</text>
<text xml:space="preserve" text-anchor="middle" x="712.03" y="-556.61" font-family="Helvetica,sans-Serif" font-size="10.00" fill="#e0e0e0">root</text>
</g>
<!-- fastapi&#45;&gt;src_api_routes_root -->
<g id="edge5" class="edge">
<title>fastapi&#45;&gt;src_api_routes_root</title><style>.edge>path:hover{stroke-width:8}</style>
<path fill="none" stroke="#ffffff" d="M412.88,-709.11C511.1,-671.98 549.8,-699.4 640.86,-647.11 655.66,-638.61 669.6,-626.23 681.1,-614.3"/>
<polygon fill="#5a5a5a" stroke="#ffffff" points="683.38,-616.98 687.62,-607.27 678.25,-612.22 683.38,-616.98"/>
</g>
<!-- src_api_routes_users -->
<g id="node21" class="node">
<title>src_api_routes_users</title><style>.edge>path:hover{stroke-width:8}</style>
<ellipse fill="#5c2e8a" stroke="#ffffff" cx="712.03" cy="-728.11" rx="32.53" ry="39.6"/>
<text xml:space="preserve" text-anchor="middle" x="712.03" y="-742.61" font-family="Helvetica,sans-Serif" font-size="10.00" fill="#e0e0e0">src.</text>
<text xml:space="preserve" text-anchor="middle" x="712.03" y="-730.61" font-family="Helvetica,sans-Serif" font-size="10.00" fill="#e0e0e0">api.</text>
<text xml:space="preserve" text-anchor="middle" x="712.03" y="-718.61" font-family="Helvetica,sans-Serif" font-size="10.00" fill="#e0e0e0">routes.</text>
<text xml:space="preserve" text-anchor="middle" x="712.03" y="-706.61" font-family="Helvetica,sans-Serif" font-size="10.00" fill="#e0e0e0">users</text>
</g>
<!-- fastapi&#45;&gt;src_api_routes_users -->
<g id="edge6" class="edge">
<title>fastapi&#45;&gt;src_api_routes_users</title><style>.edge>path:hover{stroke-width:8}</style>
<path fill="none" stroke="#ffffff" d="M283.3,-747.11C339.85,-742.99 354.33,-742.99 410.88,-747.11"/>
</g>
<!-- src_core_exceptions -->
<g id="node24" class="node">
<title>src_core_exceptions</title><style>.edge>path:hover{stroke-width:8}</style>
<ellipse fill="#7a31c4" stroke="#ffffff" cx="411.88" cy="-985.11" rx="44.72" ry="31.11"/>
<text xml:space="preserve" text-anchor="middle" x="411.88" y="-993.61" font-family="Helvetica,sans-Serif" font-size="10.00" fill="#e0e0e0">src.</text>
<text xml:space="preserve" text-anchor="middle" x="411.88" y="-981.61" font-family="Helvetica,sans-Serif" font-size="10.00" fill="#e0e0e0">core.</text>
<text xml:space="preserve" text-anchor="middle" x="411.88" y="-969.61" font-family="Helvetica,sans-Serif" font-size="10.00" fill="#e0e0e0">exceptions</text>
</g>
<!-- fastapi&#45;&gt;src_core_exceptions -->
<g id="edge7" class="edge">
<title>fastapi&#45;&gt;src_core_exceptions</title><style>.edge>path:hover{stroke-width:8}</style>
<path fill="none" stroke="#ffffff" d="M283.3,-926.11C308.57,-940.6 338,-954.4 362.23,-965.01"/>
<polygon fill="#5a5a5a" stroke="#ffffff" points="360.65,-968.14 371.22,-968.9 363.43,-961.71 360.65,-968.14"/>
</g>
<!-- src_main -->
<g id="node27" class="node">
<title>src_main</title><style>.edge>path:hover{stroke-width:8}</style>
<ellipse fill="#4c2e6b" stroke="#ffffff" cx="1173.1" cy="-90.11" rx="32.17" ry="18"/>
<text xml:space="preserve" text-anchor="middle" x="1173.1" y="-86.61" font-family="Helvetica,sans-Serif" font-size="10.00" fill="#e0e0e0">src.main</text>
</g>
<!-- fastapi&#45;&gt;src_main -->
<g id="edge8" class="edge">
<title>fastapi&#45;&gt;src_main</title><style>.edge>path:hover{stroke-width:8}</style>
<path fill="none" stroke="#ffffff" d="M283.3,-926.11C323.71,-949.28 446.08,-934.89 492.61,-937.11"/>
</g>
<!-- fastapi_responses -->
<g id="node2" class="node">
<title>fastapi_responses</title><style>.edge>path:hover{stroke-width:8}</style>
<polygon fill="#5a5a5a" stroke="#ffffff" points="61,-773.11 0,-773.11 0,-737.11 61,-737.11 61,-773.11"/>
<text xml:space="preserve" text-anchor="middle" x="30.5" y="-757.61" font-family="Helvetica,sans-Serif" font-size="10.00" fill="#e0e0e0">fastapi.</text>
<text xml:space="preserve" text-anchor="middle" x="30.5" y="-745.61" font-family="Helvetica,sans-Serif" font-size="10.00" fill="#e0e0e0">responses</text>
</g>
<!-- fastapi_responses&#45;&gt;fastapi -->
<g id="edge9" class="edge">
<title>fastapi_responses&#45;&gt;fastapi</title><style>.edge>path:hover{stroke-width:8}</style>
<path fill="none" stroke="#ffffff" d="M61.42,-755.11C70.52,-755.11 80.63,-755.11 90.17,-755.11"/>
<polygon fill="#5a5a5a" stroke="#ffffff" points="89.89,-758.61 99.89,-755.11 89.89,-751.61 89.89,-758.61"/>
</g>
<!-- fastapi_responses&#45;&gt;src_core_exceptions -->
<g id="edge10" class="edge">
<title>fastapi_responses&#45;&gt;src_core_exceptions</title><style>.edge>path:hover{stroke-width:8}</style>
<path fill="none" stroke="#ffffff" d="M46.06,-773.54C76.63,-810.92 151.44,-895.84 233.44,-940.11 271.84,-960.84 320.09,-972.28 356.58,-978.43"/>
<polygon fill="#5a5a5a" stroke="#ffffff" points="355.58,-981.81 366.01,-979.93 356.68,-974.9 355.58,-981.81"/>
</g>
<!-- fastapi_responses&#45;&gt;src_main -->
<g id="edge11" class="edge">
<title>fastapi_responses&#45;&gt;src_main</title><style>.edge>path:hover{stroke-width:8}</style>
<path fill="none" stroke="#ffffff" d="M32,-736.63C35.41,-629.23 59.35,-90.11 196.44,-90.11 196.44,-90.11 196.44,-90.11 829.46,-90.11 935.58,-90.11 962.93,-76.89 1068.22,-90.11"/>
</g>
<!-- fastapi_security -->
<g id="node3" class="node">
<title>fastapi_security</title><style>.edge>path:hover{stroke-width:8}</style>
<ellipse fill="#b65353" stroke="#ffffff" cx="282.3" cy="-798.11" rx="35.71" ry="22.63"/>
<text xml:space="preserve" text-anchor="middle" x="282.3" y="-800.61" font-family="Helvetica,sans-Serif" font-size="10.00" fill="#e0e0e0">fastapi.</text>
<text xml:space="preserve" text-anchor="middle" x="282.3" y="-788.61" font-family="Helvetica,sans-Serif" font-size="10.00" fill="#e0e0e0">security</text>
</g>
<!-- fastapi_security&#45;&gt;src_api_routes_auth -->
<g id="edge12" class="edge">
<title>fastapi_security&#45;&gt;src_api_routes_auth</title><style>.edge>path:hover{stroke-width:8}</style>
<path fill="none" stroke="#ffffff" d="M318.29,-799.72C360.04,-801.68 431.94,-805.23 493.61,-809.11 554.16,-812.92 624.13,-818.24 667.99,-821.67"/>
<polygon fill="#b65353" stroke="#ffffff" points="667.61,-825.16 677.85,-822.45 668.16,-818.18 667.61,-825.16"/>
</g>
<!-- fastapi_staticfiles -->
<g id="node4" class="node">
<title>fastapi_staticfiles</title><style>.edge>path:hover{stroke-width:8}</style>
<ellipse fill="#b65353" stroke="#ffffff" cx="953.61" cy="-1122.11" rx="41.01" ry="22.63"/>
<text xml:space="preserve" text-anchor="middle" x="953.61" y="-1124.61" font-family="Helvetica,sans-Serif" font-size="10.00" fill="#e0e0e0">fastapi.</text>
<text xml:space="preserve" text-anchor="middle" x="953.61" y="-1112.61" font-family="Helvetica,sans-Serif" font-size="10.00" fill="#e0e0e0">staticfiles</text>
</g>
<!-- fastapi_staticfiles&#45;&gt;src_main -->
<g id="edge13" class="edge">
<title>fastapi_staticfiles&#45;&gt;src_main</title><style>.edge>path:hover{stroke-width:8}</style>
<path fill="none" stroke="#ffffff" d="M980.77,-1104.86C986.61,-1100.41 992.53,-1095.38 997.51,-1090.11 1036.65,-1048.68 1024.24,-1019.37 1068.22,-983.11"/>
</g>
<!-- jose -->
<g id="node5" class="node">
<title>jose</title><style>.edge>path:hover{stroke-width:8}</style>
<ellipse fill="#c2a347" stroke="#ffffff" cx="712.03" cy="-308.11" rx="27" ry="18"/>
<text xml:space="preserve" text-anchor="middle" x="712.03" y="-304.61" font-family="Helvetica,sans-Serif" font-size="10.00" fill="#e0e0e0">jose</text>
</g>
<!-- src_core_security -->
<g id="node26" class="node">
<title>src_core_security</title><style>.edge>path:hover{stroke-width:8}</style>
<ellipse fill="#613a88" stroke="#ffffff" cx="1069.22" cy="-149.11" rx="35.71" ry="31.11"/>
<text xml:space="preserve" text-anchor="middle" x="1069.22" y="-157.61" font-family="Helvetica,sans-Serif" font-size="10.00" fill="#e0e0e0">src.</text>
<text xml:space="preserve" text-anchor="middle" x="1069.22" y="-145.61" font-family="Helvetica,sans-Serif" font-size="10.00" fill="#e0e0e0">core.</text>
<text xml:space="preserve" text-anchor="middle" x="1069.22" y="-133.61" font-family="Helvetica,sans-Serif" font-size="10.00" fill="#e0e0e0">security</text>
</g>
<!-- jose&#45;&gt;src_core_security -->
<g id="edge14" class="edge">
<title>jose&#45;&gt;src_core_security</title><style>.edge>path:hover{stroke-width:8}</style>
<path fill="none" stroke="#ffffff" d="M730.08,-294.19C751.46,-278.18 789.9,-254.08 827.46,-254.11"/>
</g>
<!-- jose_jwt -->
<g id="node6" class="node">
<title>jose_jwt</title><style>.edge>path:hover{stroke-width:8}</style>
<ellipse fill="#b3994c" stroke="#ffffff" cx="712.03" cy="-254.11" rx="29.92" ry="18"/>
<text xml:space="preserve" text-anchor="middle" x="712.03" y="-250.61" font-family="Helvetica,sans-Serif" font-size="10.00" fill="#e0e0e0">jose.jwt</text>
</g>
<!-- jose_jwt&#45;&gt;src_core_security -->
<g id="edge15" class="edge">
<title>jose_jwt&#45;&gt;src_core_security</title><style>.edge>path:hover{stroke-width:8}</style>
<path fill="none" stroke="#ffffff" d="M742.19,-254.1C765.32,-254.09 798.46,-254.08 827.46,-254.11"/>
</g>
<!-- passlib -->
<g id="node7" class="node">
<title>passlib</title><style>.edge>path:hover{stroke-width:8}</style>
<ellipse fill="#85c247" stroke="#ffffff" cx="712.03" cy="-200.11" rx="28.11" ry="18"/>
<text xml:space="preserve" text-anchor="middle" x="712.03" y="-196.61" font-family="Helvetica,sans-Serif" font-size="10.00" fill="#e0e0e0">passlib</text>
</g>
<!-- passlib&#45;&gt;src_core_security -->
<g id="edge16" class="edge">
<title>passlib&#45;&gt;src_core_security</title><style>.edge>path:hover{stroke-width:8}</style>
<path fill="none" stroke="#ffffff" d="M730.08,-214.01C751.46,-229.99 789.9,-254.08 827.46,-254.11"/>
</g>
<!-- passlib_context -->
<g id="node8" class="node">
<title>passlib_context</title><style>.edge>path:hover{stroke-width:8}</style>
<ellipse fill="#80b34c" stroke="#ffffff" cx="712.03" cy="-141.11" rx="35.18" ry="22.63"/>
<text xml:space="preserve" text-anchor="middle" x="712.03" y="-143.61" font-family="Helvetica,sans-Serif" font-size="10.00" fill="#e0e0e0">passlib.</text>
<text xml:space="preserve" text-anchor="middle" x="712.03" y="-131.61" font-family="Helvetica,sans-Serif" font-size="10.00" fill="#e0e0e0">context</text>
</g>
<!-- passlib_context&#45;&gt;src_core_security -->
<g id="edge17" class="edge">
<title>passlib_context&#45;&gt;src_core_security</title><style>.edge>path:hover{stroke-width:8}</style>
<path fill="none" stroke="#ffffff" d="M829.46,-254.11C907.54,-263.45 989.55,-211.81 1034.23,-177.62"/>
<polygon fill="#80b34c" stroke="#ffffff" points="1036.27,-180.46 1041.99,-171.55 1031.96,-174.95 1036.27,-180.46"/>
<path fill="none" stroke="#ffffff" d="M733.03,-159.6C737.72,-164 742.67,-168.69 747.21,-173.11 783.55,-208.44 776.79,-254.06 827.46,-254.11"/>
</g>
<!-- pydantic -->
<g id="node9" class="node">
<title>pydantic</title><style>.edge>path:hover{stroke-width:8}</style>
<ellipse fill="#19e64c" stroke="#ffffff" cx="128.72" cy="-701.11" rx="31.72" ry="18"/>
<text xml:space="preserve" text-anchor="middle" x="128.72" y="-697.61" font-family="Helvetica,sans-Serif" font-size="10.00" fill="#e0e0e0">pydantic</text>
</g>
<!-- pydantic&#45;&gt;src_api_routes_users -->
<g id="edge18" class="edge">
<title>pydantic&#45;&gt;src_api_routes_users</title><style>.edge>path:hover{stroke-width:8}</style>
<path fill="none" stroke="#ffffff" d="M412.88,-747.11C489.71,-752.71 510.63,-698.39 584.23,-721.11"/>
<path fill="none" stroke="#ffffff" d="M283.3,-709.11C342.46,-708.11 351.74,-748.79 410.88,-747.11"/>
</g>
<!-- src_schemas_health -->
<g id="node29" class="node">
<title>src_schemas_health</title><style>.edge>path:hover{stroke-width:8}</style>
<ellipse fill="#7f40c0" stroke="#ffffff" cx="411.88" cy="-326.11" rx="41.54" ry="31.11"/>
<text xml:space="preserve" text-anchor="middle" x="411.88" y="-334.61" font-family="Helvetica,sans-Serif" font-size="10.00" fill="#e0e0e0">src.</text>
<text xml:space="preserve" text-anchor="middle" x="411.88" y="-322.61" font-family="Helvetica,sans-Serif" font-size="10.00" fill="#e0e0e0">schemas.</text>
<text xml:space="preserve" text-anchor="middle" x="411.88" y="-310.61" font-family="Helvetica,sans-Serif" font-size="10.00" fill="#e0e0e0">health</text>
</g>
<!-- pydantic&#45;&gt;src_schemas_health -->
<g id="edge19" class="edge">
<title>pydantic&#45;&gt;src_schemas_health</title><style>.edge>path:hover{stroke-width:8}</style>
<path fill="none" stroke="#ffffff" d="M283.3,-314.11C303.09,-291.5 337.51,-296.09 365.62,-305.47"/>
<polygon fill="#19e64c" stroke="#ffffff" points="364.41,-308.76 375.01,-308.89 366.81,-302.18 364.41,-308.76"/>
</g>
<!-- src_schemas_post -->
<g id="node30" class="node">
<title>src_schemas_post</title><style>.edge>path:hover{stroke-width:8}</style>
<ellipse fill="#7f40c0" stroke="#ffffff" cx="411.88" cy="-208.11" rx="41.54" ry="31.11"/>
<text xml:space="preserve" text-anchor="middle" x="411.88" y="-216.61" font-family="Helvetica,sans-Serif" font-size="10.00" fill="#e0e0e0">src.</text>
<text xml:space="preserve" text-anchor="middle" x="411.88" y="-204.61" font-family="Helvetica,sans-Serif" font-size="10.00" fill="#e0e0e0">schemas.</text>
<text xml:space="preserve" text-anchor="middle" x="411.88" y="-192.61" font-family="Helvetica,sans-Serif" font-size="10.00" fill="#e0e0e0">post</text>
</g>
<!-- pydantic&#45;&gt;src_schemas_post -->
<g id="edge20" class="edge">
<title>pydantic&#45;&gt;src_schemas_post</title><style>.edge>path:hover{stroke-width:8}</style>
<path fill="none" stroke="#ffffff" d="M157.12,-709.63C169.92,-711.96 184.86,-712.19 196.44,-705.11"/>
<path fill="none" stroke="#ffffff" d="M283.3,-314.11C309.59,-284.07 344.83,-255.47 371.61,-235.57"/>
<polygon fill="#19e64c" stroke="#ffffff" points="373.49,-238.54 379.48,-229.8 369.35,-232.89 373.49,-238.54"/>
<path fill="none" stroke="#ffffff" d="M197.44,-705.11C267.37,-662.39 187.04,-405.66 233.44,-338.11 246.91,-318.5 265.63,-332.02 281.3,-314.11"/>
</g>
<!-- src_schemas_root -->
<g id="node31" class="node">
<title>src_schemas_root</title><style>.edge>path:hover{stroke-width:8}</style>
<ellipse fill="#7f40c0" stroke="#ffffff" cx="411.88" cy="-650.11" rx="41.54" ry="31.11"/>
<text xml:space="preserve" text-anchor="middle" x="411.88" y="-658.61" font-family="Helvetica,sans-Serif" font-size="10.00" fill="#e0e0e0">src.</text>
<text xml:space="preserve" text-anchor="middle" x="411.88" y="-646.61" font-family="Helvetica,sans-Serif" font-size="10.00" fill="#e0e0e0">schemas.</text>
<text xml:space="preserve" text-anchor="middle" x="411.88" y="-634.61" font-family="Helvetica,sans-Serif" font-size="10.00" fill="#e0e0e0">root</text>
</g>
<!-- pydantic&#45;&gt;src_schemas_root -->
<g id="edge21" class="edge">
<title>pydantic&#45;&gt;src_schemas_root</title><style>.edge>path:hover{stroke-width:8}</style>
<path fill="none" stroke="#ffffff" d="M283.3,-709.11C315.25,-708.57 347.9,-693.14 372.17,-678.2"/>
<polygon fill="#19e64c" stroke="#ffffff" points="373.9,-681.25 380.43,-672.91 370.12,-675.36 373.9,-681.25"/>
<path fill="none" stroke="#ffffff" d="M197.44,-705.11C229.28,-685.66 243.99,-709.75 281.3,-709.11"/>
</g>
<!-- pydantic_settings -->
<g id="node10" class="node">
<title>pydantic_settings</title><style>.edge>path:hover{stroke-width:8}</style>
<ellipse fill="#53b6b6" stroke="#ffffff" cx="585.23" cy="-31.11" rx="55.62" ry="18"/>
<text xml:space="preserve" text-anchor="middle" x="585.23" y="-27.61" font-family="Helvetica,sans-Serif" font-size="10.00" fill="#e0e0e0">pydantic_settings</text>
</g>
<!-- src_core_config -->
<g id="node23" class="node">
<title>src_core_config</title><style>.edge>path:hover{stroke-width:8}</style>
<ellipse fill="#7f33cc" stroke="#ffffff" cx="953.61" cy="-31.11" rx="29.88" ry="31.11"/>
<text xml:space="preserve" text-anchor="middle" x="953.61" y="-39.61" font-family="Helvetica,sans-Serif" font-size="10.00" fill="#e0e0e0">src.</text>
<text xml:space="preserve" text-anchor="middle" x="953.61" y="-27.61" font-family="Helvetica,sans-Serif" font-size="10.00" fill="#e0e0e0">core.</text>
<text xml:space="preserve" text-anchor="middle" x="953.61" y="-15.61" font-family="Helvetica,sans-Serif" font-size="10.00" fill="#e0e0e0">config</text>
</g>
<!-- pydantic_settings&#45;&gt;src_core_config -->
<g id="edge22" class="edge">
<title>pydantic_settings&#45;&gt;src_core_config</title><style>.edge>path:hover{stroke-width:8}</style>
<path fill="none" stroke="#ffffff" d="M641.08,-31.11C715.47,-31.11 846.59,-31.11 912.46,-31.11"/>
<polygon fill="#53b6b6" stroke="#ffffff" points="912.08,-34.61 922.08,-31.11 912.08,-27.61 912.08,-34.61"/>
</g>
<!-- sqlalchemy -->
<g id="node11" class="node">
<title>sqlalchemy</title><style>.edge>path:hover{stroke-width:8}</style>
<ellipse fill="#2653d9" stroke="#ffffff" cx="282.3" cy="-398.11" rx="39.39" ry="18"/>
<text xml:space="preserve" text-anchor="middle" x="282.3" y="-394.61" font-family="Helvetica,sans-Serif" font-size="10.00" fill="#e0e0e0">sqlalchemy</text>
</g>
<!-- sqlalchemy&#45;&gt;src_api_routes_posts -->
<g id="edge23" class="edge">
<title>sqlalchemy&#45;&gt;src_api_routes_posts</title><style>.edge>path:hover{stroke-width:8}</style>
<path fill="none" stroke="#ffffff" d="M320.77,-393.81C356.29,-389.12 410.88,-380.32 456.61,-366.11 515.93,-347.68 523.07,-298.25 584.23,-309.11"/>
</g>
<!-- sqlalchemy&#45;&gt;src_api_routes_users -->
<g id="edge24" class="edge">
<title>sqlalchemy&#45;&gt;src_api_routes_users</title><style>.edge>path:hover{stroke-width:8}</style>
<path fill="none" stroke="#ffffff" d="M311.58,-410.46C318.56,-414.42 325.62,-419.32 331.16,-425.11 355.61,-450.68 340.73,-472.59 367.16,-496.11 398.81,-524.29 419.6,-508.48 456.61,-529.11 543.06,-577.31 631.25,-653.65 677.69,-696.41"/>
<polygon fill="#2653d9" stroke="#ffffff" points="675.04,-698.73 684.75,-702.96 679.8,-693.6 675.04,-698.73"/>
</g>
<!-- sqlalchemy_ext -->
<g id="node12" class="node">
<title>sqlalchemy_ext</title><style>.edge>path:hover{stroke-width:8}</style>
<ellipse fill="#405fc0" stroke="#ffffff" cx="282.3" cy="-452.11" rx="48.86" ry="18"/>
<text xml:space="preserve" text-anchor="middle" x="282.3" y="-448.61" font-family="Helvetica,sans-Serif" font-size="10.00" fill="#e0e0e0">sqlalchemy.ext</text>
</g>
<!-- sqlalchemy_ext&#45;&gt;src_api_routes_posts -->
<g id="edge25" class="edge">
<title>sqlalchemy_ext&#45;&gt;src_api_routes_posts</title><style>.edge>path:hover{stroke-width:8}</style>
<path fill="none" stroke="#ffffff" d="M324.68,-442.73C349.65,-437.07 382.1,-429.69 410.88,-423.11"/>
<path fill="none" stroke="#ffffff" d="M412.88,-423.11C502.39,-402.65 609.64,-391.9 668.01,-387.17"/>
<polygon fill="#405fc0" stroke="#ffffff" points="668.15,-390.67 677.84,-386.4 667.6,-383.69 668.15,-390.67"/>
</g>
<!-- sqlalchemy_ext&#45;&gt;src_api_routes_users -->
<g id="edge26" class="edge">
<title>sqlalchemy_ext&#45;&gt;src_api_routes_users</title><style>.edge>path:hover{stroke-width:8}</style>
<path fill="none" stroke="#ffffff" d="M313.25,-466.36C319.51,-470.05 325.83,-474.34 331.16,-479.11 351.56,-497.38 345.77,-512.02 367.16,-529.11 400.9,-556.08 421.97,-541.31 456.61,-567.11 527.89,-620.22 499.71,-693.57 584.23,-721.11"/>
<path fill="none" stroke="#ffffff" d="M586.23,-721.11C612.52,-729.23 643.37,-731.02 667.82,-730.77"/>
<polygon fill="#405fc0" stroke="#ffffff" points="667.84,-734.27 677.75,-730.53 667.67,-727.27 667.84,-734.27"/>
</g>
<!-- sqlalchemy_ext_asyncio -->
<g id="node13" class="node">
<title>sqlalchemy_ext_asyncio</title><style>.edge>path:hover{stroke-width:8}</style>
<ellipse fill="#4766c2" stroke="#ffffff" cx="282.3" cy="-519.11" rx="47.91" ry="31.11"/>
<text xml:space="preserve" text-anchor="middle" x="282.3" y="-527.61" font-family="Helvetica,sans-Serif" font-size="10.00" fill="#e0e0e0">sqlalchemy.</text>
<text xml:space="preserve" text-anchor="middle" x="282.3" y="-515.61" font-family="Helvetica,sans-Serif" font-size="10.00" fill="#e0e0e0">ext.</text>
<text xml:space="preserve" text-anchor="middle" x="282.3" y="-503.61" font-family="Helvetica,sans-Serif" font-size="10.00" fill="#e0e0e0">asyncio</text>
</g>
<!-- sqlalchemy_ext_asyncio&#45;&gt;src_api_routes_posts -->
<g id="edge27" class="edge">
<title>sqlalchemy_ext_asyncio&#45;&gt;src_api_routes_posts</title><style>.edge>path:hover{stroke-width:8}</style>
<path fill="none" stroke="#ffffff" d="M313.07,-495.04C319.15,-489.9 325.44,-484.41 331.16,-479.11 347.98,-463.51 348.28,-455.15 367.16,-442.11 384.59,-430.07 390.76,-429.74 410.88,-423.11"/>
</g>
<!-- sqlalchemy_ext_asyncio&#45;&gt;src_api_routes_users -->
<g id="edge28" class="edge">
<title>sqlalchemy_ext_asyncio&#45;&gt;src_api_routes_users</title><style>.edge>path:hover{stroke-width:8}</style>
<path fill="none" stroke="#ffffff" d="M318.49,-540C333.37,-548.64 350.97,-558.6 367.16,-567.11 406.2,-587.64 419.76,-585.87 456.61,-610.11 519.41,-651.43 511.91,-700.61 584.23,-721.11"/>
</g>
<!-- src_api -->
<g id="node14" class="node">
<title>src_api</title><style>.edge>path:hover{stroke-width:8}</style>
<ellipse fill="#852fdb" stroke="#ffffff" cx="1069.22" cy="-44.11" rx="27.21" ry="18"/>
<text xml:space="preserve" text-anchor="middle" x="1069.22" y="-40.61" font-family="Helvetica,sans-Serif" font-size="10.00" fill="#e0e0e0">src.api</text>
</g>
<!-- src_api&#45;&gt;src_main -->
<g id="edge29" class="edge">
<title>src_api&#45;&gt;src_main</title><style>.edge>path:hover{stroke-width:8}</style>
<path fill="none" stroke="#ffffff" d="M1092.32,-54.09C1105.32,-59.96 1122.05,-67.52 1136.83,-74.19"/>
<polygon fill="#852fdb" stroke="#ffffff" points="1135.24,-77.31 1145.79,-78.24 1138.12,-70.93 1135.24,-77.31"/>
</g>
<!-- src_api_router&#45;&gt;src_main -->
<g id="edge30" class="edge">
<title>src_api_router&#45;&gt;src_main</title><style>.edge>path:hover{stroke-width:8}</style>
<path fill="none" stroke="#ffffff" d="M960.46,-797.15C978.65,-851.86 1034.99,-1010.51 1068.22,-983.11"/>
<path fill="none" stroke="#ffffff" d="M1070.22,-983.11C1138.58,-926.75 1165.83,-267.54 1171.11,-119.5"/>
<polygon fill="#572b82" stroke="#ffffff" points="1174.6,-119.88 1171.45,-109.76 1167.6,-119.64 1174.6,-119.88"/>
</g>
<!-- src_api_routes -->
<g id="node16" class="node">
<title>src_api_routes</title><style>.edge>path:hover{stroke-width:8}</style>
<ellipse fill="#8547c2" stroke="#ffffff" cx="828.46" cy="-779.11" rx="45.25" ry="18"/>
<text xml:space="preserve" text-anchor="middle" x="828.46" y="-775.61" font-family="Helvetica,sans-Serif" font-size="10.00" fill="#e0e0e0">src.api.routes</text>
</g>
<!-- src_api_routes&#45;&gt;src_api_router -->
<g id="edge31" class="edge">
<title>src_api_routes&#45;&gt;src_api_router</title><style>.edge>path:hover{stroke-width:8}</style>
<path fill="none" stroke="#ffffff" d="M873.92,-779.11C881.79,-779.11 890.06,-779.11 898.17,-779.11"/>
<polygon fill="#8547c2" stroke="#ffffff" points="897.94,-782.61 907.94,-779.11 897.94,-775.61 897.94,-782.61"/>
</g>
<!-- src_api_routes_auth&#45;&gt;src_api_router -->
<g id="edge32" class="edge">
<title>src_api_routes_auth&#45;&gt;src_api_router</title><style>.edge>path:hover{stroke-width:8}</style>
<path fill="none" stroke="#ffffff" d="M744.67,-823.57C767.69,-822.82 799.57,-822.56 827.46,-825.11"/>
</g>
<!-- src_api_routes_health&#45;&gt;src_api_router -->
<g id="edge33" class="edge">
<title>src_api_routes_health&#45;&gt;src_api_router</title><style>.edge>path:hover{stroke-width:8}</style>
<path fill="none" stroke="#ffffff" d="M743.76,-470.56C769.75,-463.79 806.08,-459.79 827.46,-481.11"/>
</g>
<!-- src_api_routes_posts&#45;&gt;src_api_router -->
<g id="edge34" class="edge">
<title>src_api_routes_posts&#45;&gt;src_api_router</title><style>.edge>path:hover{stroke-width:8}</style>
<path fill="none" stroke="#ffffff" d="M829.46,-481.11C906.97,-558.4 937.92,-691.47 948.22,-750.02"/>
<polygon fill="#613091" stroke="#ffffff" points="944.71,-750.24 949.81,-759.53 951.61,-749.09 944.71,-750.24"/>
<path fill="none" stroke="#ffffff" d="M740,-404.92C763.88,-423.83 799.25,-452.98 827.46,-481.11"/>
</g>
<!-- src_api_routes_root&#45;&gt;src_api_router -->
<g id="edge35" class="edge">
<title>src_api_routes_root&#45;&gt;src_api_router</title><style>.edge>path:hover{stroke-width:8}</style>
<path fill="none" stroke="#ffffff" d="M829.46,-825.11C861.68,-828.06 895.98,-813.64 920.17,-800.18"/>
<polygon fill="#7038a8" stroke="#ffffff" points="921.7,-803.35 928.58,-795.29 918.17,-797.3 921.7,-803.35"/>
<path fill="none" stroke="#ffffff" d="M725.82,-614.43C732.43,-633.6 740.51,-657.55 747.21,-679.11 764.62,-735.14 744.5,-762.03 783.21,-806.11 797.34,-822.19 806.15,-823.16 827.46,-825.11"/>
</g>
<!-- src_api_routes_users&#45;&gt;src_api_router -->
<g id="edge36" class="edge">
<title>src_api_routes_users&#45;&gt;src_api_router</title><style>.edge>path:hover{stroke-width:8}</style>
<path fill="none" stroke="#ffffff" d="M734.21,-757.3C746.99,-773.33 764.41,-792.64 783.21,-806.11 800.61,-818.58 806.15,-823.16 827.46,-825.11"/>
</g>
<!-- src_core -->
<g id="node22" class="node">
<title>src_core</title><style>.edge>path:hover{stroke-width:8}</style>
<ellipse fill="#852fdb" stroke="#ffffff" cx="411.88" cy="-880.11" rx="30.82" ry="18"/>
<text xml:space="preserve" text-anchor="middle" x="411.88" y="-876.61" font-family="Helvetica,sans-Serif" font-size="10.00" fill="#e0e0e0">src.core</text>
</g>
<!-- src_core&#45;&gt;src_api_routes_users -->
<g id="edge37" class="edge">
<title>src_core&#45;&gt;src_api_routes_users</title><style>.edge>path:hover{stroke-width:8}</style>
<path fill="none" stroke="#ffffff" d="M493.61,-861.11C556.18,-822.19 629.35,-777.63 672.85,-751.23"/>
<polygon fill="#852fdb" stroke="#ffffff" points="674.43,-754.37 681.16,-746.19 670.8,-748.38 674.43,-754.37"/>
<path fill="none" stroke="#ffffff" d="M442.93,-878.61C458.99,-876.5 478.33,-871.72 492.61,-861.11"/>
</g>
<!-- src_core&#45;&gt;src_main -->
<g id="edge38" class="edge">
<title>src_core&#45;&gt;src_main</title><style>.edge>path:hover{stroke-width:8}</style>
<path fill="none" stroke="#ffffff" d="M432.01,-894.18C455.01,-911.03 490.77,-937.04 492.61,-937.11"/>
<path fill="none" stroke="#ffffff" d="M493.61,-937.11C590.16,-941.07 614.4,-937.11 711.03,-937.11 711.03,-937.11 711.03,-937.11 829.46,-937.11 904.63,-937.11 924.48,-938.34 997.51,-956.11 1030.19,-964.07 1042.26,-1004.51 1068.22,-983.11"/>
</g>
<!-- src_core_config&#45;&gt;src_core_security -->
<g id="edge39" class="edge">
<title>src_core_config&#45;&gt;src_core_security</title><style>.edge>path:hover{stroke-width:8}</style>
<path fill="none" stroke="#ffffff" d="M975.45,-52.76C992.9,-70.88 1018.05,-97 1037.76,-117.48"/>
<polygon fill="#7f33cc" stroke="#ffffff" points="1035.06,-119.72 1044.51,-124.49 1040.1,-114.86 1035.06,-119.72"/>
</g>
<!-- src_core_config&#45;&gt;src_main -->
<g id="edge40" class="edge">
<title>src_core_config&#45;&gt;src_main</title><style>.edge>path:hover{stroke-width:8}</style>
<path fill="none" stroke="#ffffff" d="M977.75,-49.41C999.6,-65.1 1034.04,-85.82 1068.22,-90.11"/>
<path fill="none" stroke="#ffffff" d="M1070.22,-90.11C1089.51,-92.54 1111.02,-92.88 1129.28,-92.48"/>
<polygon fill="#7f33cc" stroke="#ffffff" points="1129.36,-95.98 1139.25,-92.17 1129.14,-88.98 1129.36,-95.98"/>
</g>
<!-- src_core_exceptions&#45;&gt;src_api_routes_users -->
<g id="edge41" class="edge">
<title>src_core_exceptions&#45;&gt;src_api_routes_users</title><style>.edge>path:hover{stroke-width:8}</style>
<path fill="none" stroke="#ffffff" d="M428.55,-955.78C446.41,-923.33 475.35,-873.94 492.61,-861.11"/>
</g>
<!-- src_core_exceptions&#45;&gt;src_main -->
<g id="edge42" class="edge">
<title>src_core_exceptions&#45;&gt;src_main</title><style>.edge>path:hover{stroke-width:8}</style>
<path fill="none" stroke="#ffffff" d="M438.3,-959.51C452.95,-947.57 472.44,-936.15 492.61,-937.11"/>
</g>
<!-- src_core_logging -->
<g id="node25" class="node">
<title>src_core_logging</title><style>.edge>path:hover{stroke-width:8}</style>
<ellipse fill="#8547c2" stroke="#ffffff" cx="953.61" cy="-1050.11" rx="33.06" ry="31.11"/>
<text xml:space="preserve" text-anchor="middle" x="953.61" y="-1058.61" font-family="Helvetica,sans-Serif" font-size="10.00" fill="#e0e0e0">src.</text>
<text xml:space="preserve" text-anchor="middle" x="953.61" y="-1046.61" font-family="Helvetica,sans-Serif" font-size="10.00" fill="#e0e0e0">core.</text>
<text xml:space="preserve" text-anchor="middle" x="953.61" y="-1034.61" font-family="Helvetica,sans-Serif" font-size="10.00" fill="#e0e0e0">logging</text>
</g>
<!-- src_core_logging&#45;&gt;src_main -->
<g id="edge43" class="edge">
<title>src_core_logging&#45;&gt;src_main</title><style>.edge>path:hover{stroke-width:8}</style>
<path fill="none" stroke="#ffffff" d="M983.28,-1036.4C1007.27,-1024.21 1041.72,-1004.96 1068.22,-983.11"/>
</g>
<!-- src_schemas -->
<g id="node28" class="node">
<title>src_schemas</title><style>.edge>path:hover{stroke-width:8}</style>
<ellipse fill="#852fdb" stroke="#ffffff" cx="411.88" cy="-469.11" rx="43.45" ry="18"/>
<text xml:space="preserve" text-anchor="middle" x="411.88" y="-465.61" font-family="Helvetica,sans-Serif" font-size="10.00" fill="#e0e0e0">src.schemas</text>
</g>
<!-- src_schemas&#45;&gt;src_api_routes_health -->
<g id="edge44" class="edge">
<title>src_schemas&#45;&gt;src_api_routes_health</title><style>.edge>path:hover{stroke-width:8}</style>
<path fill="none" stroke="#ffffff" d="M586.23,-481.11C613.42,-481.11 643.93,-481.11 667.99,-481.11"/>
<polygon fill="#852fdb" stroke="#ffffff" points="667.72,-484.61 677.72,-481.11 667.72,-477.61 667.72,-484.61"/>
</g>
<!-- src_schemas&#45;&gt;src_api_routes_posts -->
<g id="edge45" class="edge">
<title>src_schemas&#45;&gt;src_api_routes_posts</title><style>.edge>path:hover{stroke-width:8}</style>
<path fill="none" stroke="#ffffff" d="M586.23,-481.11C625.93,-481.11 660.61,-450.14 683.27,-423.2"/>
<polygon fill="#852fdb" stroke="#ffffff" points="685.97,-425.43 689.53,-415.45 680.52,-421.03 685.97,-425.43"/>
<path fill="none" stroke="#ffffff" d="M454.38,-473.65C489.04,-477.05 539.8,-481.11 584.23,-481.11"/>
</g>
<!-- src_schemas&#45;&gt;src_api_routes_root -->
<g id="edge46" class="edge">
<title>src_schemas&#45;&gt;src_api_routes_root</title><style>.edge>path:hover{stroke-width:8}</style>
<path fill="none" stroke="#ffffff" d="M586.23,-481.11C625.79,-481.98 660.38,-512.65 683.05,-539.27"/>
<polygon fill="#852fdb" stroke="#ffffff" points="680.27,-541.4 689.31,-546.92 685.69,-536.96 680.27,-541.4"/>
</g>
<!-- src_schemas_health&#45;&gt;src_api_routes_health -->
<g id="edge47" class="edge">
<title>src_schemas_health&#45;&gt;src_api_routes_health</title><style>.edge>path:hover{stroke-width:8}</style>
<path fill="none" stroke="#ffffff" d="M446.51,-343.59C501.96,-372.42 612.34,-429.8 671.46,-460.54"/>
<polygon fill="#7f40c0" stroke="#ffffff" points="669.71,-463.57 680.19,-465.08 672.94,-457.36 669.71,-463.57"/>
</g>
<!-- src_schemas_post&#45;&gt;src_api_routes_posts -->
<g id="edge48" class="edge">
<title>src_schemas_post&#45;&gt;src_api_routes_posts</title><style>.edge>path:hover{stroke-width:8}</style>
<path fill="none" stroke="#ffffff" d="M493.61,-267.11C534.7,-283.91 540.52,-301.35 584.23,-309.11"/>
<path fill="none" stroke="#ffffff" d="M438.5,-232.25C453.21,-244.71 472.68,-258.97 492.61,-267.11"/>
<path fill="none" stroke="#ffffff" d="M586.23,-309.11C620.07,-315.12 653.16,-335.9 676.76,-354.07"/>
<polygon fill="#7f40c0" stroke="#ffffff" points="674.45,-356.7 684.45,-360.18 678.8,-351.22 674.45,-356.7"/>
</g>
<!-- src_schemas_root&#45;&gt;src_api_routes_root -->
<g id="edge49" class="edge">
<title>src_schemas_root&#45;&gt;src_api_routes_root</title><style>.edge>path:hover{stroke-width:8}</style>
<path fill="none" stroke="#ffffff" d="M451.86,-640.7C507.95,-627.16 611,-602.27 668.83,-588.3"/>
<polygon fill="#7f40c0" stroke="#ffffff" points="669.39,-591.77 678.29,-586.02 667.75,-584.96 669.39,-591.77"/>
</g>
<!-- uvicorn -->
<g id="node32" class="node">
<title>uvicorn</title><style>.edge>path:hover{stroke-width:8}</style>
<ellipse fill="#c0409f" stroke="#ffffff" cx="953.61" cy="-983.11" rx="28.56" ry="18"/>
<text xml:space="preserve" text-anchor="middle" x="953.61" y="-979.61" font-family="Helvetica,sans-Serif" font-size="10.00" fill="#e0e0e0">uvicorn</text>
</g>
<!-- uvicorn&#45;&gt;src_main -->
<g id="edge50" class="edge">
<title>uvicorn&#45;&gt;src_main</title><style>.edge>path:hover{stroke-width:8}</style>
<path fill="none" stroke="#ffffff" d="M979.34,-991.33C1004.62,-998.04 1043.56,-1003.44 1068.22,-983.11"/>
</g>
</g>
</svg>

