<?xml version="1.0" encoding="UTF-8" standalone="no"?>
<!DOCTYPE svg PUBLIC "-//W3C//DTD SVG 1.1//EN"
 "http://www.w3.org/Graphics/SVG/1.1/DTD/svg11.dtd">
<!-- Generated by graphviz version 15.0.0 (20260523.1842)
 -->
<!-- Title: G Pages: 1 -->
<svg style="background-color:#141414" width="1626pt" height="667pt"
 viewBox="0.00 0.00 1626.00 667.00" xmlns="http://www.w3.org/2000/svg" xmlns:xlink="http://www.w3.org/1999/xlink">
<g id="graph0" class="graph" transform="scale(1 1) rotate(0) translate(4 663.31)">
<title>G</title><style>.edge>path:hover{stroke-width:8}</style>
<polygon fill="#141414" stroke="none" points="-4,4 -4,-663.31 1622.49,-663.31 1622.49,4 -4,4"/>
<!-- annotated_doc -->
<g id="node1" class="node">
<title>annotated_doc</title><style>.edge>path:hover{stroke-width:8}</style>
<polygon fill="#f90606" stroke="#ffffff" points="1065.25,-320.31 1062.25,-324.31 1041.25,-324.31 1038.25,-320.31 985.5,-320.31 985.5,-284.31 1065.25,-284.31 1065.25,-320.31"/>
<text xml:space="preserve" text-anchor="middle" x="1025.38" y="-298.81" font-family="Helvetica,sans-Serif" font-size="10.00" fill="#e0e0e0">annotated_doc</text>
</g>
<!-- fastapi -->
<g id="node7" class="node">
<title>fastapi</title><style>.edge>path:hover{stroke-width:8}</style>
<polygon fill="#5a5a5a" stroke="#ffffff" points="1264.5,-188.31 1261.5,-192.31 1240.5,-192.31 1237.5,-188.31 1210.5,-188.31 1210.5,-152.31 1264.5,-152.31 1264.5,-188.31"/>
<text xml:space="preserve" text-anchor="middle" x="1237.5" y="-166.81" font-family="Helvetica,sans-Serif" font-size="10.00" fill="#e0e0e0">fastapi</text>
</g>
<!-- annotated_doc&#45;&gt;fastapi -->
<g id="edge1" class="edge">
<title>annotated_doc&#45;&gt;fastapi</title><style>.edge>path:hover{stroke-width:8}</style>
<path fill="none" stroke="#ffffff" d="M1065.31,-284.9C1084.09,-276.41 1106.91,-265.97 1127.25,-256.31"/>
</g>
<!-- annotated_types -->
<g id="node2" class="node">
<title>annotated_types</title><style>.edge>path:hover{stroke-width:8}</style>
<polygon fill="#d94e26" stroke="#ffffff" points="308.75,-345.31 305.75,-349.31 284.75,-349.31 281.75,-345.31 220.75,-345.31 220.75,-309.31 308.75,-309.31 308.75,-345.31"/>
<text xml:space="preserve" text-anchor="middle" x="264.75" y="-323.81" font-family="Helvetica,sans-Serif" font-size="10.00" fill="#e0e0e0">annotated_types</text>
</g>
<!-- pydantic -->
<g id="node15" class="node">
<title>pydantic</title><style>.edge>path:hover{stroke-width:8}</style>
<polygon fill="#5a5a5a" stroke="#ffffff" points="949.5,-404.31 946.5,-408.31 925.5,-408.31 922.5,-404.31 895.5,-404.31 895.5,-368.31 949.5,-368.31 949.5,-404.31"/>
<text xml:space="preserve" text-anchor="middle" x="922.5" y="-382.81" font-family="Helvetica,sans-Serif" font-size="10.00" fill="#e0e0e0">pydantic</text>
</g>
<!-- annotated_types&#45;&gt;pydantic -->
<g id="edge2" class="edge">
<title>annotated_types&#45;&gt;pydantic</title><style>.edge>path:hover{stroke-width:8}</style>
<path fill="none" stroke="#ffffff" d="M581.75,-335.31C632.59,-344.78 637.19,-375.94 688.63,-381.31"/>
<path fill="none" stroke="#ffffff" d="M309.12,-324.12C370.12,-320.6 484.46,-317.55 579.75,-335.31"/>
<path fill="none" stroke="#ffffff" d="M690.63,-381.31C745.38,-387.03 760.63,-369.95 814.5,-381.31"/>
</g>
<!-- anyio -->
<g id="node3" class="node">
<title>anyio</title><style>.edge>path:hover{stroke-width:8}</style>
<polygon fill="#5a5a5a" stroke="#ffffff" points="949.5,-60.31 946.5,-64.31 925.5,-64.31 922.5,-60.31 895.5,-60.31 895.5,-24.31 949.5,-24.31 949.5,-60.31"/>
<text xml:space="preserve" text-anchor="middle" x="922.5" y="-38.81" font-family="Helvetica,sans-Serif" font-size="10.00" fill="#e0e0e0">anyio</text>
</g>
<!-- anyio&#45;&gt;fastapi -->
<g id="edge3" class="edge">
<title>anyio&#45;&gt;fastapi</title><style>.edge>path:hover{stroke-width:8}</style>
<path fill="none" stroke="#ffffff" d="M949.84,-38.16C970.32,-35.68 999.37,-33.8 1024.38,-38.31"/>
<path fill="none" stroke="#ffffff" d="M1026.38,-38.31C1070.5,-46.27 1088.7,-15.42 1127.25,-38.31"/>
</g>
<!-- starlette -->
<g id="node23" class="node">
<title>starlette</title><style>.edge>path:hover{stroke-width:8}</style>
<polygon fill="#df10f9" stroke="#ffffff" points="1155.25,-142.31 1152.25,-146.31 1131.25,-146.31 1128.25,-142.31 1101.25,-142.31 1101.25,-106.31 1155.25,-106.31 1155.25,-142.31"/>
<text xml:space="preserve" text-anchor="middle" x="1128.25" y="-120.81" font-family="Helvetica,sans-Serif" font-size="10.00" fill="#e0e0e0">starlette</text>
</g>
<!-- anyio&#45;&gt;starlette -->
<g id="edge4" class="edge">
<title>anyio&#45;&gt;starlette</title><style>.edge>path:hover{stroke-width:8}</style>
<path fill="none" stroke="#ffffff" d="M1026.38,-38.31C1061.21,-44.59 1090.6,-74.37 1108.51,-97.14"/>
<polygon fill="#5a5a5a" stroke="#ffffff" points="1105.52,-98.99 1114.34,-104.87 1111.11,-94.78 1105.52,-98.99"/>
</g>
<!-- click -->
<g id="node4" class="node">
<title>click</title><style>.edge>path:hover{stroke-width:8}</style>
<polygon fill="#5a5a5a" stroke="#ffffff" points="407.5,-659.31 404.5,-663.31 383.5,-663.31 380.5,-659.31 353.5,-659.31 353.5,-623.31 407.5,-623.31 407.5,-659.31"/>
<text xml:space="preserve" text-anchor="middle" x="380.5" y="-637.81" font-family="Helvetica,sans-Serif" font-size="10.00" fill="#e0e0e0">click</text>
</g>
<!-- uvicorn -->
<g id="node27" class="node">
<title>uvicorn</title><style>.edge>path:hover{stroke-width:8}</style>
<polygon fill="#5a5a5a" stroke="#ffffff" points="842.5,-572.31 839.5,-576.31 818.5,-576.31 815.5,-572.31 788.5,-572.31 788.5,-536.31 842.5,-536.31 842.5,-572.31"/>
<text xml:space="preserve" text-anchor="middle" x="815.5" y="-550.81" font-family="Helvetica,sans-Serif" font-size="10.00" fill="#e0e0e0">uvicorn</text>
</g>
<!-- click&#45;&gt;uvicorn -->
<g id="edge5" class="edge">
<title>click&#45;&gt;uvicorn</title><style>.edge>path:hover{stroke-width:8}</style>
<path fill="none" stroke="#ffffff" d="M407.62,-623.6C432.36,-607.56 468.03,-586.55 484,-587.31"/>
</g>
<!-- colorama -->
<g id="node5" class="node">
<title>colorama</title><style>.edge>path:hover{stroke-width:8}</style>
<polygon fill="#5a5a5a" stroke="#ffffff" points="165.25,-636.31 162.25,-640.31 141.25,-640.31 138.25,-636.31 109.5,-636.31 109.5,-600.31 165.25,-600.31 165.25,-636.31"/>
<text xml:space="preserve" text-anchor="middle" x="137.38" y="-614.81" font-family="Helvetica,sans-Serif" font-size="10.00" fill="#e0e0e0">colorama</text>
</g>
<!-- colorama&#45;&gt;click -->
<g id="edge6" class="edge">
<title>colorama&#45;&gt;click</title><style>.edge>path:hover{stroke-width:8}</style>
<path fill="none" stroke="#ffffff" d="M165.52,-611.41C192.13,-606.17 233.07,-602.3 263.75,-618.31"/>
</g>
<!-- dotenv -->
<g id="node6" class="node">
<title>dotenv</title><style>.edge>path:hover{stroke-width:8}</style>
<polygon fill="#b4c431" stroke="#ffffff" points="607.75,-453.31 604.75,-457.31 583.75,-457.31 580.75,-453.31 553.75,-453.31 553.75,-417.31 607.75,-417.31 607.75,-453.31"/>
<text xml:space="preserve" text-anchor="middle" x="580.75" y="-431.81" font-family="Helvetica,sans-Serif" font-size="10.00" fill="#e0e0e0">dotenv</text>
</g>
<!-- dotenv&#45;&gt;pydantic -->
<g id="edge7" class="edge">
<title>dotenv&#45;&gt;pydantic</title><style>.edge>path:hover{stroke-width:8}</style>
<path fill="none" stroke="#ffffff" d="M608.02,-436.55C651.24,-438.25 739.96,-440.23 814.5,-432.31"/>
<path fill="none" stroke="#ffffff" d="M816.5,-432.31C840.6,-429.22 865.58,-418.62 885.14,-408.37"/>
<polygon fill="#b4c431" stroke="#ffffff" points="886.68,-411.51 893.79,-403.65 883.33,-405.37 886.68,-411.51"/>
</g>
<!-- pydantic_settings -->
<g id="node17" class="node">
<title>pydantic_settings</title><style>.edge>path:hover{stroke-width:8}</style>
<polygon fill="#5a5a5a" stroke="#ffffff" points="1283.75,-427.31 1280.75,-431.31 1259.75,-431.31 1256.75,-427.31 1191.25,-427.31 1191.25,-391.31 1283.75,-391.31 1283.75,-427.31"/>
<text xml:space="preserve" text-anchor="middle" x="1237.5" y="-405.81" font-family="Helvetica,sans-Serif" font-size="10.00" fill="#e0e0e0">pydantic_settings</text>
</g>
<!-- dotenv&#45;&gt;pydantic_settings -->
<g id="edge8" class="edge">
<title>dotenv&#45;&gt;pydantic_settings</title><style>.edge>path:hover{stroke-width:8}</style>
<path fill="none" stroke="#ffffff" d="M816.5,-432.31C926.67,-418.17 955.58,-425.91 1065.25,-408.31 1093.14,-403.83 1099.03,-392.92 1127.25,-394.31"/>
</g>
<!-- dotenv&#45;&gt;uvicorn -->
<g id="edge9" class="edge">
<title>dotenv&#45;&gt;uvicorn</title><style>.edge>path:hover{stroke-width:8}</style>
<path fill="none" stroke="#ffffff" d="M690.63,-587.31C720.4,-592.62 753.47,-582.99 777.94,-572.79"/>
<polygon fill="#b4c431" stroke="#ffffff" points="779.08,-576.12 786.82,-568.88 776.26,-569.71 779.08,-576.12"/>
<path fill="none" stroke="#ffffff" d="M586.12,-453.74C596.35,-491.73 625.9,-576.12 688.63,-587.31"/>
</g>
<!-- main_py -->
<g id="node11" class="node">
<title>main_py</title><style>.edge>path:hover{stroke-width:8}</style>
<ellipse fill="#35633f" stroke="#ffffff" cx="1588.12" cy="-467.31" rx="30.37" ry="18"/>
<text xml:space="preserve" text-anchor="middle" x="1588.12" y="-463.81" font-family="Helvetica,sans-Serif" font-size="10.00" fill="#e0e0e0">main.py</text>
</g>
<!-- fastapi&#45;&gt;main_py -->
<g id="edge10" class="edge">
<title>fastapi&#45;&gt;main_py</title><style>.edge>path:hover{stroke-width:8}</style>
<path fill="none" stroke="#ffffff" d="M1484.75,-467.31C1504.96,-467.31 1527.42,-467.31 1546.14,-467.31"/>
<polygon fill="#5a5a5a" stroke="#ffffff" points="1546.04,-470.81 1556.04,-467.31 1546.04,-463.81 1546.04,-470.81"/>
<path fill="none" stroke="#ffffff" d="M1242.71,-188.75C1256.67,-247.59 1303.58,-427.33 1356.75,-432.31"/>
<path fill="none" stroke="#ffffff" d="M1357.75,-432.31C1394.25,-449.06 1410.25,-425.93 1447.75,-440.31 1466.42,-447.47 1463.75,-467.31 1483.75,-467.31"/>
</g>
<!-- src -->
<g id="node22" class="node">
<title>src</title><style>.edge>path:hover{stroke-width:8}</style>
<polygon fill="#ac10f9" stroke="#ffffff" points="1447.75,-485.31 1444.75,-489.31 1423.75,-489.31 1420.75,-485.31 1393.75,-485.31 1393.75,-449.31 1447.75,-449.31 1447.75,-485.31"/>
<text xml:space="preserve" text-anchor="middle" x="1420.75" y="-463.81" font-family="Helvetica,sans-Serif" font-size="10.00" fill="#e0e0e0">src</text>
</g>
<!-- fastapi&#45;&gt;src -->
<g id="edge11" class="edge">
<title>fastapi&#45;&gt;src</title><style>.edge>path:hover{stroke-width:8}</style>
<path fill="none" stroke="#ffffff" d="M1357.75,-432.31C1368.41,-433.31 1378.96,-437.64 1388.25,-442.94"/>
<polygon fill="#5a5a5a" stroke="#ffffff" points="1386.18,-445.77 1396.5,-448.14 1389.91,-439.85 1386.18,-445.77"/>
</g>
<!-- greenlet -->
<g id="node8" class="node">
<title>greenlet</title><style>.edge>path:hover{stroke-width:8}</style>
<polygon fill="#78c040" stroke="#ffffff" points="164.38,-559.31 161.38,-563.31 140.38,-563.31 137.38,-559.31 110.38,-559.31 110.38,-523.31 164.38,-523.31 164.38,-559.31"/>
<text xml:space="preserve" text-anchor="middle" x="137.38" y="-537.81" font-family="Helvetica,sans-Serif" font-size="10.00" fill="#e0e0e0">greenlet</text>
</g>
<!-- sqlalchemy -->
<g id="node21" class="node">
<title>sqlalchemy</title><style>.edge>path:hover{stroke-width:8}</style>
<polygon fill="#5a5a5a" stroke="#ffffff" points="517.75,-521.31 514.75,-525.31 493.75,-525.31 490.75,-521.31 452.25,-521.31 452.25,-485.31 517.75,-485.31 517.75,-521.31"/>
<text xml:space="preserve" text-anchor="middle" x="485" y="-499.81" font-family="Helvetica,sans-Serif" font-size="10.00" fill="#e0e0e0">sqlalchemy</text>
</g>
<!-- greenlet&#45;&gt;sqlalchemy -->
<g id="edge12" class="edge">
<title>greenlet&#45;&gt;sqlalchemy</title><style>.edge>path:hover{stroke-width:8}</style>
<path fill="none" stroke="#ffffff" d="M164.54,-540.08C213.95,-537.52 324.26,-530.74 416.25,-517.31 424.25,-516.14 432.72,-514.62 440.87,-513.01"/>
<polygon fill="#78c040" stroke="#ffffff" points="441.51,-516.45 450.6,-511.01 440.1,-509.6 441.51,-516.45"/>
</g>
<!-- h11 -->
<g id="node9" class="node">
<title>h11</title><style>.edge>path:hover{stroke-width:8}</style>
<polygon fill="#499933" stroke="#ffffff" points="407.5,-605.31 404.5,-609.31 383.5,-609.31 380.5,-605.31 353.5,-605.31 353.5,-569.31 407.5,-569.31 407.5,-605.31"/>
<text xml:space="preserve" text-anchor="middle" x="380.5" y="-583.81" font-family="Helvetica,sans-Serif" font-size="10.00" fill="#e0e0e0">h11</text>
</g>
<!-- h11&#45;&gt;uvicorn -->
<g id="edge13" class="edge">
<title>h11&#45;&gt;uvicorn</title><style>.edge>path:hover{stroke-width:8}</style>
<path fill="none" stroke="#ffffff" d="M407.64,-586.62C428.36,-586.24 458.05,-586.07 484,-587.31"/>
</g>
<!-- idna -->
<g id="node10" class="node">
<title>idna</title><style>.edge>path:hover{stroke-width:8}</style>
<polygon fill="#5a5a5a" stroke="#ffffff" points="607.75,-106.31 604.75,-110.31 583.75,-110.31 580.75,-106.31 553.75,-106.31 553.75,-70.31 607.75,-70.31 607.75,-106.31"/>
<text xml:space="preserve" text-anchor="middle" x="580.75" y="-84.81" font-family="Helvetica,sans-Serif" font-size="10.00" fill="#e0e0e0">idna</text>
</g>
<!-- idna&#45;&gt;anyio -->
<g id="edge14" class="edge">
<title>idna&#45;&gt;anyio</title><style>.edge>path:hover{stroke-width:8}</style>
<path fill="none" stroke="#ffffff" d="M607.92,-86.24C657.33,-82.12 767.62,-71.93 859.5,-56.31 867.49,-54.95 875.99,-53.22 884.06,-51.44"/>
<polygon fill="#5a5a5a" stroke="#ffffff" points="884.63,-54.9 893.6,-49.27 883.07,-48.08 884.63,-54.9"/>
</g>
<!-- markdown_it -->
<g id="node12" class="node">
<title>markdown_it</title><style>.edge>path:hover{stroke-width:8}</style>
<polygon fill="#5a5a5a" stroke="#ffffff" points="416.25,-475.31 413.25,-479.31 392.25,-479.31 389.25,-475.31 344.75,-475.31 344.75,-439.31 416.25,-439.31 416.25,-475.31"/>
<text xml:space="preserve" text-anchor="middle" x="380.5" y="-453.81" font-family="Helvetica,sans-Serif" font-size="10.00" fill="#e0e0e0">markdown_it</text>
</g>
<!-- rich -->
<g id="node20" class="node">
<title>rich</title><style>.edge>path:hover{stroke-width:8}</style>
<polygon fill="#5a5a5a" stroke="#ffffff" points="607.75,-399.31 604.75,-403.31 583.75,-403.31 580.75,-399.31 553.75,-399.31 553.75,-363.31 607.75,-363.31 607.75,-399.31"/>
<text xml:space="preserve" text-anchor="middle" x="580.75" y="-377.81" font-family="Helvetica,sans-Serif" font-size="10.00" fill="#e0e0e0">rich</text>
</g>
<!-- markdown_it&#45;&gt;rich -->
<g id="edge15" class="edge">
<title>markdown_it&#45;&gt;rich</title><style>.edge>path:hover{stroke-width:8}</style>
<path fill="none" stroke="#ffffff" d="M407.45,-439.02C427.35,-426.18 456.06,-410.13 484,-403.31"/>
</g>
<!-- mdurl -->
<g id="node13" class="node">
<title>mdurl</title><style>.edge>path:hover{stroke-width:8}</style>
<polygon fill="#5a5a5a" stroke="#ffffff" points="54,-475.31 51,-479.31 30,-479.31 27,-475.31 0,-475.31 0,-439.31 54,-439.31 54,-475.31"/>
<text xml:space="preserve" text-anchor="middle" x="27" y="-453.81" font-family="Helvetica,sans-Serif" font-size="10.00" fill="#e0e0e0">mdurl</text>
</g>
<!-- mdurl&#45;&gt;markdown_it -->
<g id="edge16" class="edge">
<title>mdurl&#45;&gt;markdown_it</title><style>.edge>path:hover{stroke-width:8}</style>
<path fill="none" stroke="#ffffff" d="M54.42,-457.31C113.75,-457.31 258.21,-457.31 332.97,-457.31"/>
<polygon fill="#5a5a5a" stroke="#ffffff" points="332.83,-460.81 342.83,-457.31 332.83,-453.81 332.83,-460.81"/>
</g>
<!-- multipart -->
<g id="node14" class="node">
<title>multipart</title><style>.edge>path:hover{stroke-width:8}</style>
<polygon fill="#33ccbb" stroke="#ffffff" points="949.5,-228.31 946.5,-232.31 925.5,-232.31 922.5,-228.31 895.5,-228.31 895.5,-192.31 949.5,-192.31 949.5,-228.31"/>
<text xml:space="preserve" text-anchor="middle" x="922.5" y="-206.81" font-family="Helvetica,sans-Serif" font-size="10.00" fill="#e0e0e0">multipart</text>
</g>
<!-- multipart&#45;&gt;fastapi -->
<g id="edge17" class="edge">
<title>multipart&#45;&gt;fastapi</title><style>.edge>path:hover{stroke-width:8}</style>
<path fill="none" stroke="#ffffff" d="M949.46,-228.65C969.03,-240.8 997.09,-254.79 1024.38,-256.31"/>
</g>
<!-- multipart&#45;&gt;starlette -->
<g id="edge18" class="edge">
<title>multipart&#45;&gt;starlette</title><style>.edge>path:hover{stroke-width:8}</style>
<path fill="none" stroke="#ffffff" d="M949.59,-193.29C969.22,-181.79 997.3,-168.04 1024.38,-164.31"/>
</g>
<!-- pydantic&#45;&gt;fastapi -->
<g id="edge19" class="edge">
<title>pydantic&#45;&gt;fastapi</title><style>.edge>path:hover{stroke-width:8}</style>
<path fill="none" stroke="#ffffff" d="M928.23,-368C938.89,-331.45 968.33,-253.19 1024.38,-256.31"/>
</g>
<!-- pydantic&#45;&gt;pydantic_settings -->
<g id="edge20" class="edge">
<title>pydantic&#45;&gt;pydantic_settings</title><style>.edge>path:hover{stroke-width:8}</style>
<path fill="none" stroke="#ffffff" d="M1026.38,-394.31C1070.17,-403.91 1082.54,-390.96 1127.25,-394.31"/>
<path fill="none" stroke="#ffffff" d="M949.91,-386.44C970.43,-387.01 999.49,-388.86 1024.38,-394.31"/>
</g>
<!-- pydantic&#45;&gt;src -->
<g id="edge21" class="edge">
<title>pydantic&#45;&gt;src</title><style>.edge>path:hover{stroke-width:8}</style>
<path fill="none" stroke="#ffffff" d="M1129.25,-470.31C1212.6,-485.21 1237.02,-452.3 1319.75,-470.31"/>
<path fill="none" stroke="#ffffff" d="M1026.38,-394.31C1081.21,-406.32 1071.94,-460.73 1127.25,-470.31"/>
</g>
<!-- pydantic_core -->
<g id="node16" class="node">
<title>pydantic_core</title><style>.edge>path:hover{stroke-width:8}</style>
<polygon fill="#5a5a5a" stroke="#ffffff" points="728,-299.31 725,-303.31 704,-303.31 701,-299.31 651.25,-299.31 651.25,-263.31 728,-263.31 728,-299.31"/>
<text xml:space="preserve" text-anchor="middle" x="689.63" y="-277.81" font-family="Helvetica,sans-Serif" font-size="10.00" fill="#e0e0e0">pydantic_core</text>
</g>
<!-- pydantic_core&#45;&gt;fastapi -->
<g id="edge22" class="edge">
<title>pydantic_core&#45;&gt;fastapi</title><style>.edge>path:hover{stroke-width:8}</style>
<path fill="none" stroke="#ffffff" d="M698.29,-262.87C709.9,-237.69 734.57,-193.58 771.5,-175.31 842.48,-140.19 877.54,-150.25 949.5,-183.31 991.73,-202.71 977.97,-253.72 1024.38,-256.31"/>
<path fill="none" stroke="#ffffff" d="M1129.25,-256.31C1160.38,-241.53 1190.5,-216.06 1210.86,-196.67"/>
<polygon fill="#5a5a5a" stroke="#ffffff" points="1213.16,-199.32 1217.88,-189.84 1208.27,-194.31 1213.16,-199.32"/>
<path fill="none" stroke="#ffffff" d="M1026.38,-256.31C1071.21,-256.29 1086.75,-275.54 1127.25,-256.31"/>
</g>
<!-- pydantic_core&#45;&gt;pydantic -->
<g id="edge23" class="edge">
<title>pydantic_core&#45;&gt;pydantic</title><style>.edge>path:hover{stroke-width:8}</style>
<path fill="none" stroke="#ffffff" d="M816.5,-381.31C838.59,-385.97 863.86,-387.29 884.06,-387.42"/>
<polygon fill="#5a5a5a" stroke="#ffffff" points="883.82,-390.92 893.8,-387.37 883.79,-383.92 883.82,-390.92"/>
<path fill="none" stroke="#ffffff" d="M724.42,-299.77C728.31,-302.43 732.09,-305.3 735.5,-308.31 754.95,-325.51 752.22,-336.92 771.5,-354.31 788.26,-369.42 792.42,-376.65 814.5,-381.31"/>
</g>
<!-- pydantic_core&#45;&gt;pydantic_settings -->
<g id="edge24" class="edge">
<title>pydantic_core&#45;&gt;pydantic_settings</title><style>.edge>path:hover{stroke-width:8}</style>
<path fill="none" stroke="#ffffff" d="M816.5,-340.31C862.81,-346.1 876.14,-329.33 921.5,-340.31"/>
<path fill="none" stroke="#ffffff" d="M723.26,-299.76C753.29,-316.18 795.89,-337.98 814.5,-340.31"/>
</g>
<!-- pydantic_settings&#45;&gt;src -->
<g id="edge25" class="edge">
<title>pydantic_settings&#45;&gt;src</title><style>.edge>path:hover{stroke-width:8}</style>
<path fill="none" stroke="#ffffff" d="M1320.75,-470.31C1340.84,-473.89 1363.58,-473.51 1382.2,-472.07"/>
<polygon fill="#5a5a5a" stroke="#ffffff" points="1382.34,-475.57 1391.97,-471.17 1381.69,-468.6 1382.34,-475.57"/>
<path fill="none" stroke="#ffffff" d="M1253.99,-427.59C1268.88,-443.36 1293.04,-464.49 1319.75,-470.31"/>
</g>
<!-- pygments -->
<g id="node18" class="node">
<title>pygments</title><style>.edge>path:hover{stroke-width:8}</style>
<polygon fill="#5a5a5a" stroke="#ffffff" points="409.88,-421.31 406.88,-425.31 385.88,-425.31 382.88,-421.31 351.12,-421.31 351.12,-385.31 409.88,-385.31 409.88,-421.31"/>
<text xml:space="preserve" text-anchor="middle" x="380.5" y="-399.81" font-family="Helvetica,sans-Serif" font-size="10.00" fill="#e0e0e0">pygments</text>
</g>
<!-- pygments&#45;&gt;rich -->
<g id="edge26" class="edge">
<title>pygments&#45;&gt;rich</title><style>.edge>path:hover{stroke-width:8}</style>
<path fill="none" stroke="#ffffff" d="M410.21,-406.91C431.01,-408.65 459.62,-409.26 484,-403.31"/>
<path fill="none" stroke="#ffffff" d="M486,-403.31C504.65,-398.76 525.44,-393.86 542.69,-389.85"/>
<polygon fill="#5a5a5a" stroke="#ffffff" points="543.03,-393.36 551.98,-387.69 541.45,-386.54 543.03,-393.36"/>
</g>
<!-- python_multipart -->
<g id="node19" class="node">
<title>python_multipart</title><style>.edge>path:hover{stroke-width:8}</style>
<polygon fill="#1919e6" stroke="#ffffff" points="859.5,-220.31 856.5,-224.31 835.5,-224.31 832.5,-220.31 771.5,-220.31 771.5,-184.31 859.5,-184.31 859.5,-220.31"/>
<text xml:space="preserve" text-anchor="middle" x="815.5" y="-198.81" font-family="Helvetica,sans-Serif" font-size="10.00" fill="#e0e0e0">python_multipart</text>
</g>
<!-- python_multipart&#45;&gt;fastapi -->
<g id="edge27" class="edge">
<title>python_multipart&#45;&gt;fastapi</title><style>.edge>path:hover{stroke-width:8}</style>
<path fill="none" stroke="#ffffff" d="M840.76,-220.76C861.06,-234.66 891.46,-252.05 921.5,-256.31"/>
<path fill="none" stroke="#ffffff" d="M923.5,-256.31C967.89,-262.61 979.61,-253.81 1024.38,-256.31"/>
</g>
<!-- python_multipart&#45;&gt;multipart -->
<g id="edge28" class="edge">
<title>python_multipart&#45;&gt;multipart</title><style>.edge>path:hover{stroke-width:8}</style>
<path fill="none" stroke="#ffffff" d="M859.81,-205.61C867.77,-206.22 876.01,-206.84 883.78,-207.44"/>
<polygon fill="#1919e6" stroke="#ffffff" points="883.37,-210.91 893.61,-208.18 883.9,-203.93 883.37,-210.91"/>
</g>
<!-- python_multipart&#45;&gt;starlette -->
<g id="edge29" class="edge">
<title>python_multipart&#45;&gt;starlette</title><style>.edge>path:hover{stroke-width:8}</style>
<path fill="none" stroke="#ffffff" d="M859.81,-191.15C871.36,-188.38 883.87,-185.56 895.5,-183.31 952.34,-172.31 967.02,-172.21 1024.38,-164.31"/>
</g>
<!-- rich&#45;&gt;pydantic -->
<g id="edge30" class="edge">
<title>rich&#45;&gt;pydantic</title><style>.edge>path:hover{stroke-width:8}</style>
<path fill="none" stroke="#ffffff" d="M608.18,-379.79C629.86,-378.9 661.31,-378.46 688.63,-381.31"/>
</g>
<!-- sqlalchemy&#45;&gt;src -->
<g id="edge31" class="edge">
<title>sqlalchemy&#45;&gt;src</title><style>.edge>path:hover{stroke-width:8}</style>
<path fill="none" stroke="#ffffff" d="M517.99,-496.69C612.17,-478.27 896.31,-430.31 1127.25,-470.31"/>
</g>
<!-- src&#45;&gt;main_py -->
<g id="edge32" class="edge">
<title>src&#45;&gt;main_py</title><style>.edge>path:hover{stroke-width:8}</style>
<path fill="none" stroke="#ffffff" d="M1448,-467.31C1459.04,-467.31 1472.02,-467.31 1483.75,-467.31"/>
</g>
<!-- starlette&#45;&gt;fastapi -->
<g id="edge33" class="edge">
<title>starlette&#45;&gt;fastapi</title><style>.edge>path:hover{stroke-width:8}</style>
<path fill="none" stroke="#ffffff" d="M1155.49,-135.56C1168.86,-141.3 1185.34,-148.37 1199.94,-154.63"/>
<polygon fill="#df10f9" stroke="#ffffff" points="1198.2,-157.69 1208.77,-158.42 1200.96,-151.26 1198.2,-157.69"/>
</g>
<!-- tomli -->
<g id="node24" class="node">
<title>tomli</title><style>.edge>path:hover{stroke-width:8}</style>
<polygon fill="#b653ab" stroke="#ffffff" points="842.5,-312.31 839.5,-316.31 818.5,-316.31 815.5,-312.31 788.5,-312.31 788.5,-276.31 842.5,-276.31 842.5,-312.31"/>
<text xml:space="preserve" text-anchor="middle" x="815.5" y="-290.81" font-family="Helvetica,sans-Serif" font-size="10.00" fill="#e0e0e0">tomli</text>
</g>
<!-- tomli&#45;&gt;pydantic_settings -->
<g id="edge34" class="edge">
<title>tomli&#45;&gt;pydantic_settings</title><style>.edge>path:hover{stroke-width:8}</style>
<path fill="none" stroke="#ffffff" d="M923.5,-340.31C946.61,-344.13 1103.89,-392.56 1127.25,-394.31"/>
<path fill="none" stroke="#ffffff" d="M1129.25,-394.31C1145.8,-395.12 1163.68,-397.16 1179.99,-399.47"/>
<polygon fill="#b653ab" stroke="#ffffff" points="1179.1,-402.88 1189.51,-400.89 1180.13,-395.95 1179.1,-402.88"/>
<path fill="none" stroke="#ffffff" d="M842.78,-308.93C863.49,-319.66 893.45,-333.52 921.5,-340.31"/>
</g>
<!-- typing_extensions -->
<g id="node25" class="node">
<title>typing_extensions</title><style>.edge>path:hover{stroke-width:8}</style>
<polygon fill="#f910ac" stroke="#ffffff" points="184.75,-391.31 181.75,-395.31 160.75,-395.31 157.75,-391.31 90,-391.31 90,-355.31 184.75,-355.31 184.75,-391.31"/>
<text xml:space="preserve" text-anchor="middle" x="137.38" y="-369.81" font-family="Helvetica,sans-Serif" font-size="10.00" fill="#e0e0e0">typing_extensions</text>
</g>
<!-- typing_extensions&#45;&gt;annotated_types -->
<g id="edge35" class="edge">
<title>typing_extensions&#45;&gt;annotated_types</title><style>.edge>path:hover{stroke-width:8}</style>
<path fill="none" stroke="#ffffff" d="M185.06,-356.18C193.1,-353.23 201.51,-350.15 209.72,-347.13"/>
<polygon fill="#f910ac" stroke="#ffffff" points="210.74,-350.49 218.92,-343.76 208.33,-343.91 210.74,-350.49"/>
</g>
<!-- typing_extensions&#45;&gt;anyio -->
<g id="edge36" class="edge">
<title>typing_extensions&#45;&gt;anyio</title><style>.edge>path:hover{stroke-width:8}</style>
<path fill="none" stroke="#ffffff" d="M816.5,-42.31C838.67,-39.95 863.62,-39.85 883.64,-40.38"/>
<polygon fill="#f910ac" stroke="#ffffff" points="883.47,-43.88 893.58,-40.72 883.71,-36.88 883.47,-43.88"/>
</g>
<!-- typing_extensions&#45;&gt;click -->
<g id="edge37" class="edge">
<title>typing_extensions&#45;&gt;click</title><style>.edge>path:hover{stroke-width:8}</style>
<path fill="none" stroke="#ffffff" d="M265.75,-618.31C289.33,-630.61 318.83,-636.34 341.88,-639.01"/>
<polygon fill="#f910ac" stroke="#ffffff" points="341.48,-642.49 351.78,-639.99 342.17,-635.52 341.48,-642.49"/>
<path fill="none" stroke="#ffffff" d="M144.62,-391.57C163.13,-444.39 219.17,-595.04 263.75,-618.31"/>
</g>
<!-- typing_extensions&#45;&gt;fastapi -->
<g id="edge38" class="edge">
<title>typing_extensions&#45;&gt;fastapi</title><style>.edge>path:hover{stroke-width:8}</style>
<path fill="none" stroke="#ffffff" d="M152.83,-354.89C167.75,-337.41 192.75,-312.1 220.75,-300.31 328.86,-254.78 378.25,-332.08 484,-281.31"/>
<path fill="none" stroke="#ffffff" d="M1129.25,-38.31C1171.45,-63.36 1204.06,-111.53 1221.75,-142.23"/>
<polygon fill="#f910ac" stroke="#ffffff" points="1218.49,-143.58 1226.43,-150.59 1224.6,-140.16 1218.49,-143.58"/>
<path fill="none" stroke="#ffffff" d="M816.5,-42.31C853.4,-38.39 858.9,-21.39 895.5,-15.31 997.61,1.66 1038.24,14.53 1127.25,-38.31"/>
<path fill="none" stroke="#ffffff" d="M486,-281.31C575.05,-230.93 473.71,-125.03 553.75,-61.31 644.65,11.07 698.61,-50.74 814.5,-42.31"/>
</g>
<!-- typing_extensions&#45;&gt;h11 -->
<g id="edge39" class="edge">
<title>typing_extensions&#45;&gt;h11</title><style>.edge>path:hover{stroke-width:8}</style>
<path fill="none" stroke="#ffffff" d="M265.75,-503.31C294.29,-521.68 325.18,-544.7 347.56,-562"/>
<polygon fill="#f910ac" stroke="#ffffff" points="345.36,-564.72 355.4,-568.1 349.66,-559.2 345.36,-564.72"/>
</g>
<!-- typing_extensions&#45;&gt;markdown_it -->
<g id="edge40" class="edge">
<title>typing_extensions&#45;&gt;markdown_it</title><style>.edge>path:hover{stroke-width:8}</style>
<path fill="none" stroke="#ffffff" d="M265.75,-373.31C270.67,-374.02 314.92,-407.47 346.75,-431.94"/>
<polygon fill="#f910ac" stroke="#ffffff" points="344.5,-434.63 354.56,-437.96 348.78,-429.08 344.5,-434.63"/>
</g>
<!-- typing_extensions&#45;&gt;pydantic -->
<g id="edge41" class="edge">
<title>typing_extensions&#45;&gt;pydantic</title><style>.edge>path:hover{stroke-width:8}</style>
<path fill="none" stroke="#ffffff" d="M185.04,-370.16C208.73,-369.36 237.9,-369.59 263.75,-373.31"/>
<path fill="none" stroke="#ffffff" d="M486,-357.31C528.8,-357.53 537.58,-328.03 579.75,-335.31"/>
<path fill="none" stroke="#ffffff" d="M265.75,-373.31C362.02,-387.16 386.74,-356.8 484,-357.31"/>
</g>
<!-- typing_extensions&#45;&gt;pydantic_core -->
<g id="edge42" class="edge">
<title>typing_extensions&#45;&gt;pydantic_core</title><style>.edge>path:hover{stroke-width:8}</style>
<path fill="none" stroke="#ffffff" d="M581.75,-281.31C600.66,-279.84 621.5,-279.55 639.72,-279.72"/>
<polygon fill="#f910ac" stroke="#ffffff" points="639.41,-283.22 649.47,-279.87 639.52,-276.22 639.41,-283.22"/>
</g>
<!-- typing_extensions&#45;&gt;rich -->
<g id="edge43" class="edge">
<title>typing_extensions&#45;&gt;rich</title><style>.edge>path:hover{stroke-width:8}</style>
<path fill="none" stroke="#ffffff" d="M486,-357.31C505.16,-357.41 525.85,-362.18 542.9,-367.44"/>
<polygon fill="#f910ac" stroke="#ffffff" points="541.51,-370.67 552.1,-370.46 543.69,-364.02 541.51,-370.67"/>
</g>
<!-- typing_extensions&#45;&gt;sqlalchemy -->
<g id="edge44" class="edge">
<title>typing_extensions&#45;&gt;sqlalchemy</title><style>.edge>path:hover{stroke-width:8}</style>
<path fill="none" stroke="#ffffff" d="M381.5,-503.31C400.65,-507.01 422.2,-507.55 440.57,-506.94"/>
<polygon fill="#f910ac" stroke="#ffffff" points="440.5,-510.45 450.33,-506.49 440.18,-503.46 440.5,-510.45"/>
<path fill="none" stroke="#ffffff" d="M151.37,-391.42C172.16,-419.17 215.5,-472.26 263.75,-503.31"/>
<path fill="none" stroke="#ffffff" d="M265.75,-503.31C308.26,-530.67 329.86,-493.71 379.5,-503.31"/>
</g>
<!-- typing_extensions&#45;&gt;starlette -->
<g id="edge45" class="edge">
<title>typing_extensions&#45;&gt;starlette</title><style>.edge>path:hover{stroke-width:8}</style>
<path fill="none" stroke="#ffffff" d="M581.75,-281.31C632.96,-277.33 722.49,-164.68 771.5,-149.31 808.82,-137.61 820.43,-147.54 859.5,-149.31 868.69,-149.73 1015.3,-165.78 1024.38,-164.31"/>
<path fill="none" stroke="#ffffff" d="M1026.38,-164.31C1048.09,-158.34 1071.52,-149.22 1090.33,-141.2"/>
<polygon fill="#f910ac" stroke="#ffffff" points="1091.66,-144.44 1099.43,-137.24 1088.87,-138.02 1091.66,-144.44"/>
<path fill="none" stroke="#ffffff" d="M486,-281.31C523.56,-263.27 538.1,-282.45 579.75,-281.31"/>
</g>
<!-- typing_inspection -->
<g id="node26" class="node">
<title>typing_inspection</title><style>.edge>path:hover{stroke-width:8}</style>
<polygon fill="#f91078" stroke="#ffffff" points="735.5,-353.31 732.5,-357.31 711.5,-357.31 708.5,-353.31 643.75,-353.31 643.75,-317.31 735.5,-317.31 735.5,-353.31"/>
<text xml:space="preserve" text-anchor="middle" x="689.63" y="-331.81" font-family="Helvetica,sans-Serif" font-size="10.00" fill="#e0e0e0">typing_inspection</text>
</g>
<!-- typing_extensions&#45;&gt;typing_inspection -->
<g id="edge46" class="edge">
<title>typing_extensions&#45;&gt;typing_inspection</title><style>.edge>path:hover{stroke-width:8}</style>
<path fill="none" stroke="#ffffff" d="M581.75,-281.31C588.94,-280.75 619.74,-296.67 646.44,-311.36"/>
<polygon fill="#f910ac" stroke="#ffffff" points="644.65,-314.37 655.09,-316.16 648.05,-308.25 644.65,-314.37"/>
</g>
<!-- typing_extensions&#45;&gt;uvicorn -->
<g id="edge47" class="edge">
<title>typing_extensions&#45;&gt;uvicorn</title><style>.edge>path:hover{stroke-width:8}</style>
<path fill="none" stroke="#ffffff" d="M486,-587.31C575.95,-591.6 599.97,-571.5 688.63,-587.31"/>
<path fill="none" stroke="#ffffff" d="M381.5,-503.31C439.33,-514.49 425.13,-585.57 484,-587.31"/>
</g>
<!-- typing_inspection&#45;&gt;fastapi -->
<g id="edge48" class="edge">
<title>typing_inspection&#45;&gt;fastapi</title><style>.edge>path:hover{stroke-width:8}</style>
<path fill="none" stroke="#ffffff" d="M723.79,-316.97C727.87,-314.25 731.87,-311.34 735.5,-308.31 754.11,-292.76 749.79,-278.11 771.5,-267.31 831.35,-237.53 855.32,-246.92 921.5,-256.31"/>
</g>
<!-- typing_inspection&#45;&gt;pydantic -->
<g id="edge49" class="edge">
<title>typing_inspection&#45;&gt;pydantic</title><style>.edge>path:hover{stroke-width:8}</style>
<path fill="none" stroke="#ffffff" d="M731.01,-353.77C754.8,-363.75 785.77,-375.25 814.5,-381.31"/>
</g>
<!-- typing_inspection&#45;&gt;pydantic_settings -->
<g id="edge50" class="edge">
<title>typing_inspection&#45;&gt;pydantic_settings</title><style>.edge>path:hover{stroke-width:8}</style>
<path fill="none" stroke="#ffffff" d="M735.79,-335.31C759.33,-335.77 788.55,-337.06 814.5,-340.31"/>
</g>
<!-- uvicorn&#45;&gt;main_py -->
<g id="edge51" class="edge">
<title>uvicorn&#45;&gt;main_py</title><style>.edge>path:hover{stroke-width:8}</style>
<path fill="none" stroke="#ffffff" d="M842.75,-545.71C881.87,-533.69 957.98,-513.31 1024.38,-513.31 1024.38,-513.31 1024.38,-513.31 1357.75,-513.31 1398.63,-513.31 1410.52,-511.19 1447.75,-494.31 1465.96,-486.05 1463.77,-468.17 1483.75,-467.31"/>
</g>
</g>
</svg>

