<?xml version="1.0" encoding="UTF-8" standalone="no"?>
<!DOCTYPE svg PUBLIC "-//W3C//DTD SVG 1.1//EN"
 "http://www.w3.org/Graphics/SVG/1.1/DTD/svg11.dtd">
<!-- Generated by graphviz version 15.0.0 (20260523.1842)
 -->
<!-- Title: G Pages: 1 -->
<svg style="background-color:#141414" width="1221pt" height="1281pt"
 viewBox="0.00 0.00 1221.00 1281.00" xmlns="http://www.w3.org/2000/svg" xmlns:xlink="http://www.w3.org/1999/xlink">
<g id="graph0" class="graph" transform="scale(1 1) rotate(0) translate(4 1276.77)">
<title>G</title><style>.edge>path:hover{stroke-width:8}</style>
<polygon fill="#141414" stroke="none" points="-4,4 -4,-1276.77 1217.18,-1276.77 1217.18,4 -4,4"/>
<!-- fastapi -->
<g id="node1" class="node">
<title>fastapi</title><style>.edge>path:hover{stroke-width:8}</style>
<polygon fill="#5a5a5a" stroke="#ffffff" points="156.17,-824 102.17,-824 102.17,-788 156.17,-788 156.17,-824"/>
<text xml:space="preserve" text-anchor="middle" x="129.17" y="-802.5" font-family="Helvetica,sans-Serif" font-size="10.00" fill="#e0e0e0">fastapi</text>
</g>
<!-- src_api_router -->
<g id="node15" class="node">
<title>src_api_router</title><style>.edge>path:hover{stroke-width:8}</style>
<ellipse fill="#2b2b82" stroke="#ffffff" cx="925.46" cy="-846" rx="43.9" ry="18"/>
<text xml:space="preserve" text-anchor="middle" x="925.46" y="-842.5" font-family="Helvetica,sans-Serif" font-size="10.00" fill="#e0e0e0">src.api.router</text>
</g>
<!-- fastapi&#45;&gt;src_api_router -->
<g id="edge1" class="edge">
<title>fastapi&#45;&gt;src_api_router</title><style>.edge>path:hover{stroke-width:8}</style>
<path fill="none" stroke="#ffffff" d="M284.2,-1051C329.79,-1070.07 322.93,-998.13 368.06,-978 443.2,-944.48 475.48,-989.44 552.31,-960"/>
<path fill="none" stroke="#ffffff" d="M136.62,-824.42C150.43,-862.14 185.61,-949.78 234.34,-1011 251.61,-1032.69 256.85,-1039.78 282.2,-1051"/>
<path fill="none" stroke="#ffffff" d="M553.31,-960C579.24,-952.39 565.77,-924.28 589.31,-911 670.93,-864.95 705.64,-894.9 799.31,-892"/>
</g>
<!-- src_api_routes_auth -->
<g id="node17" class="node">
<title>src_api_routes_auth</title><style>.edge>path:hover{stroke-width:8}</style>
<ellipse fill="#3838a8" stroke="#ffffff" cx="654.19" cy="-824" rx="32.53" ry="39.6"/>
<text xml:space="preserve" text-anchor="middle" x="654.19" y="-838.5" font-family="Helvetica,sans-Serif" font-size="10.00" fill="#e0e0e0">src.</text>
<text xml:space="preserve" text-anchor="middle" x="654.19" y="-826.5" font-family="Helvetica,sans-Serif" font-size="10.00" fill="#e0e0e0">api.</text>
<text xml:space="preserve" text-anchor="middle" x="654.19" y="-814.5" font-family="Helvetica,sans-Serif" font-size="10.00" fill="#e0e0e0">routes.</text>
<text xml:space="preserve" text-anchor="middle" x="654.19" y="-802.5" font-family="Helvetica,sans-Serif" font-size="10.00" fill="#e0e0e0">auth</text>
</g>
<!-- fastapi&#45;&gt;src_api_routes_auth -->
<g id="edge2" class="edge">
<title>fastapi&#45;&gt;src_api_routes_auth</title><style>.edge>path:hover{stroke-width:8}</style>
<path fill="none" stroke="#ffffff" d="M553.31,-824C571.8,-822.54 592.27,-822.3 609.84,-822.52"/>
<polygon fill="#5a5a5a" stroke="#ffffff" points="609.62,-826.02 619.69,-822.7 609.75,-819.02 609.62,-826.02"/>
</g>
<!-- src_api_routes_health -->
<g id="node18" class="node">
<title>src_api_routes_health</title><style>.edge>path:hover{stroke-width:8}</style>
<ellipse fill="#3838a8" stroke="#ffffff" cx="654.19" cy="-960" rx="32.53" ry="39.6"/>
<text xml:space="preserve" text-anchor="middle" x="654.19" y="-974.5" font-family="Helvetica,sans-Serif" font-size="10.00" fill="#e0e0e0">src.</text>
<text xml:space="preserve" text-anchor="middle" x="654.19" y="-962.5" font-family="Helvetica,sans-Serif" font-size="10.00" fill="#e0e0e0">api.</text>
<text xml:space="preserve" text-anchor="middle" x="654.19" y="-950.5" font-family="Helvetica,sans-Serif" font-size="10.00" fill="#e0e0e0">routes.</text>
<text xml:space="preserve" text-anchor="middle" x="654.19" y="-938.5" font-family="Helvetica,sans-Serif" font-size="10.00" fill="#e0e0e0">health</text>
</g>
<!-- fastapi&#45;&gt;src_api_routes_health -->
<g id="edge3" class="edge">
<title>fastapi&#45;&gt;src_api_routes_health</title><style>.edge>path:hover{stroke-width:8}</style>
<path fill="none" stroke="#ffffff" d="M553.31,-960C571.11,-953.18 592.03,-952.22 610.12,-953.34"/>
<polygon fill="#5a5a5a" stroke="#ffffff" points="609.76,-956.82 620.03,-954.2 610.37,-949.85 609.76,-956.82"/>
</g>
<!-- src_api_routes_posts -->
<g id="node19" class="node">
<title>src_api_routes_posts</title><style>.edge>path:hover{stroke-width:8}</style>
<ellipse fill="#303091" stroke="#ffffff" cx="654.19" cy="-727" rx="32.53" ry="39.6"/>
<text xml:space="preserve" text-anchor="middle" x="654.19" y="-741.5" font-family="Helvetica,sans-Serif" font-size="10.00" fill="#e0e0e0">src.</text>
<text xml:space="preserve" text-anchor="middle" x="654.19" y="-729.5" font-family="Helvetica,sans-Serif" font-size="10.00" fill="#e0e0e0">api.</text>
<text xml:space="preserve" text-anchor="middle" x="654.19" y="-717.5" font-family="Helvetica,sans-Serif" font-size="10.00" fill="#e0e0e0">routes.</text>
<text xml:space="preserve" text-anchor="middle" x="654.19" y="-705.5" font-family="Helvetica,sans-Serif" font-size="10.00" fill="#e0e0e0">posts</text>
</g>
<!-- fastapi&#45;&gt;src_api_routes_posts -->
<g id="edge4" class="edge">
<title>fastapi&#45;&gt;src_api_routes_posts</title><style>.edge>path:hover{stroke-width:8}</style>
<path fill="none" stroke="#ffffff" d="M198.34,-739C246.15,-718.89 192.39,-819.5 234.34,-850 269.47,-875.54 290.98,-864.09 332.06,-850 351.23,-843.42 348.89,-828.58 368.06,-822 445.52,-795.42 470.67,-830.43 552.31,-824"/>
<path fill="none" stroke="#ffffff" d="M553.31,-824C579.64,-817.94 570.3,-794.21 589.31,-775 597.36,-766.86 606.85,-758.99 616.02,-752.05"/>
<polygon fill="#5a5a5a" stroke="#ffffff" points="617.81,-755.08 623.8,-746.34 613.67,-749.43 617.81,-755.08"/>
</g>
<!-- src_api_routes_root -->
<g id="node20" class="node">
<title>src_api_routes_root</title><style>.edge>path:hover{stroke-width:8}</style>
<ellipse fill="#3838a8" stroke="#ffffff" cx="654.19" cy="-1057" rx="32.53" ry="39.6"/>
<text xml:space="preserve" text-anchor="middle" x="654.19" y="-1071.5" font-family="Helvetica,sans-Serif" font-size="10.00" fill="#e0e0e0">src.</text>
<text xml:space="preserve" text-anchor="middle" x="654.19" y="-1059.5" font-family="Helvetica,sans-Serif" font-size="10.00" fill="#e0e0e0">api.</text>
<text xml:space="preserve" text-anchor="middle" x="654.19" y="-1047.5" font-family="Helvetica,sans-Serif" font-size="10.00" fill="#e0e0e0">routes.</text>
<text xml:space="preserve" text-anchor="middle" x="654.19" y="-1035.5" font-family="Helvetica,sans-Serif" font-size="10.00" fill="#e0e0e0">root</text>
</g>
<!-- fastapi&#45;&gt;src_api_routes_root -->
<g id="edge5" class="edge">
<title>fastapi&#45;&gt;src_api_routes_root</title><style>.edge>path:hover{stroke-width:8}</style>
<path fill="none" stroke="#ffffff" d="M284.2,-1051C365,-1083.59 412.01,-1014.66 479.31,-1070 522.32,-1105.37 462.51,-1172.32 515.31,-1190"/>
<path fill="none" stroke="#ffffff" d="M516.31,-1190C542.94,-1198.51 593.93,-1138.02 625.6,-1095.79"/>
<polygon fill="#5a5a5a" stroke="#ffffff" points="628.39,-1097.9 631.53,-1087.78 622.77,-1093.73 628.39,-1097.9"/>
</g>
<!-- src_api_routes_users -->
<g id="node21" class="node">
<title>src_api_routes_users</title><style>.edge>path:hover{stroke-width:8}</style>
<ellipse fill="#2e2e8a" stroke="#ffffff" cx="654.19" cy="-630" rx="32.53" ry="39.6"/>
<text xml:space="preserve" text-anchor="middle" x="654.19" y="-644.5" font-family="Helvetica,sans-Serif" font-size="10.00" fill="#e0e0e0">src.</text>
<text xml:space="preserve" text-anchor="middle" x="654.19" y="-632.5" font-family="Helvetica,sans-Serif" font-size="10.00" fill="#e0e0e0">api.</text>
<text xml:space="preserve" text-anchor="middle" x="654.19" y="-620.5" font-family="Helvetica,sans-Serif" font-size="10.00" fill="#e0e0e0">routes.</text>
<text xml:space="preserve" text-anchor="middle" x="654.19" y="-608.5" font-family="Helvetica,sans-Serif" font-size="10.00" fill="#e0e0e0">users</text>
</g>
<!-- fastapi&#45;&gt;src_api_routes_users -->
<g id="edge6" class="edge">
<title>fastapi&#45;&gt;src_api_routes_users</title><style>.edge>path:hover{stroke-width:8}</style>
<path fill="none" stroke="#ffffff" d="M284.2,-605C353.78,-549.02 395.41,-622.41 479.31,-653 496.3,-659.2 534.48,-692.06 552.31,-689"/>
<path fill="none" stroke="#ffffff" d="M553.31,-689C575.19,-680.57 597.83,-667.6 616.01,-655.97"/>
<polygon fill="#5a5a5a" stroke="#ffffff" points="617.9,-658.92 624.35,-650.51 614.07,-653.06 617.9,-658.92"/>
</g>
<!-- src_helpers_exceptions -->
<g id="node26" class="node">
<title>src_helpers_exceptions</title><style>.edge>path:hover{stroke-width:8}</style>
<ellipse fill="#2f2fbc" stroke="#ffffff" cx="423.68" cy="-497" rx="44.72" ry="31.11"/>
<text xml:space="preserve" text-anchor="middle" x="423.68" y="-505.5" font-family="Helvetica,sans-Serif" font-size="10.00" fill="#e0e0e0">src.</text>
<text xml:space="preserve" text-anchor="middle" x="423.68" y="-493.5" font-family="Helvetica,sans-Serif" font-size="10.00" fill="#e0e0e0">helpers.</text>
<text xml:space="preserve" text-anchor="middle" x="423.68" y="-481.5" font-family="Helvetica,sans-Serif" font-size="10.00" fill="#e0e0e0">exceptions</text>
</g>
<!-- fastapi&#45;&gt;src_helpers_exceptions -->
<g id="edge7" class="edge">
<title>fastapi&#45;&gt;src_helpers_exceptions</title><style>.edge>path:hover{stroke-width:8}</style>
<path fill="none" stroke="#ffffff" d="M284.2,-605C321.59,-574.92 330.06,-566.29 368.06,-537 372.83,-533.32 377.88,-529.51 382.91,-525.77"/>
<polygon fill="#5a5a5a" stroke="#ffffff" points="384.68,-528.82 390.65,-520.06 380.52,-523.19 384.68,-528.82"/>
<path fill="none" stroke="#ffffff" d="M142.3,-787.57C154.15,-771.37 173.81,-748.9 197.34,-739"/>
<path fill="none" stroke="#ffffff" d="M198.34,-739C247.71,-718.23 197.91,-663.26 234.34,-624 249.91,-607.23 264.37,-619.35 282.2,-605"/>
</g>
<!-- src_main -->
<g id="node30" class="node">
<title>src_main</title><style>.edge>path:hover{stroke-width:8}</style>
<ellipse fill="#2e2e6b" stroke="#ffffff" cx="1181.01" cy="-549" rx="32.17" ry="18"/>
<text xml:space="preserve" text-anchor="middle" x="1181.01" y="-545.5" font-family="Helvetica,sans-Serif" font-size="10.00" fill="#e0e0e0">src.main</text>
</g>
<!-- fastapi&#45;&gt;src_main -->
<g id="edge8" class="edge">
<title>fastapi&#45;&gt;src_main</title><style>.edge>path:hover{stroke-width:8}</style>
<path fill="none" stroke="#ffffff" d="M136.6,-824.25C154.9,-875.84 207.72,-1021.78 234.34,-1065 268.82,-1120.96 292.03,-1123.87 332.06,-1176 349.63,-1198.88 342.63,-1216.39 368.06,-1230 686.66,-1400.51 766.97,-1014.07 1058.1,-800"/>
</g>
<!-- fastapi_responses -->
<g id="node2" class="node">
<title>fastapi_responses</title><style>.edge>path:hover{stroke-width:8}</style>
<polygon fill="#5a5a5a" stroke="#ffffff" points="61,-557 0,-557 0,-521 61,-521 61,-557"/>
<text xml:space="preserve" text-anchor="middle" x="30.5" y="-541.5" font-family="Helvetica,sans-Serif" font-size="10.00" fill="#e0e0e0">fastapi.</text>
<text xml:space="preserve" text-anchor="middle" x="30.5" y="-529.5" font-family="Helvetica,sans-Serif" font-size="10.00" fill="#e0e0e0">responses</text>
</g>
<!-- fastapi_responses&#45;&gt;fastapi -->
<g id="edge9" class="edge">
<title>fastapi_responses&#45;&gt;fastapi</title><style>.edge>path:hover{stroke-width:8}</style>
<path fill="none" stroke="#ffffff" d="M38.14,-557.35C54.63,-602.89 97.53,-721.37 117.57,-776.72"/>
<polygon fill="#5a5a5a" stroke="#ffffff" points="114.27,-777.89 120.97,-786.1 120.85,-775.5 114.27,-777.89"/>
</g>
<!-- fastapi_responses&#45;&gt;src_helpers_exceptions -->
<g id="edge10" class="edge">
<title>fastapi_responses&#45;&gt;src_helpers_exceptions</title><style>.edge>path:hover{stroke-width:8}</style>
<path fill="none" stroke="#ffffff" d="M61.43,-536.81C115.55,-532.73 233.24,-523.22 332.06,-511 343.91,-509.53 356.6,-507.72 368.62,-505.9"/>
<polygon fill="#5a5a5a" stroke="#ffffff" points="369.04,-509.38 378.39,-504.39 367.97,-502.46 369.04,-509.38"/>
</g>
<!-- fastapi_responses&#45;&gt;src_main -->
<g id="edge11" class="edge">
<title>fastapi_responses&#45;&gt;src_main</title><style>.edge>path:hover{stroke-width:8}</style>
<path fill="none" stroke="#ffffff" d="M32.77,-520.5C38.4,-454.72 66.91,-236 197.34,-236 197.34,-236 197.34,-236 801.31,-236 876.48,-236 898.02,-231.33 969.36,-255 986.94,-260.83 988.58,-268.16 1005.36,-276 1027.93,-286.54 1036.88,-281.94 1058.1,-295"/>
<path fill="none" stroke="#ffffff" d="M1060.1,-295C1086.78,-310.98 1095.72,-315.03 1112.84,-341 1150.38,-397.92 1168.31,-477.41 1175.67,-519.74"/>
<polygon fill="#5a5a5a" stroke="#ffffff" points="1172.18,-520.1 1177.26,-529.4 1179.09,-518.96 1172.18,-520.1"/>
</g>
<!-- fastapi_security -->
<g id="node3" class="node">
<title>fastapi_security</title><style>.edge>path:hover{stroke-width:8}</style>
<ellipse fill="#b65353" stroke="#ffffff" cx="283.2" cy="-979" rx="35.71" ry="22.63"/>
<text xml:space="preserve" text-anchor="middle" x="283.2" y="-981.5" font-family="Helvetica,sans-Serif" font-size="10.00" fill="#e0e0e0">fastapi.</text>
<text xml:space="preserve" text-anchor="middle" x="283.2" y="-969.5" font-family="Helvetica,sans-Serif" font-size="10.00" fill="#e0e0e0">security</text>
</g>
<!-- fastapi_security&#45;&gt;src_api_routes_auth -->
<g id="edge12" class="edge">
<title>fastapi_security&#45;&gt;src_api_routes_auth</title><style>.edge>path:hover{stroke-width:8}</style>
<path fill="none" stroke="#ffffff" d="M313.61,-966.83C329.66,-960.26 349.9,-952.06 368.06,-945 449.95,-913.16 473.02,-911.69 553.31,-876 573.86,-866.86 596.12,-855.44 614.39,-845.62"/>
<polygon fill="#b65353" stroke="#ffffff" points="615.92,-848.77 623.04,-840.93 612.58,-842.62 615.92,-848.77"/>
</g>
<!-- fastapi_staticfiles -->
<g id="node4" class="node">
<title>fastapi_staticfiles</title><style>.edge>path:hover{stroke-width:8}</style>
<ellipse fill="#b65353" stroke="#ffffff" cx="925.46" cy="-749" rx="41.01" ry="22.63"/>
<text xml:space="preserve" text-anchor="middle" x="925.46" y="-751.5" font-family="Helvetica,sans-Serif" font-size="10.00" fill="#e0e0e0">fastapi.</text>
<text xml:space="preserve" text-anchor="middle" x="925.46" y="-739.5" font-family="Helvetica,sans-Serif" font-size="10.00" fill="#e0e0e0">staticfiles</text>
</g>
<!-- fastapi_staticfiles&#45;&gt;src_main -->
<g id="edge13" class="edge">
<title>fastapi_staticfiles&#45;&gt;src_main</title><style>.edge>path:hover{stroke-width:8}</style>
<path fill="none" stroke="#ffffff" d="M946.86,-768.38C974.25,-791.99 1023.5,-825.76 1058.1,-800"/>
<path fill="none" stroke="#ffffff" d="M1060.1,-800C1134.29,-744.77 1164.58,-631.7 1175.14,-578.24"/>
<polygon fill="#b65353" stroke="#ffffff" points="1178.53,-579.15 1176.93,-568.67 1171.65,-577.86 1178.53,-579.15"/>
</g>
<!-- jose -->
<g id="node5" class="node">
<title>jose</title><style>.edge>path:hover{stroke-width:8}</style>
<ellipse fill="#c29947" stroke="#ffffff" cx="654.19" cy="-18" rx="27" ry="18"/>
<text xml:space="preserve" text-anchor="middle" x="654.19" y="-14.5" font-family="Helvetica,sans-Serif" font-size="10.00" fill="#e0e0e0">jose</text>
</g>
<!-- src_helpers_security -->
<g id="node29" class="node">
<title>src_helpers_security</title><style>.edge>path:hover{stroke-width:8}</style>
<ellipse fill="#373781" stroke="#ffffff" cx="1059.1" cy="-236" rx="35.71" ry="31.11"/>
<text xml:space="preserve" text-anchor="middle" x="1059.1" y="-244.5" font-family="Helvetica,sans-Serif" font-size="10.00" fill="#e0e0e0">src.</text>
<text xml:space="preserve" text-anchor="middle" x="1059.1" y="-232.5" font-family="Helvetica,sans-Serif" font-size="10.00" fill="#e0e0e0">helpers.</text>
<text xml:space="preserve" text-anchor="middle" x="1059.1" y="-220.5" font-family="Helvetica,sans-Serif" font-size="10.00" fill="#e0e0e0">security</text>
</g>
<!-- jose&#45;&gt;src_helpers_security -->
<g id="edge14" class="edge">
<title>jose&#45;&gt;src_helpers_security</title><style>.edge>path:hover{stroke-width:8}</style>
<path fill="none" stroke="#ffffff" d="M926.46,-198C957.19,-199.58 990.48,-209.27 1015.89,-218.47"/>
<polygon fill="#c29947" stroke="#ffffff" points="1014.61,-221.72 1025.2,-221.96 1017.07,-215.17 1014.61,-221.72"/>
<path fill="none" stroke="#ffffff" d="M801.31,-136C859.21,-156.07 863.26,-194.84 924.46,-198"/>
<path fill="none" stroke="#ffffff" d="M679.26,-25.28C691.83,-29.78 707.04,-36.35 719.06,-45 762.82,-76.51 748.36,-118.34 799.31,-136"/>
</g>
<!-- jose_jwt -->
<g id="node6" class="node">
<title>jose_jwt</title><style>.edge>path:hover{stroke-width:8}</style>
<ellipse fill="#b3914c" stroke="#ffffff" cx="654.19" cy="-190" rx="29.92" ry="18"/>
<text xml:space="preserve" text-anchor="middle" x="654.19" y="-186.5" font-family="Helvetica,sans-Serif" font-size="10.00" fill="#e0e0e0">jose.jwt</text>
</g>
<!-- jose_jwt&#45;&gt;src_helpers_security -->
<g id="edge15" class="edge">
<title>jose_jwt&#45;&gt;src_helpers_security</title><style>.edge>path:hover{stroke-width:8}</style>
<path fill="none" stroke="#ffffff" d="M679.67,-179.9C719.23,-163.71 793.41,-133.95 799.31,-136"/>
</g>
<!-- passlib -->
<g id="node7" class="node">
<title>passlib</title><style>.edge>path:hover{stroke-width:8}</style>
<ellipse fill="#99c247" stroke="#ffffff" cx="654.19" cy="-136" rx="28.11" ry="18"/>
<text xml:space="preserve" text-anchor="middle" x="654.19" y="-132.5" font-family="Helvetica,sans-Serif" font-size="10.00" fill="#e0e0e0">passlib</text>
</g>
<!-- passlib&#45;&gt;src_helpers_security -->
<g id="edge16" class="edge">
<title>passlib&#45;&gt;src_helpers_security</title><style>.edge>path:hover{stroke-width:8}</style>
<path fill="none" stroke="#ffffff" d="M681.55,-130.96C711.12,-126.43 760.07,-122.4 799.31,-136"/>
</g>
<!-- passlib_context -->
<g id="node8" class="node">
<title>passlib_context</title><style>.edge>path:hover{stroke-width:8}</style>
<ellipse fill="#91b34c" stroke="#ffffff" cx="654.19" cy="-77" rx="35.18" ry="22.63"/>
<text xml:space="preserve" text-anchor="middle" x="654.19" y="-79.5" font-family="Helvetica,sans-Serif" font-size="10.00" fill="#e0e0e0">passlib.</text>
<text xml:space="preserve" text-anchor="middle" x="654.19" y="-67.5" font-family="Helvetica,sans-Serif" font-size="10.00" fill="#e0e0e0">context</text>
</g>
<!-- passlib_context&#45;&gt;src_helpers_security -->
<g id="edge17" class="edge">
<title>passlib_context&#45;&gt;src_helpers_security</title><style>.edge>path:hover{stroke-width:8}</style>
<path fill="none" stroke="#ffffff" d="M683.81,-89.81C712.65,-102.45 758.57,-121.88 799.31,-136"/>
</g>
<!-- pydantic -->
<g id="node9" class="node">
<title>pydantic</title><style>.edge>path:hover{stroke-width:8}</style>
<ellipse fill="#19e619" stroke="#ffffff" cx="129.17" cy="-928" rx="31.72" ry="18"/>
<text xml:space="preserve" text-anchor="middle" x="129.17" y="-924.5" font-family="Helvetica,sans-Serif" font-size="10.00" fill="#e0e0e0">pydantic</text>
</g>
<!-- pydantic&#45;&gt;src_api_routes_users -->
<g id="edge18" class="edge">
<title>pydantic&#45;&gt;src_api_routes_users</title><style>.edge>path:hover{stroke-width:8}</style>
<path fill="none" stroke="#ffffff" d="M139.32,-910.8C155.07,-882.78 189.95,-827.27 234.34,-796 285.61,-759.89 307.2,-766.09 368.06,-751 432.42,-735.04 454.22,-752.78 515.31,-727"/>
</g>
<!-- src_schemas_health -->
<g id="node32" class="node">
<title>src_schemas_health</title><style>.edge>path:hover{stroke-width:8}</style>
<ellipse fill="#4040c0" stroke="#ffffff" cx="423.68" cy="-1110" rx="41.54" ry="31.11"/>
<text xml:space="preserve" text-anchor="middle" x="423.68" y="-1118.5" font-family="Helvetica,sans-Serif" font-size="10.00" fill="#e0e0e0">src.</text>
<text xml:space="preserve" text-anchor="middle" x="423.68" y="-1106.5" font-family="Helvetica,sans-Serif" font-size="10.00" fill="#e0e0e0">schemas.</text>
<text xml:space="preserve" text-anchor="middle" x="423.68" y="-1094.5" font-family="Helvetica,sans-Serif" font-size="10.00" fill="#e0e0e0">health</text>
</g>
<!-- pydantic&#45;&gt;src_schemas_health -->
<g id="edge19" class="edge">
<title>pydantic&#45;&gt;src_schemas_health</title><style>.edge>path:hover{stroke-width:8}</style>
<path fill="none" stroke="#ffffff" d="M129.69,-946.45C129.59,-990.82 135.73,-1104.36 197.34,-1166 225.05,-1193.72 243.38,-1195.42 282.2,-1190"/>
<path fill="none" stroke="#ffffff" d="M284.2,-1190C305.49,-1189.96 350.97,-1161.26 384.02,-1138.25"/>
<polygon fill="#19e619" stroke="#ffffff" points="386.01,-1141.13 392.17,-1132.51 381.98,-1135.41 386.01,-1141.13"/>
</g>
<!-- src_schemas_post -->
<g id="node33" class="node">
<title>src_schemas_post</title><style>.edge>path:hover{stroke-width:8}</style>
<ellipse fill="#4040c0" stroke="#ffffff" cx="423.68" cy="-862" rx="41.54" ry="31.11"/>
<text xml:space="preserve" text-anchor="middle" x="423.68" y="-870.5" font-family="Helvetica,sans-Serif" font-size="10.00" fill="#e0e0e0">src.</text>
<text xml:space="preserve" text-anchor="middle" x="423.68" y="-858.5" font-family="Helvetica,sans-Serif" font-size="10.00" fill="#e0e0e0">schemas.</text>
<text xml:space="preserve" text-anchor="middle" x="423.68" y="-846.5" font-family="Helvetica,sans-Serif" font-size="10.00" fill="#e0e0e0">post</text>
</g>
<!-- pydantic&#45;&gt;src_schemas_post -->
<g id="edge20" class="edge">
<title>pydantic&#45;&gt;src_schemas_post</title><style>.edge>path:hover{stroke-width:8}</style>
<path fill="none" stroke="#ffffff" d="M159.28,-921.59C198.53,-912.93 270.61,-896.97 332.06,-883 345.35,-879.98 359.72,-876.67 373.02,-873.59"/>
<polygon fill="#19e619" stroke="#ffffff" points="373.47,-877.08 382.42,-871.41 371.89,-870.26 373.47,-877.08"/>
</g>
<!-- src_schemas_root -->
<g id="node34" class="node">
<title>src_schemas_root</title><style>.edge>path:hover{stroke-width:8}</style>
<ellipse fill="#4040c0" stroke="#ffffff" cx="423.68" cy="-1190" rx="41.54" ry="31.11"/>
<text xml:space="preserve" text-anchor="middle" x="423.68" y="-1198.5" font-family="Helvetica,sans-Serif" font-size="10.00" fill="#e0e0e0">src.</text>
<text xml:space="preserve" text-anchor="middle" x="423.68" y="-1186.5" font-family="Helvetica,sans-Serif" font-size="10.00" fill="#e0e0e0">schemas.</text>
<text xml:space="preserve" text-anchor="middle" x="423.68" y="-1174.5" font-family="Helvetica,sans-Serif" font-size="10.00" fill="#e0e0e0">root</text>
</g>
<!-- pydantic&#45;&gt;src_schemas_root -->
<g id="edge21" class="edge">
<title>pydantic&#45;&gt;src_schemas_root</title><style>.edge>path:hover{stroke-width:8}</style>
<path fill="none" stroke="#ffffff" d="M284.2,-1190C312.66,-1189.95 344.41,-1189.95 370.32,-1189.96"/>
<polygon fill="#19e619" stroke="#ffffff" points="370.27,-1193.46 380.27,-1189.96 370.27,-1186.46 370.27,-1193.46"/>
</g>
<!-- pydantic_settings -->
<g id="node10" class="node">
<title>pydantic_settings</title><style>.edge>path:hover{stroke-width:8}</style>
<ellipse fill="#53b695" stroke="#ffffff" cx="423.68" cy="-372" rx="55.62" ry="18"/>
<text xml:space="preserve" text-anchor="middle" x="423.68" y="-368.5" font-family="Helvetica,sans-Serif" font-size="10.00" fill="#e0e0e0">pydantic_settings</text>
</g>
<!-- src_helpers_config_config -->
<g id="node24" class="node">
<title>src_helpers_config_config</title><style>.edge>path:hover{stroke-width:8}</style>
<ellipse fill="#2020b6" stroke="#ffffff" cx="800.31" cy="-304" rx="35.71" ry="39.6"/>
<text xml:space="preserve" text-anchor="middle" x="800.31" y="-318.5" font-family="Helvetica,sans-Serif" font-size="10.00" fill="#e0e0e0">src.</text>
<text xml:space="preserve" text-anchor="middle" x="800.31" y="-306.5" font-family="Helvetica,sans-Serif" font-size="10.00" fill="#e0e0e0">helpers.</text>
<text xml:space="preserve" text-anchor="middle" x="800.31" y="-294.5" font-family="Helvetica,sans-Serif" font-size="10.00" fill="#e0e0e0">config.</text>
<text xml:space="preserve" text-anchor="middle" x="800.31" y="-282.5" font-family="Helvetica,sans-Serif" font-size="10.00" fill="#e0e0e0">config</text>
</g>
<!-- pydantic_settings&#45;&gt;src_helpers_config_config -->
<g id="edge22" class="edge">
<title>pydantic_settings&#45;&gt;src_helpers_config_config</title><style>.edge>path:hover{stroke-width:8}</style>
<path fill="none" stroke="#ffffff" d="M478.2,-376.11C538.29,-379.01 638,-378.64 719.06,-353 733.7,-348.37 748.41,-340.53 761.17,-332.47"/>
<polygon fill="#53b695" stroke="#ffffff" points="762.82,-335.56 769.24,-327.14 758.97,-329.72 762.82,-335.56"/>
</g>
<!-- sqlalchemy -->
<g id="node11" class="node">
<title>sqlalchemy</title><style>.edge>path:hover{stroke-width:8}</style>
<ellipse fill="#269dd9" stroke="#ffffff" cx="283.2" cy="-823" rx="39.39" ry="18"/>
<text xml:space="preserve" text-anchor="middle" x="283.2" y="-819.5" font-family="Helvetica,sans-Serif" font-size="10.00" fill="#e0e0e0">sqlalchemy</text>
</g>
<!-- sqlalchemy&#45;&gt;src_api_routes_posts -->
<g id="edge23" class="edge">
<title>sqlalchemy&#45;&gt;src_api_routes_posts</title><style>.edge>path:hover{stroke-width:8}</style>
<path fill="none" stroke="#ffffff" d="M424.68,-765C463.19,-753.19 475.86,-773.15 515.31,-765"/>
</g>
<!-- sqlalchemy&#45;&gt;src_api_routes_users -->
<g id="edge24" class="edge">
<title>sqlalchemy&#45;&gt;src_api_routes_users</title><style>.edge>path:hover{stroke-width:8}</style>
<path fill="none" stroke="#ffffff" d="M310.94,-809.93C338.41,-796.95 382.69,-777.26 422.68,-765"/>
<path fill="none" stroke="#ffffff" d="M424.68,-765C466.44,-752.2 475.07,-743.98 515.31,-727"/>
</g>
<!-- sqlalchemy_ext -->
<g id="node12" class="node">
<title>sqlalchemy_ext</title><style>.edge>path:hover{stroke-width:8}</style>
<ellipse fill="#4095c0" stroke="#ffffff" cx="283.2" cy="-651" rx="48.86" ry="18"/>
<text xml:space="preserve" text-anchor="middle" x="283.2" y="-647.5" font-family="Helvetica,sans-Serif" font-size="10.00" fill="#e0e0e0">sqlalchemy.ext</text>
</g>
<!-- sqlalchemy_ext&#45;&gt;src_api_routes_posts -->
<g id="edge25" class="edge">
<title>sqlalchemy_ext&#45;&gt;src_api_routes_posts</title><style>.edge>path:hover{stroke-width:8}</style>
<path fill="none" stroke="#ffffff" d="M516.31,-689C538.08,-697.2 529.04,-727 552.31,-727"/>
<path fill="none" stroke="#ffffff" d="M553.31,-727C571.85,-727 592.33,-727 609.9,-727"/>
<polygon fill="#4095c0" stroke="#ffffff" points="609.74,-730.5 619.74,-727 609.74,-723.5 609.74,-730.5"/>
</g>
<!-- sqlalchemy_ext&#45;&gt;src_api_routes_users -->
<g id="edge26" class="edge">
<title>sqlalchemy_ext&#45;&gt;src_api_routes_users</title><style>.edge>path:hover{stroke-width:8}</style>
<path fill="none" stroke="#ffffff" d="M331.72,-653.54C371.6,-656.45 429.83,-662.54 479.31,-675 495.96,-679.19 499.72,-681.8 515.31,-689"/>
<path fill="none" stroke="#ffffff" d="M516.31,-689C531.28,-694.64 536.54,-691.71 552.31,-689"/>
</g>
<!-- sqlalchemy_ext_asyncio -->
<g id="node13" class="node">
<title>sqlalchemy_ext_asyncio</title><style>.edge>path:hover{stroke-width:8}</style>
<ellipse fill="#4799c2" stroke="#ffffff" cx="283.2" cy="-718" rx="47.91" ry="31.11"/>
<text xml:space="preserve" text-anchor="middle" x="283.2" y="-726.5" font-family="Helvetica,sans-Serif" font-size="10.00" fill="#e0e0e0">sqlalchemy.</text>
<text xml:space="preserve" text-anchor="middle" x="283.2" y="-714.5" font-family="Helvetica,sans-Serif" font-size="10.00" fill="#e0e0e0">ext.</text>
<text xml:space="preserve" text-anchor="middle" x="283.2" y="-702.5" font-family="Helvetica,sans-Serif" font-size="10.00" fill="#e0e0e0">asyncio</text>
</g>
<!-- sqlalchemy_ext_asyncio&#45;&gt;src_api_routes_posts -->
<g id="edge27" class="edge">
<title>sqlalchemy_ext_asyncio&#45;&gt;src_api_routes_posts</title><style>.edge>path:hover{stroke-width:8}</style>
<path fill="none" stroke="#ffffff" d="M424.68,-689C476.45,-698.17 463.83,-775.64 515.31,-765"/>
<path fill="none" stroke="#ffffff" d="M516.31,-765C539.09,-760.29 529.04,-727 552.31,-727"/>
</g>
<!-- sqlalchemy_ext_asyncio&#45;&gt;src_api_routes_users -->
<g id="edge28" class="edge">
<title>sqlalchemy_ext_asyncio&#45;&gt;src_api_routes_users</title><style>.edge>path:hover{stroke-width:8}</style>
<path fill="none" stroke="#ffffff" d="M424.68,-689C427.37,-689.48 512.79,-728.06 515.31,-727"/>
<path fill="none" stroke="#ffffff" d="M516.31,-727C537.74,-717.95 529.38,-692.94 552.31,-689"/>
<path fill="none" stroke="#ffffff" d="M324.07,-701.43C351.67,-691.98 389.31,-683.09 422.68,-689"/>
</g>
<!-- src_api -->
<g id="node14" class="node">
<title>src_api</title><style>.edge>path:hover{stroke-width:8}</style>
<ellipse fill="#2f2fdb" stroke="#ffffff" cx="1059.1" cy="-572" rx="27.21" ry="18"/>
<text xml:space="preserve" text-anchor="middle" x="1059.1" y="-568.5" font-family="Helvetica,sans-Serif" font-size="10.00" fill="#e0e0e0">src.api</text>
</g>
<!-- src_api&#45;&gt;src_main -->
<g id="edge29" class="edge">
<title>src_api&#45;&gt;src_main</title><style>.edge>path:hover{stroke-width:8}</style>
<path fill="none" stroke="#ffffff" d="M1085.53,-567.12C1101.09,-564.14 1121.37,-560.25 1139.14,-556.84"/>
<polygon fill="#2f2fdb" stroke="#ffffff" points="1139.74,-560.29 1148.9,-554.97 1138.42,-553.41 1139.74,-560.29"/>
</g>
<!-- src_api_router&#45;&gt;src_main -->
<g id="edge30" class="edge">
<title>src_api_router&#45;&gt;src_main</title><style>.edge>path:hover{stroke-width:8}</style>
<path fill="none" stroke="#ffffff" d="M966.01,-838.76C993.83,-832.18 1030.82,-820.31 1058.1,-800"/>
</g>
<!-- src_api_routes -->
<g id="node16" class="node">
<title>src_api_routes</title><style>.edge>path:hover{stroke-width:8}</style>
<ellipse fill="#4747c2" stroke="#ffffff" cx="800.31" cy="-846" rx="45.25" ry="18"/>
<text xml:space="preserve" text-anchor="middle" x="800.31" y="-842.5" font-family="Helvetica,sans-Serif" font-size="10.00" fill="#e0e0e0">src.api.routes</text>
</g>
<!-- src_api_routes&#45;&gt;src_api_router -->
<g id="edge31" class="edge">
<title>src_api_routes&#45;&gt;src_api_router</title><style>.edge>path:hover{stroke-width:8}</style>
<path fill="none" stroke="#ffffff" d="M845.77,-846C853.64,-846 861.91,-846 870.02,-846"/>
<polygon fill="#4747c2" stroke="#ffffff" points="869.79,-849.5 879.79,-846 869.79,-842.5 869.79,-849.5"/>
</g>
<!-- src_api_routes_auth&#45;&gt;src_api_router -->
<g id="edge32" class="edge">
<title>src_api_routes_auth&#45;&gt;src_api_router</title><style>.edge>path:hover{stroke-width:8}</style>
<path fill="none" stroke="#ffffff" d="M681.6,-845.71C709.26,-866.13 754.79,-893.38 799.31,-892"/>
</g>
<!-- src_api_routes_health&#45;&gt;src_api_router -->
<g id="edge33" class="edge">
<title>src_api_routes_health&#45;&gt;src_api_router</title><style>.edge>path:hover{stroke-width:8}</style>
<path fill="none" stroke="#ffffff" d="M682.12,-939.06C709.83,-919.59 755.07,-893.37 799.31,-892"/>
</g>
<!-- src_api_routes_posts&#45;&gt;src_api_router -->
<g id="edge34" class="edge">
<title>src_api_routes_posts&#45;&gt;src_api_router</title><style>.edge>path:hover{stroke-width:8}</style>
<path fill="none" stroke="#ffffff" d="M683.96,-743.42C696.17,-751.59 709.71,-762.42 719.06,-775 746.74,-812.24 723.14,-839.32 755.06,-873 769.79,-888.53 777.92,-892.66 799.31,-892"/>
</g>
<!-- src_api_routes_root&#45;&gt;src_api_router -->
<g id="edge35" class="edge">
<title>src_api_routes_root&#45;&gt;src_api_router</title><style>.edge>path:hover{stroke-width:8}</style>
<path fill="none" stroke="#ffffff" d="M683.52,-1038.72C695.23,-1030.43 708.51,-1020.02 719.06,-1009 762.68,-963.46 736.29,-893.95 799.31,-892"/>
</g>
<!-- src_api_routes_users&#45;&gt;src_api_router -->
<g id="edge36" class="edge">
<title>src_api_routes_users&#45;&gt;src_api_router</title><style>.edge>path:hover{stroke-width:8}</style>
<path fill="none" stroke="#ffffff" d="M684.33,-645.3C696.92,-653.37 710.66,-664.44 719.06,-678 772.54,-764.36 697.78,-895.14 799.31,-892"/>
<path fill="none" stroke="#ffffff" d="M801.31,-892C832.51,-891.03 865.52,-877.97 889.5,-866.01"/>
<polygon fill="#2e2e8a" stroke="#ffffff" points="890.91,-869.23 898.18,-861.52 887.69,-863.01 890.91,-869.23"/>
</g>
<!-- src_helpers -->
<g id="node22" class="node">
<title>src_helpers</title><style>.edge>path:hover{stroke-width:8}</style>
<ellipse fill="#1616f3" stroke="#ffffff" cx="423.68" cy="-564" rx="38.49" ry="18"/>
<text xml:space="preserve" text-anchor="middle" x="423.68" y="-560.5" font-family="Helvetica,sans-Serif" font-size="10.00" fill="#e0e0e0">src.helpers</text>
</g>
<!-- src_helpers&#45;&gt;src_api_routes_users -->
<g id="edge37" class="edge">
<title>src_helpers&#45;&gt;src_api_routes_users</title><style>.edge>path:hover{stroke-width:8}</style>
<path fill="none" stroke="#ffffff" d="M553.31,-562C567.5,-564.32 595.14,-583.66 617.75,-601.12"/>
<polygon fill="#1616f3" stroke="#ffffff" points="615.54,-603.84 625.57,-607.25 619.86,-598.33 615.54,-603.84"/>
</g>
<!-- src_helpers&#45;&gt;src_main -->
<g id="edge38" class="edge">
<title>src_helpers&#45;&gt;src_main</title><style>.edge>path:hover{stroke-width:8}</style>
<path fill="none" stroke="#ffffff" d="M461.52,-560C487.15,-558.05 522.02,-557.06 552.31,-562"/>
<path fill="none" stroke="#ffffff" d="M553.31,-562C596.75,-571.13 614.73,-539.82 653.19,-562"/>
</g>
<!-- src_helpers_config -->
<g id="node23" class="node">
<title>src_helpers_config</title><style>.edge>path:hover{stroke-width:8}</style>
<ellipse fill="#2222e7" stroke="#ffffff" cx="925.46" cy="-295" rx="35.71" ry="31.11"/>
<text xml:space="preserve" text-anchor="middle" x="925.46" y="-303.5" font-family="Helvetica,sans-Serif" font-size="10.00" fill="#e0e0e0">src.</text>
<text xml:space="preserve" text-anchor="middle" x="925.46" y="-291.5" font-family="Helvetica,sans-Serif" font-size="10.00" fill="#e0e0e0">helpers.</text>
<text xml:space="preserve" text-anchor="middle" x="925.46" y="-279.5" font-family="Helvetica,sans-Serif" font-size="10.00" fill="#e0e0e0">config</text>
</g>
<!-- src_helpers_logging_setup -->
<g id="node28" class="node">
<title>src_helpers_logging_setup</title><style>.edge>path:hover{stroke-width:8}</style>
<ellipse fill="#404096" stroke="#ffffff" cx="1059.1" cy="-381" rx="53.74" ry="31.11"/>
<text xml:space="preserve" text-anchor="middle" x="1059.1" y="-389.5" font-family="Helvetica,sans-Serif" font-size="10.00" fill="#e0e0e0">src.</text>
<text xml:space="preserve" text-anchor="middle" x="1059.1" y="-377.5" font-family="Helvetica,sans-Serif" font-size="10.00" fill="#e0e0e0">helpers.</text>
<text xml:space="preserve" text-anchor="middle" x="1059.1" y="-365.5" font-family="Helvetica,sans-Serif" font-size="10.00" fill="#e0e0e0">logging_setup</text>
</g>
<!-- src_helpers_config&#45;&gt;src_helpers_logging_setup -->
<g id="edge39" class="edge">
<title>src_helpers_config&#45;&gt;src_helpers_logging_setup</title><style>.edge>path:hover{stroke-width:8}</style>
<path fill="none" stroke="#ffffff" d="M954.7,-313.45C971.76,-324.6 993.89,-339.05 1013.3,-351.73"/>
<polygon fill="#2222e7" stroke="#ffffff" points="1011.31,-354.61 1021.59,-357.15 1015.14,-348.75 1011.31,-354.61"/>
</g>
<!-- src_helpers_config&#45;&gt;src_helpers_security -->
<g id="edge40" class="edge">
<title>src_helpers_config&#45;&gt;src_helpers_security</title><style>.edge>path:hover{stroke-width:8}</style>
<path fill="none" stroke="#ffffff" d="M957.66,-281.02C975.36,-273.08 997.74,-263.05 1016.88,-254.48"/>
<polygon fill="#2222e7" stroke="#ffffff" points="1018.05,-257.78 1025.75,-250.5 1015.19,-251.4 1018.05,-257.78"/>
</g>
<!-- src_helpers_config&#45;&gt;src_main -->
<g id="edge41" class="edge">
<title>src_helpers_config&#45;&gt;src_main</title><style>.edge>path:hover{stroke-width:8}</style>
<path fill="none" stroke="#ffffff" d="M959.9,-285.87C988.19,-280.16 1028.71,-276.91 1058.1,-295"/>
</g>
<!-- src_helpers_config_config&#45;&gt;src_helpers_logging_setup -->
<g id="edge42" class="edge">
<title>src_helpers_config_config&#45;&gt;src_helpers_logging_setup</title><style>.edge>path:hover{stroke-width:8}</style>
<path fill="none" stroke="#ffffff" d="M822.09,-335.89C843.63,-364.85 880.32,-403.69 924.46,-408"/>
<path fill="none" stroke="#ffffff" d="M926.46,-408C951.4,-410.43 978.59,-406.07 1001.75,-400.19"/>
<polygon fill="#2020b6" stroke="#ffffff" points="1002.57,-403.59 1011.31,-397.59 1000.74,-396.83 1002.57,-403.59"/>
</g>
<!-- src_helpers_config_config&#45;&gt;src_helpers_security -->
<g id="edge43" class="edge">
<title>src_helpers_config_config&#45;&gt;src_helpers_security</title><style>.edge>path:hover{stroke-width:8}</style>
<path fill="none" stroke="#ffffff" d="M820.28,-270.96C841.4,-238.99 878.68,-195.64 924.46,-198"/>
</g>
<!-- src_helpers_config_config&#45;&gt;src_main -->
<g id="edge44" class="edge">
<title>src_helpers_config_config&#45;&gt;src_main</title><style>.edge>path:hover{stroke-width:8}</style>
<path fill="none" stroke="#ffffff" d="M926.46,-526C981.16,-546.76 1000.78,-514.27 1058.1,-526"/>
<path fill="none" stroke="#ffffff" d="M807.61,-343.19C816.68,-388 837.46,-461.08 881.56,-507 896.01,-522.04 904.97,-518.6 924.46,-526"/>
</g>
<!-- src_helpers_config_env_loader_mixin -->
<g id="node25" class="node">
<title>src_helpers_config_env_loader_mixin</title><style>.edge>path:hover{stroke-width:8}</style>
<ellipse fill="#4747c2" stroke="#ffffff" cx="654.19" cy="-304" rx="64.88" ry="39.6"/>
<text xml:space="preserve" text-anchor="middle" x="654.19" y="-318.5" font-family="Helvetica,sans-Serif" font-size="10.00" fill="#e0e0e0">src.</text>
<text xml:space="preserve" text-anchor="middle" x="654.19" y="-306.5" font-family="Helvetica,sans-Serif" font-size="10.00" fill="#e0e0e0">helpers.</text>
<text xml:space="preserve" text-anchor="middle" x="654.19" y="-294.5" font-family="Helvetica,sans-Serif" font-size="10.00" fill="#e0e0e0">config.</text>
<text xml:space="preserve" text-anchor="middle" x="654.19" y="-282.5" font-family="Helvetica,sans-Serif" font-size="10.00" fill="#e0e0e0">env_loader_mixin</text>
</g>
<!-- src_helpers_config_env_loader_mixin&#45;&gt;src_helpers_config_config -->
<g id="edge45" class="edge">
<title>src_helpers_config_env_loader_mixin&#45;&gt;src_helpers_config_config</title><style>.edge>path:hover{stroke-width:8}</style>
<path fill="none" stroke="#ffffff" d="M719.24,-304C730.61,-304 742.26,-304 753.02,-304"/>
<polygon fill="#4747c2" stroke="#ffffff" points="752.78,-307.5 762.78,-304 752.78,-300.5 752.78,-307.5"/>
</g>
<!-- src_helpers_exceptions&#45;&gt;src_api_routes_users -->
<g id="edge46" class="edge">
<title>src_helpers_exceptions&#45;&gt;src_api_routes_users</title><style>.edge>path:hover{stroke-width:8}</style>
<path fill="none" stroke="#ffffff" d="M516.31,-524C535.27,-519.02 537.49,-536.43 553.31,-548 565.99,-557.28 594.71,-580.96 618.11,-600.5"/>
<polygon fill="#2f2fbc" stroke="#ffffff" points="615.69,-603.05 625.61,-606.78 620.19,-597.68 615.69,-603.05"/>
</g>
<!-- src_helpers_exceptions&#45;&gt;src_main -->
<g id="edge47" class="edge">
<title>src_helpers_exceptions&#45;&gt;src_main</title><style>.edge>path:hover{stroke-width:8}</style>
<path fill="none" stroke="#ffffff" d="M459.93,-515.38C476.51,-521.97 496.69,-527.11 515.31,-524"/>
<path fill="none" stroke="#ffffff" d="M516.31,-524C695.24,-494.15 754.86,-461.62 924.46,-526"/>
</g>
<!-- src_helpers_logging -->
<g id="node27" class="node">
<title>src_helpers_logging</title><style>.edge>path:hover{stroke-width:8}</style>
<ellipse fill="#4747c2" stroke="#ffffff" cx="925.46" cy="-467" rx="35.71" ry="31.11"/>
<text xml:space="preserve" text-anchor="middle" x="925.46" y="-475.5" font-family="Helvetica,sans-Serif" font-size="10.00" fill="#e0e0e0">src.</text>
<text xml:space="preserve" text-anchor="middle" x="925.46" y="-463.5" font-family="Helvetica,sans-Serif" font-size="10.00" fill="#e0e0e0">helpers.</text>
<text xml:space="preserve" text-anchor="middle" x="925.46" y="-451.5" font-family="Helvetica,sans-Serif" font-size="10.00" fill="#e0e0e0">logging</text>
</g>
<!-- src_helpers_logging&#45;&gt;src_main -->
<g id="edge48" class="edge">
<title>src_helpers_logging&#45;&gt;src_main</title><style>.edge>path:hover{stroke-width:8}</style>
<path fill="none" stroke="#ffffff" d="M955.52,-484.52C981.39,-499 1020.8,-518.37 1058.1,-526"/>
<path fill="none" stroke="#ffffff" d="M1060.1,-526C1086.21,-531.34 1115.61,-536.99 1138.76,-541.35"/>
<polygon fill="#4747c2" stroke="#ffffff" points="1137.95,-544.76 1148.42,-543.16 1139.24,-537.88 1137.95,-544.76"/>
</g>
<!-- src_schemas -->
<g id="node31" class="node">
<title>src_schemas</title><style>.edge>path:hover{stroke-width:8}</style>
<ellipse fill="#2f2fdb" stroke="#ffffff" cx="423.68" cy="-1005" rx="43.45" ry="18"/>
<text xml:space="preserve" text-anchor="middle" x="423.68" y="-1001.5" font-family="Helvetica,sans-Serif" font-size="10.00" fill="#e0e0e0">src.schemas</text>
</g>
<!-- src_schemas&#45;&gt;src_api_routes_health -->
<g id="edge49" class="edge">
<title>src_schemas&#45;&gt;src_api_routes_health</title><style>.edge>path:hover{stroke-width:8}</style>
<path fill="none" stroke="#ffffff" d="M553.31,-1057C579.66,-1051.02 570.3,-1027.21 589.31,-1008 597.36,-999.86 606.85,-991.99 616.02,-985.05"/>
<polygon fill="#2f2fdb" stroke="#ffffff" points="617.81,-988.08 623.8,-979.34 613.67,-982.43 617.81,-988.08"/>
<path fill="none" stroke="#ffffff" d="M450.41,-1019.59C481.53,-1036.51 532.24,-1061.55 552.31,-1057"/>
</g>
<!-- src_schemas&#45;&gt;src_api_routes_posts -->
<g id="edge50" class="edge">
<title>src_schemas&#45;&gt;src_api_routes_posts</title><style>.edge>path:hover{stroke-width:8}</style>
<path fill="none" stroke="#ffffff" d="M441.27,-988.1C466.48,-962.05 515.43,-910.04 552.31,-862"/>
</g>
<!-- src_schemas&#45;&gt;src_api_routes_root -->
<g id="edge51" class="edge">
<title>src_schemas&#45;&gt;src_api_routes_root</title><style>.edge>path:hover{stroke-width:8}</style>
<path fill="none" stroke="#ffffff" d="M553.31,-1057C571.83,-1054.51 592.45,-1054.12 610.13,-1054.5"/>
<polygon fill="#2f2fdb" stroke="#ffffff" points="609.94,-1057.99 620.04,-1054.81 610.16,-1051 609.94,-1057.99"/>
</g>
<!-- src_schemas_health&#45;&gt;src_api_routes_health -->
<g id="edge52" class="edge">
<title>src_schemas_health&#45;&gt;src_api_routes_health</title><style>.edge>path:hover{stroke-width:8}</style>
<path fill="none" stroke="#ffffff" d="M465.13,-1105.63C492.46,-1100.91 528.04,-1091.15 553.31,-1071 578.52,-1050.9 567.98,-1032.19 589.31,-1008 596.95,-999.34 606.37,-991.23 615.62,-984.24"/>
<polygon fill="#4040c0" stroke="#ffffff" points="617.46,-987.23 623.5,-978.53 613.35,-981.56 617.46,-987.23"/>
</g>
<!-- src_schemas_post&#45;&gt;src_api_routes_posts -->
<g id="edge53" class="edge">
<title>src_schemas_post&#45;&gt;src_api_routes_posts</title><style>.edge>path:hover{stroke-width:8}</style>
<path fill="none" stroke="#ffffff" d="M553.31,-862C580.52,-830.21 563.67,-808.07 589.31,-775 596.45,-765.79 605.78,-757.46 615.09,-750.42"/>
<polygon fill="#4040c0" stroke="#ffffff" points="616.99,-753.36 623.09,-744.7 612.92,-747.67 616.99,-753.36"/>
<path fill="none" stroke="#ffffff" d="M461.68,-875.14C491.13,-882.96 530.84,-887.08 552.31,-862"/>
</g>
<!-- src_schemas_root&#45;&gt;src_api_routes_root -->
<g id="edge54" class="edge">
<title>src_schemas_root&#45;&gt;src_api_routes_root</title><style>.edge>path:hover{stroke-width:8}</style>
<path fill="none" stroke="#ffffff" d="M464.82,-1184.57C480.89,-1183.78 499.34,-1184.65 515.31,-1190"/>
</g>
<!-- structlog -->
<g id="node35" class="node">
<title>structlog</title><style>.edge>path:hover{stroke-width:8}</style>
<ellipse fill="#9d26d9" stroke="#ffffff" cx="129.17" cy="-493" rx="32.17" ry="18"/>
<text xml:space="preserve" text-anchor="middle" x="129.17" y="-489.5" font-family="Helvetica,sans-Serif" font-size="10.00" fill="#e0e0e0">structlog</text>
</g>
<!-- structlog&#45;&gt;src_helpers_exceptions -->
<g id="edge55" class="edge">
<title>structlog&#45;&gt;src_helpers_exceptions</title><style>.edge>path:hover{stroke-width:8}</style>
<path fill="none" stroke="#ffffff" d="M284.2,-497C311.47,-494.17 341.93,-493.86 367.32,-494.39"/>
<polygon fill="#9d26d9" stroke="#ffffff" points="366.99,-497.88 377.08,-494.64 367.18,-490.88 366.99,-497.88"/>
</g>
<!-- structlog&#45;&gt;src_helpers_logging_setup -->
<g id="edge56" class="edge">
<title>structlog&#45;&gt;src_helpers_logging_setup</title><style>.edge>path:hover{stroke-width:8}</style>
<path fill="none" stroke="#ffffff" d="M516.31,-486C698.66,-456.72 740.65,-390.07 924.46,-408"/>
<path fill="none" stroke="#ffffff" d="M161.13,-496.16C191.91,-498.74 240.45,-501.34 282.2,-497"/>
<path fill="none" stroke="#ffffff" d="M284.2,-497C325.23,-492.37 327.79,-466.11 368.06,-457 416.28,-446.09 432.68,-440.56 479.31,-457 498.68,-463.83 495.15,-482 515.31,-486"/>
</g>
<!-- structlog&#45;&gt;src_main -->
<g id="edge57" class="edge">
<title>structlog&#45;&gt;src_main</title><style>.edge>path:hover{stroke-width:8}</style>
<path fill="none" stroke="#ffffff" d="M655.19,-562C680.84,-576.8 694.43,-564.55 719.06,-581 814.31,-644.61 780.93,-726.31 881.56,-781 916.23,-799.84 1026.45,-823.56 1058.1,-800"/>
<path fill="none" stroke="#ffffff" d="M516.31,-486C585.27,-495.24 592.96,-527.15 653.19,-562"/>
</g>
<!-- uvicorn -->
<g id="node36" class="node">
<title>uvicorn</title><style>.edge>path:hover{stroke-width:8}</style>
<ellipse fill="#c04095" stroke="#ffffff" cx="925.46" cy="-362" rx="28.56" ry="18"/>
<text xml:space="preserve" text-anchor="middle" x="925.46" y="-358.5" font-family="Helvetica,sans-Serif" font-size="10.00" fill="#e0e0e0">uvicorn</text>
</g>
<!-- uvicorn&#45;&gt;src_main -->
<g id="edge58" class="edge">
<title>uvicorn&#45;&gt;src_main</title><style>.edge>path:hover{stroke-width:8}</style>
<path fill="none" stroke="#ffffff" d="M946.4,-349.5C980.59,-328.4 1047.75,-288.63 1058.1,-295"/>
</g>
</g>
</svg>

