<?xml version="1.0" encoding="UTF-8" standalone="no"?>
<!DOCTYPE svg PUBLIC "-//W3C//DTD SVG 1.1//EN"
 "http://www.w3.org/Graphics/SVG/1.1/DTD/svg11.dtd">
<!-- Generated by graphviz version 15.0.0 (20260523.1842)
 -->
<!-- Title: G Pages: 1 -->
<svg style="background-color:#141414" width="692pt" height="470pt"
 viewBox="0.00 0.00 692.00 470.00" xmlns="http://www.w3.org/2000/svg" xmlns:xlink="http://www.w3.org/1999/xlink">
<g id="graph0" class="graph" transform="scale(1 1) rotate(0) translate(4 466.27)">
<title>G</title><style>.edge>path:hover{stroke-width:8}</style>
<polygon fill="#141414" stroke="none" points="-4,4 -4,-466.27 687.82,-466.27 687.82,4 -4,4"/>
<!-- fastapi -->
<g id="node1" class="node">
<title>fastapi</title><style>.edge>path:hover{stroke-width:8}</style>
<ellipse fill="#c24747" stroke="#ffffff" cx="250.93" cy="-270.27" rx="27.21" ry="18"/>
<text xml:space="preserve" text-anchor="middle" x="250.93" y="-266.77" font-family="Helvetica,sans-Serif" font-size="10.00" fill="#e0e0e0">fastapi</text>
</g>
<!-- src_main -->
<g id="node9" class="node">
<title>src_main</title><style>.edge>path:hover{stroke-width:8}</style>
<ellipse fill="#4981ac" stroke="#ffffff" cx="400.45" cy="-444.27" rx="32.17" ry="18"/>
<text xml:space="preserve" text-anchor="middle" x="400.45" y="-440.77" font-family="Helvetica,sans-Serif" font-size="10.00" fill="#e0e0e0">src.main</text>
</g>
<!-- fastapi&#45;&gt;src_main -->
<g id="edge1" class="edge">
<title>fastapi&#45;&gt;src_main</title><style>.edge>path:hover{stroke-width:8}</style>
<path fill="none" stroke="#ffffff" d="M315.14,-262.27C382.91,-282.49 308.64,-360.74 351.14,-417.27 354.43,-421.65 358.65,-425.41 363.22,-428.62"/>
<polygon fill="#c24747" stroke="#ffffff" points="361.25,-431.52 371.62,-433.67 364.85,-425.52 361.25,-431.52"/>
</g>
<!-- tests_conftest -->
<g id="node10" class="node">
<title>tests_conftest</title><style>.edge>path:hover{stroke-width:8}</style>
<ellipse fill="#3f2e6b" stroke="#ffffff" cx="638.12" cy="-121.27" rx="45.7" ry="18"/>
<text xml:space="preserve" text-anchor="middle" x="638.12" y="-117.77" font-family="Helvetica,sans-Serif" font-size="10.00" fill="#e0e0e0">tests.conftest</text>
</g>
<!-- fastapi&#45;&gt;tests_conftest -->
<g id="edge2" class="edge">
<title>fastapi&#45;&gt;tests_conftest</title><style>.edge>path:hover{stroke-width:8}</style>
<path fill="none" stroke="#ffffff" d="M315.14,-262.27C332.09,-267.33 334.9,-252.29 351.14,-245.27 372.32,-236.12 376.49,-228.52 399.45,-226.27"/>
<path fill="none" stroke="#ffffff" d="M275.94,-262.6C287.65,-260.01 301.83,-258.59 314.14,-262.27"/>
</g>
<!-- fastapi_testclient -->
<g id="node2" class="node">
<title>fastapi_testclient</title><style>.edge>path:hover{stroke-width:8}</style>
<ellipse fill="#b65353" stroke="#ffffff" cx="400.45" cy="-385.27" rx="39.42" ry="22.63"/>
<text xml:space="preserve" text-anchor="middle" x="400.45" y="-387.77" font-family="Helvetica,sans-Serif" font-size="10.00" fill="#e0e0e0">fastapi.</text>
<text xml:space="preserve" text-anchor="middle" x="400.45" y="-375.77" font-family="Helvetica,sans-Serif" font-size="10.00" fill="#e0e0e0">testclient</text>
</g>
<!-- fastapi_testclient&#45;&gt;tests_conftest -->
<g id="edge3" class="edge">
<title>fastapi_testclient&#45;&gt;tests_conftest</title><style>.edge>path:hover{stroke-width:8}</style>
<path fill="none" stroke="#ffffff" d="M429.8,-369.75C436.85,-365.06 444.02,-359.48 449.76,-353.27 493.54,-305.87 462.01,-254.38 520.09,-226.27"/>
</g>
<!-- pytest -->
<g id="node3" class="node">
<title>pytest</title><style>.edge>path:hover{stroke-width:8}</style>
<ellipse fill="#b6a853" stroke="#ffffff" cx="400.45" cy="-326.27" rx="27" ry="18"/>
<text xml:space="preserve" text-anchor="middle" x="400.45" y="-322.77" font-family="Helvetica,sans-Serif" font-size="10.00" fill="#e0e0e0">pytest</text>
</g>
<!-- pytest&#45;&gt;tests_conftest -->
<g id="edge4" class="edge">
<title>pytest&#45;&gt;tests_conftest</title><style>.edge>path:hover{stroke-width:8}</style>
<path fill="none" stroke="#ffffff" d="M422.98,-315.98C431.66,-311.4 441.54,-305.6 449.76,-299.27 485.44,-271.76 479.54,-245.9 520.09,-226.27"/>
</g>
<!-- pytest_asyncio -->
<g id="node4" class="node">
<title>pytest_asyncio</title><style>.edge>path:hover{stroke-width:8}</style>
<ellipse fill="#70b653" stroke="#ffffff" cx="400.45" cy="-272.27" rx="49.31" ry="18"/>
<text xml:space="preserve" text-anchor="middle" x="400.45" y="-268.77" font-family="Helvetica,sans-Serif" font-size="10.00" fill="#e0e0e0">pytest_asyncio</text>
</g>
<!-- pytest_asyncio&#45;&gt;tests_conftest -->
<g id="edge5" class="edge">
<title>pytest_asyncio&#45;&gt;tests_conftest</title><style>.edge>path:hover{stroke-width:8}</style>
<path fill="none" stroke="#ffffff" d="M437.39,-260.05C461.25,-251.52 493.04,-239.36 520.09,-226.27"/>
</g>
<!-- sqlalchemy -->
<g id="node5" class="node">
<title>sqlalchemy</title><style>.edge>path:hover{stroke-width:8}</style>
<ellipse fill="#24d087" stroke="#ffffff" cx="138.86" cy="-223.27" rx="39.39" ry="18"/>
<text xml:space="preserve" text-anchor="middle" x="138.86" y="-219.77" font-family="Helvetica,sans-Serif" font-size="10.00" fill="#e0e0e0">sqlalchemy</text>
</g>
<!-- sqlalchemy&#45;&gt;tests_conftest -->
<g id="edge6" class="edge">
<title>sqlalchemy&#45;&gt;tests_conftest</title><style>.edge>path:hover{stroke-width:8}</style>
<path fill="none" stroke="#ffffff" d="M315.14,-224.27C351.94,-217.17 362.15,-229.93 399.45,-226.27"/>
<path fill="none" stroke="#ffffff" d="M401.45,-226.27C453.92,-221.12 472.74,-249.48 520.09,-226.27"/>
</g>
<!-- tests_utils_db_config -->
<g id="node12" class="node">
<title>tests_utils_db_config</title><style>.edge>path:hover{stroke-width:8}</style>
<ellipse fill="#5c3ab0" stroke="#ffffff" cx="400.45" cy="-167.27" rx="41.01" ry="31.11"/>
<text xml:space="preserve" text-anchor="middle" x="400.45" y="-175.77" font-family="Helvetica,sans-Serif" font-size="10.00" fill="#e0e0e0">tests.</text>
<text xml:space="preserve" text-anchor="middle" x="400.45" y="-163.77" font-family="Helvetica,sans-Serif" font-size="10.00" fill="#e0e0e0">utils.</text>
<text xml:space="preserve" text-anchor="middle" x="400.45" y="-151.77" font-family="Helvetica,sans-Serif" font-size="10.00" fill="#e0e0e0">db_config</text>
</g>
<!-- sqlalchemy&#45;&gt;tests_utils_db_config -->
<g id="edge7" class="edge">
<title>sqlalchemy&#45;&gt;tests_utils_db_config</title><style>.edge>path:hover{stroke-width:8}</style>
<path fill="none" stroke="#ffffff" d="M177.86,-226.97C213.34,-229.61 267.65,-231.54 314.14,-224.27"/>
<path fill="none" stroke="#ffffff" d="M315.14,-224.27C333.64,-220.7 351.36,-210.21 365.73,-199.19"/>
<polygon fill="#24d087" stroke="#ffffff" points="367.94,-201.91 373.5,-192.89 363.53,-196.48 367.94,-201.91"/>
</g>
<!-- sqlalchemy_ext -->
<g id="node6" class="node">
<title>sqlalchemy_ext</title><style>.edge>path:hover{stroke-width:8}</style>
<ellipse fill="#40c089" stroke="#ffffff" cx="138.86" cy="-167.27" rx="48.86" ry="18"/>
<text xml:space="preserve" text-anchor="middle" x="138.86" y="-163.77" font-family="Helvetica,sans-Serif" font-size="10.00" fill="#e0e0e0">sqlalchemy.ext</text>
</g>
<!-- sqlalchemy_ext&#45;&gt;tests_conftest -->
<g id="edge8" class="edge">
<title>sqlalchemy_ext&#45;&gt;tests_conftest</title><style>.edge>path:hover{stroke-width:8}</style>
<path fill="none" stroke="#ffffff" d="M315.14,-167.27C357.99,-154.43 314.28,-98.62 351.14,-73.27 387.25,-48.43 412.86,-49.62 449.76,-73.27 512.77,-113.65 452.72,-258.88 520.09,-226.27"/>
<path fill="none" stroke="#ffffff" d="M184.79,-173.77C220.52,-177.4 271.42,-179.11 314.14,-167.27"/>
<path fill="none" stroke="#ffffff" d="M522.09,-226.27C560.41,-207.48 595.2,-171.95 616.25,-147.46"/>
<polygon fill="#40c089" stroke="#ffffff" points="618.9,-149.74 622.65,-139.83 613.54,-145.24 618.9,-149.74"/>
</g>
<!-- sqlalchemy_ext&#45;&gt;tests_utils_db_config -->
<g id="edge9" class="edge">
<title>sqlalchemy_ext&#45;&gt;tests_utils_db_config</title><style>.edge>path:hover{stroke-width:8}</style>
<path fill="none" stroke="#ffffff" d="M315.14,-167.27C325.65,-164.12 337.23,-162.81 348.36,-162.54"/>
<polygon fill="#40c089" stroke="#ffffff" points="348.2,-166.04 358.21,-162.59 348.23,-159.04 348.2,-166.04"/>
</g>
<!-- sqlalchemy_ext_asyncio -->
<g id="node7" class="node">
<title>sqlalchemy_ext_asyncio</title><style>.edge>path:hover{stroke-width:8}</style>
<ellipse fill="#47c28d" stroke="#ffffff" cx="138.86" cy="-75.27" rx="47.91" ry="31.11"/>
<text xml:space="preserve" text-anchor="middle" x="138.86" y="-83.77" font-family="Helvetica,sans-Serif" font-size="10.00" fill="#e0e0e0">sqlalchemy.</text>
<text xml:space="preserve" text-anchor="middle" x="138.86" y="-71.77" font-family="Helvetica,sans-Serif" font-size="10.00" fill="#e0e0e0">ext.</text>
<text xml:space="preserve" text-anchor="middle" x="138.86" y="-59.77" font-family="Helvetica,sans-Serif" font-size="10.00" fill="#e0e0e0">asyncio</text>
</g>
<!-- sqlalchemy_ext_asyncio&#45;&gt;tests_conftest -->
<g id="edge10" class="edge">
<title>sqlalchemy_ext_asyncio&#45;&gt;tests_conftest</title><style>.edge>path:hover{stroke-width:8}</style>
<path fill="none" stroke="#ffffff" d="M182.81,-62.37C218.29,-53.56 269.84,-45.01 314.14,-54.27"/>
<path fill="none" stroke="#ffffff" d="M315.14,-54.27C355.23,-63.34 358.59,-20.74 399.45,-16.27"/>
</g>
<!-- sqlalchemy_ext_asyncio&#45;&gt;tests_utils_db_config -->
<g id="edge11" class="edge">
<title>sqlalchemy_ext_asyncio&#45;&gt;tests_utils_db_config</title><style>.edge>path:hover{stroke-width:8}</style>
<path fill="none" stroke="#ffffff" d="M315.14,-54.27C350.55,-61.67 328.71,-98.88 351.14,-127.27 354.22,-131.17 357.74,-134.95 361.45,-138.54"/>
<polygon fill="#47c28d" stroke="#ffffff" points="358.86,-140.91 368.63,-145.01 363.54,-135.71 358.86,-140.91"/>
</g>
<!-- src -->
<g id="node8" class="node">
<title>src</title><style>.edge>path:hover{stroke-width:8}</style>
<ellipse fill="#478dc2" stroke="#ffffff" cx="400.45" cy="-100.27" rx="27" ry="18"/>
<text xml:space="preserve" text-anchor="middle" x="400.45" y="-96.77" font-family="Helvetica,sans-Serif" font-size="10.00" fill="#e0e0e0">src</text>
</g>
<!-- src&#45;&gt;tests_conftest -->
<g id="edge12" class="edge">
<title>src&#45;&gt;tests_conftest</title><style>.edge>path:hover{stroke-width:8}</style>
<path fill="none" stroke="#ffffff" d="M423.47,-109.96C432.23,-114.45 442.03,-120.34 449.76,-127.27 489.93,-163.32 471.51,-249.78 520.09,-226.27"/>
</g>
<!-- src_main&#45;&gt;tests_conftest -->
<g id="edge13" class="edge">
<title>src_main&#45;&gt;tests_conftest</title><style>.edge>path:hover{stroke-width:8}</style>
<path fill="none" stroke="#ffffff" d="M427.45,-434.03C435.48,-429.83 443.77,-424.28 449.76,-417.27 508.52,-348.49 438.66,-265.68 520.09,-226.27"/>
</g>
<!-- tests_utils -->
<g id="node11" class="node">
<title>tests_utils</title><style>.edge>path:hover{stroke-width:8}</style>
<ellipse fill="#6a47c2" stroke="#ffffff" cx="521.09" cy="-121.27" rx="35.33" ry="18"/>
<text xml:space="preserve" text-anchor="middle" x="521.09" y="-117.77" font-family="Helvetica,sans-Serif" font-size="10.00" fill="#e0e0e0">tests.utils</text>
</g>
<!-- tests_utils&#45;&gt;tests_conftest -->
<g id="edge14" class="edge">
<title>tests_utils&#45;&gt;tests_conftest</title><style>.edge>path:hover{stroke-width:8}</style>
<path fill="none" stroke="#ffffff" d="M556.91,-121.27C564.46,-121.27 572.63,-121.27 580.78,-121.27"/>
<polygon fill="#6a47c2" stroke="#ffffff" points="580.68,-124.77 590.68,-121.27 580.68,-117.77 580.68,-124.77"/>
</g>
<!-- tests_utils_db_config&#45;&gt;tests_conftest -->
<g id="edge15" class="edge">
<title>tests_utils_db_config&#45;&gt;tests_conftest</title><style>.edge>path:hover{stroke-width:8}</style>
<path fill="none" stroke="#ffffff" d="M430.9,-188.57C460.26,-208.6 503.32,-234.39 520.09,-226.27"/>
</g>
<!-- typing -->
<g id="node13" class="node">
<title>typing</title><style>.edge>path:hover{stroke-width:8}</style>
<ellipse fill="#c247b1" stroke="#ffffff" cx="27" cy="-118.27" rx="27" ry="18"/>
<text xml:space="preserve" text-anchor="middle" x="27" y="-114.77" font-family="Helvetica,sans-Serif" font-size="10.00" fill="#e0e0e0">typing</text>
</g>
<!-- typing&#45;&gt;sqlalchemy -->
<g id="edge16" class="edge">
<title>typing&#45;&gt;sqlalchemy</title><style>.edge>path:hover{stroke-width:8}</style>
<path fill="none" stroke="#ffffff" d="M38.94,-134.77C50.36,-151.17 69.44,-176.39 90,-194.27 93.81,-197.59 98.06,-200.75 102.39,-203.69"/>
<polygon fill="#c247b1" stroke="#ffffff" points="100.31,-206.52 110.63,-208.93 104.07,-200.61 100.31,-206.52"/>
</g>
<!-- typing&#45;&gt;tests_conftest -->
<g id="edge17" class="edge">
<title>typing&#45;&gt;tests_conftest</title><style>.edge>path:hover{stroke-width:8}</style>
<path fill="none" stroke="#ffffff" d="M401.45,-16.27C482.17,-7.44 566.75,-63.77 609.24,-97.4"/>
<polygon fill="#c247b1" stroke="#ffffff" points="606.99,-100.08 616.96,-103.65 611.39,-94.64 606.99,-100.08"/>
<path fill="none" stroke="#ffffff" d="M35.52,-100.68C45.02,-80.89 63.41,-49.63 90,-35.27 211.23,30.22 261.66,-16.26 399.45,-16.27"/>
</g>
</g>
</svg>

