<?xml version="1.0" encoding="UTF-8" standalone="no"?>
<!DOCTYPE svg PUBLIC "-//W3C//DTD SVG 1.1//EN"
 "http://www.w3.org/Graphics/SVG/1.1/DTD/svg11.dtd">
<!-- Generated by graphviz version 15.0.0 (20260523.1842)
 -->
<!-- Title: G Pages: 1 -->
<svg style="background-color:#141414" width="951pt" height="764pt"
 viewBox="0.00 0.00 951.00 764.00" xmlns="http://www.w3.org/2000/svg" xmlns:xlink="http://www.w3.org/1999/xlink">
<g id="graph0" class="graph" transform="scale(1 1) rotate(0) translate(4 760.36)">
<title>G</title><style>.edge>path:hover{stroke-width:8}</style>
<polygon fill="#141414" stroke="none" points="-4,4 -4,-760.36 947.4,-760.36 947.4,4 -4,4"/>
<!-- fastapi -->
<g id="node1" class="node">
<title>fastapi</title><style>.edge>path:hover{stroke-width:8}</style>
<ellipse fill="#c24747" stroke="#ffffff" cx="407.09" cy="-18" rx="27.21" ry="18"/>
<text xml:space="preserve" text-anchor="middle" x="407.09" y="-14.5" font-family="Helvetica,sans-Serif" font-size="10.00" fill="#e0e0e0">fastapi</text>
</g>
<!-- src2_main -->
<g id="node13" class="node">
<title>src2_main</title><style>.edge>path:hover{stroke-width:8}</style>
<ellipse fill="#3a6688" stroke="#ffffff" cx="672.65" cy="-126" rx="35.33" ry="18"/>
<text xml:space="preserve" text-anchor="middle" x="672.65" y="-122.5" font-family="Helvetica,sans-Serif" font-size="10.00" fill="#e0e0e0">src2.main</text>
</g>
<!-- fastapi&#45;&gt;src2_main -->
<g id="edge1" class="edge">
<title>fastapi&#45;&gt;src2_main</title><style>.edge>path:hover{stroke-width:8}</style>
<path fill="none" stroke="#ffffff" d="M543.08,-80C573.64,-89.53 607.72,-101.81 633.12,-111.28"/>
<polygon fill="#c24747" stroke="#ffffff" points="631.77,-114.51 642.36,-114.75 634.23,-107.96 631.77,-114.51"/>
</g>
<!-- tests2_conftest -->
<g id="node15" class="node">
<title>tests2_conftest</title><style>.edge>path:hover{stroke-width:8}</style>
<ellipse fill="#6b2e62" stroke="#ffffff" cx="907.17" cy="-358" rx="36.24" ry="22.63"/>
<text xml:space="preserve" text-anchor="middle" x="907.17" y="-360.5" font-family="Helvetica,sans-Serif" font-size="10.00" fill="#e0e0e0">tests2.</text>
<text xml:space="preserve" text-anchor="middle" x="907.17" y="-348.5" font-family="Helvetica,sans-Serif" font-size="10.00" fill="#e0e0e0">conftest</text>
</g>
<!-- fastapi&#45;&gt;tests2_conftest -->
<g id="edge2" class="edge">
<title>fastapi&#45;&gt;tests2_conftest</title><style>.edge>path:hover{stroke-width:8}</style>
<path fill="none" stroke="#ffffff" d="M543.08,-80C619.4,-103.81 652.94,-58.64 721.96,-99 812.16,-151.75 869.71,-268.19 893.56,-325.22"/>
<polygon fill="#c24747" stroke="#ffffff" points="890.28,-326.46 897.31,-334.4 896.76,-323.82 890.28,-326.46"/>
<path fill="none" stroke="#ffffff" d="M428.67,-29.42C454.29,-43.2 499.75,-66.24 541.08,-80"/>
</g>
<!-- fastapi_testclient -->
<g id="node2" class="node">
<title>fastapi_testclient</title><style>.edge>path:hover{stroke-width:8}</style>
<ellipse fill="#b65353" stroke="#ffffff" cx="672.65" cy="-687" rx="39.42" ry="22.63"/>
<text xml:space="preserve" text-anchor="middle" x="672.65" y="-689.5" font-family="Helvetica,sans-Serif" font-size="10.00" fill="#e0e0e0">fastapi.</text>
<text xml:space="preserve" text-anchor="middle" x="672.65" y="-677.5" font-family="Helvetica,sans-Serif" font-size="10.00" fill="#e0e0e0">testclient</text>
</g>
<!-- fastapi_testclient&#45;&gt;tests2_conftest -->
<g id="edge3" class="edge">
<title>fastapi_testclient&#45;&gt;tests2_conftest</title><style>.edge>path:hover{stroke-width:8}</style>
<path fill="none" stroke="#ffffff" d="M702.88,-672.09C727.07,-660.42 762.66,-644.73 795.44,-636"/>
</g>
<!-- pytest -->
<g id="node3" class="node">
<title>pytest</title><style>.edge>path:hover{stroke-width:8}</style>
<ellipse fill="#c2b147" stroke="#ffffff" cx="268.49" cy="-418" rx="27" ry="18"/>
<text xml:space="preserve" text-anchor="middle" x="268.49" y="-414.5" font-family="Helvetica,sans-Serif" font-size="10.00" fill="#e0e0e0">pytest</text>
</g>
<!-- pytest&#45;&gt;tests2_conftest -->
<g id="edge4" class="edge">
<title>pytest&#45;&gt;tests2_conftest</title><style>.edge>path:hover{stroke-width:8}</style>
<path fill="none" stroke="#ffffff" d="M543.08,-426C602.31,-419.48 618.62,-436.83 671.65,-464"/>
<path fill="none" stroke="#ffffff" d="M673.65,-464C694.18,-474.52 705.06,-467.29 721.96,-483 777.21,-534.36 722.55,-655.42 795.44,-636"/>
</g>
<!-- tests2_helpers_test_logging -->
<g id="node17" class="node">
<title>tests2_helpers_test_logging</title><style>.edge>path:hover{stroke-width:8}</style>
<ellipse fill="#96408a" stroke="#ffffff" cx="672.65" cy="-334" rx="48.44" ry="31.11"/>
<text xml:space="preserve" text-anchor="middle" x="672.65" y="-342.5" font-family="Helvetica,sans-Serif" font-size="10.00" fill="#e0e0e0">tests2.</text>
<text xml:space="preserve" text-anchor="middle" x="672.65" y="-330.5" font-family="Helvetica,sans-Serif" font-size="10.00" fill="#e0e0e0">helpers.</text>
<text xml:space="preserve" text-anchor="middle" x="672.65" y="-318.5" font-family="Helvetica,sans-Serif" font-size="10.00" fill="#e0e0e0">test_logging</text>
</g>
<!-- pytest&#45;&gt;tests2_helpers_test_logging -->
<g id="edge5" class="edge">
<title>pytest&#45;&gt;tests2_helpers_test_logging</title><style>.edge>path:hover{stroke-width:8}</style>
<path fill="none" stroke="#ffffff" d="M295.41,-421.02C343.82,-426.16 451.22,-435.19 541.08,-426"/>
<path fill="none" stroke="#ffffff" d="M543.08,-426C581.88,-421.73 617.25,-393.81 641.03,-369.83"/>
<polygon fill="#c2b147" stroke="#ffffff" points="643.51,-372.3 647.9,-362.65 638.45,-367.46 643.51,-372.3"/>
</g>
<!-- pytest_asyncio -->
<g id="node4" class="node">
<title>pytest_asyncio</title><style>.edge>path:hover{stroke-width:8}</style>
<ellipse fill="#70b653" stroke="#ffffff" cx="672.65" cy="-590" rx="49.31" ry="18"/>
<text xml:space="preserve" text-anchor="middle" x="672.65" y="-586.5" font-family="Helvetica,sans-Serif" font-size="10.00" fill="#e0e0e0">pytest_asyncio</text>
</g>
<!-- pytest_asyncio&#45;&gt;tests2_conftest -->
<g id="edge6" class="edge">
<title>pytest_asyncio&#45;&gt;tests2_conftest</title><style>.edge>path:hover{stroke-width:8}</style>
<path fill="none" stroke="#ffffff" d="M701.77,-604.99C731.76,-620.18 777.37,-640.82 795.44,-636"/>
</g>
<!-- sqlalchemy -->
<g id="node5" class="node">
<title>sqlalchemy</title><style>.edge>path:hover{stroke-width:8}</style>
<ellipse fill="#26d98c" stroke="#ffffff" cx="268.49" cy="-738" rx="39.39" ry="18"/>
<text xml:space="preserve" text-anchor="middle" x="268.49" y="-734.5" font-family="Helvetica,sans-Serif" font-size="10.00" fill="#e0e0e0">sqlalchemy</text>
</g>
<!-- sqlalchemy&#45;&gt;tests2_conftest -->
<g id="edge7" class="edge">
<title>sqlalchemy&#45;&gt;tests2_conftest</title><style>.edge>path:hover{stroke-width:8}</style>
<path fill="none" stroke="#ffffff" d="M543.08,-738C616.57,-706.52 650.89,-755.63 721.96,-719 765.75,-696.42 747.84,-648.7 795.44,-636"/>
</g>
<!-- tests2_utils_db_config -->
<g id="node19" class="node">
<title>tests2_utils_db_config</title><style>.edge>path:hover{stroke-width:8}</style>
<ellipse fill="#b03a9f" stroke="#ffffff" cx="672.65" cy="-523" rx="41.01" ry="31.11"/>
<text xml:space="preserve" text-anchor="middle" x="672.65" y="-531.5" font-family="Helvetica,sans-Serif" font-size="10.00" fill="#e0e0e0">tests2.</text>
<text xml:space="preserve" text-anchor="middle" x="672.65" y="-519.5" font-family="Helvetica,sans-Serif" font-size="10.00" fill="#e0e0e0">utils.</text>
<text xml:space="preserve" text-anchor="middle" x="672.65" y="-507.5" font-family="Helvetica,sans-Serif" font-size="10.00" fill="#e0e0e0">db_config</text>
</g>
<!-- sqlalchemy&#45;&gt;tests2_utils_db_config -->
<g id="edge8" class="edge">
<title>sqlalchemy&#45;&gt;tests2_utils_db_config</title><style>.edge>path:hover{stroke-width:8}</style>
<path fill="none" stroke="#ffffff" d="M543.08,-738C623.62,-709.11 572.53,-631.85 623.34,-563 626.29,-559 629.73,-555.15 633.38,-551.53"/>
<polygon fill="#26d98c" stroke="#ffffff" points="635.49,-554.35 640.51,-545.02 630.76,-549.18 635.49,-554.35"/>
<path fill="none" stroke="#ffffff" d="M304.64,-745.34C357.68,-754.82 460.53,-766.9 541.08,-738"/>
</g>
<!-- sqlalchemy_ext -->
<g id="node6" class="node">
<title>sqlalchemy_ext</title><style>.edge>path:hover{stroke-width:8}</style>
<ellipse fill="#40c089" stroke="#ffffff" cx="268.49" cy="-636" rx="48.86" ry="18"/>
<text xml:space="preserve" text-anchor="middle" x="268.49" y="-632.5" font-family="Helvetica,sans-Serif" font-size="10.00" fill="#e0e0e0">sqlalchemy.ext</text>
</g>
<!-- sqlalchemy_ext&#45;&gt;tests2_conftest -->
<g id="edge9" class="edge">
<title>sqlalchemy_ext&#45;&gt;tests2_conftest</title><style>.edge>path:hover{stroke-width:8}</style>
<path fill="none" stroke="#ffffff" d="M543.08,-636C652.01,-609.28 687.06,-664.87 795.44,-636"/>
</g>
<!-- sqlalchemy_ext&#45;&gt;tests2_utils_db_config -->
<g id="edge10" class="edge">
<title>sqlalchemy_ext&#45;&gt;tests2_utils_db_config</title><style>.edge>path:hover{stroke-width:8}</style>
<path fill="none" stroke="#ffffff" d="M543.08,-636C590.3,-626.22 586.92,-594.61 623.34,-563 627.14,-559.7 631.14,-556.28 635.16,-552.91"/>
<polygon fill="#40c089" stroke="#ffffff" points="637.28,-555.69 642.71,-546.6 632.79,-550.32 637.28,-555.69"/>
<path fill="none" stroke="#ffffff" d="M315.23,-641.6C369.68,-646.98 463.05,-652.16 541.08,-636"/>
</g>
<!-- sqlalchemy_ext_asyncio -->
<g id="node7" class="node">
<title>sqlalchemy_ext_asyncio</title><style>.edge>path:hover{stroke-width:8}</style>
<ellipse fill="#47c28d" stroke="#ffffff" cx="268.49" cy="-523" rx="47.91" ry="31.11"/>
<text xml:space="preserve" text-anchor="middle" x="268.49" y="-531.5" font-family="Helvetica,sans-Serif" font-size="10.00" fill="#e0e0e0">sqlalchemy.</text>
<text xml:space="preserve" text-anchor="middle" x="268.49" y="-519.5" font-family="Helvetica,sans-Serif" font-size="10.00" fill="#e0e0e0">ext.</text>
<text xml:space="preserve" text-anchor="middle" x="268.49" y="-507.5" font-family="Helvetica,sans-Serif" font-size="10.00" fill="#e0e0e0">asyncio</text>
</g>
<!-- sqlalchemy_ext_asyncio&#45;&gt;tests2_conftest -->
<g id="edge11" class="edge">
<title>sqlalchemy_ext_asyncio&#45;&gt;tests2_conftest</title><style>.edge>path:hover{stroke-width:8}</style>
<path fill="none" stroke="#ffffff" d="M316.03,-518.13C370.07,-512.77 461.91,-504.57 541.08,-502"/>
<path fill="none" stroke="#ffffff" d="M543.08,-502C602.54,-498.22 618.62,-436.83 671.65,-464"/>
</g>
<!-- sqlalchemy_ext_asyncio&#45;&gt;tests2_utils_db_config -->
<g id="edge12" class="edge">
<title>sqlalchemy_ext_asyncio&#45;&gt;tests2_utils_db_config</title><style>.edge>path:hover{stroke-width:8}</style>
<path fill="none" stroke="#ffffff" d="M543.08,-502C569.5,-501.14 598.59,-505.44 622.41,-510.37"/>
<polygon fill="#47c28d" stroke="#ffffff" points="621.65,-513.79 632.17,-512.5 623.14,-506.95 621.65,-513.79"/>
</g>
<!-- src2 -->
<g id="node8" class="node">
<title>src2</title><style>.edge>path:hover{stroke-width:8}</style>
<ellipse fill="#1694f3" stroke="#ffffff" cx="32.17" cy="-348" rx="27" ry="18"/>
<text xml:space="preserve" text-anchor="middle" x="32.17" y="-344.5" font-family="Helvetica,sans-Serif" font-size="10.00" fill="#e0e0e0">src2</text>
</g>
<!-- src2&#45;&gt;tests2_conftest -->
<g id="edge13" class="edge">
<title>src2&#45;&gt;tests2_conftest</title><style>.edge>path:hover{stroke-width:8}</style>
<path fill="none" stroke="#ffffff" d="M142.99,-426C176.53,-436.31 184.89,-440.02 219.63,-445 319.15,-459.28 582.17,-418.16 671.65,-464"/>
</g>
<!-- tests2_helpers_config_test_config -->
<g id="node16" class="node">
<title>tests2_helpers_config_test_config</title><style>.edge>path:hover{stroke-width:8}</style>
<ellipse fill="#9d4390" stroke="#ffffff" cx="542.08" cy="-224" rx="45.25" ry="39.6"/>
<text xml:space="preserve" text-anchor="middle" x="542.08" y="-238.5" font-family="Helvetica,sans-Serif" font-size="10.00" fill="#e0e0e0">tests2.</text>
<text xml:space="preserve" text-anchor="middle" x="542.08" y="-226.5" font-family="Helvetica,sans-Serif" font-size="10.00" fill="#e0e0e0">helpers.</text>
<text xml:space="preserve" text-anchor="middle" x="542.08" y="-214.5" font-family="Helvetica,sans-Serif" font-size="10.00" fill="#e0e0e0">config.</text>
<text xml:space="preserve" text-anchor="middle" x="542.08" y="-202.5" font-family="Helvetica,sans-Serif" font-size="10.00" fill="#e0e0e0">test_config</text>
</g>
<!-- src2&#45;&gt;tests2_helpers_config_test_config -->
<g id="edge14" class="edge">
<title>src2&#45;&gt;tests2_helpers_config_test_config</title><style>.edge>path:hover{stroke-width:8}</style>
<path fill="none" stroke="#ffffff" d="M53.01,-335.99C66.01,-328.71 83.63,-319.89 100.34,-315 172.09,-293.99 194.09,-310.26 267.49,-296"/>
</g>
<!-- src2&#45;&gt;tests2_helpers_test_logging -->
<g id="edge15" class="edge">
<title>src2&#45;&gt;tests2_helpers_test_logging</title><style>.edge>path:hover{stroke-width:8}</style>
<path fill="none" stroke="#ffffff" d="M47.04,-363.16C66,-382.55 102.1,-414.94 140.99,-426"/>
<path fill="none" stroke="#ffffff" d="M142.99,-426C179,-436.25 183.88,-402.14 219.63,-391 220.71,-390.66 539.95,-333.95 541.08,-334"/>
</g>
<!-- src2_helpers -->
<g id="node9" class="node">
<title>src2_helpers</title><style>.edge>path:hover{stroke-width:8}</style>
<ellipse fill="#2293e7" stroke="#ffffff" cx="141.99" cy="-342" rx="41.64" ry="18"/>
<text xml:space="preserve" text-anchor="middle" x="141.99" y="-338.5" font-family="Helvetica,sans-Serif" font-size="10.00" fill="#e0e0e0">src2.helpers</text>
</g>
<!-- src2_helpers&#45;&gt;src2_main -->
<g id="edge16" class="edge">
<title>src2_helpers&#45;&gt;src2_main</title><style>.edge>path:hover{stroke-width:8}</style>
<path fill="none" stroke="#ffffff" d="M408.09,-334C450.06,-331.06 554.86,-299.75 587.34,-273 625.52,-241.54 649.92,-187.98 662.17,-154.93"/>
<polygon fill="#2293e7" stroke="#ffffff" points="665.44,-156.18 665.49,-145.59 658.84,-153.84 665.44,-156.18"/>
<path fill="none" stroke="#ffffff" d="M184.06,-341.87C235.88,-341.46 327.7,-339.86 406.09,-334"/>
</g>
<!-- src2_helpers&#45;&gt;tests2_helpers_config_test_config -->
<g id="edge17" class="edge">
<title>src2_helpers&#45;&gt;tests2_helpers_config_test_config</title><style>.edge>path:hover{stroke-width:8}</style>
<path fill="none" stroke="#ffffff" d="M269.49,-296C347.89,-288.93 435.38,-262.16 489.33,-243.34"/>
<polygon fill="#2293e7" stroke="#ffffff" points="490.31,-246.71 498.57,-240.08 487.97,-240.11 490.31,-246.71"/>
<path fill="none" stroke="#ffffff" d="M170.91,-328.7C195.66,-317.64 233.1,-302.68 267.49,-296"/>
</g>
<!-- src2_helpers&#45;&gt;tests2_helpers_test_logging -->
<g id="edge18" class="edge">
<title>src2_helpers&#45;&gt;tests2_helpers_test_logging</title><style>.edge>path:hover{stroke-width:8}</style>
<path fill="none" stroke="#ffffff" d="M408.09,-334C467.05,-329.87 482.04,-331.24 541.08,-334"/>
</g>
<!-- src2_helpers_config -->
<g id="node10" class="node">
<title>src2_helpers_config</title><style>.edge>path:hover{stroke-width:8}</style>
<ellipse fill="#2f91db" stroke="#ffffff" cx="268.49" cy="-161" rx="35.71" ry="31.11"/>
<text xml:space="preserve" text-anchor="middle" x="268.49" y="-169.5" font-family="Helvetica,sans-Serif" font-size="10.00" fill="#e0e0e0">src2.</text>
<text xml:space="preserve" text-anchor="middle" x="268.49" y="-157.5" font-family="Helvetica,sans-Serif" font-size="10.00" fill="#e0e0e0">helpers.</text>
<text xml:space="preserve" text-anchor="middle" x="268.49" y="-145.5" font-family="Helvetica,sans-Serif" font-size="10.00" fill="#e0e0e0">config</text>
</g>
<!-- src2_helpers_logging_setup -->
<g id="node12" class="node">
<title>src2_helpers_logging_setup</title><style>.edge>path:hover{stroke-width:8}</style>
<ellipse fill="#3573a1" stroke="#ffffff" cx="407.09" cy="-123" rx="53.74" ry="31.11"/>
<text xml:space="preserve" text-anchor="middle" x="407.09" y="-131.5" font-family="Helvetica,sans-Serif" font-size="10.00" fill="#e0e0e0">src2.</text>
<text xml:space="preserve" text-anchor="middle" x="407.09" y="-119.5" font-family="Helvetica,sans-Serif" font-size="10.00" fill="#e0e0e0">helpers.</text>
<text xml:space="preserve" text-anchor="middle" x="407.09" y="-107.5" font-family="Helvetica,sans-Serif" font-size="10.00" fill="#e0e0e0">logging_setup</text>
</g>
<!-- src2_helpers_config&#45;&gt;src2_helpers_logging_setup -->
<g id="edge19" class="edge">
<title>src2_helpers_config&#45;&gt;src2_helpers_logging_setup</title><style>.edge>path:hover{stroke-width:8}</style>
<path fill="none" stroke="#ffffff" d="M302.9,-151.7C316.25,-147.99 332.03,-143.6 347.18,-139.39"/>
<polygon fill="#2f91db" stroke="#ffffff" points="347.9,-142.82 356.59,-136.77 346.02,-136.08 347.9,-142.82"/>
</g>
<!-- src2_helpers_config&#45;&gt;src2_main -->
<g id="edge20" class="edge">
<title>src2_helpers_config&#45;&gt;src2_main</title><style>.edge>path:hover{stroke-width:8}</style>
<path fill="none" stroke="#ffffff" d="M303.52,-168.52C331.03,-174.04 370.84,-180.78 406.09,-182"/>
<path fill="none" stroke="#ffffff" d="M408.09,-182C473.64,-184.26 475.49,-117.21 541.08,-118"/>
</g>
<!-- src2_helpers_config&#45;&gt;tests2_helpers_config_test_config -->
<g id="edge21" class="edge">
<title>src2_helpers_config&#45;&gt;tests2_helpers_config_test_config</title><style>.edge>path:hover{stroke-width:8}</style>
<path fill="none" stroke="#ffffff" d="M408.09,-182C436.44,-182.98 466.7,-191.86 491.18,-201.2"/>
<polygon fill="#2f91db" stroke="#ffffff" points="489.65,-204.36 500.23,-204.8 492.23,-197.86 489.65,-204.36"/>
</g>
<!-- src2_helpers_config_config -->
<g id="node11" class="node">
<title>src2_helpers_config_config</title><style>.edge>path:hover{stroke-width:8}</style>
<ellipse fill="#2f7fbc" stroke="#ffffff" cx="141.99" cy="-190" rx="35.71" ry="39.6"/>
<text xml:space="preserve" text-anchor="middle" x="141.99" y="-204.5" font-family="Helvetica,sans-Serif" font-size="10.00" fill="#e0e0e0">src2.</text>
<text xml:space="preserve" text-anchor="middle" x="141.99" y="-192.5" font-family="Helvetica,sans-Serif" font-size="10.00" fill="#e0e0e0">helpers.</text>
<text xml:space="preserve" text-anchor="middle" x="141.99" y="-180.5" font-family="Helvetica,sans-Serif" font-size="10.00" fill="#e0e0e0">config.</text>
<text xml:space="preserve" text-anchor="middle" x="141.99" y="-168.5" font-family="Helvetica,sans-Serif" font-size="10.00" fill="#e0e0e0">config</text>
</g>
<!-- src2_helpers_config_config&#45;&gt;src2_helpers_logging_setup -->
<g id="edge22" class="edge">
<title>src2_helpers_config_config&#45;&gt;src2_helpers_logging_setup</title><style>.edge>path:hover{stroke-width:8}</style>
<path fill="none" stroke="#ffffff" d="M269.49,-102C295.55,-92.94 325.75,-96.26 351.13,-102.66"/>
<polygon fill="#2f7fbc" stroke="#ffffff" points="350.01,-105.98 360.58,-105.27 351.88,-99.23 350.01,-105.98"/>
</g>
<!-- src2_helpers_config_config&#45;&gt;src2_main -->
<g id="edge23" class="edge">
<title>src2_helpers_config_config&#45;&gt;src2_main</title><style>.edge>path:hover{stroke-width:8}</style>
<path fill="none" stroke="#ffffff" d="M269.49,-102C329.01,-81.31 343.54,-56.32 406.09,-64"/>
<path fill="none" stroke="#ffffff" d="M168.4,-162.88C182.49,-148.99 200.92,-132.61 219.63,-121 239.07,-108.93 245.87,-109.51 267.49,-102"/>
</g>
<!-- src2_helpers_config_config&#45;&gt;tests2_helpers_config_test_config -->
<g id="edge24" class="edge">
<title>src2_helpers_config_config&#45;&gt;tests2_helpers_config_test_config</title><style>.edge>path:hover{stroke-width:8}</style>
<path fill="none" stroke="#ffffff" d="M177.64,-195.51C190.77,-197.45 205.86,-199.52 219.63,-201 312.46,-210.97 420.84,-217.71 485.07,-221.2"/>
<polygon fill="#2f7fbc" stroke="#ffffff" points="484.85,-224.7 495.02,-221.74 485.22,-217.71 484.85,-224.7"/>
</g>
<!-- src2_helpers_logging_setup&#45;&gt;src2_main -->
<g id="edge25" class="edge">
<title>src2_helpers_logging_setup&#45;&gt;src2_main</title><style>.edge>path:hover{stroke-width:8}</style>
<path fill="none" stroke="#ffffff" d="M460.82,-119.81C485.23,-118.65 514.63,-117.68 541.08,-118"/>
</g>
<!-- src2_helpers_logging_setup&#45;&gt;tests2_helpers_test_logging -->
<g id="edge26" class="edge">
<title>src2_helpers_logging_setup&#45;&gt;tests2_helpers_test_logging</title><style>.edge>path:hover{stroke-width:8}</style>
<path fill="none" stroke="#ffffff" d="M460.61,-127.3C499.31,-132.88 551.26,-145.66 587.34,-175 624.57,-205.28 647.48,-256.47 659.84,-292.57"/>
<polygon fill="#3573a1" stroke="#ffffff" points="656.43,-293.4 662.87,-301.82 663.08,-291.22 656.43,-293.4"/>
</g>
<!-- src2_main&#45;&gt;tests2_conftest -->
<g id="edge27" class="edge">
<title>src2_main&#45;&gt;tests2_conftest</title><style>.edge>path:hover{stroke-width:8}</style>
<path fill="none" stroke="#ffffff" d="M797.44,-636C847.13,-622.76 885.12,-462.99 899.69,-391.82"/>
<polygon fill="#3a6688" stroke="#ffffff" points="903.06,-392.78 901.6,-382.29 896.2,-391.4 903.06,-392.78"/>
<path fill="none" stroke="#ffffff" d="M679.27,-144.04C688.73,-174.68 708.14,-238.95 721.96,-294 740.87,-369.4 720.33,-656.01 795.44,-636"/>
</g>
<!-- structlog -->
<g id="node14" class="node">
<title>structlog</title><style>.edge>path:hover{stroke-width:8}</style>
<ellipse fill="#5926d9" stroke="#ffffff" cx="32.17" cy="-205" rx="32.17" ry="18"/>
<text xml:space="preserve" text-anchor="middle" x="32.17" y="-201.5" font-family="Helvetica,sans-Serif" font-size="10.00" fill="#e0e0e0">structlog</text>
</g>
<!-- structlog&#45;&gt;src2_helpers_logging_setup -->
<g id="edge28" class="edge">
<title>structlog&#45;&gt;src2_helpers_logging_setup</title><style>.edge>path:hover{stroke-width:8}</style>
<path fill="none" stroke="#ffffff" d="M269.49,-64C301.35,-67.35 334.41,-81.31 360.02,-94.8"/>
<polygon fill="#5926d9" stroke="#ffffff" points="358.02,-97.7 368.47,-99.4 361.36,-91.55 358.02,-97.7"/>
</g>
<!-- structlog&#45;&gt;src2_main -->
<g id="edge29" class="edge">
<title>structlog&#45;&gt;src2_main</title><style>.edge>path:hover{stroke-width:8}</style>
<path fill="none" stroke="#ffffff" d="M269.49,-64C329.86,-70.35 345.83,-56.6 406.09,-64"/>
<path fill="none" stroke="#ffffff" d="M408.09,-64C432.82,-67.04 437.67,-73.79 460.83,-83 496.98,-97.38 502.17,-117.53 541.08,-118"/>
<path fill="none" stroke="#ffffff" d="M543.08,-118C570.78,-118.33 601.78,-120.22 626.4,-122.07"/>
<polygon fill="#5926d9" stroke="#ffffff" points="625.82,-125.54 636.06,-122.83 626.37,-118.56 625.82,-125.54"/>
<path fill="none" stroke="#ffffff" d="M46.32,-188.66C79.56,-149.42 171.17,-53.86 267.49,-64"/>
</g>
<!-- structlog&#45;&gt;tests2_helpers_test_logging -->
<g id="edge30" class="edge">
<title>structlog&#45;&gt;tests2_helpers_test_logging</title><style>.edge>path:hover{stroke-width:8}</style>
<path fill="none" stroke="#ffffff" d="M543.08,-334C565.74,-335.47 590.69,-335.77 612.53,-335.6"/>
<polygon fill="#5926d9" stroke="#ffffff" points="612.5,-339.1 622.46,-335.49 612.42,-332.1 612.5,-339.1"/>
<path fill="none" stroke="#ffffff" d="M55.23,-217.98C68.04,-225.05 84.7,-233.46 100.34,-239 123.95,-247.36 516.09,-332.38 541.08,-334"/>
</g>
<!-- tests2_utils -->
<g id="node18" class="node">
<title>tests2_utils</title><style>.edge>path:hover{stroke-width:8}</style>
<ellipse fill="#c247b1" stroke="#ffffff" cx="796.44" cy="-358" rx="38.49" ry="18"/>
<text xml:space="preserve" text-anchor="middle" x="796.44" y="-354.5" font-family="Helvetica,sans-Serif" font-size="10.00" fill="#e0e0e0">tests2.utils</text>
</g>
<!-- tests2_utils&#45;&gt;tests2_conftest -->
<g id="edge31" class="edge">
<title>tests2_utils&#45;&gt;tests2_conftest</title><style>.edge>path:hover{stroke-width:8}</style>
<path fill="none" stroke="#ffffff" d="M835.16,-358C843,-358 851.35,-358 859.46,-358"/>
<polygon fill="#c247b1" stroke="#ffffff" points="859.19,-361.5 869.19,-358 859.19,-354.5 859.19,-361.5"/>
</g>
<!-- tests2_utils_db_config&#45;&gt;tests2_conftest -->
<g id="edge32" class="edge">
<title>tests2_utils_db_config&#45;&gt;tests2_conftest</title><style>.edge>path:hover{stroke-width:8}</style>
<path fill="none" stroke="#ffffff" d="M701.6,-545.42C708.37,-551.05 715.5,-557.15 721.96,-563 756.05,-593.93 750.96,-647.85 795.44,-636"/>
</g>
</g>
</svg>

