<?xml version="1.0" encoding="UTF-8" standalone="no"?>
<!DOCTYPE svg PUBLIC "-//W3C//DTD SVG 1.1//EN"
 "http://www.w3.org/Graphics/SVG/1.1/DTD/svg11.dtd">
<!-- Generated by graphviz version 15.0.0 (20260523.1842)
 -->
<!-- Title: G Pages: 1 -->
<svg style="background-color:#141414" width="1628pt" height="594pt"
 viewBox="0.00 0.00 1628.00 594.00" xmlns="http://www.w3.org/2000/svg" xmlns:xlink="http://www.w3.org/1999/xlink">
<g id="graph0" class="graph" transform="scale(1 1) rotate(0) translate(4 590)">
<title>G</title><style>.edge>path:hover{stroke-width:8}</style>
<polygon fill="#141414" stroke="none" points="-4,4 -4,-590 1624.24,-590 1624.24,4 -4,4"/>
<!-- annotated_doc -->
<g id="node1" class="node">
<title>annotated_doc</title><style>.edge>path:hover{stroke-width:8}</style>
<polygon fill="#f90606" stroke="#ffffff" points="1067,-388 1064,-392 1043,-392 1040,-388 987.25,-388 987.25,-352 1067,-352 1067,-388"/>
<text xml:space="preserve" text-anchor="middle" x="1027.12" y="-366.5" font-family="Helvetica,sans-Serif" font-size="10.00" fill="#e0e0e0">annotated_doc</text>
</g>
<!-- fastapi -->
<g id="node7" class="node">
<title>fastapi</title><style>.edge>path:hover{stroke-width:8}</style>
<polygon fill="#5a5a5a" stroke="#ffffff" points="1266.25,-434 1263.25,-438 1242.25,-438 1239.25,-434 1212.25,-434 1212.25,-398 1266.25,-398 1266.25,-434"/>
<text xml:space="preserve" text-anchor="middle" x="1239.25" y="-412.5" font-family="Helvetica,sans-Serif" font-size="10.00" fill="#e0e0e0">fastapi</text>
</g>
<!-- annotated_doc&#45;&gt;fastapi -->
<g id="edge1" class="edge">
<title>annotated_doc&#45;&gt;fastapi</title><style>.edge>path:hover{stroke-width:8}</style>
<path fill="none" stroke="#ffffff" d="M1052.83,-388.24C1072.44,-400.93 1101.09,-415.64 1129,-416"/>
<path fill="none" stroke="#ffffff" d="M1131,-416C1154.03,-416.3 1179.85,-416.31 1200.39,-416.24"/>
<polygon fill="#f90606" stroke="#ffffff" points="1200.31,-419.74 1210.29,-416.2 1200.28,-412.74 1200.31,-419.74"/>
</g>
<!-- annotated_types -->
<g id="node2" class="node">
<title>annotated_types</title><style>.edge>path:hover{stroke-width:8}</style>
<polygon fill="#d94c26" stroke="#ffffff" points="508,-111 505,-115 484,-115 481,-111 420,-111 420,-75 508,-75 508,-111"/>
<text xml:space="preserve" text-anchor="middle" x="464" y="-89.5" font-family="Helvetica,sans-Serif" font-size="10.00" fill="#e0e0e0">annotated_types</text>
</g>
<!-- pydantic -->
<g id="node15" class="node">
<title>pydantic</title><style>.edge>path:hover{stroke-width:8}</style>
<polygon fill="#5a5a5a" stroke="#ffffff" points="945.5,-166 942.5,-170 921.5,-170 918.5,-166 891.5,-166 891.5,-130 945.5,-130 945.5,-166"/>
<text xml:space="preserve" text-anchor="middle" x="918.5" y="-144.5" font-family="Helvetica,sans-Serif" font-size="10.00" fill="#e0e0e0">pydantic</text>
</g>
<!-- annotated_types&#45;&gt;pydantic -->
<g id="edge2" class="edge">
<title>annotated_types&#45;&gt;pydantic</title><style>.edge>path:hover{stroke-width:8}</style>
<path fill="none" stroke="#ffffff" d="M806.75,-154C830.74,-148.86 858.28,-147.35 879.9,-147.13"/>
<polygon fill="#d94c26" stroke="#ffffff" points="879.73,-150.63 889.72,-147.13 879.72,-143.63 879.73,-150.63"/>
<path fill="none" stroke="#ffffff" d="M481.23,-74.89C506.54,-48.92 556.81,-6.59 598,-29 656.12,-60.62 613.48,-143.89 678.88,-154"/>
<path fill="none" stroke="#ffffff" d="M680.88,-154C735.42,-161.5 750.92,-165.53 804.75,-154"/>
</g>
<!-- anyio -->
<g id="node3" class="node">
<title>anyio</title><style>.edge>path:hover{stroke-width:8}</style>
<polygon fill="#5a5a5a" stroke="#ffffff" points="945.5,-448 942.5,-452 921.5,-452 918.5,-448 891.5,-448 891.5,-412 945.5,-412 945.5,-448"/>
<text xml:space="preserve" text-anchor="middle" x="918.5" y="-426.5" font-family="Helvetica,sans-Serif" font-size="10.00" fill="#e0e0e0">anyio</text>
</g>
<!-- anyio&#45;&gt;fastapi -->
<g id="edge3" class="edge">
<title>anyio&#45;&gt;fastapi</title><style>.edge>path:hover{stroke-width:8}</style>
<path fill="none" stroke="#ffffff" d="M945.87,-438.8C967.23,-445.22 998.25,-452.99 1026.12,-454"/>
<path fill="none" stroke="#ffffff" d="M1028.12,-454C1076,-455.74 1081.1,-415.38 1129,-416"/>
</g>
<!-- starlette -->
<g id="node23" class="node">
<title>starlette</title><style>.edge>path:hover{stroke-width:8}</style>
<polygon fill="#b710f9" stroke="#ffffff" points="1157,-480 1154,-484 1133,-484 1130,-480 1103,-480 1103,-444 1157,-444 1157,-480"/>
<text xml:space="preserve" text-anchor="middle" x="1130" y="-458.5" font-family="Helvetica,sans-Serif" font-size="10.00" fill="#e0e0e0">starlette</text>
</g>
<!-- anyio&#45;&gt;starlette -->
<g id="edge4" class="edge">
<title>anyio&#45;&gt;starlette</title><style>.edge>path:hover{stroke-width:8}</style>
<path fill="none" stroke="#ffffff" d="M1028.12,-454C1049.11,-454.76 1072.48,-456.56 1091.45,-458.25"/>
<polygon fill="#5a5a5a" stroke="#ffffff" points="1091.12,-461.74 1101.4,-459.17 1091.77,-454.77 1091.12,-461.74"/>
</g>
<!-- click -->
<g id="node4" class="node">
<title>click</title><style>.edge>path:hover{stroke-width:8}</style>
<polygon fill="#5a5a5a" stroke="#ffffff" points="491,-532 488,-536 467,-536 464,-532 437,-532 437,-496 491,-496 491,-532"/>
<text xml:space="preserve" text-anchor="middle" x="464" y="-510.5" font-family="Helvetica,sans-Serif" font-size="10.00" fill="#e0e0e0">click</text>
</g>
<!-- uvicorn -->
<g id="node28" class="node">
<title>uvicorn</title><style>.edge>path:hover{stroke-width:8}</style>
<polygon fill="#5a5a5a" stroke="#ffffff" points="832.75,-586 829.75,-590 808.75,-590 805.75,-586 778.75,-586 778.75,-550 832.75,-550 832.75,-586"/>
<text xml:space="preserve" text-anchor="middle" x="805.75" y="-564.5" font-family="Helvetica,sans-Serif" font-size="10.00" fill="#e0e0e0">uvicorn</text>
</g>
<!-- click&#45;&gt;uvicorn -->
<g id="edge5" class="edge">
<title>click&#45;&gt;uvicorn</title><style>.edge>path:hover{stroke-width:8}</style>
<path fill="none" stroke="#ffffff" d="M491.34,-530.97C511.84,-542.8 541.5,-556.97 570,-560"/>
<path fill="none" stroke="#ffffff" d="M572,-560C640.61,-567.29 721.17,-568.42 767.26,-568.36"/>
<polygon fill="#5a5a5a" stroke="#ffffff" points="766.98,-571.86 776.97,-568.32 766.96,-564.86 766.98,-571.86"/>
</g>
<!-- colorama -->
<g id="node5" class="node">
<title>colorama</title><style>.edge>path:hover{stroke-width:8}</style>
<polygon fill="#5a5a5a" stroke="#ffffff" points="276.5,-425 273.5,-429 252.5,-429 249.5,-425 220.75,-425 220.75,-389 276.5,-389 276.5,-425"/>
<text xml:space="preserve" text-anchor="middle" x="248.62" y="-403.5" font-family="Helvetica,sans-Serif" font-size="10.00" fill="#e0e0e0">colorama</text>
</g>
<!-- colorama&#45;&gt;click -->
<g id="edge6" class="edge">
<title>colorama&#45;&gt;click</title><style>.edge>path:hover{stroke-width:8}</style>
<path fill="none" stroke="#ffffff" d="M276.65,-420.55C314.59,-439.58 383.76,-474.26 426.32,-495.61"/>
<polygon fill="#5a5a5a" stroke="#ffffff" points="424.67,-498.69 435.18,-500.05 427.81,-492.44 424.67,-498.69"/>
</g>
<!-- structlog -->
<g id="node24" class="node">
<title>structlog</title><style>.edge>path:hover{stroke-width:8}</style>
<polygon fill="#5a5a5a" stroke="#ffffff" points="832.75,-318 829.75,-322 808.75,-322 805.75,-318 778.75,-318 778.75,-282 832.75,-282 832.75,-318"/>
<text xml:space="preserve" text-anchor="middle" x="805.75" y="-296.5" font-family="Helvetica,sans-Serif" font-size="10.00" fill="#e0e0e0">structlog</text>
</g>
<!-- colorama&#45;&gt;structlog -->
<g id="edge7" class="edge">
<title>colorama&#45;&gt;structlog</title><style>.edge>path:hover{stroke-width:8}</style>
<path fill="none" stroke="#ffffff" d="M276.97,-399.35C368.45,-373.86 659.14,-293.79 678.88,-300"/>
</g>
<!-- dotenv -->
<g id="node6" class="node">
<title>dotenv</title><style>.edge>path:hover{stroke-width:8}</style>
<polygon fill="#bac431" stroke="#ffffff" points="598,-128 595,-132 574,-132 571,-128 544,-128 544,-92 598,-92 598,-128"/>
<text xml:space="preserve" text-anchor="middle" x="571" y="-106.5" font-family="Helvetica,sans-Serif" font-size="10.00" fill="#e0e0e0">dotenv</text>
</g>
<!-- dotenv&#45;&gt;pydantic -->
<g id="edge8" class="edge">
<title>dotenv&#45;&gt;pydantic</title><style>.edge>path:hover{stroke-width:8}</style>
<path fill="none" stroke="#ffffff" d="M598.2,-124.91C619.23,-135.84 649.92,-149.52 678.88,-154"/>
</g>
<!-- pydantic_settings -->
<g id="node17" class="node">
<title>pydantic_settings</title><style>.edge>path:hover{stroke-width:8}</style>
<polygon fill="#5a5a5a" stroke="#ffffff" points="1285.5,-182 1282.5,-186 1261.5,-186 1258.5,-182 1193,-182 1193,-146 1285.5,-146 1285.5,-182"/>
<text xml:space="preserve" text-anchor="middle" x="1239.25" y="-160.5" font-family="Helvetica,sans-Serif" font-size="10.00" fill="#e0e0e0">pydantic_settings</text>
</g>
<!-- dotenv&#45;&gt;pydantic_settings -->
<g id="edge9" class="edge">
<title>dotenv&#45;&gt;pydantic_settings</title><style>.edge>path:hover{stroke-width:8}</style>
<path fill="none" stroke="#ffffff" d="M1131,-156C1147.42,-157.14 1165.25,-158.44 1181.57,-159.66"/>
<polygon fill="#bac431" stroke="#ffffff" points="1180.85,-163.12 1191.08,-160.38 1181.37,-156.14 1180.85,-163.12"/>
<path fill="none" stroke="#ffffff" d="M598.3,-109.41C660.08,-108.31 819.24,-107.19 951.25,-121 1003.25,-126.44 1015.77,-131.57 1067,-142 1094.68,-147.63 1100.82,-154.04 1129,-156"/>
</g>
<!-- dotenv&#45;&gt;uvicorn -->
<g id="edge10" class="edge">
<title>dotenv&#45;&gt;uvicorn</title><style>.edge>path:hover{stroke-width:8}</style>
<path fill="none" stroke="#ffffff" d="M580.03,-128.26C585.52,-141.16 592.73,-158.95 598,-175 617.89,-235.64 610.15,-254.81 634,-314 677.26,-421.38 681.88,-457.2 761.75,-541 764.11,-543.47 766.73,-545.82 769.5,-548.01"/>
<polygon fill="#bac431" stroke="#ffffff" points="767.21,-550.68 777.39,-553.62 771.27,-544.97 767.21,-550.68"/>
</g>
<!-- main_py -->
<g id="node11" class="node">
<title>main_py</title><style>.edge>path:hover{stroke-width:8}</style>
<ellipse fill="#35633c" stroke="#ffffff" cx="1589.87" cy="-362" rx="30.37" ry="18"/>
<text xml:space="preserve" text-anchor="middle" x="1589.87" y="-358.5" font-family="Helvetica,sans-Serif" font-size="10.00" fill="#e0e0e0">main.py</text>
</g>
<!-- fastapi&#45;&gt;main_py -->
<g id="edge11" class="edge">
<title>fastapi&#45;&gt;main_py</title><style>.edge>path:hover{stroke-width:8}</style>
<path fill="none" stroke="#ffffff" d="M1322.5,-362C1336.33,-353.96 1342.72,-359.37 1358.5,-362"/>
</g>
<!-- src -->
<g id="node22" class="node">
<title>src</title><style>.edge>path:hover{stroke-width:8}</style>
<polygon fill="#8510f9" stroke="#ffffff" points="1449.5,-334 1446.5,-338 1425.5,-338 1422.5,-334 1395.5,-334 1395.5,-298 1449.5,-298 1449.5,-334"/>
<text xml:space="preserve" text-anchor="middle" x="1422.5" y="-312.5" font-family="Helvetica,sans-Serif" font-size="10.00" fill="#e0e0e0">src</text>
</g>
<!-- fastapi&#45;&gt;src -->
<g id="edge12" class="edge">
<title>fastapi&#45;&gt;src</title><style>.edge>path:hover{stroke-width:8}</style>
<path fill="none" stroke="#ffffff" d="M1266.09,-397.67C1281.81,-386.81 1302.46,-373.06 1321.5,-362"/>
<path fill="none" stroke="#ffffff" d="M1322.5,-362C1342.62,-350.31 1336.68,-315.94 1358.5,-324"/>
</g>
<!-- greenlet -->
<g id="node8" class="node">
<title>greenlet</title><style>.edge>path:hover{stroke-width:8}</style>
<polygon fill="#7fcc33" stroke="#ffffff" points="598,-74 595,-78 574,-78 571,-74 544,-74 544,-38 598,-38 598,-74"/>
<text xml:space="preserve" text-anchor="middle" x="571" y="-52.5" font-family="Helvetica,sans-Serif" font-size="10.00" fill="#e0e0e0">greenlet</text>
</g>
<!-- sqlalchemy -->
<g id="node21" class="node">
<title>sqlalchemy</title><style>.edge>path:hover{stroke-width:8}</style>
<polygon fill="#5a5a5a" stroke="#ffffff" points="951.25,-36 948.25,-40 927.25,-40 924.25,-36 885.75,-36 885.75,0 951.25,0 951.25,-36"/>
<text xml:space="preserve" text-anchor="middle" x="918.5" y="-14.5" font-family="Helvetica,sans-Serif" font-size="10.00" fill="#e0e0e0">sqlalchemy</text>
</g>
<!-- greenlet&#45;&gt;sqlalchemy -->
<g id="edge13" class="edge">
<title>greenlet&#45;&gt;sqlalchemy</title><style>.edge>path:hover{stroke-width:8}</style>
<path fill="none" stroke="#ffffff" d="M598.32,-40.69C619.41,-29.91 650.13,-17.47 678.88,-18"/>
</g>
<!-- greenlet&#45;&gt;structlog -->
<g id="edge14" class="edge">
<title>greenlet&#45;&gt;structlog</title><style>.edge>path:hover{stroke-width:8}</style>
<path fill="none" stroke="#ffffff" d="M680.88,-300C708.86,-308.8 742.19,-308.22 767.22,-305.76"/>
<polygon fill="#7fcc33" stroke="#ffffff" points="767.4,-309.27 776.94,-304.65 766.6,-302.31 767.4,-309.27"/>
<path fill="none" stroke="#ffffff" d="M592.28,-74.37C594.47,-77.09 596.46,-79.99 598,-83 638.76,-162.61 578.1,-211.18 634,-281 647.54,-297.91 658.21,-293.5 678.88,-300"/>
</g>
<!-- h11 -->
<g id="node9" class="node">
<title>h11</title><style>.edge>path:hover{stroke-width:8}</style>
<polygon fill="#509933" stroke="#ffffff" points="375.25,-578 372.25,-582 351.25,-582 348.25,-578 321.25,-578 321.25,-542 375.25,-542 375.25,-578"/>
<text xml:space="preserve" text-anchor="middle" x="348.25" y="-556.5" font-family="Helvetica,sans-Serif" font-size="10.00" fill="#e0e0e0">h11</text>
</g>
<!-- h11&#45;&gt;uvicorn -->
<g id="edge15" class="edge">
<title>h11&#45;&gt;uvicorn</title><style>.edge>path:hover{stroke-width:8}</style>
<path fill="none" stroke="#ffffff" d="M375.53,-558.54C398.63,-557.61 433.13,-557.06 463,-560"/>
</g>
<!-- idna -->
<g id="node10" class="node">
<title>idna</title><style>.edge>path:hover{stroke-width:8}</style>
<polygon fill="#5a5a5a" stroke="#ffffff" points="598,-402 595,-406 574,-406 571,-402 544,-402 544,-366 598,-366 598,-402"/>
<text xml:space="preserve" text-anchor="middle" x="571" y="-380.5" font-family="Helvetica,sans-Serif" font-size="10.00" fill="#e0e0e0">idna</text>
</g>
<!-- idna&#45;&gt;anyio -->
<g id="edge16" class="edge">
<title>idna&#45;&gt;anyio</title><style>.edge>path:hover{stroke-width:8}</style>
<path fill="none" stroke="#ffffff" d="M598.42,-400.73C619.32,-412.6 649.74,-426.96 678.88,-430"/>
<path fill="none" stroke="#ffffff" d="M680.88,-430C750.79,-437.3 832.95,-434.84 879.76,-432.41"/>
<polygon fill="#5a5a5a" stroke="#ffffff" points="879.84,-435.91 889.63,-431.86 879.46,-428.92 879.84,-435.91"/>
</g>
<!-- markdown_it -->
<g id="node12" class="node">
<title>markdown_it</title><style>.edge>path:hover{stroke-width:8}</style>
<polygon fill="#5a5a5a" stroke="#ffffff" points="384,-207 381,-211 360,-211 357,-207 312.5,-207 312.5,-171 384,-171 384,-207"/>
<text xml:space="preserve" text-anchor="middle" x="348.25" y="-185.5" font-family="Helvetica,sans-Serif" font-size="10.00" fill="#e0e0e0">markdown_it</text>
</g>
<!-- rich -->
<g id="node20" class="node">
<title>rich</title><style>.edge>path:hover{stroke-width:8}</style>
<polygon fill="#5a5a5a" stroke="#ffffff" points="598,-220 595,-224 574,-224 571,-220 544,-220 544,-184 598,-184 598,-220"/>
<text xml:space="preserve" text-anchor="middle" x="571" y="-198.5" font-family="Helvetica,sans-Serif" font-size="10.00" fill="#e0e0e0">rich</text>
</g>
<!-- markdown_it&#45;&gt;rich -->
<g id="edge17" class="edge">
<title>markdown_it&#45;&gt;rich</title><style>.edge>path:hover{stroke-width:8}</style>
<path fill="none" stroke="#ffffff" d="M465,-243C489,-241.36 514.15,-231.84 533.83,-222.39"/>
<polygon fill="#5a5a5a" stroke="#ffffff" points="535.15,-225.64 542.51,-218.03 532.01,-219.39 535.15,-225.64"/>
<path fill="none" stroke="#ffffff" d="M379.18,-207.35C406.73,-223.47 445.83,-244.18 463,-243"/>
</g>
<!-- mdurl -->
<g id="node13" class="node">
<title>mdurl</title><style>.edge>path:hover{stroke-width:8}</style>
<polygon fill="#5a5a5a" stroke="#ffffff" points="54,-207 51,-211 30,-211 27,-207 0,-207 0,-171 54,-171 54,-207"/>
<text xml:space="preserve" text-anchor="middle" x="27" y="-185.5" font-family="Helvetica,sans-Serif" font-size="10.00" fill="#e0e0e0">mdurl</text>
</g>
<!-- mdurl&#45;&gt;markdown_it -->
<g id="edge18" class="edge">
<title>mdurl&#45;&gt;markdown_it</title><style>.edge>path:hover{stroke-width:8}</style>
<path fill="none" stroke="#ffffff" d="M54.4,-189C108.63,-189 233.17,-189 301.06,-189"/>
<polygon fill="#5a5a5a" stroke="#ffffff" points="300.73,-192.5 310.73,-189 300.73,-185.5 300.73,-192.5"/>
</g>
<!-- multipart -->
<g id="node14" class="node">
<title>multipart</title><style>.edge>path:hover{stroke-width:8}</style>
<polygon fill="#33ccab" stroke="#ffffff" points="945.5,-540 942.5,-544 921.5,-544 918.5,-540 891.5,-540 891.5,-504 945.5,-504 945.5,-540"/>
<text xml:space="preserve" text-anchor="middle" x="918.5" y="-518.5" font-family="Helvetica,sans-Serif" font-size="10.00" fill="#e0e0e0">multipart</text>
</g>
<!-- multipart&#45;&gt;fastapi -->
<g id="edge19" class="edge">
<title>multipart&#45;&gt;fastapi</title><style>.edge>path:hover{stroke-width:8}</style>
<path fill="none" stroke="#ffffff" d="M1131,-530C1169.13,-509.43 1201.36,-470.27 1220.25,-443.65"/>
<polygon fill="#33ccab" stroke="#ffffff" points="1222.93,-445.93 1225.74,-435.71 1217.17,-441.95 1222.93,-445.93"/>
<path fill="none" stroke="#ffffff" d="M1028.12,-530C1072.62,-524.51 1089.54,-551.28 1129,-530"/>
</g>
<!-- multipart&#45;&gt;starlette -->
<g id="edge20" class="edge">
<title>multipart&#45;&gt;starlette</title><style>.edge>path:hover{stroke-width:8}</style>
<path fill="none" stroke="#ffffff" d="M945.86,-526.87C967.48,-530.17 998.86,-533.37 1026.12,-530"/>
<path fill="none" stroke="#ffffff" d="M1028.12,-530C1057.8,-526.34 1085.51,-505.93 1104.34,-488.41"/>
<polygon fill="#33ccab" stroke="#ffffff" points="1106.78,-490.92 1111.51,-481.44 1101.9,-485.91 1106.78,-490.92"/>
</g>
<!-- pydantic&#45;&gt;fastapi -->
<g id="edge21" class="edge">
<title>pydantic&#45;&gt;fastapi</title><style>.edge>path:hover{stroke-width:8}</style>
<path fill="none" stroke="#ffffff" d="M1028.12,-156C1100.05,-169.21 1073.91,-237.9 1129,-286"/>
<path fill="none" stroke="#ffffff" d="M1131,-286C1166.49,-316.98 1199.76,-360.42 1219.57,-388.39"/>
<polygon fill="#5a5a5a" stroke="#ffffff" points="1216.53,-390.15 1225.13,-396.35 1222.27,-386.14 1216.53,-390.15"/>
</g>
<!-- pydantic&#45;&gt;pydantic_settings -->
<g id="edge22" class="edge">
<title>pydantic&#45;&gt;pydantic_settings</title><style>.edge>path:hover{stroke-width:8}</style>
<path fill="none" stroke="#ffffff" d="M1028.12,-156C1072.22,-164.1 1084.21,-154.07 1129,-156"/>
</g>
<!-- pydantic&#45;&gt;src -->
<g id="edge23" class="edge">
<title>pydantic&#45;&gt;src</title><style>.edge>path:hover{stroke-width:8}</style>
<path fill="none" stroke="#ffffff" d="M945.99,-148.42C967.69,-149.14 999.1,-151.04 1026.12,-156"/>
<path fill="none" stroke="#ffffff" d="M1028.12,-156C1061.42,-162.11 1069.69,-148.07 1103,-142 1163.06,-131.06 1183.15,-91.71 1238.25,-118"/>
</g>
<!-- pydantic_core -->
<g id="node16" class="node">
<title>pydantic_core</title><style>.edge>path:hover{stroke-width:8}</style>
<polygon fill="#5a5a5a" stroke="#ffffff" points="718.25,-272 715.25,-276 694.25,-276 691.25,-272 641.5,-272 641.5,-236 718.25,-236 718.25,-272"/>
<text xml:space="preserve" text-anchor="middle" x="679.88" y="-250.5" font-family="Helvetica,sans-Serif" font-size="10.00" fill="#e0e0e0">pydantic_core</text>
</g>
<!-- pydantic_core&#45;&gt;fastapi -->
<g id="edge24" class="edge">
<title>pydantic_core&#45;&gt;fastapi</title><style>.edge>path:hover{stroke-width:8}</style>
<path fill="none" stroke="#ffffff" d="M806.75,-232C856.95,-231.85 976.05,-282.33 1026.12,-286"/>
</g>
<!-- pydantic_core&#45;&gt;pydantic -->
<g id="edge25" class="edge">
<title>pydantic_core&#45;&gt;pydantic</title><style>.edge>path:hover{stroke-width:8}</style>
<path fill="none" stroke="#ffffff" d="M713.27,-235.6C717.56,-232.85 721.82,-229.95 725.75,-227 763.99,-198.3 758,-164.01 804.75,-154"/>
</g>
<!-- pydantic_core&#45;&gt;pydantic_settings -->
<g id="edge26" class="edge">
<title>pydantic_core&#45;&gt;pydantic_settings</title><style>.edge>path:hover{stroke-width:8}</style>
<path fill="none" stroke="#ffffff" d="M718.52,-243.83C742.91,-238.11 775.48,-232.09 804.75,-232"/>
<path fill="none" stroke="#ffffff" d="M806.75,-232C858.79,-231.84 866.11,-202.17 917.5,-194"/>
</g>
<!-- pydantic_settings&#45;&gt;src -->
<g id="edge27" class="edge">
<title>pydantic_settings&#45;&gt;src</title><style>.edge>path:hover{stroke-width:8}</style>
<path fill="none" stroke="#ffffff" d="M1285.67,-152.49C1298.94,-151.88 1312.33,-154.42 1321.5,-164"/>
</g>
<!-- pygments -->
<g id="node18" class="node">
<title>pygments</title><style>.edge>path:hover{stroke-width:8}</style>
<polygon fill="#5a5a5a" stroke="#ffffff" points="377.62,-261 374.62,-265 353.62,-265 350.62,-261 318.88,-261 318.88,-225 377.62,-225 377.62,-261"/>
<text xml:space="preserve" text-anchor="middle" x="348.25" y="-239.5" font-family="Helvetica,sans-Serif" font-size="10.00" fill="#e0e0e0">pygments</text>
</g>
<!-- pygments&#45;&gt;rich -->
<g id="edge28" class="edge">
<title>pygments&#45;&gt;rich</title><style>.edge>path:hover{stroke-width:8}</style>
<path fill="none" stroke="#ffffff" d="M377.8,-244.08C400.83,-244.69 434.04,-244.98 463,-243"/>
</g>
<!-- python_multipart -->
<g id="node19" class="node">
<title>python_multipart</title><style>.edge>path:hover{stroke-width:8}</style>
<polygon fill="#1936e6" stroke="#ffffff" points="849.75,-532 846.75,-536 825.75,-536 822.75,-532 761.75,-532 761.75,-496 849.75,-496 849.75,-532"/>
<text xml:space="preserve" text-anchor="middle" x="805.75" y="-510.5" font-family="Helvetica,sans-Serif" font-size="10.00" fill="#e0e0e0">python_multipart</text>
</g>
<!-- python_multipart&#45;&gt;fastapi -->
<g id="edge29" class="edge">
<title>python_multipart&#45;&gt;fastapi</title><style>.edge>path:hover{stroke-width:8}</style>
<path fill="none" stroke="#ffffff" d="M839.92,-532.39C853.67,-539.02 870.05,-545.68 885.75,-549 991.84,-571.45 1033.56,-581.48 1129,-530"/>
</g>
<!-- python_multipart&#45;&gt;multipart -->
<g id="edge30" class="edge">
<title>python_multipart&#45;&gt;multipart</title><style>.edge>path:hover{stroke-width:8}</style>
<path fill="none" stroke="#ffffff" d="M850.2,-517.14C860.03,-517.85 870.37,-518.6 879.93,-519.29"/>
<polygon fill="#1936e6" stroke="#ffffff" points="879.37,-522.75 889.6,-519.98 879.88,-515.77 879.37,-522.75"/>
</g>
<!-- python_multipart&#45;&gt;starlette -->
<g id="edge31" class="edge">
<title>python_multipart&#45;&gt;starlette</title><style>.edge>path:hover{stroke-width:8}</style>
<path fill="none" stroke="#ffffff" d="M841.13,-495.53C862.49,-485.77 890.87,-475.81 917.5,-476"/>
</g>
<!-- rich&#45;&gt;pydantic -->
<g id="edge32" class="edge">
<title>rich&#45;&gt;pydantic</title><style>.edge>path:hover{stroke-width:8}</style>
<path fill="none" stroke="#ffffff" d="M593.83,-183.53C614.69,-168.04 647.52,-149.15 678.88,-154"/>
</g>
<!-- rich&#45;&gt;structlog -->
<g id="edge33" class="edge">
<title>rich&#45;&gt;structlog</title><style>.edge>path:hover{stroke-width:8}</style>
<path fill="none" stroke="#ffffff" d="M582.47,-220.18C593.4,-237.76 611.98,-264.16 634,-281 651.2,-294.16 658.21,-293.5 678.88,-300"/>
</g>
<!-- sqlalchemy&#45;&gt;src -->
<g id="edge34" class="edge">
<title>sqlalchemy&#45;&gt;src</title><style>.edge>path:hover{stroke-width:8}</style>
<path fill="none" stroke="#ffffff" d="M1322.5,-164C1372.9,-216.66 1290.12,-298.76 1358.5,-324"/>
<path fill="none" stroke="#ffffff" d="M1240.25,-118C1278.22,-134.75 1292.81,-134.02 1321.5,-164"/>
<path fill="none" stroke="#ffffff" d="M1359.5,-324C1367.18,-326.84 1375.72,-327.3 1383.94,-326.56"/>
<polygon fill="#5a5a5a" stroke="#ffffff" points="1384.4,-330.03 1393.74,-325.04 1383.32,-323.11 1384.4,-330.03"/>
<path fill="none" stroke="#ffffff" d="M951.57,-25.53C1010.01,-39.81 1137.16,-73.41 1238.25,-118"/>
</g>
<!-- src&#45;&gt;main_py -->
<g id="edge35" class="edge">
<title>src&#45;&gt;main_py</title><style>.edge>path:hover{stroke-width:8}</style>
<path fill="none" stroke="#ffffff" d="M1439.26,-334.27C1450.69,-345.69 1467.28,-358.8 1485.5,-362"/>
<path fill="none" stroke="#ffffff" d="M1486.5,-362C1506.55,-365.52 1529.16,-365.89 1548.02,-365.22"/>
<polygon fill="#8510f9" stroke="#ffffff" points="1548.18,-368.72 1558,-364.75 1547.85,-361.73 1548.18,-368.72"/>
</g>
<!-- starlette&#45;&gt;fastapi -->
<g id="edge36" class="edge">
<title>starlette&#45;&gt;fastapi</title><style>.edge>path:hover{stroke-width:8}</style>
<path fill="none" stroke="#ffffff" d="M1157.24,-450.75C1170.61,-445.01 1187.09,-437.94 1201.69,-431.68"/>
<polygon fill="#b710f9" stroke="#ffffff" points="1202.71,-435.05 1210.52,-427.89 1199.95,-428.62 1202.71,-435.05"/>
</g>
<!-- structlog&#45;&gt;main_py -->
<g id="edge37" class="edge">
<title>structlog&#45;&gt;main_py</title><style>.edge>path:hover{stroke-width:8}</style>
<path fill="none" stroke="#ffffff" d="M1359.5,-362C1414.74,-371.19 1430.84,-349.83 1485.5,-362"/>
<path fill="none" stroke="#ffffff" d="M833.21,-294.59C868.25,-287.72 932.08,-276.25 987.25,-272 1062.47,-266.2 1083.21,-256.27 1157,-272 1168.99,-274.56 1346.39,-360.07 1358.5,-362"/>
</g>
<!-- structlog&#45;&gt;src -->
<g id="edge38" class="edge">
<title>structlog&#45;&gt;src</title><style>.edge>path:hover{stroke-width:8}</style>
<path fill="none" stroke="#ffffff" d="M833.02,-303.29C887.89,-309.86 1018.76,-324 1129,-324 1129,-324 1129,-324 1240.25,-324 1292.81,-324 1309.2,-305.8 1358.5,-324"/>
</g>
<!-- tomli -->
<g id="node25" class="node">
<title>tomli</title><style>.edge>path:hover{stroke-width:8}</style>
<polygon fill="#b653a8" stroke="#ffffff" points="832.75,-82 829.75,-86 808.75,-86 805.75,-82 778.75,-82 778.75,-46 832.75,-46 832.75,-82"/>
<text xml:space="preserve" text-anchor="middle" x="805.75" y="-60.5" font-family="Helvetica,sans-Serif" font-size="10.00" fill="#e0e0e0">tomli</text>
</g>
<!-- tomli&#45;&gt;pydantic_settings -->
<g id="edge39" class="edge">
<title>tomli&#45;&gt;pydantic_settings</title><style>.edge>path:hover{stroke-width:8}</style>
<path fill="none" stroke="#ffffff" d="M832.97,-65.71C880.32,-69.22 982.98,-78.76 1067,-100 1108.09,-110.39 1152.92,-127.35 1186.39,-141.21"/>
<polygon fill="#b653a8" stroke="#ffffff" points="1184.87,-144.37 1195.45,-145 1187.58,-137.91 1184.87,-144.37"/>
</g>
<!-- typing_extensions -->
<g id="node26" class="node">
<title>typing_extensions</title><style>.edge>path:hover{stroke-width:8}</style>
<polygon fill="#f910a6" stroke="#ffffff" points="184.75,-318 181.75,-322 160.75,-322 157.75,-318 90,-318 90,-282 184.75,-282 184.75,-318"/>
<text xml:space="preserve" text-anchor="middle" x="137.38" y="-296.5" font-family="Helvetica,sans-Serif" font-size="10.00" fill="#e0e0e0">typing_extensions</text>
</g>
<!-- typing_extensions&#45;&gt;annotated_types -->
<g id="edge40" class="edge">
<title>typing_extensions&#45;&gt;annotated_types</title><style>.edge>path:hover{stroke-width:8}</style>
<path fill="none" stroke="#ffffff" d="M349.25,-121C368.73,-117.47 389.85,-112.58 408.53,-107.87"/>
<polygon fill="#f910a6" stroke="#ffffff" points="409.24,-111.3 418.05,-105.43 407.5,-104.52 409.24,-111.3"/>
</g>
<!-- typing_extensions&#45;&gt;anyio -->
<g id="edge41" class="edge">
<title>typing_extensions&#45;&gt;anyio</title><style>.edge>path:hover{stroke-width:8}</style>
<path fill="none" stroke="#ffffff" d="M249.62,-300C267.08,-299.11 527.07,-406.67 544,-411 602.65,-425.99 618.78,-422.68 678.88,-430"/>
</g>
<!-- typing_extensions&#45;&gt;click -->
<g id="edge42" class="edge">
<title>typing_extensions&#45;&gt;click</title><style>.edge>path:hover{stroke-width:8}</style>
<path fill="none" stroke="#ffffff" d="M349.25,-514C374.69,-514 403.34,-514 425.52,-514"/>
<polygon fill="#f910a6" stroke="#ffffff" points="425.28,-517.5 435.28,-514 425.28,-510.5 425.28,-517.5"/>
</g>
<!-- typing_extensions&#45;&gt;fastapi -->
<g id="edge43" class="edge">
<title>typing_extensions&#45;&gt;fastapi</title><style>.edge>path:hover{stroke-width:8}</style>
<path fill="none" stroke="#ffffff" d="M572,-300C574.95,-299.76 984.34,-396.47 987.25,-397 1049.77,-408.46 1065.44,-415.18 1129,-416"/>
</g>
<!-- typing_extensions&#45;&gt;h11 -->
<g id="edge44" class="edge">
<title>typing_extensions&#45;&gt;h11</title><style>.edge>path:hover{stroke-width:8}</style>
<path fill="none" stroke="#ffffff" d="M249.62,-514C267.91,-528.17 291.26,-539.37 310.54,-547.17"/>
<polygon fill="#f910a6" stroke="#ffffff" points="309.07,-550.35 319.66,-550.71 311.6,-543.82 309.07,-550.35"/>
</g>
<!-- typing_extensions&#45;&gt;markdown_it -->
<g id="edge45" class="edge">
<title>typing_extensions&#45;&gt;markdown_it</title><style>.edge>path:hover{stroke-width:8}</style>
<path fill="none" stroke="#ffffff" d="M249.62,-300C296.18,-297.28 279.82,-249.27 312.5,-216 312.86,-215.63 313.23,-215.26 313.6,-214.9"/>
<polygon fill="#f910a6" stroke="#ffffff" points="315.69,-217.72 320.76,-208.42 311,-212.53 315.69,-217.72"/>
<path fill="none" stroke="#ffffff" d="M185.19,-301.2C204.54,-301.38 227.18,-301.19 247.62,-300"/>
</g>
<!-- typing_extensions&#45;&gt;pydantic -->
<g id="edge46" class="edge">
<title>typing_extensions&#45;&gt;pydantic</title><style>.edge>path:hover{stroke-width:8}</style>
<path fill="none" stroke="#ffffff" d="M349.25,-121C367.36,-117.72 660.64,-151.49 678.88,-154"/>
</g>
<!-- typing_extensions&#45;&gt;pydantic_core -->
<g id="edge47" class="edge">
<title>typing_extensions&#45;&gt;pydantic_core</title><style>.edge>path:hover{stroke-width:8}</style>
<path fill="none" stroke="#ffffff" d="M572,-300C595.9,-298.09 620.6,-288.07 640.24,-277.86"/>
<polygon fill="#f910a6" stroke="#ffffff" points="641.85,-280.97 648.97,-273.11 638.51,-274.82 641.85,-280.97"/>
</g>
<!-- typing_extensions&#45;&gt;rich -->
<g id="edge48" class="edge">
<title>typing_extensions&#45;&gt;rich</title><style>.edge>path:hover{stroke-width:8}</style>
<path fill="none" stroke="#ffffff" d="M249.62,-300C344.3,-294.48 370.34,-320.21 463,-300"/>
<path fill="none" stroke="#ffffff" d="M465,-300C503.51,-290.85 534.63,-255.38 552.72,-229.73"/>
<polygon fill="#f910a6" stroke="#ffffff" points="555.44,-231.96 558.15,-221.72 549.65,-228.03 555.44,-231.96"/>
</g>
<!-- typing_extensions&#45;&gt;sqlalchemy -->
<g id="edge49" class="edge">
<title>typing_extensions&#45;&gt;sqlalchemy</title><style>.edge>path:hover{stroke-width:8}</style>
<path fill="none" stroke="#ffffff" d="M349.25,-121C388.36,-113.48 385.27,-85.5 420,-66 471.39,-37.15 486.07,-29.83 544,-19 602.92,-7.98 618.94,-16.9 678.88,-18"/>
<path fill="none" stroke="#ffffff" d="M680.88,-18C748.06,-12.44 826.33,-14.01 873.88,-15.85"/>
<polygon fill="#f910a6" stroke="#ffffff" points="873.63,-19.34 883.77,-16.26 873.92,-12.35 873.63,-19.34"/>
<path fill="none" stroke="#ffffff" d="M149.17,-281.79C176.11,-238.79 251.13,-133.65 347.25,-121"/>
</g>
<!-- typing_extensions&#45;&gt;starlette -->
<g id="edge50" class="edge">
<title>typing_extensions&#45;&gt;starlette</title><style>.edge>path:hover{stroke-width:8}</style>
<path fill="none" stroke="#ffffff" d="M349.25,-514C382.91,-514 387.35,-495.17 420,-487 485.19,-470.68 502.8,-468 570,-468 570,-468 570,-468 680.88,-468 786.1,-468 812.28,-475.26 917.5,-476"/>
<path fill="none" stroke="#ffffff" d="M249.62,-514C283.92,-540.57 303.87,-513.34 347.25,-514"/>
<path fill="none" stroke="#ffffff" d="M142.16,-318.28C151.8,-360.01 181.34,-462.65 247.62,-514"/>
<path fill="none" stroke="#ffffff" d="M919.5,-476C979.68,-475.89 1049.37,-470.1 1091.27,-466"/>
<polygon fill="#f910a6" stroke="#ffffff" points="1091.47,-469.5 1101.07,-465.02 1090.78,-462.53 1091.47,-469.5"/>
</g>
<!-- typing_extensions&#45;&gt;structlog -->
<g id="edge51" class="edge">
<title>typing_extensions&#45;&gt;structlog</title><style>.edge>path:hover{stroke-width:8}</style>
<path fill="none" stroke="#ffffff" d="M572,-300C619.35,-296.22 633.74,-285.19 678.88,-300"/>
</g>
<!-- typing_inspection -->
<g id="node27" class="node">
<title>typing_inspection</title><style>.edge>path:hover{stroke-width:8}</style>
<polygon fill="#f91074" stroke="#ffffff" points="725.75,-218 722.75,-222 701.75,-222 698.75,-218 634,-218 634,-182 725.75,-182 725.75,-218"/>
<text xml:space="preserve" text-anchor="middle" x="679.88" y="-196.5" font-family="Helvetica,sans-Serif" font-size="10.00" fill="#e0e0e0">typing_inspection</text>
</g>
<!-- typing_extensions&#45;&gt;typing_inspection -->
<g id="edge52" class="edge">
<title>typing_extensions&#45;&gt;typing_inspection</title><style>.edge>path:hover{stroke-width:8}</style>
<path fill="none" stroke="#ffffff" d="M465,-300C510.4,-289.21 523.48,-303.71 570,-300"/>
<path fill="none" stroke="#ffffff" d="M572,-300C614.43,-296.61 601.56,-254.56 634,-227 634.79,-226.33 635.6,-225.67 636.42,-225.01"/>
<polygon fill="#f910a6" stroke="#ffffff" points="638.42,-227.88 644.44,-219.17 634.3,-222.22 638.42,-227.88"/>
</g>
<!-- typing_extensions&#45;&gt;uvicorn -->
<g id="edge53" class="edge">
<title>typing_extensions&#45;&gt;uvicorn</title><style>.edge>path:hover{stroke-width:8}</style>
<path fill="none" stroke="#ffffff" d="M465,-560C511.44,-564.57 523.76,-553.68 570,-560"/>
<path fill="none" stroke="#ffffff" d="M349.25,-514C403.78,-514 408.73,-554.66 463,-560"/>
</g>
<!-- typing_inspection&#45;&gt;fastapi -->
<g id="edge54" class="edge">
<title>typing_inspection&#45;&gt;fastapi</title><style>.edge>path:hover{stroke-width:8}</style>
<path fill="none" stroke="#ffffff" d="M1028.12,-286C1072.22,-294.08 1095.23,-256.52 1129,-286"/>
<path fill="none" stroke="#ffffff" d="M806.75,-194C874.88,-198.07 888.87,-218.29 951.25,-246 985.73,-261.32 989.01,-279.2 1026.12,-286"/>
</g>
<!-- typing_inspection&#45;&gt;pydantic -->
<g id="edge55" class="edge">
<title>typing_inspection&#45;&gt;pydantic</title><style>.edge>path:hover{stroke-width:8}</style>
<path fill="none" stroke="#ffffff" d="M721.28,-181.61C745.07,-171.65 776.04,-160.15 804.75,-154"/>
</g>
<!-- typing_inspection&#45;&gt;pydantic_settings -->
<g id="edge56" class="edge">
<title>typing_inspection&#45;&gt;pydantic_settings</title><style>.edge>path:hover{stroke-width:8}</style>
<path fill="none" stroke="#ffffff" d="M806.75,-194C855.88,-196.93 868.45,-198.1 917.5,-194"/>
<path fill="none" stroke="#ffffff" d="M919.5,-194C985.69,-188.46 1001.8,-182.65 1067,-170 1094.73,-164.62 1100.78,-154.78 1129,-156"/>
<path fill="none" stroke="#ffffff" d="M726.19,-195.46C749.65,-193.7 778.74,-192.45 804.75,-194"/>
</g>
<!-- uvicorn&#45;&gt;main_py -->
<g id="edge57" class="edge">
<title>uvicorn&#45;&gt;main_py</title><style>.edge>path:hover{stroke-width:8}</style>
<path fill="none" stroke="#ffffff" d="M833.23,-572.54C880.57,-579.85 982.65,-591.98 1067,-577 1179.16,-557.08 1202.28,-520.79 1285.5,-443 1320.9,-409.9 1310.32,-367.21 1358.5,-362"/>
</g>
</g>
</svg>

