<?xml version="1.0" encoding="UTF-8" standalone="no"?>
<!DOCTYPE svg PUBLIC "-//W3C//DTD SVG 1.1//EN"
 "http://www.w3.org/Graphics/SVG/1.1/DTD/svg11.dtd">
<!-- Generated by graphviz version 15.0.0 (20260523.1842)
 -->
<!-- Title: G Pages: 1 -->
<svg style="background-color:#141414" width="857pt" height="748pt"
 viewBox="0.00 0.00 857.00 748.00" xmlns="http://www.w3.org/2000/svg" xmlns:xlink="http://www.w3.org/1999/xlink">
<g id="graph0" class="graph" transform="scale(1 1) rotate(0) translate(4 744.06)">
<title>G</title><style>.edge>path:hover{stroke-width:8}</style>
<polygon fill="#141414" stroke="none" points="-4,4 -4,-744.06 853.41,-744.06 853.41,4 -4,4"/>
<!-- fastapi -->
<g id="node1" class="node">
<title>fastapi</title><style>.edge>path:hover{stroke-width:8}</style>
<ellipse fill="#c24747" stroke="#ffffff" cx="165.89" cy="-250" rx="27.21" ry="18"/>
<text xml:space="preserve" text-anchor="middle" x="165.89" y="-246.5" font-family="Helvetica,sans-Serif" font-size="10.00" fill="#e0e0e0">fastapi</text>
</g>
<!-- src_main -->
<g id="node13" class="node">
<title>src_main</title><style>.edge>path:hover{stroke-width:8}</style>
<ellipse fill="#467ca4" stroke="#ffffff" cx="396.34" cy="-314" rx="32.17" ry="18"/>
<text xml:space="preserve" text-anchor="middle" x="396.34" y="-310.5" font-family="Helvetica,sans-Serif" font-size="10.00" fill="#e0e0e0">src.main</text>
</g>
<!-- fastapi&#45;&gt;src_main -->
<g id="edge1" class="edge">
<title>fastapi&#45;&gt;src_main</title><style>.edge>path:hover{stroke-width:8}</style>
<path fill="none" stroke="#ffffff" d="M273.55,-242C311.83,-243.18 313.98,-267.65 347.03,-287 352.08,-289.96 357.47,-293.04 362.74,-296.01"/>
<polygon fill="#c24747" stroke="#ffffff" points="360.87,-298.98 371.3,-300.81 364.29,-292.87 360.87,-298.98"/>
</g>
<!-- tests_conftest -->
<g id="node15" class="node">
<title>tests_conftest</title><style>.edge>path:hover{stroke-width:8}</style>
<ellipse fill="#6b2e62" stroke="#ffffff" cx="670.83" cy="-337" rx="45.7" ry="18"/>
<text xml:space="preserve" text-anchor="middle" x="670.83" y="-333.5" font-family="Helvetica,sans-Serif" font-size="10.00" fill="#e0e0e0">tests.conftest</text>
</g>
<!-- fastapi&#45;&gt;tests_conftest -->
<g id="edge2" class="edge">
<title>fastapi&#45;&gt;tests_conftest</title><style>.edge>path:hover{stroke-width:8}</style>
<path fill="none" stroke="#ffffff" d="M192.66,-246.49C213.82,-243.97 244.59,-241.17 271.55,-242"/>
<path fill="none" stroke="#ffffff" d="M273.55,-242C330.22,-243.75 339.54,-214.09 395.34,-204"/>
</g>
<!-- fastapi_testclient -->
<g id="node2" class="node">
<title>fastapi_testclient</title><style>.edge>path:hover{stroke-width:8}</style>
<ellipse fill="#b65353" stroke="#ffffff" cx="396.34" cy="-255" rx="39.42" ry="22.63"/>
<text xml:space="preserve" text-anchor="middle" x="396.34" y="-257.5" font-family="Helvetica,sans-Serif" font-size="10.00" fill="#e0e0e0">fastapi.</text>
<text xml:space="preserve" text-anchor="middle" x="396.34" y="-245.5" font-family="Helvetica,sans-Serif" font-size="10.00" fill="#e0e0e0">testclient</text>
</g>
<!-- fastapi_testclient&#45;&gt;tests_conftest -->
<g id="edge3" class="edge">
<title>fastapi_testclient&#45;&gt;tests_conftest</title><style>.edge>path:hover{stroke-width:8}</style>
<path fill="none" stroke="#ffffff" d="M422.1,-237.38C458.59,-211.88 523.68,-168.42 534.39,-175"/>
</g>
<!-- pytest -->
<g id="node3" class="node">
<title>pytest</title><style>.edge>path:hover{stroke-width:8}</style>
<ellipse fill="#c2b147" stroke="#ffffff" cx="396.34" cy="-406" rx="27" ry="18"/>
<text xml:space="preserve" text-anchor="middle" x="396.34" y="-402.5" font-family="Helvetica,sans-Serif" font-size="10.00" fill="#e0e0e0">pytest</text>
</g>
<!-- pytest&#45;&gt;tests_conftest -->
<g id="edge4" class="edge">
<title>pytest&#45;&gt;tests_conftest</title><style>.edge>path:hover{stroke-width:8}</style>
<path fill="none" stroke="#ffffff" d="M536.39,-414C578.52,-412.2 619.36,-383.42 644.53,-361.57"/>
<polygon fill="#c2b147" stroke="#ffffff" points="646.84,-364.19 651.94,-354.91 642.16,-358.99 646.84,-364.19"/>
<path fill="none" stroke="#ffffff" d="M423.35,-409.08C450.9,-411.99 495.7,-415.66 534.39,-414"/>
</g>
<!-- tests_helpers_test_logging -->
<g id="node17" class="node">
<title>tests_helpers_test_logging</title><style>.edge>path:hover{stroke-width:8}</style>
<ellipse fill="#96408a" stroke="#ffffff" cx="800.97" cy="-560" rx="48.44" ry="31.11"/>
<text xml:space="preserve" text-anchor="middle" x="800.97" y="-568.5" font-family="Helvetica,sans-Serif" font-size="10.00" fill="#e0e0e0">tests.</text>
<text xml:space="preserve" text-anchor="middle" x="800.97" y="-556.5" font-family="Helvetica,sans-Serif" font-size="10.00" fill="#e0e0e0">helpers.</text>
<text xml:space="preserve" text-anchor="middle" x="800.97" y="-544.5" font-family="Helvetica,sans-Serif" font-size="10.00" fill="#e0e0e0">test_logging</text>
</g>
<!-- pytest&#45;&gt;tests_helpers_test_logging -->
<g id="edge5" class="edge">
<title>pytest&#45;&gt;tests_helpers_test_logging</title><style>.edge>path:hover{stroke-width:8}</style>
<path fill="none" stroke="#ffffff" d="M671.83,-452C711.77,-465.26 747.49,-498.02 771,-524"/>
<polygon fill="#c2b147" stroke="#ffffff" points="768.26,-526.19 777.5,-531.38 773.52,-521.56 768.26,-526.19"/>
<path fill="none" stroke="#ffffff" d="M536.39,-414C598,-411.36 611.31,-432.57 669.83,-452"/>
</g>
<!-- pytest_asyncio -->
<g id="node4" class="node">
<title>pytest_asyncio</title><style>.edge>path:hover{stroke-width:8}</style>
<ellipse fill="#70b653" stroke="#ffffff" cx="396.34" cy="-78" rx="49.31" ry="18"/>
<text xml:space="preserve" text-anchor="middle" x="396.34" y="-74.5" font-family="Helvetica,sans-Serif" font-size="10.00" fill="#e0e0e0">pytest_asyncio</text>
</g>
<!-- pytest_asyncio&#45;&gt;tests_conftest -->
<g id="edge6" class="edge">
<title>pytest_asyncio&#45;&gt;tests_conftest</title><style>.edge>path:hover{stroke-width:8}</style>
<path fill="none" stroke="#ffffff" d="M425.64,-92.83C432.32,-96.6 439.34,-100.78 445.65,-105 487.43,-132.9 491.59,-148.7 534.39,-175"/>
</g>
<!-- sqlalchemy -->
<g id="node5" class="node">
<title>sqlalchemy</title><style>.edge>path:hover{stroke-width:8}</style>
<ellipse fill="#26d98c" stroke="#ffffff" cx="48.86" cy="-204" rx="39.39" ry="18"/>
<text xml:space="preserve" text-anchor="middle" x="48.86" y="-200.5" font-family="Helvetica,sans-Serif" font-size="10.00" fill="#e0e0e0">sqlalchemy</text>
</g>
<!-- sqlalchemy&#45;&gt;tests_conftest -->
<g id="edge7" class="edge">
<title>sqlalchemy&#45;&gt;tests_conftest</title><style>.edge>path:hover{stroke-width:8}</style>
<path fill="none" stroke="#ffffff" d="M273.55,-204C327.15,-196.46 342.07,-213.64 395.34,-204"/>
<path fill="none" stroke="#ffffff" d="M397.34,-204C458.61,-192.92 481.35,-142.4 534.39,-175"/>
</g>
<!-- tests_utils_db_config -->
<g id="node19" class="node">
<title>tests_utils_db_config</title><style>.edge>path:hover{stroke-width:8}</style>
<ellipse fill="#b03a9f" stroke="#ffffff" cx="396.34" cy="-145" rx="41.01" ry="31.11"/>
<text xml:space="preserve" text-anchor="middle" x="396.34" y="-153.5" font-family="Helvetica,sans-Serif" font-size="10.00" fill="#e0e0e0">tests.</text>
<text xml:space="preserve" text-anchor="middle" x="396.34" y="-141.5" font-family="Helvetica,sans-Serif" font-size="10.00" fill="#e0e0e0">utils.</text>
<text xml:space="preserve" text-anchor="middle" x="396.34" y="-129.5" font-family="Helvetica,sans-Serif" font-size="10.00" fill="#e0e0e0">db_config</text>
</g>
<!-- sqlalchemy&#45;&gt;tests_utils_db_config -->
<g id="edge8" class="edge">
<title>sqlalchemy&#45;&gt;tests_utils_db_config</title><style>.edge>path:hover{stroke-width:8}</style>
<path fill="none" stroke="#ffffff" d="M88.07,-206.7C132.37,-209.2 207.52,-211.52 271.55,-204"/>
<path fill="none" stroke="#ffffff" d="M273.55,-204C302.93,-199.87 332.97,-185.45 355.86,-171.9"/>
<polygon fill="#26d98c" stroke="#ffffff" points="357.54,-174.98 364.24,-166.77 353.89,-169.01 357.54,-174.98"/>
</g>
<!-- sqlalchemy_ext -->
<g id="node6" class="node">
<title>sqlalchemy_ext</title><style>.edge>path:hover{stroke-width:8}</style>
<ellipse fill="#40c089" stroke="#ffffff" cx="48.86" cy="-18" rx="48.86" ry="18"/>
<text xml:space="preserve" text-anchor="middle" x="48.86" y="-14.5" font-family="Helvetica,sans-Serif" font-size="10.00" fill="#e0e0e0">sqlalchemy.ext</text>
</g>
<!-- sqlalchemy_ext&#45;&gt;tests_conftest -->
<g id="edge9" class="edge">
<title>sqlalchemy_ext&#45;&gt;tests_conftest</title><style>.edge>path:hover{stroke-width:8}</style>
<path fill="none" stroke="#ffffff" d="M166.89,-32C212.9,-38.84 225.21,-36.09 271.55,-32"/>
<path fill="none" stroke="#ffffff" d="M536.39,-175C591.16,-208.65 633.81,-272.86 655.04,-309.52"/>
<polygon fill="#40c089" stroke="#ffffff" points="651.74,-310.79 659.71,-317.77 657.83,-307.34 651.74,-310.79"/>
<path fill="none" stroke="#ffffff" d="M273.55,-32C350.2,-25.23 379.25,-12.11 445.65,-51 504.13,-85.25 476.65,-139.52 534.39,-175"/>
<path fill="none" stroke="#ffffff" d="M96.11,-23.06C117.13,-25.51 142.3,-28.64 164.89,-32"/>
</g>
<!-- sqlalchemy_ext&#45;&gt;tests_utils_db_config -->
<g id="edge10" class="edge">
<title>sqlalchemy_ext&#45;&gt;tests_utils_db_config</title><style>.edge>path:hover{stroke-width:8}</style>
<path fill="none" stroke="#ffffff" d="M166.89,-32C215.84,-39.28 225.24,-52.54 271.55,-70"/>
<path fill="none" stroke="#ffffff" d="M273.55,-70C303.77,-81.39 334.73,-100.57 357.87,-116.68"/>
<polygon fill="#40c089" stroke="#ffffff" points="355.55,-119.33 365.73,-122.26 359.6,-113.62 355.55,-119.33"/>
</g>
<!-- sqlalchemy_ext_asyncio -->
<g id="node7" class="node">
<title>sqlalchemy_ext_asyncio</title><style>.edge>path:hover{stroke-width:8}</style>
<ellipse fill="#47c28d" stroke="#ffffff" cx="48.86" cy="-85" rx="47.91" ry="31.11"/>
<text xml:space="preserve" text-anchor="middle" x="48.86" y="-93.5" font-family="Helvetica,sans-Serif" font-size="10.00" fill="#e0e0e0">sqlalchemy.</text>
<text xml:space="preserve" text-anchor="middle" x="48.86" y="-81.5" font-family="Helvetica,sans-Serif" font-size="10.00" fill="#e0e0e0">ext.</text>
<text xml:space="preserve" text-anchor="middle" x="48.86" y="-69.5" font-family="Helvetica,sans-Serif" font-size="10.00" fill="#e0e0e0">asyncio</text>
</g>
<!-- sqlalchemy_ext_asyncio&#45;&gt;tests_conftest -->
<g id="edge11" class="edge">
<title>sqlalchemy_ext_asyncio&#45;&gt;tests_conftest</title><style>.edge>path:hover{stroke-width:8}</style>
<path fill="none" stroke="#ffffff" d="M96.38,-79.41C117.34,-76.77 142.39,-73.44 164.89,-70"/>
<path fill="none" stroke="#ffffff" d="M166.89,-70C215.8,-62.51 222.25,-36.36 271.55,-32"/>
</g>
<!-- sqlalchemy_ext_asyncio&#45;&gt;tests_utils_db_config -->
<g id="edge12" class="edge">
<title>sqlalchemy_ext_asyncio&#45;&gt;tests_utils_db_config</title><style>.edge>path:hover{stroke-width:8}</style>
<path fill="none" stroke="#ffffff" d="M166.89,-70C212.87,-62.96 228.02,-53.59 271.55,-70"/>
</g>
<!-- src -->
<g id="node8" class="node">
<title>src</title><style>.edge>path:hover{stroke-width:8}</style>
<ellipse fill="#1694f3" stroke="#ffffff" cx="165.89" cy="-608" rx="27" ry="18"/>
<text xml:space="preserve" text-anchor="middle" x="165.89" y="-604.5" font-family="Helvetica,sans-Serif" font-size="10.00" fill="#e0e0e0">src</text>
</g>
<!-- src&#45;&gt;tests_conftest -->
<g id="edge13" class="edge">
<title>src&#45;&gt;tests_conftest</title><style>.edge>path:hover{stroke-width:8}</style>
<path fill="none" stroke="#ffffff" d="M174.91,-590.84C186.35,-567.22 208.79,-523.87 234.06,-491 244.83,-476.99 331.05,-386.55 347.03,-379 422.72,-343.27 450.69,-360.18 534.39,-360"/>
</g>
<!-- tests_helpers_config_test_config -->
<g id="node16" class="node">
<title>tests_helpers_config_test_config</title><style>.edge>path:hover{stroke-width:8}</style>
<ellipse fill="#9d4390" stroke="#ffffff" cx="670.83" cy="-601" rx="45.25" ry="39.6"/>
<text xml:space="preserve" text-anchor="middle" x="670.83" y="-615.5" font-family="Helvetica,sans-Serif" font-size="10.00" fill="#e0e0e0">tests.</text>
<text xml:space="preserve" text-anchor="middle" x="670.83" y="-603.5" font-family="Helvetica,sans-Serif" font-size="10.00" fill="#e0e0e0">helpers.</text>
<text xml:space="preserve" text-anchor="middle" x="670.83" y="-591.5" font-family="Helvetica,sans-Serif" font-size="10.00" fill="#e0e0e0">config.</text>
<text xml:space="preserve" text-anchor="middle" x="670.83" y="-579.5" font-family="Helvetica,sans-Serif" font-size="10.00" fill="#e0e0e0">test_config</text>
</g>
<!-- src&#45;&gt;tests_helpers_config_test_config -->
<g id="edge14" class="edge">
<title>src&#45;&gt;tests_helpers_config_test_config</title><style>.edge>path:hover{stroke-width:8}</style>
<path fill="none" stroke="#ffffff" d="M193.08,-605.74C235.7,-602.56 322.62,-598.2 395.34,-608"/>
</g>
<!-- src&#45;&gt;tests_helpers_test_logging -->
<g id="edge15" class="edge">
<title>src&#45;&gt;tests_helpers_test_logging</title><style>.edge>path:hover{stroke-width:8}</style>
<path fill="none" stroke="#ffffff" d="M175.45,-625.3C186.15,-644.7 206.45,-675.13 234.06,-688 409.77,-769.9 492.69,-747.75 669.83,-669"/>
</g>
<!-- src_helpers -->
<g id="node9" class="node">
<title>src_helpers</title><style>.edge>path:hover{stroke-width:8}</style>
<ellipse fill="#2f91db" stroke="#ffffff" cx="272.55" cy="-661" rx="38.49" ry="18"/>
<text xml:space="preserve" text-anchor="middle" x="272.55" y="-657.5" font-family="Helvetica,sans-Serif" font-size="10.00" fill="#e0e0e0">src.helpers</text>
</g>
<!-- src_helpers&#45;&gt;tests_helpers_config_test_config -->
<g id="edge16" class="edge">
<title>src_helpers&#45;&gt;tests_helpers_config_test_config</title><style>.edge>path:hover{stroke-width:8}</style>
<path fill="none" stroke="#ffffff" d="M310,-665.63C360.58,-671.25 454.8,-678.84 534.39,-669"/>
<path fill="none" stroke="#ffffff" d="M536.39,-669C568.7,-664.7 601.37,-648.31 626.29,-632.7"/>
<polygon fill="#2f91db" stroke="#ffffff" points="628.02,-635.74 634.52,-627.37 624.22,-629.87 628.02,-635.74"/>
</g>
<!-- src_helpers&#45;&gt;tests_helpers_test_logging -->
<g id="edge17" class="edge">
<title>src_helpers&#45;&gt;tests_helpers_test_logging</title><style>.edge>path:hover{stroke-width:8}</style>
<path fill="none" stroke="#ffffff" d="M671.83,-669C691.56,-660.23 698.87,-662.41 716.53,-650 737.51,-635.26 757.2,-614.5 772.18,-596.63"/>
<polygon fill="#2f91db" stroke="#ffffff" points="774.55,-599.25 778.18,-589.3 769.13,-594.82 774.55,-599.25"/>
<path fill="none" stroke="#ffffff" d="M536.39,-669C595.18,-661.18 615.64,-693.09 669.83,-669"/>
</g>
<!-- src_helpers_config -->
<g id="node10" class="node">
<title>src_helpers_config</title><style>.edge>path:hover{stroke-width:8}</style>
<ellipse fill="#3b8fce" stroke="#ffffff" cx="396.34" cy="-549" rx="35.71" ry="31.11"/>
<text xml:space="preserve" text-anchor="middle" x="396.34" y="-557.5" font-family="Helvetica,sans-Serif" font-size="10.00" fill="#e0e0e0">src.</text>
<text xml:space="preserve" text-anchor="middle" x="396.34" y="-545.5" font-family="Helvetica,sans-Serif" font-size="10.00" fill="#e0e0e0">helpers.</text>
<text xml:space="preserve" text-anchor="middle" x="396.34" y="-533.5" font-family="Helvetica,sans-Serif" font-size="10.00" fill="#e0e0e0">config</text>
</g>
<!-- src_helpers_logging_setup -->
<g id="node12" class="node">
<title>src_helpers_logging_setup</title><style>.edge>path:hover{stroke-width:8}</style>
<ellipse fill="#407196" stroke="#ffffff" cx="535.39" cy="-511" rx="53.74" ry="31.11"/>
<text xml:space="preserve" text-anchor="middle" x="535.39" y="-519.5" font-family="Helvetica,sans-Serif" font-size="10.00" fill="#e0e0e0">src.</text>
<text xml:space="preserve" text-anchor="middle" x="535.39" y="-507.5" font-family="Helvetica,sans-Serif" font-size="10.00" fill="#e0e0e0">helpers.</text>
<text xml:space="preserve" text-anchor="middle" x="535.39" y="-495.5" font-family="Helvetica,sans-Serif" font-size="10.00" fill="#e0e0e0">logging_setup</text>
</g>
<!-- src_helpers_config&#45;&gt;src_helpers_logging_setup -->
<g id="edge18" class="edge">
<title>src_helpers_config&#45;&gt;src_helpers_logging_setup</title><style>.edge>path:hover{stroke-width:8}</style>
<path fill="none" stroke="#ffffff" d="M430.87,-539.7C444.32,-535.97 460.24,-531.56 475.5,-527.33"/>
<polygon fill="#3b8fce" stroke="#ffffff" points="476.3,-530.74 485,-524.69 474.43,-523.99 476.3,-530.74"/>
</g>
<!-- src_helpers_config&#45;&gt;tests_helpers_config_test_config -->
<g id="edge19" class="edge">
<title>src_helpers_config&#45;&gt;tests_helpers_config_test_config</title><style>.edge>path:hover{stroke-width:8}</style>
<path fill="none" stroke="#ffffff" d="M536.39,-608C561.93,-610.01 590.27,-608.99 614.23,-607.17"/>
<polygon fill="#3b8fce" stroke="#ffffff" points="614.43,-610.67 624.11,-606.35 613.85,-603.69 614.43,-610.67"/>
<path fill="none" stroke="#ffffff" d="M425.56,-567.68C452.3,-583.74 494.23,-604.83 534.39,-608"/>
</g>
<!-- src_helpers_config_config -->
<g id="node11" class="node">
<title>src_helpers_config_config</title><style>.edge>path:hover{stroke-width:8}</style>
<ellipse fill="#3a7eb0" stroke="#ffffff" cx="272.55" cy="-540" rx="35.71" ry="39.6"/>
<text xml:space="preserve" text-anchor="middle" x="272.55" y="-554.5" font-family="Helvetica,sans-Serif" font-size="10.00" fill="#e0e0e0">src.</text>
<text xml:space="preserve" text-anchor="middle" x="272.55" y="-542.5" font-family="Helvetica,sans-Serif" font-size="10.00" fill="#e0e0e0">helpers.</text>
<text xml:space="preserve" text-anchor="middle" x="272.55" y="-530.5" font-family="Helvetica,sans-Serif" font-size="10.00" fill="#e0e0e0">config.</text>
<text xml:space="preserve" text-anchor="middle" x="272.55" y="-518.5" font-family="Helvetica,sans-Serif" font-size="10.00" fill="#e0e0e0">config</text>
</g>
<!-- src_helpers_config_config&#45;&gt;src_helpers_logging_setup -->
<g id="edge20" class="edge">
<title>src_helpers_config_config&#45;&gt;src_helpers_logging_setup</title><style>.edge>path:hover{stroke-width:8}</style>
<path fill="none" stroke="#ffffff" d="M303.69,-519.75C327.53,-505.73 362.2,-489.65 395.34,-490"/>
</g>
<!-- src_helpers_config_config&#45;&gt;tests_helpers_config_test_config -->
<g id="edge21" class="edge">
<title>src_helpers_config_config&#45;&gt;tests_helpers_config_test_config</title><style>.edge>path:hover{stroke-width:8}</style>
<path fill="none" stroke="#ffffff" d="M301.32,-563.54C324.66,-581.23 359.82,-603.21 395.34,-608"/>
<path fill="none" stroke="#ffffff" d="M397.34,-608C457.71,-616.14 473.67,-603.21 534.39,-608"/>
</g>
<!-- src_helpers_logging_setup&#45;&gt;tests_helpers_test_logging -->
<g id="edge22" class="edge">
<title>src_helpers_logging_setup&#45;&gt;tests_helpers_test_logging</title><style>.edge>path:hover{stroke-width:8}</style>
<path fill="none" stroke="#ffffff" d="M565.17,-484.72C591.78,-463.71 632.69,-439.67 669.83,-452"/>
</g>
<!-- src_main&#45;&gt;tests_conftest -->
<g id="edge23" class="edge">
<title>src_main&#45;&gt;tests_conftest</title><style>.edge>path:hover{stroke-width:8}</style>
<path fill="none" stroke="#ffffff" d="M419.84,-326.6C446.38,-340.25 492.23,-360.09 534.39,-360"/>
<path fill="none" stroke="#ffffff" d="M536.39,-360C564.73,-359.94 595.96,-354.84 621.09,-349.45"/>
<polygon fill="#467ca4" stroke="#ffffff" points="621.69,-352.9 630.69,-347.31 620.17,-346.07 621.69,-352.9"/>
</g>
<!-- structlog -->
<g id="node14" class="node">
<title>structlog</title><style>.edge>path:hover{stroke-width:8}</style>
<ellipse fill="#5926d9" stroke="#ffffff" cx="165.89" cy="-434" rx="32.17" ry="18"/>
<text xml:space="preserve" text-anchor="middle" x="165.89" y="-430.5" font-family="Helvetica,sans-Serif" font-size="10.00" fill="#e0e0e0">structlog</text>
</g>
<!-- structlog&#45;&gt;src_helpers_logging_setup -->
<g id="edge24" class="edge">
<title>structlog&#45;&gt;src_helpers_logging_setup</title><style>.edge>path:hover{stroke-width:8}</style>
<path fill="none" stroke="#ffffff" d="M397.34,-490C422.47,-490.27 449.9,-493.81 473.58,-497.91"/>
<polygon fill="#5926d9" stroke="#ffffff" points="472.92,-501.35 483.38,-499.69 474.16,-494.46 472.92,-501.35"/>
<path fill="none" stroke="#ffffff" d="M192.77,-444.48C234.6,-460.46 320,-489.2 395.34,-490"/>
</g>
<!-- structlog&#45;&gt;src_main -->
<g id="edge25" class="edge">
<title>structlog&#45;&gt;src_main</title><style>.edge>path:hover{stroke-width:8}</style>
<path fill="none" stroke="#ffffff" d="M273.55,-396C312.07,-387.25 314.23,-368.02 347.03,-346 352.95,-342.03 359.3,-337.8 365.38,-333.76"/>
<polygon fill="#5926d9" stroke="#ffffff" points="366.95,-336.92 373.35,-328.48 363.08,-331.09 366.95,-336.92"/>
<path fill="none" stroke="#ffffff" d="M191.74,-422.98C212.61,-414.21 243.46,-402.38 271.55,-396"/>
</g>
<!-- structlog&#45;&gt;tests_helpers_test_logging -->
<g id="edge26" class="edge">
<title>structlog&#45;&gt;tests_helpers_test_logging</title><style>.edge>path:hover{stroke-width:8}</style>
<path fill="none" stroke="#ffffff" d="M273.55,-396C309.2,-387.9 311.72,-423.51 347.03,-433 485.82,-470.31 533.44,-406.72 669.83,-452"/>
</g>
<!-- tests_utils -->
<g id="node18" class="node">
<title>tests_utils</title><style>.edge>path:hover{stroke-width:8}</style>
<ellipse fill="#c247b1" stroke="#ffffff" cx="535.39" cy="-314" rx="35.33" ry="18"/>
<text xml:space="preserve" text-anchor="middle" x="535.39" y="-310.5" font-family="Helvetica,sans-Serif" font-size="10.00" fill="#e0e0e0">tests.utils</text>
</g>
<!-- tests_utils&#45;&gt;tests_conftest -->
<g id="edge27" class="edge">
<title>tests_utils&#45;&gt;tests_conftest</title><style>.edge>path:hover{stroke-width:8}</style>
<path fill="none" stroke="#ffffff" d="M569.38,-319.69C583.93,-322.19 601.38,-325.2 617.62,-328"/>
<polygon fill="#c247b1" stroke="#ffffff" points="616.69,-331.39 627.14,-329.64 617.88,-324.49 616.69,-331.39"/>
</g>
<!-- tests_utils_db_config&#45;&gt;tests_conftest -->
<g id="edge28" class="edge">
<title>tests_utils_db_config&#45;&gt;tests_conftest</title><style>.edge>path:hover{stroke-width:8}</style>
<path fill="none" stroke="#ffffff" d="M437.75,-146.84C466.53,-149.75 505.13,-157.02 534.39,-175"/>
</g>
</g>
</svg>

