<?xml version="1.0" encoding="UTF-8" standalone="no"?>
<!DOCTYPE svg PUBLIC "-//W3C//DTD SVG 1.1//EN"
 "http://www.w3.org/Graphics/SVG/1.1/DTD/svg11.dtd">
<!-- Generated by graphviz version 15.0.0 (20260523.1842)
 -->
<!-- Title: G Pages: 1 -->
<svg style="background-color:#141414" width="1515pt" height="1209pt"
 viewBox="0.00 0.00 1515.00 1209.00" xmlns="http://www.w3.org/2000/svg" xmlns:xlink="http://www.w3.org/1999/xlink">
<g id="graph0" class="graph" transform="scale(1 1) rotate(0) translate(4 1204.63)">
<title>G</title><style>.edge>path:hover{stroke-width:8}</style>
<polygon fill="#141414" stroke="none" points="-4,4 -4,-1204.63 1511.17,-1204.63 1511.17,4 -4,4"/>
<!-- datetime -->
<g id="node1" class="node">
<title>datetime</title><style>.edge>path:hover{stroke-width:8}</style>
<ellipse fill="#c24747" stroke="#ffffff" cx="314.46" cy="-998.63" rx="32.17" ry="18"/>
<text xml:space="preserve" text-anchor="middle" x="314.46" y="-995.13" font-family="Helvetica,sans-Serif" font-size="10.00" fill="#e0e0e0">datetime</text>
</g>
<!-- jose_jwt -->
<g id="node8" class="node">
<title>jose_jwt</title><style>.edge>path:hover{stroke-width:8}</style>
<ellipse fill="#86ac49" stroke="#ffffff" cx="582.27" cy="-1036.63" rx="29.92" ry="18"/>
<text xml:space="preserve" text-anchor="middle" x="582.27" y="-1033.13" font-family="Helvetica,sans-Serif" font-size="10.00" fill="#e0e0e0">jose.jwt</text>
</g>
<!-- datetime&#45;&gt;jose_jwt -->
<g id="edge1" class="edge">
<title>datetime&#45;&gt;jose_jwt</title><style>.edge>path:hover{stroke-width:8}</style>
<path fill="none" stroke="#ffffff" d="M442.79,-990.63C480.54,-992.51 521.33,-1007.82 548.79,-1020.27"/>
<polygon fill="#c24747" stroke="#ffffff" points="547.07,-1023.33 557.61,-1024.4 550.03,-1016.99 547.07,-1023.33"/>
</g>
<!-- src_core_security -->
<g id="node30" class="node">
<title>src_core_security</title><style>.edge>path:hover{stroke-width:8}</style>
<ellipse fill="#5f3479" stroke="#ffffff" cx="929.34" cy="-952.63" rx="35.71" ry="31.11"/>
<text xml:space="preserve" text-anchor="middle" x="929.34" y="-961.13" font-family="Helvetica,sans-Serif" font-size="10.00" fill="#e0e0e0">src.</text>
<text xml:space="preserve" text-anchor="middle" x="929.34" y="-949.13" font-family="Helvetica,sans-Serif" font-size="10.00" fill="#e0e0e0">core.</text>
<text xml:space="preserve" text-anchor="middle" x="929.34" y="-937.13" font-family="Helvetica,sans-Serif" font-size="10.00" fill="#e0e0e0">security</text>
</g>
<!-- datetime&#45;&gt;src_core_security -->
<g id="edge2" class="edge">
<title>datetime&#45;&gt;src_core_security</title><style>.edge>path:hover{stroke-width:8}</style>
<path fill="none" stroke="#ffffff" d="M442.79,-990.63C526.82,-994.81 554.35,-975.25 631.13,-1009.63 674.98,-1029.26 662.87,-1084.85 710.86,-1082.63"/>
<path fill="none" stroke="#ffffff" d="M346.11,-994.47C371.48,-991.56 408.48,-988.54 440.79,-990.63"/>
</g>
<!-- fastapi -->
<g id="node2" class="node">
<title>fastapi</title><style>.edge>path:hover{stroke-width:8}</style>
<polygon fill="#5a5a5a" stroke="#ffffff" points="341.46,-644.63 287.46,-644.63 287.46,-608.63 341.46,-608.63 341.46,-644.63"/>
<text xml:space="preserve" text-anchor="middle" x="314.46" y="-623.13" font-family="Helvetica,sans-Serif" font-size="10.00" fill="#e0e0e0">fastapi</text>
</g>
<!-- src_api_router -->
<g id="node19" class="node">
<title>src_api_router</title><style>.edge>path:hover{stroke-width:8}</style>
<ellipse fill="#612b82" stroke="#ffffff" cx="1272.51" cy="-614.63" rx="43.9" ry="18"/>
<text xml:space="preserve" text-anchor="middle" x="1272.51" y="-611.13" font-family="Helvetica,sans-Serif" font-size="10.00" fill="#e0e0e0">src.api.router</text>
</g>
<!-- fastapi&#45;&gt;src_api_router -->
<g id="edge3" class="edge">
<title>fastapi&#45;&gt;src_api_router</title><style>.edge>path:hover{stroke-width:8}</style>
<path fill="none" stroke="#ffffff" d="M1148.36,-660.63C1179.05,-657.83 1211.62,-645.19 1235.55,-633.86"/>
<polygon fill="#5a5a5a" stroke="#ffffff" points="1236.77,-637.16 1244.22,-629.62 1233.7,-630.88 1236.77,-637.16"/>
<path fill="none" stroke="#ffffff" d="M930.34,-660.63C1024.69,-642.83 1050.75,-669.34 1146.36,-660.63"/>
</g>
<!-- src_api_routes_auth -->
<g id="node21" class="node">
<title>src_api_routes_auth</title><style>.edge>path:hover{stroke-width:8}</style>
<ellipse fill="#7735a1" stroke="#ffffff" cx="825.11" cy="-96.63" rx="32.53" ry="39.6"/>
<text xml:space="preserve" text-anchor="middle" x="825.11" y="-111.13" font-family="Helvetica,sans-Serif" font-size="10.00" fill="#e0e0e0">src.</text>
<text xml:space="preserve" text-anchor="middle" x="825.11" y="-99.13" font-family="Helvetica,sans-Serif" font-size="10.00" fill="#e0e0e0">api.</text>
<text xml:space="preserve" text-anchor="middle" x="825.11" y="-87.13" font-family="Helvetica,sans-Serif" font-size="10.00" fill="#e0e0e0">routes.</text>
<text xml:space="preserve" text-anchor="middle" x="825.11" y="-75.13" font-family="Helvetica,sans-Serif" font-size="10.00" fill="#e0e0e0">auth</text>
</g>
<!-- fastapi&#45;&gt;src_api_routes_auth -->
<g id="edge4" class="edge">
<title>fastapi&#45;&gt;src_api_routes_auth</title><style>.edge>path:hover{stroke-width:8}</style>
<path fill="none" stroke="#ffffff" d="M326.63,-608.39C334.07,-595.64 343.65,-578.03 350.17,-561.63 406.79,-419.08 342.89,-346.7 440.79,-228.63"/>
<path fill="none" stroke="#ffffff" d="M442.79,-228.63C459.72,-208.21 478.87,-223.58 497.42,-204.63 559.71,-140.97 495.84,-47.78 581.27,-22.63"/>
</g>
<!-- src_api_routes_health -->
<g id="node22" class="node">
<title>src_api_routes_health</title><style>.edge>path:hover{stroke-width:8}</style>
<ellipse fill="#7d38a8" stroke="#ffffff" cx="1033.58" cy="-592.63" rx="32.53" ry="39.6"/>
<text xml:space="preserve" text-anchor="middle" x="1033.58" y="-607.13" font-family="Helvetica,sans-Serif" font-size="10.00" fill="#e0e0e0">src.</text>
<text xml:space="preserve" text-anchor="middle" x="1033.58" y="-595.13" font-family="Helvetica,sans-Serif" font-size="10.00" fill="#e0e0e0">api.</text>
<text xml:space="preserve" text-anchor="middle" x="1033.58" y="-583.13" font-family="Helvetica,sans-Serif" font-size="10.00" fill="#e0e0e0">routes.</text>
<text xml:space="preserve" text-anchor="middle" x="1033.58" y="-571.13" font-family="Helvetica,sans-Serif" font-size="10.00" fill="#e0e0e0">health</text>
</g>
<!-- fastapi&#45;&gt;src_api_routes_health -->
<g id="edge5" class="edge">
<title>fastapi&#45;&gt;src_api_routes_health</title><style>.edge>path:hover{stroke-width:8}</style>
<path fill="none" stroke="#ffffff" d="M583.27,-618.63C621.78,-621.92 629.04,-635.08 667.13,-641.63 781.85,-661.34 813.39,-678.9 928.34,-660.63"/>
<path fill="none" stroke="#ffffff" d="M930.34,-660.63C956.09,-655.77 980.67,-639.91 999.28,-624.72"/>
<polygon fill="#5a5a5a" stroke="#ffffff" points="1001.42,-627.5 1006.76,-618.36 996.88,-622.17 1001.42,-627.5"/>
</g>
<!-- src_api_routes_posts -->
<g id="node23" class="node">
<title>src_api_routes_posts</title><style>.edge>path:hover{stroke-width:8}</style>
<ellipse fill="#662e8a" stroke="#ffffff" cx="1033.58" cy="-232.63" rx="32.53" ry="39.6"/>
<text xml:space="preserve" text-anchor="middle" x="1033.58" y="-247.13" font-family="Helvetica,sans-Serif" font-size="10.00" fill="#e0e0e0">src.</text>
<text xml:space="preserve" text-anchor="middle" x="1033.58" y="-235.13" font-family="Helvetica,sans-Serif" font-size="10.00" fill="#e0e0e0">api.</text>
<text xml:space="preserve" text-anchor="middle" x="1033.58" y="-223.13" font-family="Helvetica,sans-Serif" font-size="10.00" fill="#e0e0e0">routes.</text>
<text xml:space="preserve" text-anchor="middle" x="1033.58" y="-211.13" font-family="Helvetica,sans-Serif" font-size="10.00" fill="#e0e0e0">posts</text>
</g>
<!-- fastapi&#45;&gt;src_api_routes_posts -->
<g id="edge6" class="edge">
<title>fastapi&#45;&gt;src_api_routes_posts</title><style>.edge>path:hover{stroke-width:8}</style>
<path fill="none" stroke="#ffffff" d="M442.79,-228.63C470.35,-195.39 491.45,-253.46 533.42,-263.63 610.5,-282.3 633.3,-299.25 710.86,-282.63"/>
</g>
<!-- src_api_routes_root -->
<g id="node24" class="node">
<title>src_api_routes_root</title><style>.edge>path:hover{stroke-width:8}</style>
<ellipse fill="#7d38a8" stroke="#ffffff" cx="1033.58" cy="-368.63" rx="32.53" ry="39.6"/>
<text xml:space="preserve" text-anchor="middle" x="1033.58" y="-383.13" font-family="Helvetica,sans-Serif" font-size="10.00" fill="#e0e0e0">src.</text>
<text xml:space="preserve" text-anchor="middle" x="1033.58" y="-371.13" font-family="Helvetica,sans-Serif" font-size="10.00" fill="#e0e0e0">api.</text>
<text xml:space="preserve" text-anchor="middle" x="1033.58" y="-359.13" font-family="Helvetica,sans-Serif" font-size="10.00" fill="#e0e0e0">routes.</text>
<text xml:space="preserve" text-anchor="middle" x="1033.58" y="-347.13" font-family="Helvetica,sans-Serif" font-size="10.00" fill="#e0e0e0">root</text>
</g>
<!-- fastapi&#45;&gt;src_api_routes_root -->
<g id="edge7" class="edge">
<title>fastapi&#45;&gt;src_api_routes_root</title><style>.edge>path:hover{stroke-width:8}</style>
<path fill="none" stroke="#ffffff" d="M442.79,-618.63C679.45,-564.69 686.93,-393.83 928.34,-368.63"/>
<path fill="none" stroke="#ffffff" d="M341.5,-626.1C366.93,-625.33 406.67,-623.4 440.79,-618.63"/>
</g>
<!-- src_api_routes_users -->
<g id="node25" class="node">
<title>src_api_routes_users</title><style>.edge>path:hover{stroke-width:8}</style>
<ellipse fill="#612b82" stroke="#ffffff" cx="1033.58" cy="-465.63" rx="32.53" ry="39.6"/>
<text xml:space="preserve" text-anchor="middle" x="1033.58" y="-480.13" font-family="Helvetica,sans-Serif" font-size="10.00" fill="#e0e0e0">src.</text>
<text xml:space="preserve" text-anchor="middle" x="1033.58" y="-468.13" font-family="Helvetica,sans-Serif" font-size="10.00" fill="#e0e0e0">api.</text>
<text xml:space="preserve" text-anchor="middle" x="1033.58" y="-456.13" font-family="Helvetica,sans-Serif" font-size="10.00" fill="#e0e0e0">routes.</text>
<text xml:space="preserve" text-anchor="middle" x="1033.58" y="-444.13" font-family="Helvetica,sans-Serif" font-size="10.00" fill="#e0e0e0">users</text>
</g>
<!-- fastapi&#45;&gt;src_api_routes_users -->
<g id="edge8" class="edge">
<title>fastapi&#45;&gt;src_api_routes_users</title><style>.edge>path:hover{stroke-width:8}</style>
<path fill="none" stroke="#ffffff" d="M583.27,-618.63C649.1,-623.38 645.08,-537.15 710.86,-542.63"/>
<path fill="none" stroke="#ffffff" d="M442.79,-618.63C502.8,-604.95 519.89,-614.19 581.27,-618.63"/>
</g>
<!-- src_core_exceptions -->
<g id="node28" class="node">
<title>src_core_exceptions</title><style>.edge>path:hover{stroke-width:8}</style>
<ellipse fill="#802db4" stroke="#ffffff" cx="711.86" cy="-719.63" rx="44.72" ry="31.11"/>
<text xml:space="preserve" text-anchor="middle" x="711.86" y="-728.13" font-family="Helvetica,sans-Serif" font-size="10.00" fill="#e0e0e0">src.</text>
<text xml:space="preserve" text-anchor="middle" x="711.86" y="-716.13" font-family="Helvetica,sans-Serif" font-size="10.00" fill="#e0e0e0">core.</text>
<text xml:space="preserve" text-anchor="middle" x="711.86" y="-704.13" font-family="Helvetica,sans-Serif" font-size="10.00" fill="#e0e0e0">exceptions</text>
</g>
<!-- fastapi&#45;&gt;src_core_exceptions -->
<g id="edge9" class="edge">
<title>fastapi&#45;&gt;src_core_exceptions</title><style>.edge>path:hover{stroke-width:8}</style>
<path fill="none" stroke="#ffffff" d="M583.27,-618.63C605.21,-620.5 647.72,-657.53 677.63,-686.21"/>
<polygon fill="#5a5a5a" stroke="#ffffff" points="675,-688.54 684.61,-692.99 679.87,-683.51 675,-688.54"/>
</g>
<!-- src_main -->
<g id="node31" class="node">
<title>src_main</title><style>.edge>path:hover{stroke-width:8}</style>
<ellipse fill="#532e6b" stroke="#ffffff" cx="1475" cy="-456.63" rx="32.17" ry="18"/>
<text xml:space="preserve" text-anchor="middle" x="1475" y="-453.13" font-family="Helvetica,sans-Serif" font-size="10.00" fill="#e0e0e0">src.main</text>
</g>
<!-- fastapi&#45;&gt;src_main -->
<g id="edge10" class="edge">
<title>fastapi&#45;&gt;src_main</title><style>.edge>path:hover{stroke-width:8}</style>
<path fill="none" stroke="#ffffff" d="M1273.51,-660.63C1321.21,-642.6 1330.99,-632.85 1378.61,-614.63"/>
<path fill="none" stroke="#ffffff" d="M1148.36,-660.63C1202.93,-656.46 1220.31,-679.98 1271.51,-660.63"/>
</g>
<!-- fastapi_responses -->
<g id="node3" class="node">
<title>fastapi_responses</title><style>.edge>path:hover{stroke-width:8}</style>
<polygon fill="#5a5a5a" stroke="#ffffff" points="242.75,-644.63 181.75,-644.63 181.75,-608.63 242.75,-608.63 242.75,-644.63"/>
<text xml:space="preserve" text-anchor="middle" x="212.25" y="-629.13" font-family="Helvetica,sans-Serif" font-size="10.00" fill="#e0e0e0">fastapi.</text>
<text xml:space="preserve" text-anchor="middle" x="212.25" y="-617.13" font-family="Helvetica,sans-Serif" font-size="10.00" fill="#e0e0e0">responses</text>
</g>
<!-- fastapi_responses&#45;&gt;fastapi -->
<g id="edge11" class="edge">
<title>fastapi_responses&#45;&gt;fastapi</title><style>.edge>path:hover{stroke-width:8}</style>
<path fill="none" stroke="#ffffff" d="M243.04,-626.63C253.3,-626.63 264.92,-626.63 275.72,-626.63"/>
<polygon fill="#5a5a5a" stroke="#ffffff" points="275.5,-630.13 285.5,-626.63 275.5,-623.13 275.5,-630.13"/>
</g>
<!-- fastapi_responses&#45;&gt;src_core_exceptions -->
<g id="edge12" class="edge">
<title>fastapi_responses&#45;&gt;src_core_exceptions</title><style>.edge>path:hover{stroke-width:8}</style>
<path fill="none" stroke="#ffffff" d="M315.46,-724.63C365.46,-749.17 385.09,-724.19 440.79,-724.63"/>
<path fill="none" stroke="#ffffff" d="M226.1,-645C243.19,-667.85 275.67,-706.08 313.46,-724.63"/>
</g>
<!-- fastapi_responses&#45;&gt;src_main -->
<g id="edge13" class="edge">
<title>fastapi_responses&#45;&gt;src_main</title><style>.edge>path:hover{stroke-width:8}</style>
<path fill="none" stroke="#ffffff" d="M315.46,-724.63C344.22,-738.74 354.46,-734.05 386.17,-738.63 579.62,-766.53 631.34,-746.34 824.11,-778.63"/>
</g>
<!-- fastapi_security -->
<g id="node4" class="node">
<title>fastapi_security</title><style>.edge>path:hover{stroke-width:8}</style>
<ellipse fill="#b68153" stroke="#ffffff" cx="314.46" cy="-22.63" rx="35.71" ry="22.63"/>
<text xml:space="preserve" text-anchor="middle" x="314.46" y="-25.13" font-family="Helvetica,sans-Serif" font-size="10.00" fill="#e0e0e0">fastapi.</text>
<text xml:space="preserve" text-anchor="middle" x="314.46" y="-13.13" font-family="Helvetica,sans-Serif" font-size="10.00" fill="#e0e0e0">security</text>
</g>
<!-- fastapi_security&#45;&gt;src_api_routes_auth -->
<g id="edge14" class="edge">
<title>fastapi_security&#45;&gt;src_api_routes_auth</title><style>.edge>path:hover{stroke-width:8}</style>
<path fill="none" stroke="#ffffff" d="M348.82,-29.1C400.22,-37.67 501.23,-48.82 581.27,-22.63"/>
<path fill="none" stroke="#ffffff" d="M583.27,-22.63C656.3,2.27 685.76,-2.01 756.58,-32.63 770.76,-38.76 783.77,-49.24 794.5,-59.96"/>
<polygon fill="#b68153" stroke="#ffffff" points="791.79,-62.19 801.21,-67.05 796.87,-57.38 791.79,-62.19"/>
</g>
<!-- fastapi_staticfiles -->
<g id="node5" class="node">
<title>fastapi_staticfiles</title><style>.edge>path:hover{stroke-width:8}</style>
<ellipse fill="#b68153" stroke="#ffffff" cx="1272.51" cy="-555.63" rx="41.01" ry="22.63"/>
<text xml:space="preserve" text-anchor="middle" x="1272.51" y="-558.13" font-family="Helvetica,sans-Serif" font-size="10.00" fill="#e0e0e0">fastapi.</text>
<text xml:space="preserve" text-anchor="middle" x="1272.51" y="-546.13" font-family="Helvetica,sans-Serif" font-size="10.00" fill="#e0e0e0">staticfiles</text>
</g>
<!-- fastapi_staticfiles&#45;&gt;src_main -->
<g id="edge15" class="edge">
<title>fastapi_staticfiles&#45;&gt;src_main</title><style>.edge>path:hover{stroke-width:8}</style>
<path fill="none" stroke="#ffffff" d="M1299.57,-573.03C1327.96,-591.53 1370.43,-617.76 1378.61,-614.63"/>
</g>
<!-- functools -->
<g id="node6" class="node">
<title>functools</title><style>.edge>path:hover{stroke-width:8}</style>
<polygon fill="#5a5a5a" stroke="#ffffff" points="145.75,-970.63 90,-970.63 90,-934.63 145.75,-934.63 145.75,-970.63"/>
<text xml:space="preserve" text-anchor="middle" x="117.88" y="-949.13" font-family="Helvetica,sans-Serif" font-size="10.00" fill="#e0e0e0">functools</text>
</g>
<!-- src_core_config -->
<g id="node27" class="node">
<title>src_core_config</title><style>.edge>path:hover{stroke-width:8}</style>
<ellipse fill="#8b31c4" stroke="#ffffff" cx="825.11" cy="-952.63" rx="29.88" ry="31.11"/>
<text xml:space="preserve" text-anchor="middle" x="825.11" y="-961.13" font-family="Helvetica,sans-Serif" font-size="10.00" fill="#e0e0e0">src.</text>
<text xml:space="preserve" text-anchor="middle" x="825.11" y="-949.13" font-family="Helvetica,sans-Serif" font-size="10.00" fill="#e0e0e0">core.</text>
<text xml:space="preserve" text-anchor="middle" x="825.11" y="-937.13" font-family="Helvetica,sans-Serif" font-size="10.00" fill="#e0e0e0">config</text>
</g>
<!-- functools&#45;&gt;src_core_config -->
<g id="edge16" class="edge">
<title>functools&#45;&gt;src_core_config</title><style>.edge>path:hover{stroke-width:8}</style>
<path fill="none" stroke="#ffffff" d="M145.95,-952.63C183.54,-952.63 253.66,-952.63 313.46,-952.63 313.46,-952.63 313.46,-952.63 442.79,-952.63 561.93,-952.63 593.48,-932.19 710.86,-952.63"/>
</g>
<!-- typing -->
<g id="node36" class="node">
<title>typing</title><style>.edge>path:hover{stroke-width:8}</style>
<polygon fill="#5a5a5a" stroke="#ffffff" points="54,-970.63 0,-970.63 0,-934.63 54,-934.63 54,-970.63"/>
<text xml:space="preserve" text-anchor="middle" x="27" y="-949.13" font-family="Helvetica,sans-Serif" font-size="10.00" fill="#e0e0e0">typing</text>
</g>
<!-- jose -->
<g id="node7" class="node">
<title>jose</title><style>.edge>path:hover{stroke-width:8}</style>
<ellipse fill="#93c247" stroke="#ffffff" cx="582.27" cy="-1182.63" rx="27" ry="18"/>
<text xml:space="preserve" text-anchor="middle" x="582.27" y="-1179.13" font-family="Helvetica,sans-Serif" font-size="10.00" fill="#e0e0e0">jose</text>
</g>
<!-- jose&#45;&gt;src_core_security -->
<g id="edge18" class="edge">
<title>jose&#45;&gt;src_core_security</title><style>.edge>path:hover{stroke-width:8}</style>
<path fill="none" stroke="#ffffff" d="M604.4,-1172.05C612.97,-1167.43 622.79,-1161.68 631.13,-1155.63 670.02,-1127.42 662.87,-1084.85 710.86,-1082.63"/>
</g>
<!-- jose_jwt&#45;&gt;src_core_security -->
<g id="edge19" class="edge">
<title>jose_jwt&#45;&gt;src_core_security</title><style>.edge>path:hover{stroke-width:8}</style>
<path fill="none" stroke="#ffffff" d="M603.69,-1049.59C628.24,-1063.83 671.11,-1084.47 710.86,-1082.63"/>
</g>
<!-- logging -->
<g id="node9" class="node">
<title>logging</title><style>.edge>path:hover{stroke-width:8}</style>
<ellipse fill="#52ce3b" stroke="#ffffff" cx="314.46" cy="-770.63" rx="28.11" ry="18"/>
<text xml:space="preserve" text-anchor="middle" x="314.46" y="-767.13" font-family="Helvetica,sans-Serif" font-size="10.00" fill="#e0e0e0">logging</text>
</g>
<!-- passlib_context -->
<g id="node11" class="node">
<title>passlib_context</title><style>.edge>path:hover{stroke-width:8}</style>
<ellipse fill="#49ac67" stroke="#ffffff" cx="582.27" cy="-901.63" rx="35.18" ry="22.63"/>
<text xml:space="preserve" text-anchor="middle" x="582.27" y="-904.13" font-family="Helvetica,sans-Serif" font-size="10.00" fill="#e0e0e0">passlib.</text>
<text xml:space="preserve" text-anchor="middle" x="582.27" y="-892.13" font-family="Helvetica,sans-Serif" font-size="10.00" fill="#e0e0e0">context</text>
</g>
<!-- logging&#45;&gt;passlib_context -->
<g id="edge20" class="edge">
<title>logging&#45;&gt;passlib_context</title><style>.edge>path:hover{stroke-width:8}</style>
<path fill="none" stroke="#ffffff" d="M320.99,-788.21C330.06,-813.84 350.74,-860.79 386.17,-882.63 431.58,-910.62 494.54,-911.46 536.52,-907.9"/>
<polygon fill="#52ce3b" stroke="#ffffff" points="536.66,-911.4 546.27,-906.94 535.98,-904.43 536.66,-911.4"/>
</g>
<!-- logging&#45;&gt;src_core_exceptions -->
<g id="edge21" class="edge">
<title>logging&#45;&gt;src_core_exceptions</title><style>.edge>path:hover{stroke-width:8}</style>
<path fill="none" stroke="#ffffff" d="M335.47,-758.19C359.55,-744.47 401.62,-724.32 440.79,-724.63"/>
</g>
<!-- src_core_logging -->
<g id="node29" class="node">
<title>src_core_logging</title><style>.edge>path:hover{stroke-width:8}</style>
<ellipse fill="#8e40c0" stroke="#ffffff" cx="929.34" cy="-832.63" rx="33.06" ry="31.11"/>
<text xml:space="preserve" text-anchor="middle" x="929.34" y="-841.13" font-family="Helvetica,sans-Serif" font-size="10.00" fill="#e0e0e0">src.</text>
<text xml:space="preserve" text-anchor="middle" x="929.34" y="-829.13" font-family="Helvetica,sans-Serif" font-size="10.00" fill="#e0e0e0">core.</text>
<text xml:space="preserve" text-anchor="middle" x="929.34" y="-817.13" font-family="Helvetica,sans-Serif" font-size="10.00" fill="#e0e0e0">logging</text>
</g>
<!-- logging&#45;&gt;src_core_logging -->
<g id="edge22" class="edge">
<title>logging&#45;&gt;src_core_logging</title><style>.edge>path:hover{stroke-width:8}</style>
<path fill="none" stroke="#ffffff" d="M342.58,-773.37C439.1,-783.14 766.4,-816.25 884.99,-828.24"/>
<polygon fill="#52ce3b" stroke="#ffffff" points="884.32,-831.69 894.62,-829.22 885.02,-824.73 884.32,-831.69"/>
</g>
<!-- passlib -->
<g id="node10" class="node">
<title>passlib</title><style>.edge>path:hover{stroke-width:8}</style>
<ellipse fill="#47c26d" stroke="#ffffff" cx="582.27" cy="-1128.63" rx="28.11" ry="18"/>
<text xml:space="preserve" text-anchor="middle" x="582.27" y="-1125.13" font-family="Helvetica,sans-Serif" font-size="10.00" fill="#e0e0e0">passlib</text>
</g>
<!-- passlib&#45;&gt;src_core_security -->
<g id="edge23" class="edge">
<title>passlib&#45;&gt;src_core_security</title><style>.edge>path:hover{stroke-width:8}</style>
<path fill="none" stroke="#ffffff" d="M604.13,-1116.71C628.75,-1103.7 671.34,-1084.46 710.86,-1082.63"/>
</g>
<!-- passlib_context&#45;&gt;src_core_security -->
<g id="edge24" class="edge">
<title>passlib_context&#45;&gt;src_core_security</title><style>.edge>path:hover{stroke-width:8}</style>
<path fill="none" stroke="#ffffff" d="M596.85,-922.6C627.72,-970.04 701.23,-1081.57 710.86,-1082.63"/>
<path fill="none" stroke="#ffffff" d="M712.86,-1082.63C788.68,-1090.96 861.3,-1027.47 899.83,-986.24"/>
<polygon fill="#49ac67" stroke="#ffffff" points="902.34,-988.68 906.5,-978.93 897.17,-983.96 902.34,-988.68"/>
</g>
<!-- pathlib -->
<g id="node12" class="node">
<title>pathlib</title><style>.edge>path:hover{stroke-width:8}</style>
<ellipse fill="#40c0a2" stroke="#ffffff" cx="1272.51" cy="-496.63" rx="27" ry="18"/>
<text xml:space="preserve" text-anchor="middle" x="1272.51" y="-493.13" font-family="Helvetica,sans-Serif" font-size="10.00" fill="#e0e0e0">pathlib</text>
</g>
<!-- pathlib&#45;&gt;src_main -->
<g id="edge25" class="edge">
<title>pathlib&#45;&gt;src_main</title><style>.edge>path:hover{stroke-width:8}</style>
<path fill="none" stroke="#ffffff" d="M1380.61,-614.63C1433.59,-594.36 1458.04,-525.88 1468.03,-486.04"/>
<polygon fill="#40c0a2" stroke="#ffffff" points="1471.41,-486.93 1470.28,-476.39 1464.6,-485.33 1471.41,-486.93"/>
<path fill="none" stroke="#ffffff" d="M1294.38,-507.43C1301.81,-511.85 1309.94,-517.4 1316.4,-523.63 1351.7,-557.61 1332.86,-632.14 1378.61,-614.63"/>
</g>
<!-- pydantic -->
<g id="node13" class="node">
<title>pydantic</title><style>.edge>path:hover{stroke-width:8}</style>
<ellipse fill="#18afdd" stroke="#ffffff" cx="314.46" cy="-534.63" rx="31.72" ry="18"/>
<text xml:space="preserve" text-anchor="middle" x="314.46" y="-531.13" font-family="Helvetica,sans-Serif" font-size="10.00" fill="#e0e0e0">pydantic</text>
</g>
<!-- pydantic&#45;&gt;src_api_routes_users -->
<g id="edge26" class="edge">
<title>pydantic&#45;&gt;src_api_routes_users</title><style>.edge>path:hover{stroke-width:8}</style>
<path fill="none" stroke="#ffffff" d="M583.27,-542.63C626.37,-579.48 654.35,-537.92 710.86,-542.63"/>
<path fill="none" stroke="#ffffff" d="M442.79,-190.63C608.84,-164.37 453.5,-433.37 581.27,-542.63"/>
</g>
<!-- src_schemas_health -->
<g id="node33" class="node">
<title>src_schemas_health</title><style>.edge>path:hover{stroke-width:8}</style>
<ellipse fill="#8e40c0" stroke="#ffffff" cx="711.86" cy="-601.63" rx="41.54" ry="31.11"/>
<text xml:space="preserve" text-anchor="middle" x="711.86" y="-610.13" font-family="Helvetica,sans-Serif" font-size="10.00" fill="#e0e0e0">src.</text>
<text xml:space="preserve" text-anchor="middle" x="711.86" y="-598.13" font-family="Helvetica,sans-Serif" font-size="10.00" fill="#e0e0e0">schemas.</text>
<text xml:space="preserve" text-anchor="middle" x="711.86" y="-586.13" font-family="Helvetica,sans-Serif" font-size="10.00" fill="#e0e0e0">health</text>
</g>
<!-- pydantic&#45;&gt;src_schemas_health -->
<g id="edge27" class="edge">
<title>pydantic&#45;&gt;src_schemas_health</title><style>.edge>path:hover{stroke-width:8}</style>
<path fill="none" stroke="#ffffff" d="M583.27,-542.63C606.24,-562.26 636.83,-576.71 662.3,-586.39"/>
<polygon fill="#18afdd" stroke="#ffffff" points="660.85,-589.58 671.45,-589.73 663.26,-583.01 660.85,-589.58"/>
</g>
<!-- src_schemas_post -->
<g id="node34" class="node">
<title>src_schemas_post</title><style>.edge>path:hover{stroke-width:8}</style>
<ellipse fill="#8e40c0" stroke="#ffffff" cx="711.86" cy="-105.63" rx="41.54" ry="31.11"/>
<text xml:space="preserve" text-anchor="middle" x="711.86" y="-114.13" font-family="Helvetica,sans-Serif" font-size="10.00" fill="#e0e0e0">src.</text>
<text xml:space="preserve" text-anchor="middle" x="711.86" y="-102.13" font-family="Helvetica,sans-Serif" font-size="10.00" fill="#e0e0e0">schemas.</text>
<text xml:space="preserve" text-anchor="middle" x="711.86" y="-90.13" font-family="Helvetica,sans-Serif" font-size="10.00" fill="#e0e0e0">post</text>
</g>
<!-- pydantic&#45;&gt;src_schemas_post -->
<g id="edge28" class="edge">
<title>pydantic&#45;&gt;src_schemas_post</title><style>.edge>path:hover{stroke-width:8}</style>
<path fill="none" stroke="#ffffff" d="M316.79,-516.37C321.9,-451 342.19,-229.66 386.17,-176.63 452.42,-96.73 585.87,-94.06 659.38,-99.53"/>
<polygon fill="#18afdd" stroke="#ffffff" points="658.88,-103.01 669.13,-100.35 659.46,-96.03 658.88,-103.01"/>
</g>
<!-- src_schemas_root -->
<g id="node35" class="node">
<title>src_schemas_root</title><style>.edge>path:hover{stroke-width:8}</style>
<ellipse fill="#8e40c0" stroke="#ffffff" cx="711.86" cy="-223.63" rx="41.54" ry="31.11"/>
<text xml:space="preserve" text-anchor="middle" x="711.86" y="-232.13" font-family="Helvetica,sans-Serif" font-size="10.00" fill="#e0e0e0">src.</text>
<text xml:space="preserve" text-anchor="middle" x="711.86" y="-220.13" font-family="Helvetica,sans-Serif" font-size="10.00" fill="#e0e0e0">schemas.</text>
<text xml:space="preserve" text-anchor="middle" x="711.86" y="-208.13" font-family="Helvetica,sans-Serif" font-size="10.00" fill="#e0e0e0">root</text>
</g>
<!-- pydantic&#45;&gt;src_schemas_root -->
<g id="edge29" class="edge">
<title>pydantic&#45;&gt;src_schemas_root</title><style>.edge>path:hover{stroke-width:8}</style>
<path fill="none" stroke="#ffffff" d="M317.33,-516.27C323.87,-455.48 347.37,-261.91 386.17,-214.63 402.99,-194.13 414.61,-194.84 440.79,-190.63"/>
<path fill="none" stroke="#ffffff" d="M442.79,-190.63C519.08,-178.35 608.22,-195.55 662.06,-209.37"/>
<polygon fill="#18afdd" stroke="#ffffff" points="660.97,-212.7 671.53,-211.87 662.76,-205.93 660.97,-212.7"/>
</g>
<!-- pydantic_settings -->
<g id="node14" class="node">
<title>pydantic_settings</title><style>.edge>path:hover{stroke-width:8}</style>
<ellipse fill="#5372b6" stroke="#ffffff" cx="441.79" cy="-855.63" rx="55.62" ry="18"/>
<text xml:space="preserve" text-anchor="middle" x="441.79" y="-852.13" font-family="Helvetica,sans-Serif" font-size="10.00" fill="#e0e0e0">pydantic_settings</text>
</g>
<!-- pydantic_settings&#45;&gt;src_core_config -->
<g id="edge30" class="edge">
<title>pydantic_settings&#45;&gt;src_core_config</title><style>.edge>path:hover{stroke-width:8}</style>
<path fill="none" stroke="#ffffff" d="M712.86,-952.63C736.07,-957.03 762.51,-957.23 783.78,-956.23"/>
<polygon fill="#5372b6" stroke="#ffffff" points="783.73,-959.74 793.51,-955.66 783.32,-952.75 783.73,-959.74"/>
<path fill="none" stroke="#ffffff" d="M494.87,-849.78C534.16,-847.61 588.41,-849.52 631.13,-869.63 677.41,-891.41 660.6,-943.09 710.86,-952.63"/>
</g>
<!-- sqlalchemy -->
<g id="node15" class="node">
<title>sqlalchemy</title><style>.edge>path:hover{stroke-width:8}</style>
<ellipse fill="#3f24d0" stroke="#ffffff" cx="582.27" cy="-144.63" rx="39.39" ry="18"/>
<text xml:space="preserve" text-anchor="middle" x="582.27" y="-141.13" font-family="Helvetica,sans-Serif" font-size="10.00" fill="#e0e0e0">sqlalchemy</text>
</g>
<!-- sqlalchemy&#45;&gt;src_api_routes_posts -->
<g id="edge31" class="edge">
<title>sqlalchemy&#45;&gt;src_api_routes_posts</title><style>.edge>path:hover{stroke-width:8}</style>
<path fill="none" stroke="#ffffff" d="M621.77,-144.87C680.34,-145.73 788.75,-149.41 824.11,-164.63"/>
</g>
<!-- sqlalchemy&#45;&gt;src_api_routes_users -->
<g id="edge32" class="edge">
<title>sqlalchemy&#45;&gt;src_api_routes_users</title><style>.edge>path:hover{stroke-width:8}</style>
<path fill="none" stroke="#ffffff" d="M598.84,-161.21C609.6,-173.6 623.32,-191.48 631.13,-209.63 666.83,-292.59 604.33,-344.72 667.13,-409.63 687.77,-430.96 898.89,-461.92 928.34,-465.63"/>
</g>
<!-- sqlalchemy_ext -->
<g id="node16" class="node">
<title>sqlalchemy_ext</title><style>.edge>path:hover{stroke-width:8}</style>
<ellipse fill="#5340c0" stroke="#ffffff" cx="582.27" cy="-236.63" rx="48.86" ry="18"/>
<text xml:space="preserve" text-anchor="middle" x="582.27" y="-233.13" font-family="Helvetica,sans-Serif" font-size="10.00" fill="#e0e0e0">sqlalchemy.ext</text>
</g>
<!-- sqlalchemy_ext&#45;&gt;src_api_routes_posts -->
<g id="edge33" class="edge">
<title>sqlalchemy_ext&#45;&gt;src_api_routes_posts</title><style>.edge>path:hover{stroke-width:8}</style>
<path fill="none" stroke="#ffffff" d="M712.86,-282.63C815.23,-278.2 826.02,-195.08 928.34,-200.63"/>
<path fill="none" stroke="#ffffff" d="M605.32,-252.72C630.34,-269.05 672.64,-290.82 710.86,-282.63"/>
</g>
<!-- sqlalchemy_ext&#45;&gt;src_api_routes_users -->
<g id="edge34" class="edge">
<title>sqlalchemy_ext&#45;&gt;src_api_routes_users</title><style>.edge>path:hover{stroke-width:8}</style>
<path fill="none" stroke="#ffffff" d="M598.9,-253.92C609.4,-266.37 622.79,-284.02 631.13,-301.63 658.82,-360.08 629.2,-390.24 667.13,-442.63 691.39,-476.13 783.18,-548.58 824.11,-542.63"/>
<path fill="none" stroke="#ffffff" d="M826.11,-542.63C886.59,-532.72 952.22,-505.07 992.88,-485.75"/>
<polygon fill="#5340c0" stroke="#ffffff" points="994.31,-488.95 1001.79,-481.45 991.27,-482.64 994.31,-488.95"/>
</g>
<!-- sqlalchemy_ext_asyncio -->
<g id="node17" class="node">
<title>sqlalchemy_ext_asyncio</title><style>.edge>path:hover{stroke-width:8}</style>
<ellipse fill="#5a47c2" stroke="#ffffff" cx="582.27" cy="-341.63" rx="47.91" ry="31.11"/>
<text xml:space="preserve" text-anchor="middle" x="582.27" y="-350.13" font-family="Helvetica,sans-Serif" font-size="10.00" fill="#e0e0e0">sqlalchemy.</text>
<text xml:space="preserve" text-anchor="middle" x="582.27" y="-338.13" font-family="Helvetica,sans-Serif" font-size="10.00" fill="#e0e0e0">ext.</text>
<text xml:space="preserve" text-anchor="middle" x="582.27" y="-326.13" font-family="Helvetica,sans-Serif" font-size="10.00" fill="#e0e0e0">asyncio</text>
</g>
<!-- sqlalchemy_ext_asyncio&#45;&gt;src_api_routes_posts -->
<g id="edge35" class="edge">
<title>sqlalchemy_ext_asyncio&#45;&gt;src_api_routes_posts</title><style>.edge>path:hover{stroke-width:8}</style>
<path fill="none" stroke="#ffffff" d="M618.08,-320.38C642.93,-306.52 677.69,-289.74 710.86,-282.63"/>
</g>
<!-- sqlalchemy_ext_asyncio&#45;&gt;src_api_routes_users -->
<g id="edge36" class="edge">
<title>sqlalchemy_ext_asyncio&#45;&gt;src_api_routes_users</title><style>.edge>path:hover{stroke-width:8}</style>
<path fill="none" stroke="#ffffff" d="M588.56,-372.65C599.89,-427.41 632.19,-536.07 710.86,-542.63"/>
<path fill="none" stroke="#ffffff" d="M712.86,-542.63C762.13,-546.73 775.18,-549.75 824.11,-542.63"/>
</g>
<!-- src_api -->
<g id="node18" class="node">
<title>src_api</title><style>.edge>path:hover{stroke-width:8}</style>
<ellipse fill="#982fdb" stroke="#ffffff" cx="1379.61" cy="-456.63" rx="27.21" ry="18"/>
<text xml:space="preserve" text-anchor="middle" x="1379.61" y="-453.13" font-family="Helvetica,sans-Serif" font-size="10.00" fill="#e0e0e0">src.api</text>
</g>
<!-- src_api&#45;&gt;src_main -->
<g id="edge37" class="edge">
<title>src_api&#45;&gt;src_main</title><style>.edge>path:hover{stroke-width:8}</style>
<path fill="none" stroke="#ffffff" d="M1407.12,-456.63C1414.6,-456.63 1422.93,-456.63 1431.11,-456.63"/>
<polygon fill="#982fdb" stroke="#ffffff" points="1430.94,-460.13 1440.94,-456.63 1430.94,-453.13 1430.94,-460.13"/>
</g>
<!-- src_api_router&#45;&gt;src_main -->
<g id="edge38" class="edge">
<title>src_api_router&#45;&gt;src_main</title><style>.edge>path:hover{stroke-width:8}</style>
<path fill="none" stroke="#ffffff" d="M1313.92,-621.27C1333.99,-622.94 1358.25,-622.42 1378.61,-614.63"/>
</g>
<!-- src_api_routes -->
<g id="node20" class="node">
<title>src_api_routes</title><style>.edge>path:hover{stroke-width:8}</style>
<ellipse fill="#9347c2" stroke="#ffffff" cx="1147.36" cy="-568.63" rx="45.25" ry="18"/>
<text xml:space="preserve" text-anchor="middle" x="1147.36" y="-565.13" font-family="Helvetica,sans-Serif" font-size="10.00" fill="#e0e0e0">src.api.routes</text>
</g>
<!-- src_api_routes&#45;&gt;src_api_router -->
<g id="edge39" class="edge">
<title>src_api_routes&#45;&gt;src_api_router</title><style>.edge>path:hover{stroke-width:8}</style>
<path fill="none" stroke="#ffffff" d="M1181.36,-580.95C1195.95,-586.4 1213.28,-592.88 1228.84,-598.69"/>
<polygon fill="#9347c2" stroke="#ffffff" points="1227.26,-601.83 1237.85,-602.06 1229.71,-595.28 1227.26,-601.83"/>
</g>
<!-- src_api_routes_auth&#45;&gt;src_api_router -->
<g id="edge40" class="edge">
<title>src_api_routes_auth&#45;&gt;src_api_router</title><style>.edge>path:hover{stroke-width:8}</style>
<path fill="none" stroke="#ffffff" d="M857.84,-100.64C907.65,-108.42 1004.82,-129.83 1066.11,-183.63 1124.41,-234.8 1087.3,-288.32 1146.36,-338.63"/>
<path fill="none" stroke="#ffffff" d="M1148.36,-338.63C1236.87,-414.02 1157.28,-495.8 1228.61,-587.63 1230.36,-589.88 1232.35,-591.99 1234.49,-593.96"/>
<polygon fill="#7735a1" stroke="#ffffff" points="1232.12,-596.55 1242.15,-599.96 1236.43,-591.04 1232.12,-596.55"/>
</g>
<!-- src_api_routes_health&#45;&gt;src_api_router -->
<g id="edge41" class="edge">
<title>src_api_routes_health&#45;&gt;src_api_router</title><style>.edge>path:hover{stroke-width:8}</style>
<path fill="none" stroke="#ffffff" d="M1066.04,-595.55C1104.8,-599.15 1171.25,-605.32 1218.07,-609.67"/>
<polygon fill="#7d38a8" stroke="#ffffff" points="1217.73,-613.15 1228.01,-610.59 1218.38,-606.18 1217.73,-613.15"/>
</g>
<!-- src_api_routes_posts&#45;&gt;src_api_router -->
<g id="edge42" class="edge">
<title>src_api_routes_posts&#45;&gt;src_api_router</title><style>.edge>path:hover{stroke-width:8}</style>
<path fill="none" stroke="#ffffff" d="M1059.18,-257.41C1081.37,-279.41 1115.21,-312.09 1146.36,-338.63"/>
</g>
<!-- src_api_routes_root&#45;&gt;src_api_router -->
<g id="edge43" class="edge">
<title>src_api_routes_root&#45;&gt;src_api_router</title><style>.edge>path:hover{stroke-width:8}</style>
<path fill="none" stroke="#ffffff" d="M1061.98,-348.87C1086.67,-333.69 1122.65,-318.43 1146.36,-338.63"/>
</g>
<!-- src_api_routes_users&#45;&gt;src_api_router -->
<g id="edge44" class="edge">
<title>src_api_routes_users&#45;&gt;src_api_router</title><style>.edge>path:hover{stroke-width:8}</style>
<path fill="none" stroke="#ffffff" d="M1055.87,-436.09C1085.41,-395.96 1136.32,-330.08 1146.36,-338.63"/>
</g>
<!-- src_core -->
<g id="node26" class="node">
<title>src_core</title><style>.edge>path:hover{stroke-width:8}</style>
<ellipse fill="#982fdb" stroke="#ffffff" cx="711.86" cy="-328.63" rx="30.82" ry="18"/>
<text xml:space="preserve" text-anchor="middle" x="711.86" y="-325.13" font-family="Helvetica,sans-Serif" font-size="10.00" fill="#e0e0e0">src.core</text>
</g>
<!-- src_core&#45;&gt;src_api_routes_users -->
<g id="edge45" class="edge">
<title>src_core&#45;&gt;src_api_routes_users</title><style>.edge>path:hover{stroke-width:8}</style>
<path fill="none" stroke="#ffffff" d="M930.34,-465.63C949.66,-468.95 971.34,-469.41 989.75,-468.85"/>
<polygon fill="#982fdb" stroke="#ffffff" points="989.67,-472.36 999.51,-468.44 989.37,-465.37 989.67,-472.36"/>
<path fill="none" stroke="#ffffff" d="M733.81,-341.47C741.04,-345.93 749.18,-350.97 756.58,-355.63 833.32,-403.89 839.01,-450.24 928.34,-465.63"/>
</g>
<!-- src_core&#45;&gt;src_main -->
<g id="edge46" class="edge">
<title>src_core&#45;&gt;src_main</title><style>.edge>path:hover{stroke-width:8}</style>
<path fill="none" stroke="#ffffff" d="M742.61,-325.27C865.08,-311.71 1326.3,-263.53 1378.61,-300.63"/>
</g>
<!-- src_core_config&#45;&gt;src_core_security -->
<g id="edge47" class="edge">
<title>src_core_config&#45;&gt;src_core_security</title><style>.edge>path:hover{stroke-width:8}</style>
<path fill="none" stroke="#ffffff" d="M855.41,-952.63C863.7,-952.63 872.94,-952.63 881.99,-952.63"/>
<polygon fill="#8b31c4" stroke="#ffffff" points="881.73,-956.13 891.73,-952.63 881.73,-949.13 881.73,-956.13"/>
</g>
<!-- src_core_config&#45;&gt;src_main -->
<g id="edge48" class="edge">
<title>src_core_config&#45;&gt;src_main</title><style>.edge>path:hover{stroke-width:8}</style>
<path fill="none" stroke="#ffffff" d="M851.36,-937.48C864.01,-929.93 879.59,-920.72 893.64,-912.63 925.16,-894.47 933.53,-890.79 965.05,-872.63 995.28,-855.21 1000.92,-847.28 1032.58,-832.63"/>
</g>
<!-- src_core_exceptions&#45;&gt;src_api_routes_users -->
<g id="edge49" class="edge">
<title>src_core_exceptions&#45;&gt;src_api_routes_users</title><style>.edge>path:hover{stroke-width:8}</style>
<path fill="none" stroke="#ffffff" d="M729.53,-690.65C758.43,-640.77 815.58,-543.87 824.11,-542.63"/>
</g>
<!-- src_core_exceptions&#45;&gt;src_main -->
<g id="edge50" class="edge">
<title>src_core_exceptions&#45;&gt;src_main</title><style>.edge>path:hover{stroke-width:8}</style>
<path fill="none" stroke="#ffffff" d="M1034.58,-832.63C1152.58,-777.79 1146.39,-696.36 1271.51,-660.63"/>
<path fill="none" stroke="#ffffff" d="M826.11,-778.63C887.84,-785.04 906.09,-773.24 965.05,-792.63 998.19,-803.52 999.65,-844.12 1032.58,-832.63"/>
<path fill="none" stroke="#ffffff" d="M743.01,-742.5C764.35,-756.89 794.35,-773.64 824.11,-778.63"/>
</g>
<!-- src_core_logging&#45;&gt;src_main -->
<g id="edge51" class="edge">
<title>src_core_logging&#45;&gt;src_main</title><style>.edge>path:hover{stroke-width:8}</style>
<path fill="none" stroke="#ffffff" d="M961.77,-839.25C982.78,-842.12 1010.51,-842.84 1032.58,-832.63"/>
</g>
<!-- src_schemas -->
<g id="node32" class="node">
<title>src_schemas</title><style>.edge>path:hover{stroke-width:8}</style>
<ellipse fill="#982fdb" stroke="#ffffff" cx="711.86" cy="-382.63" rx="43.45" ry="18"/>
<text xml:space="preserve" text-anchor="middle" x="711.86" y="-379.13" font-family="Helvetica,sans-Serif" font-size="10.00" fill="#e0e0e0">src.schemas</text>
</g>
<!-- src_schemas&#45;&gt;src_api_routes_health -->
<g id="edge52" class="edge">
<title>src_schemas&#45;&gt;src_api_routes_health</title><style>.edge>path:hover{stroke-width:8}</style>
<path fill="none" stroke="#ffffff" d="M736.11,-397.9C790.89,-433.88 928.47,-524.25 995.17,-568.06"/>
<polygon fill="#982fdb" stroke="#ffffff" points="992.93,-570.77 1003.21,-573.34 996.78,-564.92 992.93,-570.77"/>
</g>
<!-- src_schemas&#45;&gt;src_api_routes_posts -->
<g id="edge53" class="edge">
<title>src_schemas&#45;&gt;src_api_routes_posts</title><style>.edge>path:hover{stroke-width:8}</style>
<path fill="none" stroke="#ffffff" d="M749.21,-372.95C770.96,-367.12 799.14,-359.53 824.11,-352.63"/>
<path fill="none" stroke="#ffffff" d="M826.11,-352.63C891.59,-334.53 957.84,-290.44 997.04,-261.04"/>
<polygon fill="#982fdb" stroke="#ffffff" points="998.89,-264.03 1004.73,-255.19 994.65,-258.46 998.89,-264.03"/>
</g>
<!-- src_schemas&#45;&gt;src_api_routes_root -->
<g id="edge54" class="edge">
<title>src_schemas&#45;&gt;src_api_routes_root</title><style>.edge>path:hover{stroke-width:8}</style>
<path fill="none" stroke="#ffffff" d="M826.11,-352.63C870.44,-340.38 882.6,-373.4 928.34,-368.63"/>
<path fill="none" stroke="#ffffff" d="M930.34,-368.63C949.6,-366.62 971.02,-366.32 989.25,-366.64"/>
<polygon fill="#982fdb" stroke="#ffffff" points="989.12,-370.14 999.2,-366.89 989.29,-363.14 989.12,-370.14"/>
</g>
<!-- src_schemas_health&#45;&gt;src_api_routes_health -->
<g id="edge55" class="edge">
<title>src_schemas_health&#45;&gt;src_api_routes_health</title><style>.edge>path:hover{stroke-width:8}</style>
<path fill="none" stroke="#ffffff" d="M753.68,-600.48C814.25,-598.77 927.43,-595.59 989.36,-593.84"/>
<polygon fill="#8e40c0" stroke="#ffffff" points="989.26,-597.35 999.15,-593.57 989.06,-590.35 989.26,-597.35"/>
</g>
<!-- src_schemas_post&#45;&gt;src_api_routes_posts -->
<g id="edge56" class="edge">
<title>src_schemas_post&#45;&gt;src_api_routes_posts</title><style>.edge>path:hover{stroke-width:8}</style>
<path fill="none" stroke="#ffffff" d="M745.27,-124.62C767.11,-136.96 796.8,-152.87 824.11,-164.63"/>
</g>
<!-- src_schemas_root&#45;&gt;src_api_routes_root -->
<g id="edge57" class="edge">
<title>src_schemas_root&#45;&gt;src_api_routes_root</title><style>.edge>path:hover{stroke-width:8}</style>
<path fill="none" stroke="#ffffff" d="M747.99,-239.56C807.79,-266.68 929.03,-321.67 992.22,-350.32"/>
<polygon fill="#8e40c0" stroke="#ffffff" points="990.65,-353.45 1001.2,-354.4 993.54,-347.08 990.65,-353.45"/>
</g>
<!-- typing&#45;&gt;fastapi_responses -->
<g id="edge58" class="edge">
<title>typing&#45;&gt;fastapi_responses</title><style>.edge>path:hover{stroke-width:8}</style>
<path fill="none" stroke="#ffffff" d="M118.88,-580.63C141.05,-567.15 167.7,-583.64 186.66,-600.51"/>
<polygon fill="#5a5a5a" stroke="#ffffff" points="184.01,-602.82 193.69,-607.14 188.82,-597.73 184.01,-602.82"/>
</g>
<!-- typing&#45;&gt;functools -->
<g id="edge59" class="edge">
<title>typing&#45;&gt;functools</title><style>.edge>path:hover{stroke-width:8}</style>
<path fill="none" stroke="#ffffff" d="M65.65,-952.63C69.8,-952.63 74.04,-952.63 78.21,-952.63"/>
<polygon fill="#5a5a5a" stroke="#ffffff" points="65.7,-949.13 55.7,-952.63 65.7,-956.13 65.7,-949.13"/>
<polygon fill="#5a5a5a" stroke="#ffffff" points="78.13,-956.13 88.13,-952.63 78.13,-949.13 78.13,-956.13"/>
</g>
<!-- typing&#45;&gt;pydantic -->
<g id="edge60" class="edge">
<title>typing&#45;&gt;pydantic</title><style>.edge>path:hover{stroke-width:8}</style>
<path fill="none" stroke="#ffffff" d="M213.25,-580.63C235.64,-571.66 260.26,-560.38 279.49,-551.23"/>
<polygon fill="#5a5a5a" stroke="#ffffff" points="280.99,-554.4 288.49,-546.92 277.96,-548.09 280.99,-554.4"/>
</g>
<!-- typing&#45;&gt;sqlalchemy -->
<g id="edge61" class="edge">
<title>typing&#45;&gt;sqlalchemy</title><style>.edge>path:hover{stroke-width:8}</style>
<path fill="none" stroke="#ffffff" d="M315.46,-144.63C371.95,-82.91 481.76,-108.61 541.03,-128.87"/>
<polygon fill="#5a5a5a" stroke="#ffffff" points="539.81,-132.15 550.4,-132.19 542.14,-125.55 539.81,-132.15"/>
</g>
<!-- typing&#45;&gt;src_api_routes_auth -->
<g id="edge62" class="edge">
<title>typing&#45;&gt;src_api_routes_auth</title><style>.edge>path:hover{stroke-width:8}</style>
<path fill="none" stroke="#ffffff" d="M29.11,-934.41C33.78,-864.9 54.6,-618.47 116.88,-580.63"/>
<path fill="none" stroke="#ffffff" d="M315.46,-144.63C357.79,-92.62 378,-84.17 440.79,-60.63"/>
<path fill="none" stroke="#ffffff" d="M442.79,-60.63C466.26,-51.83 473.23,-53.19 497.42,-46.63 534.83,-36.48 544.09,-33.58 581.27,-22.63"/>
<path fill="none" stroke="#ffffff" d="M118.88,-580.63C153.96,-559.31 173.06,-595.71 211.25,-580.63"/>
<path fill="none" stroke="#ffffff" d="M213.25,-580.63C305.72,-544.11 250.71,-221.74 313.46,-144.63"/>
</g>
<!-- typing&#45;&gt;src_api_routes_posts -->
<g id="edge63" class="edge">
<title>typing&#45;&gt;src_api_routes_posts</title><style>.edge>path:hover{stroke-width:8}</style>
<path fill="none" stroke="#ffffff" d="M930.34,-200.63C951,-203.75 973.21,-210.29 991.64,-216.65"/>
<polygon fill="#5a5a5a" stroke="#ffffff" points="990.27,-219.88 1000.86,-219.94 992.62,-213.29 990.27,-219.88"/>
<path fill="none" stroke="#ffffff" d="M442.79,-60.63C508.09,-36.14 698.32,-27.3 756.58,-65.63 789.15,-87.06 766.71,-116.46 792.58,-145.63 803.44,-157.87 809.2,-157.89 824.11,-164.63"/>
<path fill="none" stroke="#ffffff" d="M826.11,-164.63C870.17,-184.09 880.71,-193.43 928.34,-200.63"/>
</g>
<!-- typing&#45;&gt;src_api_routes_users -->
<g id="edge64" class="edge">
<title>typing&#45;&gt;src_api_routes_users</title><style>.edge>path:hover{stroke-width:8}</style>
<path fill="none" stroke="#ffffff" d="M213.25,-580.63C256.51,-563.54 584.94,-561.99 631.13,-556.63 666.87,-552.48 675.01,-539.64 710.86,-542.63"/>
</g>
<!-- typing&#45;&gt;src_core_exceptions -->
<g id="edge65" class="edge">
<title>typing&#45;&gt;src_core_exceptions</title><style>.edge>path:hover{stroke-width:8}</style>
<path fill="none" stroke="#ffffff" d="M213.25,-580.63C239.58,-570.08 266.5,-643.36 278.75,-653.63 339,-704.15 362.17,-724.01 440.79,-724.63"/>
<path fill="none" stroke="#ffffff" d="M442.79,-724.63C516.3,-724.49 601.12,-722.62 655.33,-721.21"/>
<polygon fill="#5a5a5a" stroke="#ffffff" points="655.33,-724.71 665.23,-720.94 655.15,-717.71 655.33,-724.71"/>
</g>
<!-- typing&#45;&gt;src_core_security -->
<g id="edge66" class="edge">
<title>typing&#45;&gt;src_core_security</title><style>.edge>path:hover{stroke-width:8}</style>
<path fill="none" stroke="#ffffff" d="M41.09,-970.98C68.34,-1006.81 134.99,-1082.63 211.25,-1082.63 211.25,-1082.63 211.25,-1082.63 442.79,-1082.63 561.93,-1082.63 591.88,-1088.76 710.86,-1082.63"/>
</g>
<!-- uvicorn -->
<g id="node37" class="node">
<title>uvicorn</title><style>.edge>path:hover{stroke-width:8}</style>
<ellipse fill="#c0407b" stroke="#ffffff" cx="1272.51" cy="-254.63" rx="28.56" ry="18"/>
<text xml:space="preserve" text-anchor="middle" x="1272.51" y="-251.13" font-family="Helvetica,sans-Serif" font-size="10.00" fill="#e0e0e0">uvicorn</text>
</g>
<!-- uvicorn&#45;&gt;src_main -->
<g id="edge67" class="edge">
<title>uvicorn&#45;&gt;src_main</title><style>.edge>path:hover{stroke-width:8}</style>
<path fill="none" stroke="#ffffff" d="M1380.61,-300.63C1425.11,-332.18 1452.08,-392.21 1464.92,-427.9"/>
<polygon fill="#c0407b" stroke="#ffffff" points="1461.53,-428.82 1468.1,-437.14 1468.15,-426.54 1461.53,-428.82"/>
<path fill="none" stroke="#ffffff" d="M1298.79,-262.41C1321.07,-270.01 1353.75,-283 1378.61,-300.63"/>
</g>
</g>
</svg>

