<?xml version="1.0" encoding="UTF-8" standalone="no"?>
<!DOCTYPE svg PUBLIC "-//W3C//DTD SVG 1.1//EN"
 "http://www.w3.org/Graphics/SVG/1.1/DTD/svg11.dtd">
<!-- Generated by graphviz version 15.1.0 (20260618.0150)
 -->
<!-- Title: G Pages: 1 -->
<svg style="background-color:#141414" width="1737pt" height="1025pt"
 viewBox="0.00 0.00 1737.00 1025.00" xmlns="http://www.w3.org/2000/svg" xmlns:xlink="http://www.w3.org/1999/xlink">
<g id="graph0" class="graph" transform="scale(1 1) rotate(0) translate(4 1021.35)">
<title>G</title><style>.edge>path:hover{stroke-width:8}</style>
<polygon fill="#141414" stroke="none" points="-4,4 -4,-1021.35 1733.24,-1021.35 1733.24,4 -4,4"/>
<!-- annotated_doc -->
<g id="node1" class="node">
<title>annotated_doc</title><style>.edge>path:hover{stroke-width:8}</style>
<polygon fill="#f90606" stroke="#ffffff" points="1086,-258 1083,-262 1062,-262 1059,-258 1006.25,-258 1006.25,-222 1086,-222 1086,-258"/>
<text xml:space="preserve" text-anchor="middle" x="1046.12" y="-236.5" font-family="Helvetica,sans-Serif" font-size="10.00" fill="#e0e0e0">annotated_doc</text>
</g>
<!-- fastapi -->
<g id="node11" class="node">
<title>fastapi</title><style>.edge>path:hover{stroke-width:8}</style>
<polygon fill="#5a5a5a" stroke="#ffffff" points="1285.25,-373 1282.25,-377 1261.25,-377 1258.25,-373 1231.25,-373 1231.25,-337 1285.25,-337 1285.25,-373"/>
<text xml:space="preserve" text-anchor="middle" x="1258.25" y="-351.5" font-family="Helvetica,sans-Serif" font-size="10.00" fill="#e0e0e0">fastapi</text>
</g>
<!-- annotated_doc&#45;&gt;fastapi -->
<g id="edge1" class="edge">
<title>annotated_doc&#45;&gt;fastapi</title><style>.edge>path:hover{stroke-width:8}</style>
<path fill="none" stroke="#ffffff" d="M1086.42,-232.94C1105.71,-231.2 1128.85,-231.78 1148,-240"/>
</g>
<!-- annotated_types -->
<g id="node2" class="node">
<title>annotated_types</title><style>.edge>path:hover{stroke-width:8}</style>
<polygon fill="#d94026" stroke="#ffffff" points="308.75,-434 305.75,-438 284.75,-438 281.75,-434 220.75,-434 220.75,-398 308.75,-398 308.75,-434"/>
<text xml:space="preserve" text-anchor="middle" x="264.75" y="-412.5" font-family="Helvetica,sans-Serif" font-size="10.00" fill="#e0e0e0">annotated_types</text>
</g>
<!-- pydantic -->
<g id="node23" class="node">
<title>pydantic</title><style>.edge>path:hover{stroke-width:8}</style>
<polygon fill="#5a5a5a" stroke="#ffffff" points="964.5,-572 961.5,-576 940.5,-576 937.5,-572 910.5,-572 910.5,-536 964.5,-536 964.5,-572"/>
<text xml:space="preserve" text-anchor="middle" x="937.5" y="-550.5" font-family="Helvetica,sans-Serif" font-size="10.00" fill="#e0e0e0">pydantic</text>
</g>
<!-- annotated_types&#45;&gt;pydantic -->
<g id="edge2" class="edge">
<title>annotated_types&#45;&gt;pydantic</title><style>.edge>path:hover{stroke-width:8}</style>
<path fill="none" stroke="#ffffff" d="M309.1,-413.49C353.41,-411.14 424.23,-408 485.5,-408 485.5,-408 485.5,-408 699.88,-408 781.12,-408 803.53,-429.54 868.75,-478 889.03,-493.07 887.83,-503.23 904.75,-522 906.41,-523.84 908.15,-525.72 909.91,-527.59"/>
<polygon fill="#d94026" stroke="#ffffff" points="907.21,-529.83 916.67,-534.59 912.24,-524.97 907.21,-529.83"/>
</g>
<!-- anyio -->
<g id="node3" class="node">
<title>anyio</title><style>.edge>path:hover{stroke-width:8}</style>
<polygon fill="#5a5a5a" stroke="#ffffff" points="407.5,-342 404.5,-346 383.5,-346 380.5,-342 353.5,-342 353.5,-306 407.5,-306 407.5,-342"/>
<text xml:space="preserve" text-anchor="middle" x="380.5" y="-320.5" font-family="Helvetica,sans-Serif" font-size="10.00" fill="#e0e0e0">anyio</text>
</g>
<!-- anyio&#45;&gt;fastapi -->
<g id="edge3" class="edge">
<title>anyio&#45;&gt;fastapi</title><style>.edge>path:hover{stroke-width:8}</style>
<path fill="none" stroke="#ffffff" d="M1047.12,-286C1096.4,-285.72 1102.72,-220.56 1148,-240"/>
<path fill="none" stroke="#ffffff" d="M407.52,-305.57C445.05,-280.84 517.4,-240 585.88,-240 585.88,-240 585.88,-240 699.88,-240 854.68,-240 890.33,-286.87 1045.12,-286"/>
</g>
<!-- starlette -->
<g id="node33" class="node">
<title>starlette</title><style>.edge>path:hover{stroke-width:8}</style>
<polygon fill="#af10f9" stroke="#ffffff" points="1176,-304 1173,-308 1152,-308 1149,-304 1122,-304 1122,-268 1176,-268 1176,-304"/>
<text xml:space="preserve" text-anchor="middle" x="1149" y="-282.5" font-family="Helvetica,sans-Serif" font-size="10.00" fill="#e0e0e0">starlette</text>
</g>
<!-- anyio&#45;&gt;starlette -->
<g id="edge4" class="edge">
<title>anyio&#45;&gt;starlette</title><style>.edge>path:hover{stroke-width:8}</style>
<path fill="none" stroke="#ffffff" d="M1047.12,-286C1068.05,-285.88 1091.43,-285.87 1110.4,-285.9"/>
<polygon fill="#5a5a5a" stroke="#ffffff" points="1110.35,-289.4 1120.36,-285.92 1110.37,-282.4 1110.35,-289.4"/>
</g>
<!-- watchfiles -->
<g id="node39" class="node">
<title>watchfiles</title><style>.edge>path:hover{stroke-width:8}</style>
<polygon fill="#9d436b" stroke="#ffffff" points="617,-904 614,-908 593,-908 590,-904 556.75,-904 556.75,-868 617,-868 617,-904"/>
<text xml:space="preserve" text-anchor="middle" x="586.88" y="-882.5" font-family="Helvetica,sans-Serif" font-size="10.00" fill="#e0e0e0">watchfiles</text>
</g>
<!-- anyio&#45;&gt;watchfiles -->
<g id="edge5" class="edge">
<title>anyio&#45;&gt;watchfiles</title><style>.edge>path:hover{stroke-width:8}</style>
<path fill="none" stroke="#ffffff" d="M384.2,-342.33C391.7,-391.08 414.7,-527.63 452.25,-636 475.45,-702.97 490.83,-715.75 520.75,-780 535.7,-812.11 534.5,-825.48 557.41,-858.41"/>
<polygon fill="#5a5a5a" stroke="#ffffff" points="554.58,-860.46 563.28,-866.51 560.25,-856.36 554.58,-860.46"/>
</g>
<!-- attr -->
<g id="node4" class="node">
<title>attr</title><style>.edge>path:hover{stroke-width:8}</style>
<polygon fill="#5a5a5a" stroke="#ffffff" points="407.5,-594 404.5,-598 383.5,-598 380.5,-594 353.5,-594 353.5,-558 407.5,-558 407.5,-594"/>
<text xml:space="preserve" text-anchor="middle" x="380.5" y="-572.5" font-family="Helvetica,sans-Serif" font-size="10.00" fill="#e0e0e0">attr</text>
</g>
<!-- rich -->
<g id="node28" class="node">
<title>rich</title><style>.edge>path:hover{stroke-width:8}</style>
<polygon fill="#5a5a5a" stroke="#ffffff" points="613.88,-686 610.88,-690 589.88,-690 586.88,-686 559.88,-686 559.88,-650 613.88,-650 613.88,-686"/>
<text xml:space="preserve" text-anchor="middle" x="586.88" y="-664.5" font-family="Helvetica,sans-Serif" font-size="10.00" fill="#e0e0e0">rich</text>
</g>
<!-- attr&#45;&gt;rich -->
<g id="edge6" class="edge">
<title>attr&#45;&gt;rich</title><style>.edge>path:hover{stroke-width:8}</style>
<path fill="none" stroke="#ffffff" d="M407.88,-589.34C428.58,-599.39 458.34,-612.95 485.5,-622"/>
<path fill="none" stroke="#ffffff" d="M487.5,-622C508.58,-629.03 531.11,-639.33 549.27,-648.41"/>
<polygon fill="#5a5a5a" stroke="#ffffff" points="547.58,-651.47 558.07,-652.89 550.75,-645.24 547.58,-651.47"/>
</g>
<!-- bcrypt -->
<g id="node5" class="node">
<title>bcrypt</title><style>.edge>path:hover{stroke-width:8}</style>
<polygon fill="#b3884c" stroke="#ffffff" points="851.75,-36 848.75,-40 827.75,-40 824.75,-36 797.75,-36 797.75,0 851.75,0 851.75,-36"/>
<text xml:space="preserve" text-anchor="middle" x="824.75" y="-14.5" font-family="Helvetica,sans-Serif" font-size="10.00" fill="#e0e0e0">bcrypt</text>
</g>
<!-- cryptography -->
<g id="node8" class="node">
<title>cryptography</title><style>.edge>path:hover{stroke-width:8}</style>
<polygon fill="#e9ef06" stroke="#ffffff" points="1294.38,-55 1291.38,-59 1270.38,-59 1267.38,-55 1222.12,-55 1222.12,-19 1294.38,-19 1294.38,-55"/>
<text xml:space="preserve" text-anchor="middle" x="1258.25" y="-33.5" font-family="Helvetica,sans-Serif" font-size="10.00" fill="#e0e0e0">cryptography</text>
</g>
<!-- bcrypt&#45;&gt;cryptography -->
<g id="edge7" class="edge">
<title>bcrypt&#45;&gt;cryptography</title><style>.edge>path:hover{stroke-width:8}</style>
<path fill="none" stroke="#ffffff" d="M852.09,-19.16C923.26,-22.29 1120.12,-30.96 1210.63,-34.95"/>
<polygon fill="#b3884c" stroke="#ffffff" points="1210.24,-38.43 1220.38,-35.38 1210.55,-31.44 1210.24,-38.43"/>
</g>
<!-- click -->
<g id="node6" class="node">
<title>click</title><style>.edge>path:hover{stroke-width:8}</style>
<polygon fill="#5a5a5a" stroke="#ffffff" points="613.88,-958 610.88,-962 589.88,-962 586.88,-958 559.88,-958 559.88,-922 613.88,-922 613.88,-958"/>
<text xml:space="preserve" text-anchor="middle" x="586.88" y="-936.5" font-family="Helvetica,sans-Serif" font-size="10.00" fill="#e0e0e0">click</text>
</g>
<!-- uvicorn -->
<g id="node38" class="node">
<title>uvicorn</title><style>.edge>path:hover{stroke-width:8}</style>
<polygon fill="#5a5a5a" stroke="#ffffff" points="964.5,-892 961.5,-896 940.5,-896 937.5,-892 910.5,-892 910.5,-856 964.5,-856 964.5,-892"/>
<text xml:space="preserve" text-anchor="middle" x="937.5" y="-870.5" font-family="Helvetica,sans-Serif" font-size="10.00" fill="#e0e0e0">uvicorn</text>
</g>
<!-- click&#45;&gt;uvicorn -->
<g id="edge8" class="edge">
<title>click&#45;&gt;uvicorn</title><style>.edge>path:hover{stroke-width:8}</style>
<path fill="none" stroke="#ffffff" d="M614.13,-939.16C636.43,-938.64 669.28,-938.36 697.88,-940"/>
</g>
<!-- colorama -->
<g id="node7" class="node">
<title>colorama</title><style>.edge>path:hover{stroke-width:8}</style>
<polygon fill="#5a5a5a" stroke="#ffffff" points="408.38,-832 405.38,-836 384.38,-836 381.38,-832 352.62,-832 352.62,-796 408.38,-796 408.38,-832"/>
<text xml:space="preserve" text-anchor="middle" x="380.5" y="-810.5" font-family="Helvetica,sans-Serif" font-size="10.00" fill="#e0e0e0">colorama</text>
</g>
<!-- colorama&#45;&gt;click -->
<g id="edge9" class="edge">
<title>colorama&#45;&gt;click</title><style>.edge>path:hover{stroke-width:8}</style>
<path fill="none" stroke="#ffffff" d="M487.5,-794C544.1,-805.94 525.03,-856.29 557.5,-911.86"/>
<polygon fill="#5a5a5a" stroke="#ffffff" points="554.54,-913.73 562.87,-920.28 560.44,-909.96 554.54,-913.73"/>
</g>
<!-- structlog -->
<g id="node34" class="node">
<title>structlog</title><style>.edge>path:hover{stroke-width:8}</style>
<polygon fill="#5a5a5a" stroke="#ffffff" points="851.75,-708 848.75,-712 827.75,-712 824.75,-708 797.75,-708 797.75,-672 851.75,-672 851.75,-708"/>
<text xml:space="preserve" text-anchor="middle" x="824.75" y="-686.5" font-family="Helvetica,sans-Serif" font-size="10.00" fill="#e0e0e0">structlog</text>
</g>
<!-- colorama&#45;&gt;structlog -->
<g id="edge10" class="edge">
<title>colorama&#45;&gt;structlog</title><style>.edge>path:hover{stroke-width:8}</style>
<path fill="none" stroke="#ffffff" d="M487.5,-794C530.42,-803.05 542.07,-783.61 585.88,-786"/>
<path fill="none" stroke="#ffffff" d="M408.49,-802.88C429.51,-795.64 459.41,-788.5 485.5,-794"/>
</g>
<!-- jose -->
<g id="node16" class="node">
<title>jose</title><style>.edge>path:hover{stroke-width:8}</style>
<polygon fill="#06f935" stroke="#ffffff" points="1394.5,-120 1391.5,-124 1370.5,-124 1367.5,-120 1340.5,-120 1340.5,-84 1394.5,-84 1394.5,-120"/>
<text xml:space="preserve" text-anchor="middle" x="1367.5" y="-98.5" font-family="Helvetica,sans-Serif" font-size="10.00" fill="#e0e0e0">jose</text>
</g>
<!-- cryptography&#45;&gt;jose -->
<g id="edge11" class="edge">
<title>cryptography&#45;&gt;jose</title><style>.edge>path:hover{stroke-width:8}</style>
<path fill="none" stroke="#ffffff" d="M1289.7,-55.45C1302.43,-63.17 1317.32,-72.19 1330.58,-80.23"/>
<polygon fill="#e9ef06" stroke="#ffffff" points="1328.68,-83.17 1339.05,-85.36 1332.31,-77.19 1328.68,-83.17"/>
</g>
<!-- dotenv -->
<g id="node9" class="node">
<title>dotenv</title><style>.edge>path:hover{stroke-width:8}</style>
<polygon fill="#abc431" stroke="#ffffff" points="613.88,-850 610.88,-854 589.88,-854 586.88,-850 559.88,-850 559.88,-814 613.88,-814 613.88,-850"/>
<text xml:space="preserve" text-anchor="middle" x="586.88" y="-828.5" font-family="Helvetica,sans-Serif" font-size="10.00" fill="#e0e0e0">dotenv</text>
</g>
<!-- dotenv&#45;&gt;pydantic -->
<g id="edge12" class="edge">
<title>dotenv&#45;&gt;pydantic</title><style>.edge>path:hover{stroke-width:8}</style>
<path fill="none" stroke="#ffffff" d="M699.88,-828C722.95,-823.49 727.18,-815.62 744.75,-800 763.89,-782.98 760.39,-770.54 780.75,-755 814.62,-729.16 838.83,-747.33 868.75,-717 905.58,-679.66 923.45,-619.39 931.24,-583.54"/>
<polygon fill="#abc431" stroke="#ffffff" points="934.65,-584.37 933.21,-573.87 927.79,-582.97 934.65,-584.37"/>
<path fill="none" stroke="#ffffff" d="M614.37,-833.34C636.81,-833.93 669.74,-833.5 697.88,-828"/>
</g>
<!-- pydantic_settings -->
<g id="node25" class="node">
<title>pydantic_settings</title><style>.edge>path:hover{stroke-width:8}</style>
<polygon fill="#5a5a5a" stroke="#ffffff" points="1304.5,-698 1301.5,-702 1280.5,-702 1277.5,-698 1212,-698 1212,-662 1304.5,-662 1304.5,-698"/>
<text xml:space="preserve" text-anchor="middle" x="1258.25" y="-676.5" font-family="Helvetica,sans-Serif" font-size="10.00" fill="#e0e0e0">pydantic_settings</text>
</g>
<!-- dotenv&#45;&gt;pydantic_settings -->
<g id="edge13" class="edge">
<title>dotenv&#45;&gt;pydantic_settings</title><style>.edge>path:hover{stroke-width:8}</style>
<path fill="none" stroke="#ffffff" d="M699.88,-828C803.09,-807.83 837.37,-863.13 936.5,-828"/>
</g>
<!-- dotenv&#45;&gt;uvicorn -->
<g id="edge14" class="edge">
<title>dotenv&#45;&gt;uvicorn</title><style>.edge>path:hover{stroke-width:8}</style>
<path fill="none" stroke="#ffffff" d="M699.88,-940C772.49,-949.25 854.09,-916.43 900,-893.79"/>
<polygon fill="#abc431" stroke="#ffffff" points="901.35,-897.03 908.7,-889.4 898.2,-890.78 901.35,-897.03"/>
<path fill="none" stroke="#ffffff" d="M608.22,-850.3C611.22,-853.16 614.23,-856.12 617,-859 652.27,-895.67 647.09,-937.09 697.88,-940"/>
</g>
<!-- ecdsa -->
<g id="node10" class="node">
<title>ecdsa</title><style>.edge>path:hover{stroke-width:8}</style>
<polygon fill="#5a5a5a" stroke="#ffffff" points="1176,-120 1173,-124 1152,-124 1149,-120 1122,-120 1122,-84 1176,-84 1176,-120"/>
<text xml:space="preserve" text-anchor="middle" x="1149" y="-98.5" font-family="Helvetica,sans-Serif" font-size="10.00" fill="#e0e0e0">ecdsa</text>
</g>
<!-- ecdsa&#45;&gt;jose -->
<g id="edge15" class="edge">
<title>ecdsa&#45;&gt;jose</title><style>.edge>path:hover{stroke-width:8}</style>
<path fill="none" stroke="#ffffff" d="M1176.45,-102C1198.15,-102 1229.69,-102 1257.25,-102"/>
</g>
<!-- main_py -->
<g id="node17" class="node">
<title>main_py</title><style>.edge>path:hover{stroke-width:8}</style>
<ellipse fill="#356345" stroke="#ffffff" cx="1698.87" cy="-573" rx="30.37" ry="18"/>
<text xml:space="preserve" text-anchor="middle" x="1698.87" y="-569.5" font-family="Helvetica,sans-Serif" font-size="10.00" fill="#e0e0e0">main.py</text>
</g>
<!-- fastapi&#45;&gt;main_py -->
<g id="edge16" class="edge">
<title>fastapi&#45;&gt;main_py</title><style>.edge>path:hover{stroke-width:8}</style>
<path fill="none" stroke="#ffffff" d="M1265.76,-373.41C1286.78,-429.33 1357.95,-592.23 1467.5,-573"/>
<path fill="none" stroke="#ffffff" d="M1468.5,-573C1488.21,-569.6 1485.53,-552.32 1504.5,-546 1527.27,-538.41 1535.73,-538.41 1558.5,-546 1577.47,-552.32 1574.5,-573 1594.5,-573"/>
<path fill="none" stroke="#ffffff" d="M1595.5,-573C1615.7,-572.15 1638.15,-572.05 1656.88,-572.21"/>
<polygon fill="#5a5a5a" stroke="#ffffff" points="1656.74,-575.71 1666.77,-572.32 1656.82,-568.71 1656.74,-575.71"/>
</g>
<!-- src -->
<g id="node32" class="node">
<title>src</title><style>.edge>path:hover{stroke-width:8}</style>
<polygon fill="#8d10f9" stroke="#ffffff" points="1558.5,-591 1555.5,-595 1534.5,-595 1531.5,-591 1504.5,-591 1504.5,-555 1558.5,-555 1558.5,-591"/>
<text xml:space="preserve" text-anchor="middle" x="1531.5" y="-569.5" font-family="Helvetica,sans-Serif" font-size="10.00" fill="#e0e0e0">src</text>
</g>
<!-- fastapi&#45;&gt;src -->
<g id="edge17" class="edge">
<title>fastapi&#45;&gt;src</title><style>.edge>path:hover{stroke-width:8}</style>
<path fill="none" stroke="#ffffff" d="M1468.5,-573C1476.26,-571.64 1484.66,-571.05 1492.69,-570.92"/>
<polygon fill="#5a5a5a" stroke="#ffffff" points="1492.54,-574.42 1502.57,-570.98 1492.59,-567.42 1492.54,-574.42"/>
</g>
<!-- greenlet -->
<g id="node12" class="node">
<title>greenlet</title><style>.edge>path:hover{stroke-width:8}</style>
<polygon fill="#6fcc33" stroke="#ffffff" points="613.88,-556 610.88,-560 589.88,-560 586.88,-556 559.88,-556 559.88,-520 613.88,-520 613.88,-556"/>
<text xml:space="preserve" text-anchor="middle" x="586.88" y="-534.5" font-family="Helvetica,sans-Serif" font-size="10.00" fill="#e0e0e0">greenlet</text>
</g>
<!-- sqlalchemy -->
<g id="node31" class="node">
<title>sqlalchemy</title><style>.edge>path:hover{stroke-width:8}</style>
<polygon fill="#5a5a5a" stroke="#ffffff" points="970.25,-480 967.25,-484 946.25,-484 943.25,-480 904.75,-480 904.75,-444 970.25,-444 970.25,-480"/>
<text xml:space="preserve" text-anchor="middle" x="937.5" y="-458.5" font-family="Helvetica,sans-Serif" font-size="10.00" fill="#e0e0e0">sqlalchemy</text>
</g>
<!-- greenlet&#45;&gt;sqlalchemy -->
<g id="edge18" class="edge">
<title>greenlet&#45;&gt;sqlalchemy</title><style>.edge>path:hover{stroke-width:8}</style>
<path fill="none" stroke="#ffffff" d="M601.41,-519.63C613.67,-503.84 632.85,-481.13 653,-465 686.9,-437.86 781.16,-361.56 823.75,-370"/>
</g>
<!-- greenlet&#45;&gt;structlog -->
<g id="edge19" class="edge">
<title>greenlet&#45;&gt;structlog</title><style>.edge>path:hover{stroke-width:8}</style>
<path fill="none" stroke="#ffffff" d="M604.57,-556.23C608.65,-560.71 612.99,-565.52 617,-570 633.16,-588.08 633.58,-596.48 653,-611 655.92,-613.18 737.7,-650.69 787.01,-673.23"/>
<polygon fill="#6fcc33" stroke="#ffffff" points="785.36,-676.33 795.91,-677.3 788.27,-669.96 785.36,-676.33"/>
</g>
<!-- h11 -->
<g id="node13" class="node">
<title>h11</title><style>.edge>path:hover{stroke-width:8}</style>
<polygon fill="#4c9933" stroke="#ffffff" points="513.5,-1004 510.5,-1008 489.5,-1008 486.5,-1004 459.5,-1004 459.5,-968 513.5,-968 513.5,-1004"/>
<text xml:space="preserve" text-anchor="middle" x="486.5" y="-982.5" font-family="Helvetica,sans-Serif" font-size="10.00" fill="#e0e0e0">h11</text>
</g>
<!-- h11&#45;&gt;uvicorn -->
<g id="edge20" class="edge">
<title>h11&#45;&gt;uvicorn</title><style>.edge>path:hover{stroke-width:8}</style>
<path fill="none" stroke="#ffffff" d="M513.83,-986.77C533.65,-987.17 561.49,-987.32 585.88,-986"/>
</g>
<!-- httptools -->
<g id="node14" class="node">
<title>httptools</title><style>.edge>path:hover{stroke-width:8}</style>
<polygon fill="#46b03a" stroke="#ffffff" points="513.5,-950 510.5,-954 489.5,-954 486.5,-950 459.5,-950 459.5,-914 513.5,-914 513.5,-950"/>
<text xml:space="preserve" text-anchor="middle" x="486.5" y="-928.5" font-family="Helvetica,sans-Serif" font-size="10.00" fill="#e0e0e0">httptools</text>
</g>
<!-- httptools&#45;&gt;uvicorn -->
<g id="edge21" class="edge">
<title>httptools&#45;&gt;uvicorn</title><style>.edge>path:hover{stroke-width:8}</style>
<path fill="none" stroke="#ffffff" d="M513.41,-950.35C537.06,-966.33 570.6,-986.83 585.88,-986"/>
</g>
<!-- idna -->
<g id="node15" class="node">
<title>idna</title><style>.edge>path:hover{stroke-width:8}</style>
<polygon fill="#5a5a5a" stroke="#ffffff" points="54,-342 51,-346 30,-346 27,-342 0,-342 0,-306 54,-306 54,-342"/>
<text xml:space="preserve" text-anchor="middle" x="27" y="-320.5" font-family="Helvetica,sans-Serif" font-size="10.00" fill="#e0e0e0">idna</text>
</g>
<!-- idna&#45;&gt;anyio -->
<g id="edge22" class="edge">
<title>idna&#45;&gt;anyio</title><style>.edge>path:hover{stroke-width:8}</style>
<path fill="none" stroke="#ffffff" d="M54.42,-324C116.28,-324 270.66,-324 342.12,-324"/>
<polygon fill="#5a5a5a" stroke="#ffffff" points="341.74,-327.5 351.74,-324 341.74,-320.5 341.74,-327.5"/>
</g>
<!-- jose&#45;&gt;src -->
<g id="edge23" class="edge">
<title>jose&#45;&gt;src</title><style>.edge>path:hover{stroke-width:8}</style>
<path fill="none" stroke="#ffffff" d="M1374.85,-120.46C1399.65,-192.57 1490.1,-455.55 1520.48,-543.86"/>
<polygon fill="#06f935" stroke="#ffffff" points="1517.14,-544.91 1523.7,-553.23 1523.76,-542.64 1517.14,-544.91"/>
</g>
<!-- markdown_it -->
<g id="node18" class="node">
<title>markdown_it</title><style>.edge>path:hover{stroke-width:8}</style>
<polygon fill="#5a5a5a" stroke="#ffffff" points="416.25,-740 413.25,-744 392.25,-744 389.25,-740 344.75,-740 344.75,-704 416.25,-704 416.25,-740"/>
<text xml:space="preserve" text-anchor="middle" x="380.5" y="-718.5" font-family="Helvetica,sans-Serif" font-size="10.00" fill="#e0e0e0">markdown_it</text>
</g>
<!-- markdown_it&#45;&gt;rich -->
<g id="edge24" class="edge">
<title>markdown_it&#45;&gt;rich</title><style>.edge>path:hover{stroke-width:8}</style>
<path fill="none" stroke="#ffffff" d="M416.34,-712.2C436.39,-707.01 462.17,-701.08 485.5,-698"/>
</g>
<!-- mdurl -->
<g id="node19" class="node">
<title>mdurl</title><style>.edge>path:hover{stroke-width:8}</style>
<polygon fill="#5a5a5a" stroke="#ffffff" points="54,-740 51,-744 30,-744 27,-740 0,-740 0,-704 54,-704 54,-740"/>
<text xml:space="preserve" text-anchor="middle" x="27" y="-718.5" font-family="Helvetica,sans-Serif" font-size="10.00" fill="#e0e0e0">mdurl</text>
</g>
<!-- mdurl&#45;&gt;markdown_it -->
<g id="edge25" class="edge">
<title>mdurl&#45;&gt;markdown_it</title><style>.edge>path:hover{stroke-width:8}</style>
<path fill="none" stroke="#ffffff" d="M54.42,-722C113.75,-722 258.21,-722 332.97,-722"/>
<polygon fill="#5a5a5a" stroke="#ffffff" points="332.83,-725.5 342.83,-722 332.83,-718.5 332.83,-725.5"/>
</g>
<!-- multipart -->
<g id="node20" class="node">
<title>multipart</title><style>.edge>path:hover{stroke-width:8}</style>
<polygon fill="#33ccab" stroke="#ffffff" points="964.5,-388 961.5,-392 940.5,-392 937.5,-388 910.5,-388 910.5,-352 964.5,-352 964.5,-388"/>
<text xml:space="preserve" text-anchor="middle" x="937.5" y="-366.5" font-family="Helvetica,sans-Serif" font-size="10.00" fill="#e0e0e0">multipart</text>
</g>
<!-- multipart&#45;&gt;fastapi -->
<g id="edge26" class="edge">
<title>multipart&#45;&gt;fastapi</title><style>.edge>path:hover{stroke-width:8}</style>
<path fill="none" stroke="#ffffff" d="M1047.12,-394C1094.96,-391.35 1106.79,-456.43 1148,-432"/>
<path fill="none" stroke="#ffffff" d="M1150,-432C1176.33,-416.39 1204.38,-396.11 1225.18,-380.28"/>
<polygon fill="#33ccab" stroke="#ffffff" points="1227.2,-383.15 1233,-374.28 1222.94,-377.6 1227.2,-383.15"/>
</g>
<!-- multipart&#45;&gt;starlette -->
<g id="edge27" class="edge">
<title>multipart&#45;&gt;starlette</title><style>.edge>path:hover{stroke-width:8}</style>
<path fill="none" stroke="#ffffff" d="M964.88,-380.19C986.25,-387.4 1017.28,-395.54 1045.12,-394"/>
<path fill="none" stroke="#ffffff" d="M1047.12,-394C1090.21,-391.62 1120.22,-345.76 1135.74,-314.57"/>
<polygon fill="#33ccab" stroke="#ffffff" points="1138.86,-316.15 1139.98,-305.62 1132.54,-313.16 1138.86,-316.15"/>
</g>
<!-- passlib -->
<g id="node21" class="node">
<title>passlib</title><style>.edge>path:hover{stroke-width:8}</style>
<polygon fill="#10f9e8" stroke="#ffffff" points="1394.5,-652 1391.5,-656 1370.5,-656 1367.5,-652 1340.5,-652 1340.5,-616 1394.5,-616 1394.5,-652"/>
<text xml:space="preserve" text-anchor="middle" x="1367.5" y="-630.5" font-family="Helvetica,sans-Serif" font-size="10.00" fill="#e0e0e0">passlib</text>
</g>
<!-- passlib&#45;&gt;src -->
<g id="edge28" class="edge">
<title>passlib&#45;&gt;src</title><style>.edge>path:hover{stroke-width:8}</style>
<path fill="none" stroke="#ffffff" d="M1394.75,-634C1405.79,-634 1418.77,-634 1430.5,-634"/>
</g>
<!-- pyasn1 -->
<g id="node22" class="node">
<title>pyasn1</title><style>.edge>path:hover{stroke-width:8}</style>
<polygon fill="#10e8f9" stroke="#ffffff" points="725.88,-166 722.88,-170 701.88,-170 698.88,-166 671.88,-166 671.88,-130 725.88,-130 725.88,-166"/>
<text xml:space="preserve" text-anchor="middle" x="698.88" y="-144.5" font-family="Helvetica,sans-Serif" font-size="10.00" fill="#e0e0e0">pyasn1</text>
</g>
<!-- pyasn1&#45;&gt;jose -->
<g id="edge29" class="edge">
<title>pyasn1&#45;&gt;jose</title><style>.edge>path:hover{stroke-width:8}</style>
<path fill="none" stroke="#ffffff" d="M726.3,-151.13C751.61,-153.4 790.72,-154.98 823.75,-148"/>
<path fill="none" stroke="#ffffff" d="M1259.25,-102C1282.28,-102.49 1308.1,-102.51 1328.63,-102.39"/>
<polygon fill="#10e8f9" stroke="#ffffff" points="1328.56,-105.89 1338.54,-102.32 1328.51,-98.89 1328.56,-105.89"/>
<path fill="none" stroke="#ffffff" d="M825.75,-148C872.52,-138.11 860.23,-92.42 904.75,-75 1017.02,-31.07 1056.99,-55.74 1176,-75 1213.56,-81.08 1219.21,-101.19 1257.25,-102"/>
</g>
<!-- rsa -->
<g id="node29" class="node">
<title>rsa</title><style>.edge>path:hover{stroke-width:8}</style>
<polygon fill="#5a5a5a" stroke="#ffffff" points="1073.12,-166 1070.12,-170 1049.12,-170 1046.12,-166 1019.12,-166 1019.12,-130 1073.12,-130 1073.12,-166"/>
<text xml:space="preserve" text-anchor="middle" x="1046.12" y="-144.5" font-family="Helvetica,sans-Serif" font-size="10.00" fill="#e0e0e0">rsa</text>
</g>
<!-- pyasn1&#45;&gt;rsa -->
<g id="edge30" class="edge">
<title>pyasn1&#45;&gt;rsa</title><style>.edge>path:hover{stroke-width:8}</style>
<path fill="none" stroke="#ffffff" d="M825.75,-148C888.57,-135.68 963.47,-139.54 1007.51,-143.64"/>
<polygon fill="#10e8f9" stroke="#ffffff" points="1007,-147.11 1017.3,-144.61 1007.7,-140.14 1007,-147.11"/>
</g>
<!-- pydantic&#45;&gt;fastapi -->
<g id="edge31" class="edge">
<title>pydantic&#45;&gt;fastapi</title><style>.edge>path:hover{stroke-width:8}</style>
<path fill="none" stroke="#ffffff" d="M1047.12,-596C1132.18,-605.44 1074.39,-475.64 1148,-432"/>
<path fill="none" stroke="#ffffff" d="M964.65,-568.83C985.63,-579.59 1016.25,-592.8 1045.12,-596"/>
</g>
<!-- pydantic&#45;&gt;pydantic_settings -->
<g id="edge32" class="edge">
<title>pydantic&#45;&gt;pydantic_settings</title><style>.edge>path:hover{stroke-width:8}</style>
<path fill="none" stroke="#ffffff" d="M1150,-676C1166.26,-676.4 1183.91,-677 1200.1,-677.6"/>
<polygon fill="#5a5a5a" stroke="#ffffff" points="1199.95,-681.1 1210.08,-677.99 1200.22,-674.11 1199.95,-681.1"/>
<path fill="none" stroke="#ffffff" d="M1047.12,-596C1104,-602.31 1090.8,-674.58 1148,-676"/>
</g>
<!-- pydantic&#45;&gt;src -->
<g id="edge33" class="edge">
<title>pydantic&#45;&gt;src</title><style>.edge>path:hover{stroke-width:8}</style>
<path fill="none" stroke="#ffffff" d="M1150,-634C1218.9,-640.31 1237.76,-634.78 1304.5,-653 1333.49,-660.92 1337.1,-686.26 1366.5,-680"/>
<path fill="none" stroke="#ffffff" d="M1368.5,-680C1382.42,-676.67 1383,-669.52 1394.5,-661 1410.57,-649.1 1410.5,-634 1430.5,-634"/>
<path fill="none" stroke="#ffffff" d="M1047.12,-596C1094.74,-601.28 1100.59,-627.13 1148,-634"/>
</g>
<!-- pydantic_core -->
<g id="node24" class="node">
<title>pydantic_core</title><style>.edge>path:hover{stroke-width:8}</style>
<polygon fill="#5a5a5a" stroke="#ffffff" points="737.25,-602 734.25,-606 713.25,-606 710.25,-602 660.5,-602 660.5,-566 737.25,-566 737.25,-602"/>
<text xml:space="preserve" text-anchor="middle" x="698.88" y="-580.5" font-family="Helvetica,sans-Serif" font-size="10.00" fill="#e0e0e0">pydantic_core</text>
</g>
<!-- pydantic_core&#45;&gt;fastapi -->
<g id="edge34" class="edge">
<title>pydantic_core&#45;&gt;fastapi</title><style>.edge>path:hover{stroke-width:8}</style>
<path fill="none" stroke="#ffffff" d="M737.59,-595.92C762.01,-602.34 794.59,-608.49 823.75,-606"/>
<path fill="none" stroke="#ffffff" d="M825.75,-606C875.23,-601.78 865.59,-557.54 904.75,-527 917.72,-516.89 920.77,-512.79 936.5,-508"/>
</g>
<!-- pydantic_core&#45;&gt;pydantic -->
<g id="edge35" class="edge">
<title>pydantic_core&#45;&gt;pydantic</title><style>.edge>path:hover{stroke-width:8}</style>
<path fill="none" stroke="#ffffff" d="M825.75,-606C853.61,-605.17 882.01,-591.53 903.07,-578.43"/>
<polygon fill="#5a5a5a" stroke="#ffffff" points="904.75,-581.51 911.23,-573.13 900.94,-575.64 904.75,-581.51"/>
</g>
<!-- pydantic_core&#45;&gt;pydantic_settings -->
<g id="edge36" class="edge">
<title>pydantic_core&#45;&gt;pydantic_settings</title><style>.edge>path:hover{stroke-width:8}</style>
<path fill="none" stroke="#ffffff" d="M825.75,-606C928.05,-602.97 944.23,-658.86 1045.12,-676"/>
</g>
<!-- pydantic_settings&#45;&gt;src -->
<g id="edge37" class="edge">
<title>pydantic_settings&#45;&gt;src</title><style>.edge>path:hover{stroke-width:8}</style>
<path fill="none" stroke="#ffffff" d="M1304.83,-684.17C1324.05,-684.86 1346.56,-684.24 1366.5,-680"/>
</g>
<!-- pygments -->
<g id="node26" class="node">
<title>pygments</title><style>.edge>path:hover{stroke-width:8}</style>
<polygon fill="#5a5a5a" stroke="#ffffff" points="409.88,-686 406.88,-690 385.88,-690 382.88,-686 351.12,-686 351.12,-650 409.88,-650 409.88,-686"/>
<text xml:space="preserve" text-anchor="middle" x="380.5" y="-664.5" font-family="Helvetica,sans-Serif" font-size="10.00" fill="#e0e0e0">pygments</text>
</g>
<!-- pygments&#45;&gt;rich -->
<g id="edge38" class="edge">
<title>pygments&#45;&gt;rich</title><style>.edge>path:hover{stroke-width:8}</style>
<path fill="none" stroke="#ffffff" d="M487.5,-698C508.32,-695.26 530.77,-688.7 548.96,-682.42"/>
<polygon fill="#5a5a5a" stroke="#ffffff" points="550.02,-685.76 558.25,-679.09 547.66,-679.17 550.02,-685.76"/>
<path fill="none" stroke="#ffffff" d="M410.14,-683.01C430.76,-692.14 459.42,-701.44 485.5,-698"/>
</g>
<!-- python_multipart -->
<g id="node27" class="node">
<title>python_multipart</title><style>.edge>path:hover{stroke-width:8}</style>
<polygon fill="#1941e6" stroke="#ffffff" points="868.75,-342 865.75,-346 844.75,-346 841.75,-342 780.75,-342 780.75,-306 868.75,-306 868.75,-342"/>
<text xml:space="preserve" text-anchor="middle" x="824.75" y="-320.5" font-family="Helvetica,sans-Serif" font-size="10.00" fill="#e0e0e0">python_multipart</text>
</g>
<!-- python_multipart&#45;&gt;fastapi -->
<g id="edge39" class="edge">
<title>python_multipart&#45;&gt;fastapi</title><style>.edge>path:hover{stroke-width:8}</style>
<path fill="none" stroke="#ffffff" d="M852.37,-342.45C857.96,-346.69 863.69,-351.33 868.75,-356 886.58,-372.44 883.43,-385.45 904.75,-397 952.77,-423.02 1101.02,-459.85 1148,-432"/>
</g>
<!-- python_multipart&#45;&gt;multipart -->
<g id="edge40" class="edge">
<title>python_multipart&#45;&gt;multipart</title><style>.edge>path:hover{stroke-width:8}</style>
<path fill="none" stroke="#ffffff" d="M869.2,-342.05C879.24,-346.22 889.83,-350.62 899.56,-354.66"/>
<polygon fill="#1941e6" stroke="#ffffff" points="898.13,-357.85 908.71,-358.46 900.82,-351.39 898.13,-357.85"/>
</g>
<!-- python_multipart&#45;&gt;starlette -->
<g id="edge41" class="edge">
<title>python_multipart&#45;&gt;starlette</title><style>.edge>path:hover{stroke-width:8}</style>
<path fill="none" stroke="#ffffff" d="M869.24,-321.98C889.7,-321.55 914.4,-321.77 936.5,-324"/>
</g>
<!-- rich&#45;&gt;pydantic -->
<g id="edge42" class="edge">
<title>rich&#45;&gt;pydantic</title><style>.edge>path:hover{stroke-width:8}</style>
<path fill="none" stroke="#ffffff" d="M699.88,-668C777.9,-667.69 801.22,-659.08 868.75,-620 886.24,-609.88 902.57,-594.24 914.81,-580.73"/>
<polygon fill="#5a5a5a" stroke="#ffffff" points="917.29,-583.2 921.24,-573.37 912.02,-578.59 917.29,-583.2"/>
<path fill="none" stroke="#ffffff" d="M614.1,-668.17C636.39,-668.28 669.23,-668.34 697.88,-668"/>
</g>
<!-- rich&#45;&gt;structlog -->
<g id="edge43" class="edge">
<title>rich&#45;&gt;structlog</title><style>.edge>path:hover{stroke-width:8}</style>
<path fill="none" stroke="#ffffff" d="M699.88,-668C729.29,-667.88 762.04,-673.98 786.47,-679.78"/>
<polygon fill="#5a5a5a" stroke="#ffffff" points="785.39,-683.12 795.94,-682.13 787.08,-676.32 785.39,-683.12"/>
</g>
<!-- rsa&#45;&gt;jose -->
<g id="edge44" class="edge">
<title>rsa&#45;&gt;jose</title><style>.edge>path:hover{stroke-width:8}</style>
<path fill="none" stroke="#ffffff" d="M1073.54,-145.47C1099.78,-142.64 1141.02,-137.32 1176,-129 1213.02,-120.19 1219.2,-102 1257.25,-102"/>
</g>
<!-- six -->
<g id="node30" class="node">
<title>six</title><style>.edge>path:hover{stroke-width:8}</style>
<polygon fill="#4910f9" stroke="#ffffff" points="964.5,-120 961.5,-124 940.5,-124 937.5,-120 910.5,-120 910.5,-84 964.5,-84 964.5,-120"/>
<text xml:space="preserve" text-anchor="middle" x="937.5" y="-98.5" font-family="Helvetica,sans-Serif" font-size="10.00" fill="#e0e0e0">six</text>
</g>
<!-- six&#45;&gt;ecdsa -->
<g id="edge45" class="edge">
<title>six&#45;&gt;ecdsa</title><style>.edge>path:hover{stroke-width:8}</style>
<path fill="none" stroke="#ffffff" d="M964.61,-102C1001.23,-102 1068.06,-102 1110.14,-102"/>
<polygon fill="#4910f9" stroke="#ffffff" points="1110.05,-105.5 1120.05,-102 1110.05,-98.5 1110.05,-105.5"/>
</g>
<!-- sqlalchemy&#45;&gt;src -->
<g id="edge46" class="edge">
<title>sqlalchemy&#45;&gt;src</title><style>.edge>path:hover{stroke-width:8}</style>
<path fill="none" stroke="#ffffff" d="M1431.5,-634C1459.91,-634 1487,-615.57 1505.63,-598.97"/>
<polygon fill="#5a5a5a" stroke="#ffffff" points="1507.81,-601.73 1512.72,-592.34 1503.03,-596.62 1507.81,-601.73"/>
<path fill="none" stroke="#ffffff" d="M970.61,-468.32C1047.16,-484.19 1245.14,-530.06 1394.5,-607 1412.28,-616.16 1410.65,-636.43 1430.5,-634"/>
</g>
<!-- src&#45;&gt;main_py -->
<g id="edge47" class="edge">
<title>src&#45;&gt;main_py</title><style>.edge>path:hover{stroke-width:8}</style>
<path fill="none" stroke="#ffffff" d="M1558.75,-573C1569.79,-573 1582.77,-573 1594.5,-573"/>
</g>
<!-- starlette&#45;&gt;fastapi -->
<g id="edge48" class="edge">
<title>starlette&#45;&gt;fastapi</title><style>.edge>path:hover{stroke-width:8}</style>
<path fill="none" stroke="#ffffff" d="M1176.24,-302.88C1189.87,-311.65 1206.73,-322.5 1221.54,-332.02"/>
<polygon fill="#af10f9" stroke="#ffffff" points="1219.34,-334.77 1229.64,-337.24 1223.12,-328.88 1219.34,-334.77"/>
</g>
<!-- structlog&#45;&gt;main_py -->
<g id="edge49" class="edge">
<title>structlog&#45;&gt;main_py</title><style>.edge>path:hover{stroke-width:8}</style>
<path fill="none" stroke="#ffffff" d="M852.05,-704.46C905.95,-732.64 1033.5,-792.03 1148,-790"/>
<path fill="none" stroke="#ffffff" d="M1150,-790C1347.37,-756.28 1391.23,-710.06 1558.5,-600 1575.21,-589.01 1574.53,-574.07 1594.5,-573"/>
</g>
<!-- structlog&#45;&gt;src -->
<g id="edge50" class="edge">
<title>structlog&#45;&gt;src</title><style>.edge>path:hover{stroke-width:8}</style>
<path fill="none" stroke="#ffffff" d="M851.99,-679.74C906.81,-659.56 1037.57,-618.01 1148,-634"/>
</g>
<!-- tomli -->
<g id="node35" class="node">
<title>tomli</title><style>.edge>path:hover{stroke-width:8}</style>
<polygon fill="#b353b6" stroke="#ffffff" points="851.75,-800 848.75,-804 827.75,-804 824.75,-800 797.75,-800 797.75,-764 851.75,-764 851.75,-800"/>
<text xml:space="preserve" text-anchor="middle" x="824.75" y="-778.5" font-family="Helvetica,sans-Serif" font-size="10.00" fill="#e0e0e0">tomli</text>
</g>
<!-- tomli&#45;&gt;pydantic_settings -->
<g id="edge51" class="edge">
<title>tomli&#45;&gt;pydantic_settings</title><style>.edge>path:hover{stroke-width:8}</style>
<path fill="none" stroke="#ffffff" d="M852.05,-797.47C879.3,-812.67 920.16,-832.94 936.5,-828"/>
<path fill="none" stroke="#ffffff" d="M938.5,-828C974.84,-817.02 975.68,-798.5 1006.25,-776 1068.34,-730.3 1070.92,-674.09 1148,-676"/>
</g>
<!-- typing_extensions -->
<g id="node36" class="node">
<title>typing_extensions</title><style>.edge>path:hover{stroke-width:8}</style>
<polygon fill="#f910dd" stroke="#ffffff" points="184.75,-434 181.75,-438 160.75,-438 157.75,-434 90,-434 90,-398 184.75,-398 184.75,-434"/>
<text xml:space="preserve" text-anchor="middle" x="137.38" y="-412.5" font-family="Helvetica,sans-Serif" font-size="10.00" fill="#e0e0e0">typing_extensions</text>
</g>
<!-- typing_extensions&#45;&gt;annotated_types -->
<g id="edge52" class="edge">
<title>typing_extensions&#45;&gt;annotated_types</title><style>.edge>path:hover{stroke-width:8}</style>
<path fill="none" stroke="#ffffff" d="M185.06,-416C192.82,-416 200.94,-416 208.89,-416"/>
<polygon fill="#f910dd" stroke="#ffffff" points="208.83,-419.5 218.83,-416 208.83,-412.5 208.83,-419.5"/>
</g>
<!-- typing_extensions&#45;&gt;anyio -->
<g id="edge53" class="edge">
<title>typing_extensions&#45;&gt;anyio</title><style>.edge>path:hover{stroke-width:8}</style>
<path fill="none" stroke="#ffffff" d="M265.75,-370C292.38,-362.59 321.24,-350.87 343.23,-341.12"/>
<polygon fill="#f910dd" stroke="#ffffff" points="344.37,-344.44 352.05,-337.14 341.5,-338.06 344.37,-344.44"/>
<path fill="none" stroke="#ffffff" d="M183.36,-397.5C206.99,-388.3 236.61,-377.55 263.75,-370"/>
</g>
<!-- typing_extensions&#45;&gt;click -->
<g id="edge54" class="edge">
<title>typing_extensions&#45;&gt;click</title><style>.edge>path:hover{stroke-width:8}</style>
<path fill="none" stroke="#ffffff" d="M141.81,-434.35C160.95,-534.12 258.12,-1006.05 379.5,-986"/>
<path fill="none" stroke="#ffffff" d="M381.5,-986C446.75,-1004.21 394.29,-886.06 452.25,-851 478.3,-835.24 494.37,-835.81 520.75,-851 545.78,-865.41 538.66,-884.18 557.64,-912.45"/>
<polygon fill="#f910dd" stroke="#ffffff" points="554.74,-914.4 563.53,-920.32 560.34,-910.21 554.74,-914.4"/>
</g>
<!-- typing_extensions&#45;&gt;fastapi -->
<g id="edge55" class="edge">
<title>typing_extensions&#45;&gt;fastapi</title><style>.edge>path:hover{stroke-width:8}</style>
<path fill="none" stroke="#ffffff" d="M1150,-240C1190.66,-257.46 1222.83,-298.91 1240.96,-326.98"/>
<polygon fill="#f910dd" stroke="#ffffff" points="1237.93,-328.73 1246.19,-335.36 1243.86,-325.02 1237.93,-328.73"/>
<path fill="none" stroke="#ffffff" d="M146.98,-397.83C173.48,-344.81 259.44,-194 379.5,-194 379.5,-194 379.5,-194 938.5,-194 1004.6,-194 1022.29,-195.41 1086,-213 1114.97,-221 1120.38,-228.14 1148,-240"/>
</g>
<!-- typing_extensions&#45;&gt;h11 -->
<g id="edge56" class="edge">
<title>typing_extensions&#45;&gt;h11</title><style>.edge>path:hover{stroke-width:8}</style>
<path fill="none" stroke="#ffffff" d="M381.5,-986C403.29,-982.4 428,-982.24 447.86,-983.06"/>
<polygon fill="#f910dd" stroke="#ffffff" points="447.56,-986.54 457.72,-983.57 447.92,-979.55 447.56,-986.54"/>
</g>
<!-- typing_extensions&#45;&gt;markdown_it -->
<g id="edge57" class="edge">
<title>typing_extensions&#45;&gt;markdown_it</title><style>.edge>path:hover{stroke-width:8}</style>
<path fill="none" stroke="#ffffff" d="M265.75,-622C303.25,-651.65 308.29,-664.08 344.75,-695 345.38,-695.54 346.03,-696.08 346.68,-696.62"/>
<polygon fill="#f910dd" stroke="#ffffff" points="344.21,-699.13 354.18,-702.72 348.63,-693.7 344.21,-699.13"/>
</g>
<!-- typing_extensions&#45;&gt;pydantic -->
<g id="edge58" class="edge">
<title>typing_extensions&#45;&gt;pydantic</title><style>.edge>path:hover{stroke-width:8}</style>
<path fill="none" stroke="#ffffff" d="M487.5,-584C531.21,-583.18 542.38,-588.42 585.88,-584"/>
<path fill="none" stroke="#ffffff" d="M587.88,-584C619.05,-580.83 622.3,-563.28 653,-557 739.71,-539.26 844.47,-544.96 899.15,-549.92"/>
<polygon fill="#f910dd" stroke="#ffffff" points="898.56,-553.38 908.85,-550.85 899.22,-546.42 898.56,-553.38"/>
</g>
<!-- typing_extensions&#45;&gt;pydantic_core -->
<g id="edge59" class="edge">
<title>typing_extensions&#45;&gt;pydantic_core</title><style>.edge>path:hover{stroke-width:8}</style>
<path fill="none" stroke="#ffffff" d="M587.88,-584C607.7,-581.99 629.64,-581.61 648.67,-581.88"/>
<polygon fill="#f910dd" stroke="#ffffff" points="648.52,-585.38 658.59,-582.09 648.67,-578.38 648.52,-585.38"/>
</g>
<!-- typing_extensions&#45;&gt;rich -->
<g id="edge60" class="edge">
<title>typing_extensions&#45;&gt;rich</title><style>.edge>path:hover{stroke-width:8}</style>
<path fill="none" stroke="#ffffff" d="M265.75,-622C342.36,-682.58 392.84,-591.12 485.5,-622"/>
</g>
<!-- typing_extensions&#45;&gt;sqlalchemy -->
<g id="edge61" class="edge">
<title>typing_extensions&#45;&gt;sqlalchemy</title><style>.edge>path:hover{stroke-width:8}</style>
<path fill="none" stroke="#ffffff" d="M825.75,-370C845.55,-374.46 884.81,-410.29 910.86,-435.89"/>
<polygon fill="#f910dd" stroke="#ffffff" points="908.18,-438.16 917.74,-442.73 913.11,-433.2 908.18,-438.16"/>
<path fill="none" stroke="#ffffff" d="M699.88,-370C754.09,-360.4 770.04,-357.91 823.75,-370"/>
</g>
<!-- typing_extensions&#45;&gt;starlette -->
<g id="edge62" class="edge">
<title>typing_extensions&#45;&gt;starlette</title><style>.edge>path:hover{stroke-width:8}</style>
<path fill="none" stroke="#ffffff" d="M938.5,-324C999.48,-330.16 1069.35,-312.4 1111.01,-299.12"/>
<polygon fill="#f910dd" stroke="#ffffff" points="1111.88,-302.52 1120.29,-296.08 1109.7,-295.87 1111.88,-302.52"/>
<path fill="none" stroke="#ffffff" d="M699.88,-370C747.56,-361.56 735.56,-314.38 780.75,-297 817.25,-282.96 830.34,-289.63 868.75,-297 900.58,-303.11 904.14,-322.1 936.5,-324"/>
<path fill="none" stroke="#ffffff" d="M265.75,-370C450.78,-318.52 507.94,-398.44 697.88,-370"/>
</g>
<!-- typing_extensions&#45;&gt;structlog -->
<g id="edge63" class="edge">
<title>typing_extensions&#45;&gt;structlog</title><style>.edge>path:hover{stroke-width:8}</style>
<path fill="none" stroke="#ffffff" d="M265.75,-622C316.97,-664.37 289.27,-712.39 344.75,-749 367.37,-763.93 558.81,-784.52 585.88,-786"/>
<path fill="none" stroke="#ffffff" d="M587.88,-786C628.37,-786.28 731.7,-737 787.19,-708.94"/>
<polygon fill="#f910dd" stroke="#ffffff" points="788.62,-712.14 795.95,-704.49 785.45,-705.91 788.62,-712.14"/>
</g>
<!-- typing_inspection -->
<g id="node37" class="node">
<title>typing_inspection</title><style>.edge>path:hover{stroke-width:8}</style>
<polygon fill="#f910bb" stroke="#ffffff" points="744.75,-510 741.75,-514 720.75,-514 717.75,-510 653,-510 653,-474 744.75,-474 744.75,-510"/>
<text xml:space="preserve" text-anchor="middle" x="698.88" y="-488.5" font-family="Helvetica,sans-Serif" font-size="10.00" fill="#e0e0e0">typing_inspection</text>
</g>
<!-- typing_extensions&#45;&gt;typing_inspection -->
<g id="edge64" class="edge">
<title>typing_extensions&#45;&gt;typing_inspection</title><style>.edge>path:hover{stroke-width:8}</style>
<path fill="none" stroke="#ffffff" d="M144.59,-434.33C159.06,-474.3 198.78,-569.85 263.75,-622"/>
<path fill="none" stroke="#ffffff" d="M487.5,-584C532.21,-584.93 516.94,-531.36 556.75,-511 582.65,-497.75 614.57,-492.67 641.49,-491.04"/>
<polygon fill="#f910dd" stroke="#ffffff" points="641.34,-494.55 651.18,-490.61 641.03,-487.56 641.34,-494.55"/>
<path fill="none" stroke="#ffffff" d="M265.75,-622C303.03,-651.92 300.23,-566.42 344.75,-549 374.34,-537.42 385.34,-541.63 416.25,-549 449.8,-557 451.05,-582.54 485.5,-584"/>
</g>
<!-- typing_extensions&#45;&gt;uvicorn -->
<g id="edge65" class="edge">
<title>typing_extensions&#45;&gt;uvicorn</title><style>.edge>path:hover{stroke-width:8}</style>
<path fill="none" stroke="#ffffff" d="M381.5,-986C413.74,-995.66 419.15,-1006.9 452.25,-1013 482.19,-1018.52 490.89,-1018.94 520.75,-1013 551.48,-1006.88 554.59,-987.7 585.88,-986"/>
</g>
<!-- typing_inspection&#45;&gt;fastapi -->
<g id="edge66" class="edge">
<title>typing_inspection&#45;&gt;fastapi</title><style>.edge>path:hover{stroke-width:8}</style>
<path fill="none" stroke="#ffffff" d="M938.5,-508C1036.05,-490.81 1063.02,-482.88 1148,-432"/>
<path fill="none" stroke="#ffffff" d="M825.75,-492C874.8,-500.24 888.93,-522.5 936.5,-508"/>
<path fill="none" stroke="#ffffff" d="M745.19,-488.41C768.77,-487.45 797.98,-487.67 823.75,-492"/>
</g>
<!-- typing_inspection&#45;&gt;pydantic -->
<g id="edge67" class="edge">
<title>typing_inspection&#45;&gt;pydantic</title><style>.edge>path:hover{stroke-width:8}</style>
<path fill="none" stroke="#ffffff" d="M825.75,-492C855.15,-496.94 884.4,-513.97 905.46,-528.94"/>
<polygon fill="#f910bb" stroke="#ffffff" points="903.18,-531.61 913.3,-534.72 907.33,-525.97 903.18,-531.61"/>
</g>
<!-- typing_inspection&#45;&gt;pydantic_settings -->
<g id="edge68" class="edge">
<title>typing_inspection&#45;&gt;pydantic_settings</title><style>.edge>path:hover{stroke-width:8}</style>
<path fill="none" stroke="#ffffff" d="M743.48,-510.45C809.15,-538.49 930.04,-591.19 970.25,-616 1006.54,-638.39 1003.77,-665.59 1045.12,-676"/>
<path fill="none" stroke="#ffffff" d="M1047.12,-676C1090.59,-686.98 1103.23,-673.7 1148,-676"/>
</g>
<!-- uvicorn&#45;&gt;main_py -->
<g id="edge69" class="edge">
<title>uvicorn&#45;&gt;main_py</title><style>.edge>path:hover{stroke-width:8}</style>
<path fill="none" stroke="#ffffff" d="M964.29,-855.54C1002.57,-830.09 1077.51,-787.57 1148,-790"/>
</g>
<!-- watchfiles&#45;&gt;uvicorn -->
<g id="edge70" class="edge">
<title>watchfiles&#45;&gt;uvicorn</title><style>.edge>path:hover{stroke-width:8}</style>
<path fill="none" stroke="#ffffff" d="M612.98,-904.32C634.33,-918.36 666.43,-936 697.88,-940"/>
</g>
<!-- websockets -->
<g id="node40" class="node">
<title>websockets</title><style>.edge>path:hover{stroke-width:8}</style>
<polygon fill="#5a5a5a" stroke="#ffffff" points="520.75,-896 517.75,-900 496.75,-900 493.75,-896 452.25,-896 452.25,-860 520.75,-860 520.75,-896"/>
<text xml:space="preserve" text-anchor="middle" x="486.5" y="-874.5" font-family="Helvetica,sans-Serif" font-size="10.00" fill="#e0e0e0">websockets</text>
</g>
<!-- websockets&#45;&gt;uvicorn -->
<g id="edge71" class="edge">
<title>websockets&#45;&gt;uvicorn</title><style>.edge>path:hover{stroke-width:8}</style>
<path fill="none" stroke="#ffffff" d="M512.06,-896.2C515.15,-898.98 518.14,-901.95 520.75,-905 550.77,-940.11 539.75,-988.5 585.88,-986"/>
<path fill="none" stroke="#ffffff" d="M587.88,-986C640.79,-983.13 644.97,-936.97 697.88,-940"/>
</g>
<!-- yaml -->
<g id="node41" class="node">
<title>yaml</title><style>.edge>path:hover{stroke-width:8}</style>
<polygon fill="#5a5a5a" stroke="#ffffff" points="725.88,-892 722.88,-896 701.88,-896 698.88,-892 671.88,-892 671.88,-856 725.88,-856 725.88,-892"/>
<text xml:space="preserve" text-anchor="middle" x="698.88" y="-870.5" font-family="Helvetica,sans-Serif" font-size="10.00" fill="#e0e0e0">yaml</text>
</g>
<!-- yaml&#45;&gt;pydantic_settings -->
<g id="edge72" class="edge">
<title>yaml&#45;&gt;pydantic_settings</title><style>.edge>path:hover{stroke-width:8}</style>
<path fill="none" stroke="#ffffff" d="M825.75,-866C877.54,-860.92 887.45,-845.38 936.5,-828"/>
<path fill="none" stroke="#ffffff" d="M726.02,-872.82C751.11,-871.57 790.08,-869.31 823.75,-866"/>
</g>
<!-- yaml&#45;&gt;uvicorn -->
<g id="edge73" class="edge">
<title>yaml&#45;&gt;uvicorn</title><style>.edge>path:hover{stroke-width:8}</style>
<path fill="none" stroke="#ffffff" d="M825.75,-866C850.03,-863.62 877.37,-865.54 898.81,-868.1"/>
<polygon fill="#5a5a5a" stroke="#ffffff" points="898.19,-871.55 908.56,-869.37 899.1,-864.61 898.19,-871.55"/>
</g>
</g>
</svg>

