<?xml version="1.0" encoding="UTF-8" standalone="no"?>
<!DOCTYPE svg PUBLIC "-//W3C//DTD SVG 1.1//EN"
 "http://www.w3.org/Graphics/SVG/1.1/DTD/svg11.dtd">
<!-- Generated by graphviz version 15.0.0 (20260523.1842)
 -->
<!-- Title: G Pages: 1 -->
<svg style="background-color:#141414" width="1703pt" height="900pt"
 viewBox="0.00 0.00 1703.00 900.00" xmlns="http://www.w3.org/2000/svg" xmlns:xlink="http://www.w3.org/1999/xlink">
<g id="graph0" class="graph" transform="scale(1 1) rotate(0) translate(4 895.6)">
<title>G</title><style>.edge>path:hover{stroke-width:8}</style>
<polygon fill="#141414" stroke="none" points="-4,4 -4,-895.6 1698.65,-895.6 1698.65,4 -4,4"/>
<!-- fastapi -->
<g id="node1" class="node">
<title>fastapi</title><style>.edge>path:hover{stroke-width:8}</style>
<polygon fill="#5a5a5a" stroke="#ffffff" points="735.45,-551 681.45,-551 681.45,-515 735.45,-515 735.45,-551"/>
<text xml:space="preserve" text-anchor="middle" x="708.45" y="-529.5" font-family="Helvetica,sans-Serif" font-size="10.00" fill="#e0e0e0">fastapi</text>
</g>
<!-- main_py -->
<g id="node13" class="node">
<title>main_py</title><style>.edge>path:hover{stroke-width:8}</style>
<ellipse fill="#635d35" stroke="#ffffff" cx="1664.28" cy="-287" rx="30.37" ry="18"/>
<text xml:space="preserve" text-anchor="middle" x="1664.28" y="-283.5" font-family="Helvetica,sans-Serif" font-size="10.00" fill="#e0e0e0">main.py</text>
</g>
<!-- fastapi&#45;&gt;main_py -->
<g id="edge1" class="edge">
<title>fastapi&#45;&gt;main_py</title><style>.edge>path:hover{stroke-width:8}</style>
<path fill="none" stroke="#ffffff" d="M1064.52,-766C1129,-778.99 1096.09,-854.04 1155.14,-883 1181.1,-895.73 1192.96,-892.69 1220.2,-883 1425.9,-809.85 1359.96,-637.51 1532.71,-504"/>
</g>
<!-- src_api_router -->
<g id="node17" class="node">
<title>src_api_router</title><style>.edge>path:hover{stroke-width:8}</style>
<ellipse fill="#34795c" stroke="#ffffff" cx="1426.6" cy="-504" rx="43.9" ry="18"/>
<text xml:space="preserve" text-anchor="middle" x="1426.6" y="-500.5" font-family="Helvetica,sans-Serif" font-size="10.00" fill="#e0e0e0">src.api.router</text>
</g>
<!-- fastapi&#45;&gt;src_api_router -->
<g id="edge2" class="edge">
<title>fastapi&#45;&gt;src_api_router</title><style>.edge>path:hover{stroke-width:8}</style>
<path fill="none" stroke="#ffffff" d="M1064.52,-766C1116,-775.94 1256.1,-793.96 1300.45,-766"/>
</g>
<!-- src_api_routes_auth -->
<g id="node19" class="node">
<title>src_api_routes_auth</title><style>.edge>path:hover{stroke-width:8}</style>
<ellipse fill="#46a47c" stroke="#ffffff" cx="1187.67" cy="-698" rx="32.53" ry="39.6"/>
<text xml:space="preserve" text-anchor="middle" x="1187.67" y="-712.5" font-family="Helvetica,sans-Serif" font-size="10.00" fill="#e0e0e0">src.</text>
<text xml:space="preserve" text-anchor="middle" x="1187.67" y="-700.5" font-family="Helvetica,sans-Serif" font-size="10.00" fill="#e0e0e0">api.</text>
<text xml:space="preserve" text-anchor="middle" x="1187.67" y="-688.5" font-family="Helvetica,sans-Serif" font-size="10.00" fill="#e0e0e0">routes.</text>
<text xml:space="preserve" text-anchor="middle" x="1187.67" y="-676.5" font-family="Helvetica,sans-Serif" font-size="10.00" fill="#e0e0e0">auth</text>
</g>
<!-- fastapi&#45;&gt;src_api_routes_auth -->
<g id="edge3" class="edge">
<title>fastapi&#45;&gt;src_api_routes_auth</title><style>.edge>path:hover{stroke-width:8}</style>
<path fill="none" stroke="#ffffff" d="M1064.52,-766C1097.7,-772.41 1130.91,-751.74 1154.32,-731.54"/>
<polygon fill="#5a5a5a" stroke="#ffffff" points="1156.59,-734.2 1161.66,-724.9 1151.9,-729.01 1156.59,-734.2"/>
</g>
<!-- src_api_routes_health -->
<g id="node20" class="node">
<title>src_api_routes_health</title><style>.edge>path:hover{stroke-width:8}</style>
<ellipse fill="#49ac81" stroke="#ffffff" cx="1187.67" cy="-601" rx="32.53" ry="39.6"/>
<text xml:space="preserve" text-anchor="middle" x="1187.67" y="-615.5" font-family="Helvetica,sans-Serif" font-size="10.00" fill="#e0e0e0">src.</text>
<text xml:space="preserve" text-anchor="middle" x="1187.67" y="-603.5" font-family="Helvetica,sans-Serif" font-size="10.00" fill="#e0e0e0">api.</text>
<text xml:space="preserve" text-anchor="middle" x="1187.67" y="-591.5" font-family="Helvetica,sans-Serif" font-size="10.00" fill="#e0e0e0">routes.</text>
<text xml:space="preserve" text-anchor="middle" x="1187.67" y="-579.5" font-family="Helvetica,sans-Serif" font-size="10.00" fill="#e0e0e0">health</text>
</g>
<!-- fastapi&#45;&gt;src_api_routes_health -->
<g id="edge4" class="edge">
<title>fastapi&#45;&gt;src_api_routes_health</title><style>.edge>path:hover{stroke-width:8}</style>
<path fill="none" stroke="#ffffff" d="M1064.52,-766C1072.17,-767.48 1126.35,-689.97 1159.93,-640.68"/>
<polygon fill="#5a5a5a" stroke="#ffffff" points="1162.78,-642.72 1165.5,-632.48 1156.99,-638.78 1162.78,-642.72"/>
</g>
<!-- src_api_routes_posts -->
<g id="node21" class="node">
<title>src_api_routes_posts</title><style>.edge>path:hover{stroke-width:8}</style>
<ellipse fill="#49ac81" stroke="#ffffff" cx="1187.67" cy="-834" rx="32.53" ry="39.6"/>
<text xml:space="preserve" text-anchor="middle" x="1187.67" y="-848.5" font-family="Helvetica,sans-Serif" font-size="10.00" fill="#e0e0e0">src.</text>
<text xml:space="preserve" text-anchor="middle" x="1187.67" y="-836.5" font-family="Helvetica,sans-Serif" font-size="10.00" fill="#e0e0e0">api.</text>
<text xml:space="preserve" text-anchor="middle" x="1187.67" y="-824.5" font-family="Helvetica,sans-Serif" font-size="10.00" fill="#e0e0e0">routes.</text>
<text xml:space="preserve" text-anchor="middle" x="1187.67" y="-812.5" font-family="Helvetica,sans-Serif" font-size="10.00" fill="#e0e0e0">posts</text>
</g>
<!-- fastapi&#45;&gt;src_api_routes_posts -->
<g id="edge5" class="edge">
<title>fastapi&#45;&gt;src_api_routes_posts</title><style>.edge>path:hover{stroke-width:8}</style>
<path fill="none" stroke="#ffffff" d="M1064.52,-766C1096.01,-772.08 1127.53,-790 1150.66,-805.91"/>
<polygon fill="#5a5a5a" stroke="#ffffff" points="1148.63,-808.76 1158.81,-811.7 1152.68,-803.05 1148.63,-808.76"/>
</g>
<!-- src_api_routes_root -->
<g id="node22" class="node">
<title>src_api_routes_root</title><style>.edge>path:hover{stroke-width:8}</style>
<ellipse fill="#49ac81" stroke="#ffffff" cx="1187.67" cy="-368" rx="32.53" ry="39.6"/>
<text xml:space="preserve" text-anchor="middle" x="1187.67" y="-382.5" font-family="Helvetica,sans-Serif" font-size="10.00" fill="#e0e0e0">src.</text>
<text xml:space="preserve" text-anchor="middle" x="1187.67" y="-370.5" font-family="Helvetica,sans-Serif" font-size="10.00" fill="#e0e0e0">api.</text>
<text xml:space="preserve" text-anchor="middle" x="1187.67" y="-358.5" font-family="Helvetica,sans-Serif" font-size="10.00" fill="#e0e0e0">routes.</text>
<text xml:space="preserve" text-anchor="middle" x="1187.67" y="-346.5" font-family="Helvetica,sans-Serif" font-size="10.00" fill="#e0e0e0">root</text>
</g>
<!-- fastapi&#45;&gt;src_api_routes_root -->
<g id="edge6" class="edge">
<title>fastapi&#45;&gt;src_api_routes_root</title><style>.edge>path:hover{stroke-width:8}</style>
<path fill="none" stroke="#ffffff" d="M772.45,-533C842.07,-490.91 807.82,-392 889.17,-392 889.17,-392 889.17,-392 971.9,-392 1031.87,-392 1100.68,-382.64 1143.92,-375.61"/>
<polygon fill="#5a5a5a" stroke="#ffffff" points="1144.35,-379.09 1153.64,-374 1143.2,-372.18 1144.35,-379.09"/>
<path fill="none" stroke="#ffffff" d="M735.74,-535.82C746.9,-536.3 759.97,-535.89 771.45,-533"/>
</g>
<!-- src_api_routes_users -->
<g id="node23" class="node">
<title>src_api_routes_users</title><style>.edge>path:hover{stroke-width:8}</style>
<ellipse fill="#439d77" stroke="#ffffff" cx="1187.67" cy="-504" rx="32.53" ry="39.6"/>
<text xml:space="preserve" text-anchor="middle" x="1187.67" y="-518.5" font-family="Helvetica,sans-Serif" font-size="10.00" fill="#e0e0e0">src.</text>
<text xml:space="preserve" text-anchor="middle" x="1187.67" y="-506.5" font-family="Helvetica,sans-Serif" font-size="10.00" fill="#e0e0e0">api.</text>
<text xml:space="preserve" text-anchor="middle" x="1187.67" y="-494.5" font-family="Helvetica,sans-Serif" font-size="10.00" fill="#e0e0e0">routes.</text>
<text xml:space="preserve" text-anchor="middle" x="1187.67" y="-482.5" font-family="Helvetica,sans-Serif" font-size="10.00" fill="#e0e0e0">users</text>
</g>
<!-- fastapi&#45;&gt;src_api_routes_users -->
<g id="edge7" class="edge">
<title>fastapi&#45;&gt;src_api_routes_users</title><style>.edge>path:hover{stroke-width:8}</style>
<path fill="none" stroke="#ffffff" d="M809.45,-533C960.02,-506.5 921.85,-706.11 1062.52,-766"/>
<path fill="none" stroke="#ffffff" d="M1064.52,-766C1165.93,-785.59 1106.46,-643.09 1155.14,-552 1156.64,-549.2 1158.26,-546.35 1159.93,-543.51"/>
<polygon fill="#5a5a5a" stroke="#ffffff" points="1162.75,-545.61 1165.01,-535.25 1156.79,-541.94 1162.75,-545.61"/>
</g>
<!-- src_core_exceptions -->
<g id="node26" class="node">
<title>src_core_exceptions</title><style>.edge>path:hover{stroke-width:8}</style>
<ellipse fill="#3db883" stroke="#ffffff" cx="890.17" cy="-474" rx="44.72" ry="31.11"/>
<text xml:space="preserve" text-anchor="middle" x="890.17" y="-482.5" font-family="Helvetica,sans-Serif" font-size="10.00" fill="#e0e0e0">src.</text>
<text xml:space="preserve" text-anchor="middle" x="890.17" y="-470.5" font-family="Helvetica,sans-Serif" font-size="10.00" fill="#e0e0e0">core.</text>
<text xml:space="preserve" text-anchor="middle" x="890.17" y="-458.5" font-family="Helvetica,sans-Serif" font-size="10.00" fill="#e0e0e0">exceptions</text>
</g>
<!-- fastapi&#45;&gt;src_core_exceptions -->
<g id="edge8" class="edge">
<title>fastapi&#45;&gt;src_core_exceptions</title><style>.edge>path:hover{stroke-width:8}</style>
<path fill="none" stroke="#ffffff" d="M772.45,-533C786.14,-524.72 792.69,-535.77 808.45,-533"/>
<path fill="none" stroke="#ffffff" d="M809.45,-533C827.39,-529.84 844.13,-519.21 857.58,-507.83"/>
<polygon fill="#5a5a5a" stroke="#ffffff" points="859.72,-510.62 864.8,-501.32 855.03,-505.42 859.72,-510.62"/>
</g>
<!-- fastapi_applications -->
<g id="node2" class="node">
<title>fastapi_applications</title><style>.edge>path:hover{stroke-width:8}</style>
<polygon fill="#5a5a5a" stroke="#ffffff" points="630.89,-551 563.14,-551 563.14,-515 630.89,-515 630.89,-551"/>
<text xml:space="preserve" text-anchor="middle" x="597.01" y="-535.5" font-family="Helvetica,sans-Serif" font-size="10.00" fill="#e0e0e0">fastapi.</text>
<text xml:space="preserve" text-anchor="middle" x="597.01" y="-523.5" font-family="Helvetica,sans-Serif" font-size="10.00" fill="#e0e0e0">applications</text>
</g>
<!-- fastapi_applications&#45;&gt;fastapi -->
<g id="edge9" class="edge">
<title>fastapi_applications&#45;&gt;fastapi</title><style>.edge>path:hover{stroke-width:8}</style>
<path fill="none" stroke="#ffffff" d="M631.14,-533C643.25,-533 657.04,-533 669.54,-533"/>
<polygon fill="#5a5a5a" stroke="#ffffff" points="669.51,-536.5 679.51,-533 669.51,-529.5 669.51,-536.5"/>
</g>
<!-- fastapi_background -->
<g id="node3" class="node">
<title>fastapi_background</title><style>.edge>path:hover{stroke-width:8}</style>
<ellipse fill="#ac4949" stroke="#ffffff" cx="465.73" cy="-684" rx="46.85" ry="22.63"/>
<text xml:space="preserve" text-anchor="middle" x="465.73" y="-686.5" font-family="Helvetica,sans-Serif" font-size="10.00" fill="#e0e0e0">fastapi.</text>
<text xml:space="preserve" text-anchor="middle" x="465.73" y="-674.5" font-family="Helvetica,sans-Serif" font-size="10.00" fill="#e0e0e0">background</text>
</g>
<!-- fastapi_background&#45;&gt;fastapi -->
<g id="edge10" class="edge">
<title>fastapi_background&#45;&gt;fastapi</title><style>.edge>path:hover{stroke-width:8}</style>
<path fill="none" stroke="#ffffff" d="M492.67,-702.78C519.64,-719.8 562.51,-739.73 596.01,-722"/>
</g>
<!-- fastapi_datastructures -->
<g id="node4" class="node">
<title>fastapi_datastructures</title><style>.edge>path:hover{stroke-width:8}</style>
<ellipse fill="#d92626" stroke="#ffffff" cx="327.55" cy="-668" rx="55.33" ry="22.63"/>
<text xml:space="preserve" text-anchor="middle" x="327.55" y="-670.5" font-family="Helvetica,sans-Serif" font-size="10.00" fill="#e0e0e0">fastapi.</text>
<text xml:space="preserve" text-anchor="middle" x="327.55" y="-658.5" font-family="Helvetica,sans-Serif" font-size="10.00" fill="#e0e0e0">datastructures</text>
</g>
<!-- fastapi_datastructures&#45;&gt;fastapi -->
<g id="edge11" class="edge">
<title>fastapi_datastructures&#45;&gt;fastapi</title><style>.edge>path:hover{stroke-width:8}</style>
<path fill="none" stroke="#ffffff" d="M339.12,-690.55C353.1,-717.36 380.51,-760.76 418.88,-779 456.49,-796.88 474.32,-795.45 512.57,-779 533.95,-769.81 529.33,-754.07 548.57,-741 567.36,-728.24 575.94,-732.62 596.01,-722"/>
</g>
<!-- fastapi_datastructures&#45;&gt;fastapi_applications -->
<g id="edge12" class="edge">
<title>fastapi_datastructures&#45;&gt;fastapi_applications</title><style>.edge>path:hover{stroke-width:8}</style>
<path fill="none" stroke="#ffffff" d="M358.43,-648.78C366.53,-643.27 375.19,-637.09 382.88,-631 399.9,-617.52 400.58,-609.67 418.88,-598 437.48,-586.15 443.18,-583.7 464.73,-579"/>
</g>
<!-- fastapi_param_functions -->
<g id="node6" class="node">
<title>fastapi_param_functions</title><style>.edge>path:hover{stroke-width:8}</style>
<polygon fill="#5a5a5a" stroke="#ffffff" points="509.73,-643 421.73,-643 421.73,-607 509.73,-607 509.73,-643"/>
<text xml:space="preserve" text-anchor="middle" x="465.73" y="-627.5" font-family="Helvetica,sans-Serif" font-size="10.00" fill="#e0e0e0">fastapi.</text>
<text xml:space="preserve" text-anchor="middle" x="465.73" y="-615.5" font-family="Helvetica,sans-Serif" font-size="10.00" fill="#e0e0e0">param_functions</text>
</g>
<!-- fastapi_datastructures&#45;&gt;fastapi_param_functions -->
<g id="edge13" class="edge">
<title>fastapi_datastructures&#45;&gt;fastapi_param_functions</title><style>.edge>path:hover{stroke-width:8}</style>
<path fill="none" stroke="#ffffff" d="M372.01,-654.28C384.42,-650.36 398.08,-646.04 411.02,-641.96"/>
<polygon fill="#d92626" stroke="#ffffff" points="411.75,-645.4 420.24,-639.05 409.65,-638.72 411.75,-645.4"/>
</g>
<!-- fastapi_routing -->
<g id="node9" class="node">
<title>fastapi_routing</title><style>.edge>path:hover{stroke-width:8}</style>
<polygon fill="#5a5a5a" stroke="#ffffff" points="492.73,-551 438.73,-551 438.73,-515 492.73,-515 492.73,-551"/>
<text xml:space="preserve" text-anchor="middle" x="465.73" y="-535.5" font-family="Helvetica,sans-Serif" font-size="10.00" fill="#e0e0e0">fastapi.</text>
<text xml:space="preserve" text-anchor="middle" x="465.73" y="-523.5" font-family="Helvetica,sans-Serif" font-size="10.00" fill="#e0e0e0">routing</text>
</g>
<!-- fastapi_datastructures&#45;&gt;fastapi_routing -->
<g id="edge14" class="edge">
<title>fastapi_datastructures&#45;&gt;fastapi_routing</title><style>.edge>path:hover{stroke-width:8}</style>
<path fill="none" stroke="#ffffff" d="M345.17,-646.12C362.33,-624.27 390.53,-590.38 418.88,-565 422.21,-562.03 425.81,-559.09 429.49,-556.27"/>
<polygon fill="#d92626" stroke="#ffffff" points="431.45,-559.18 437.46,-550.45 427.32,-553.53 431.45,-559.18"/>
</g>
<!-- fastapi_exceptions -->
<g id="node5" class="node">
<title>fastapi_exceptions</title><style>.edge>path:hover{stroke-width:8}</style>
<ellipse fill="#d92626" stroke="#ffffff" cx="327.55" cy="-376" rx="44.72" ry="22.63"/>
<text xml:space="preserve" text-anchor="middle" x="327.55" y="-378.5" font-family="Helvetica,sans-Serif" font-size="10.00" fill="#e0e0e0">fastapi.</text>
<text xml:space="preserve" text-anchor="middle" x="327.55" y="-366.5" font-family="Helvetica,sans-Serif" font-size="10.00" fill="#e0e0e0">exceptions</text>
</g>
<!-- fastapi_exceptions&#45;&gt;fastapi -->
<g id="edge15" class="edge">
<title>fastapi_exceptions&#45;&gt;fastapi</title><style>.edge>path:hover{stroke-width:8}</style>
<path fill="none" stroke="#ffffff" d="M356.44,-393.67C389.28,-413.98 442.2,-445.05 464.73,-449"/>
<path fill="none" stroke="#ffffff" d="M598.01,-468C628,-473.37 657.43,-491.82 678.21,-507.69"/>
<polygon fill="#d92626" stroke="#ffffff" points="675.92,-510.34 685.93,-513.81 680.26,-504.85 675.92,-510.34"/>
<path fill="none" stroke="#ffffff" d="M466.73,-449C523.93,-459.03 538.85,-457.76 596.01,-468"/>
</g>
<!-- fastapi_exceptions&#45;&gt;fastapi_applications -->
<g id="edge16" class="edge">
<title>fastapi_exceptions&#45;&gt;fastapi_applications</title><style>.edge>path:hover{stroke-width:8}</style>
<path fill="none" stroke="#ffffff" d="M357.62,-393.08C366.23,-398.83 375.36,-405.67 382.88,-413 402.5,-432.11 397.28,-446.18 418.88,-463 440.27,-479.66 506.94,-503.69 552.1,-518.82"/>
<polygon fill="#d92626" stroke="#ffffff" points="550.76,-522.07 561.36,-521.9 552.97,-515.43 550.76,-522.07"/>
</g>
<!-- fastapi_responses -->
<g id="node8" class="node">
<title>fastapi_responses</title><style>.edge>path:hover{stroke-width:8}</style>
<polygon fill="#5a5a5a" stroke="#ffffff" points="496.23,-343 435.23,-343 435.23,-307 496.23,-307 496.23,-343"/>
<text xml:space="preserve" text-anchor="middle" x="465.73" y="-327.5" font-family="Helvetica,sans-Serif" font-size="10.00" fill="#e0e0e0">fastapi.</text>
<text xml:space="preserve" text-anchor="middle" x="465.73" y="-315.5" font-family="Helvetica,sans-Serif" font-size="10.00" fill="#e0e0e0">responses</text>
</g>
<!-- fastapi_exceptions&#45;&gt;fastapi_responses -->
<g id="edge17" class="edge">
<title>fastapi_exceptions&#45;&gt;fastapi_responses</title><style>.edge>path:hover{stroke-width:8}</style>
<path fill="none" stroke="#ffffff" d="M364.33,-362.6C382.78,-355.69 405.34,-347.24 424.4,-340.1"/>
<polygon fill="#d92626" stroke="#ffffff" points="425.6,-343.39 433.74,-336.6 423.15,-336.83 425.6,-343.39"/>
</g>
<!-- fastapi_exceptions&#45;&gt;fastapi_routing -->
<g id="edge18" class="edge">
<title>fastapi_exceptions&#45;&gt;fastapi_routing</title><style>.edge>path:hover{stroke-width:8}</style>
<path fill="none" stroke="#ffffff" d="M359.31,-392.43C367.79,-398.07 376.42,-405.02 382.88,-413 409.47,-445.84 392.48,-468.01 418.88,-501 421.88,-504.75 425.44,-508.25 429.22,-511.45"/>
<polygon fill="#d92626" stroke="#ffffff" points="427.02,-514.17 437.1,-517.44 431.26,-508.6 427.02,-514.17"/>
</g>
<!-- fastapi_param_functions&#45;&gt;fastapi -->
<g id="edge19" class="edge">
<title>fastapi_param_functions&#45;&gt;fastapi</title><style>.edge>path:hover{stroke-width:8}</style>
<path fill="none" stroke="#ffffff" d="M499.22,-643.22C503.78,-646.04 508.35,-649.01 512.57,-652 552.11,-679.93 553.23,-744.64 596.01,-722"/>
<path fill="none" stroke="#ffffff" d="M598.01,-722C659.39,-689.52 688.95,-606.79 700.81,-562.33"/>
<polygon fill="#5a5a5a" stroke="#ffffff" points="704.15,-563.41 703.21,-552.85 697.36,-561.69 704.15,-563.41"/>
</g>
<!-- fastapi_requests -->
<g id="node7" class="node">
<title>fastapi_requests</title><style>.edge>path:hover{stroke-width:8}</style>
<ellipse fill="#b34c4c" stroke="#ffffff" cx="597.01" cy="-836" rx="37.83" ry="22.63"/>
<text xml:space="preserve" text-anchor="middle" x="597.01" y="-838.5" font-family="Helvetica,sans-Serif" font-size="10.00" fill="#e0e0e0">fastapi.</text>
<text xml:space="preserve" text-anchor="middle" x="597.01" y="-826.5" font-family="Helvetica,sans-Serif" font-size="10.00" fill="#e0e0e0">requests</text>
</g>
<!-- fastapi_requests&#45;&gt;fastapi -->
<g id="edge20" class="edge">
<title>fastapi_requests&#45;&gt;fastapi</title><style>.edge>path:hover{stroke-width:8}</style>
<path fill="none" stroke="#ffffff" d="M627.08,-822.01C634,-817.45 640.73,-811.78 645.45,-805 698.07,-729.4 706.72,-616 707.7,-562.7"/>
<polygon fill="#b34c4c" stroke="#ffffff" points="711.19,-562.93 707.79,-552.89 704.19,-562.86 711.19,-562.93"/>
</g>
<!-- fastapi_responses&#45;&gt;fastapi -->
<g id="edge21" class="edge">
<title>fastapi_responses&#45;&gt;fastapi</title><style>.edge>path:hover{stroke-width:8}</style>
<path fill="none" stroke="#ffffff" d="M598.01,-430C618.11,-442.43 627.18,-439.02 645.45,-454 663.25,-468.6 679.19,-489.17 690.45,-505.65"/>
<polygon fill="#5a5a5a" stroke="#ffffff" points="687.24,-507.14 695.68,-513.55 693.07,-503.28 687.24,-507.14"/>
</g>
<!-- fastapi_responses&#45;&gt;main_py -->
<g id="edge22" class="edge">
<title>fastapi_responses&#45;&gt;main_py</title><style>.edge>path:hover{stroke-width:8}</style>
<path fill="none" stroke="#ffffff" d="M486.11,-343.44C510.4,-365.88 553.96,-404 596.01,-430"/>
<path fill="none" stroke="#ffffff" d="M1188.67,-300C1313.85,-309.52 1351.3,-320.42 1470.5,-281 1501.7,-270.68 1503.06,-226.79 1532.71,-241"/>
<path fill="none" stroke="#ffffff" d="M772.45,-430C835.48,-391.72 782.88,-320.02 845.45,-281 879.18,-259.96 895.15,-280.46 934.9,-281 1016.81,-282.11 1037.78,-276.54 1119.14,-286 1149.59,-289.54 1156.2,-296.68 1186.67,-300"/>
<path fill="none" stroke="#ffffff" d="M598.01,-430C663.57,-470.54 700.6,-460.38 771.45,-430"/>
</g>
<!-- fastapi_responses&#45;&gt;src_core_exceptions -->
<g id="edge23" class="edge">
<title>fastapi_responses&#45;&gt;src_core_exceptions</title><style>.edge>path:hover{stroke-width:8}</style>
<path fill="none" stroke="#ffffff" d="M772.45,-430C797.46,-415.08 828.4,-427.98 852.14,-443.58"/>
<polygon fill="#5a5a5a" stroke="#ffffff" points="850.07,-446.4 860.27,-449.25 854.07,-440.66 850.07,-446.4"/>
</g>
<!-- fastapi_routing&#45;&gt;fastapi -->
<g id="edge24" class="edge">
<title>fastapi_routing&#45;&gt;fastapi</title><style>.edge>path:hover{stroke-width:8}</style>
<path fill="none" stroke="#ffffff" d="M485.2,-514.52C509.23,-492.71 553.23,-460.33 596.01,-468"/>
</g>
<!-- fastapi_routing&#45;&gt;fastapi_applications -->
<g id="edge25" class="edge">
<title>fastapi_routing&#45;&gt;fastapi_applications</title><style>.edge>path:hover{stroke-width:8}</style>
<path fill="none" stroke="#ffffff" d="M493.2,-533C509.92,-533 531.95,-533 551.32,-533"/>
<polygon fill="#5a5a5a" stroke="#ffffff" points="551.15,-536.5 561.15,-533 551.15,-529.5 551.15,-536.5"/>
</g>
<!-- fastapi_sse -->
<g id="node10" class="node">
<title>fastapi_sse</title><style>.edge>path:hover{stroke-width:8}</style>
<ellipse fill="#b83d3d" stroke="#ffffff" cx="327.55" cy="-279" rx="38.49" ry="18"/>
<text xml:space="preserve" text-anchor="middle" x="327.55" y="-275.5" font-family="Helvetica,sans-Serif" font-size="10.00" fill="#e0e0e0">fastapi.sse</text>
</g>
<!-- fastapi_sse&#45;&gt;fastapi_responses -->
<g id="edge26" class="edge">
<title>fastapi_sse&#45;&gt;fastapi_responses</title><style>.edge>path:hover{stroke-width:8}</style>
<path fill="none" stroke="#ffffff" d="M359.45,-289.44C378.61,-295.91 403.43,-304.29 424.16,-311.3"/>
<polygon fill="#b83d3d" stroke="#ffffff" points="422.86,-314.55 433.45,-314.43 425.1,-307.92 422.86,-314.55"/>
</g>
<!-- fastapi_sse&#45;&gt;fastapi_routing -->
<g id="edge27" class="edge">
<title>fastapi_sse&#45;&gt;fastapi_routing</title><style>.edge>path:hover{stroke-width:8}</style>
<path fill="none" stroke="#ffffff" d="M345.38,-295.26C357.33,-307.63 372.96,-325.62 382.88,-344 409.13,-392.62 395.51,-412.93 418.88,-463 425.72,-477.65 435.27,-492.78 443.89,-505.22"/>
<polygon fill="#b83d3d" stroke="#ffffff" points="441,-507.2 449.65,-513.32 446.71,-503.14 441,-507.2"/>
</g>
<!-- fastapi_staticfiles -->
<g id="node11" class="node">
<title>fastapi_staticfiles</title><style>.edge>path:hover{stroke-width:8}</style>
<ellipse fill="#ac4949" stroke="#ffffff" cx="327.55" cy="-170" rx="41.01" ry="22.63"/>
<text xml:space="preserve" text-anchor="middle" x="327.55" y="-172.5" font-family="Helvetica,sans-Serif" font-size="10.00" fill="#e0e0e0">fastapi.</text>
<text xml:space="preserve" text-anchor="middle" x="327.55" y="-160.5" font-family="Helvetica,sans-Serif" font-size="10.00" fill="#e0e0e0">staticfiles</text>
</g>
<!-- fastapi_staticfiles&#45;&gt;main_py -->
<g id="edge28" class="edge">
<title>fastapi_staticfiles&#45;&gt;main_py</title><style>.edge>path:hover{stroke-width:8}</style>
<path fill="none" stroke="#ffffff" d="M368.88,-170C421.24,-170 515.45,-170 596.01,-170 596.01,-170 596.01,-170 971.9,-170 1193.92,-170 1259.51,-131.84 1470.5,-201 1501.73,-211.24 1503.18,-226.54 1532.71,-241"/>
</g>
<!-- fastapi_websockets -->
<g id="node12" class="node">
<title>fastapi_websockets</title><style>.edge>path:hover{stroke-width:8}</style>
<ellipse fill="#b34c4c" stroke="#ffffff" cx="597.01" cy="-773" rx="48.44" ry="22.63"/>
<text xml:space="preserve" text-anchor="middle" x="597.01" y="-775.5" font-family="Helvetica,sans-Serif" font-size="10.00" fill="#e0e0e0">fastapi.</text>
<text xml:space="preserve" text-anchor="middle" x="597.01" y="-763.5" font-family="Helvetica,sans-Serif" font-size="10.00" fill="#e0e0e0">websockets</text>
</g>
<!-- fastapi_websockets&#45;&gt;fastapi -->
<g id="edge29" class="edge">
<title>fastapi_websockets&#45;&gt;fastapi</title><style>.edge>path:hover{stroke-width:8}</style>
<path fill="none" stroke="#ffffff" d="M626.75,-755.13C633.66,-749.7 640.48,-743.23 645.45,-736 682.7,-681.83 698.14,-604.58 704.08,-562.72"/>
<polygon fill="#b34c4c" stroke="#ffffff" points="707.53,-563.29 705.37,-552.92 700.59,-562.38 707.53,-563.29"/>
</g>
<!-- pydantic_settings -->
<g id="node14" class="node">
<title>pydantic_settings</title><style>.edge>path:hover{stroke-width:8}</style>
<ellipse fill="#70b653" stroke="#ffffff" cx="1063.52" cy="-216" rx="55.62" ry="18"/>
<text xml:space="preserve" text-anchor="middle" x="1063.52" y="-212.5" font-family="Helvetica,sans-Serif" font-size="10.00" fill="#e0e0e0">pydantic_settings</text>
</g>
<!-- src_core_config -->
<g id="node25" class="node">
<title>src_core_config</title><style>.edge>path:hover{stroke-width:8}</style>
<ellipse fill="#4cb387" stroke="#ffffff" cx="1426.6" cy="-241" rx="29.88" ry="31.11"/>
<text xml:space="preserve" text-anchor="middle" x="1426.6" y="-249.5" font-family="Helvetica,sans-Serif" font-size="10.00" fill="#e0e0e0">src.</text>
<text xml:space="preserve" text-anchor="middle" x="1426.6" y="-237.5" font-family="Helvetica,sans-Serif" font-size="10.00" fill="#e0e0e0">core.</text>
<text xml:space="preserve" text-anchor="middle" x="1426.6" y="-225.5" font-family="Helvetica,sans-Serif" font-size="10.00" fill="#e0e0e0">config</text>
</g>
<!-- pydantic_settings&#45;&gt;src_core_config -->
<g id="edge30" class="edge">
<title>pydantic_settings&#45;&gt;src_core_config</title><style>.edge>path:hover{stroke-width:8}</style>
<path fill="none" stroke="#ffffff" d="M1118.19,-219.72C1191.06,-224.76 1319.68,-233.67 1385.03,-238.19"/>
<polygon fill="#70b653" stroke="#ffffff" points="1384.74,-241.68 1394.96,-238.88 1385.23,-234.7 1384.74,-241.68"/>
</g>
<!-- src -->
<g id="node15" class="node">
<title>src</title><style>.edge>path:hover{stroke-width:8}</style>
<ellipse fill="#10f995" stroke="#ffffff" cx="1533.71" cy="-341" rx="27" ry="18"/>
<text xml:space="preserve" text-anchor="middle" x="1533.71" y="-337.5" font-family="Helvetica,sans-Serif" font-size="10.00" fill="#e0e0e0">src</text>
</g>
<!-- src&#45;&gt;main_py -->
<g id="edge31" class="edge">
<title>src&#45;&gt;main_py</title><style>.edge>path:hover{stroke-width:8}</style>
<path fill="none" stroke="#ffffff" d="M1549.58,-326.25C1565.99,-310.27 1590.91,-287.02 1596.92,-287"/>
</g>
<!-- src_api -->
<g id="node16" class="node">
<title>src_api</title><style>.edge>path:hover{stroke-width:8}</style>
<ellipse fill="#3bce8f" stroke="#ffffff" cx="1533.71" cy="-287" rx="27.21" ry="18"/>
<text xml:space="preserve" text-anchor="middle" x="1533.71" y="-283.5" font-family="Helvetica,sans-Serif" font-size="10.00" fill="#e0e0e0">src.api</text>
</g>
<!-- src_api&#45;&gt;main_py -->
<g id="edge32" class="edge">
<title>src_api&#45;&gt;main_py</title><style>.edge>path:hover{stroke-width:8}</style>
<path fill="none" stroke="#ffffff" d="M1561.35,-287.04C1572.36,-287.04 1585.25,-287.04 1596.92,-287"/>
</g>
<!-- src_api_router&#45;&gt;main_py -->
<g id="edge33" class="edge">
<title>src_api_router&#45;&gt;main_py</title><style>.edge>path:hover{stroke-width:8}</style>
<path fill="none" stroke="#ffffff" d="M1463.94,-513.93C1485.84,-517.66 1513.18,-518.1 1532.71,-504"/>
</g>
<!-- src_api_routes -->
<g id="node18" class="node">
<title>src_api_routes</title><style>.edge>path:hover{stroke-width:8}</style>
<ellipse fill="#53b68c" stroke="#ffffff" cx="1301.45" cy="-550" rx="45.25" ry="18"/>
<text xml:space="preserve" text-anchor="middle" x="1301.45" y="-546.5" font-family="Helvetica,sans-Serif" font-size="10.00" fill="#e0e0e0">src.api.routes</text>
</g>
<!-- src_api_routes&#45;&gt;src_api_router -->
<g id="edge34" class="edge">
<title>src_api_routes&#45;&gt;src_api_router</title><style>.edge>path:hover{stroke-width:8}</style>
<path fill="none" stroke="#ffffff" d="M1335.45,-537.67C1350.04,-532.22 1367.37,-525.75 1382.93,-519.94"/>
<polygon fill="#53b68c" stroke="#ffffff" points="1383.8,-523.35 1391.94,-516.57 1381.35,-516.79 1383.8,-523.35"/>
</g>
<!-- src_api_routes_auth&#45;&gt;src_api_router -->
<g id="edge35" class="edge">
<title>src_api_routes_auth&#45;&gt;src_api_router</title><style>.edge>path:hover{stroke-width:8}</style>
<path fill="none" stroke="#ffffff" d="M1302.45,-766C1394.03,-708.25 1318.67,-623.3 1382.7,-536 1385.34,-532.39 1388.51,-529.01 1391.91,-525.9"/>
<polygon fill="#46a47c" stroke="#ffffff" points="1393.97,-528.73 1399.5,-519.7 1389.54,-523.32 1393.97,-528.73"/>
<path fill="none" stroke="#ffffff" d="M1210.23,-726.71C1232.83,-753.18 1269.32,-785.63 1300.45,-766"/>
</g>
<!-- src_api_routes_health&#45;&gt;src_api_router -->
<g id="edge36" class="edge">
<title>src_api_routes_health&#45;&gt;src_api_router</title><style>.edge>path:hover{stroke-width:8}</style>
<path fill="none" stroke="#ffffff" d="M1209.42,-571.01C1221.6,-555.12 1238.13,-536.22 1256.2,-523 1273.48,-510.37 1279.08,-502.78 1300.45,-504"/>
</g>
<!-- src_api_routes_posts&#45;&gt;src_api_router -->
<g id="edge37" class="edge">
<title>src_api_routes_posts&#45;&gt;src_api_router</title><style>.edge>path:hover{stroke-width:8}</style>
<path fill="none" stroke="#ffffff" d="M1217.31,-816.92C1239.99,-803.32 1272.4,-783.69 1300.45,-766"/>
</g>
<!-- src_api_routes_root&#45;&gt;src_api_router -->
<g id="edge38" class="edge">
<title>src_api_routes_root&#45;&gt;src_api_router</title><style>.edge>path:hover{stroke-width:8}</style>
<path fill="none" stroke="#ffffff" d="M1201.19,-404.48C1217.26,-443.77 1249.34,-501.09 1300.45,-504"/>
<path fill="none" stroke="#ffffff" d="M1302.45,-504C1324.87,-505.28 1349.63,-505.51 1371.03,-505.33"/>
<polygon fill="#49ac81" stroke="#ffffff" points="1371.06,-508.83 1381.02,-505.22 1370.98,-501.83 1371.06,-508.83"/>
</g>
<!-- src_api_routes_users&#45;&gt;src_api_router -->
<g id="edge39" class="edge">
<title>src_api_routes_users&#45;&gt;src_api_router</title><style>.edge>path:hover{stroke-width:8}</style>
<path fill="none" stroke="#ffffff" d="M1220.5,-503.04C1242.88,-502.6 1273.52,-502.47 1300.45,-504"/>
</g>
<!-- src_core -->
<g id="node24" class="node">
<title>src_core</title><style>.edge>path:hover{stroke-width:8}</style>
<ellipse fill="#47c28d" stroke="#ffffff" cx="890.17" cy="-308" rx="30.82" ry="18"/>
<text xml:space="preserve" text-anchor="middle" x="890.17" y="-304.5" font-family="Helvetica,sans-Serif" font-size="10.00" fill="#e0e0e0">src.core</text>
</g>
<!-- src_core&#45;&gt;main_py -->
<g id="edge40" class="edge">
<title>src_core&#45;&gt;main_py</title><style>.edge>path:hover{stroke-width:8}</style>
<path fill="none" stroke="#ffffff" d="M1064.52,-300C1115.63,-318.3 1132.54,-295.88 1186.67,-300"/>
<path fill="none" stroke="#ffffff" d="M918.53,-300.47C953.17,-292.33 1014.16,-282.68 1062.52,-300"/>
</g>
<!-- src_core&#45;&gt;src_api_routes_users -->
<g id="edge41" class="edge">
<title>src_core&#45;&gt;src_api_routes_users</title><style>.edge>path:hover{stroke-width:8}</style>
<path fill="none" stroke="#ffffff" d="M1064.52,-300C1098.38,-312.13 1142.75,-402.28 1167.62,-458.6"/>
<polygon fill="#47c28d" stroke="#ffffff" points="1164.37,-459.89 1171.58,-467.66 1170.78,-457.09 1164.37,-459.89"/>
</g>
<!-- src_core_config&#45;&gt;main_py -->
<g id="edge42" class="edge">
<title>src_core_config&#45;&gt;main_py</title><style>.edge>path:hover{stroke-width:8}</style>
<path fill="none" stroke="#ffffff" d="M1456.29,-234.55C1478.29,-231.08 1508.85,-229.56 1532.71,-241"/>
</g>
<!-- src_core_exceptions&#45;&gt;main_py -->
<g id="edge43" class="edge">
<title>src_core_exceptions&#45;&gt;main_py</title><style>.edge>path:hover{stroke-width:8}</style>
<path fill="none" stroke="#ffffff" d="M930.51,-487.86C965.15,-498.39 1017.03,-510.12 1062.52,-504"/>
<path fill="none" stroke="#ffffff" d="M1534.71,-504C1575.37,-474.63 1546.75,-287.16 1596.92,-287"/>
<path fill="none" stroke="#ffffff" d="M1064.52,-504C1110.07,-499.29 1110.76,-466.23 1155.14,-455 1223.78,-437.63 1331.77,-441.79 1470.5,-477 1499.71,-484.42 1508.27,-521.65 1532.71,-504"/>
</g>
<!-- src_core_exceptions&#45;&gt;src_api_routes_users -->
<g id="edge44" class="edge">
<title>src_core_exceptions&#45;&gt;src_api_routes_users</title><style>.edge>path:hover{stroke-width:8}</style>
<path fill="none" stroke="#ffffff" d="M1064.52,-504C1090.59,-500.49 1120.08,-500.39 1143.55,-501.21"/>
<polygon fill="#3db883" stroke="#ffffff" points="1143.23,-504.7 1153.37,-501.62 1143.53,-497.7 1143.23,-504.7"/>
</g>
<!-- src_core_logging -->
<g id="node27" class="node">
<title>src_core_logging</title><style>.edge>path:hover{stroke-width:8}</style>
<ellipse fill="#53b68c" stroke="#ffffff" cx="1426.6" cy="-123" rx="33.06" ry="31.11"/>
<text xml:space="preserve" text-anchor="middle" x="1426.6" y="-131.5" font-family="Helvetica,sans-Serif" font-size="10.00" fill="#e0e0e0">src.</text>
<text xml:space="preserve" text-anchor="middle" x="1426.6" y="-119.5" font-family="Helvetica,sans-Serif" font-size="10.00" fill="#e0e0e0">core.</text>
<text xml:space="preserve" text-anchor="middle" x="1426.6" y="-107.5" font-family="Helvetica,sans-Serif" font-size="10.00" fill="#e0e0e0">logging</text>
</g>
<!-- src_core_logging&#45;&gt;main_py -->
<g id="edge45" class="edge">
<title>src_core_logging&#45;&gt;main_py</title><style>.edge>path:hover{stroke-width:8}</style>
<path fill="none" stroke="#ffffff" d="M1534.71,-241C1547.68,-247.22 1549.34,-251.46 1560.92,-260 1577.01,-271.87 1576.92,-287.06 1596.92,-287"/>
<path fill="none" stroke="#ffffff" d="M1449.67,-145.66C1456.44,-152.74 1463.85,-160.62 1470.5,-168 1499.04,-199.66 1494.27,-222.57 1532.71,-241"/>
</g>
<!-- starlette -->
<g id="node28" class="node">
<title>starlette</title><style>.edge>path:hover{stroke-width:8}</style>
<ellipse fill="#1095f9" stroke="#ffffff" cx="43.13" cy="-293" rx="30.82" ry="18"/>
<text xml:space="preserve" text-anchor="middle" x="43.13" y="-289.5" font-family="Helvetica,sans-Serif" font-size="10.00" fill="#e0e0e0">starlette</text>
</g>
<!-- starlette&#45;&gt;fastapi -->
<g id="edge46" class="edge">
<title>starlette&#45;&gt;fastapi</title><style>.edge>path:hover{stroke-width:8}</style>
<path fill="none" stroke="#ffffff" d="M180.24,-541C300.72,-597.07 333.84,-426.05 464.73,-449"/>
<path fill="none" stroke="#ffffff" d="M47.13,-311.14C56.27,-359.79 88.87,-492.75 178.24,-541"/>
</g>
<!-- starlette&#45;&gt;fastapi_applications -->
<g id="edge47" class="edge">
<title>starlette&#45;&gt;fastapi_applications</title><style>.edge>path:hover{stroke-width:8}</style>
<path fill="none" stroke="#ffffff" d="M180.24,-668C212.21,-697.18 231.02,-649.26 272.22,-636 357.16,-608.67 377.54,-598 464.73,-579"/>
<path fill="none" stroke="#ffffff" d="M45.06,-311.34C48.35,-362.58 62.74,-510.28 122.27,-614 139.48,-643.98 152.74,-644.66 178.24,-668"/>
</g>
<!-- starlette&#45;&gt;fastapi_background -->
<g id="edge48" class="edge">
<title>starlette&#45;&gt;fastapi_background</title><style>.edge>path:hover{stroke-width:8}</style>
<path fill="none" stroke="#ffffff" d="M328.55,-836C394.67,-847.51 370.33,-761.33 418.88,-715 421.23,-712.76 423.75,-710.57 426.37,-708.46"/>
<polygon fill="#1095f9" stroke="#ffffff" points="428.37,-711.33 434.27,-702.53 424.17,-705.74 428.37,-711.33"/>
<path fill="none" stroke="#ffffff" d="M180.24,-668C253.37,-734.75 229.01,-819.02 326.55,-836"/>
</g>
<!-- starlette&#45;&gt;fastapi_datastructures -->
<g id="edge49" class="edge">
<title>starlette&#45;&gt;fastapi_datastructures</title><style>.edge>path:hover{stroke-width:8}</style>
<path fill="none" stroke="#ffffff" d="M180.24,-668C204.47,-690.12 241.49,-689.92 272.22,-684.29"/>
<polygon fill="#1095f9" stroke="#ffffff" points="272.67,-687.77 281.75,-682.31 271.24,-680.92 272.67,-687.77"/>
</g>
<!-- starlette&#45;&gt;fastapi_exceptions -->
<g id="edge50" class="edge">
<title>starlette&#45;&gt;fastapi_exceptions</title><style>.edge>path:hover{stroke-width:8}</style>
<path fill="none" stroke="#ffffff" d="M71.21,-300.96C118.78,-314.94 217.96,-344.09 277.75,-361.66"/>
<polygon fill="#1095f9" stroke="#ffffff" points="276.4,-364.91 286.98,-364.37 278.37,-358.19 276.4,-364.91"/>
</g>
<!-- starlette&#45;&gt;fastapi_requests -->
<g id="edge51" class="edge">
<title>starlette&#45;&gt;fastapi_requests</title><style>.edge>path:hover{stroke-width:8}</style>
<path fill="none" stroke="#ffffff" d="M466.73,-836C493.35,-832.85 523.28,-832.64 547.63,-833.31"/>
<polygon fill="#1095f9" stroke="#ffffff" points="547.47,-836.81 557.58,-833.65 547.71,-829.81 547.47,-836.81"/>
</g>
<!-- starlette&#45;&gt;fastapi_responses -->
<g id="edge52" class="edge">
<title>starlette&#45;&gt;fastapi_responses</title><style>.edge>path:hover{stroke-width:8}</style>
<path fill="none" stroke="#ffffff" d="M69.33,-283.05C95.91,-273.23 139.26,-259.1 178.24,-255"/>
</g>
<!-- starlette&#45;&gt;fastapi_routing -->
<g id="edge53" class="edge">
<title>starlette&#45;&gt;fastapi_routing</title><style>.edge>path:hover{stroke-width:8}</style>
<path fill="none" stroke="#ffffff" d="M180.24,-541C262.73,-576.76 371.69,-557.64 427.81,-543.59"/>
<polygon fill="#1095f9" stroke="#ffffff" points="428.37,-547.06 437.16,-541.16 426.6,-540.29 428.37,-547.06"/>
</g>
<!-- starlette&#45;&gt;fastapi_sse -->
<g id="edge54" class="edge">
<title>starlette&#45;&gt;fastapi_sse</title><style>.edge>path:hover{stroke-width:8}</style>
<path fill="none" stroke="#ffffff" d="M74.26,-291.98C101.46,-291.29 142.57,-290.87 178.24,-293"/>
</g>
<!-- starlette&#45;&gt;fastapi_staticfiles -->
<g id="edge55" class="edge">
<title>starlette&#45;&gt;fastapi_staticfiles</title><style>.edge>path:hover{stroke-width:8}</style>
<path fill="none" stroke="#ffffff" d="M64.81,-279.97C71.67,-275.58 79.33,-270.63 86.27,-266 102.47,-255.19 104.91,-249.83 122.27,-241 150.33,-226.72 229.28,-200.68 280.42,-184.42"/>
<polygon fill="#1095f9" stroke="#ffffff" points="281.27,-187.82 289.75,-181.46 279.16,-181.15 281.27,-187.82"/>
</g>
<!-- starlette&#45;&gt;fastapi_websockets -->
<g id="edge56" class="edge">
<title>starlette&#45;&gt;fastapi_websockets</title><style>.edge>path:hover{stroke-width:8}</style>
<path fill="none" stroke="#ffffff" d="M328.55,-836C388.18,-846.38 404.62,-843.11 464.73,-836"/>
<path fill="none" stroke="#ffffff" d="M466.73,-836C485,-833.84 525.06,-813.3 555.78,-796.25"/>
<polygon fill="#1095f9" stroke="#ffffff" points="557.47,-799.31 564.48,-791.37 554.04,-793.21 557.47,-799.31"/>
</g>
<!-- starlette_responses -->
<g id="node29" class="node">
<title>starlette_responses</title><style>.edge>path:hover{stroke-width:8}</style>
<ellipse fill="#198ee6" stroke="#ffffff" cx="43.13" cy="-234" rx="43.13" ry="22.63"/>
<text xml:space="preserve" text-anchor="middle" x="43.13" y="-236.5" font-family="Helvetica,sans-Serif" font-size="10.00" fill="#e0e0e0">starlette.</text>
<text xml:space="preserve" text-anchor="middle" x="43.13" y="-224.5" font-family="Helvetica,sans-Serif" font-size="10.00" fill="#e0e0e0">responses</text>
</g>
<!-- starlette_responses&#45;&gt;fastapi_applications -->
<g id="edge57" class="edge">
<title>starlette_responses&#45;&gt;fastapi_applications</title><style>.edge>path:hover{stroke-width:8}</style>
<path fill="none" stroke="#ffffff" d="M71.6,-251.25C76.99,-255.56 82.22,-260.54 86.27,-266 113.67,-302.93 94.16,-326.61 122.27,-363 177.27,-434.21 376.84,-598.25 464.73,-579"/>
<path fill="none" stroke="#ffffff" d="M466.73,-579C495.85,-571.84 527.59,-560.6 552.33,-551.03"/>
<polygon fill="#198ee6" stroke="#ffffff" points="553.39,-554.37 561.42,-547.46 550.83,-547.86 553.39,-554.37"/>
</g>
<!-- starlette_responses&#45;&gt;fastapi_responses -->
<g id="edge58" class="edge">
<title>starlette_responses&#45;&gt;fastapi_responses</title><style>.edge>path:hover{stroke-width:8}</style>
<path fill="none" stroke="#ffffff" d="M180.24,-255C269.82,-245.58 298.72,-219.92 382.88,-252 407.28,-261.3 429.02,-281.57 443.95,-298.4"/>
<polygon fill="#198ee6" stroke="#ffffff" points="440.98,-300.32 450.13,-305.66 446.31,-295.78 440.98,-300.32"/>
<path fill="none" stroke="#ffffff" d="M81.8,-244.47C108.57,-250.79 145.44,-257.22 178.24,-255"/>
</g>
<!-- starlette_responses&#45;&gt;fastapi_routing -->
<g id="edge59" class="edge">
<title>starlette_responses&#45;&gt;fastapi_routing</title><style>.edge>path:hover{stroke-width:8}</style>
<path fill="none" stroke="#ffffff" d="M69.76,-252.16C75.37,-256.49 81.16,-261.24 86.27,-266 104.01,-282.53 104.06,-290.98 122.27,-307 224.06,-396.55 363.77,-477.86 428.77,-513.69"/>
<polygon fill="#198ee6" stroke="#ffffff" points="426.76,-516.58 437.21,-518.31 430.12,-510.44 426.76,-516.58"/>
</g>
<!-- starlette_responses&#45;&gt;fastapi_sse -->
<g id="edge60" class="edge">
<title>starlette_responses&#45;&gt;fastapi_sse</title><style>.edge>path:hover{stroke-width:8}</style>
<path fill="none" stroke="#ffffff" d="M180.24,-293C213.6,-294.99 251.12,-291.28 279.81,-287.18"/>
<polygon fill="#198ee6" stroke="#ffffff" points="280.26,-290.65 289.63,-285.71 279.22,-283.73 280.26,-290.65"/>
<path fill="none" stroke="#ffffff" d="M69.92,-251.95C95.92,-268.41 137.87,-290.59 178.24,-293"/>
</g>
<!-- starlette_staticfiles -->
<g id="node30" class="node">
<title>starlette_staticfiles</title><style>.edge>path:hover{stroke-width:8}</style>
<ellipse fill="#4981ac" stroke="#ffffff" cx="179.24" cy="-166" rx="41.01" ry="22.63"/>
<text xml:space="preserve" text-anchor="middle" x="179.24" y="-168.5" font-family="Helvetica,sans-Serif" font-size="10.00" fill="#e0e0e0">starlette.</text>
<text xml:space="preserve" text-anchor="middle" x="179.24" y="-156.5" font-family="Helvetica,sans-Serif" font-size="10.00" fill="#e0e0e0">staticfiles</text>
</g>
<!-- starlette_responses&#45;&gt;starlette_staticfiles -->
<g id="edge61" class="edge">
<title>starlette_responses&#45;&gt;starlette_staticfiles</title><style>.edge>path:hover{stroke-width:8}</style>
<path fill="none" stroke="#ffffff" d="M74.9,-218.4C93.74,-208.85 118.03,-196.53 138.34,-186.23"/>
<polygon fill="#198ee6" stroke="#ffffff" points="139.86,-189.39 147.19,-181.74 136.69,-183.15 139.86,-189.39"/>
</g>
<!-- starlette_staticfiles&#45;&gt;fastapi_staticfiles -->
<g id="edge62" class="edge">
<title>starlette_staticfiles&#45;&gt;fastapi_staticfiles</title><style>.edge>path:hover{stroke-width:8}</style>
<path fill="none" stroke="#ffffff" d="M220.61,-167.1C237.4,-167.56 257.1,-168.1 274.92,-168.59"/>
<polygon fill="#4981ac" stroke="#ffffff" points="274.71,-172.08 284.8,-168.86 274.9,-165.09 274.71,-172.08"/>
</g>
<!-- starlette_status -->
<g id="node31" class="node">
<title>starlette_status</title><style>.edge>path:hover{stroke-width:8}</style>
<ellipse fill="#538cb6" stroke="#ffffff" cx="465.73" cy="-747" rx="38.36" ry="22.63"/>
<text xml:space="preserve" text-anchor="middle" x="465.73" y="-749.5" font-family="Helvetica,sans-Serif" font-size="10.00" fill="#e0e0e0">starlette.</text>
<text xml:space="preserve" text-anchor="middle" x="465.73" y="-737.5" font-family="Helvetica,sans-Serif" font-size="10.00" fill="#e0e0e0">status</text>
</g>
<!-- starlette_status&#45;&gt;fastapi -->
<g id="edge63" class="edge">
<title>starlette_status&#45;&gt;fastapi</title><style>.edge>path:hover{stroke-width:8}</style>
<path fill="none" stroke="#ffffff" d="M504.31,-745.52C531.19,-743.13 567.52,-737.08 596.01,-722"/>
</g>
<!-- typing_extensions -->
<g id="node32" class="node">
<title>typing_extensions</title><style>.edge>path:hover{stroke-width:8}</style>
<ellipse fill="#5a22e7" stroke="#ffffff" cx="179.24" cy="-587" rx="56.98" ry="18"/>
<text xml:space="preserve" text-anchor="middle" x="179.24" y="-583.5" font-family="Helvetica,sans-Serif" font-size="10.00" fill="#e0e0e0">typing_extensions</text>
</g>
<!-- typing_extensions&#45;&gt;fastapi_applications -->
<g id="edge64" class="edge">
<title>typing_extensions&#45;&gt;fastapi_applications</title><style>.edge>path:hover{stroke-width:8}</style>
<path fill="none" stroke="#ffffff" d="M328.55,-579C389.05,-577.37 405.59,-591.88 464.73,-579"/>
</g>
<!-- typing_extensions&#45;&gt;fastapi_background -->
<g id="edge65" class="edge">
<title>typing_extensions&#45;&gt;fastapi_background</title><style>.edge>path:hover{stroke-width:8}</style>
<path fill="none" stroke="#ffffff" d="M195.13,-604.51C206.5,-617.95 222.5,-637.03 236.22,-654 252.55,-674.19 248.88,-688.63 272.22,-700 317.69,-722.15 376.4,-712.65 416.97,-701.1"/>
<polygon fill="#5a22e7" stroke="#ffffff" points="417.89,-704.48 426.45,-698.25 415.87,-697.78 417.89,-704.48"/>
</g>
<!-- typing_extensions&#45;&gt;fastapi_param_functions -->
<g id="edge66" class="edge">
<title>typing_extensions&#45;&gt;fastapi_param_functions</title><style>.edge>path:hover{stroke-width:8}</style>
<path fill="none" stroke="#ffffff" d="M328.55,-579C360.78,-578.13 395.16,-589.86 421.32,-601.68"/>
<polygon fill="#5a22e7" stroke="#ffffff" points="419.73,-604.8 430.26,-605.9 422.71,-598.47 419.73,-604.8"/>
</g>
<!-- typing_extensions&#45;&gt;fastapi_responses -->
<g id="edge67" class="edge">
<title>typing_extensions&#45;&gt;fastapi_responses</title><style>.edge>path:hover{stroke-width:8}</style>
<path fill="none" stroke="#ffffff" d="M215.96,-572.83C223.7,-568.22 231.09,-562.34 236.22,-555 290.74,-477.04 202.62,-408.85 272.22,-344 312.51,-306.46 380.16,-309.21 423.6,-316.05"/>
<polygon fill="#5a22e7" stroke="#ffffff" points="422.95,-319.49 433.4,-317.74 424.15,-312.59 422.95,-319.49"/>
</g>
<!-- typing_extensions&#45;&gt;fastapi_routing -->
<g id="edge68" class="edge">
<title>typing_extensions&#45;&gt;fastapi_routing</title><style>.edge>path:hover{stroke-width:8}</style>
<path fill="none" stroke="#ffffff" d="M235.45,-583.26C262.83,-581.59 296.42,-579.81 326.55,-579"/>
<path fill="none" stroke="#ffffff" d="M328.55,-579C363.79,-578.05 401.6,-564.14 428.41,-551.87"/>
<polygon fill="#5a22e7" stroke="#ffffff" points="429.57,-555.19 437.11,-547.75 426.58,-548.87 429.57,-555.19"/>
</g>
<!-- uvicorn -->
<g id="node33" class="node">
<title>uvicorn</title><style>.edge>path:hover{stroke-width:8}</style>
<polygon fill="#5a5a5a" stroke="#ffffff" points="1560.71,-82 1506.71,-82 1506.71,-46 1560.71,-46 1560.71,-82"/>
<text xml:space="preserve" text-anchor="middle" x="1533.71" y="-60.5" font-family="Helvetica,sans-Serif" font-size="10.00" fill="#e0e0e0">uvicorn</text>
</g>
<!-- uvicorn&#45;&gt;main_py -->
<g id="edge69" class="edge">
<title>uvicorn&#45;&gt;main_py</title><style>.edge>path:hover{stroke-width:8}</style>
<path fill="none" stroke="#ffffff" d="M1597.92,-287C1605.77,-286.98 1614.15,-286.96 1622.21,-286.96"/>
<polygon fill="#5a5a5a" stroke="#ffffff" points="1622.16,-290.46 1632.16,-286.96 1622.16,-283.46 1622.16,-290.46"/>
<path fill="none" stroke="#ffffff" d="M1537.83,-82.26C1547.2,-135.53 1575.71,-287.07 1596.92,-287"/>
</g>
<!-- uvicorn_config -->
<g id="node34" class="node">
<title>uvicorn_config</title><style>.edge>path:hover{stroke-width:8}</style>
<polygon fill="#5a5a5a" stroke="#ffffff" points="1339.82,-59 1263.07,-59 1263.07,-23 1339.82,-23 1339.82,-59"/>
<text xml:space="preserve" text-anchor="middle" x="1301.45" y="-37.5" font-family="Helvetica,sans-Serif" font-size="10.00" fill="#e0e0e0">uvicorn.config</text>
</g>
<!-- uvicorn_config&#45;&gt;uvicorn -->
<g id="edge70" class="edge">
<title>uvicorn_config&#45;&gt;uvicorn</title><style>.edge>path:hover{stroke-width:8}</style>
<path fill="none" stroke="#ffffff" d="M1340.21,-44.77C1383.01,-49.05 1452.36,-55.97 1495.1,-60.24"/>
<polygon fill="#5a5a5a" stroke="#ffffff" points="1494.6,-63.71 1504.89,-61.22 1495.29,-56.75 1494.6,-63.71"/>
</g>
<!-- uvicorn_main -->
<g id="node35" class="node">
<title>uvicorn_main</title><style>.edge>path:hover{stroke-width:8}</style>
<polygon fill="#5a5a5a" stroke="#ffffff" points="1462.35,-36 1390.85,-36 1390.85,0 1462.35,0 1462.35,-36"/>
<text xml:space="preserve" text-anchor="middle" x="1426.6" y="-14.5" font-family="Helvetica,sans-Serif" font-size="10.00" fill="#e0e0e0">uvicorn.main</text>
</g>
<!-- uvicorn_config&#45;&gt;uvicorn_main -->
<g id="edge71" class="edge">
<title>uvicorn_config&#45;&gt;uvicorn_main</title><style>.edge>path:hover{stroke-width:8}</style>
<path fill="none" stroke="#ffffff" d="M1340.07,-33.97C1352.54,-31.64 1366.57,-29.02 1379.6,-26.59"/>
<polygon fill="#5a5a5a" stroke="#ffffff" points="1380.05,-30.07 1389.24,-24.79 1378.77,-23.19 1380.05,-30.07"/>
</g>
<!-- uvicorn_main&#45;&gt;uvicorn -->
<g id="edge72" class="edge">
<title>uvicorn_main&#45;&gt;uvicorn</title><style>.edge>path:hover{stroke-width:8}</style>
<path fill="none" stroke="#ffffff" d="M1462.6,-33.32C1473.35,-38.02 1485.2,-43.21 1496.06,-47.96"/>
<polygon fill="#5a5a5a" stroke="#ffffff" points="1494.55,-51.12 1505.12,-51.93 1497.36,-44.71 1494.55,-51.12"/>
</g>
</g>
</svg>

