<?xml version="1.0" encoding="UTF-8" standalone="no"?>
<!DOCTYPE svg PUBLIC "-//W3C//DTD SVG 1.1//EN"
 "http://www.w3.org/Graphics/SVG/1.1/DTD/svg11.dtd">
<!-- Generated by graphviz version 15.0.0 (20260523.1842)
 -->
<!-- Title: G Pages: 1 -->
<svg style="background-color:#141414" width="1247pt" height="1344pt"
 viewBox="0.00 0.00 1247.00 1344.00" xmlns="http://www.w3.org/2000/svg" xmlns:xlink="http://www.w3.org/1999/xlink">
<g id="graph0" class="graph" transform="scale(1 1) rotate(0) translate(4 1340.17)">
<title>G</title><style>.edge>path:hover{stroke-width:8}</style>
<polygon fill="#141414" stroke="none" points="-4,4 -4,-1340.17 1243.26,-1340.17 1243.26,4 -4,4"/>
<!-- fastapi -->
<g id="node1" class="node">
<title>fastapi</title><style>.edge>path:hover{stroke-width:8}</style>
<polygon fill="#5a5a5a" stroke="#ffffff" points="156.17,-682 102.17,-682 102.17,-646 156.17,-646 156.17,-682"/>
<text xml:space="preserve" text-anchor="middle" x="129.17" y="-660.5" font-family="Helvetica,sans-Serif" font-size="10.00" fill="#e0e0e0">fastapi</text>
</g>
<!-- src2_api_router -->
<g id="node15" class="node">
<title>src2_api_router</title><style>.edge>path:hover{stroke-width:8}</style>
<ellipse fill="#2b2b82" stroke="#ffffff" cx="982.13" cy="-1246" rx="28.81" ry="31.11"/>
<text xml:space="preserve" text-anchor="middle" x="982.13" y="-1254.5" font-family="Helvetica,sans-Serif" font-size="10.00" fill="#e0e0e0">src2.</text>
<text xml:space="preserve" text-anchor="middle" x="982.13" y="-1242.5" font-family="Helvetica,sans-Serif" font-size="10.00" fill="#e0e0e0">api.</text>
<text xml:space="preserve" text-anchor="middle" x="982.13" y="-1230.5" font-family="Helvetica,sans-Serif" font-size="10.00" fill="#e0e0e0">router</text>
</g>
<!-- fastapi&#45;&gt;src2_api_router -->
<g id="edge1" class="edge">
<title>fastapi&#45;&gt;src2_api_router</title><style>.edge>path:hover{stroke-width:8}</style>
<path fill="none" stroke="#ffffff" d="M857.68,-1305C890.32,-1299.82 923.94,-1282.85 947.84,-1268.43"/>
<polygon fill="#5a5a5a" stroke="#ffffff" points="949.53,-1271.5 956.17,-1263.24 945.83,-1265.56 949.53,-1271.5"/>
<path fill="none" stroke="#ffffff" d="M613.68,-1314C719.4,-1293.81 749.38,-1321.86 855.68,-1305"/>
</g>
<!-- src2_api_routes_auth -->
<g id="node17" class="node">
<title>src2_api_routes_auth</title><style>.edge>path:hover{stroke-width:8}</style>
<ellipse fill="#3838a8" stroke="#ffffff" cx="749.26" cy="-1246" rx="32.53" ry="39.6"/>
<text xml:space="preserve" text-anchor="middle" x="749.26" y="-1260.5" font-family="Helvetica,sans-Serif" font-size="10.00" fill="#e0e0e0">src2.</text>
<text xml:space="preserve" text-anchor="middle" x="749.26" y="-1248.5" font-family="Helvetica,sans-Serif" font-size="10.00" fill="#e0e0e0">api.</text>
<text xml:space="preserve" text-anchor="middle" x="749.26" y="-1236.5" font-family="Helvetica,sans-Serif" font-size="10.00" fill="#e0e0e0">routes.</text>
<text xml:space="preserve" text-anchor="middle" x="749.26" y="-1224.5" font-family="Helvetica,sans-Serif" font-size="10.00" fill="#e0e0e0">auth</text>
</g>
<!-- fastapi&#45;&gt;src2_api_routes_auth -->
<g id="edge2" class="edge">
<title>fastapi&#45;&gt;src2_api_routes_auth</title><style>.edge>path:hover{stroke-width:8}</style>
<path fill="none" stroke="#ffffff" d="M198.34,-1263C214.32,-1277.25 214.53,-1286.89 234.34,-1295 389.75,-1358.6 445.01,-1334.43 611.68,-1314"/>
<path fill="none" stroke="#ffffff" d="M613.68,-1314C649.13,-1307.23 685.44,-1288.02 711.39,-1271.75"/>
<polygon fill="#5a5a5a" stroke="#ffffff" points="713.02,-1274.86 719.54,-1266.5 709.23,-1268.97 713.02,-1274.86"/>
</g>
<!-- src2_api_routes_health -->
<g id="node18" class="node">
<title>src2_api_routes_health</title><style>.edge>path:hover{stroke-width:8}</style>
<ellipse fill="#3838a8" stroke="#ffffff" cx="749.26" cy="-934" rx="32.53" ry="39.6"/>
<text xml:space="preserve" text-anchor="middle" x="749.26" y="-948.5" font-family="Helvetica,sans-Serif" font-size="10.00" fill="#e0e0e0">src2.</text>
<text xml:space="preserve" text-anchor="middle" x="749.26" y="-936.5" font-family="Helvetica,sans-Serif" font-size="10.00" fill="#e0e0e0">api.</text>
<text xml:space="preserve" text-anchor="middle" x="749.26" y="-924.5" font-family="Helvetica,sans-Serif" font-size="10.00" fill="#e0e0e0">routes.</text>
<text xml:space="preserve" text-anchor="middle" x="749.26" y="-912.5" font-family="Helvetica,sans-Serif" font-size="10.00" fill="#e0e0e0">health</text>
</g>
<!-- fastapi&#45;&gt;src2_api_routes_health -->
<g id="edge3" class="edge">
<title>fastapi&#45;&gt;src2_api_routes_health</title><style>.edge>path:hover{stroke-width:8}</style>
<path fill="none" stroke="#ffffff" d="M130.8,-682.19C134.28,-778.21 152.78,-1223.25 197.34,-1263"/>
<path fill="none" stroke="#ffffff" d="M198.34,-1263C214.32,-1277.25 215.88,-1241.83 234.34,-1231 256.51,-1217.99 265.87,-1223.28 288.97,-1212"/>
<path fill="none" stroke="#ffffff" d="M290.97,-1212C344.56,-1185.81 330.05,-1143.04 381.59,-1113 498.2,-1045.04 569.2,-1125.46 677.55,-1045 703.44,-1025.77 696.08,-1009.11 713.55,-982 715.65,-978.75 717.88,-975.41 720.16,-972.09"/>
<polygon fill="#5a5a5a" stroke="#ffffff" points="722.9,-974.28 725.78,-964.08 717.17,-970.26 722.9,-974.28"/>
</g>
<!-- src2_api_routes_posts -->
<g id="node19" class="node">
<title>src2_api_routes_posts</title><style>.edge>path:hover{stroke-width:8}</style>
<ellipse fill="#303091" stroke="#ffffff" cx="749.26" cy="-1031" rx="32.53" ry="39.6"/>
<text xml:space="preserve" text-anchor="middle" x="749.26" y="-1045.5" font-family="Helvetica,sans-Serif" font-size="10.00" fill="#e0e0e0">src2.</text>
<text xml:space="preserve" text-anchor="middle" x="749.26" y="-1033.5" font-family="Helvetica,sans-Serif" font-size="10.00" fill="#e0e0e0">api.</text>
<text xml:space="preserve" text-anchor="middle" x="749.26" y="-1021.5" font-family="Helvetica,sans-Serif" font-size="10.00" fill="#e0e0e0">routes.</text>
<text xml:space="preserve" text-anchor="middle" x="749.26" y="-1009.5" font-family="Helvetica,sans-Serif" font-size="10.00" fill="#e0e0e0">posts</text>
</g>
<!-- fastapi&#45;&gt;src2_api_routes_posts -->
<g id="edge4" class="edge">
<title>fastapi&#45;&gt;src2_api_routes_posts</title><style>.edge>path:hover{stroke-width:8}</style>
<path fill="none" stroke="#ffffff" d="M290.97,-1212C365.01,-1176.44 401.58,-1230.23 474.8,-1193 496.12,-1182.16 486.92,-1154.46 510.8,-1153"/>
</g>
<!-- src2_api_routes_root -->
<g id="node20" class="node">
<title>src2_api_routes_root</title><style>.edge>path:hover{stroke-width:8}</style>
<ellipse fill="#3838a8" stroke="#ffffff" cx="749.26" cy="-740" rx="32.53" ry="39.6"/>
<text xml:space="preserve" text-anchor="middle" x="749.26" y="-754.5" font-family="Helvetica,sans-Serif" font-size="10.00" fill="#e0e0e0">src2.</text>
<text xml:space="preserve" text-anchor="middle" x="749.26" y="-742.5" font-family="Helvetica,sans-Serif" font-size="10.00" fill="#e0e0e0">api.</text>
<text xml:space="preserve" text-anchor="middle" x="749.26" y="-730.5" font-family="Helvetica,sans-Serif" font-size="10.00" fill="#e0e0e0">routes.</text>
<text xml:space="preserve" text-anchor="middle" x="749.26" y="-718.5" font-family="Helvetica,sans-Serif" font-size="10.00" fill="#e0e0e0">root</text>
</g>
<!-- fastapi&#45;&gt;src2_api_routes_root -->
<g id="edge5" class="edge">
<title>fastapi&#45;&gt;src2_api_routes_root</title><style>.edge>path:hover{stroke-width:8}</style>
<path fill="none" stroke="#ffffff" d="M198.34,-656C322.16,-653.31 355.61,-654.66 474.8,-621 538.22,-603.09 548.4,-545.58 611.68,-564"/>
</g>
<!-- src2_api_routes_users -->
<g id="node21" class="node">
<title>src2_api_routes_users</title><style>.edge>path:hover{stroke-width:8}</style>
<ellipse fill="#2e2e8a" stroke="#ffffff" cx="749.26" cy="-837" rx="32.53" ry="39.6"/>
<text xml:space="preserve" text-anchor="middle" x="749.26" y="-851.5" font-family="Helvetica,sans-Serif" font-size="10.00" fill="#e0e0e0">src2.</text>
<text xml:space="preserve" text-anchor="middle" x="749.26" y="-839.5" font-family="Helvetica,sans-Serif" font-size="10.00" fill="#e0e0e0">api.</text>
<text xml:space="preserve" text-anchor="middle" x="749.26" y="-827.5" font-family="Helvetica,sans-Serif" font-size="10.00" fill="#e0e0e0">routes.</text>
<text xml:space="preserve" text-anchor="middle" x="749.26" y="-815.5" font-family="Helvetica,sans-Serif" font-size="10.00" fill="#e0e0e0">users</text>
</g>
<!-- fastapi&#45;&gt;src2_api_routes_users -->
<g id="edge6" class="edge">
<title>fastapi&#45;&gt;src2_api_routes_users</title><style>.edge>path:hover{stroke-width:8}</style>
<path fill="none" stroke="#ffffff" d="M198.34,-656C211.73,-655.62 413.87,-730.66 427.19,-732"/>
</g>
<!-- src2_helpers_exceptions -->
<g id="node26" class="node">
<title>src2_helpers_exceptions</title><style>.edge>path:hover{stroke-width:8}</style>
<ellipse fill="#2f2fbc" stroke="#ffffff" cx="428.19" cy="-501" rx="44.72" ry="31.11"/>
<text xml:space="preserve" text-anchor="middle" x="428.19" y="-509.5" font-family="Helvetica,sans-Serif" font-size="10.00" fill="#e0e0e0">src2.</text>
<text xml:space="preserve" text-anchor="middle" x="428.19" y="-497.5" font-family="Helvetica,sans-Serif" font-size="10.00" fill="#e0e0e0">helpers.</text>
<text xml:space="preserve" text-anchor="middle" x="428.19" y="-485.5" font-family="Helvetica,sans-Serif" font-size="10.00" fill="#e0e0e0">exceptions</text>
</g>
<!-- fastapi&#45;&gt;src2_helpers_exceptions -->
<g id="edge7" class="edge">
<title>fastapi&#45;&gt;src2_helpers_exceptions</title><style>.edge>path:hover{stroke-width:8}</style>
<path fill="none" stroke="#ffffff" d="M198.34,-656C220.4,-654.72 329.14,-575.08 388.44,-530.47"/>
<polygon fill="#5a5a5a" stroke="#ffffff" points="390.43,-533.36 396.31,-524.54 386.21,-527.77 390.43,-533.36"/>
<path fill="none" stroke="#ffffff" d="M156.57,-659.66C168.91,-657.94 183.84,-656.29 197.34,-656"/>
</g>
<!-- src2_main -->
<g id="node29" class="node">
<title>src2_main</title><style>.edge>path:hover{stroke-width:8}</style>
<ellipse fill="#2e2e6b" stroke="#ffffff" cx="1203.93" cy="-799" rx="35.33" ry="18"/>
<text xml:space="preserve" text-anchor="middle" x="1203.93" y="-795.5" font-family="Helvetica,sans-Serif" font-size="10.00" fill="#e0e0e0">src2.main</text>
</g>
<!-- fastapi&#45;&gt;src2_main -->
<g id="edge8" class="edge">
<title>fastapi&#45;&gt;src2_main</title><style>.edge>path:hover{stroke-width:8}</style>
<path fill="none" stroke="#ffffff" d="M857.68,-1305C965.78,-1290.52 1007.96,-1331.52 1101.24,-1275"/>
</g>
<!-- fastapi_responses -->
<g id="node2" class="node">
<title>fastapi_responses</title><style>.edge>path:hover{stroke-width:8}</style>
<polygon fill="#5a5a5a" stroke="#ffffff" points="61,-597 0,-597 0,-561 61,-561 61,-597"/>
<text xml:space="preserve" text-anchor="middle" x="30.5" y="-581.5" font-family="Helvetica,sans-Serif" font-size="10.00" fill="#e0e0e0">fastapi.</text>
<text xml:space="preserve" text-anchor="middle" x="30.5" y="-569.5" font-family="Helvetica,sans-Serif" font-size="10.00" fill="#e0e0e0">responses</text>
</g>
<!-- fastapi_responses&#45;&gt;fastapi -->
<g id="edge9" class="edge">
<title>fastapi_responses&#45;&gt;fastapi</title><style>.edge>path:hover{stroke-width:8}</style>
<path fill="none" stroke="#ffffff" d="M52.1,-597.34C64.97,-608.78 81.92,-623.79 97,-637 97.5,-637.44 98.01,-637.89 98.53,-638.34"/>
<polygon fill="#5a5a5a" stroke="#ffffff" points="96.04,-640.81 105.88,-644.74 100.63,-635.53 96.04,-640.81"/>
</g>
<!-- fastapi_responses&#45;&gt;src2_helpers_exceptions -->
<g id="edge10" class="edge">
<title>fastapi_responses&#45;&gt;src2_helpers_exceptions</title><style>.edge>path:hover{stroke-width:8}</style>
<path fill="none" stroke="#ffffff" d="M130.17,-503C155.13,-486.62 169.93,-491.17 197.34,-503"/>
</g>
<!-- fastapi_responses&#45;&gt;src2_main -->
<g id="edge11" class="edge">
<title>fastapi_responses&#45;&gt;src2_main</title><style>.edge>path:hover{stroke-width:8}</style>
<path fill="none" stroke="#ffffff" d="M750.26,-602C751.67,-601.68 1100.21,-379.99 1101.24,-381"/>
<path fill="none" stroke="#ffffff" d="M52.59,-560.7C71.67,-544.57 100.87,-520.92 128.17,-503"/>
<path fill="none" stroke="#ffffff" d="M511.8,-501C586.52,-518.84 608.74,-515.84 677.55,-550 712.49,-567.34 709.97,-609.43 748.26,-602"/>
<path fill="none" stroke="#ffffff" d="M130.17,-503C259.16,-418.33 333.84,-398.22 474.8,-461 496.65,-470.73 488.01,-493.72 510.8,-501"/>
</g>
<!-- fastapi_security -->
<g id="node3" class="node">
<title>fastapi_security</title><style>.edge>path:hover{stroke-width:8}</style>
<ellipse fill="#b65353" stroke="#ffffff" cx="289.97" cy="-1263" rx="35.71" ry="22.63"/>
<text xml:space="preserve" text-anchor="middle" x="289.97" y="-1265.5" font-family="Helvetica,sans-Serif" font-size="10.00" fill="#e0e0e0">fastapi.</text>
<text xml:space="preserve" text-anchor="middle" x="289.97" y="-1253.5" font-family="Helvetica,sans-Serif" font-size="10.00" fill="#e0e0e0">security</text>
</g>
<!-- fastapi_security&#45;&gt;src2_api_routes_auth -->
<g id="edge12" class="edge">
<title>fastapi_security&#45;&gt;src2_api_routes_auth</title><style>.edge>path:hover{stroke-width:8}</style>
<path fill="none" stroke="#ffffff" d="M326.09,-1261.69C408.66,-1258.62 614.88,-1250.96 704.99,-1247.61"/>
<polygon fill="#b65353" stroke="#ffffff" points="705.03,-1251.11 714.89,-1247.24 704.77,-1244.11 705.03,-1251.11"/>
</g>
<!-- fastapi_staticfiles -->
<g id="node4" class="node">
<title>fastapi_staticfiles</title><style>.edge>path:hover{stroke-width:8}</style>
<ellipse fill="#b65353" stroke="#ffffff" cx="982.13" cy="-1174" rx="41.01" ry="22.63"/>
<text xml:space="preserve" text-anchor="middle" x="982.13" y="-1176.5" font-family="Helvetica,sans-Serif" font-size="10.00" fill="#e0e0e0">fastapi.</text>
<text xml:space="preserve" text-anchor="middle" x="982.13" y="-1164.5" font-family="Helvetica,sans-Serif" font-size="10.00" fill="#e0e0e0">staticfiles</text>
</g>
<!-- fastapi_staticfiles&#45;&gt;src2_main -->
<g id="edge13" class="edge">
<title>fastapi_staticfiles&#45;&gt;src2_main</title><style>.edge>path:hover{stroke-width:8}</style>
<path fill="none" stroke="#ffffff" d="M1012.25,-1189.78C1020.2,-1194.58 1028.62,-1200.15 1035.87,-1206 1068.74,-1232.53 1065.11,-1296.89 1101.24,-1275"/>
<path fill="none" stroke="#ffffff" d="M1103.24,-1275C1180.71,-1228.06 1198.35,-925.4 1202.03,-828.67"/>
<polygon fill="#b65353" stroke="#ffffff" points="1205.52,-829.06 1202.38,-818.94 1198.52,-828.81 1205.52,-829.06"/>
</g>
<!-- jose -->
<g id="node5" class="node">
<title>jose</title><style>.edge>path:hover{stroke-width:8}</style>
<ellipse fill="#c29947" stroke="#ffffff" cx="612.68" cy="-72" rx="27" ry="18"/>
<text xml:space="preserve" text-anchor="middle" x="612.68" y="-68.5" font-family="Helvetica,sans-Serif" font-size="10.00" fill="#e0e0e0">jose</text>
</g>
<!-- src2_helpers_security -->
<g id="node28" class="node">
<title>src2_helpers_security</title><style>.edge>path:hover{stroke-width:8}</style>
<ellipse fill="#373781" stroke="#ffffff" cx="982.13" cy="-209" rx="35.71" ry="31.11"/>
<text xml:space="preserve" text-anchor="middle" x="982.13" y="-217.5" font-family="Helvetica,sans-Serif" font-size="10.00" fill="#e0e0e0">src2.</text>
<text xml:space="preserve" text-anchor="middle" x="982.13" y="-205.5" font-family="Helvetica,sans-Serif" font-size="10.00" fill="#e0e0e0">helpers.</text>
<text xml:space="preserve" text-anchor="middle" x="982.13" y="-193.5" font-family="Helvetica,sans-Serif" font-size="10.00" fill="#e0e0e0">security</text>
</g>
<!-- jose&#45;&gt;src2_helpers_security -->
<g id="edge14" class="edge">
<title>jose&#45;&gt;src2_helpers_security</title><style>.edge>path:hover{stroke-width:8}</style>
<path fill="none" stroke="#ffffff" d="M636.2,-81.36C648.46,-86.49 663.87,-93.02 677.55,-99 709.15,-112.83 713.95,-127.49 748.26,-131"/>
</g>
<!-- jose_jwt -->
<g id="node6" class="node">
<title>jose_jwt</title><style>.edge>path:hover{stroke-width:8}</style>
<ellipse fill="#b3914c" stroke="#ffffff" cx="612.68" cy="-18" rx="29.92" ry="18"/>
<text xml:space="preserve" text-anchor="middle" x="612.68" y="-14.5" font-family="Helvetica,sans-Serif" font-size="10.00" fill="#e0e0e0">jose.jwt</text>
</g>
<!-- jose_jwt&#45;&gt;src2_helpers_security -->
<g id="edge15" class="edge">
<title>jose_jwt&#45;&gt;src2_helpers_security</title><style>.edge>path:hover{stroke-width:8}</style>
<path fill="none" stroke="#ffffff" d="M750.26,-131C819.62,-138.1 895.34,-168.38 940.5,-189.05"/>
<polygon fill="#b3914c" stroke="#ffffff" points="938.84,-192.14 949.38,-193.19 941.79,-185.79 938.84,-192.14"/>
<path fill="none" stroke="#ffffff" d="M640.05,-25.9C652.2,-30.32 666.36,-36.65 677.55,-45 717.2,-74.6 699.95,-120.31 748.26,-131"/>
</g>
<!-- passlib -->
<g id="node7" class="node">
<title>passlib</title><style>.edge>path:hover{stroke-width:8}</style>
<ellipse fill="#99c247" stroke="#ffffff" cx="612.68" cy="-190" rx="28.11" ry="18"/>
<text xml:space="preserve" text-anchor="middle" x="612.68" y="-186.5" font-family="Helvetica,sans-Serif" font-size="10.00" fill="#e0e0e0">passlib</text>
</g>
<!-- passlib&#45;&gt;src2_helpers_security -->
<g id="edge16" class="edge">
<title>passlib&#45;&gt;src2_helpers_security</title><style>.edge>path:hover{stroke-width:8}</style>
<path fill="none" stroke="#ffffff" d="M636.8,-180.39C648.96,-175.3 664.1,-168.89 677.55,-163 709.15,-149.17 713.95,-127.49 748.26,-131"/>
</g>
<!-- passlib_context -->
<g id="node8" class="node">
<title>passlib_context</title><style>.edge>path:hover{stroke-width:8}</style>
<ellipse fill="#91b34c" stroke="#ffffff" cx="612.68" cy="-131" rx="35.18" ry="22.63"/>
<text xml:space="preserve" text-anchor="middle" x="612.68" y="-133.5" font-family="Helvetica,sans-Serif" font-size="10.00" fill="#e0e0e0">passlib.</text>
<text xml:space="preserve" text-anchor="middle" x="612.68" y="-121.5" font-family="Helvetica,sans-Serif" font-size="10.00" fill="#e0e0e0">context</text>
</g>
<!-- passlib_context&#45;&gt;src2_helpers_security -->
<g id="edge17" class="edge">
<title>passlib_context&#45;&gt;src2_helpers_security</title><style>.edge>path:hover{stroke-width:8}</style>
<path fill="none" stroke="#ffffff" d="M648.07,-129.08C675.32,-128.02 714.32,-127.53 748.26,-131"/>
</g>
<!-- pydantic -->
<g id="node9" class="node">
<title>pydantic</title><style>.edge>path:hover{stroke-width:8}</style>
<ellipse fill="#0cf30c" stroke="#ffffff" cx="129.17" cy="-610" rx="31.72" ry="18"/>
<text xml:space="preserve" text-anchor="middle" x="129.17" y="-606.5" font-family="Helvetica,sans-Serif" font-size="10.00" fill="#e0e0e0">pydantic</text>
</g>
<!-- pydantic&#45;&gt;src2_api_routes_users -->
<g id="edge18" class="edge">
<title>pydantic&#45;&gt;src2_api_routes_users</title><style>.edge>path:hover{stroke-width:8}</style>
<path fill="none" stroke="#ffffff" d="M429.19,-732C512.59,-746.12 538.61,-635.4 611.68,-678"/>
<path fill="none" stroke="#ffffff" d="M198.34,-618C263.64,-625.63 292.23,-593.61 345.59,-632 377.57,-655.01 353.41,-685.47 381.59,-713 397.3,-728.34 405.35,-729.76 427.19,-732"/>
</g>
<!-- src2_helpers_config_config -->
<g id="node24" class="node">
<title>src2_helpers_config_config</title><style>.edge>path:hover{stroke-width:8}</style>
<ellipse fill="#1e1eae" stroke="#ffffff" cx="749.26" cy="-304" rx="35.71" ry="39.6"/>
<text xml:space="preserve" text-anchor="middle" x="749.26" y="-318.5" font-family="Helvetica,sans-Serif" font-size="10.00" fill="#e0e0e0">src2.</text>
<text xml:space="preserve" text-anchor="middle" x="749.26" y="-306.5" font-family="Helvetica,sans-Serif" font-size="10.00" fill="#e0e0e0">helpers.</text>
<text xml:space="preserve" text-anchor="middle" x="749.26" y="-294.5" font-family="Helvetica,sans-Serif" font-size="10.00" fill="#e0e0e0">config.</text>
<text xml:space="preserve" text-anchor="middle" x="749.26" y="-282.5" font-family="Helvetica,sans-Serif" font-size="10.00" fill="#e0e0e0">config</text>
</g>
<!-- pydantic&#45;&gt;src2_helpers_config_config -->
<g id="edge19" class="edge">
<title>pydantic&#45;&gt;src2_helpers_config_config</title><style>.edge>path:hover{stroke-width:8}</style>
<path fill="none" stroke="#ffffff" d="M136.27,-592.36C145.84,-566.84 166.53,-519.34 197.34,-489 279.9,-407.71 314.06,-341.01 427.19,-366"/>
</g>
<!-- src2_schemas_health -->
<g id="node31" class="node">
<title>src2_schemas_health</title><style>.edge>path:hover{stroke-width:8}</style>
<ellipse fill="#4040c0" stroke="#ffffff" cx="428.19" cy="-791" rx="41.54" ry="31.11"/>
<text xml:space="preserve" text-anchor="middle" x="428.19" y="-799.5" font-family="Helvetica,sans-Serif" font-size="10.00" fill="#e0e0e0">src2.</text>
<text xml:space="preserve" text-anchor="middle" x="428.19" y="-787.5" font-family="Helvetica,sans-Serif" font-size="10.00" fill="#e0e0e0">schemas.</text>
<text xml:space="preserve" text-anchor="middle" x="428.19" y="-775.5" font-family="Helvetica,sans-Serif" font-size="10.00" fill="#e0e0e0">health</text>
</g>
<!-- pydantic&#45;&gt;src2_schemas_health -->
<g id="edge20" class="edge">
<title>pydantic&#45;&gt;src2_schemas_health</title><style>.edge>path:hover{stroke-width:8}</style>
<path fill="none" stroke="#ffffff" d="M198.34,-618C243.57,-624.98 341.79,-711.09 393.62,-759.12"/>
<polygon fill="#0cf30c" stroke="#ffffff" points="391.02,-761.48 400.72,-765.74 395.79,-756.36 391.02,-761.48"/>
</g>
<!-- src2_schemas_post -->
<g id="node32" class="node">
<title>src2_schemas_post</title><style>.edge>path:hover{stroke-width:8}</style>
<ellipse fill="#4040c0" stroke="#ffffff" cx="428.19" cy="-1153" rx="41.54" ry="31.11"/>
<text xml:space="preserve" text-anchor="middle" x="428.19" y="-1161.5" font-family="Helvetica,sans-Serif" font-size="10.00" fill="#e0e0e0">src2.</text>
<text xml:space="preserve" text-anchor="middle" x="428.19" y="-1149.5" font-family="Helvetica,sans-Serif" font-size="10.00" fill="#e0e0e0">schemas.</text>
<text xml:space="preserve" text-anchor="middle" x="428.19" y="-1137.5" font-family="Helvetica,sans-Serif" font-size="10.00" fill="#e0e0e0">post</text>
</g>
<!-- pydantic&#45;&gt;src2_schemas_post -->
<g id="edge21" class="edge">
<title>pydantic&#45;&gt;src2_schemas_post</title><style>.edge>path:hover{stroke-width:8}</style>
<path fill="none" stroke="#ffffff" d="M150.19,-623.63C154.49,-627.47 158.57,-631.99 161.34,-637 264.63,-823.96 87.68,-956.73 234.34,-1112 270.05,-1149.8 331.3,-1157.18 375.19,-1156.93"/>
<polygon fill="#0cf30c" stroke="#ffffff" points="375.08,-1160.43 385,-1156.72 374.93,-1153.43 375.08,-1160.43"/>
</g>
<!-- src2_schemas_root -->
<g id="node33" class="node">
<title>src2_schemas_root</title><style>.edge>path:hover{stroke-width:8}</style>
<ellipse fill="#4040c0" stroke="#ffffff" cx="428.19" cy="-581" rx="41.54" ry="31.11"/>
<text xml:space="preserve" text-anchor="middle" x="428.19" y="-589.5" font-family="Helvetica,sans-Serif" font-size="10.00" fill="#e0e0e0">src2.</text>
<text xml:space="preserve" text-anchor="middle" x="428.19" y="-577.5" font-family="Helvetica,sans-Serif" font-size="10.00" fill="#e0e0e0">schemas.</text>
<text xml:space="preserve" text-anchor="middle" x="428.19" y="-565.5" font-family="Helvetica,sans-Serif" font-size="10.00" fill="#e0e0e0">root</text>
</g>
<!-- pydantic&#45;&gt;src2_schemas_root -->
<g id="edge22" class="edge">
<title>pydantic&#45;&gt;src2_schemas_root</title><style>.edge>path:hover{stroke-width:8}</style>
<path fill="none" stroke="#ffffff" d="M160.2,-614.36C171.78,-615.84 185.15,-617.29 197.34,-618"/>
<path fill="none" stroke="#ffffff" d="M198.34,-618C215.48,-618.99 217.69,-608.16 234.34,-604 281.14,-592.31 335.85,-586.5 375.02,-583.65"/>
<polygon fill="#0cf30c" stroke="#ffffff" points="375.15,-587.15 384.89,-582.98 374.67,-580.17 375.15,-587.15"/>
</g>
<!-- pydantic_settings -->
<g id="node10" class="node">
<title>pydantic_settings</title><style>.edge>path:hover{stroke-width:8}</style>
<ellipse fill="#53b695" stroke="#ffffff" cx="289.97" cy="-282" rx="55.62" ry="18"/>
<text xml:space="preserve" text-anchor="middle" x="289.97" y="-278.5" font-family="Helvetica,sans-Serif" font-size="10.00" fill="#e0e0e0">pydantic_settings</text>
</g>
<!-- pydantic_settings&#45;&gt;src2_helpers_config_config -->
<g id="edge23" class="edge">
<title>pydantic_settings&#45;&gt;src2_helpers_config_config</title><style>.edge>path:hover{stroke-width:8}</style>
<path fill="none" stroke="#ffffff" d="M318.31,-297.75C327.07,-302.87 336.78,-308.61 345.59,-314 382.28,-336.43 384.73,-359.17 427.19,-366"/>
<path fill="none" stroke="#ffffff" d="M429.19,-366C538.32,-383.56 572.95,-388.73 677.55,-353 689.46,-348.93 701.18,-342.24 711.55,-335.09"/>
<polygon fill="#53b695" stroke="#ffffff" points="713.42,-338.06 719.44,-329.34 709.3,-332.4 713.42,-338.06"/>
</g>
<!-- sqlalchemy -->
<g id="node11" class="node">
<title>sqlalchemy</title><style>.edge>path:hover{stroke-width:8}</style>
<ellipse fill="#269dd9" stroke="#ffffff" cx="289.97" cy="-1085" rx="39.39" ry="18"/>
<text xml:space="preserve" text-anchor="middle" x="289.97" y="-1081.5" font-family="Helvetica,sans-Serif" font-size="10.00" fill="#e0e0e0">sqlalchemy</text>
</g>
<!-- sqlalchemy&#45;&gt;src2_api_routes_posts -->
<g id="edge24" class="edge">
<title>sqlalchemy&#45;&gt;src2_api_routes_posts</title><style>.edge>path:hover{stroke-width:8}</style>
<path fill="none" stroke="#ffffff" d="M329.59,-1083.51C368.51,-1083.64 429.19,-1088.41 474.8,-1113 495.85,-1124.35 486.89,-1152.37 510.8,-1153"/>
<path fill="none" stroke="#ffffff" d="M511.8,-1153C556.33,-1150.28 567.65,-1150.19 611.68,-1143"/>
</g>
<!-- sqlalchemy&#45;&gt;src2_api_routes_users -->
<g id="edge25" class="edge">
<title>sqlalchemy&#45;&gt;src2_api_routes_users</title><style>.edge>path:hover{stroke-width:8}</style>
<path fill="none" stroke="#ffffff" d="M322.54,-1074.64C330.98,-1070.58 339.45,-1065.14 345.59,-1058 379.95,-1018.03 339.04,-976.1 381.59,-945 464.15,-884.66 514.69,-977.43 611.68,-945"/>
</g>
<!-- sqlalchemy_ext -->
<g id="node12" class="node">
<title>sqlalchemy_ext</title><style>.edge>path:hover{stroke-width:8}</style>
<ellipse fill="#4095c0" stroke="#ffffff" cx="289.97" cy="-901" rx="48.86" ry="18"/>
<text xml:space="preserve" text-anchor="middle" x="289.97" y="-897.5" font-family="Helvetica,sans-Serif" font-size="10.00" fill="#e0e0e0">sqlalchemy.ext</text>
</g>
<!-- sqlalchemy_ext&#45;&gt;src2_api_routes_posts -->
<g id="edge26" class="edge">
<title>sqlalchemy_ext&#45;&gt;src2_api_routes_posts</title><style>.edge>path:hover{stroke-width:8}</style>
<path fill="none" stroke="#ffffff" d="M429.19,-1018C519.17,-1057.6 514.66,-1158.85 611.68,-1143"/>
<path fill="none" stroke="#ffffff" d="M613.68,-1143C657.1,-1132.14 695.1,-1096.71 719.55,-1068.57"/>
<polygon fill="#4095c0" stroke="#ffffff" points="721.94,-1071.17 725.72,-1061.27 716.59,-1066.65 721.94,-1071.17"/>
<path fill="none" stroke="#ffffff" d="M303.56,-918.73C319.58,-940.21 349.1,-976.31 381.59,-999 399.59,-1011.57 408.66,-1006.22 427.19,-1018"/>
</g>
<!-- sqlalchemy_ext&#45;&gt;src2_api_routes_users -->
<g id="edge27" class="edge">
<title>sqlalchemy_ext&#45;&gt;src2_api_routes_users</title><style>.edge>path:hover{stroke-width:8}</style>
<path fill="none" stroke="#ffffff" d="M326.3,-888.78C342.9,-883.48 363.07,-877.66 381.59,-874 497.29,-851.14 636.49,-842.02 705.35,-838.7"/>
<polygon fill="#4095c0" stroke="#ffffff" points="705.23,-842.21 715.06,-838.25 704.91,-835.22 705.23,-842.21"/>
</g>
<!-- sqlalchemy_ext_asyncio -->
<g id="node13" class="node">
<title>sqlalchemy_ext_asyncio</title><style>.edge>path:hover{stroke-width:8}</style>
<ellipse fill="#4799c2" stroke="#ffffff" cx="289.97" cy="-1018" rx="47.91" ry="31.11"/>
<text xml:space="preserve" text-anchor="middle" x="289.97" y="-1026.5" font-family="Helvetica,sans-Serif" font-size="10.00" fill="#e0e0e0">sqlalchemy.</text>
<text xml:space="preserve" text-anchor="middle" x="289.97" y="-1014.5" font-family="Helvetica,sans-Serif" font-size="10.00" fill="#e0e0e0">ext.</text>
<text xml:space="preserve" text-anchor="middle" x="289.97" y="-1002.5" font-family="Helvetica,sans-Serif" font-size="10.00" fill="#e0e0e0">asyncio</text>
</g>
<!-- sqlalchemy_ext_asyncio&#45;&gt;src2_api_routes_posts -->
<g id="edge28" class="edge">
<title>sqlalchemy_ext_asyncio&#45;&gt;src2_api_routes_posts</title><style>.edge>path:hover{stroke-width:8}</style>
<path fill="none" stroke="#ffffff" d="M336.09,-1009.11C363.56,-1005.81 398.73,-1005.47 427.19,-1018"/>
</g>
<!-- sqlalchemy_ext_asyncio&#45;&gt;src2_api_routes_users -->
<g id="edge29" class="edge">
<title>sqlalchemy_ext_asyncio&#45;&gt;src2_api_routes_users</title><style>.edge>path:hover{stroke-width:8}</style>
<path fill="none" stroke="#ffffff" d="M306.53,-988.36C321.81,-962.79 347.73,-927.6 381.59,-912 419.22,-894.67 433.66,-907.11 474.8,-912 536.94,-919.38 550.92,-959.99 611.68,-945"/>
<path fill="none" stroke="#ffffff" d="M613.68,-945C654.95,-931.2 692.72,-898.28 717.67,-872.39"/>
<polygon fill="#4799c2" stroke="#ffffff" points="719.98,-875.05 724.28,-865.36 714.88,-870.25 719.98,-875.05"/>
</g>
<!-- src2_api -->
<g id="node14" class="node">
<title>src2_api</title><style>.edge>path:hover{stroke-width:8}</style>
<ellipse fill="#2f2fdb" stroke="#ffffff" cx="1102.24" cy="-799" rx="30.37" ry="18"/>
<text xml:space="preserve" text-anchor="middle" x="1102.24" y="-795.5" font-family="Helvetica,sans-Serif" font-size="10.00" fill="#e0e0e0">src2.api</text>
</g>
<!-- src2_api&#45;&gt;src2_main -->
<g id="edge30" class="edge">
<title>src2_api&#45;&gt;src2_main</title><style>.edge>path:hover{stroke-width:8}</style>
<path fill="none" stroke="#ffffff" d="M1132.88,-799C1140.45,-799 1148.76,-799 1156.94,-799"/>
<polygon fill="#2f2fdb" stroke="#ffffff" points="1156.8,-802.5 1166.8,-799 1156.8,-795.5 1156.8,-802.5"/>
</g>
<!-- src2_api_router&#45;&gt;src2_main -->
<g id="edge31" class="edge">
<title>src2_api_router&#45;&gt;src2_main</title><style>.edge>path:hover{stroke-width:8}</style>
<path fill="none" stroke="#ffffff" d="M1007.37,-1262.03C1032.46,-1276.4 1071.98,-1292.73 1101.24,-1275"/>
</g>
<!-- src2_api_routes -->
<g id="node16" class="node">
<title>src2_api_routes</title><style>.edge>path:hover{stroke-width:8}</style>
<ellipse fill="#4747c2" stroke="#ffffff" cx="856.68" cy="-1187" rx="30.41" ry="31.11"/>
<text xml:space="preserve" text-anchor="middle" x="856.68" y="-1195.5" font-family="Helvetica,sans-Serif" font-size="10.00" fill="#e0e0e0">src2.</text>
<text xml:space="preserve" text-anchor="middle" x="856.68" y="-1183.5" font-family="Helvetica,sans-Serif" font-size="10.00" fill="#e0e0e0">api.</text>
<text xml:space="preserve" text-anchor="middle" x="856.68" y="-1171.5" font-family="Helvetica,sans-Serif" font-size="10.00" fill="#e0e0e0">routes</text>
</g>
<!-- src2_api_routes&#45;&gt;src2_api_router -->
<g id="edge32" class="edge">
<title>src2_api_routes&#45;&gt;src2_api_router</title><style>.edge>path:hover{stroke-width:8}</style>
<path fill="none" stroke="#ffffff" d="M884.77,-1199.95C902.5,-1208.42 925.86,-1219.58 945.14,-1228.8"/>
<polygon fill="#4747c2" stroke="#ffffff" points="943.47,-1231.88 954,-1233.04 946.49,-1225.57 943.47,-1231.88"/>
</g>
<!-- src2_api_routes_auth&#45;&gt;src2_api_router -->
<g id="edge33" class="edge">
<title>src2_api_routes_auth&#45;&gt;src2_api_router</title><style>.edge>path:hover{stroke-width:8}</style>
<path fill="none" stroke="#ffffff" d="M781.88,-1246C823.48,-1246 896.6,-1246 941.75,-1246"/>
<polygon fill="#3838a8" stroke="#ffffff" points="941.63,-1249.5 951.63,-1246 941.63,-1242.5 941.63,-1249.5"/>
</g>
<!-- src2_api_routes_health&#45;&gt;src2_api_router -->
<g id="edge34" class="edge">
<title>src2_api_routes_health&#45;&gt;src2_api_router</title><style>.edge>path:hover{stroke-width:8}</style>
<path fill="none" stroke="#ffffff" d="M780.71,-923.56C804.63,-917.51 836.93,-914.45 855.68,-934"/>
</g>
<!-- src2_api_routes_posts&#45;&gt;src2_api_router -->
<g id="edge35" class="edge">
<title>src2_api_routes_posts&#45;&gt;src2_api_router</title><style>.edge>path:hover{stroke-width:8}</style>
<path fill="none" stroke="#ffffff" d="M771.85,-1001.83C798.13,-967.94 840.83,-918.52 855.68,-934"/>
</g>
<!-- src2_api_routes_root&#45;&gt;src2_api_router -->
<g id="edge36" class="edge">
<title>src2_api_routes_root&#45;&gt;src2_api_router</title><style>.edge>path:hover{stroke-width:8}</style>
<path fill="none" stroke="#ffffff" d="M857.68,-934C944.14,-1024.15 859.09,-1102.08 928.39,-1206 933.32,-1213.39 940.08,-1219.97 947.13,-1225.55"/>
<polygon fill="#3838a8" stroke="#ffffff" points="944.71,-1228.12 954.85,-1231.18 948.83,-1222.46 944.71,-1228.12"/>
<path fill="none" stroke="#ffffff" d="M772.21,-768.64C776.64,-774.88 781.12,-781.56 784.97,-788 821.95,-849.89 805.77,-881.96 855.68,-934"/>
</g>
<!-- src2_api_routes_users&#45;&gt;src2_api_router -->
<g id="edge37" class="edge">
<title>src2_api_routes_users&#45;&gt;src2_api_router</title><style>.edge>path:hover{stroke-width:8}</style>
<path fill="none" stroke="#ffffff" d="M776.23,-859.27C798.1,-878.4 829.86,-907.08 855.68,-934"/>
</g>
<!-- src2_helpers -->
<g id="node22" class="node">
<title>src2_helpers</title><style>.edge>path:hover{stroke-width:8}</style>
<ellipse fill="#1616f3" stroke="#ffffff" cx="428.19" cy="-686" rx="41.64" ry="18"/>
<text xml:space="preserve" text-anchor="middle" x="428.19" y="-682.5" font-family="Helvetica,sans-Serif" font-size="10.00" fill="#e0e0e0">src2.helpers</text>
</g>
<!-- src2_helpers&#45;&gt;src2_api_routes_users -->
<g id="edge38" class="edge">
<title>src2_helpers&#45;&gt;src2_api_routes_users</title><style>.edge>path:hover{stroke-width:8}</style>
<path fill="none" stroke="#ffffff" d="M511.8,-678C555.05,-668 572.56,-657 611.68,-678"/>
</g>
<!-- src2_helpers&#45;&gt;src2_main -->
<g id="edge39" class="edge">
<title>src2_helpers&#45;&gt;src2_main</title><style>.edge>path:hover{stroke-width:8}</style>
<path fill="none" stroke="#ffffff" d="M469.79,-684.1C482.99,-682.93 497.62,-681.05 510.8,-678"/>
<path fill="none" stroke="#ffffff" d="M511.8,-678C528.52,-674.13 531.59,-669.65 547.8,-664 635.86,-633.3 656.12,-616.41 748.26,-602"/>
</g>
<!-- src2_helpers_config -->
<g id="node23" class="node">
<title>src2_helpers_config</title><style>.edge>path:hover{stroke-width:8}</style>
<ellipse fill="#2222e7" stroke="#ffffff" cx="856.68" cy="-351" rx="35.71" ry="31.11"/>
<text xml:space="preserve" text-anchor="middle" x="856.68" y="-359.5" font-family="Helvetica,sans-Serif" font-size="10.00" fill="#e0e0e0">src2.</text>
<text xml:space="preserve" text-anchor="middle" x="856.68" y="-347.5" font-family="Helvetica,sans-Serif" font-size="10.00" fill="#e0e0e0">helpers.</text>
<text xml:space="preserve" text-anchor="middle" x="856.68" y="-335.5" font-family="Helvetica,sans-Serif" font-size="10.00" fill="#e0e0e0">config</text>
</g>
<!-- src2_helpers_logging_setup -->
<g id="node27" class="node">
<title>src2_helpers_logging_setup</title><style>.edge>path:hover{stroke-width:8}</style>
<ellipse fill="#3535a1" stroke="#ffffff" cx="982.13" cy="-381" rx="53.74" ry="31.11"/>
<text xml:space="preserve" text-anchor="middle" x="982.13" y="-389.5" font-family="Helvetica,sans-Serif" font-size="10.00" fill="#e0e0e0">src2.</text>
<text xml:space="preserve" text-anchor="middle" x="982.13" y="-377.5" font-family="Helvetica,sans-Serif" font-size="10.00" fill="#e0e0e0">helpers.</text>
<text xml:space="preserve" text-anchor="middle" x="982.13" y="-365.5" font-family="Helvetica,sans-Serif" font-size="10.00" fill="#e0e0e0">logging_setup</text>
</g>
<!-- src2_helpers_config&#45;&gt;src2_helpers_logging_setup -->
<g id="edge40" class="edge">
<title>src2_helpers_config&#45;&gt;src2_helpers_logging_setup</title><style>.edge>path:hover{stroke-width:8}</style>
<path fill="none" stroke="#ffffff" d="M891.41,-359.2C900.64,-361.44 910.92,-363.94 921.15,-366.42"/>
<polygon fill="#2222e7" stroke="#ffffff" points="920.15,-369.78 930.69,-368.74 921.8,-362.98 920.15,-369.78"/>
</g>
<!-- src2_helpers_config&#45;&gt;src2_helpers_security -->
<g id="edge41" class="edge">
<title>src2_helpers_config&#45;&gt;src2_helpers_security</title><style>.edge>path:hover{stroke-width:8}</style>
<path fill="none" stroke="#ffffff" d="M877.92,-325.61C882.78,-319.29 887.86,-312.47 892.39,-306 909.56,-281.44 908.13,-271.07 928.39,-249 933.13,-243.83 938.61,-238.86 944.2,-234.27"/>
<polygon fill="#2222e7" stroke="#ffffff" points="946.07,-237.26 951.81,-228.35 941.77,-231.73 946.07,-237.26"/>
</g>
<!-- src2_helpers_config&#45;&gt;src2_main -->
<g id="edge42" class="edge">
<title>src2_helpers_config&#45;&gt;src2_main</title><style>.edge>path:hover{stroke-width:8}</style>
<path fill="none" stroke="#ffffff" d="M887.58,-334.69C912.88,-323.08 949.89,-311.28 981.13,-322"/>
</g>
<!-- src2_helpers_config_config&#45;&gt;src2_helpers_logging_setup -->
<g id="edge43" class="edge">
<title>src2_helpers_config_config&#45;&gt;src2_helpers_logging_setup</title><style>.edge>path:hover{stroke-width:8}</style>
<path fill="none" stroke="#ffffff" d="M767.88,-338.31C785.5,-367.48 815.72,-405.36 855.68,-410"/>
<path fill="none" stroke="#ffffff" d="M857.68,-410C880.58,-412.66 905.41,-408.29 926.75,-402.19"/>
<polygon fill="#1e1eae" stroke="#ffffff" points="927.59,-405.6 936.12,-399.32 925.54,-398.91 927.59,-405.6"/>
</g>
<!-- src2_helpers_config_config&#45;&gt;src2_helpers_security -->
<g id="edge44" class="edge">
<title>src2_helpers_config_config&#45;&gt;src2_helpers_security</title><style>.edge>path:hover{stroke-width:8}</style>
<path fill="none" stroke="#ffffff" d="M857.68,-292C867.72,-290.38 912.11,-259.36 944.8,-235.71"/>
<polygon fill="#1e1eae" stroke="#ffffff" points="946.83,-238.56 952.87,-229.85 942.72,-232.89 946.83,-238.56"/>
<path fill="none" stroke="#ffffff" d="M785.03,-300.86C805.63,-298.8 832.22,-295.78 855.68,-292"/>
</g>
<!-- src2_helpers_config_config&#45;&gt;src2_main -->
<g id="edge45" class="edge">
<title>src2_helpers_config_config&#45;&gt;src2_main</title><style>.edge>path:hover{stroke-width:8}</style>
<path fill="none" stroke="#ffffff" d="M857.68,-292C885.55,-287.51 954.42,-312.84 981.13,-322"/>
</g>
<!-- src2_helpers_config_env_loader_mixin -->
<g id="node25" class="node">
<title>src2_helpers_config_env_loader_mixin</title><style>.edge>path:hover{stroke-width:8}</style>
<ellipse fill="#4747c2" stroke="#ffffff" cx="612.68" cy="-304" rx="64.88" ry="39.6"/>
<text xml:space="preserve" text-anchor="middle" x="612.68" y="-318.5" font-family="Helvetica,sans-Serif" font-size="10.00" fill="#e0e0e0">src2.</text>
<text xml:space="preserve" text-anchor="middle" x="612.68" y="-306.5" font-family="Helvetica,sans-Serif" font-size="10.00" fill="#e0e0e0">helpers.</text>
<text xml:space="preserve" text-anchor="middle" x="612.68" y="-294.5" font-family="Helvetica,sans-Serif" font-size="10.00" fill="#e0e0e0">config.</text>
<text xml:space="preserve" text-anchor="middle" x="612.68" y="-282.5" font-family="Helvetica,sans-Serif" font-size="10.00" fill="#e0e0e0">env_loader_mixin</text>
</g>
<!-- src2_helpers_config_env_loader_mixin&#45;&gt;src2_helpers_config_config -->
<g id="edge46" class="edge">
<title>src2_helpers_config_env_loader_mixin&#45;&gt;src2_helpers_config_config</title><style>.edge>path:hover{stroke-width:8}</style>
<path fill="none" stroke="#ffffff" d="M677.81,-304C685.91,-304 694.06,-304 701.81,-304"/>
<polygon fill="#4747c2" stroke="#ffffff" points="701.67,-307.5 711.67,-304 701.67,-300.5 701.67,-307.5"/>
</g>
<!-- src2_helpers_exceptions&#45;&gt;src2_api_routes_users -->
<g id="edge47" class="edge">
<title>src2_helpers_exceptions&#45;&gt;src2_api_routes_users</title><style>.edge>path:hover{stroke-width:8}</style>
<path fill="none" stroke="#ffffff" d="M456.95,-524.83C462.9,-530.08 469.11,-535.67 474.8,-541 537.6,-599.85 535.84,-637.29 611.68,-678"/>
<path fill="none" stroke="#ffffff" d="M613.68,-678C639.82,-693.24 689.29,-756.5 720.42,-798.48"/>
<polygon fill="#2f2fbc" stroke="#ffffff" points="717.5,-800.42 726.26,-806.4 723.14,-796.27 717.5,-800.42"/>
</g>
<!-- src2_helpers_exceptions&#45;&gt;src2_main -->
<g id="edge48" class="edge">
<title>src2_helpers_exceptions&#45;&gt;src2_main</title><style>.edge>path:hover{stroke-width:8}</style>
<path fill="none" stroke="#ffffff" d="M472.83,-497.26C485.24,-497.2 498.67,-498.11 510.8,-501"/>
</g>
<!-- src2_helpers_logging_setup&#45;&gt;src2_main -->
<g id="edge49" class="edge">
<title>src2_helpers_logging_setup&#45;&gt;src2_main</title><style>.edge>path:hover{stroke-width:8}</style>
<path fill="none" stroke="#ffffff" d="M1030.44,-366.83C1054.77,-362.68 1083.05,-363.23 1101.24,-381"/>
</g>
<!-- src2_schemas -->
<g id="node30" class="node">
<title>src2_schemas</title><style>.edge>path:hover{stroke-width:8}</style>
<ellipse fill="#2f2fdb" stroke="#ffffff" cx="428.19" cy="-972" rx="46.6" ry="18"/>
<text xml:space="preserve" text-anchor="middle" x="428.19" y="-968.5" font-family="Helvetica,sans-Serif" font-size="10.00" fill="#e0e0e0">src2.schemas</text>
</g>
<!-- src2_schemas&#45;&gt;src2_api_routes_health -->
<g id="edge50" class="edge">
<title>src2_schemas&#45;&gt;src2_api_routes_health</title><style>.edge>path:hover{stroke-width:8}</style>
<path fill="none" stroke="#ffffff" d="M454.15,-987.35C488.64,-1006.85 553.24,-1037.27 611.68,-1031"/>
<path fill="none" stroke="#ffffff" d="M613.68,-1031C655.61,-1027.29 693.54,-996.19 718.36,-970.19"/>
<polygon fill="#2f2fdb" stroke="#ffffff" points="720.71,-972.8 724.92,-963.08 715.57,-968.05 720.71,-972.8"/>
</g>
<!-- src2_schemas&#45;&gt;src2_api_routes_posts -->
<g id="edge51" class="edge">
<title>src2_schemas&#45;&gt;src2_api_routes_posts</title><style>.edge>path:hover{stroke-width:8}</style>
<path fill="none" stroke="#ffffff" d="M613.68,-1031C644.19,-1028.3 678.74,-1028.36 705.2,-1029.07"/>
<polygon fill="#2f2fdb" stroke="#ffffff" points="704.76,-1032.56 714.86,-1029.37 704.98,-1025.56 704.76,-1032.56"/>
</g>
<!-- src2_schemas&#45;&gt;src2_api_routes_root -->
<g id="edge52" class="edge">
<title>src2_schemas&#45;&gt;src2_api_routes_root</title><style>.edge>path:hover{stroke-width:8}</style>
<path fill="none" stroke="#ffffff" d="M451.13,-956.05C505.18,-916.75 645.25,-814.9 711.94,-766.41"/>
<polygon fill="#2f2fdb" stroke="#ffffff" points="713.59,-769.54 719.62,-760.82 709.48,-763.87 713.59,-769.54"/>
</g>
<!-- src2_schemas_health&#45;&gt;src2_api_routes_health -->
<g id="edge53" class="edge">
<title>src2_schemas_health&#45;&gt;src2_api_routes_health</title><style>.edge>path:hover{stroke-width:8}</style>
<path fill="none" stroke="#ffffff" d="M464.56,-806.85C524.38,-833.66 645.15,-887.79 708.07,-915.99"/>
<polygon fill="#4040c0" stroke="#ffffff" points="706.45,-919.1 717.01,-919.99 709.32,-912.71 706.45,-919.1"/>
</g>
<!-- src2_schemas_post&#45;&gt;src2_api_routes_posts -->
<g id="edge54" class="edge">
<title>src2_schemas_post&#45;&gt;src2_api_routes_posts</title><style>.edge>path:hover{stroke-width:8}</style>
<path fill="none" stroke="#ffffff" d="M469.88,-1152.58C482.95,-1152.55 497.49,-1152.65 510.8,-1153"/>
</g>
<!-- src2_schemas_root&#45;&gt;src2_api_routes_root -->
<g id="edge55" class="edge">
<title>src2_schemas_root&#45;&gt;src2_api_routes_root</title><style>.edge>path:hover{stroke-width:8}</style>
<path fill="none" stroke="#ffffff" d="M467.33,-569.5C504.76,-560.04 563.15,-550.25 611.68,-564"/>
<path fill="none" stroke="#ffffff" d="M613.68,-564C673.47,-581.4 711.46,-647.18 731.31,-693.19"/>
<polygon fill="#4040c0" stroke="#ffffff" points="727.97,-694.26 735.04,-702.15 734.43,-691.57 727.97,-694.26"/>
</g>
<!-- structlog -->
<g id="node34" class="node">
<title>structlog</title><style>.edge>path:hover{stroke-width:8}</style>
<ellipse fill="#9d26d9" stroke="#ffffff" cx="129.17" cy="-392" rx="32.17" ry="18"/>
<text xml:space="preserve" text-anchor="middle" x="129.17" y="-388.5" font-family="Helvetica,sans-Serif" font-size="10.00" fill="#e0e0e0">structlog</text>
</g>
<!-- structlog&#45;&gt;src2_helpers_exceptions -->
<g id="edge56" class="edge">
<title>structlog&#45;&gt;src2_helpers_exceptions</title><style>.edge>path:hover{stroke-width:8}</style>
<path fill="none" stroke="#ffffff" d="M133.85,-410.12C140.66,-437.89 158.27,-489.18 197.34,-503"/>
<path fill="none" stroke="#ffffff" d="M198.34,-503C255.62,-523.25 326.11,-518.6 373.6,-511.57"/>
<polygon fill="#9d26d9" stroke="#ffffff" points="374.03,-515.04 383.36,-510.03 372.94,-508.13 374.03,-515.04"/>
</g>
<!-- structlog&#45;&gt;src2_helpers_logging_setup -->
<g id="edge57" class="edge">
<title>structlog&#45;&gt;src2_helpers_logging_setup</title><style>.edge>path:hover{stroke-width:8}</style>
<path fill="none" stroke="#ffffff" d="M198.34,-328C267.9,-279.73 298.37,-364.46 381.59,-380 438.28,-390.58 453.28,-387.83 510.8,-392 663.89,-403.1 703.21,-392.3 855.68,-410"/>
</g>
<!-- structlog&#45;&gt;src2_main -->
<g id="edge58" class="edge">
<title>structlog&#45;&gt;src2_main</title><style>.edge>path:hover{stroke-width:8}</style>
<path fill="none" stroke="#ffffff" d="M198.34,-328C228.63,-308.22 204.6,-275.59 234.34,-255 305.16,-205.98 341.07,-236 427.19,-236 427.19,-236 427.19,-236 613.68,-236 738.95,-236 777.45,-228.19 892.39,-278 910.26,-285.75 911.08,-294.07 928.39,-303 950.53,-314.43 957.56,-313.92 981.13,-322"/>
<path fill="none" stroke="#ffffff" d="M143.95,-375.68C156.62,-361.51 176.56,-341.24 197.34,-328"/>
<path fill="none" stroke="#ffffff" d="M983.13,-322C1039.1,-339.6 1059.26,-340 1101.24,-381"/>
</g>
<!-- uvicorn -->
<g id="node35" class="node">
<title>uvicorn</title><style>.edge>path:hover{stroke-width:8}</style>
<ellipse fill="#c04095" stroke="#ffffff" cx="982.13" cy="-276" rx="28.56" ry="18"/>
<text xml:space="preserve" text-anchor="middle" x="982.13" y="-272.5" font-family="Helvetica,sans-Serif" font-size="10.00" fill="#e0e0e0">uvicorn</text>
</g>
<!-- uvicorn&#45;&gt;src2_main -->
<g id="edge59" class="edge">
<title>uvicorn&#45;&gt;src2_main</title><style>.edge>path:hover{stroke-width:8}</style>
<path fill="none" stroke="#ffffff" d="M1103.24,-381C1159.5,-435.96 1190.71,-683.96 1199.97,-769.72"/>
<polygon fill="#c04095" stroke="#ffffff" points="1196.47,-769.84 1201,-779.42 1203.43,-769.11 1196.47,-769.84"/>
<path fill="none" stroke="#ffffff" d="M1004.88,-287.27C1014.79,-292.88 1026.39,-300.13 1035.87,-308 1069.37,-335.82 1070.08,-350.57 1101.24,-381"/>
</g>
</g>
</svg>

