<?xml version="1.0" encoding="UTF-8" standalone="no"?>
<!DOCTYPE svg PUBLIC "-//W3C//DTD SVG 1.1//EN"
 "http://www.w3.org/Graphics/SVG/1.1/DTD/svg11.dtd">
<!-- Generated by graphviz version 15.0.0 (20260523.1842)
 -->
<!-- Title: G Pages: 1 -->
<svg style="background-color:#141414" width="1665pt" height="618pt"
 viewBox="0.00 0.00 1665.00 618.00" xmlns="http://www.w3.org/2000/svg" xmlns:xlink="http://www.w3.org/1999/xlink">
<g id="graph0" class="graph" transform="scale(1 1) rotate(0) translate(4 614.42)">
<title>G</title><style>.edge>path:hover{stroke-width:8}</style>
<polygon fill="#141414" stroke="none" points="-4,4 -4,-614.42 1661.24,-614.42 1661.24,4 -4,4"/>
<!-- annotated_doc -->
<g id="node1" class="node">
<title>annotated_doc</title><style>.edge>path:hover{stroke-width:8}</style>
<polygon fill="#f90606" stroke="#ffffff" points="1067,-410 1064,-414 1043,-414 1040,-410 987.25,-410 987.25,-374 1067,-374 1067,-410"/>
<text xml:space="preserve" text-anchor="middle" x="1027.12" y="-388.5" font-family="Helvetica,sans-Serif" font-size="10.00" fill="#e0e0e0">annotated_doc</text>
</g>
<!-- fastapi -->
<g id="node7" class="node">
<title>fastapi</title><style>.edge>path:hover{stroke-width:8}</style>
<polygon fill="#5a5a5a" stroke="#ffffff" points="1266.25,-456 1263.25,-460 1242.25,-460 1239.25,-456 1212.25,-456 1212.25,-420 1266.25,-420 1266.25,-456"/>
<text xml:space="preserve" text-anchor="middle" x="1239.25" y="-434.5" font-family="Helvetica,sans-Serif" font-size="10.00" fill="#e0e0e0">fastapi</text>
</g>
<!-- annotated_doc&#45;&gt;fastapi -->
<g id="edge1" class="edge">
<title>annotated_doc&#45;&gt;fastapi</title><style>.edge>path:hover{stroke-width:8}</style>
<path fill="none" stroke="#ffffff" d="M1057.24,-410.31C1076.7,-421.25 1103.35,-433.81 1129,-438"/>
</g>
<!-- annotated_types -->
<g id="node2" class="node">
<title>annotated_types</title><style>.edge>path:hover{stroke-width:8}</style>
<polygon fill="#d94c26" stroke="#ffffff" points="508,-82 505,-86 484,-86 481,-82 420,-82 420,-46 508,-46 508,-82"/>
<text xml:space="preserve" text-anchor="middle" x="464" y="-60.5" font-family="Helvetica,sans-Serif" font-size="10.00" fill="#e0e0e0">annotated_types</text>
</g>
<!-- pydantic -->
<g id="node15" class="node">
<title>pydantic</title><style>.edge>path:hover{stroke-width:8}</style>
<polygon fill="#5a5a5a" stroke="#ffffff" points="945.5,-166 942.5,-170 921.5,-170 918.5,-166 891.5,-166 891.5,-130 945.5,-130 945.5,-166"/>
<text xml:space="preserve" text-anchor="middle" x="918.5" y="-144.5" font-family="Helvetica,sans-Serif" font-size="10.00" fill="#e0e0e0">pydantic</text>
</g>
<!-- annotated_types&#45;&gt;pydantic -->
<g id="edge2" class="edge">
<title>annotated_types&#45;&gt;pydantic</title><style>.edge>path:hover{stroke-width:8}</style>
<path fill="none" stroke="#ffffff" d="M680.88,-156C735.21,-164.87 751.02,-168.01 804.75,-156"/>
<path fill="none" stroke="#ffffff" d="M806.75,-156C830.72,-150.64 858.26,-148.64 879.88,-147.97"/>
<polygon fill="#d94c26" stroke="#ffffff" points="879.79,-151.48 889.71,-147.76 879.64,-144.48 879.79,-151.48"/>
<path fill="none" stroke="#ffffff" d="M492.17,-45.63C520.11,-29.23 564.19,-10.45 598,-29 656.67,-61.19 612.83,-145.22 678.88,-156"/>
</g>
<!-- anyio -->
<g id="node3" class="node">
<title>anyio</title><style>.edge>path:hover{stroke-width:8}</style>
<polygon fill="#5a5a5a" stroke="#ffffff" points="945.5,-465 942.5,-469 921.5,-469 918.5,-465 891.5,-465 891.5,-429 945.5,-429 945.5,-465"/>
<text xml:space="preserve" text-anchor="middle" x="918.5" y="-443.5" font-family="Helvetica,sans-Serif" font-size="10.00" fill="#e0e0e0">anyio</text>
</g>
<!-- anyio&#45;&gt;fastapi -->
<g id="edge3" class="edge">
<title>anyio&#45;&gt;fastapi</title><style>.edge>path:hover{stroke-width:8}</style>
<path fill="none" stroke="#ffffff" d="M1028.12,-476C1075.95,-478.78 1081.72,-430.28 1129,-438"/>
<path fill="none" stroke="#ffffff" d="M945.72,-457.41C966.99,-465.04 997.97,-474.36 1026.12,-476"/>
</g>
<!-- starlette -->
<g id="node23" class="node">
<title>starlette</title><style>.edge>path:hover{stroke-width:8}</style>
<polygon fill="#b710f9" stroke="#ffffff" points="1157,-502 1154,-506 1133,-506 1130,-502 1103,-502 1103,-466 1157,-466 1157,-502"/>
<text xml:space="preserve" text-anchor="middle" x="1130" y="-480.5" font-family="Helvetica,sans-Serif" font-size="10.00" fill="#e0e0e0">starlette</text>
</g>
<!-- anyio&#45;&gt;starlette -->
<g id="edge4" class="edge">
<title>anyio&#45;&gt;starlette</title><style>.edge>path:hover{stroke-width:8}</style>
<path fill="none" stroke="#ffffff" d="M1028.12,-476C1049.09,-477.22 1072.46,-479.04 1091.43,-480.64"/>
<polygon fill="#5a5a5a" stroke="#ffffff" points="1091.12,-484.13 1101.39,-481.5 1091.72,-477.15 1091.12,-484.13"/>
</g>
<!-- click -->
<g id="node4" class="node">
<title>click</title><style>.edge>path:hover{stroke-width:8}</style>
<polygon fill="#5a5a5a" stroke="#ffffff" points="491,-534 488,-538 467,-538 464,-534 437,-534 437,-498 491,-498 491,-534"/>
<text xml:space="preserve" text-anchor="middle" x="464" y="-512.5" font-family="Helvetica,sans-Serif" font-size="10.00" fill="#e0e0e0">click</text>
</g>
<!-- uvicorn -->
<g id="node28" class="node">
<title>uvicorn</title><style>.edge>path:hover{stroke-width:8}</style>
<polygon fill="#5a5a5a" stroke="#ffffff" points="832.75,-588 829.75,-592 808.75,-592 805.75,-588 778.75,-588 778.75,-552 832.75,-552 832.75,-588"/>
<text xml:space="preserve" text-anchor="middle" x="805.75" y="-566.5" font-family="Helvetica,sans-Serif" font-size="10.00" fill="#e0e0e0">uvicorn</text>
</g>
<!-- click&#45;&gt;uvicorn -->
<g id="edge5" class="edge">
<title>click&#45;&gt;uvicorn</title><style>.edge>path:hover{stroke-width:8}</style>
<path fill="none" stroke="#ffffff" d="M572,-562C640.61,-569.29 721.17,-570.42 767.26,-570.36"/>
<polygon fill="#5a5a5a" stroke="#ffffff" points="766.98,-573.86 776.97,-570.32 766.96,-566.86 766.98,-573.86"/>
<path fill="none" stroke="#ffffff" d="M491.4,-532.48C511.93,-544.05 541.61,-558.12 570,-562"/>
</g>
<!-- colorama -->
<g id="node5" class="node">
<title>colorama</title><style>.edge>path:hover{stroke-width:8}</style>
<polygon fill="#5a5a5a" stroke="#ffffff" points="276.5,-427 273.5,-431 252.5,-431 249.5,-427 220.75,-427 220.75,-391 276.5,-391 276.5,-427"/>
<text xml:space="preserve" text-anchor="middle" x="248.62" y="-405.5" font-family="Helvetica,sans-Serif" font-size="10.00" fill="#e0e0e0">colorama</text>
</g>
<!-- colorama&#45;&gt;click -->
<g id="edge6" class="edge">
<title>colorama&#45;&gt;click</title><style>.edge>path:hover{stroke-width:8}</style>
<path fill="none" stroke="#ffffff" d="M276.65,-422.55C314.59,-441.58 383.76,-476.26 426.32,-497.61"/>
<polygon fill="#5a5a5a" stroke="#ffffff" points="424.67,-500.69 435.18,-502.05 427.81,-494.44 424.67,-500.69"/>
</g>
<!-- structlog -->
<g id="node24" class="node">
<title>structlog</title><style>.edge>path:hover{stroke-width:8}</style>
<polygon fill="#5a5a5a" stroke="#ffffff" points="832.75,-320 829.75,-324 808.75,-324 805.75,-320 778.75,-320 778.75,-284 832.75,-284 832.75,-320"/>
<text xml:space="preserve" text-anchor="middle" x="805.75" y="-298.5" font-family="Helvetica,sans-Serif" font-size="10.00" fill="#e0e0e0">structlog</text>
</g>
<!-- colorama&#45;&gt;structlog -->
<g id="edge7" class="edge">
<title>colorama&#45;&gt;structlog</title><style>.edge>path:hover{stroke-width:8}</style>
<path fill="none" stroke="#ffffff" d="M276.98,-401.34C368.46,-375.84 659.16,-295.73 678.88,-302"/>
</g>
<!-- dotenv -->
<g id="node6" class="node">
<title>dotenv</title><style>.edge>path:hover{stroke-width:8}</style>
<polygon fill="#bac431" stroke="#ffffff" points="598,-128 595,-132 574,-132 571,-128 544,-128 544,-92 598,-92 598,-128"/>
<text xml:space="preserve" text-anchor="middle" x="571" y="-106.5" font-family="Helvetica,sans-Serif" font-size="10.00" fill="#e0e0e0">dotenv</text>
</g>
<!-- dotenv&#45;&gt;pydantic -->
<g id="edge8" class="edge">
<title>dotenv&#45;&gt;pydantic</title><style>.edge>path:hover{stroke-width:8}</style>
<path fill="none" stroke="#ffffff" d="M598.12,-125.55C619.1,-136.96 649.77,-151.25 678.88,-156"/>
</g>
<!-- pydantic_settings -->
<g id="node17" class="node">
<title>pydantic_settings</title><style>.edge>path:hover{stroke-width:8}</style>
<polygon fill="#5a5a5a" stroke="#ffffff" points="1285.5,-172 1282.5,-176 1261.5,-176 1258.5,-172 1193,-172 1193,-136 1285.5,-136 1285.5,-172"/>
<text xml:space="preserve" text-anchor="middle" x="1239.25" y="-150.5" font-family="Helvetica,sans-Serif" font-size="10.00" fill="#e0e0e0">pydantic_settings</text>
</g>
<!-- dotenv&#45;&gt;pydantic_settings -->
<g id="edge9" class="edge">
<title>dotenv&#45;&gt;pydantic_settings</title><style>.edge>path:hover{stroke-width:8}</style>
<path fill="none" stroke="#ffffff" d="M1131,-154C1147.25,-154.52 1164.89,-154.68 1181.08,-154.68"/>
<polygon fill="#bac431" stroke="#ffffff" points="1181.07,-158.18 1191.06,-154.65 1181.05,-151.18 1181.07,-158.18"/>
<path fill="none" stroke="#ffffff" d="M598.28,-109.56C660.04,-108.78 819.13,-108.3 951.25,-121 1003.14,-125.99 1015.83,-130.03 1067,-140 1094.73,-145.4 1100.77,-153.1 1129,-154"/>
</g>
<!-- dotenv&#45;&gt;uvicorn -->
<g id="edge10" class="edge">
<title>dotenv&#45;&gt;uvicorn</title><style>.edge>path:hover{stroke-width:8}</style>
<path fill="none" stroke="#ffffff" d="M580.05,-128.26C585.55,-141.16 592.76,-158.94 598,-175 618.05,-236.49 609.93,-255.97 634,-316 677.08,-423.45 681.88,-459.2 761.75,-543 764.11,-545.47 766.73,-547.82 769.5,-550.01"/>
<polygon fill="#bac431" stroke="#ffffff" points="767.21,-552.68 777.39,-555.62 771.27,-546.97 767.21,-552.68"/>
</g>
<!-- main_py -->
<g id="node11" class="node">
<title>main_py</title><style>.edge>path:hover{stroke-width:8}</style>
<ellipse fill="#35633c" stroke="#ffffff" cx="1626.87" cy="-314" rx="30.37" ry="18"/>
<text xml:space="preserve" text-anchor="middle" x="1626.87" y="-310.5" font-family="Helvetica,sans-Serif" font-size="10.00" fill="#e0e0e0">main.py</text>
</g>
<!-- fastapi&#45;&gt;main_py -->
<g id="edge11" class="edge">
<title>fastapi&#45;&gt;main_py</title><style>.edge>path:hover{stroke-width:8}</style>
<path fill="none" stroke="#ffffff" d="M1359.5,-314C1373.69,-306.6 1379.5,-314 1395.5,-314"/>
</g>
<!-- src -->
<g id="node22" class="node">
<title>src</title><style>.edge>path:hover{stroke-width:8}</style>
<polygon fill="#8510f9" stroke="#ffffff" points="1486.5,-286 1483.5,-290 1462.5,-290 1459.5,-286 1432.5,-286 1432.5,-250 1486.5,-250 1486.5,-286"/>
<text xml:space="preserve" text-anchor="middle" x="1459.5" y="-264.5" font-family="Helvetica,sans-Serif" font-size="10.00" fill="#e0e0e0">src</text>
</g>
<!-- fastapi&#45;&gt;src -->
<g id="edge12" class="edge">
<title>fastapi&#45;&gt;src</title><style>.edge>path:hover{stroke-width:8}</style>
<path fill="none" stroke="#ffffff" d="M1359.5,-314C1383.27,-307.72 1370.94,-270.96 1395.5,-272"/>
<path fill="none" stroke="#ffffff" d="M1249.14,-419.91C1265.59,-389.1 1304.14,-328.35 1358.5,-314"/>
</g>
<!-- greenlet -->
<g id="node8" class="node">
<title>greenlet</title><style>.edge>path:hover{stroke-width:8}</style>
<polygon fill="#7fcc33" stroke="#ffffff" points="598,-74 595,-78 574,-78 571,-74 544,-74 544,-38 598,-38 598,-74"/>
<text xml:space="preserve" text-anchor="middle" x="571" y="-52.5" font-family="Helvetica,sans-Serif" font-size="10.00" fill="#e0e0e0">greenlet</text>
</g>
<!-- sqlalchemy -->
<g id="node21" class="node">
<title>sqlalchemy</title><style>.edge>path:hover{stroke-width:8}</style>
<polygon fill="#5a5a5a" stroke="#ffffff" points="951.25,-36 948.25,-40 927.25,-40 924.25,-36 885.75,-36 885.75,0 951.25,0 951.25,-36"/>
<text xml:space="preserve" text-anchor="middle" x="918.5" y="-14.5" font-family="Helvetica,sans-Serif" font-size="10.00" fill="#e0e0e0">sqlalchemy</text>
</g>
<!-- greenlet&#45;&gt;sqlalchemy -->
<g id="edge13" class="edge">
<title>greenlet&#45;&gt;sqlalchemy</title><style>.edge>path:hover{stroke-width:8}</style>
<path fill="none" stroke="#ffffff" d="M598.32,-40.69C619.41,-29.91 650.13,-17.47 678.88,-18"/>
</g>
<!-- greenlet&#45;&gt;structlog -->
<g id="edge14" class="edge">
<title>greenlet&#45;&gt;structlog</title><style>.edge>path:hover{stroke-width:8}</style>
<path fill="none" stroke="#ffffff" d="M680.88,-302C708.83,-310.89 742.16,-310.3 767.21,-307.82"/>
<polygon fill="#7fcc33" stroke="#ffffff" points="767.39,-311.32 776.92,-306.7 766.59,-304.37 767.39,-311.32"/>
<path fill="none" stroke="#ffffff" d="M592.28,-74.37C594.47,-77.08 596.46,-79.99 598,-83 639.09,-163.43 577.62,-212.44 634,-283 647.52,-299.92 658.23,-295.44 678.88,-302"/>
</g>
<!-- h11 -->
<g id="node9" class="node">
<title>h11</title><style>.edge>path:hover{stroke-width:8}</style>
<polygon fill="#509933" stroke="#ffffff" points="375.25,-580 372.25,-584 351.25,-584 348.25,-580 321.25,-580 321.25,-544 375.25,-544 375.25,-580"/>
<text xml:space="preserve" text-anchor="middle" x="348.25" y="-558.5" font-family="Helvetica,sans-Serif" font-size="10.00" fill="#e0e0e0">h11</text>
</g>
<!-- h11&#45;&gt;uvicorn -->
<g id="edge15" class="edge">
<title>h11&#45;&gt;uvicorn</title><style>.edge>path:hover{stroke-width:8}</style>
<path fill="none" stroke="#ffffff" d="M375.53,-560.54C398.63,-559.61 433.13,-559.06 463,-562"/>
</g>
<!-- idna -->
<g id="node10" class="node">
<title>idna</title><style>.edge>path:hover{stroke-width:8}</style>
<polygon fill="#5a5a5a" stroke="#ffffff" points="598,-404 595,-408 574,-408 571,-404 544,-404 544,-368 598,-368 598,-404"/>
<text xml:space="preserve" text-anchor="middle" x="571" y="-382.5" font-family="Helvetica,sans-Serif" font-size="10.00" fill="#e0e0e0">idna</text>
</g>
<!-- idna&#45;&gt;anyio -->
<g id="edge16" class="edge">
<title>idna&#45;&gt;anyio</title><style>.edge>path:hover{stroke-width:8}</style>
<path fill="none" stroke="#ffffff" d="M680.88,-432C750.93,-439.32 833.04,-443.55 879.8,-445.56"/>
<polygon fill="#5a5a5a" stroke="#ffffff" points="879.53,-449.05 889.67,-445.97 879.82,-442.06 879.53,-449.05"/>
<path fill="none" stroke="#ffffff" d="M598.07,-401.86C619.02,-413.44 649.68,-427.81 678.88,-432"/>
</g>
<!-- markdown_it -->
<g id="node12" class="node">
<title>markdown_it</title><style>.edge>path:hover{stroke-width:8}</style>
<polygon fill="#5a5a5a" stroke="#ffffff" points="384,-197 381,-201 360,-201 357,-197 312.5,-197 312.5,-161 384,-161 384,-197"/>
<text xml:space="preserve" text-anchor="middle" x="348.25" y="-175.5" font-family="Helvetica,sans-Serif" font-size="10.00" fill="#e0e0e0">markdown_it</text>
</g>
<!-- rich -->
<g id="node20" class="node">
<title>rich</title><style>.edge>path:hover{stroke-width:8}</style>
<polygon fill="#5a5a5a" stroke="#ffffff" points="598,-220 595,-224 574,-224 571,-220 544,-220 544,-184 598,-184 598,-220"/>
<text xml:space="preserve" text-anchor="middle" x="571" y="-198.5" font-family="Helvetica,sans-Serif" font-size="10.00" fill="#e0e0e0">rich</text>
</g>
<!-- markdown_it&#45;&gt;rich -->
<g id="edge17" class="edge">
<title>markdown_it&#45;&gt;rich</title><style>.edge>path:hover{stroke-width:8}</style>
<path fill="none" stroke="#ffffff" d="M371.73,-197.39C393.68,-213.39 428.69,-233.91 463,-233"/>
<path fill="none" stroke="#ffffff" d="M465,-233C488.3,-232.38 513.37,-225.25 533.16,-217.98"/>
<polygon fill="#5a5a5a" stroke="#ffffff" points="534.39,-221.26 542.45,-214.39 531.86,-214.73 534.39,-221.26"/>
</g>
<!-- mdurl -->
<g id="node13" class="node">
<title>mdurl</title><style>.edge>path:hover{stroke-width:8}</style>
<polygon fill="#5a5a5a" stroke="#ffffff" points="54,-197 51,-201 30,-201 27,-197 0,-197 0,-161 54,-161 54,-197"/>
<text xml:space="preserve" text-anchor="middle" x="27" y="-175.5" font-family="Helvetica,sans-Serif" font-size="10.00" fill="#e0e0e0">mdurl</text>
</g>
<!-- mdurl&#45;&gt;markdown_it -->
<g id="edge18" class="edge">
<title>mdurl&#45;&gt;markdown_it</title><style>.edge>path:hover{stroke-width:8}</style>
<path fill="none" stroke="#ffffff" d="M54.4,-179C108.63,-179 233.17,-179 301.06,-179"/>
<polygon fill="#5a5a5a" stroke="#ffffff" points="300.73,-182.5 310.73,-179 300.73,-175.5 300.73,-182.5"/>
</g>
<!-- multipart -->
<g id="node14" class="node">
<title>multipart</title><style>.edge>path:hover{stroke-width:8}</style>
<polygon fill="#33ccab" stroke="#ffffff" points="945.5,-562 942.5,-566 921.5,-566 918.5,-562 891.5,-562 891.5,-526 945.5,-526 945.5,-562"/>
<text xml:space="preserve" text-anchor="middle" x="918.5" y="-540.5" font-family="Helvetica,sans-Serif" font-size="10.00" fill="#e0e0e0">multipart</text>
</g>
<!-- multipart&#45;&gt;fastapi -->
<g id="edge19" class="edge">
<title>multipart&#45;&gt;fastapi</title><style>.edge>path:hover{stroke-width:8}</style>
<path fill="none" stroke="#ffffff" d="M1131,-552C1169.13,-531.43 1201.36,-492.27 1220.25,-465.65"/>
<polygon fill="#33ccab" stroke="#ffffff" points="1222.93,-467.93 1225.74,-457.71 1217.17,-463.95 1222.93,-467.93"/>
<path fill="none" stroke="#ffffff" d="M1028.12,-552C1072.62,-546.51 1089.54,-573.28 1129,-552"/>
</g>
<!-- multipart&#45;&gt;starlette -->
<g id="edge20" class="edge">
<title>multipart&#45;&gt;starlette</title><style>.edge>path:hover{stroke-width:8}</style>
<path fill="none" stroke="#ffffff" d="M945.86,-548.87C967.48,-552.17 998.86,-555.37 1026.12,-552"/>
<path fill="none" stroke="#ffffff" d="M1028.12,-552C1057.8,-548.34 1085.51,-527.93 1104.34,-510.41"/>
<polygon fill="#33ccab" stroke="#ffffff" points="1106.78,-512.92 1111.51,-503.44 1101.9,-507.91 1106.78,-512.92"/>
</g>
<!-- pydantic&#45;&gt;fastapi -->
<g id="edge21" class="edge">
<title>pydantic&#45;&gt;fastapi</title><style>.edge>path:hover{stroke-width:8}</style>
<path fill="none" stroke="#ffffff" d="M1028.12,-154C1152.58,-165.09 1212.02,-338.37 1231.11,-408.69"/>
<polygon fill="#5a5a5a" stroke="#ffffff" points="1227.72,-409.55 1233.64,-418.34 1234.49,-407.78 1227.72,-409.55"/>
</g>
<!-- pydantic&#45;&gt;pydantic_settings -->
<g id="edge22" class="edge">
<title>pydantic&#45;&gt;pydantic_settings</title><style>.edge>path:hover{stroke-width:8}</style>
<path fill="none" stroke="#ffffff" d="M1028.12,-154C1072.78,-157.98 1084.17,-153.71 1129,-154"/>
</g>
<!-- pydantic&#45;&gt;src -->
<g id="edge23" class="edge">
<title>pydantic&#45;&gt;src</title><style>.edge>path:hover{stroke-width:8}</style>
<path fill="none" stroke="#ffffff" d="M1028.12,-154C1123.62,-158.59 1159.06,-54.44 1238.25,-108"/>
<path fill="none" stroke="#ffffff" d="M945.8,-149.34C967.39,-150.47 998.74,-152.2 1026.12,-154"/>
</g>
<!-- pydantic_core -->
<g id="node16" class="node">
<title>pydantic_core</title><style>.edge>path:hover{stroke-width:8}</style>
<polygon fill="#5a5a5a" stroke="#ffffff" points="718.25,-274 715.25,-278 694.25,-278 691.25,-274 641.5,-274 641.5,-238 718.25,-238 718.25,-274"/>
<text xml:space="preserve" text-anchor="middle" x="679.88" y="-252.5" font-family="Helvetica,sans-Serif" font-size="10.00" fill="#e0e0e0">pydantic_core</text>
</g>
<!-- pydantic_core&#45;&gt;fastapi -->
<g id="edge24" class="edge">
<title>pydantic_core&#45;&gt;fastapi</title><style>.edge>path:hover{stroke-width:8}</style>
<path fill="none" stroke="#ffffff" d="M806.75,-232C858.34,-231.45 984.1,-278.07 1026.12,-308"/>
</g>
<!-- pydantic_core&#45;&gt;pydantic -->
<g id="edge25" class="edge">
<title>pydantic_core&#45;&gt;pydantic</title><style>.edge>path:hover{stroke-width:8}</style>
<path fill="none" stroke="#ffffff" d="M713.27,-237.6C717.56,-234.85 721.82,-231.95 725.75,-229 763.99,-200.3 758.09,-166.43 804.75,-156"/>
</g>
<!-- pydantic_core&#45;&gt;pydantic_settings -->
<g id="edge26" class="edge">
<title>pydantic_core&#45;&gt;pydantic_settings</title><style>.edge>path:hover{stroke-width:8}</style>
<path fill="none" stroke="#ffffff" d="M806.75,-232C858.79,-231.44 866.16,-202.51 917.5,-194"/>
<path fill="none" stroke="#ffffff" d="M718.74,-244.99C743.08,-238.83 775.51,-232.31 804.75,-232"/>
</g>
<!-- pydantic_settings&#45;&gt;src -->
<g id="edge27" class="edge">
<title>pydantic_settings&#45;&gt;src</title><style>.edge>path:hover{stroke-width:8}</style>
<path fill="none" stroke="#ffffff" d="M1272.08,-172.49C1286.99,-181.04 1305.06,-191.21 1321.5,-200"/>
</g>
<!-- pygments -->
<g id="node18" class="node">
<title>pygments</title><style>.edge>path:hover{stroke-width:8}</style>
<polygon fill="#5a5a5a" stroke="#ffffff" points="377.62,-251 374.62,-255 353.62,-255 350.62,-251 318.88,-251 318.88,-215 377.62,-215 377.62,-251"/>
<text xml:space="preserve" text-anchor="middle" x="348.25" y="-229.5" font-family="Helvetica,sans-Serif" font-size="10.00" fill="#e0e0e0">pygments</text>
</g>
<!-- pygments&#45;&gt;rich -->
<g id="edge28" class="edge">
<title>pygments&#45;&gt;rich</title><style>.edge>path:hover{stroke-width:8}</style>
<path fill="none" stroke="#ffffff" d="M377.77,-233.42C400.78,-233.65 433.98,-233.77 463,-233"/>
</g>
<!-- python_multipart -->
<g id="node19" class="node">
<title>python_multipart</title><style>.edge>path:hover{stroke-width:8}</style>
<polygon fill="#1936e6" stroke="#ffffff" points="849.75,-534 846.75,-538 825.75,-538 822.75,-534 761.75,-534 761.75,-498 849.75,-498 849.75,-534"/>
<text xml:space="preserve" text-anchor="middle" x="805.75" y="-512.5" font-family="Helvetica,sans-Serif" font-size="10.00" fill="#e0e0e0">python_multipart</text>
</g>
<!-- python_multipart&#45;&gt;fastapi -->
<g id="edge29" class="edge">
<title>python_multipart&#45;&gt;fastapi</title><style>.edge>path:hover{stroke-width:8}</style>
<path fill="none" stroke="#ffffff" d="M836.61,-534.21C841.06,-537.08 845.56,-540.07 849.75,-543 866.35,-554.63 866.58,-564.42 885.75,-571 988.32,-606.19 1033.56,-603.48 1129,-552"/>
</g>
<!-- python_multipart&#45;&gt;multipart -->
<g id="edge30" class="edge">
<title>python_multipart&#45;&gt;multipart</title><style>.edge>path:hover{stroke-width:8}</style>
<path fill="none" stroke="#ffffff" d="M850.2,-526.99C860.13,-529.5 870.6,-532.14 880.25,-534.58"/>
<polygon fill="#1936e6" stroke="#ffffff" points="879.09,-537.9 889.64,-536.96 880.8,-531.11 879.09,-537.9"/>
</g>
<!-- python_multipart&#45;&gt;starlette -->
<g id="edge31" class="edge">
<title>python_multipart&#45;&gt;starlette</title><style>.edge>path:hover{stroke-width:8}</style>
<path fill="none" stroke="#ffffff" d="M850.24,-503.69C870.59,-499.28 895.2,-495.87 917.5,-498"/>
</g>
<!-- rich&#45;&gt;pydantic -->
<g id="edge32" class="edge">
<title>rich&#45;&gt;pydantic</title><style>.edge>path:hover{stroke-width:8}</style>
<path fill="none" stroke="#ffffff" d="M594.76,-183.53C615.73,-168.65 648.17,-150.99 678.88,-156"/>
</g>
<!-- rich&#45;&gt;structlog -->
<g id="edge33" class="edge">
<title>rich&#45;&gt;structlog</title><style>.edge>path:hover{stroke-width:8}</style>
<path fill="none" stroke="#ffffff" d="M582.17,-220.31C592.98,-238.35 611.6,-265.65 634,-283 651.12,-296.26 658.23,-295.44 678.88,-302"/>
</g>
<!-- sqlalchemy&#45;&gt;src -->
<g id="edge34" class="edge">
<title>sqlalchemy&#45;&gt;src</title><style>.edge>path:hover{stroke-width:8}</style>
<path fill="none" stroke="#ffffff" d="M1396.5,-272C1404.39,-272.33 1412.84,-272.15 1420.89,-271.72"/>
<polygon fill="#5a5a5a" stroke="#ffffff" points="1421.02,-275.22 1430.76,-271.04 1420.54,-268.23 1421.02,-275.22"/>
<path fill="none" stroke="#ffffff" d="M951.43,-20.8C1011.85,-27.38 1145.19,-48.07 1238.25,-108"/>
<path fill="none" stroke="#ffffff" d="M1322.5,-200C1362.69,-221.48 1349.97,-270.07 1395.5,-272"/>
<path fill="none" stroke="#ffffff" d="M1240.25,-108C1259.33,-118.57 1269.62,-112.05 1285.5,-127 1311.84,-151.79 1293.95,-176.55 1321.5,-200"/>
</g>
<!-- src&#45;&gt;main_py -->
<g id="edge35" class="edge">
<title>src&#45;&gt;main_py</title><style>.edge>path:hover{stroke-width:8}</style>
<path fill="none" stroke="#ffffff" d="M1476.26,-286.27C1487.69,-297.69 1504.28,-310.8 1522.5,-314"/>
<path fill="none" stroke="#ffffff" d="M1523.5,-314C1543.55,-317.52 1566.16,-317.89 1585.02,-317.22"/>
<polygon fill="#8510f9" stroke="#ffffff" points="1585.18,-320.72 1595,-316.75 1584.85,-313.73 1585.18,-320.72"/>
</g>
<!-- starlette&#45;&gt;fastapi -->
<g id="edge36" class="edge">
<title>starlette&#45;&gt;fastapi</title><style>.edge>path:hover{stroke-width:8}</style>
<path fill="none" stroke="#ffffff" d="M1157.24,-472.75C1170.61,-467.01 1187.09,-459.94 1201.69,-453.68"/>
<polygon fill="#b710f9" stroke="#ffffff" points="1202.71,-457.05 1210.52,-449.89 1199.95,-450.62 1202.71,-457.05"/>
</g>
<!-- structlog&#45;&gt;main_py -->
<g id="edge37" class="edge">
<title>structlog&#45;&gt;main_py</title><style>.edge>path:hover{stroke-width:8}</style>
<path fill="none" stroke="#ffffff" d="M832.98,-299.32C900.25,-292.67 1084.4,-276 1238.25,-276 1238.25,-276 1238.25,-276 1322.5,-276 1359.08,-276 1358.92,-314 1395.5,-314"/>
<path fill="none" stroke="#ffffff" d="M1396.5,-314C1452.3,-309.26 1467.84,-301.83 1522.5,-314"/>
</g>
<!-- structlog&#45;&gt;src -->
<g id="edge38" class="edge">
<title>structlog&#45;&gt;src</title><style>.edge>path:hover{stroke-width:8}</style>
<path fill="none" stroke="#ffffff" d="M833.06,-291.42C927.24,-254.31 1246.05,-135.79 1321.5,-200"/>
</g>
<!-- tomli -->
<g id="node25" class="node">
<title>tomli</title><style>.edge>path:hover{stroke-width:8}</style>
<polygon fill="#b653a8" stroke="#ffffff" points="832.75,-82 829.75,-86 808.75,-86 805.75,-82 778.75,-82 778.75,-46 832.75,-46 832.75,-82"/>
<text xml:space="preserve" text-anchor="middle" x="805.75" y="-60.5" font-family="Helvetica,sans-Serif" font-size="10.00" fill="#e0e0e0">tomli</text>
</g>
<!-- tomli&#45;&gt;pydantic_settings -->
<g id="edge39" class="edge">
<title>tomli&#45;&gt;pydantic_settings</title><style>.edge>path:hover{stroke-width:8}</style>
<path fill="none" stroke="#ffffff" d="M832.89,-65.8C880.11,-69.4 982.57,-78.86 1067,-98 1106.06,-106.86 1148.88,-120.86 1181.93,-132.65"/>
<polygon fill="#b653a8" stroke="#ffffff" points="1180.73,-135.93 1191.32,-136.04 1183.1,-129.35 1180.73,-135.93"/>
</g>
<!-- typing_extensions -->
<g id="node26" class="node">
<title>typing_extensions</title><style>.edge>path:hover{stroke-width:8}</style>
<polygon fill="#f910a6" stroke="#ffffff" points="184.75,-320 181.75,-324 160.75,-324 157.75,-320 90,-320 90,-284 184.75,-284 184.75,-320"/>
<text xml:space="preserve" text-anchor="middle" x="137.38" y="-298.5" font-family="Helvetica,sans-Serif" font-size="10.00" fill="#e0e0e0">typing_extensions</text>
</g>
<!-- typing_extensions&#45;&gt;annotated_types -->
<g id="edge40" class="edge">
<title>typing_extensions&#45;&gt;annotated_types</title><style>.edge>path:hover{stroke-width:8}</style>
<path fill="none" stroke="#ffffff" d="M349.25,-87C368.65,-84.79 389.65,-80.96 408.28,-77.05"/>
<polygon fill="#f910a6" stroke="#ffffff" points="409.01,-80.48 418.05,-74.94 407.53,-73.63 409.01,-80.48"/>
</g>
<!-- typing_extensions&#45;&gt;anyio -->
<g id="edge41" class="edge">
<title>typing_extensions&#45;&gt;anyio</title><style>.edge>path:hover{stroke-width:8}</style>
<path fill="none" stroke="#ffffff" d="M249.62,-302C267.06,-300.75 527.07,-408.67 544,-413 602.65,-427.99 618.95,-423.41 678.88,-432"/>
</g>
<!-- typing_extensions&#45;&gt;click -->
<g id="edge42" class="edge">
<title>typing_extensions&#45;&gt;click</title><style>.edge>path:hover{stroke-width:8}</style>
<path fill="none" stroke="#ffffff" d="M349.25,-516C374.69,-516 403.34,-516 425.52,-516"/>
<polygon fill="#f910a6" stroke="#ffffff" points="425.28,-519.5 435.28,-516 425.28,-512.5 425.28,-519.5"/>
</g>
<!-- typing_extensions&#45;&gt;fastapi -->
<g id="edge43" class="edge">
<title>typing_extensions&#45;&gt;fastapi</title><style>.edge>path:hover{stroke-width:8}</style>
<path fill="none" stroke="#ffffff" d="M572,-302C595.89,-300.09 963.78,-414.15 987.25,-419 1049.5,-431.87 1066.27,-427.76 1129,-438"/>
</g>
<!-- typing_extensions&#45;&gt;h11 -->
<g id="edge44" class="edge">
<title>typing_extensions&#45;&gt;h11</title><style>.edge>path:hover{stroke-width:8}</style>
<path fill="none" stroke="#ffffff" d="M249.62,-516C267.91,-530.17 291.26,-541.37 310.54,-549.17"/>
<polygon fill="#f910a6" stroke="#ffffff" points="309.07,-552.35 319.66,-552.71 311.6,-545.82 309.07,-552.35"/>
</g>
<!-- typing_extensions&#45;&gt;markdown_it -->
<g id="edge45" class="edge">
<title>typing_extensions&#45;&gt;markdown_it</title><style>.edge>path:hover{stroke-width:8}</style>
<path fill="none" stroke="#ffffff" d="M249.62,-302C300.47,-298.03 277.92,-243.49 312.5,-206 312.85,-205.62 313.21,-205.24 313.57,-204.87"/>
<polygon fill="#f910a6" stroke="#ffffff" points="315.7,-207.66 320.61,-198.27 310.91,-202.55 315.7,-207.66"/>
<path fill="none" stroke="#ffffff" d="M185.22,-303.6C204.57,-303.85 227.2,-303.6 247.62,-302"/>
</g>
<!-- typing_extensions&#45;&gt;pydantic -->
<g id="edge46" class="edge">
<title>typing_extensions&#45;&gt;pydantic</title><style>.edge>path:hover{stroke-width:8}</style>
<path fill="none" stroke="#ffffff" d="M349.25,-87C438.04,-76.9 456.34,-119.63 544,-137 603.38,-148.77 618.98,-147.2 678.88,-156"/>
</g>
<!-- typing_extensions&#45;&gt;pydantic_core -->
<g id="edge47" class="edge">
<title>typing_extensions&#45;&gt;pydantic_core</title><style>.edge>path:hover{stroke-width:8}</style>
<path fill="none" stroke="#ffffff" d="M572,-302C595.9,-300.09 620.6,-290.07 640.24,-279.86"/>
<polygon fill="#f910a6" stroke="#ffffff" points="641.85,-282.97 648.97,-275.11 638.51,-276.82 641.85,-282.97"/>
</g>
<!-- typing_extensions&#45;&gt;rich -->
<g id="edge48" class="edge">
<title>typing_extensions&#45;&gt;rich</title><style>.edge>path:hover{stroke-width:8}</style>
<path fill="none" stroke="#ffffff" d="M465,-302C504.44,-293.24 535.7,-256.16 553.53,-229.71"/>
<polygon fill="#f910a6" stroke="#ffffff" points="556.38,-231.74 558.88,-221.45 550.51,-227.94 556.38,-231.74"/>
<path fill="none" stroke="#ffffff" d="M249.62,-302C344.17,-294.61 370.42,-322.56 463,-302"/>
</g>
<!-- typing_extensions&#45;&gt;sqlalchemy -->
<g id="edge49" class="edge">
<title>typing_extensions&#45;&gt;sqlalchemy</title><style>.edge>path:hover{stroke-width:8}</style>
<path fill="none" stroke="#ffffff" d="M146.15,-283.81C168.69,-234.18 239.44,-99.31 347.25,-87"/>
<path fill="none" stroke="#ffffff" d="M349.25,-87C385.36,-73.62 384.35,-51.55 420,-37 526.81,6.6 563.53,-15.88 678.88,-18"/>
<path fill="none" stroke="#ffffff" d="M680.88,-18C748.11,-13.12 826.37,-14.5 873.9,-16.11"/>
<polygon fill="#f910a6" stroke="#ffffff" points="873.66,-19.61 883.78,-16.47 873.92,-12.61 873.66,-19.61"/>
</g>
<!-- typing_extensions&#45;&gt;starlette -->
<g id="edge50" class="edge">
<title>typing_extensions&#45;&gt;starlette</title><style>.edge>path:hover{stroke-width:8}</style>
<path fill="none" stroke="#ffffff" d="M249.62,-516C283.92,-542.57 303.86,-516 347.25,-516"/>
<path fill="none" stroke="#ffffff" d="M349.25,-516C382.91,-516 387.35,-497.17 420,-489 485.19,-472.68 502.8,-470 570,-470 570,-470 570,-470 680.88,-470 756.4,-470 774.78,-479.8 849.75,-489 879.9,-492.7 887.26,-495.11 917.5,-498"/>
<path fill="none" stroke="#ffffff" d="M919.5,-498C979.54,-502.09 1049.27,-495.08 1091.22,-489.59"/>
<polygon fill="#f910a6" stroke="#ffffff" points="1091.6,-493.07 1101.04,-488.26 1090.66,-486.13 1091.6,-493.07"/>
<path fill="none" stroke="#ffffff" d="M142.16,-320.28C151.8,-362.01 181.34,-464.65 247.62,-516"/>
</g>
<!-- typing_extensions&#45;&gt;structlog -->
<g id="edge51" class="edge">
<title>typing_extensions&#45;&gt;structlog</title><style>.edge>path:hover{stroke-width:8}</style>
<path fill="none" stroke="#ffffff" d="M572,-302C619.35,-298.22 633.79,-287.05 678.88,-302"/>
</g>
<!-- typing_inspection -->
<g id="node27" class="node">
<title>typing_inspection</title><style>.edge>path:hover{stroke-width:8}</style>
<polygon fill="#f91074" stroke="#ffffff" points="725.75,-220 722.75,-224 701.75,-224 698.75,-220 634,-220 634,-184 725.75,-184 725.75,-220"/>
<text xml:space="preserve" text-anchor="middle" x="679.88" y="-198.5" font-family="Helvetica,sans-Serif" font-size="10.00" fill="#e0e0e0">typing_inspection</text>
</g>
<!-- typing_extensions&#45;&gt;typing_inspection -->
<g id="edge52" class="edge">
<title>typing_extensions&#45;&gt;typing_inspection</title><style>.edge>path:hover{stroke-width:8}</style>
<path fill="none" stroke="#ffffff" d="M465,-302C510.39,-291.14 523.48,-305.71 570,-302"/>
<path fill="none" stroke="#ffffff" d="M572,-302C614.43,-298.61 601.56,-256.56 634,-229 634.79,-228.33 635.6,-227.67 636.42,-227.01"/>
<polygon fill="#f910a6" stroke="#ffffff" points="638.42,-229.88 644.44,-221.17 634.3,-224.22 638.42,-229.88"/>
</g>
<!-- typing_extensions&#45;&gt;uvicorn -->
<g id="edge53" class="edge">
<title>typing_extensions&#45;&gt;uvicorn</title><style>.edge>path:hover{stroke-width:8}</style>
<path fill="none" stroke="#ffffff" d="M349.25,-516C403.78,-516 408.73,-556.66 463,-562"/>
<path fill="none" stroke="#ffffff" d="M465,-562C511.44,-566.57 523.76,-555.68 570,-562"/>
</g>
<!-- typing_inspection&#45;&gt;fastapi -->
<g id="edge54" class="edge">
<title>typing_inspection&#45;&gt;fastapi</title><style>.edge>path:hover{stroke-width:8}</style>
<path fill="none" stroke="#ffffff" d="M806.75,-194C874.91,-197.53 891.97,-212.17 951.25,-246 988.78,-267.41 993.4,-279.79 1026.12,-308"/>
<path fill="none" stroke="#ffffff" d="M1131,-438C1153.89,-441.74 1179.89,-441.84 1200.56,-440.95"/>
<polygon fill="#f91074" stroke="#ffffff" points="1200.74,-444.45 1210.54,-440.42 1200.37,-437.46 1200.74,-444.45"/>
<path fill="none" stroke="#ffffff" d="M1028.12,-308C1041.9,-320.02 1110.96,-435.05 1129,-438"/>
</g>
<!-- typing_inspection&#45;&gt;pydantic -->
<g id="edge55" class="edge">
<title>typing_inspection&#45;&gt;pydantic</title><style>.edge>path:hover{stroke-width:8}</style>
<path fill="none" stroke="#ffffff" d="M721.88,-183.57C745.61,-173.73 776.32,-162.35 804.75,-156"/>
</g>
<!-- typing_inspection&#45;&gt;pydantic_settings -->
<g id="edge56" class="edge">
<title>typing_inspection&#45;&gt;pydantic_settings</title><style>.edge>path:hover{stroke-width:8}</style>
<path fill="none" stroke="#ffffff" d="M726.16,-196.55C749.61,-194.36 778.71,-192.65 804.75,-194"/>
<path fill="none" stroke="#ffffff" d="M919.5,-194C985.78,-187.84 1001.74,-181.11 1067,-168 1094.7,-162.44 1100.75,-153.82 1129,-154"/>
<path fill="none" stroke="#ffffff" d="M806.75,-194C855.91,-196.55 868.94,-202.05 917.5,-194"/>
</g>
<!-- uvicorn&#45;&gt;main_py -->
<g id="edge57" class="edge">
<title>uvicorn&#45;&gt;main_py</title><style>.edge>path:hover{stroke-width:8}</style>
<path fill="none" stroke="#ffffff" d="M833.09,-579.57C848.28,-584.69 867.86,-590.62 885.75,-594 964.98,-608.97 987.82,-617.25 1067,-602 1179.55,-580.32 1205.95,-547.52 1285.5,-465 1314.31,-435.11 1354.31,-319.21 1395.5,-314"/>
</g>
</g>
</svg>

