<?xml version="1.0" encoding="UTF-8" standalone="no"?>
<!DOCTYPE svg PUBLIC "-//W3C//DTD SVG 1.1//EN"
 "http://www.w3.org/Graphics/SVG/1.1/DTD/svg11.dtd">
<!-- Generated by graphviz version 15.0.0 (20260523.1842)
 -->
<!-- Title: G Pages: 1 -->
<svg style="background-color:#141414" width="1368pt" height="952pt"
 viewBox="0.00 0.00 1368.00 952.00" xmlns="http://www.w3.org/2000/svg" xmlns:xlink="http://www.w3.org/1999/xlink">
<g id="graph0" class="graph" transform="scale(1 1) rotate(0) translate(4 947.6)">
<title>G</title><style>.edge>path:hover{stroke-width:8}</style>
<polygon fill="#141414" stroke="none" points="-4,4 -4,-947.6 1364.03,-947.6 1364.03,4 -4,4"/>
<!-- fastapi -->
<g id="node1" class="node">
<title>fastapi</title><style>.edge>path:hover{stroke-width:8}</style>
<polygon fill="#5a5a5a" stroke="#ffffff" points="188.88,-482.6 134.88,-482.6 134.88,-446.6 188.88,-446.6 188.88,-482.6"/>
<text xml:space="preserve" text-anchor="middle" x="161.88" y="-461.1" font-family="Helvetica,sans-Serif" font-size="10.00" fill="#e0e0e0">fastapi</text>
</g>
<!-- src_api_router -->
<g id="node15" class="node">
<title>src_api_router</title><style>.edge>path:hover{stroke-width:8}</style>
<ellipse fill="#2b2b82" stroke="#ffffff" cx="1108.37" cy="-634.6" rx="43.9" ry="18"/>
<text xml:space="preserve" text-anchor="middle" x="1108.37" y="-631.1" font-family="Helvetica,sans-Serif" font-size="10.00" fill="#e0e0e0">src.api.router</text>
</g>
<!-- fastapi&#45;&gt;src_api_router -->
<g id="edge1" class="edge">
<title>fastapi&#45;&gt;src_api_router</title><style>.edge>path:hover{stroke-width:8}</style>
<path fill="none" stroke="#ffffff" d="M740.99,-769.6C846.03,-748.08 883.97,-812.49 982.22,-769.6"/>
</g>
<!-- src_api_routes_auth -->
<g id="node17" class="node">
<title>src_api_routes_auth</title><style>.edge>path:hover{stroke-width:8}</style>
<ellipse fill="#3838a8" stroke="#ffffff" cx="866.8" cy="-837.6" rx="32.53" ry="39.6"/>
<text xml:space="preserve" text-anchor="middle" x="866.8" y="-852.1" font-family="Helvetica,sans-Serif" font-size="10.00" fill="#e0e0e0">src.</text>
<text xml:space="preserve" text-anchor="middle" x="866.8" y="-840.1" font-family="Helvetica,sans-Serif" font-size="10.00" fill="#e0e0e0">api.</text>
<text xml:space="preserve" text-anchor="middle" x="866.8" y="-828.1" font-family="Helvetica,sans-Serif" font-size="10.00" fill="#e0e0e0">routes.</text>
<text xml:space="preserve" text-anchor="middle" x="866.8" y="-816.1" font-family="Helvetica,sans-Serif" font-size="10.00" fill="#e0e0e0">auth</text>
</g>
<!-- fastapi&#45;&gt;src_api_routes_auth -->
<g id="edge2" class="edge">
<title>fastapi&#45;&gt;src_api_routes_auth</title><style>.edge>path:hover{stroke-width:8}</style>
<path fill="none" stroke="#ffffff" d="M299.46,-792.6C338.1,-821.85 327.04,-853.51 370.17,-875.6 516.56,-950.55 575.61,-924.42 738.99,-905.6"/>
<path fill="none" stroke="#ffffff" d="M740.99,-905.6C773.33,-899.21 805.91,-880.97 829.66,-864.99"/>
<polygon fill="#5a5a5a" stroke="#ffffff" points="831.49,-867.98 837.71,-859.41 827.5,-862.23 831.49,-867.98"/>
</g>
<!-- src_api_routes_health -->
<g id="node18" class="node">
<title>src_api_routes_health</title><style>.edge>path:hover{stroke-width:8}</style>
<ellipse fill="#3838a8" stroke="#ffffff" cx="866.8" cy="-604.6" rx="32.53" ry="39.6"/>
<text xml:space="preserve" text-anchor="middle" x="866.8" y="-619.1" font-family="Helvetica,sans-Serif" font-size="10.00" fill="#e0e0e0">src.</text>
<text xml:space="preserve" text-anchor="middle" x="866.8" y="-607.1" font-family="Helvetica,sans-Serif" font-size="10.00" fill="#e0e0e0">api.</text>
<text xml:space="preserve" text-anchor="middle" x="866.8" y="-595.1" font-family="Helvetica,sans-Serif" font-size="10.00" fill="#e0e0e0">routes.</text>
<text xml:space="preserve" text-anchor="middle" x="866.8" y="-583.1" font-family="Helvetica,sans-Serif" font-size="10.00" fill="#e0e0e0">health</text>
</g>
<!-- fastapi&#45;&gt;src_api_routes_health -->
<g id="edge3" class="edge">
<title>fastapi&#45;&gt;src_api_routes_health</title><style>.edge>path:hover{stroke-width:8}</style>
<path fill="none" stroke="#ffffff" d="M299.46,-792.6C345.82,-826.02 501.64,-808.15 556.63,-792.6"/>
<path fill="none" stroke="#ffffff" d="M558.63,-792.6C582.14,-784.36 590.1,-786.58 611.37,-773.6 649.22,-750.5 648.51,-731.68 684.37,-705.6 730.07,-672.35 787.83,-641.95 825.74,-623.38"/>
<polygon fill="#5a5a5a" stroke="#ffffff" points="827.05,-626.63 834.52,-619.12 824,-620.33 827.05,-626.63"/>
</g>
<!-- src_api_routes_posts -->
<g id="node19" class="node">
<title>src_api_routes_posts</title><style>.edge>path:hover{stroke-width:8}</style>
<ellipse fill="#303091" stroke="#ffffff" cx="866.8" cy="-507.6" rx="32.53" ry="39.6"/>
<text xml:space="preserve" text-anchor="middle" x="866.8" y="-522.1" font-family="Helvetica,sans-Serif" font-size="10.00" fill="#e0e0e0">src.</text>
<text xml:space="preserve" text-anchor="middle" x="866.8" y="-510.1" font-family="Helvetica,sans-Serif" font-size="10.00" fill="#e0e0e0">api.</text>
<text xml:space="preserve" text-anchor="middle" x="866.8" y="-498.1" font-family="Helvetica,sans-Serif" font-size="10.00" fill="#e0e0e0">routes.</text>
<text xml:space="preserve" text-anchor="middle" x="866.8" y="-486.1" font-family="Helvetica,sans-Serif" font-size="10.00" fill="#e0e0e0">posts</text>
</g>
<!-- fastapi&#45;&gt;src_api_routes_posts -->
<g id="edge4" class="edge">
<title>fastapi&#45;&gt;src_api_routes_posts</title><style>.edge>path:hover{stroke-width:8}</style>
<path fill="none" stroke="#ffffff" d="M299.46,-792.6C349.46,-819.43 453.85,-666.36 503.89,-639.6 548.57,-615.7 566.9,-625.88 611.37,-601.6 674.38,-567.19 667.22,-503.91 738.99,-502.6"/>
<path fill="none" stroke="#ffffff" d="M163.99,-482.76C168.56,-539.78 191.11,-715.93 297.46,-792.6"/>
</g>
<!-- src_api_routes_root -->
<g id="node20" class="node">
<title>src_api_routes_root</title><style>.edge>path:hover{stroke-width:8}</style>
<ellipse fill="#3838a8" stroke="#ffffff" cx="866.8" cy="-701.6" rx="32.53" ry="39.6"/>
<text xml:space="preserve" text-anchor="middle" x="866.8" y="-716.1" font-family="Helvetica,sans-Serif" font-size="10.00" fill="#e0e0e0">src.</text>
<text xml:space="preserve" text-anchor="middle" x="866.8" y="-704.1" font-family="Helvetica,sans-Serif" font-size="10.00" fill="#e0e0e0">api.</text>
<text xml:space="preserve" text-anchor="middle" x="866.8" y="-692.1" font-family="Helvetica,sans-Serif" font-size="10.00" fill="#e0e0e0">routes.</text>
<text xml:space="preserve" text-anchor="middle" x="866.8" y="-680.1" font-family="Helvetica,sans-Serif" font-size="10.00" fill="#e0e0e0">root</text>
</g>
<!-- fastapi&#45;&gt;src_api_routes_root -->
<g id="edge5" class="edge">
<title>fastapi&#45;&gt;src_api_routes_root</title><style>.edge>path:hover{stroke-width:8}</style>
<path fill="none" stroke="#ffffff" d="M740.99,-769.6C772.9,-761.34 805.5,-743.18 829.37,-727.7"/>
<polygon fill="#5a5a5a" stroke="#ffffff" points="831.06,-730.78 837.46,-722.33 827.19,-724.95 831.06,-730.78"/>
<path fill="none" stroke="#ffffff" d="M558.63,-792.6C637.85,-776.64 660.76,-789.85 738.99,-769.6"/>
</g>
<!-- src_api_routes_users -->
<g id="node21" class="node">
<title>src_api_routes_users</title><style>.edge>path:hover{stroke-width:8}</style>
<ellipse fill="#2e2e8a" stroke="#ffffff" cx="866.8" cy="-410.6" rx="32.53" ry="39.6"/>
<text xml:space="preserve" text-anchor="middle" x="866.8" y="-425.1" font-family="Helvetica,sans-Serif" font-size="10.00" fill="#e0e0e0">src.</text>
<text xml:space="preserve" text-anchor="middle" x="866.8" y="-413.1" font-family="Helvetica,sans-Serif" font-size="10.00" fill="#e0e0e0">api.</text>
<text xml:space="preserve" text-anchor="middle" x="866.8" y="-401.1" font-family="Helvetica,sans-Serif" font-size="10.00" fill="#e0e0e0">routes.</text>
<text xml:space="preserve" text-anchor="middle" x="866.8" y="-389.1" font-family="Helvetica,sans-Serif" font-size="10.00" fill="#e0e0e0">users</text>
</g>
<!-- fastapi&#45;&gt;src_api_routes_users -->
<g id="edge6" class="edge">
<title>fastapi&#45;&gt;src_api_routes_users</title><style>.edge>path:hover{stroke-width:8}</style>
<path fill="none" stroke="#ffffff" d="M189.32,-464.6C235.66,-464.6 334.53,-464.6 418.03,-464.6 418.03,-464.6 418.03,-464.6 558.63,-464.6 638.79,-464.6 660.45,-480.63 738.99,-464.6"/>
</g>
<!-- src_core_exceptions -->
<g id="node24" class="node">
<title>src_core_exceptions</title><style>.edge>path:hover{stroke-width:8}</style>
<ellipse fill="#2f2fbc" stroke="#ffffff" cx="557.63" cy="-211.6" rx="44.72" ry="31.11"/>
<text xml:space="preserve" text-anchor="middle" x="557.63" y="-220.1" font-family="Helvetica,sans-Serif" font-size="10.00" fill="#e0e0e0">src.</text>
<text xml:space="preserve" text-anchor="middle" x="557.63" y="-208.1" font-family="Helvetica,sans-Serif" font-size="10.00" fill="#e0e0e0">core.</text>
<text xml:space="preserve" text-anchor="middle" x="557.63" y="-196.1" font-family="Helvetica,sans-Serif" font-size="10.00" fill="#e0e0e0">exceptions</text>
</g>
<!-- fastapi&#45;&gt;src_core_exceptions -->
<g id="edge7" class="edge">
<title>fastapi&#45;&gt;src_core_exceptions</title><style>.edge>path:hover{stroke-width:8}</style>
<path fill="none" stroke="#ffffff" d="M189.27,-447.04C228.55,-420.96 304.78,-370.56 370.17,-328.6 419.18,-297.15 475.91,-261.68 513.81,-238.13"/>
<polygon fill="#5a5a5a" stroke="#ffffff" points="515.56,-241.16 522.21,-232.91 511.87,-235.21 515.56,-241.16"/>
</g>
<!-- src_main -->
<g id="node31" class="node">
<title>src_main</title><style>.edge>path:hover{stroke-width:8}</style>
<ellipse fill="#2e2e6b" stroke="#ffffff" cx="1327.86" cy="-703.6" rx="32.17" ry="18"/>
<text xml:space="preserve" text-anchor="middle" x="1327.86" y="-700.1" font-family="Helvetica,sans-Serif" font-size="10.00" fill="#e0e0e0">src.main</text>
</g>
<!-- fastapi&#45;&gt;src_main -->
<g id="edge8" class="edge">
<title>fastapi&#45;&gt;src_main</title><style>.edge>path:hover{stroke-width:8}</style>
<path fill="none" stroke="#ffffff" d="M740.99,-905.6C811.67,-891.63 835.63,-914.68 901.97,-886.6 968.74,-858.34 984.82,-841.48 1028.48,-783.6 1052.93,-751.17 1031.96,-723.94 1064.48,-699.6 1121.27,-657.08 1152.05,-679.04 1222.98,-680.6"/>
</g>
<!-- fastapi_responses -->
<g id="node2" class="node">
<title>fastapi_responses</title><style>.edge>path:hover{stroke-width:8}</style>
<polygon fill="#5a5a5a" stroke="#ffffff" points="61,-482.6 0,-482.6 0,-446.6 61,-446.6 61,-482.6"/>
<text xml:space="preserve" text-anchor="middle" x="30.5" y="-467.1" font-family="Helvetica,sans-Serif" font-size="10.00" fill="#e0e0e0">fastapi.</text>
<text xml:space="preserve" text-anchor="middle" x="30.5" y="-455.1" font-family="Helvetica,sans-Serif" font-size="10.00" fill="#e0e0e0">responses</text>
</g>
<!-- fastapi_responses&#45;&gt;fastapi -->
<g id="edge9" class="edge">
<title>fastapi_responses&#45;&gt;fastapi</title><style>.edge>path:hover{stroke-width:8}</style>
<path fill="none" stroke="#ffffff" d="M61.18,-464.6C79.55,-464.6 103.32,-464.6 123.04,-464.6"/>
<polygon fill="#5a5a5a" stroke="#ffffff" points="122.89,-468.1 132.89,-464.6 122.89,-461.1 122.89,-468.1"/>
</g>
<!-- fastapi_responses&#45;&gt;src_core_exceptions -->
<g id="edge10" class="edge">
<title>fastapi_responses&#45;&gt;src_core_exceptions</title><style>.edge>path:hover{stroke-width:8}</style>
<path fill="none" stroke="#ffffff" d="M33.1,-446.2C37.2,-410.04 51.23,-329.19 97,-282.6 204.8,-172.87 406.69,-187.13 502.94,-201.62"/>
<polygon fill="#5a5a5a" stroke="#ffffff" points="502.22,-205.05 512.64,-203.14 503.31,-198.13 502.22,-205.05"/>
</g>
<!-- fastapi_responses&#45;&gt;src_main -->
<g id="edge11" class="edge">
<title>fastapi_responses&#45;&gt;src_main</title><style>.edge>path:hover{stroke-width:8}</style>
<path fill="none" stroke="#ffffff" d="M32.77,-483.08C39.89,-571.11 82.73,-943.6 297.46,-943.6 297.46,-943.6 297.46,-943.6 1109.37,-943.6 1222.36,-943.6 1291.97,-795.74 1316.68,-732.13"/>
<polygon fill="#5a5a5a" stroke="#ffffff" points="1319.85,-733.64 1320.12,-723.05 1313.31,-731.17 1319.85,-733.64"/>
</g>
<!-- fastapi_security -->
<g id="node3" class="node">
<title>fastapi_security</title><style>.edge>path:hover{stroke-width:8}</style>
<ellipse fill="#b65353" stroke="#ffffff" cx="419.03" cy="-843.6" rx="35.71" ry="22.63"/>
<text xml:space="preserve" text-anchor="middle" x="419.03" y="-846.1" font-family="Helvetica,sans-Serif" font-size="10.00" fill="#e0e0e0">fastapi.</text>
<text xml:space="preserve" text-anchor="middle" x="419.03" y="-834.1" font-family="Helvetica,sans-Serif" font-size="10.00" fill="#e0e0e0">security</text>
</g>
<!-- fastapi_security&#45;&gt;src_api_routes_auth -->
<g id="edge12" class="edge">
<title>fastapi_security&#45;&gt;src_api_routes_auth</title><style>.edge>path:hover{stroke-width:8}</style>
<path fill="none" stroke="#ffffff" d="M455.01,-843.13C535.66,-842.04 734.47,-839.37 822.57,-838.18"/>
<polygon fill="#b65353" stroke="#ffffff" points="822.53,-841.68 832.48,-838.05 822.43,-834.68 822.53,-841.68"/>
</g>
<!-- fastapi_staticfiles -->
<g id="node4" class="node">
<title>fastapi_staticfiles</title><style>.edge>path:hover{stroke-width:8}</style>
<ellipse fill="#b65353" stroke="#ffffff" cx="1108.37" cy="-865.6" rx="41.01" ry="22.63"/>
<text xml:space="preserve" text-anchor="middle" x="1108.37" y="-868.1" font-family="Helvetica,sans-Serif" font-size="10.00" fill="#e0e0e0">fastapi.</text>
<text xml:space="preserve" text-anchor="middle" x="1108.37" y="-856.1" font-family="Helvetica,sans-Serif" font-size="10.00" fill="#e0e0e0">staticfiles</text>
</g>
<!-- fastapi_staticfiles&#45;&gt;src_main -->
<g id="edge13" class="edge">
<title>fastapi_staticfiles&#45;&gt;src_main</title><style>.edge>path:hover{stroke-width:8}</style>
<path fill="none" stroke="#ffffff" d="M1137.29,-849.05C1142.91,-844.64 1148.31,-839.44 1152.27,-833.6 1194.33,-771.61 1148.09,-678.96 1222.98,-680.6"/>
</g>
<!-- jose -->
<g id="node5" class="node">
<title>jose</title><style>.edge>path:hover{stroke-width:8}</style>
<ellipse fill="#c29947" stroke="#ffffff" cx="866.8" cy="-178.6" rx="27" ry="18"/>
<text xml:space="preserve" text-anchor="middle" x="866.8" y="-175.1" font-family="Helvetica,sans-Serif" font-size="10.00" fill="#e0e0e0">jose</text>
</g>
<!-- src_core_security -->
<g id="node26" class="node">
<title>src_core_security</title><style>.edge>path:hover{stroke-width:8}</style>
<ellipse fill="#3a3a88" stroke="#ffffff" cx="1223.98" cy="-95.6" rx="35.71" ry="31.11"/>
<text xml:space="preserve" text-anchor="middle" x="1223.98" y="-104.1" font-family="Helvetica,sans-Serif" font-size="10.00" fill="#e0e0e0">src.</text>
<text xml:space="preserve" text-anchor="middle" x="1223.98" y="-92.1" font-family="Helvetica,sans-Serif" font-size="10.00" fill="#e0e0e0">core.</text>
<text xml:space="preserve" text-anchor="middle" x="1223.98" y="-80.1" font-family="Helvetica,sans-Serif" font-size="10.00" fill="#e0e0e0">security</text>
</g>
<!-- jose&#45;&gt;src_core_security -->
<g id="edge14" class="edge">
<title>jose&#45;&gt;src_core_security</title><style>.edge>path:hover{stroke-width:8}</style>
<path fill="none" stroke="#ffffff" d="M886.75,-191.3C913.72,-208.86 962.12,-238.32 982.22,-237.6"/>
</g>
<!-- jose_jwt -->
<g id="node6" class="node">
<title>jose_jwt</title><style>.edge>path:hover{stroke-width:8}</style>
<ellipse fill="#b3914c" stroke="#ffffff" cx="866.8" cy="-124.6" rx="29.92" ry="18"/>
<text xml:space="preserve" text-anchor="middle" x="866.8" y="-121.1" font-family="Helvetica,sans-Serif" font-size="10.00" fill="#e0e0e0">jose.jwt</text>
</g>
<!-- jose_jwt&#45;&gt;src_core_security -->
<g id="edge15" class="edge">
<title>jose_jwt&#45;&gt;src_core_security</title><style>.edge>path:hover{stroke-width:8}</style>
<path fill="none" stroke="#ffffff" d="M984.22,-237.6C1070.15,-247.87 1152.92,-173.98 1194.74,-128.86"/>
<polygon fill="#b3914c" stroke="#ffffff" points="1197.16,-131.41 1201.29,-121.65 1191.98,-126.7 1197.16,-131.41"/>
<path fill="none" stroke="#ffffff" d="M886.31,-138.4C891.51,-142.49 897.08,-147.09 901.97,-151.6 940.43,-187.01 929.98,-239.46 982.22,-237.6"/>
</g>
<!-- passlib -->
<g id="node7" class="node">
<title>passlib</title><style>.edge>path:hover{stroke-width:8}</style>
<ellipse fill="#99c247" stroke="#ffffff" cx="866.8" cy="-296.6" rx="28.11" ry="18"/>
<text xml:space="preserve" text-anchor="middle" x="866.8" y="-293.1" font-family="Helvetica,sans-Serif" font-size="10.00" fill="#e0e0e0">passlib</text>
</g>
<!-- passlib&#45;&gt;src_core_security -->
<g id="edge16" class="edge">
<title>passlib&#45;&gt;src_core_security</title><style>.edge>path:hover{stroke-width:8}</style>
<path fill="none" stroke="#ffffff" d="M887.2,-283.99C914.25,-266.87 962.23,-238.31 982.22,-237.6"/>
</g>
<!-- passlib_context -->
<g id="node8" class="node">
<title>passlib_context</title><style>.edge>path:hover{stroke-width:8}</style>
<ellipse fill="#91b34c" stroke="#ffffff" cx="866.8" cy="-237.6" rx="35.18" ry="22.63"/>
<text xml:space="preserve" text-anchor="middle" x="866.8" y="-240.1" font-family="Helvetica,sans-Serif" font-size="10.00" fill="#e0e0e0">passlib.</text>
<text xml:space="preserve" text-anchor="middle" x="866.8" y="-228.1" font-family="Helvetica,sans-Serif" font-size="10.00" fill="#e0e0e0">context</text>
</g>
<!-- passlib_context&#45;&gt;src_core_security -->
<g id="edge17" class="edge">
<title>passlib_context&#45;&gt;src_core_security</title><style>.edge>path:hover{stroke-width:8}</style>
<path fill="none" stroke="#ffffff" d="M902.36,-238.24C925.07,-238.5 955.42,-238.56 982.22,-237.6"/>
</g>
<!-- pydantic -->
<g id="node9" class="node">
<title>pydantic</title><style>.edge>path:hover{stroke-width:8}</style>
<ellipse fill="#19e619" stroke="#ffffff" cx="161.88" cy="-309.6" rx="31.72" ry="18"/>
<text xml:space="preserve" text-anchor="middle" x="161.88" y="-306.1" font-family="Helvetica,sans-Serif" font-size="10.00" fill="#e0e0e0">pydantic</text>
</g>
<!-- pydantic&#45;&gt;src_api_routes_users -->
<g id="edge18" class="edge">
<title>pydantic&#45;&gt;src_api_routes_users</title><style>.edge>path:hover{stroke-width:8}</style>
<path fill="none" stroke="#ffffff" d="M558.63,-270.6C597.92,-267.22 613.45,-250.47 647.37,-270.6"/>
<path fill="none" stroke="#ffffff" d="M193.49,-306.29C259.68,-299.21 421.11,-282.24 556.63,-270.6"/>
</g>
<!-- src_schemas_health -->
<g id="node33" class="node">
<title>src_schemas_health</title><style>.edge>path:hover{stroke-width:8}</style>
<ellipse fill="#4040c0" stroke="#ffffff" cx="557.63" cy="-561.6" rx="41.54" ry="31.11"/>
<text xml:space="preserve" text-anchor="middle" x="557.63" y="-570.1" font-family="Helvetica,sans-Serif" font-size="10.00" fill="#e0e0e0">src.</text>
<text xml:space="preserve" text-anchor="middle" x="557.63" y="-558.1" font-family="Helvetica,sans-Serif" font-size="10.00" fill="#e0e0e0">schemas.</text>
<text xml:space="preserve" text-anchor="middle" x="557.63" y="-546.1" font-family="Helvetica,sans-Serif" font-size="10.00" fill="#e0e0e0">health</text>
</g>
<!-- pydantic&#45;&gt;src_schemas_health -->
<g id="edge19" class="edge">
<title>pydantic&#45;&gt;src_schemas_health</title><style>.edge>path:hover{stroke-width:8}</style>
<path fill="none" stroke="#ffffff" d="M172.08,-326.74C184.99,-351.07 208.9,-397.16 226.75,-437.6 261.97,-517.36 224.46,-572.92 297.46,-620.6"/>
<path fill="none" stroke="#ffffff" d="M299.46,-620.6C301.66,-622.03 432.61,-591.15 506.77,-573.51"/>
<polygon fill="#19e619" stroke="#ffffff" points="507.32,-576.97 516.24,-571.25 505.7,-570.16 507.32,-576.97"/>
</g>
<!-- src_schemas_post -->
<g id="node34" class="node">
<title>src_schemas_post</title><style>.edge>path:hover{stroke-width:8}</style>
<ellipse fill="#4040c0" stroke="#ffffff" cx="557.63" cy="-329.6" rx="41.54" ry="31.11"/>
<text xml:space="preserve" text-anchor="middle" x="557.63" y="-338.1" font-family="Helvetica,sans-Serif" font-size="10.00" fill="#e0e0e0">src.</text>
<text xml:space="preserve" text-anchor="middle" x="557.63" y="-326.1" font-family="Helvetica,sans-Serif" font-size="10.00" fill="#e0e0e0">schemas.</text>
<text xml:space="preserve" text-anchor="middle" x="557.63" y="-314.1" font-family="Helvetica,sans-Serif" font-size="10.00" fill="#e0e0e0">post</text>
</g>
<!-- pydantic&#45;&gt;src_schemas_post -->
<g id="edge20" class="edge">
<title>pydantic&#45;&gt;src_schemas_post</title><style>.edge>path:hover{stroke-width:8}</style>
<path fill="none" stroke="#ffffff" d="M193.77,-311.17C260.97,-314.58 421.05,-322.71 504.31,-326.94"/>
<polygon fill="#19e619" stroke="#ffffff" points="504.1,-330.43 514.26,-327.45 504.45,-323.44 504.1,-330.43"/>
</g>
<!-- src_schemas_root -->
<g id="node35" class="node">
<title>src_schemas_root</title><style>.edge>path:hover{stroke-width:8}</style>
<ellipse fill="#4040c0" stroke="#ffffff" cx="557.63" cy="-733.6" rx="41.54" ry="31.11"/>
<text xml:space="preserve" text-anchor="middle" x="557.63" y="-742.1" font-family="Helvetica,sans-Serif" font-size="10.00" fill="#e0e0e0">src.</text>
<text xml:space="preserve" text-anchor="middle" x="557.63" y="-730.1" font-family="Helvetica,sans-Serif" font-size="10.00" fill="#e0e0e0">schemas.</text>
<text xml:space="preserve" text-anchor="middle" x="557.63" y="-718.1" font-family="Helvetica,sans-Serif" font-size="10.00" fill="#e0e0e0">root</text>
</g>
<!-- pydantic&#45;&gt;src_schemas_root -->
<g id="edge21" class="edge">
<title>pydantic&#45;&gt;src_schemas_root</title><style>.edge>path:hover{stroke-width:8}</style>
<path fill="none" stroke="#ffffff" d="M299.46,-620.6C366.06,-666.27 454.1,-700.13 507.98,-718.36"/>
<polygon fill="#19e619" stroke="#ffffff" points="506.58,-721.58 517.18,-721.42 508.8,-714.94 506.58,-721.58"/>
</g>
<!-- pydantic_settings -->
<g id="node10" class="node">
<title>pydantic_settings</title><style>.edge>path:hover{stroke-width:8}</style>
<ellipse fill="#53b695" stroke="#ffffff" cx="739.99" cy="-82.6" rx="55.62" ry="18"/>
<text xml:space="preserve" text-anchor="middle" x="739.99" y="-79.1" font-family="Helvetica,sans-Serif" font-size="10.00" fill="#e0e0e0">pydantic_settings</text>
</g>
<!-- src_core_config -->
<g id="node23" class="node">
<title>src_core_config</title><style>.edge>path:hover{stroke-width:8}</style>
<ellipse fill="#3333cc" stroke="#ffffff" cx="1108.37" cy="-95.6" rx="29.88" ry="31.11"/>
<text xml:space="preserve" text-anchor="middle" x="1108.37" y="-104.1" font-family="Helvetica,sans-Serif" font-size="10.00" fill="#e0e0e0">src.</text>
<text xml:space="preserve" text-anchor="middle" x="1108.37" y="-92.1" font-family="Helvetica,sans-Serif" font-size="10.00" fill="#e0e0e0">core.</text>
<text xml:space="preserve" text-anchor="middle" x="1108.37" y="-80.1" font-family="Helvetica,sans-Serif" font-size="10.00" fill="#e0e0e0">config</text>
</g>
<!-- pydantic_settings&#45;&gt;src_core_config -->
<g id="edge22" class="edge">
<title>pydantic_settings&#45;&gt;src_core_config</title><style>.edge>path:hover{stroke-width:8}</style>
<path fill="none" stroke="#ffffff" d="M795.45,-84.53C869.73,-87.17 1001.11,-91.83 1067.13,-94.17"/>
<polygon fill="#53b695" stroke="#ffffff" points="1066.66,-97.66 1076.77,-94.51 1066.9,-90.66 1066.66,-97.66"/>
</g>
<!-- sqlalchemy -->
<g id="node11" class="node">
<title>sqlalchemy</title><style>.edge>path:hover{stroke-width:8}</style>
<ellipse fill="#269dd9" stroke="#ffffff" cx="419.03" cy="-418.6" rx="39.39" ry="18"/>
<text xml:space="preserve" text-anchor="middle" x="419.03" y="-415.1" font-family="Helvetica,sans-Serif" font-size="10.00" fill="#e0e0e0">sqlalchemy</text>
</g>
<!-- sqlalchemy&#45;&gt;src_api_routes_posts -->
<g id="edge23" class="edge">
<title>sqlalchemy&#45;&gt;src_api_routes_posts</title><style>.edge>path:hover{stroke-width:8}</style>
<path fill="none" stroke="#ffffff" d="M648.37,-426.6C674.87,-435.97 662.68,-460.71 684.37,-478.6 704.83,-495.47 712.48,-503.08 738.99,-502.6"/>
<path fill="none" stroke="#ffffff" d="M740.99,-502.6C768.2,-502.1 798.71,-503.29 822.76,-504.64"/>
<polygon fill="#269dd9" stroke="#ffffff" points="822.3,-508.12 832.49,-505.21 822.72,-501.13 822.3,-508.12"/>
</g>
<!-- sqlalchemy&#45;&gt;src_api_routes_users -->
<g id="edge24" class="edge">
<title>sqlalchemy&#45;&gt;src_api_routes_users</title><style>.edge>path:hover{stroke-width:8}</style>
<path fill="none" stroke="#ffffff" d="M740.99,-464.6C771.22,-458.43 803.1,-444.49 827.08,-432.32"/>
<polygon fill="#269dd9" stroke="#ffffff" points="828.57,-435.49 835.83,-427.76 825.34,-429.28 828.57,-435.49"/>
<path fill="none" stroke="#ffffff" d="M457.9,-414.48C503.73,-410.73 582.79,-408.24 647.37,-426.6"/>
<path fill="none" stroke="#ffffff" d="M648.37,-426.6C689.55,-441.16 696.2,-473.33 738.99,-464.6"/>
</g>
<!-- sqlalchemy_ext -->
<g id="node12" class="node">
<title>sqlalchemy_ext</title><style>.edge>path:hover{stroke-width:8}</style>
<ellipse fill="#4095c0" stroke="#ffffff" cx="419.03" cy="-355.6" rx="48.86" ry="18"/>
<text xml:space="preserve" text-anchor="middle" x="419.03" y="-352.1" font-family="Helvetica,sans-Serif" font-size="10.00" fill="#e0e0e0">sqlalchemy.ext</text>
</g>
<!-- sqlalchemy_ext&#45;&gt;src_api_routes_posts -->
<g id="edge25" class="edge">
<title>sqlalchemy_ext&#45;&gt;src_api_routes_posts</title><style>.edge>path:hover{stroke-width:8}</style>
<path fill="none" stroke="#ffffff" d="M463.94,-363.22C476.8,-365.37 490.9,-367.65 503.89,-369.6 567.51,-379.12 586.83,-366.85 647.37,-388.6"/>
</g>
<!-- sqlalchemy_ext&#45;&gt;src_api_routes_users -->
<g id="edge26" class="edge">
<title>sqlalchemy_ext&#45;&gt;src_api_routes_users</title><style>.edge>path:hover{stroke-width:8}</style>
<path fill="none" stroke="#ffffff" d="M437.79,-338.82C453.99,-324.23 479.1,-303.34 503.89,-289.6 525.68,-277.52 531.81,-272.73 556.63,-270.6"/>
</g>
<!-- sqlalchemy_ext_asyncio -->
<g id="node13" class="node">
<title>sqlalchemy_ext_asyncio</title><style>.edge>path:hover{stroke-width:8}</style>
<ellipse fill="#4799c2" stroke="#ffffff" cx="419.03" cy="-523.6" rx="47.91" ry="31.11"/>
<text xml:space="preserve" text-anchor="middle" x="419.03" y="-532.1" font-family="Helvetica,sans-Serif" font-size="10.00" fill="#e0e0e0">sqlalchemy.</text>
<text xml:space="preserve" text-anchor="middle" x="419.03" y="-520.1" font-family="Helvetica,sans-Serif" font-size="10.00" fill="#e0e0e0">ext.</text>
<text xml:space="preserve" text-anchor="middle" x="419.03" y="-508.1" font-family="Helvetica,sans-Serif" font-size="10.00" fill="#e0e0e0">asyncio</text>
</g>
<!-- sqlalchemy_ext_asyncio&#45;&gt;src_api_routes_posts -->
<g id="edge27" class="edge">
<title>sqlalchemy_ext_asyncio&#45;&gt;src_api_routes_posts</title><style>.edge>path:hover{stroke-width:8}</style>
<path fill="none" stroke="#ffffff" d="M648.37,-502.6C688.44,-498.51 698.72,-503.33 738.99,-502.6"/>
</g>
<!-- sqlalchemy_ext_asyncio&#45;&gt;src_api_routes_users -->
<g id="edge28" class="edge">
<title>sqlalchemy_ext_asyncio&#45;&gt;src_api_routes_users</title><style>.edge>path:hover{stroke-width:8}</style>
<path fill="none" stroke="#ffffff" d="M466.64,-519.56C512.62,-515.51 584.87,-508.98 647.37,-502.6"/>
<path fill="none" stroke="#ffffff" d="M648.37,-502.6C659.17,-500.98 728.3,-466.78 738.99,-464.6"/>
</g>
<!-- src_api -->
<g id="node14" class="node">
<title>src_api</title><style>.edge>path:hover{stroke-width:8}</style>
<ellipse fill="#2f2fdb" stroke="#ffffff" cx="1223.98" cy="-726.6" rx="27.21" ry="18"/>
<text xml:space="preserve" text-anchor="middle" x="1223.98" y="-723.1" font-family="Helvetica,sans-Serif" font-size="10.00" fill="#e0e0e0">src.api</text>
</g>
<!-- src_api&#45;&gt;src_main -->
<g id="edge29" class="edge">
<title>src_api&#45;&gt;src_main</title><style>.edge>path:hover{stroke-width:8}</style>
<path fill="none" stroke="#ffffff" d="M1250.16,-720.91C1261.17,-718.43 1274.36,-715.45 1286.67,-712.67"/>
<polygon fill="#2f2fdb" stroke="#ffffff" points="1287.18,-716.15 1296.16,-710.53 1285.63,-709.32 1287.18,-716.15"/>
</g>
<!-- src_api_router&#45;&gt;src_main -->
<g id="edge30" class="edge">
<title>src_api_router&#45;&gt;src_main</title><style>.edge>path:hover{stroke-width:8}</style>
<path fill="none" stroke="#ffffff" d="M1132.64,-649.84C1154.87,-662.95 1189.79,-679.87 1222.98,-680.6"/>
</g>
<!-- src_api_routes -->
<g id="node16" class="node">
<title>src_api_routes</title><style>.edge>path:hover{stroke-width:8}</style>
<ellipse fill="#4747c2" stroke="#ffffff" cx="983.22" cy="-634.6" rx="45.25" ry="18"/>
<text xml:space="preserve" text-anchor="middle" x="983.22" y="-631.1" font-family="Helvetica,sans-Serif" font-size="10.00" fill="#e0e0e0">src.api.routes</text>
</g>
<!-- src_api_routes&#45;&gt;src_api_router -->
<g id="edge31" class="edge">
<title>src_api_routes&#45;&gt;src_api_router</title><style>.edge>path:hover{stroke-width:8}</style>
<path fill="none" stroke="#ffffff" d="M1028.68,-634.6C1036.55,-634.6 1044.82,-634.6 1052.93,-634.6"/>
<polygon fill="#4747c2" stroke="#ffffff" points="1052.7,-638.1 1062.7,-634.6 1052.7,-631.1 1052.7,-638.1"/>
</g>
<!-- src_api_routes_auth&#45;&gt;src_api_router -->
<g id="edge32" class="edge">
<title>src_api_routes_auth&#45;&gt;src_api_router</title><style>.edge>path:hover{stroke-width:8}</style>
<path fill="none" stroke="#ffffff" d="M895.43,-818.5C917.98,-803.59 951.09,-783.19 982.22,-769.6"/>
</g>
<!-- src_api_routes_health&#45;&gt;src_api_router -->
<g id="edge33" class="edge">
<title>src_api_routes_health&#45;&gt;src_api_router</title><style>.edge>path:hover{stroke-width:8}</style>
<path fill="none" stroke="#ffffff" d="M889.43,-576.08C911.92,-550.15 948.48,-518.25 982.22,-534.6"/>
</g>
<!-- src_api_routes_posts&#45;&gt;src_api_router -->
<g id="edge34" class="edge">
<title>src_api_routes_posts&#45;&gt;src_api_router</title><style>.edge>path:hover{stroke-width:8}</style>
<path fill="none" stroke="#ffffff" d="M899.64,-511.3C923.33,-514.94 955.95,-521.88 982.22,-534.6"/>
</g>
<!-- src_api_routes_root&#45;&gt;src_api_router -->
<g id="edge35" class="edge">
<title>src_api_routes_root&#45;&gt;src_api_router</title><style>.edge>path:hover{stroke-width:8}</style>
<path fill="none" stroke="#ffffff" d="M984.22,-769.6C1037.41,-746.38 1023.01,-707.2 1064.48,-666.6 1067.91,-663.23 1071.71,-659.92 1075.59,-656.78"/>
<polygon fill="#3838a8" stroke="#ffffff" points="1077.65,-659.61 1083.43,-650.73 1073.38,-654.06 1077.65,-659.61"/>
<path fill="none" stroke="#ffffff" d="M890.13,-729.82C912.56,-754.51 948.55,-784.3 982.22,-769.6"/>
</g>
<!-- src_api_routes_users&#45;&gt;src_api_router -->
<g id="edge36" class="edge">
<title>src_api_routes_users&#45;&gt;src_api_router</title><style>.edge>path:hover{stroke-width:8}</style>
<path fill="none" stroke="#ffffff" d="M984.22,-534.6C1023.08,-553.42 1060.52,-586.68 1083.72,-609.65"/>
<polygon fill="#2e2e8a" stroke="#ffffff" points="1081,-611.88 1090.53,-616.52 1085.97,-606.95 1081,-611.88"/>
<path fill="none" stroke="#ffffff" d="M889.81,-438.92C916.2,-472.02 959.68,-523.68 982.22,-534.6"/>
</g>
<!-- src_core -->
<g id="node22" class="node">
<title>src_core</title><style>.edge>path:hover{stroke-width:8}</style>
<ellipse fill="#2f2fdb" stroke="#ffffff" cx="557.63" cy="-144.6" rx="30.82" ry="18"/>
<text xml:space="preserve" text-anchor="middle" x="557.63" y="-141.1" font-family="Helvetica,sans-Serif" font-size="10.00" fill="#e0e0e0">src.core</text>
</g>
<!-- src_core&#45;&gt;src_api_routes_users -->
<g id="edge37" class="edge">
<title>src_core&#45;&gt;src_api_routes_users</title><style>.edge>path:hover{stroke-width:8}</style>
<path fill="none" stroke="#ffffff" d="M584.84,-153.37C594.26,-157.62 604.29,-163.58 611.37,-171.6 642.35,-206.7 602.64,-256.77 647.37,-270.6"/>
<path fill="none" stroke="#ffffff" d="M648.37,-270.6C720.15,-292.78 790.99,-345.79 831.45,-379.84"/>
<polygon fill="#2f2fdb" stroke="#ffffff" points="829.07,-382.4 838.95,-386.23 833.61,-377.08 829.07,-382.4"/>
</g>
<!-- src_core&#45;&gt;src_main -->
<g id="edge38" class="edge">
<title>src_core&#45;&gt;src_main</title><style>.edge>path:hover{stroke-width:8}</style>
<path fill="none" stroke="#ffffff" d="M1224.98,-36.6C1239.66,-46.28 1249.95,-40.95 1259.69,-55.6 1328.33,-158.87 1328.66,-560.66 1327.35,-673.8"/>
<polygon fill="#2f2fdb" stroke="#ffffff" points="1323.85,-673.72 1327.22,-683.76 1330.85,-673.81 1323.85,-673.72"/>
<path fill="none" stroke="#ffffff" d="M572.78,-128.66C601.12,-98.62 668.19,-36.6 738.99,-36.6 738.99,-36.6 738.99,-36.6 984.22,-36.6 1090.34,-36.6 1134.41,21.84 1222.98,-36.6"/>
</g>
<!-- src_core_config&#45;&gt;src_core_security -->
<g id="edge39" class="edge">
<title>src_core_config&#45;&gt;src_core_security</title><style>.edge>path:hover{stroke-width:8}</style>
<path fill="none" stroke="#ffffff" d="M1138.63,-95.6C1150.32,-95.6 1164.08,-95.6 1177.04,-95.6"/>
<polygon fill="#3333cc" stroke="#ffffff" points="1176.65,-99.1 1186.65,-95.6 1176.65,-92.1 1176.65,-99.1"/>
</g>
<!-- src_core_config&#45;&gt;src_main -->
<g id="edge40" class="edge">
<title>src_core_config&#45;&gt;src_main</title><style>.edge>path:hover{stroke-width:8}</style>
<path fill="none" stroke="#ffffff" d="M1128.96,-72.62C1152.16,-48.25 1191.63,-15.91 1222.98,-36.6"/>
</g>
<!-- src_core_exceptions&#45;&gt;src_api_routes_users -->
<g id="edge41" class="edge">
<title>src_core_exceptions&#45;&gt;src_api_routes_users</title><style>.edge>path:hover{stroke-width:8}</style>
<path fill="none" stroke="#ffffff" d="M586.03,-235.85C602.56,-248.86 624.74,-263.61 647.37,-270.6"/>
</g>
<!-- src_core_exceptions&#45;&gt;src_main -->
<g id="edge42" class="edge">
<title>src_core_exceptions&#45;&gt;src_main</title><style>.edge>path:hover{stroke-width:8}</style>
<path fill="none" stroke="#ffffff" d="M602.04,-205.86C616.79,-205.4 633.13,-206.58 647.37,-211.6"/>
</g>
<!-- src_core_logging -->
<g id="node25" class="node">
<title>src_core_logging</title><style>.edge>path:hover{stroke-width:8}</style>
<ellipse fill="#4747c2" stroke="#ffffff" cx="1108.37" cy="-793.6" rx="33.06" ry="31.11"/>
<text xml:space="preserve" text-anchor="middle" x="1108.37" y="-802.1" font-family="Helvetica,sans-Serif" font-size="10.00" fill="#e0e0e0">src.</text>
<text xml:space="preserve" text-anchor="middle" x="1108.37" y="-790.1" font-family="Helvetica,sans-Serif" font-size="10.00" fill="#e0e0e0">core.</text>
<text xml:space="preserve" text-anchor="middle" x="1108.37" y="-778.1" font-family="Helvetica,sans-Serif" font-size="10.00" fill="#e0e0e0">logging</text>
</g>
<!-- src_core_logging&#45;&gt;src_main -->
<g id="edge43" class="edge">
<title>src_core_logging&#45;&gt;src_main</title><style>.edge>path:hover{stroke-width:8}</style>
<path fill="none" stroke="#ffffff" d="M1133.5,-772.94C1139.9,-766.98 1146.6,-760.27 1152.27,-753.6 1181.51,-719.17 1177.82,-679.61 1222.98,-680.6"/>
</g>
<!-- src_helpers_config -->
<g id="node27" class="node">
<title>src_helpers_config</title><style>.edge>path:hover{stroke-width:8}</style>
<ellipse fill="#3b3bce" stroke="#ffffff" cx="419.03" cy="-98.6" rx="35.71" ry="31.11"/>
<text xml:space="preserve" text-anchor="middle" x="419.03" y="-107.1" font-family="Helvetica,sans-Serif" font-size="10.00" fill="#e0e0e0">src.</text>
<text xml:space="preserve" text-anchor="middle" x="419.03" y="-95.1" font-family="Helvetica,sans-Serif" font-size="10.00" fill="#e0e0e0">helpers.</text>
<text xml:space="preserve" text-anchor="middle" x="419.03" y="-83.1" font-family="Helvetica,sans-Serif" font-size="10.00" fill="#e0e0e0">config</text>
</g>
<!-- src_helpers_logging_setup -->
<g id="node30" class="node">
<title>src_helpers_logging_setup</title><style>.edge>path:hover{stroke-width:8}</style>
<ellipse fill="#404096" stroke="#ffffff" cx="557.63" cy="-39.6" rx="53.74" ry="31.11"/>
<text xml:space="preserve" text-anchor="middle" x="557.63" y="-48.1" font-family="Helvetica,sans-Serif" font-size="10.00" fill="#e0e0e0">src.</text>
<text xml:space="preserve" text-anchor="middle" x="557.63" y="-36.1" font-family="Helvetica,sans-Serif" font-size="10.00" fill="#e0e0e0">helpers.</text>
<text xml:space="preserve" text-anchor="middle" x="557.63" y="-24.1" font-family="Helvetica,sans-Serif" font-size="10.00" fill="#e0e0e0">logging_setup</text>
</g>
<!-- src_helpers_config&#45;&gt;src_helpers_logging_setup -->
<g id="edge44" class="edge">
<title>src_helpers_config&#45;&gt;src_helpers_logging_setup</title><style>.edge>path:hover{stroke-width:8}</style>
<path fill="none" stroke="#ffffff" d="M451.37,-85.06C466.84,-78.38 485.94,-70.13 503.6,-62.5"/>
<polygon fill="#3b3bce" stroke="#ffffff" points="504.61,-65.88 512.4,-58.7 501.83,-59.45 504.61,-65.88"/>
</g>
<!-- src_helpers_config_config -->
<g id="node28" class="node">
<title>src_helpers_config_config</title><style>.edge>path:hover{stroke-width:8}</style>
<ellipse fill="#3838a8" stroke="#ffffff" cx="298.46" cy="-39.6" rx="35.71" ry="39.6"/>
<text xml:space="preserve" text-anchor="middle" x="298.46" y="-54.1" font-family="Helvetica,sans-Serif" font-size="10.00" fill="#e0e0e0">src.</text>
<text xml:space="preserve" text-anchor="middle" x="298.46" y="-42.1" font-family="Helvetica,sans-Serif" font-size="10.00" fill="#e0e0e0">helpers.</text>
<text xml:space="preserve" text-anchor="middle" x="298.46" y="-30.1" font-family="Helvetica,sans-Serif" font-size="10.00" fill="#e0e0e0">config.</text>
<text xml:space="preserve" text-anchor="middle" x="298.46" y="-18.1" font-family="Helvetica,sans-Serif" font-size="10.00" fill="#e0e0e0">config</text>
</g>
<!-- src_helpers_config_config&#45;&gt;src_helpers_logging_setup -->
<g id="edge45" class="edge">
<title>src_helpers_config_config&#45;&gt;src_helpers_logging_setup</title><style>.edge>path:hover{stroke-width:8}</style>
<path fill="none" stroke="#ffffff" d="M420.03,-39.6C443.47,-35.24 469.56,-34.3 492.61,-34.77"/>
<polygon fill="#3838a8" stroke="#ffffff" points="492.38,-38.26 502.49,-35.07 492.6,-31.27 492.38,-38.26"/>
<path fill="none" stroke="#ffffff" d="M334.53,-42.94C358.3,-44.4 390.31,-44.76 418.03,-39.6"/>
</g>
<!-- src_helpers_config_env_loader_mixin -->
<g id="node29" class="node">
<title>src_helpers_config_env_loader_mixin</title><style>.edge>path:hover{stroke-width:8}</style>
<ellipse fill="#4747c2" stroke="#ffffff" cx="161.88" cy="-39.6" rx="64.88" ry="39.6"/>
<text xml:space="preserve" text-anchor="middle" x="161.88" y="-54.1" font-family="Helvetica,sans-Serif" font-size="10.00" fill="#e0e0e0">src.</text>
<text xml:space="preserve" text-anchor="middle" x="161.88" y="-42.1" font-family="Helvetica,sans-Serif" font-size="10.00" fill="#e0e0e0">helpers.</text>
<text xml:space="preserve" text-anchor="middle" x="161.88" y="-30.1" font-family="Helvetica,sans-Serif" font-size="10.00" fill="#e0e0e0">config.</text>
<text xml:space="preserve" text-anchor="middle" x="161.88" y="-18.1" font-family="Helvetica,sans-Serif" font-size="10.00" fill="#e0e0e0">env_loader_mixin</text>
</g>
<!-- src_helpers_config_env_loader_mixin&#45;&gt;src_helpers_config_config -->
<g id="edge46" class="edge">
<title>src_helpers_config_env_loader_mixin&#45;&gt;src_helpers_config_config</title><style>.edge>path:hover{stroke-width:8}</style>
<path fill="none" stroke="#ffffff" d="M227.02,-39.6C235.11,-39.6 243.26,-39.6 251.01,-39.6"/>
<polygon fill="#4747c2" stroke="#ffffff" points="250.87,-43.1 260.87,-39.6 250.87,-36.1 250.87,-43.1"/>
</g>
<!-- src_schemas -->
<g id="node32" class="node">
<title>src_schemas</title><style>.edge>path:hover{stroke-width:8}</style>
<ellipse fill="#2f2fdb" stroke="#ffffff" cx="557.63" cy="-666.6" rx="43.45" ry="18"/>
<text xml:space="preserve" text-anchor="middle" x="557.63" y="-663.1" font-family="Helvetica,sans-Serif" font-size="10.00" fill="#e0e0e0">src.schemas</text>
</g>
<!-- src_schemas&#45;&gt;src_api_routes_health -->
<g id="edge47" class="edge">
<title>src_schemas&#45;&gt;src_api_routes_health</title><style>.edge>path:hover{stroke-width:8}</style>
<path fill="none" stroke="#ffffff" d="M740.99,-604.6C766.85,-594.19 798.23,-594.24 823.05,-596.87"/>
<polygon fill="#2f2fdb" stroke="#ffffff" points="822.45,-600.32 832.81,-598.09 823.32,-593.37 822.45,-600.32"/>
</g>
<!-- src_schemas&#45;&gt;src_api_routes_posts -->
<g id="edge48" class="edge">
<title>src_schemas&#45;&gt;src_api_routes_posts</title><style>.edge>path:hover{stroke-width:8}</style>
<path fill="none" stroke="#ffffff" d="M648.37,-643.6C692.2,-642.47 698.32,-620.98 738.99,-604.6"/>
<path fill="none" stroke="#ffffff" d="M590.57,-654.57C607.24,-649.26 628.12,-644.09 647.37,-643.6"/>
<path fill="none" stroke="#ffffff" d="M740.99,-604.6C776.36,-590.35 810.1,-563 833.56,-540.96"/>
<polygon fill="#2f2fdb" stroke="#ffffff" points="835.84,-543.62 840.63,-534.17 830.99,-538.57 835.84,-543.62"/>
</g>
<!-- src_schemas&#45;&gt;src_api_routes_root -->
<g id="edge49" class="edge">
<title>src_schemas&#45;&gt;src_api_routes_root</title><style>.edge>path:hover{stroke-width:8}</style>
<path fill="none" stroke="#ffffff" d="M648.37,-643.6C700.92,-642.25 686.84,-713.03 738.99,-719.6"/>
<path fill="none" stroke="#ffffff" d="M740.99,-719.6C768.65,-723.08 799.67,-718.65 823.87,-713.31"/>
<polygon fill="#2f2fdb" stroke="#ffffff" points="824.4,-716.78 833.33,-711.08 822.8,-709.96 824.4,-716.78"/>
</g>
<!-- src_schemas_health&#45;&gt;src_api_routes_health -->
<g id="edge50" class="edge">
<title>src_schemas_health&#45;&gt;src_api_routes_health</title><style>.edge>path:hover{stroke-width:8}</style>
<path fill="none" stroke="#ffffff" d="M599.01,-565.61C646.29,-570.51 726.86,-579.55 795.62,-590.6 804.59,-592.04 814.16,-593.8 823.26,-595.58"/>
<polygon fill="#4040c0" stroke="#ffffff" points="822.47,-598.99 832.96,-597.52 823.84,-592.13 822.47,-598.99"/>
</g>
<!-- src_schemas_post&#45;&gt;src_api_routes_posts -->
<g id="edge51" class="edge">
<title>src_schemas_post&#45;&gt;src_api_routes_posts</title><style>.edge>path:hover{stroke-width:8}</style>
<path fill="none" stroke="#ffffff" d="M586.74,-352.07C607.41,-367.84 634.12,-386.49 647.37,-388.6"/>
<path fill="none" stroke="#ffffff" d="M648.37,-388.6C719.14,-399.87 789.84,-446.83 830.62,-478.28"/>
<polygon fill="#4040c0" stroke="#ffffff" points="828.37,-480.97 838.4,-484.39 832.69,-475.46 828.37,-480.97"/>
</g>
<!-- src_schemas_root&#45;&gt;src_api_routes_root -->
<g id="edge52" class="edge">
<title>src_schemas_root&#45;&gt;src_api_routes_root</title><style>.edge>path:hover{stroke-width:8}</style>
<path fill="none" stroke="#ffffff" d="M598.15,-725.94C634.76,-719.94 690.69,-713.52 738.99,-719.6"/>
</g>
<!-- structlog -->
<g id="node36" class="node">
<title>structlog</title><style>.edge>path:hover{stroke-width:8}</style>
<ellipse fill="#9d26d9" stroke="#ffffff" cx="161.88" cy="-132.6" rx="32.17" ry="18"/>
<text xml:space="preserve" text-anchor="middle" x="161.88" y="-129.1" font-family="Helvetica,sans-Serif" font-size="10.00" fill="#e0e0e0">structlog</text>
</g>
<!-- structlog&#45;&gt;src_core_exceptions -->
<g id="edge53" class="edge">
<title>structlog&#45;&gt;src_core_exceptions</title><style>.edge>path:hover{stroke-width:8}</style>
<path fill="none" stroke="#ffffff" d="M420.03,-157.6C452.39,-160.62 486.38,-174.02 512.36,-186.71"/>
<polygon fill="#9d26d9" stroke="#ffffff" points="510.77,-189.82 521.27,-191.2 513.92,-183.57 510.77,-189.82"/>
</g>
<!-- structlog&#45;&gt;src_helpers_logging_setup -->
<g id="edge54" class="edge">
<title>structlog&#45;&gt;src_helpers_logging_setup</title><style>.edge>path:hover{stroke-width:8}</style>
<path fill="none" stroke="#ffffff" d="M299.46,-132.6C344.52,-126.37 332.45,-84.02 370.17,-58.6 389.15,-45.81 395.53,-43.79 418.03,-39.6"/>
<path fill="none" stroke="#ffffff" d="M194.05,-135.01C221.43,-136.55 262.28,-137.46 297.46,-132.6"/>
</g>
<!-- structlog&#45;&gt;src_main -->
<g id="edge55" class="edge">
<title>structlog&#45;&gt;src_main</title><style>.edge>path:hover{stroke-width:8}</style>
<path fill="none" stroke="#ffffff" d="M420.03,-157.6C442.82,-159.73 447.31,-148.61 467.89,-138.6 484.54,-130.49 486.01,-122.43 503.89,-117.6 550,-105.13 572.01,-90.53 611.37,-117.6 648.23,-142.95 605.18,-196.72 647.37,-211.6"/>
<path fill="none" stroke="#ffffff" d="M648.37,-211.6C717.25,-234.11 738.06,-237.57 795.62,-281.6 815.14,-296.53 812.48,-308.16 831.62,-323.6 859.28,-345.91 873.38,-340.49 901.97,-361.6 1027.46,-454.24 1042.38,-496.9 1152.27,-607.6 1184.09,-639.65 1177.82,-679.8 1222.98,-680.6"/>
<path fill="none" stroke="#ffffff" d="M1224.98,-680.6C1246.7,-680.14 1270.41,-685.15 1289.48,-690.61"/>
<polygon fill="#9d26d9" stroke="#ffffff" points="1288.38,-693.93 1298.96,-693.49 1290.41,-687.23 1288.38,-693.93"/>
<path fill="none" stroke="#ffffff" d="M299.46,-132.6C352.81,-125.22 364.52,-151.49 418.03,-157.6"/>
</g>
<!-- uvicorn -->
<g id="node37" class="node">
<title>uvicorn</title><style>.edge>path:hover{stroke-width:8}</style>
<ellipse fill="#c04095" stroke="#ffffff" cx="1108.37" cy="-726.6" rx="28.56" ry="18"/>
<text xml:space="preserve" text-anchor="middle" x="1108.37" y="-723.1" font-family="Helvetica,sans-Serif" font-size="10.00" fill="#e0e0e0">uvicorn</text>
</g>
<!-- uvicorn&#45;&gt;src_main -->
<g id="edge56" class="edge">
<title>uvicorn&#45;&gt;src_main</title><style>.edge>path:hover{stroke-width:8}</style>
<path fill="none" stroke="#ffffff" d="M1128.14,-713.5C1149.93,-699.63 1187.45,-679.82 1222.98,-680.6"/>
</g>
</g>
</svg>

