<?xml version="1.0" encoding="UTF-8" standalone="no"?>
<!DOCTYPE svg PUBLIC "-//W3C//DTD SVG 1.1//EN"
 "http://www.w3.org/Graphics/SVG/1.1/DTD/svg11.dtd">
<!-- Generated by graphviz version 15.0.0 (20260523.1842)
 -->
<!-- Title: G Pages: 1 -->
<svg style="background-color:#141414" width="947pt" height="775pt"
 viewBox="0.00 0.00 947.00 775.00" xmlns="http://www.w3.org/2000/svg" xmlns:xlink="http://www.w3.org/1999/xlink">
<g id="graph0" class="graph" transform="scale(1 1) rotate(0) translate(4 771.31)">
<title>G</title><style>.edge>path:hover{stroke-width:8}</style>
<polygon fill="#141414" stroke="none" points="-4,4 -4,-771.31 943.41,-771.31 943.41,4 -4,4"/>
<!-- fastapi -->
<g id="node1" class="node">
<title>fastapi</title><style>.edge>path:hover{stroke-width:8}</style>
<ellipse fill="#c24747" stroke="#ffffff" cx="255.89" cy="-283.35" rx="27.21" ry="18"/>
<text xml:space="preserve" text-anchor="middle" x="255.89" y="-279.85" font-family="Helvetica,sans-Serif" font-size="10.00" fill="#e0e0e0">fastapi</text>
</g>
<!-- src_main -->
<g id="node15" class="node">
<title>src_main</title><style>.edge>path:hover{stroke-width:8}</style>
<ellipse fill="#43679d" stroke="#ffffff" cx="486.34" cy="-283.35" rx="32.17" ry="18"/>
<text xml:space="preserve" text-anchor="middle" x="486.34" y="-279.85" font-family="Helvetica,sans-Serif" font-size="10.00" fill="#e0e0e0">src.main</text>
</g>
<!-- fastapi&#45;&gt;src_main -->
<g id="edge1" class="edge">
<title>fastapi&#45;&gt;src_main</title><style>.edge>path:hover{stroke-width:8}</style>
<path fill="none" stroke="#ffffff" d="M282.73,-286.93C304.19,-289.06 335.35,-290.18 361.55,-283.35"/>
</g>
<!-- tests_conftest -->
<g id="node17" class="node">
<title>tests_conftest</title><style>.edge>path:hover{stroke-width:8}</style>
<ellipse fill="#5f2e6b" stroke="#ffffff" cx="760.83" cy="-362.35" rx="45.7" ry="18"/>
<text xml:space="preserve" text-anchor="middle" x="760.83" y="-358.85" font-family="Helvetica,sans-Serif" font-size="10.00" fill="#e0e0e0">tests.conftest</text>
</g>
<!-- fastapi&#45;&gt;tests_conftest -->
<g id="edge2" class="edge">
<title>fastapi&#45;&gt;tests_conftest</title><style>.edge>path:hover{stroke-width:8}</style>
<path fill="none" stroke="#ffffff" d="M279.91,-274.25C328.91,-256.31 446.33,-221.09 535.65,-256.35 585.88,-276.18 571,-331.27 624.39,-339.35"/>
</g>
<!-- fastapi_testclient -->
<g id="node2" class="node">
<title>fastapi_testclient</title><style>.edge>path:hover{stroke-width:8}</style>
<ellipse fill="#b65353" stroke="#ffffff" cx="486.34" cy="-342.35" rx="39.42" ry="22.63"/>
<text xml:space="preserve" text-anchor="middle" x="486.34" y="-344.85" font-family="Helvetica,sans-Serif" font-size="10.00" fill="#e0e0e0">fastapi.</text>
<text xml:space="preserve" text-anchor="middle" x="486.34" y="-332.85" font-family="Helvetica,sans-Serif" font-size="10.00" fill="#e0e0e0">testclient</text>
</g>
<!-- fastapi_testclient&#45;&gt;tests_conftest -->
<g id="edge3" class="edge">
<title>fastapi_testclient&#45;&gt;tests_conftest</title><style>.edge>path:hover{stroke-width:8}</style>
<path fill="none" stroke="#ffffff" d="M525.38,-338.04C553.01,-335.75 591.21,-334.33 624.39,-339.35"/>
</g>
<!-- logging -->
<g id="node3" class="node">
<title>logging</title><style>.edge>path:hover{stroke-width:8}</style>
<ellipse fill="#c29147" stroke="#ffffff" cx="255.89" cy="-645.35" rx="28.11" ry="18"/>
<text xml:space="preserve" text-anchor="middle" x="255.89" y="-641.85" font-family="Helvetica,sans-Serif" font-size="10.00" fill="#e0e0e0">logging</text>
</g>
<!-- src_helpers_logging_setup -->
<g id="node14" class="node">
<title>src_helpers_logging_setup</title><style>.edge>path:hover{stroke-width:8}</style>
<ellipse fill="#3d5e8f" stroke="#ffffff" cx="625.39" cy="-620.35" rx="53.74" ry="31.11"/>
<text xml:space="preserve" text-anchor="middle" x="625.39" y="-628.85" font-family="Helvetica,sans-Serif" font-size="10.00" fill="#e0e0e0">src.</text>
<text xml:space="preserve" text-anchor="middle" x="625.39" y="-616.85" font-family="Helvetica,sans-Serif" font-size="10.00" fill="#e0e0e0">helpers.</text>
<text xml:space="preserve" text-anchor="middle" x="625.39" y="-604.85" font-family="Helvetica,sans-Serif" font-size="10.00" fill="#e0e0e0">logging_setup</text>
</g>
<!-- logging&#45;&gt;src_helpers_logging_setup -->
<g id="edge4" class="edge">
<title>logging&#45;&gt;src_helpers_logging_setup</title><style>.edge>path:hover{stroke-width:8}</style>
<path fill="none" stroke="#ffffff" d="M275.11,-631.83C295.2,-618.29 329,-599.43 361.55,-599.35"/>
</g>
<!-- tests_helpers_test_logging -->
<g id="node19" class="node">
<title>tests_helpers_test_logging</title><style>.edge>path:hover{stroke-width:8}</style>
<ellipse fill="#723781" stroke="#ffffff" cx="890.97" cy="-477.35" rx="48.44" ry="31.11"/>
<text xml:space="preserve" text-anchor="middle" x="890.97" y="-485.85" font-family="Helvetica,sans-Serif" font-size="10.00" fill="#e0e0e0">tests.</text>
<text xml:space="preserve" text-anchor="middle" x="890.97" y="-473.85" font-family="Helvetica,sans-Serif" font-size="10.00" fill="#e0e0e0">helpers.</text>
<text xml:space="preserve" text-anchor="middle" x="890.97" y="-461.85" font-family="Helvetica,sans-Serif" font-size="10.00" fill="#e0e0e0">test_logging</text>
</g>
<!-- logging&#45;&gt;tests_helpers_test_logging -->
<g id="edge5" class="edge">
<title>logging&#45;&gt;tests_helpers_test_logging</title><style>.edge>path:hover{stroke-width:8}</style>
<path fill="none" stroke="#ffffff" d="M280.07,-654.73C301.49,-663.59 334.06,-677.54 361.55,-691.35"/>
</g>
<!-- pathlib -->
<g id="node4" class="node">
<title>pathlib</title><style>.edge>path:hover{stroke-width:8}</style>
<ellipse fill="#aecc33" stroke="#ffffff" cx="255.89" cy="-191.35" rx="27" ry="18"/>
<text xml:space="preserve" text-anchor="middle" x="255.89" y="-187.85" font-family="Helvetica,sans-Serif" font-size="10.00" fill="#e0e0e0">pathlib</text>
</g>
<!-- pathlib&#45;&gt;src_main -->
<g id="edge6" class="edge">
<title>pathlib&#45;&gt;src_main</title><style>.edge>path:hover{stroke-width:8}</style>
<path fill="none" stroke="#ffffff" d="M265.06,-208.39C280.58,-238.06 316.83,-295.01 361.55,-283.35"/>
<path fill="none" stroke="#ffffff" d="M363.55,-283.35C389.45,-276.6 419.52,-276.53 443.31,-278.18"/>
<polygon fill="#aecc33" stroke="#ffffff" points="443,-281.67 453.26,-279.01 443.59,-274.69 443,-281.67"/>
</g>
<!-- pathlib&#45;&gt;tests_helpers_test_logging -->
<g id="edge7" class="edge">
<title>pathlib&#45;&gt;tests_helpers_test_logging</title><style>.edge>path:hover{stroke-width:8}</style>
<path fill="none" stroke="#ffffff" d="M280.58,-183.34C321.73,-170.16 409.28,-145.35 485.34,-145.35 485.34,-145.35 485.34,-145.35 626.39,-145.35 773.01,-145.35 851.06,-346.43 878.47,-435.61"/>
<polygon fill="#aecc33" stroke="#ffffff" points="875.05,-436.4 881.27,-444.97 881.75,-434.39 875.05,-436.4"/>
</g>
<!-- pytest -->
<g id="node5" class="node">
<title>pytest</title><style>.edge>path:hover{stroke-width:8}</style>
<ellipse fill="#60c247" stroke="#ffffff" cx="486.34" cy="-477.35" rx="27" ry="18"/>
<text xml:space="preserve" text-anchor="middle" x="486.34" y="-473.85" font-family="Helvetica,sans-Serif" font-size="10.00" fill="#e0e0e0">pytest</text>
</g>
<!-- pytest&#45;&gt;tests_conftest -->
<g id="edge8" class="edge">
<title>pytest&#45;&gt;tests_conftest</title><style>.edge>path:hover{stroke-width:8}</style>
<path fill="none" stroke="#ffffff" d="M498.58,-460.94C520.39,-429.18 566.74,-362.09 571.65,-358.35 591.48,-343.27 599.76,-335.63 624.39,-339.35"/>
</g>
<!-- pytest&#45;&gt;tests_helpers_test_logging -->
<g id="edge9" class="edge">
<title>pytest&#45;&gt;tests_helpers_test_logging</title><style>.edge>path:hover{stroke-width:8}</style>
<path fill="none" stroke="#ffffff" d="M513.71,-478.82C562.43,-481.21 669.8,-484.95 759.83,-477.35"/>
<path fill="none" stroke="#ffffff" d="M761.83,-477.35C784.37,-475.29 809.22,-474.86 831,-475.1"/>
<polygon fill="#60c247" stroke="#ffffff" points="830.84,-478.6 840.9,-475.27 830.96,-471.6 830.84,-478.6"/>
</g>
<!-- pytest_asyncio -->
<g id="node6" class="node">
<title>pytest_asyncio</title><style>.edge>path:hover{stroke-width:8}</style>
<ellipse fill="#53b67b" stroke="#ffffff" cx="486.34" cy="-191.35" rx="49.31" ry="18"/>
<text xml:space="preserve" text-anchor="middle" x="486.34" y="-187.85" font-family="Helvetica,sans-Serif" font-size="10.00" fill="#e0e0e0">pytest_asyncio</text>
</g>
<!-- pytest_asyncio&#45;&gt;tests_conftest -->
<g id="edge10" class="edge">
<title>pytest_asyncio&#45;&gt;tests_conftest</title><style>.edge>path:hover{stroke-width:8}</style>
<path fill="none" stroke="#ffffff" d="M626.39,-339.35C653.18,-343.41 682.89,-348.48 707.47,-352.82"/>
<polygon fill="#53b67b" stroke="#ffffff" points="706.78,-356.25 717.24,-354.56 708,-349.36 706.78,-356.25"/>
<path fill="none" stroke="#ffffff" d="M513.59,-206.47C521.1,-211.38 529.03,-217.17 535.65,-223.35 583.08,-267.67 560.21,-329.64 624.39,-339.35"/>
</g>
<!-- sqlalchemy -->
<g id="node7" class="node">
<title>sqlalchemy</title><style>.edge>path:hover{stroke-width:8}</style>
<ellipse fill="#24d0d0" stroke="#ffffff" cx="138.86" cy="-131.35" rx="39.39" ry="18"/>
<text xml:space="preserve" text-anchor="middle" x="138.86" y="-127.85" font-family="Helvetica,sans-Serif" font-size="10.00" fill="#e0e0e0">sqlalchemy</text>
</g>
<!-- sqlalchemy&#45;&gt;tests_conftest -->
<g id="edge11" class="edge">
<title>sqlalchemy&#45;&gt;tests_conftest</title><style>.edge>path:hover{stroke-width:8}</style>
<path fill="none" stroke="#ffffff" d="M256.89,-69.35C287.02,-64.63 293.8,-79.56 324.06,-83.35 417.39,-95.07 441.73,-93.63 535.65,-88.35 575.28,-86.13 593.26,-53.73 624.39,-78.35"/>
</g>
<!-- tests_utils_db_config -->
<g id="node21" class="node">
<title>tests_utils_db_config</title><style>.edge>path:hover{stroke-width:8}</style>
<ellipse fill="#993ab0" stroke="#ffffff" cx="486.34" cy="-48.35" rx="41.01" ry="31.11"/>
<text xml:space="preserve" text-anchor="middle" x="486.34" y="-56.85" font-family="Helvetica,sans-Serif" font-size="10.00" fill="#e0e0e0">tests.</text>
<text xml:space="preserve" text-anchor="middle" x="486.34" y="-44.85" font-family="Helvetica,sans-Serif" font-size="10.00" fill="#e0e0e0">utils.</text>
<text xml:space="preserve" text-anchor="middle" x="486.34" y="-32.85" font-family="Helvetica,sans-Serif" font-size="10.00" fill="#e0e0e0">db_config</text>
</g>
<!-- sqlalchemy&#45;&gt;tests_utils_db_config -->
<g id="edge12" class="edge">
<title>sqlalchemy&#45;&gt;tests_utils_db_config</title><style>.edge>path:hover{stroke-width:8}</style>
<path fill="none" stroke="#ffffff" d="M256.89,-69.35C302.84,-62.15 315.72,-77.32 361.55,-69.35"/>
<path fill="none" stroke="#ffffff" d="M159.11,-115.62C180.81,-99.23 217.91,-75.15 254.89,-69.35"/>
<path fill="none" stroke="#ffffff" d="M363.55,-69.35C386.95,-65.29 412.89,-60.81 434.79,-57.04"/>
<polygon fill="#24d0d0" stroke="#ffffff" points="435.09,-60.54 444.35,-55.39 433.9,-53.64 435.09,-60.54"/>
</g>
<!-- sqlalchemy_ext -->
<g id="node8" class="node">
<title>sqlalchemy_ext</title><style>.edge>path:hover{stroke-width:8}</style>
<ellipse fill="#40bfc0" stroke="#ffffff" cx="138.86" cy="-31.35" rx="48.86" ry="18"/>
<text xml:space="preserve" text-anchor="middle" x="138.86" y="-27.85" font-family="Helvetica,sans-Serif" font-size="10.00" fill="#e0e0e0">sqlalchemy.ext</text>
</g>
<!-- sqlalchemy_ext&#45;&gt;tests_conftest -->
<g id="edge13" class="edge">
<title>sqlalchemy_ext&#45;&gt;tests_conftest</title><style>.edge>path:hover{stroke-width:8}</style>
<path fill="none" stroke="#ffffff" d="M626.39,-78.35C708.28,-145.73 742.79,-274.84 754.62,-332.85"/>
<polygon fill="#40bfc0" stroke="#ffffff" points="751.18,-333.47 756.53,-342.62 758.05,-332.13 751.18,-333.47"/>
<path fill="none" stroke="#ffffff" d="M363.55,-31.35C397.73,-29.63 403.2,-13.53 437.03,-8.35 480.36,-1.73 494.24,6.01 535.65,-8.35 583.11,-24.82 585.6,-46.44 624.39,-78.35"/>
<path fill="none" stroke="#ffffff" d="M187.87,-31.92C232.77,-32.31 301.71,-32.57 361.55,-31.35"/>
</g>
<!-- sqlalchemy_ext&#45;&gt;tests_utils_db_config -->
<g id="edge14" class="edge">
<title>sqlalchemy_ext&#45;&gt;tests_utils_db_config</title><style>.edge>path:hover{stroke-width:8}</style>
<path fill="none" stroke="#ffffff" d="M363.55,-31.35C387.42,-30.15 413.72,-33.25 435.74,-37.13"/>
<polygon fill="#40bfc0" stroke="#ffffff" points="434.88,-40.52 445.35,-38.92 436.16,-33.64 434.88,-40.52"/>
</g>
<!-- sqlalchemy_ext_asyncio -->
<g id="node9" class="node">
<title>sqlalchemy_ext_asyncio</title><style>.edge>path:hover{stroke-width:8}</style>
<ellipse fill="#47c2c2" stroke="#ffffff" cx="138.86" cy="-289.35" rx="47.91" ry="31.11"/>
<text xml:space="preserve" text-anchor="middle" x="138.86" y="-297.85" font-family="Helvetica,sans-Serif" font-size="10.00" fill="#e0e0e0">sqlalchemy.</text>
<text xml:space="preserve" text-anchor="middle" x="138.86" y="-285.85" font-family="Helvetica,sans-Serif" font-size="10.00" fill="#e0e0e0">ext.</text>
<text xml:space="preserve" text-anchor="middle" x="138.86" y="-273.85" font-family="Helvetica,sans-Serif" font-size="10.00" fill="#e0e0e0">asyncio</text>
</g>
<!-- sqlalchemy_ext_asyncio&#45;&gt;tests_conftest -->
<g id="edge15" class="edge">
<title>sqlalchemy_ext_asyncio&#45;&gt;tests_conftest</title><style>.edge>path:hover{stroke-width:8}</style>
<path fill="none" stroke="#ffffff" d="M158.29,-318.23C178.14,-345.78 212.62,-384.39 254.89,-393.35"/>
<path fill="none" stroke="#ffffff" d="M256.89,-393.35C378.37,-419.13 415.12,-404.25 535.65,-374.35 576.8,-364.15 582.43,-333.29 624.39,-339.35"/>
</g>
<!-- sqlalchemy_ext_asyncio&#45;&gt;tests_utils_db_config -->
<g id="edge16" class="edge">
<title>sqlalchemy_ext_asyncio&#45;&gt;tests_utils_db_config</title><style>.edge>path:hover{stroke-width:8}</style>
<path fill="none" stroke="#ffffff" d="M154.56,-259.63C184.42,-203.82 258.18,-87.33 361.55,-69.35"/>
</g>
<!-- src -->
<g id="node10" class="node">
<title>src</title><style>.edge>path:hover{stroke-width:8}</style>
<ellipse fill="#166ff3" stroke="#ffffff" cx="255.89" cy="-463.35" rx="27" ry="18"/>
<text xml:space="preserve" text-anchor="middle" x="255.89" y="-459.85" font-family="Helvetica,sans-Serif" font-size="10.00" fill="#e0e0e0">src</text>
</g>
<!-- src&#45;&gt;tests_conftest -->
<g id="edge17" class="edge">
<title>src&#45;&gt;tests_conftest</title><style>.edge>path:hover{stroke-width:8}</style>
<path fill="none" stroke="#ffffff" d="M283.15,-462.54C304.33,-462.07 334.88,-461.85 361.55,-463.35"/>
<path fill="none" stroke="#ffffff" d="M363.55,-463.35C396.66,-465.22 404.32,-455.82 437.03,-450.35 544.46,-432.42 577.01,-450.23 679.13,-412.35 697.13,-405.68 715.46,-394.73 730.09,-384.77"/>
<polygon fill="#166ff3" stroke="#ffffff" points="731.72,-387.91 737.89,-379.3 727.69,-382.18 731.72,-387.91"/>
</g>
<!-- tests_helpers_config_test_config -->
<g id="node18" class="node">
<title>tests_helpers_config_test_config</title><style>.edge>path:hover{stroke-width:8}</style>
<ellipse fill="#8b439d" stroke="#ffffff" cx="760.83" cy="-545.35" rx="45.25" ry="39.6"/>
<text xml:space="preserve" text-anchor="middle" x="760.83" y="-559.85" font-family="Helvetica,sans-Serif" font-size="10.00" fill="#e0e0e0">tests.</text>
<text xml:space="preserve" text-anchor="middle" x="760.83" y="-547.85" font-family="Helvetica,sans-Serif" font-size="10.00" fill="#e0e0e0">helpers.</text>
<text xml:space="preserve" text-anchor="middle" x="760.83" y="-535.85" font-family="Helvetica,sans-Serif" font-size="10.00" fill="#e0e0e0">config.</text>
<text xml:space="preserve" text-anchor="middle" x="760.83" y="-523.85" font-family="Helvetica,sans-Serif" font-size="10.00" fill="#e0e0e0">test_config</text>
</g>
<!-- src&#45;&gt;tests_helpers_config_test_config -->
<g id="edge18" class="edge">
<title>src&#45;&gt;tests_helpers_config_test_config</title><style>.edge>path:hover{stroke-width:8}</style>
<path fill="none" stroke="#ffffff" d="M626.39,-523.35C652.82,-522.19 681.83,-526.31 706.03,-531.29"/>
<polygon fill="#166ff3" stroke="#ffffff" points="705.14,-534.68 715.66,-533.38 706.63,-527.84 705.14,-534.68"/>
</g>
<!-- src&#45;&gt;tests_helpers_test_logging -->
<g id="edge19" class="edge">
<title>src&#45;&gt;tests_helpers_test_logging</title><style>.edge>path:hover{stroke-width:8}</style>
<path fill="none" stroke="#ffffff" d="M626.39,-523.35C689.06,-520.58 697.36,-483.08 759.83,-477.35"/>
<path fill="none" stroke="#ffffff" d="M363.55,-463.35C400.81,-466.5 401.59,-492.42 437.03,-504.35 516.35,-531.06 540.78,-527.05 624.39,-523.35"/>
</g>
<!-- src_helpers -->
<g id="node11" class="node">
<title>src_helpers</title><style>.edge>path:hover{stroke-width:8}</style>
<ellipse fill="#2f73db" stroke="#ffffff" cx="362.55" cy="-645.35" rx="38.49" ry="18"/>
<text xml:space="preserve" text-anchor="middle" x="362.55" y="-641.85" font-family="Helvetica,sans-Serif" font-size="10.00" fill="#e0e0e0">src.helpers</text>
</g>
<!-- src_helpers&#45;&gt;tests_helpers_config_test_config -->
<g id="edge20" class="edge">
<title>src_helpers&#45;&gt;tests_helpers_config_test_config</title><style>.edge>path:hover{stroke-width:8}</style>
<path fill="none" stroke="#ffffff" d="M626.39,-717.35C684.01,-700.61 721.49,-638.47 741.64,-593.69"/>
<polygon fill="#2f73db" stroke="#ffffff" points="744.79,-595.24 745.56,-584.68 738.36,-592.46 744.79,-595.24"/>
<path fill="none" stroke="#ffffff" d="M382.84,-661.04C400.46,-675.03 425.49,-693.97 437.03,-698.35 515.28,-728.07 544.02,-740.72 624.39,-717.35"/>
</g>
<!-- src_helpers&#45;&gt;tests_helpers_test_logging -->
<g id="edge21" class="edge">
<title>src_helpers&#45;&gt;tests_helpers_test_logging</title><style>.edge>path:hover{stroke-width:8}</style>
<path fill="none" stroke="#ffffff" d="M626.39,-717.35C683.58,-701.64 706.82,-743.94 759.83,-717.35"/>
</g>
<!-- src_helpers_config -->
<g id="node12" class="node">
<title>src_helpers_config</title><style>.edge>path:hover{stroke-width:8}</style>
<ellipse fill="#3b76ce" stroke="#ffffff" cx="486.34" cy="-658.35" rx="35.71" ry="31.11"/>
<text xml:space="preserve" text-anchor="middle" x="486.34" y="-666.85" font-family="Helvetica,sans-Serif" font-size="10.00" fill="#e0e0e0">src.</text>
<text xml:space="preserve" text-anchor="middle" x="486.34" y="-654.85" font-family="Helvetica,sans-Serif" font-size="10.00" fill="#e0e0e0">helpers.</text>
<text xml:space="preserve" text-anchor="middle" x="486.34" y="-642.85" font-family="Helvetica,sans-Serif" font-size="10.00" fill="#e0e0e0">config</text>
</g>
<!-- src_helpers_config&#45;&gt;src_helpers_logging_setup -->
<g id="edge22" class="edge">
<title>src_helpers_config&#45;&gt;src_helpers_logging_setup</title><style>.edge>path:hover{stroke-width:8}</style>
<path fill="none" stroke="#ffffff" d="M520.87,-649.06C534.32,-645.33 550.24,-640.92 565.5,-636.68"/>
<polygon fill="#3b76ce" stroke="#ffffff" points="566.3,-640.09 575,-634.05 564.43,-633.35 566.3,-640.09"/>
</g>
<!-- src_helpers_config&#45;&gt;tests_helpers_config_test_config -->
<g id="edge23" class="edge">
<title>src_helpers_config&#45;&gt;tests_helpers_config_test_config</title><style>.edge>path:hover{stroke-width:8}</style>
<path fill="none" stroke="#ffffff" d="M520.73,-667.72C560.81,-677.02 628.91,-686.47 679.13,-660.35 706.52,-646.11 726.55,-617.85 739.81,-592.9"/>
<polygon fill="#3b76ce" stroke="#ffffff" points="742.83,-594.68 744.22,-584.18 736.58,-591.52 742.83,-594.68"/>
</g>
<!-- src_helpers_config_config -->
<g id="node13" class="node">
<title>src_helpers_config_config</title><style>.edge>path:hover{stroke-width:8}</style>
<ellipse fill="#3a69b0" stroke="#ffffff" cx="362.55" cy="-531.35" rx="35.71" ry="39.6"/>
<text xml:space="preserve" text-anchor="middle" x="362.55" y="-545.85" font-family="Helvetica,sans-Serif" font-size="10.00" fill="#e0e0e0">src.</text>
<text xml:space="preserve" text-anchor="middle" x="362.55" y="-533.85" font-family="Helvetica,sans-Serif" font-size="10.00" fill="#e0e0e0">helpers.</text>
<text xml:space="preserve" text-anchor="middle" x="362.55" y="-521.85" font-family="Helvetica,sans-Serif" font-size="10.00" fill="#e0e0e0">config.</text>
<text xml:space="preserve" text-anchor="middle" x="362.55" y="-509.85" font-family="Helvetica,sans-Serif" font-size="10.00" fill="#e0e0e0">config</text>
</g>
<!-- src_helpers_config_config&#45;&gt;src_helpers_logging_setup -->
<g id="edge24" class="edge">
<title>src_helpers_config_config&#45;&gt;src_helpers_logging_setup</title><style>.edge>path:hover{stroke-width:8}</style>
<path fill="none" stroke="#ffffff" d="M487.34,-561.35C517.76,-568.27 549.88,-581.73 575.38,-594.05"/>
<polygon fill="#3a69b0" stroke="#ffffff" points="573.64,-597.1 584.16,-598.39 576.74,-590.82 573.64,-597.1"/>
</g>
<!-- src_helpers_config_config&#45;&gt;tests_helpers_config_test_config -->
<g id="edge25" class="edge">
<title>src_helpers_config_config&#45;&gt;tests_helpers_config_test_config</title><style>.edge>path:hover{stroke-width:8}</style>
<path fill="none" stroke="#ffffff" d="M397.85,-540.16C422.21,-546.32 455.72,-554.62 485.34,-561.35"/>
<path fill="none" stroke="#ffffff" d="M487.34,-561.35C561.7,-578.25 650.24,-567.58 705.76,-557.33"/>
<polygon fill="#3a69b0" stroke="#ffffff" points="706.1,-560.83 715.26,-555.51 704.78,-553.95 706.1,-560.83"/>
</g>
<!-- src_helpers_logging_setup&#45;&gt;tests_helpers_test_logging -->
<g id="edge26" class="edge">
<title>src_helpers_logging_setup&#45;&gt;tests_helpers_test_logging</title><style>.edge>path:hover{stroke-width:8}</style>
<path fill="none" stroke="#ffffff" d="M644.35,-649.78C668.86,-685.94 714.9,-739.89 759.83,-717.35"/>
<path fill="none" stroke="#ffffff" d="M761.83,-717.35C837.24,-679.54 869.8,-577.68 882.59,-519.54"/>
<polygon fill="#3d5e8f" stroke="#ffffff" points="885.96,-520.51 884.59,-510.01 879.11,-519.08 885.96,-520.51"/>
</g>
<!-- src_main&#45;&gt;tests_conftest -->
<g id="edge27" class="edge">
<title>src_main&#45;&gt;tests_conftest</title><style>.edge>path:hover{stroke-width:8}</style>
<path fill="none" stroke="#ffffff" d="M509.19,-296.11C535.47,-310.53 581.44,-332.85 624.39,-339.35"/>
</g>
<!-- structlog -->
<g id="node16" class="node">
<title>structlog</title><style>.edge>path:hover{stroke-width:8}</style>
<ellipse fill="#4a26d9" stroke="#ffffff" cx="255.89" cy="-554.35" rx="32.17" ry="18"/>
<text xml:space="preserve" text-anchor="middle" x="255.89" y="-550.85" font-family="Helvetica,sans-Serif" font-size="10.00" fill="#e0e0e0">structlog</text>
</g>
<!-- structlog&#45;&gt;src_helpers_logging_setup -->
<g id="edge28" class="edge">
<title>structlog&#45;&gt;src_helpers_logging_setup</title><style>.edge>path:hover{stroke-width:8}</style>
<path fill="none" stroke="#ffffff" d="M363.55,-599.35C431.27,-599.2 508.56,-606.34 561.32,-612.34"/>
<polygon fill="#4a26d9" stroke="#ffffff" points="560.68,-615.79 571.02,-613.46 561.49,-608.84 560.68,-615.79"/>
<path fill="none" stroke="#ffffff" d="M276.66,-568.29C296.94,-581.25 329.91,-598.65 361.55,-599.35"/>
</g>
<!-- structlog&#45;&gt;src_main -->
<g id="edge29" class="edge">
<title>structlog&#45;&gt;src_main</title><style>.edge>path:hover{stroke-width:8}</style>
<path fill="none" stroke="#ffffff" d="M266.03,-536.94C272.55,-524.21 281.32,-506.42 288.06,-490.35 325.82,-400.33 267.08,-307.98 361.55,-283.35"/>
</g>
<!-- structlog&#45;&gt;tests_helpers_test_logging -->
<g id="edge30" class="edge">
<title>structlog&#45;&gt;tests_helpers_test_logging</title><style>.edge>path:hover{stroke-width:8}</style>
<path fill="none" stroke="#ffffff" d="M265.19,-571.67C279.31,-600.6 308.02,-657.07 324.06,-672.35 337.58,-685.24 345.14,-682.43 361.55,-691.35"/>
<path fill="none" stroke="#ffffff" d="M363.55,-691.35C518.59,-775.72 602.06,-796.48 759.83,-717.35"/>
</g>
<!-- tests_utils -->
<g id="node20" class="node">
<title>tests_utils</title><style>.edge>path:hover{stroke-width:8}</style>
<ellipse fill="#a947c2" stroke="#ffffff" cx="625.39" cy="-385.35" rx="35.33" ry="18"/>
<text xml:space="preserve" text-anchor="middle" x="625.39" y="-381.85" font-family="Helvetica,sans-Serif" font-size="10.00" fill="#e0e0e0">tests.utils</text>
</g>
<!-- tests_utils&#45;&gt;tests_conftest -->
<g id="edge31" class="edge">
<title>tests_utils&#45;&gt;tests_conftest</title><style>.edge>path:hover{stroke-width:8}</style>
<path fill="none" stroke="#ffffff" d="M659.38,-379.67C673.93,-377.16 691.38,-374.15 707.62,-371.35"/>
<polygon fill="#a947c2" stroke="#ffffff" points="707.88,-374.86 717.14,-369.71 706.69,-367.96 707.88,-374.86"/>
</g>
<!-- tests_utils_db_config&#45;&gt;tests_conftest -->
<g id="edge32" class="edge">
<title>tests_utils_db_config&#45;&gt;tests_conftest</title><style>.edge>path:hover{stroke-width:8}</style>
<path fill="none" stroke="#ffffff" d="M527.6,-48.08C557.23,-49.87 596.98,-56.67 624.39,-78.35"/>
</g>
<!-- typing -->
<g id="node22" class="node">
<title>typing</title><style>.edge>path:hover{stroke-width:8}</style>
<ellipse fill="#ce3b93" stroke="#ffffff" cx="27" cy="-262.35" rx="27" ry="18"/>
<text xml:space="preserve" text-anchor="middle" x="27" y="-258.85" font-family="Helvetica,sans-Serif" font-size="10.00" fill="#e0e0e0">typing</text>
</g>
<!-- typing&#45;&gt;sqlalchemy -->
<g id="edge33" class="edge">
<title>typing&#45;&gt;sqlalchemy</title><style>.edge>path:hover{stroke-width:8}</style>
<path fill="none" stroke="#ffffff" d="M41.25,-246.55C59.94,-224.27 94.23,-183.38 116.53,-156.79"/>
<polygon fill="#ce3b93" stroke="#ffffff" points="119.15,-159.11 122.89,-149.2 113.79,-154.61 119.15,-159.11"/>
</g>
<!-- typing&#45;&gt;tests_conftest -->
<g id="edge34" class="edge">
<title>typing&#45;&gt;tests_conftest</title><style>.edge>path:hover{stroke-width:8}</style>
<path fill="none" stroke="#ffffff" d="M41.31,-277.99C62.09,-302.45 103.44,-351.33 137.86,-393.35"/>
<path fill="none" stroke="#ffffff" d="M139.86,-393.35C172.25,-432.91 205.56,-379.94 254.89,-393.35"/>
</g>
<!-- typing&#45;&gt;tests_helpers_test_logging -->
<g id="edge35" class="edge">
<title>typing&#45;&gt;tests_helpers_test_logging</title><style>.edge>path:hover{stroke-width:8}</style>
<path fill="none" stroke="#ffffff" d="M139.86,-393.35C221.9,-493.52 125.35,-588.16 223.72,-672.35 270.7,-712.56 306.29,-663.59 361.55,-691.35"/>
</g>
</g>
</svg>

