<?xml version="1.0" encoding="UTF-8" standalone="no"?>
<!DOCTYPE svg PUBLIC "-//W3C//DTD SVG 1.1//EN"
 "http://www.w3.org/Graphics/SVG/1.1/DTD/svg11.dtd">
<!-- Generated by graphviz version 15.0.0 (20260523.1842)
 -->
<!-- Title: G Pages: 1 -->
<svg style="background-color:#141414" width="1319pt" height="1256pt"
 viewBox="0.00 0.00 1319.00 1256.00" xmlns="http://www.w3.org/2000/svg" xmlns:xlink="http://www.w3.org/1999/xlink">
<g id="graph0" class="graph" transform="scale(1 1) rotate(0) translate(4 1252.02)">
<title>G</title><style>.edge>path:hover{stroke-width:8}</style>
<polygon fill="#141414" stroke="none" points="-4,4 -4,-1252.02 1315.31,-1252.02 1315.31,4 -4,4"/>
<!-- fastapi -->
<g id="node1" class="node">
<title>fastapi</title><style>.edge>path:hover{stroke-width:8}</style>
<polygon fill="#5a5a5a" stroke="#ffffff" points="156.17,-650 102.17,-650 102.17,-614 156.17,-614 156.17,-650"/>
<text xml:space="preserve" text-anchor="middle" x="129.17" y="-628.5" font-family="Helvetica,sans-Serif" font-size="10.00" fill="#e0e0e0">fastapi</text>
</g>
<!-- src_api_router -->
<g id="node15" class="node">
<title>src_api_router</title><style>.edge>path:hover{stroke-width:8}</style>
<ellipse fill="#2b4e82" stroke="#ffffff" cx="1066.81" cy="-1108" rx="43.9" ry="18"/>
<text xml:space="preserve" text-anchor="middle" x="1066.81" y="-1104.5" font-family="Helvetica,sans-Serif" font-size="10.00" fill="#e0e0e0">src.api.router</text>
</g>
<!-- fastapi&#45;&gt;src_api_router -->
<g id="edge1" class="edge">
<title>fastapi&#45;&gt;src_api_router</title><style>.edge>path:hover{stroke-width:8}</style>
<path fill="none" stroke="#ffffff" d="M708.97,-1063C770.76,-1048.36 792.44,-1056.45 850.57,-1082 869.64,-1090.38 868.81,-1101.11 886.57,-1112 904.81,-1123.19 909.45,-1129.78 930.82,-1131"/>
<path fill="none" stroke="#ffffff" d="M932.82,-1131C961.75,-1132.27 993.74,-1126.95 1019.09,-1121.11"/>
<polygon fill="#5a5a5a" stroke="#ffffff" points="1019.87,-1124.52 1028.77,-1118.77 1018.22,-1117.72 1019.87,-1124.52"/>
</g>
<!-- src_api_routes_auth -->
<g id="node17" class="node">
<title>src_api_routes_auth</title><style>.edge>path:hover{stroke-width:8}</style>
<ellipse fill="#3865a8" stroke="#ffffff" cx="814.86" cy="-1131" rx="32.53" ry="39.6"/>
<text xml:space="preserve" text-anchor="middle" x="814.86" y="-1145.5" font-family="Helvetica,sans-Serif" font-size="10.00" fill="#e0e0e0">src.</text>
<text xml:space="preserve" text-anchor="middle" x="814.86" y="-1133.5" font-family="Helvetica,sans-Serif" font-size="10.00" fill="#e0e0e0">api.</text>
<text xml:space="preserve" text-anchor="middle" x="814.86" y="-1121.5" font-family="Helvetica,sans-Serif" font-size="10.00" fill="#e0e0e0">routes.</text>
<text xml:space="preserve" text-anchor="middle" x="814.86" y="-1109.5" font-family="Helvetica,sans-Serif" font-size="10.00" fill="#e0e0e0">auth</text>
</g>
<!-- fastapi&#45;&gt;src_api_routes_auth -->
<g id="edge2" class="edge">
<title>fastapi&#45;&gt;src_api_routes_auth</title><style>.edge>path:hover{stroke-width:8}</style>
<path fill="none" stroke="#ffffff" d="M198.34,-1097C226.49,-1125.71 201.18,-1157.27 234.34,-1180 407.75,-1298.85 499.23,-1231.24 706.97,-1199"/>
<path fill="none" stroke="#ffffff" d="M708.97,-1199C734.81,-1192.41 760.02,-1176.48 779.24,-1161.69"/>
<polygon fill="#5a5a5a" stroke="#ffffff" points="781.35,-1164.48 786.99,-1155.51 776.99,-1159.01 781.35,-1164.48"/>
</g>
<!-- src_api_routes_health -->
<g id="node18" class="node">
<title>src_api_routes_health</title><style>.edge>path:hover{stroke-width:8}</style>
<ellipse fill="#3865a8" stroke="#ffffff" cx="814.86" cy="-898" rx="32.53" ry="39.6"/>
<text xml:space="preserve" text-anchor="middle" x="814.86" y="-912.5" font-family="Helvetica,sans-Serif" font-size="10.00" fill="#e0e0e0">src.</text>
<text xml:space="preserve" text-anchor="middle" x="814.86" y="-900.5" font-family="Helvetica,sans-Serif" font-size="10.00" fill="#e0e0e0">api.</text>
<text xml:space="preserve" text-anchor="middle" x="814.86" y="-888.5" font-family="Helvetica,sans-Serif" font-size="10.00" fill="#e0e0e0">routes.</text>
<text xml:space="preserve" text-anchor="middle" x="814.86" y="-876.5" font-family="Helvetica,sans-Serif" font-size="10.00" fill="#e0e0e0">health</text>
</g>
<!-- fastapi&#45;&gt;src_api_routes_health -->
<g id="edge3" class="edge">
<title>fastapi&#45;&gt;src_api_routes_health</title><style>.edge>path:hover{stroke-width:8}</style>
<path fill="none" stroke="#ffffff" d="M427.32,-1097C567.91,-1070.03 712.36,-973.78 777.78,-925.72"/>
<polygon fill="#5a5a5a" stroke="#ffffff" points="779.68,-928.67 785.63,-919.9 775.51,-923.04 779.68,-928.67"/>
<path fill="none" stroke="#ffffff" d="M198.34,-1097C234.51,-1132.15 375.06,-1101.3 425.32,-1097"/>
</g>
<!-- src_api_routes_posts -->
<g id="node19" class="node">
<title>src_api_routes_posts</title><style>.edge>path:hover{stroke-width:8}</style>
<ellipse fill="#305791" stroke="#ffffff" cx="814.86" cy="-693" rx="32.53" ry="39.6"/>
<text xml:space="preserve" text-anchor="middle" x="814.86" y="-707.5" font-family="Helvetica,sans-Serif" font-size="10.00" fill="#e0e0e0">src.</text>
<text xml:space="preserve" text-anchor="middle" x="814.86" y="-695.5" font-family="Helvetica,sans-Serif" font-size="10.00" fill="#e0e0e0">api.</text>
<text xml:space="preserve" text-anchor="middle" x="814.86" y="-683.5" font-family="Helvetica,sans-Serif" font-size="10.00" fill="#e0e0e0">routes.</text>
<text xml:space="preserve" text-anchor="middle" x="814.86" y="-671.5" font-family="Helvetica,sans-Serif" font-size="10.00" fill="#e0e0e0">posts</text>
</g>
<!-- fastapi&#45;&gt;src_api_routes_posts -->
<g id="edge4" class="edge">
<title>fastapi&#45;&gt;src_api_routes_posts</title><style>.edge>path:hover{stroke-width:8}</style>
<path fill="none" stroke="#ffffff" d="M131.24,-650.23C136.31,-733.14 159.25,-1071.6 197.34,-1097"/>
<path fill="none" stroke="#ffffff" d="M198.34,-1097C220.41,-1111.71 358.96,-957.83 381.59,-944 418.44,-921.47 431.83,-924.11 471.04,-906 577.47,-856.83 601.43,-839.06 706.97,-788"/>
</g>
<!-- src_api_routes_root -->
<g id="node20" class="node">
<title>src_api_routes_root</title><style>.edge>path:hover{stroke-width:8}</style>
<ellipse fill="#3865a8" stroke="#ffffff" cx="814.86" cy="-995" rx="32.53" ry="39.6"/>
<text xml:space="preserve" text-anchor="middle" x="814.86" y="-1009.5" font-family="Helvetica,sans-Serif" font-size="10.00" fill="#e0e0e0">src.</text>
<text xml:space="preserve" text-anchor="middle" x="814.86" y="-997.5" font-family="Helvetica,sans-Serif" font-size="10.00" fill="#e0e0e0">api.</text>
<text xml:space="preserve" text-anchor="middle" x="814.86" y="-985.5" font-family="Helvetica,sans-Serif" font-size="10.00" fill="#e0e0e0">routes.</text>
<text xml:space="preserve" text-anchor="middle" x="814.86" y="-973.5" font-family="Helvetica,sans-Serif" font-size="10.00" fill="#e0e0e0">root</text>
</g>
<!-- fastapi&#45;&gt;src_api_routes_root -->
<g id="edge5" class="edge">
<title>fastapi&#45;&gt;src_api_routes_root</title><style>.edge>path:hover{stroke-width:8}</style>
<path fill="none" stroke="#ffffff" d="M708.97,-1063C734.63,-1055.72 759.82,-1039.76 779.09,-1025.13"/>
<polygon fill="#5a5a5a" stroke="#ffffff" points="781.15,-1027.96 786.85,-1019.03 776.83,-1022.46 781.15,-1027.96"/>
<path fill="none" stroke="#ffffff" d="M427.32,-1097C551.38,-1080.12 586.52,-1097.17 706.97,-1063"/>
</g>
<!-- src_api_routes_users -->
<g id="node21" class="node">
<title>src_api_routes_users</title><style>.edge>path:hover{stroke-width:8}</style>
<ellipse fill="#2e528a" stroke="#ffffff" cx="814.86" cy="-596" rx="32.53" ry="39.6"/>
<text xml:space="preserve" text-anchor="middle" x="814.86" y="-610.5" font-family="Helvetica,sans-Serif" font-size="10.00" fill="#e0e0e0">src.</text>
<text xml:space="preserve" text-anchor="middle" x="814.86" y="-598.5" font-family="Helvetica,sans-Serif" font-size="10.00" fill="#e0e0e0">api.</text>
<text xml:space="preserve" text-anchor="middle" x="814.86" y="-586.5" font-family="Helvetica,sans-Serif" font-size="10.00" fill="#e0e0e0">routes.</text>
<text xml:space="preserve" text-anchor="middle" x="814.86" y="-574.5" font-family="Helvetica,sans-Serif" font-size="10.00" fill="#e0e0e0">users</text>
</g>
<!-- fastapi&#45;&gt;src_api_routes_users -->
<g id="edge6" class="edge">
<title>fastapi&#45;&gt;src_api_routes_users</title><style>.edge>path:hover{stroke-width:8}</style>
<path fill="none" stroke="#ffffff" d="M156.59,-636.14C231.8,-647.99 453.46,-683.34 636.79,-717 668.08,-722.74 678.09,-744.31 706.97,-731"/>
<path fill="none" stroke="#ffffff" d="M708.97,-731C725.5,-722.55 730.65,-720.72 743.15,-707 764.87,-683.16 761.68,-671.11 779.15,-644 781.25,-640.75 783.48,-637.41 785.76,-634.09"/>
<polygon fill="#5a5a5a" stroke="#ffffff" points="788.5,-636.28 791.37,-626.08 782.77,-632.26 788.5,-636.28"/>
</g>
<!-- src_helpers_exceptions -->
<g id="node25" class="node">
<title>src_helpers_exceptions</title><style>.edge>path:hover{stroke-width:8}</style>
<ellipse fill="#2f67bc" stroke="#ffffff" cx="426.32" cy="-462" rx="44.72" ry="31.11"/>
<text xml:space="preserve" text-anchor="middle" x="426.32" y="-470.5" font-family="Helvetica,sans-Serif" font-size="10.00" fill="#e0e0e0">src.</text>
<text xml:space="preserve" text-anchor="middle" x="426.32" y="-458.5" font-family="Helvetica,sans-Serif" font-size="10.00" fill="#e0e0e0">helpers.</text>
<text xml:space="preserve" text-anchor="middle" x="426.32" y="-446.5" font-family="Helvetica,sans-Serif" font-size="10.00" fill="#e0e0e0">exceptions</text>
</g>
<!-- fastapi&#45;&gt;src_helpers_exceptions -->
<g id="edge7" class="edge">
<title>fastapi&#45;&gt;src_helpers_exceptions</title><style>.edge>path:hover{stroke-width:8}</style>
<path fill="none" stroke="#ffffff" d="M156.62,-616.76C207.42,-587.51 319.09,-523.18 381.29,-487.36"/>
<polygon fill="#5a5a5a" stroke="#ffffff" points="382.97,-490.43 389.89,-482.41 379.47,-484.37 382.97,-490.43"/>
</g>
<!-- src_main -->
<g id="node28" class="node">
<title>src_main</title><style>.edge>path:hover{stroke-width:8}</style>
<ellipse fill="#2e466b" stroke="#ffffff" cx="1279.14" cy="-689" rx="32.17" ry="18"/>
<text xml:space="preserve" text-anchor="middle" x="1279.14" y="-685.5" font-family="Helvetica,sans-Serif" font-size="10.00" fill="#e0e0e0">src.main</text>
</g>
<!-- fastapi&#45;&gt;src_main -->
<g id="edge8" class="edge">
<title>fastapi&#45;&gt;src_main</title><style>.edge>path:hover{stroke-width:8}</style>
<path fill="none" stroke="#ffffff" d="M708.97,-1199C915.11,-1146.43 1003.01,-1244.78 1182.76,-1131"/>
</g>
<!-- fastapi_responses -->
<g id="node2" class="node">
<title>fastapi_responses</title><style>.edge>path:hover{stroke-width:8}</style>
<polygon fill="#5a5a5a" stroke="#ffffff" points="61,-545 0,-545 0,-509 61,-509 61,-545"/>
<text xml:space="preserve" text-anchor="middle" x="30.5" y="-529.5" font-family="Helvetica,sans-Serif" font-size="10.00" fill="#e0e0e0">fastapi.</text>
<text xml:space="preserve" text-anchor="middle" x="30.5" y="-517.5" font-family="Helvetica,sans-Serif" font-size="10.00" fill="#e0e0e0">responses</text>
</g>
<!-- fastapi_responses&#45;&gt;fastapi -->
<g id="edge9" class="edge">
<title>fastapi_responses&#45;&gt;fastapi</title><style>.edge>path:hover{stroke-width:8}</style>
<path fill="none" stroke="#ffffff" d="M48.34,-545.29C63.56,-561.83 86.17,-586.38 103.45,-605.14"/>
<polygon fill="#5a5a5a" stroke="#ffffff" points="100.83,-607.47 110.18,-612.45 105.98,-602.73 100.83,-607.47"/>
</g>
<!-- fastapi_responses&#45;&gt;src_helpers_exceptions -->
<g id="edge10" class="edge">
<title>fastapi_responses&#45;&gt;src_helpers_exceptions</title><style>.edge>path:hover{stroke-width:8}</style>
<path fill="none" stroke="#ffffff" d="M130.17,-441C187.97,-400.5 222.75,-416.57 288.97,-441"/>
</g>
<!-- fastapi_responses&#45;&gt;src_main -->
<g id="edge11" class="edge">
<title>fastapi_responses&#45;&gt;src_main</title><style>.edge>path:hover{stroke-width:8}</style>
<path fill="none" stroke="#ffffff" d="M50.97,-508.59C70.13,-490.74 100.46,-463.17 128.17,-441"/>
<path fill="none" stroke="#ffffff" d="M572.92,-462C632.46,-464.04 647.45,-459.32 706.97,-462"/>
<path fill="none" stroke="#ffffff" d="M130.17,-441C248.65,-346.21 322.05,-393.27 471.04,-422 517.99,-431.05 523.13,-460.36 570.92,-462"/>
</g>
<!-- fastapi_security -->
<g id="node3" class="node">
<title>fastapi_security</title><style>.edge>path:hover{stroke-width:8}</style>
<ellipse fill="#b65353" stroke="#ffffff" cx="289.97" cy="-1148" rx="35.71" ry="22.63"/>
<text xml:space="preserve" text-anchor="middle" x="289.97" y="-1150.5" font-family="Helvetica,sans-Serif" font-size="10.00" fill="#e0e0e0">fastapi.</text>
<text xml:space="preserve" text-anchor="middle" x="289.97" y="-1138.5" font-family="Helvetica,sans-Serif" font-size="10.00" fill="#e0e0e0">security</text>
</g>
<!-- fastapi_security&#45;&gt;src_api_routes_auth -->
<g id="edge12" class="edge">
<title>fastapi_security&#45;&gt;src_api_routes_auth</title><style>.edge>path:hover{stroke-width:8}</style>
<path fill="none" stroke="#ffffff" d="M326.09,-1146.86C418.71,-1143.85 669.41,-1135.7 770.62,-1132.41"/>
<polygon fill="#b65353" stroke="#ffffff" points="770.52,-1135.91 780.41,-1132.09 770.3,-1128.91 770.52,-1135.91"/>
</g>
<!-- fastapi_staticfiles -->
<g id="node4" class="node">
<title>fastapi_staticfiles</title><style>.edge>path:hover{stroke-width:8}</style>
<ellipse fill="#b65353" stroke="#ffffff" cx="1066.81" cy="-1049" rx="41.01" ry="22.63"/>
<text xml:space="preserve" text-anchor="middle" x="1066.81" y="-1051.5" font-family="Helvetica,sans-Serif" font-size="10.00" fill="#e0e0e0">fastapi.</text>
<text xml:space="preserve" text-anchor="middle" x="1066.81" y="-1039.5" font-family="Helvetica,sans-Serif" font-size="10.00" fill="#e0e0e0">staticfiles</text>
</g>
<!-- fastapi_staticfiles&#45;&gt;src_main -->
<g id="edge13" class="edge">
<title>fastapi_staticfiles&#45;&gt;src_main</title><style>.edge>path:hover{stroke-width:8}</style>
<path fill="none" stroke="#ffffff" d="M1096.17,-1065.27C1104.19,-1070.12 1112.83,-1075.59 1120.55,-1081 1149.6,-1101.36 1152.79,-1149.97 1182.76,-1131"/>
<path fill="none" stroke="#ffffff" d="M1184.76,-1131C1255.25,-1086.38 1273.07,-810.73 1277.08,-718.8"/>
<polygon fill="#b65353" stroke="#ffffff" points="1280.58,-718.98 1277.49,-708.84 1273.58,-718.69 1280.58,-718.98"/>
</g>
<!-- jose -->
<g id="node5" class="node">
<title>jose</title><style>.edge>path:hover{stroke-width:8}</style>
<ellipse fill="#c29147" stroke="#ffffff" cx="707.97" cy="-18" rx="27" ry="18"/>
<text xml:space="preserve" text-anchor="middle" x="707.97" y="-14.5" font-family="Helvetica,sans-Serif" font-size="10.00" fill="#e0e0e0">jose</text>
</g>
<!-- src_helpers_security -->
<g id="node27" class="node">
<title>src_helpers_security</title><style>.edge>path:hover{stroke-width:8}</style>
<ellipse fill="#375481" stroke="#ffffff" cx="1066.81" cy="-166" rx="35.71" ry="31.11"/>
<text xml:space="preserve" text-anchor="middle" x="1066.81" y="-174.5" font-family="Helvetica,sans-Serif" font-size="10.00" fill="#e0e0e0">src.</text>
<text xml:space="preserve" text-anchor="middle" x="1066.81" y="-162.5" font-family="Helvetica,sans-Serif" font-size="10.00" fill="#e0e0e0">helpers.</text>
<text xml:space="preserve" text-anchor="middle" x="1066.81" y="-150.5" font-family="Helvetica,sans-Serif" font-size="10.00" fill="#e0e0e0">security</text>
</g>
<!-- jose&#45;&gt;src_helpers_security -->
<g id="edge14" class="edge">
<title>jose&#45;&gt;src_helpers_security</title><style>.edge>path:hover{stroke-width:8}</style>
<path fill="none" stroke="#ffffff" d="M932.82,-136C963.46,-129.72 997.89,-137.92 1024.05,-147.32"/>
<polygon fill="#c29147" stroke="#ffffff" points="1022.71,-150.55 1033.3,-150.84 1025.2,-144.01 1022.71,-150.55"/>
<path fill="none" stroke="#ffffff" d="M815.86,-136C866.45,-143.13 880.77,-146.25 930.82,-136"/>
<path fill="none" stroke="#ffffff" d="M727.05,-30.96C732.46,-35.18 738.25,-40.06 743.15,-45 779.22,-81.36 763.14,-128.85 813.86,-136"/>
</g>
<!-- jose_jwt -->
<g id="node6" class="node">
<title>jose_jwt</title><style>.edge>path:hover{stroke-width:8}</style>
<ellipse fill="#b38a4c" stroke="#ffffff" cx="707.97" cy="-190" rx="29.92" ry="18"/>
<text xml:space="preserve" text-anchor="middle" x="707.97" y="-186.5" font-family="Helvetica,sans-Serif" font-size="10.00" fill="#e0e0e0">jose.jwt</text>
</g>
<!-- jose_jwt&#45;&gt;src_helpers_security -->
<g id="edge15" class="edge">
<title>jose_jwt&#45;&gt;src_helpers_security</title><style>.edge>path:hover{stroke-width:8}</style>
<path fill="none" stroke="#ffffff" d="M728.5,-176.45C753.62,-159.65 796.11,-133.5 813.86,-136"/>
</g>
<!-- passlib -->
<g id="node7" class="node">
<title>passlib</title><style>.edge>path:hover{stroke-width:8}</style>
<ellipse fill="#a9c247" stroke="#ffffff" cx="707.97" cy="-136" rx="28.11" ry="18"/>
<text xml:space="preserve" text-anchor="middle" x="707.97" y="-132.5" font-family="Helvetica,sans-Serif" font-size="10.00" fill="#e0e0e0">passlib</text>
</g>
<!-- passlib&#45;&gt;src_helpers_security -->
<g id="edge16" class="edge">
<title>passlib&#45;&gt;src_helpers_security</title><style>.edge>path:hover{stroke-width:8}</style>
<path fill="none" stroke="#ffffff" d="M736.28,-133.92C757.54,-132.8 787.71,-132.31 813.86,-136"/>
</g>
<!-- passlib_context -->
<g id="node8" class="node">
<title>passlib_context</title><style>.edge>path:hover{stroke-width:8}</style>
<ellipse fill="#9eb34c" stroke="#ffffff" cx="707.97" cy="-77" rx="35.18" ry="22.63"/>
<text xml:space="preserve" text-anchor="middle" x="707.97" y="-79.5" font-family="Helvetica,sans-Serif" font-size="10.00" fill="#e0e0e0">passlib.</text>
<text xml:space="preserve" text-anchor="middle" x="707.97" y="-67.5" font-family="Helvetica,sans-Serif" font-size="10.00" fill="#e0e0e0">context</text>
</g>
<!-- passlib_context&#45;&gt;src_helpers_security -->
<g id="edge17" class="edge">
<title>passlib_context&#45;&gt;src_helpers_security</title><style>.edge>path:hover{stroke-width:8}</style>
<path fill="none" stroke="#ffffff" d="M729.71,-94.89C749.7,-110.54 781.59,-131.45 813.86,-136"/>
</g>
<!-- pydantic -->
<g id="node9" class="node">
<title>pydantic</title><style>.edge>path:hover{stroke-width:8}</style>
<ellipse fill="#3af30c" stroke="#ffffff" cx="129.17" cy="-540" rx="31.72" ry="18"/>
<text xml:space="preserve" text-anchor="middle" x="129.17" y="-536.5" font-family="Helvetica,sans-Serif" font-size="10.00" fill="#e0e0e0">pydantic</text>
</g>
<!-- pydantic&#45;&gt;src_api_routes_users -->
<g id="edge18" class="edge">
<title>pydantic&#45;&gt;src_api_routes_users</title><style>.edge>path:hover{stroke-width:8}</style>
<path fill="none" stroke="#ffffff" d="M160.92,-541.9C254.39,-547.74 531.27,-565.65 570.92,-575"/>
</g>
<!-- src_helpers_config_config -->
<g id="node24" class="node">
<title>src_helpers_config_config</title><style>.edge>path:hover{stroke-width:8}</style>
<ellipse fill="#1e58ae" stroke="#ffffff" cx="814.86" cy="-304" rx="35.71" ry="39.6"/>
<text xml:space="preserve" text-anchor="middle" x="814.86" y="-318.5" font-family="Helvetica,sans-Serif" font-size="10.00" fill="#e0e0e0">src.</text>
<text xml:space="preserve" text-anchor="middle" x="814.86" y="-306.5" font-family="Helvetica,sans-Serif" font-size="10.00" fill="#e0e0e0">helpers.</text>
<text xml:space="preserve" text-anchor="middle" x="814.86" y="-294.5" font-family="Helvetica,sans-Serif" font-size="10.00" fill="#e0e0e0">config.</text>
<text xml:space="preserve" text-anchor="middle" x="814.86" y="-282.5" font-family="Helvetica,sans-Serif" font-size="10.00" fill="#e0e0e0">config</text>
</g>
<!-- pydantic&#45;&gt;src_helpers_config_config -->
<g id="edge19" class="edge">
<title>pydantic&#45;&gt;src_helpers_config_config</title><style>.edge>path:hover{stroke-width:8}</style>
<path fill="none" stroke="#ffffff" d="M140.62,-523.06C157.17,-497.79 191.93,-450.65 234.34,-427 393.47,-338.26 472.69,-428.15 636.79,-349 673.76,-331.17 666.2,-284.34 706.97,-289"/>
</g>
<!-- src_schemas_health -->
<g id="node30" class="node">
<title>src_schemas_health</title><style>.edge>path:hover{stroke-width:8}</style>
<ellipse fill="#4073c0" stroke="#ffffff" cx="426.32" cy="-866" rx="41.54" ry="31.11"/>
<text xml:space="preserve" text-anchor="middle" x="426.32" y="-874.5" font-family="Helvetica,sans-Serif" font-size="10.00" fill="#e0e0e0">src.</text>
<text xml:space="preserve" text-anchor="middle" x="426.32" y="-862.5" font-family="Helvetica,sans-Serif" font-size="10.00" fill="#e0e0e0">schemas.</text>
<text xml:space="preserve" text-anchor="middle" x="426.32" y="-850.5" font-family="Helvetica,sans-Serif" font-size="10.00" fill="#e0e0e0">health</text>
</g>
<!-- pydantic&#45;&gt;src_schemas_health -->
<g id="edge20" class="edge">
<title>pydantic&#45;&gt;src_schemas_health</title><style>.edge>path:hover{stroke-width:8}</style>
<path fill="none" stroke="#ffffff" d="M140.44,-557.3C147.51,-570.04 156.47,-588.04 161.34,-605 181.09,-673.78 142.48,-879.06 197.34,-925"/>
<path fill="none" stroke="#ffffff" d="M198.34,-925C211.5,-936.02 217.95,-916.09 234.34,-911 281.27,-896.42 335.95,-883.99 374.75,-875.9"/>
<polygon fill="#3af30c" stroke="#ffffff" points="375.18,-879.39 384.27,-873.95 373.77,-872.53 375.18,-879.39"/>
</g>
<!-- src_schemas_post -->
<g id="node31" class="node">
<title>src_schemas_post</title><style>.edge>path:hover{stroke-width:8}</style>
<ellipse fill="#4073c0" stroke="#ffffff" cx="426.32" cy="-748" rx="41.54" ry="31.11"/>
<text xml:space="preserve" text-anchor="middle" x="426.32" y="-756.5" font-family="Helvetica,sans-Serif" font-size="10.00" fill="#e0e0e0">src.</text>
<text xml:space="preserve" text-anchor="middle" x="426.32" y="-744.5" font-family="Helvetica,sans-Serif" font-size="10.00" fill="#e0e0e0">schemas.</text>
<text xml:space="preserve" text-anchor="middle" x="426.32" y="-732.5" font-family="Helvetica,sans-Serif" font-size="10.00" fill="#e0e0e0">post</text>
</g>
<!-- pydantic&#45;&gt;src_schemas_post -->
<g id="edge21" class="edge">
<title>pydantic&#45;&gt;src_schemas_post</title><style>.edge>path:hover{stroke-width:8}</style>
<path fill="none" stroke="#ffffff" d="M138.61,-557.63C162.61,-607.68 229.8,-747.18 234.34,-750 276.71,-776.28 335.19,-771 376.24,-762.16"/>
<polygon fill="#3af30c" stroke="#ffffff" points="376.9,-765.6 385.85,-759.94 375.32,-758.78 376.9,-765.6"/>
</g>
<!-- src_schemas_root -->
<g id="node32" class="node">
<title>src_schemas_root</title><style>.edge>path:hover{stroke-width:8}</style>
<ellipse fill="#4073c0" stroke="#ffffff" cx="426.32" cy="-1038" rx="41.54" ry="31.11"/>
<text xml:space="preserve" text-anchor="middle" x="426.32" y="-1046.5" font-family="Helvetica,sans-Serif" font-size="10.00" fill="#e0e0e0">src.</text>
<text xml:space="preserve" text-anchor="middle" x="426.32" y="-1034.5" font-family="Helvetica,sans-Serif" font-size="10.00" fill="#e0e0e0">schemas.</text>
<text xml:space="preserve" text-anchor="middle" x="426.32" y="-1022.5" font-family="Helvetica,sans-Serif" font-size="10.00" fill="#e0e0e0">root</text>
</g>
<!-- pydantic&#45;&gt;src_schemas_root -->
<g id="edge22" class="edge">
<title>pydantic&#45;&gt;src_schemas_root</title><style>.edge>path:hover{stroke-width:8}</style>
<path fill="none" stroke="#ffffff" d="M198.34,-925C251.53,-972.04 327.8,-1004.66 376.95,-1022.36"/>
<polygon fill="#3af30c" stroke="#ffffff" points="375.59,-1025.59 386.19,-1025.62 377.92,-1018.99 375.59,-1025.59"/>
</g>
<!-- pydantic_settings -->
<g id="node10" class="node">
<title>pydantic_settings</title><style>.edge>path:hover{stroke-width:8}</style>
<ellipse fill="#53b67b" stroke="#ffffff" cx="289.97" cy="-227" rx="55.62" ry="18"/>
<text xml:space="preserve" text-anchor="middle" x="289.97" y="-223.5" font-family="Helvetica,sans-Serif" font-size="10.00" fill="#e0e0e0">pydantic_settings</text>
</g>
<!-- pydantic_settings&#45;&gt;src_helpers_config_config -->
<g id="edge23" class="edge">
<title>pydantic_settings&#45;&gt;src_helpers_config_config</title><style>.edge>path:hover{stroke-width:8}</style>
<path fill="none" stroke="#ffffff" d="M427.32,-281C466.66,-293.75 467.19,-317.93 507.04,-329 562.6,-344.44 581.05,-343.77 636.79,-329 671.5,-319.8 671.27,-285.27 706.97,-289"/>
<path fill="none" stroke="#ffffff" d="M322.59,-241.98C349.4,-254.11 389.14,-270.82 425.32,-281"/>
</g>
<!-- sqlalchemy -->
<g id="node11" class="node">
<title>sqlalchemy</title><style>.edge>path:hover{stroke-width:8}</style>
<ellipse fill="#26d9d9" stroke="#ffffff" cx="289.97" cy="-605" rx="39.39" ry="18"/>
<text xml:space="preserve" text-anchor="middle" x="289.97" y="-601.5" font-family="Helvetica,sans-Serif" font-size="10.00" fill="#e0e0e0">sqlalchemy</text>
</g>
<!-- sqlalchemy&#45;&gt;src_api_routes_posts -->
<g id="edge24" class="edge">
<title>sqlalchemy&#45;&gt;src_api_routes_posts</title><style>.edge>path:hover{stroke-width:8}</style>
<path fill="none" stroke="#ffffff" d="M708.97,-693C729.32,-692.25 751.89,-692.15 770.88,-692.28"/>
<polygon fill="#26d9d9" stroke="#ffffff" points="770.63,-695.78 780.66,-692.38 770.7,-688.78 770.63,-695.78"/>
</g>
<!-- sqlalchemy&#45;&gt;src_api_routes_users -->
<g id="edge25" class="edge">
<title>sqlalchemy&#45;&gt;src_api_routes_users</title><style>.edge>path:hover{stroke-width:8}</style>
<path fill="none" stroke="#ffffff" d="M708.97,-693C727.49,-693.46 760.09,-660.37 784.05,-632.72"/>
<polygon fill="#26d9d9" stroke="#ffffff" points="786.69,-635.02 790.51,-625.14 781.36,-630.48 786.69,-635.02"/>
<path fill="none" stroke="#ffffff" d="M329.46,-607C394.27,-611.23 528.68,-623.68 636.79,-658 670.01,-668.54 672.13,-692.14 706.97,-693"/>
</g>
<!-- sqlalchemy_ext -->
<g id="node12" class="node">
<title>sqlalchemy_ext</title><style>.edge>path:hover{stroke-width:8}</style>
<ellipse fill="#40bfc0" stroke="#ffffff" cx="289.97" cy="-815" rx="48.86" ry="18"/>
<text xml:space="preserve" text-anchor="middle" x="289.97" y="-811.5" font-family="Helvetica,sans-Serif" font-size="10.00" fill="#e0e0e0">sqlalchemy.ext</text>
</g>
<!-- sqlalchemy_ext&#45;&gt;src_api_routes_posts -->
<g id="edge26" class="edge">
<title>sqlalchemy_ext&#45;&gt;src_api_routes_posts</title><style>.edge>path:hover{stroke-width:8}</style>
<path fill="none" stroke="#ffffff" d="M427.32,-807C490.86,-801 507.12,-805.05 570.92,-807"/>
</g>
<!-- sqlalchemy_ext&#45;&gt;src_api_routes_users -->
<g id="edge27" class="edge">
<title>sqlalchemy_ext&#45;&gt;src_api_routes_users</title><style>.edge>path:hover{stroke-width:8}</style>
<path fill="none" stroke="#ffffff" d="M338.91,-812.95C364.57,-811.66 396.7,-809.7 425.32,-807"/>
<path fill="none" stroke="#ffffff" d="M427.32,-807C491.43,-800.94 648.3,-757.54 706.97,-731"/>
</g>
<!-- sqlalchemy_ext_asyncio -->
<g id="node13" class="node">
<title>sqlalchemy_ext_asyncio</title><style>.edge>path:hover{stroke-width:8}</style>
<ellipse fill="#47c2c2" stroke="#ffffff" cx="289.97" cy="-710" rx="47.91" ry="31.11"/>
<text xml:space="preserve" text-anchor="middle" x="289.97" y="-718.5" font-family="Helvetica,sans-Serif" font-size="10.00" fill="#e0e0e0">sqlalchemy.</text>
<text xml:space="preserve" text-anchor="middle" x="289.97" y="-706.5" font-family="Helvetica,sans-Serif" font-size="10.00" fill="#e0e0e0">ext.</text>
<text xml:space="preserve" text-anchor="middle" x="289.97" y="-694.5" font-family="Helvetica,sans-Serif" font-size="10.00" fill="#e0e0e0">asyncio</text>
</g>
<!-- sqlalchemy_ext_asyncio&#45;&gt;src_api_routes_posts -->
<g id="edge28" class="edge">
<title>sqlalchemy_ext_asyncio&#45;&gt;src_api_routes_posts</title><style>.edge>path:hover{stroke-width:8}</style>
<path fill="none" stroke="#ffffff" d="M572.92,-731C635.75,-746.62 648.69,-816.2 706.97,-788"/>
<path fill="none" stroke="#ffffff" d="M708.97,-788C737.94,-773.99 764.71,-749.45 783.96,-728.83"/>
<polygon fill="#47c2c2" stroke="#ffffff" points="786.32,-731.43 790.46,-721.68 781.14,-726.73 786.32,-731.43"/>
</g>
<!-- sqlalchemy_ext_asyncio&#45;&gt;src_api_routes_users -->
<g id="edge29" class="edge">
<title>sqlalchemy_ext_asyncio&#45;&gt;src_api_routes_users</title><style>.edge>path:hover{stroke-width:8}</style>
<path fill="none" stroke="#ffffff" d="M572.92,-731C630.74,-745.37 652.69,-755.56 706.97,-731"/>
<path fill="none" stroke="#ffffff" d="M338,-708.76C352.02,-708.45 367.43,-708.16 381.59,-708 421.34,-707.56 431.54,-703.51 471.04,-708 516.3,-713.14 526.71,-720.01 570.92,-731"/>
</g>
<!-- src_api -->
<g id="node14" class="node">
<title>src_api</title><style>.edge>path:hover{stroke-width:8}</style>
<ellipse fill="#2f73db" stroke="#ffffff" cx="1183.76" cy="-689" rx="27.21" ry="18"/>
<text xml:space="preserve" text-anchor="middle" x="1183.76" y="-685.5" font-family="Helvetica,sans-Serif" font-size="10.00" fill="#e0e0e0">src.api</text>
</g>
<!-- src_api&#45;&gt;src_main -->
<g id="edge30" class="edge">
<title>src_api&#45;&gt;src_main</title><style>.edge>path:hover{stroke-width:8}</style>
<path fill="none" stroke="#ffffff" d="M1211.27,-689C1218.75,-689 1227.08,-689 1235.25,-689"/>
<polygon fill="#2f73db" stroke="#ffffff" points="1235.09,-692.5 1245.09,-689 1235.09,-685.5 1235.09,-692.5"/>
</g>
<!-- src_api_router&#45;&gt;src_main -->
<g id="edge31" class="edge">
<title>src_api_router&#45;&gt;src_main</title><style>.edge>path:hover{stroke-width:8}</style>
<path fill="none" stroke="#ffffff" d="M1093.04,-1122.86C1117.7,-1135.24 1155.42,-1148.31 1182.76,-1131"/>
</g>
<!-- src_api_routes -->
<g id="node16" class="node">
<title>src_api_routes</title><style>.edge>path:hover{stroke-width:8}</style>
<ellipse fill="#4778c2" stroke="#ffffff" cx="931.82" cy="-1085" rx="45.25" ry="18"/>
<text xml:space="preserve" text-anchor="middle" x="931.82" y="-1081.5" font-family="Helvetica,sans-Serif" font-size="10.00" fill="#e0e0e0">src.api.routes</text>
</g>
<!-- src_api_routes&#45;&gt;src_api_router -->
<g id="edge32" class="edge">
<title>src_api_routes&#45;&gt;src_api_router</title><style>.edge>path:hover{stroke-width:8}</style>
<path fill="none" stroke="#ffffff" d="M973.81,-1092.09C986.8,-1094.34 1001.34,-1096.85 1014.94,-1099.2"/>
<polygon fill="#4778c2" stroke="#ffffff" points="1014.16,-1102.62 1024.61,-1100.87 1015.35,-1095.72 1014.16,-1102.62"/>
</g>
<!-- src_api_routes_auth&#45;&gt;src_api_router -->
<g id="edge33" class="edge">
<title>src_api_routes_auth&#45;&gt;src_api_router</title><style>.edge>path:hover{stroke-width:8}</style>
<path fill="none" stroke="#ffffff" d="M847.6,-1130.03C870.7,-1129.56 902.72,-1129.39 930.82,-1131"/>
</g>
<!-- src_api_routes_health&#45;&gt;src_api_router -->
<g id="edge34" class="edge">
<title>src_api_routes_health&#45;&gt;src_api_router</title><style>.edge>path:hover{stroke-width:8}</style>
<path fill="none" stroke="#ffffff" d="M846.51,-886.91C873.23,-879.45 910.76,-874.72 930.82,-898"/>
</g>
<!-- src_api_routes_posts&#45;&gt;src_api_router -->
<g id="edge35" class="edge">
<title>src_api_routes_posts&#45;&gt;src_api_router</title><style>.edge>path:hover{stroke-width:8}</style>
<path fill="none" stroke="#ffffff" d="M830.4,-728.31C849.28,-771.43 885.27,-845.14 930.82,-898"/>
</g>
<!-- src_api_routes_root&#45;&gt;src_api_router -->
<g id="edge36" class="edge">
<title>src_api_routes_root&#45;&gt;src_api_router</title><style>.edge>path:hover{stroke-width:8}</style>
<path fill="none" stroke="#ffffff" d="M838.38,-967.11C867.38,-932.67 915.86,-880.64 930.82,-898"/>
</g>
<!-- src_api_routes_users&#45;&gt;src_api_router -->
<g id="edge37" class="edge">
<title>src_api_routes_users&#45;&gt;src_api_router</title><style>.edge>path:hover{stroke-width:8}</style>
<path fill="none" stroke="#ffffff" d="M932.82,-898C990.79,-965.28 952.18,-1016.35 1013.07,-1081 1016.28,-1084.41 1020.02,-1087.46 1024,-1090.18"/>
<polygon fill="#2e528a" stroke="#ffffff" points="1021.9,-1093 1032.28,-1095.13 1025.49,-1086.99 1021.9,-1093"/>
<path fill="none" stroke="#ffffff" d="M838.36,-623.98C842.81,-630.32 847.15,-637.2 850.57,-644 903.77,-749.76 853.54,-808.31 930.82,-898"/>
</g>
<!-- src_helpers -->
<g id="node22" class="node">
<title>src_helpers</title><style>.edge>path:hover{stroke-width:8}</style>
<ellipse fill="#2271e7" stroke="#ffffff" cx="426.32" cy="-529" rx="38.49" ry="18"/>
<text xml:space="preserve" text-anchor="middle" x="426.32" y="-525.5" font-family="Helvetica,sans-Serif" font-size="10.00" fill="#e0e0e0">src.helpers</text>
</g>
<!-- src_helpers&#45;&gt;src_api_routes_users -->
<g id="edge38" class="edge">
<title>src_helpers&#45;&gt;src_api_routes_users</title><style>.edge>path:hover{stroke-width:8}</style>
<path fill="none" stroke="#ffffff" d="M456.16,-540.8C484.74,-551.88 530.05,-567.79 570.92,-575"/>
</g>
<!-- src_helpers&#45;&gt;src_main -->
<g id="edge39" class="edge">
<title>src_helpers&#45;&gt;src_main</title><style>.edge>path:hover{stroke-width:8}</style>
<path fill="none" stroke="#ffffff" d="M450.94,-514.73C484.89,-494.81 546.1,-461.15 570.92,-462"/>
</g>
<!-- src_helpers_config -->
<g id="node23" class="node">
<title>src_helpers_config</title><style>.edge>path:hover{stroke-width:8}</style>
<ellipse fill="#2f73db" stroke="#ffffff" cx="931.82" cy="-195" rx="35.71" ry="31.11"/>
<text xml:space="preserve" text-anchor="middle" x="931.82" y="-203.5" font-family="Helvetica,sans-Serif" font-size="10.00" fill="#e0e0e0">src.</text>
<text xml:space="preserve" text-anchor="middle" x="931.82" y="-191.5" font-family="Helvetica,sans-Serif" font-size="10.00" fill="#e0e0e0">helpers.</text>
<text xml:space="preserve" text-anchor="middle" x="931.82" y="-179.5" font-family="Helvetica,sans-Serif" font-size="10.00" fill="#e0e0e0">config</text>
</g>
<!-- src_helpers_logging_setup -->
<g id="node26" class="node">
<title>src_helpers_logging_setup</title><style>.edge>path:hover{stroke-width:8}</style>
<ellipse fill="#3560a1" stroke="#ffffff" cx="1066.81" cy="-338" rx="53.74" ry="31.11"/>
<text xml:space="preserve" text-anchor="middle" x="1066.81" y="-346.5" font-family="Helvetica,sans-Serif" font-size="10.00" fill="#e0e0e0">src.</text>
<text xml:space="preserve" text-anchor="middle" x="1066.81" y="-334.5" font-family="Helvetica,sans-Serif" font-size="10.00" fill="#e0e0e0">helpers.</text>
<text xml:space="preserve" text-anchor="middle" x="1066.81" y="-322.5" font-family="Helvetica,sans-Serif" font-size="10.00" fill="#e0e0e0">logging_setup</text>
</g>
<!-- src_helpers_config&#45;&gt;src_helpers_logging_setup -->
<g id="edge40" class="edge">
<title>src_helpers_config&#45;&gt;src_helpers_logging_setup</title><style>.edge>path:hover{stroke-width:8}</style>
<path fill="none" stroke="#ffffff" d="M956.62,-217.61C963.49,-224.55 970.82,-232.37 977.07,-240 995.13,-262.02 994.07,-271.79 1013.07,-293 1016.89,-297.26 1021.11,-301.49 1025.44,-305.55"/>
<polygon fill="#2f73db" stroke="#ffffff" points="1022.96,-308.03 1032.74,-312.12 1027.64,-302.83 1022.96,-308.03"/>
</g>
<!-- src_helpers_config&#45;&gt;src_helpers_security -->
<g id="edge41" class="edge">
<title>src_helpers_config&#45;&gt;src_helpers_security</title><style>.edge>path:hover{stroke-width:8}</style>
<path fill="none" stroke="#ffffff" d="M966.72,-187.61C983.14,-184.03 1003.07,-179.68 1020.74,-175.83"/>
<polygon fill="#2f73db" stroke="#ffffff" points="1021.47,-179.25 1030.49,-173.7 1019.97,-172.41 1021.47,-179.25"/>
</g>
<!-- src_helpers_config&#45;&gt;src_main -->
<g id="edge42" class="edge">
<title>src_helpers_config&#45;&gt;src_main</title><style>.edge>path:hover{stroke-width:8}</style>
<path fill="none" stroke="#ffffff" d="M956.53,-217.84C971.73,-231.52 992.42,-248.44 1013.07,-260 1057.28,-284.75 1075.05,-275.71 1120.55,-298 1150.07,-312.46 1159.01,-315.28 1182.76,-338"/>
</g>
<!-- src_helpers_config_config&#45;&gt;src_helpers_logging_setup -->
<g id="edge43" class="edge">
<title>src_helpers_config_config&#45;&gt;src_helpers_logging_setup</title><style>.edge>path:hover{stroke-width:8}</style>
<path fill="none" stroke="#ffffff" d="M846.32,-322.63C868.8,-335.35 900.6,-351.24 930.82,-359"/>
<path fill="none" stroke="#ffffff" d="M932.82,-359C957.64,-365.37 985.6,-362.43 1009.45,-356.99"/>
<polygon fill="#1e58ae" stroke="#ffffff" points="1010.12,-360.43 1018.97,-354.61 1008.42,-353.64 1010.12,-360.43"/>
</g>
<!-- src_helpers_config_config&#45;&gt;src_helpers_security -->
<g id="edge44" class="edge">
<title>src_helpers_config_config&#45;&gt;src_helpers_security</title><style>.edge>path:hover{stroke-width:8}</style>
<path fill="none" stroke="#ffffff" d="M825.66,-265.81C835.92,-232.68 855.02,-185.39 886.57,-155 901.98,-140.15 909.85,-140.3 930.82,-136"/>
</g>
<!-- src_helpers_config_config&#45;&gt;src_main -->
<g id="edge45" class="edge">
<title>src_helpers_config_config&#45;&gt;src_main</title><style>.edge>path:hover{stroke-width:8}</style>
<path fill="none" stroke="#ffffff" d="M932.82,-359C992.36,-374.28 1005.16,-407.02 1065.81,-397"/>
<path fill="none" stroke="#ffffff" d="M1067.81,-397C1092.39,-392.94 1098.21,-389.03 1120.55,-378 1150.03,-363.45 1159.01,-315.28 1182.76,-338"/>
</g>
<!-- src_helpers_exceptions&#45;&gt;src_api_routes_users -->
<g id="edge46" class="edge">
<title>src_helpers_exceptions&#45;&gt;src_api_routes_users</title><style>.edge>path:hover{stroke-width:8}</style>
<path fill="none" stroke="#ffffff" d="M455,-486.12C492.66,-518.57 556.97,-572.54 570.92,-575"/>
<path fill="none" stroke="#ffffff" d="M572.92,-575C641.49,-587.09 722.32,-592.33 770.76,-594.52"/>
<polygon fill="#2f67bc" stroke="#ffffff" points="770.4,-598.01 780.54,-594.94 770.7,-591.01 770.4,-598.01"/>
</g>
<!-- src_helpers_exceptions&#45;&gt;src_main -->
<g id="edge47" class="edge">
<title>src_helpers_exceptions&#45;&gt;src_main</title><style>.edge>path:hover{stroke-width:8}</style>
<path fill="none" stroke="#ffffff" d="M471.32,-461.22C499.75,-460.91 537.53,-460.85 570.92,-462"/>
</g>
<!-- src_helpers_logging_setup&#45;&gt;src_main -->
<g id="edge48" class="edge">
<title>src_helpers_logging_setup&#45;&gt;src_main</title><style>.edge>path:hover{stroke-width:8}</style>
<path fill="none" stroke="#ffffff" d="M1115.44,-324.08C1138.68,-320.4 1165.31,-321.31 1182.76,-338"/>
</g>
<!-- src_schemas -->
<g id="node29" class="node">
<title>src_schemas</title><style>.edge>path:hover{stroke-width:8}</style>
<ellipse fill="#2f73db" stroke="#ffffff" cx="426.32" cy="-971" rx="43.45" ry="18"/>
<text xml:space="preserve" text-anchor="middle" x="426.32" y="-967.5" font-family="Helvetica,sans-Serif" font-size="10.00" fill="#e0e0e0">src.schemas</text>
</g>
<!-- src_schemas&#45;&gt;src_api_routes_health -->
<g id="edge49" class="edge">
<title>src_schemas&#45;&gt;src_api_routes_health</title><style>.edge>path:hover{stroke-width:8}</style>
<path fill="none" stroke="#ffffff" d="M708.97,-898C727.45,-886.88 751.27,-886.05 771.55,-888.36"/>
<polygon fill="#2f73db" stroke="#ffffff" points="770.8,-891.79 781.2,-889.76 771.8,-884.86 770.8,-891.79"/>
</g>
<!-- src_schemas&#45;&gt;src_api_routes_posts -->
<g id="edge50" class="edge">
<title>src_schemas&#45;&gt;src_api_routes_posts</title><style>.edge>path:hover{stroke-width:8}</style>
<path fill="none" stroke="#ffffff" d="M572.92,-943C635.72,-940.6 653.13,-930.42 706.97,-898"/>
<path fill="none" stroke="#ffffff" d="M708.97,-898C764.26,-864.71 791.53,-791.89 804.13,-742.63"/>
<polygon fill="#2f73db" stroke="#ffffff" points="807.5,-743.6 806.46,-733.05 800.69,-741.94 807.5,-743.6"/>
<path fill="none" stroke="#ffffff" d="M462.95,-960.87C491.79,-953.45 533.61,-944.43 570.92,-943"/>
</g>
<!-- src_schemas&#45;&gt;src_api_routes_root -->
<g id="edge51" class="edge">
<title>src_schemas&#45;&gt;src_api_routes_root</title><style>.edge>path:hover{stroke-width:8}</style>
<path fill="none" stroke="#ffffff" d="M572.92,-943C641.36,-940.38 638.51,-1017.24 706.97,-1019"/>
<path fill="none" stroke="#ffffff" d="M708.97,-1019C730.36,-1019.55 753.6,-1014.81 772.76,-1009.39"/>
<polygon fill="#2f73db" stroke="#ffffff" points="773.5,-1012.82 782.07,-1006.6 771.49,-1006.12 773.5,-1012.82"/>
</g>
<!-- src_schemas_health&#45;&gt;src_api_routes_health -->
<g id="edge52" class="edge">
<title>src_schemas_health&#45;&gt;src_api_routes_health</title><style>.edge>path:hover{stroke-width:8}</style>
<path fill="none" stroke="#ffffff" d="M467.86,-866.52C528.13,-867.69 644.81,-871.52 743.15,-884 752.42,-885.18 762.29,-886.86 771.63,-888.65"/>
<polygon fill="#4073c0" stroke="#ffffff" points="770.71,-892.03 781.2,-890.56 772.08,-885.17 770.71,-892.03"/>
</g>
<!-- src_schemas_post&#45;&gt;src_api_routes_posts -->
<g id="edge53" class="edge">
<title>src_schemas_post&#45;&gt;src_api_routes_posts</title><style>.edge>path:hover{stroke-width:8}</style>
<path fill="none" stroke="#ffffff" d="M572.92,-807C633.06,-808.84 652.8,-814.21 706.97,-788"/>
<path fill="none" stroke="#ffffff" d="M458.33,-768.36C486.45,-784.91 529.7,-805.74 570.92,-807"/>
</g>
<!-- src_schemas_root&#45;&gt;src_api_routes_root -->
<g id="edge54" class="edge">
<title>src_schemas_root&#45;&gt;src_api_routes_root</title><style>.edge>path:hover{stroke-width:8}</style>
<path fill="none" stroke="#ffffff" d="M467.56,-1032.89C521.85,-1026.55 621.6,-1016.8 706.97,-1019"/>
</g>
<!-- src2 -->
<g id="node33" class="node">
<title>src2</title><style>.edge>path:hover{stroke-width:8}</style>
<ellipse fill="#6753b6" stroke="#ffffff" cx="289.97" cy="-281" rx="27" ry="18"/>
<text xml:space="preserve" text-anchor="middle" x="289.97" y="-277.5" font-family="Helvetica,sans-Serif" font-size="10.00" fill="#e0e0e0">src2</text>
</g>
<!-- src2&#45;&gt;src_helpers_config_config -->
<g id="edge55" class="edge">
<title>src2&#45;&gt;src_helpers_config_config</title><style>.edge>path:hover{stroke-width:8}</style>
<path fill="none" stroke="#ffffff" d="M316.45,-276.43C344.02,-272.52 388.93,-269.21 425.32,-281"/>
</g>
<!-- src2_helpers -->
<g id="node34" class="node">
<title>src2_helpers</title><style>.edge>path:hover{stroke-width:8}</style>
<ellipse fill="#6753b6" stroke="#ffffff" cx="426.32" cy="-140" rx="41.64" ry="18"/>
<text xml:space="preserve" text-anchor="middle" x="426.32" y="-136.5" font-family="Helvetica,sans-Serif" font-size="10.00" fill="#e0e0e0">src2.helpers</text>
</g>
<!-- src2_helpers&#45;&gt;src_helpers_config_config -->
<g id="edge56" class="edge">
<title>src2_helpers&#45;&gt;src_helpers_config_config</title><style>.edge>path:hover{stroke-width:8}</style>
<path fill="none" stroke="#ffffff" d="M462.74,-130.98C507.84,-121.72 586.01,-113.41 636.79,-151 692.1,-191.94 638.56,-281.59 706.97,-289"/>
<path fill="none" stroke="#ffffff" d="M708.97,-289C728.42,-291.03 749.81,-293.97 768.17,-296.7"/>
<polygon fill="#6753b6" stroke="#ffffff" points="767.55,-300.14 777.96,-298.18 768.6,-293.22 767.55,-300.14"/>
</g>
<!-- src2_helpers_config -->
<g id="node35" class="node">
<title>src2_helpers_config</title><style>.edge>path:hover{stroke-width:8}</style>
<ellipse fill="#6753b6" stroke="#ffffff" cx="571.92" cy="-289" rx="35.71" ry="31.11"/>
<text xml:space="preserve" text-anchor="middle" x="571.92" y="-297.5" font-family="Helvetica,sans-Serif" font-size="10.00" fill="#e0e0e0">src2.</text>
<text xml:space="preserve" text-anchor="middle" x="571.92" y="-285.5" font-family="Helvetica,sans-Serif" font-size="10.00" fill="#e0e0e0">helpers.</text>
<text xml:space="preserve" text-anchor="middle" x="571.92" y="-273.5" font-family="Helvetica,sans-Serif" font-size="10.00" fill="#e0e0e0">config</text>
</g>
<!-- src2_helpers_config&#45;&gt;src_helpers_config_config -->
<g id="edge57" class="edge">
<title>src2_helpers_config&#45;&gt;src_helpers_config_config</title><style>.edge>path:hover{stroke-width:8}</style>
<path fill="none" stroke="#ffffff" d="M608.03,-286.94C635.14,-285.85 673.54,-285.38 706.97,-289"/>
</g>
<!-- src2_helpers_config_env_loader_mixin -->
<g id="node36" class="node">
<title>src2_helpers_config_env_loader_mixin</title><style>.edge>path:hover{stroke-width:8}</style>
<ellipse fill="#6753b6" stroke="#ffffff" cx="571.92" cy="-200" rx="64.88" ry="39.6"/>
<text xml:space="preserve" text-anchor="middle" x="571.92" y="-214.5" font-family="Helvetica,sans-Serif" font-size="10.00" fill="#e0e0e0">src2.</text>
<text xml:space="preserve" text-anchor="middle" x="571.92" y="-202.5" font-family="Helvetica,sans-Serif" font-size="10.00" fill="#e0e0e0">helpers.</text>
<text xml:space="preserve" text-anchor="middle" x="571.92" y="-190.5" font-family="Helvetica,sans-Serif" font-size="10.00" fill="#e0e0e0">config.</text>
<text xml:space="preserve" text-anchor="middle" x="571.92" y="-178.5" font-family="Helvetica,sans-Serif" font-size="10.00" fill="#e0e0e0">env_loader_mixin</text>
</g>
<!-- src2_helpers_config_env_loader_mixin&#45;&gt;src_helpers_config_config -->
<g id="edge58" class="edge">
<title>src2_helpers_config_env_loader_mixin&#45;&gt;src_helpers_config_config</title><style>.edge>path:hover{stroke-width:8}</style>
<path fill="none" stroke="#ffffff" d="M614.37,-230.33C649.64,-255.66 696.24,-287.84 706.97,-289"/>
</g>
<!-- structlog -->
<g id="node37" class="node">
<title>structlog</title><style>.edge>path:hover{stroke-width:8}</style>
<ellipse fill="#b526d9" stroke="#ffffff" cx="129.17" cy="-327" rx="32.17" ry="18"/>
<text xml:space="preserve" text-anchor="middle" x="129.17" y="-323.5" font-family="Helvetica,sans-Serif" font-size="10.00" fill="#e0e0e0">structlog</text>
</g>
<!-- structlog&#45;&gt;src_helpers_exceptions -->
<g id="edge59" class="edge">
<title>structlog&#45;&gt;src_helpers_exceptions</title><style>.edge>path:hover{stroke-width:8}</style>
<path fill="none" stroke="#ffffff" d="M290.97,-441C316.01,-450.24 345.15,-455.42 369.87,-458.31"/>
<polygon fill="#b526d9" stroke="#ffffff" points="369.44,-461.79 379.75,-459.37 370.18,-454.83 369.44,-461.79"/>
<path fill="none" stroke="#ffffff" d="M198.34,-327C262.5,-318.45 228.24,-418.6 288.97,-441"/>
</g>
<!-- structlog&#45;&gt;src_helpers_logging_setup -->
<g id="edge60" class="edge">
<title>structlog&#45;&gt;src_helpers_logging_setup</title><style>.edge>path:hover{stroke-width:8}</style>
<path fill="none" stroke="#ffffff" d="M161.39,-328.71C172.75,-328.88 185.67,-328.56 197.34,-327"/>
<path fill="none" stroke="#ffffff" d="M198.34,-327C256.5,-319.25 198.53,-246.47 234.34,-200 280.75,-139.8 308.27,-133.04 381.59,-113 424.72,-101.21 619.66,-106.58 636.79,-119 674.36,-146.24 637.75,-186.59 672.79,-217 733.82,-269.95 773.13,-231.95 850.57,-255 907.01,-271.8 969.62,-296.68 1012.7,-314.82"/>
<polygon fill="#b526d9" stroke="#ffffff" points="1011.25,-318.01 1021.82,-318.69 1013.98,-311.56 1011.25,-318.01"/>
</g>
<!-- structlog&#45;&gt;src_main -->
<g id="edge61" class="edge">
<title>structlog&#45;&gt;src_main</title><style>.edge>path:hover{stroke-width:8}</style>
<path fill="none" stroke="#ffffff" d="M708.97,-462C869.77,-450.57 906.76,-423.27 1065.81,-397"/>
<path fill="none" stroke="#ffffff" d="M198.34,-327C319.5,-315.84 353.58,-319.28 471.04,-351 582.92,-381.21 591.43,-453.14 706.97,-462"/>
</g>
<!-- uvicorn -->
<g id="node38" class="node">
<title>uvicorn</title><style>.edge>path:hover{stroke-width:8}</style>
<ellipse fill="#c0408c" stroke="#ffffff" cx="1066.81" cy="-233" rx="28.56" ry="18"/>
<text xml:space="preserve" text-anchor="middle" x="1066.81" y="-229.5" font-family="Helvetica,sans-Serif" font-size="10.00" fill="#e0e0e0">uvicorn</text>
</g>
<!-- uvicorn&#45;&gt;src_main -->
<g id="edge62" class="edge">
<title>uvicorn&#45;&gt;src_main</title><style>.edge>path:hover{stroke-width:8}</style>
<path fill="none" stroke="#ffffff" d="M1089.65,-244.16C1099.58,-249.75 1111.17,-257.02 1120.55,-265 1153.01,-292.63 1151.95,-308.54 1182.76,-338"/>
<path fill="none" stroke="#ffffff" d="M1184.76,-338C1231.8,-382.99 1263.7,-583.7 1274.29,-659.7"/>
<polygon fill="#c0408c" stroke="#ffffff" points="1270.78,-659.85 1275.6,-669.29 1277.71,-658.91 1270.78,-659.85"/>
</g>
</g>
</svg>

