<?xml version="1.0" encoding="UTF-8" standalone="no"?>
<!DOCTYPE svg PUBLIC "-//W3C//DTD SVG 1.1//EN"
 "http://www.w3.org/Graphics/SVG/1.1/DTD/svg11.dtd">
<!-- Generated by graphviz version 15.1.0 (20260618.0150)
 -->
<!-- Title: G Pages: 1 -->
<svg style="background-color:#141414" width="1039pt" height="821pt"
 viewBox="0.00 0.00 1039.00 821.00" xmlns="http://www.w3.org/2000/svg" xmlns:xlink="http://www.w3.org/1999/xlink">
<g id="graph0" class="graph" transform="scale(1 1) rotate(0) translate(4 816.92)">
<title>G</title><style>.edge>path:hover{stroke-width:8}</style>
<polygon fill="#141414" stroke="none" points="-4,4 -4,-816.92 1034.84,-816.92 1034.84,4 -4,4"/>
<!-- django -->
<g id="node1" class="node">
<title>django</title><style>.edge>path:hover{stroke-width:8}</style>
<ellipse fill="#f90606" stroke="#ffffff" cx="27" cy="-470.3" rx="27" ry="18"/>
<text xml:space="preserve" text-anchor="middle" x="27" y="-466.8" font-family="Helvetica,sans-Serif" font-size="10.00" fill="#e0e0e0">django</text>
</g>
<!-- rest_framework_simplejwt_exceptions -->
<g id="node8" class="node">
<title>rest_framework_simplejwt_exceptions</title><style>.edge>path:hover{stroke-width:8}</style>
<ellipse fill="#40c089" stroke="#ffffff" cx="284.39" cy="-521.3" rx="94.05" ry="22.63"/>
<text xml:space="preserve" text-anchor="middle" x="284.39" y="-523.8" font-family="Helvetica,sans-Serif" font-size="10.00" fill="#e0e0e0">rest_framework_simplejwt.</text>
<text xml:space="preserve" text-anchor="middle" x="284.39" y="-511.8" font-family="Helvetica,sans-Serif" font-size="10.00" fill="#e0e0e0">exceptions</text>
</g>
<!-- django&#45;&gt;rest_framework_simplejwt_exceptions -->
<g id="edge1" class="edge">
<title>django&#45;&gt;rest_framework_simplejwt_exceptions</title><style>.edge>path:hover{stroke-width:8}</style>
<path fill="none" stroke="#ffffff" d="M123.17,-470.3C142.76,-470.82 185.86,-484.82 222.43,-498.02"/>
<polygon fill="#f90606" stroke="#ffffff" points="221.03,-501.23 231.62,-501.37 223.42,-494.66 221.03,-501.23"/>
</g>
<!-- rest_framework_simplejwt_tokens -->
<g id="node9" class="node">
<title>rest_framework_simplejwt_tokens</title><style>.edge>path:hover{stroke-width:8}</style>
<ellipse fill="#49ac81" stroke="#ffffff" cx="508.48" cy="-613.3" rx="94.05" ry="22.63"/>
<text xml:space="preserve" text-anchor="middle" x="508.48" y="-615.8" font-family="Helvetica,sans-Serif" font-size="10.00" fill="#e0e0e0">rest_framework_simplejwt.</text>
<text xml:space="preserve" text-anchor="middle" x="508.48" y="-603.8" font-family="Helvetica,sans-Serif" font-size="10.00" fill="#e0e0e0">tokens</text>
</g>
<!-- django&#45;&gt;rest_framework_simplejwt_tokens -->
<g id="edge2" class="edge">
<title>django&#45;&gt;rest_framework_simplejwt_tokens</title><style>.edge>path:hover{stroke-width:8}</style>
<path fill="none" stroke="#ffffff" d="M123.17,-470.3C170.61,-471.58 149.61,-528.95 190.34,-553.3 254.45,-591.61 337.78,-606.3 402.93,-611.57"/>
<polygon fill="#f90606" stroke="#ffffff" points="402.3,-615.03 412.53,-612.28 402.82,-608.05 402.3,-615.03"/>
</g>
<!-- tests2_conftest -->
<g id="node16" class="node">
<title>tests2_conftest</title><style>.edge>path:hover{stroke-width:8}</style>
<ellipse fill="#9d4390" stroke="#ffffff" cx="839.99" cy="-404.3" rx="36.24" ry="22.63"/>
<text xml:space="preserve" text-anchor="middle" x="839.99" y="-406.8" font-family="Helvetica,sans-Serif" font-size="10.00" fill="#e0e0e0">tests2.</text>
<text xml:space="preserve" text-anchor="middle" x="839.99" y="-394.8" font-family="Helvetica,sans-Serif" font-size="10.00" fill="#e0e0e0">conftest</text>
</g>
<!-- django&#45;&gt;tests2_conftest -->
<g id="edge3" class="edge">
<title>django&#45;&gt;tests2_conftest</title><style>.edge>path:hover{stroke-width:8}</style>
<path fill="none" stroke="#ffffff" d="M123.17,-470.3C176.32,-471.99 143.56,-396.56 190.34,-371.3 314.38,-304.31 366.6,-371.16 507.48,-366.3"/>
<path fill="none" stroke="#ffffff" d="M54.11,-469.81C72.8,-469.58 98.54,-469.5 121.17,-470.3"/>
<path fill="none" stroke="#ffffff" d="M509.48,-366.3C611.86,-362.3 731.1,-382.22 794.3,-394.74"/>
<polygon fill="#f90606" stroke="#ffffff" points="793.46,-398.14 803.95,-396.68 794.84,-391.27 793.46,-398.14"/>
</g>
<!-- tests2_test_api -->
<g id="node19" class="node">
<title>tests2_test_api</title><style>.edge>path:hover{stroke-width:8}</style>
<ellipse fill="#8f3d83" stroke="#ffffff" cx="839.99" cy="-473.3" rx="35.71" ry="22.63"/>
<text xml:space="preserve" text-anchor="middle" x="839.99" y="-475.8" font-family="Helvetica,sans-Serif" font-size="10.00" fill="#e0e0e0">tests2.</text>
<text xml:space="preserve" text-anchor="middle" x="839.99" y="-463.8" font-family="Helvetica,sans-Serif" font-size="10.00" fill="#e0e0e0">test_api</text>
</g>
<!-- django&#45;&gt;tests2_test_api -->
<g id="edge4" class="edge">
<title>django&#45;&gt;tests2_test_api</title><style>.edge>path:hover{stroke-width:8}</style>
<path fill="none" stroke="#ffffff" d="M123.17,-470.3C293.88,-476.02 337.27,-456.06 507.48,-470.3"/>
</g>
<!-- django_test -->
<g id="node2" class="node">
<title>django_test</title><style>.edge>path:hover{stroke-width:8}</style>
<ellipse fill="#d02424" stroke="#ffffff" cx="508.48" cy="-412.3" rx="38.49" ry="18"/>
<text xml:space="preserve" text-anchor="middle" x="508.48" y="-408.8" font-family="Helvetica,sans-Serif" font-size="10.00" fill="#e0e0e0">django.test</text>
</g>
<!-- django_test&#45;&gt;tests2_conftest -->
<g id="edge5" class="edge">
<title>django_test&#45;&gt;tests2_conftest</title><style>.edge>path:hover{stroke-width:8}</style>
<path fill="none" stroke="#ffffff" d="M546.11,-407.75C582.87,-403.88 641.09,-399.62 691.26,-404.3"/>
<path fill="none" stroke="#ffffff" d="M693.26,-404.3C726.25,-407.37 763.62,-407.3 792.26,-406.5"/>
<polygon fill="#d02424" stroke="#ffffff" points="792.17,-410 802.05,-406.18 791.94,-403.01 792.17,-410"/>
</g>
<!-- django_test&#45;&gt;tests2_test_api -->
<g id="edge6" class="edge">
<title>django_test&#45;&gt;tests2_test_api</title><style>.edge>path:hover{stroke-width:8}</style>
<path fill="none" stroke="#ffffff" d="M693.26,-404.3C715.65,-406.38 767.32,-433.02 802.71,-452.58"/>
<polygon fill="#d02424" stroke="#ffffff" points="800.91,-455.58 811.35,-457.39 804.32,-449.47 800.91,-455.58"/>
</g>
<!-- django_test_Client -->
<g id="node3" class="node">
<title>django_test_Client</title><style>.edge>path:hover{stroke-width:8}</style>
<ellipse fill="#b83d3d" stroke="#ffffff" cx="284.39" cy="-411.3" rx="33.59" ry="31.11"/>
<text xml:space="preserve" text-anchor="middle" x="284.39" y="-419.8" font-family="Helvetica,sans-Serif" font-size="10.00" fill="#e0e0e0">django.</text>
<text xml:space="preserve" text-anchor="middle" x="284.39" y="-407.8" font-family="Helvetica,sans-Serif" font-size="10.00" fill="#e0e0e0">test.</text>
<text xml:space="preserve" text-anchor="middle" x="284.39" y="-395.8" font-family="Helvetica,sans-Serif" font-size="10.00" fill="#e0e0e0">Client</text>
</g>
<!-- django_test_Client&#45;&gt;tests2_conftest -->
<g id="edge7" class="edge">
<title>django_test_Client&#45;&gt;tests2_conftest</title><style>.edge>path:hover{stroke-width:8}</style>
<path fill="none" stroke="#ffffff" d="M316.63,-401.56C359.26,-389.06 438.28,-368.69 507.48,-366.3"/>
</g>
<!-- django_test_Client&#45;&gt;tests2_test_api -->
<g id="edge8" class="edge">
<title>django_test_Client&#45;&gt;tests2_test_api</title><style>.edge>path:hover{stroke-width:8}</style>
<path fill="none" stroke="#ffffff" d="M509.48,-470.3C610.3,-479.66 729.2,-477.51 793,-475.29"/>
<polygon fill="#b83d3d" stroke="#ffffff" points="792.88,-478.8 802.75,-474.94 792.62,-471.8 792.88,-478.8"/>
<path fill="none" stroke="#ffffff" d="M315.68,-423C357.88,-438.46 437.11,-464.41 507.48,-470.3"/>
</g>
<!-- hypothesis -->
<g id="node4" class="node">
<title>hypothesis</title><style>.edge>path:hover{stroke-width:8}</style>
<ellipse fill="#f3d20c" stroke="#ffffff" cx="508.48" cy="-728.3" rx="38.03" ry="18"/>
<text xml:space="preserve" text-anchor="middle" x="508.48" y="-724.8" font-family="Helvetica,sans-Serif" font-size="10.00" fill="#e0e0e0">hypothesis</text>
</g>
<!-- hypothesis&#45;&gt;tests2_test_api -->
<g id="edge9" class="edge">
<title>hypothesis&#45;&gt;tests2_test_api</title><style>.edge>path:hover{stroke-width:8}</style>
<path fill="none" stroke="#ffffff" d="M544.21,-721.5C562.41,-716.97 584.59,-709.86 602.52,-699.3 693.57,-645.65 777.2,-550.57 816.09,-502.65"/>
<polygon fill="#f3d20c" stroke="#ffffff" points="818.78,-504.89 822.31,-494.9 813.32,-500.51 818.78,-504.89"/>
</g>
<!-- tests2_test_db -->
<g id="node20" class="node">
<title>tests2_test_db</title><style>.edge>path:hover{stroke-width:8}</style>
<ellipse fill="#a44697" stroke="#ffffff" cx="839.99" cy="-731.3" rx="47.05" ry="18"/>
<text xml:space="preserve" text-anchor="middle" x="839.99" y="-727.8" font-family="Helvetica,sans-Serif" font-size="10.00" fill="#e0e0e0">tests2.test_db</text>
</g>
<!-- hypothesis&#45;&gt;tests2_test_db -->
<g id="edge10" class="edge">
<title>hypothesis&#45;&gt;tests2_test_db</title><style>.edge>path:hover{stroke-width:8}</style>
<path fill="none" stroke="#ffffff" d="M693.26,-752.3C723.93,-749.97 757.96,-745.19 785.41,-740.78"/>
<polygon fill="#f3d20c" stroke="#ffffff" points="785.95,-744.24 795.26,-739.17 784.82,-737.33 785.95,-744.24"/>
</g>
<!-- tests2_test_security -->
<g id="node21" class="node">
<title>tests2_test_security</title><style>.edge>path:hover{stroke-width:8}</style>
<ellipse fill="#8f3d83" stroke="#ffffff" cx="839.99" cy="-607.3" rx="51.09" ry="22.63"/>
<text xml:space="preserve" text-anchor="middle" x="839.99" y="-609.8" font-family="Helvetica,sans-Serif" font-size="10.00" fill="#e0e0e0">tests2.</text>
<text xml:space="preserve" text-anchor="middle" x="839.99" y="-597.8" font-family="Helvetica,sans-Serif" font-size="10.00" fill="#e0e0e0">test_security</text>
</g>
<!-- hypothesis&#45;&gt;tests2_test_security -->
<g id="edge11" class="edge">
<title>hypothesis&#45;&gt;tests2_test_security</title><style>.edge>path:hover{stroke-width:8}</style>
<path fill="none" stroke="#ffffff" d="M542.54,-736.82C578.88,-745.22 639.05,-756.26 691.26,-752.3"/>
<path fill="none" stroke="#ffffff" d="M693.26,-752.3C755.79,-747.56 801.14,-681.02 823.43,-639.74"/>
<polygon fill="#f3d20c" stroke="#ffffff" points="826.5,-641.42 828.02,-630.94 820.29,-638.19 826.5,-641.42"/>
</g>
<!-- tests2_test_serializers -->
<g id="node22" class="node">
<title>tests2_test_serializers</title><style>.edge>path:hover{stroke-width:8}</style>
<ellipse fill="#a44697" stroke="#ffffff" cx="839.99" cy="-790.3" rx="57.98" ry="22.63"/>
<text xml:space="preserve" text-anchor="middle" x="839.99" y="-792.8" font-family="Helvetica,sans-Serif" font-size="10.00" fill="#e0e0e0">tests2.</text>
<text xml:space="preserve" text-anchor="middle" x="839.99" y="-780.8" font-family="Helvetica,sans-Serif" font-size="10.00" fill="#e0e0e0">test_serializers</text>
</g>
<!-- hypothesis&#45;&gt;tests2_test_serializers -->
<g id="edge12" class="edge">
<title>hypothesis&#45;&gt;tests2_test_serializers</title><style>.edge>path:hover{stroke-width:8}</style>
<path fill="none" stroke="#ffffff" d="M693.26,-752.3C726.29,-749.79 762.32,-759.07 790.28,-769.09"/>
<polygon fill="#f3d20c" stroke="#ffffff" points="788.96,-772.33 799.55,-772.56 791.41,-765.77 788.96,-772.33"/>
</g>
<!-- hypothesis_strategies -->
<g id="node5" class="node">
<title>hypothesis_strategies</title><style>.edge>path:hover{stroke-width:8}</style>
<ellipse fill="#ddc118" stroke="#ffffff" cx="508.48" cy="-789.3" rx="46.85" ry="22.63"/>
<text xml:space="preserve" text-anchor="middle" x="508.48" y="-791.8" font-family="Helvetica,sans-Serif" font-size="10.00" fill="#e0e0e0">hypothesis.</text>
<text xml:space="preserve" text-anchor="middle" x="508.48" y="-779.8" font-family="Helvetica,sans-Serif" font-size="10.00" fill="#e0e0e0">strategies</text>
</g>
<!-- hypothesis_strategies&#45;&gt;tests2_test_api -->
<g id="edge13" class="edge">
<title>hypothesis_strategies&#45;&gt;tests2_test_api</title><style>.edge>path:hover{stroke-width:8}</style>
<path fill="none" stroke="#ffffff" d="M553.71,-782.66C606.97,-772.32 695.56,-747.3 746,-690.3 781.5,-650.19 760.83,-624.49 782,-575.3 792.73,-550.39 807.79,-523.68 819.74,-503.84"/>
<polygon fill="#ddc118" stroke="#ffffff" points="822.65,-505.79 824.87,-495.43 816.67,-502.14 822.65,-505.79"/>
</g>
<!-- hypothesis_strategies&#45;&gt;tests2_test_db -->
<g id="edge14" class="edge">
<title>hypothesis_strategies&#45;&gt;tests2_test_db</title><style>.edge>path:hover{stroke-width:8}</style>
<path fill="none" stroke="#ffffff" d="M693.26,-790.3C713.65,-785.15 762.28,-764.83 797.77,-749.46"/>
<polygon fill="#ddc118" stroke="#ffffff" points="799.15,-752.68 806.93,-745.48 796.36,-746.26 799.15,-752.68"/>
</g>
<!-- hypothesis_strategies&#45;&gt;tests2_test_security -->
<g id="edge15" class="edge">
<title>hypothesis_strategies&#45;&gt;tests2_test_security</title><style>.edge>path:hover{stroke-width:8}</style>
<path fill="none" stroke="#ffffff" d="M693.26,-790.3C718.23,-784 726.92,-783.58 746,-766.3 769.62,-744.91 765.93,-731.81 782,-704.3 794.72,-682.52 809.1,-658.04 820.24,-639.12"/>
<polygon fill="#ddc118" stroke="#ffffff" points="823.23,-640.93 825.29,-630.54 817.2,-637.38 823.23,-640.93"/>
<path fill="none" stroke="#ffffff" d="M553.93,-795.67C591.2,-799.56 645.52,-801.84 691.26,-790.3"/>
</g>
<!-- hypothesis_strategies&#45;&gt;tests2_test_serializers -->
<g id="edge16" class="edge">
<title>hypothesis_strategies&#45;&gt;tests2_test_serializers</title><style>.edge>path:hover{stroke-width:8}</style>
<path fill="none" stroke="#ffffff" d="M693.26,-790.3C718.68,-783.88 747.4,-782.66 772.58,-783.48"/>
<polygon fill="#ddc118" stroke="#ffffff" points="772.22,-786.97 782.37,-783.92 772.54,-779.97 772.22,-786.97"/>
</g>
<!-- pytest -->
<g id="node6" class="node">
<title>pytest</title><style>.edge>path:hover{stroke-width:8}</style>
<ellipse fill="#55f316" stroke="#ffffff" cx="508.48" cy="-516.3" rx="27" ry="18"/>
<text xml:space="preserve" text-anchor="middle" x="508.48" y="-512.8" font-family="Helvetica,sans-Serif" font-size="10.00" fill="#e0e0e0">pytest</text>
</g>
<!-- pytest&#45;&gt;tests2_conftest -->
<g id="edge17" class="edge">
<title>pytest&#45;&gt;tests2_conftest</title><style>.edge>path:hover{stroke-width:8}</style>
<path fill="none" stroke="#ffffff" d="M533.18,-508.24C588.5,-489.44 726.8,-442.43 796.87,-418.61"/>
<polygon fill="#55f316" stroke="#ffffff" points="797.73,-422.02 806.08,-415.48 795.48,-415.39 797.73,-422.02"/>
</g>
<!-- tests2_helpers_test_logging -->
<g id="node18" class="node">
<title>tests2_helpers_test_logging</title><style>.edge>path:hover{stroke-width:8}</style>
<ellipse fill="#96408a" stroke="#ffffff" cx="982.41" cy="-276.3" rx="48.44" ry="31.11"/>
<text xml:space="preserve" text-anchor="middle" x="982.41" y="-284.8" font-family="Helvetica,sans-Serif" font-size="10.00" fill="#e0e0e0">tests2.</text>
<text xml:space="preserve" text-anchor="middle" x="982.41" y="-272.8" font-family="Helvetica,sans-Serif" font-size="10.00" fill="#e0e0e0">helpers.</text>
<text xml:space="preserve" text-anchor="middle" x="982.41" y="-260.8" font-family="Helvetica,sans-Serif" font-size="10.00" fill="#e0e0e0">test_logging</text>
</g>
<!-- pytest&#45;&gt;tests2_helpers_test_logging -->
<g id="edge18" class="edge">
<title>pytest&#45;&gt;tests2_helpers_test_logging</title><style>.edge>path:hover{stroke-width:8}</style>
<path fill="none" stroke="#ffffff" d="M693.26,-524.3C784.48,-529.57 825.62,-561.1 897.97,-505.3 955.91,-460.61 973.64,-371.81 979.05,-318.88"/>
<polygon fill="#55f316" stroke="#ffffff" points="982.53,-319.3 979.95,-309.02 975.56,-318.67 982.53,-319.3"/>
</g>
<!-- pytest&#45;&gt;tests2_test_api -->
<g id="edge19" class="edge">
<title>pytest&#45;&gt;tests2_test_api</title><style>.edge>path:hover{stroke-width:8}</style>
<path fill="none" stroke="#ffffff" d="M535.68,-517.22C571.02,-518.52 635.92,-521.09 691.26,-524.3"/>
<path fill="none" stroke="#ffffff" d="M693.26,-524.3C732.59,-526.57 774.78,-509.43 803.6,-494.41"/>
<polygon fill="#55f316" stroke="#ffffff" points="805.11,-497.57 812.24,-489.74 801.78,-491.41 805.11,-497.57"/>
</g>
<!-- pytest&#45;&gt;tests2_test_db -->
<g id="edge20" class="edge">
<title>pytest&#45;&gt;tests2_test_db</title><style>.edge>path:hover{stroke-width:8}</style>
<path fill="none" stroke="#ffffff" d="M693.26,-676.3C721.7,-696.51 758.49,-710.32 787.98,-719.04"/>
<polygon fill="#55f316" stroke="#ffffff" points="786.87,-722.37 797.44,-721.73 788.78,-715.63 786.87,-722.37"/>
<path fill="none" stroke="#ffffff" d="M529.24,-528.38C548.7,-540.66 578.86,-560.76 602.52,-581.3 646.17,-619.16 644.17,-642.82 691.26,-676.3"/>
</g>
<!-- pytest&#45;&gt;tests2_test_security -->
<g id="edge21" class="edge">
<title>pytest&#45;&gt;tests2_test_security</title><style>.edge>path:hover{stroke-width:8}</style>
<path fill="none" stroke="#ffffff" d="M693.26,-524.3C738.11,-526.89 781.84,-556.51 809.5,-579.64"/>
<polygon fill="#55f316" stroke="#ffffff" points="806.89,-582.01 816.75,-585.89 811.46,-576.71 806.89,-582.01"/>
</g>
<!-- pytest&#45;&gt;tests2_test_serializers -->
<g id="edge22" class="edge">
<title>pytest&#45;&gt;tests2_test_serializers</title><style>.edge>path:hover{stroke-width:8}</style>
<path fill="none" stroke="#ffffff" d="M693.26,-676.3C737.03,-707.41 738.58,-726.71 782,-758.3 785.82,-761.07 789.91,-763.8 794.07,-766.4"/>
<polygon fill="#55f316" stroke="#ffffff" points="792.16,-769.34 802.53,-771.48 795.76,-763.34 792.16,-769.34"/>
</g>
<!-- rest_framework_simplejwt -->
<g id="node7" class="node">
<title>rest_framework_simplejwt</title><style>.edge>path:hover{stroke-width:8}</style>
<ellipse fill="#53b68c" stroke="#ffffff" cx="508.48" cy="-672.3" rx="78.17" ry="18"/>
<text xml:space="preserve" text-anchor="middle" x="508.48" y="-668.8" font-family="Helvetica,sans-Serif" font-size="10.00" fill="#e0e0e0">rest_framework_simplejwt</text>
</g>
<!-- rest_framework_simplejwt&#45;&gt;tests2_test_security -->
<g id="edge23" class="edge">
<title>rest_framework_simplejwt&#45;&gt;tests2_test_security</title><style>.edge>path:hover{stroke-width:8}</style>
<path fill="none" stroke="#ffffff" d="M569.15,-660.53C629.52,-648.62 722.2,-630.33 781.7,-618.6"/>
<polygon fill="#53b68c" stroke="#ffffff" points="782.16,-622.07 791.29,-616.71 780.8,-615.21 782.16,-622.07"/>
</g>
<!-- rest_framework_simplejwt_exceptions&#45;&gt;rest_framework_simplejwt_tokens -->
<g id="edge24" class="edge">
<title>rest_framework_simplejwt_exceptions&#45;&gt;rest_framework_simplejwt_tokens</title><style>.edge>path:hover{stroke-width:8}</style>
<path fill="none" stroke="#ffffff" d="M335.94,-540.49C349.81,-546.01 364.79,-552.19 378.43,-558.3 394.76,-565.61 398.11,-568.99 414.43,-576.3 424.67,-580.88 435.65,-585.5 446.36,-589.85"/>
<polygon fill="#40c089" stroke="#ffffff" points="444.94,-593.06 455.53,-593.54 447.55,-586.56 444.94,-593.06"/>
</g>
<!-- rest_framework_simplejwt_exceptions&#45;&gt;tests2_test_security -->
<g id="edge25" class="edge">
<title>rest_framework_simplejwt_exceptions&#45;&gt;tests2_test_security</title><style>.edge>path:hover{stroke-width:8}</style>
<path fill="none" stroke="#ffffff" d="M693.26,-562.3C727.4,-565 764.24,-576.45 792.34,-587.13"/>
<polygon fill="#40c089" stroke="#ffffff" points="791.04,-590.38 801.63,-590.77 793.59,-583.86 791.04,-590.38"/>
<path fill="none" stroke="#ffffff" d="M359.58,-535.26C377.49,-538.26 396.61,-541.17 414.43,-543.3 536.89,-557.9 568.32,-552.57 691.26,-562.3"/>
</g>
<!-- rest_framework_simplejwt_tokens&#45;&gt;tests2_test_security -->
<g id="edge26" class="edge">
<title>rest_framework_simplejwt_tokens&#45;&gt;tests2_test_security</title><style>.edge>path:hover{stroke-width:8}</style>
<path fill="none" stroke="#ffffff" d="M561.51,-594.36C605.82,-579.04 666.18,-560.31 691.26,-562.3"/>
</g>
<!-- src2 -->
<g id="node10" class="node">
<title>src2</title><style>.edge>path:hover{stroke-width:8}</style>
<ellipse fill="#2f91db" stroke="#ffffff" cx="122.17" cy="-66.3" rx="27" ry="18"/>
<text xml:space="preserve" text-anchor="middle" x="122.17" y="-62.8" font-family="Helvetica,sans-Serif" font-size="10.00" fill="#e0e0e0">src2</text>
</g>
<!-- tests2_helpers_config_test_config -->
<g id="node17" class="node">
<title>tests2_helpers_config_test_config</title><style>.edge>path:hover{stroke-width:8}</style>
<ellipse fill="#9d4390" stroke="#ffffff" cx="839.99" cy="-66.3" rx="45.25" ry="39.6"/>
<text xml:space="preserve" text-anchor="middle" x="839.99" y="-80.8" font-family="Helvetica,sans-Serif" font-size="10.00" fill="#e0e0e0">tests2.</text>
<text xml:space="preserve" text-anchor="middle" x="839.99" y="-68.8" font-family="Helvetica,sans-Serif" font-size="10.00" fill="#e0e0e0">helpers.</text>
<text xml:space="preserve" text-anchor="middle" x="839.99" y="-56.8" font-family="Helvetica,sans-Serif" font-size="10.00" fill="#e0e0e0">config.</text>
<text xml:space="preserve" text-anchor="middle" x="839.99" y="-44.8" font-family="Helvetica,sans-Serif" font-size="10.00" fill="#e0e0e0">test_config</text>
</g>
<!-- src2&#45;&gt;tests2_helpers_config_test_config -->
<g id="edge27" class="edge">
<title>src2&#45;&gt;tests2_helpers_config_test_config</title><style>.edge>path:hover{stroke-width:8}</style>
<path fill="none" stroke="#ffffff" d="M693.26,-66.3C722.85,-62.94 756.03,-62.67 783.25,-63.35"/>
<polygon fill="#2f91db" stroke="#ffffff" points="782.9,-66.84 793.01,-63.65 783.12,-59.85 782.9,-66.84"/>
</g>
<!-- src2&#45;&gt;tests2_helpers_test_logging -->
<g id="edge28" class="edge">
<title>src2&#45;&gt;tests2_helpers_test_logging</title><style>.edge>path:hover{stroke-width:8}</style>
<path fill="none" stroke="#ffffff" d="M693.26,-66.3C738.03,-61.21 738.38,-28.54 782,-17.3 831.91,-4.43 856.31,13.05 897.97,-17.3 966.34,-67.1 979.89,-173.95 981.85,-233.67"/>
<polygon fill="#2f91db" stroke="#ffffff" points="978.35,-233.53 982.07,-243.45 985.35,-233.37 978.35,-233.53"/>
<path fill="none" stroke="#ffffff" d="M149.3,-68.07C230.13,-73.18 483.14,-86.33 691.26,-66.3"/>
</g>
<!-- src2_helpers -->
<g id="node11" class="node">
<title>src2_helpers</title><style>.edge>path:hover{stroke-width:8}</style>
<ellipse fill="#2f91db" stroke="#ffffff" cx="284.39" cy="-268.3" rx="41.64" ry="18"/>
<text xml:space="preserve" text-anchor="middle" x="284.39" y="-264.8" font-family="Helvetica,sans-Serif" font-size="10.00" fill="#e0e0e0">src2.helpers</text>
</g>
<!-- src2_helpers&#45;&gt;tests2_helpers_config_test_config -->
<g id="edge29" class="edge">
<title>src2_helpers&#45;&gt;tests2_helpers_config_test_config</title><style>.edge>path:hover{stroke-width:8}</style>
<path fill="none" stroke="#ffffff" d="M693.26,-276.3C717,-268.72 727.47,-273.94 746,-257.3 788.03,-219.55 813.05,-158.6 826.37,-115.72"/>
<polygon fill="#2f91db" stroke="#ffffff" points="829.65,-117 829.16,-106.41 822.94,-114.99 829.65,-117"/>
<path fill="none" stroke="#ffffff" d="M321.8,-276.68C394.23,-291.71 560.67,-317.98 691.26,-276.3"/>
</g>
<!-- src2_helpers&#45;&gt;tests2_helpers_test_logging -->
<g id="edge30" class="edge">
<title>src2_helpers&#45;&gt;tests2_helpers_test_logging</title><style>.edge>path:hover{stroke-width:8}</style>
<path fill="none" stroke="#ffffff" d="M693.26,-276.3C753.84,-253.37 774.24,-274.76 838.99,-276.3"/>
</g>
<!-- src2_helpers_config -->
<g id="node12" class="node">
<title>src2_helpers_config</title><style>.edge>path:hover{stroke-width:8}</style>
<ellipse fill="#3b8fce" stroke="#ffffff" cx="508.48" cy="-163.3" rx="35.71" ry="31.11"/>
<text xml:space="preserve" text-anchor="middle" x="508.48" y="-171.8" font-family="Helvetica,sans-Serif" font-size="10.00" fill="#e0e0e0">src2.</text>
<text xml:space="preserve" text-anchor="middle" x="508.48" y="-159.8" font-family="Helvetica,sans-Serif" font-size="10.00" fill="#e0e0e0">helpers.</text>
<text xml:space="preserve" text-anchor="middle" x="508.48" y="-147.8" font-family="Helvetica,sans-Serif" font-size="10.00" fill="#e0e0e0">config</text>
</g>
<!-- src2_helpers_logging_setup -->
<g id="node14" class="node">
<title>src2_helpers_logging_setup</title><style>.edge>path:hover{stroke-width:8}</style>
<ellipse fill="#407196" stroke="#ffffff" cx="692.26" cy="-217.3" rx="53.74" ry="31.11"/>
<text xml:space="preserve" text-anchor="middle" x="692.26" y="-225.8" font-family="Helvetica,sans-Serif" font-size="10.00" fill="#e0e0e0">src2.</text>
<text xml:space="preserve" text-anchor="middle" x="692.26" y="-213.8" font-family="Helvetica,sans-Serif" font-size="10.00" fill="#e0e0e0">helpers.</text>
<text xml:space="preserve" text-anchor="middle" x="692.26" y="-201.8" font-family="Helvetica,sans-Serif" font-size="10.00" fill="#e0e0e0">logging_setup</text>
</g>
<!-- src2_helpers_config&#45;&gt;src2_helpers_logging_setup -->
<g id="edge31" class="edge">
<title>src2_helpers_config&#45;&gt;src2_helpers_logging_setup</title><style>.edge>path:hover{stroke-width:8}</style>
<path fill="none" stroke="#ffffff" d="M542.82,-173.2C568.02,-180.69 603.24,-191.15 633.05,-200"/>
<polygon fill="#3b8fce" stroke="#ffffff" points="631.72,-203.26 642.3,-202.75 633.71,-196.55 631.72,-203.26"/>
</g>
<!-- src2_helpers_config&#45;&gt;tests2_helpers_config_test_config -->
<g id="edge32" class="edge">
<title>src2_helpers_config&#45;&gt;tests2_helpers_config_test_config</title><style>.edge>path:hover{stroke-width:8}</style>
<path fill="none" stroke="#ffffff" d="M541.42,-150.59C577.28,-136.88 637.51,-115.5 691.26,-104.3"/>
</g>
<!-- src2_helpers_config_config -->
<g id="node13" class="node">
<title>src2_helpers_config_config</title><style>.edge>path:hover{stroke-width:8}</style>
<ellipse fill="#3a7eb0" stroke="#ffffff" cx="284.39" cy="-144.3" rx="35.71" ry="39.6"/>
<text xml:space="preserve" text-anchor="middle" x="284.39" y="-158.8" font-family="Helvetica,sans-Serif" font-size="10.00" fill="#e0e0e0">src2.</text>
<text xml:space="preserve" text-anchor="middle" x="284.39" y="-146.8" font-family="Helvetica,sans-Serif" font-size="10.00" fill="#e0e0e0">helpers.</text>
<text xml:space="preserve" text-anchor="middle" x="284.39" y="-134.8" font-family="Helvetica,sans-Serif" font-size="10.00" fill="#e0e0e0">config.</text>
<text xml:space="preserve" text-anchor="middle" x="284.39" y="-122.8" font-family="Helvetica,sans-Serif" font-size="10.00" fill="#e0e0e0">config</text>
</g>
<!-- src2_helpers_config_config&#45;&gt;src2_helpers_logging_setup -->
<g id="edge33" class="edge">
<title>src2_helpers_config_config&#45;&gt;src2_helpers_logging_setup</title><style>.edge>path:hover{stroke-width:8}</style>
<path fill="none" stroke="#ffffff" d="M509.48,-222.3C548.52,-225.13 592.38,-224.05 627.24,-222.18"/>
<polygon fill="#3a7eb0" stroke="#ffffff" points="627.41,-225.67 637.19,-221.6 627,-218.69 627.41,-225.67"/>
<path fill="none" stroke="#ffffff" d="M316.93,-161.17C342.57,-174.29 380,-192.07 414.43,-203.3 454.56,-216.38 465.38,-219.24 507.48,-222.3"/>
</g>
<!-- src2_helpers_config_config&#45;&gt;tests2_helpers_config_test_config -->
<g id="edge34" class="edge">
<title>src2_helpers_config_config&#45;&gt;tests2_helpers_config_test_config</title><style>.edge>path:hover{stroke-width:8}</style>
<path fill="none" stroke="#ffffff" d="M320.05,-137.76C345.96,-133.09 382.3,-127.01 414.43,-123.3 536.95,-109.15 570.53,-129.46 691.26,-104.3"/>
<path fill="none" stroke="#ffffff" d="M693.26,-104.3C723.94,-97.24 758,-88.41 785.47,-81.04"/>
<polygon fill="#3a7eb0" stroke="#ffffff" points="786.22,-84.47 794.96,-78.48 784.4,-77.71 786.22,-84.47"/>
</g>
<!-- src2_helpers_logging_setup&#45;&gt;tests2_helpers_test_logging -->
<g id="edge35" class="edge">
<title>src2_helpers_logging_setup&#45;&gt;tests2_helpers_test_logging</title><style>.edge>path:hover{stroke-width:8}</style>
<path fill="none" stroke="#ffffff" d="M840.99,-276.3C867.72,-276.93 897.33,-277.02 922.44,-276.92"/>
<polygon fill="#407196" stroke="#ffffff" points="922.14,-280.42 932.12,-276.87 922.1,-273.42 922.14,-280.42"/>
<path fill="none" stroke="#ffffff" d="M729.09,-240.26C757.64,-256.43 799.29,-275.36 838.99,-276.3"/>
</g>
<!-- structlog -->
<g id="node15" class="node">
<title>structlog</title><style>.edge>path:hover{stroke-width:8}</style>
<ellipse fill="#5f33cc" stroke="#ffffff" cx="122.17" cy="-268.3" rx="32.17" ry="18"/>
<text xml:space="preserve" text-anchor="middle" x="122.17" y="-264.8" font-family="Helvetica,sans-Serif" font-size="10.00" fill="#e0e0e0">structlog</text>
</g>
<!-- structlog&#45;&gt;src2_helpers_logging_setup -->
<g id="edge36" class="edge">
<title>structlog&#45;&gt;src2_helpers_logging_setup</title><style>.edge>path:hover{stroke-width:8}</style>
<path fill="none" stroke="#ffffff" d="M147.13,-256.47C159.69,-250.84 175.51,-244.63 190.34,-241.3 328.11,-210.34 366.65,-212.06 507.48,-222.3"/>
</g>
<!-- structlog&#45;&gt;tests2_helpers_test_logging -->
<g id="edge37" class="edge">
<title>structlog&#45;&gt;tests2_helpers_test_logging</title><style>.edge>path:hover{stroke-width:8}</style>
<path fill="none" stroke="#ffffff" d="M146.77,-280.21C159.36,-285.94 175.32,-292.22 190.34,-295.3 287.93,-315.31 314.82,-299.19 414.43,-300.3 561.86,-301.94 599.46,-306.41 746,-290.3 787.55,-285.73 797.21,-275.31 838.99,-276.3"/>
</g>
</g>
</svg>

