<?xml version="1.0" encoding="UTF-8" standalone="no"?>
<!DOCTYPE svg PUBLIC "-//W3C//DTD SVG 1.1//EN"
 "http://www.w3.org/Graphics/SVG/1.1/DTD/svg11.dtd">
<!-- Generated by graphviz version 15.0.0 (20260523.1842)
 -->
<!-- Title: G Pages: 1 -->
<svg style="background-color:#141414" width="1718pt" height="814pt"
 viewBox="0.00 0.00 1718.00 814.00" xmlns="http://www.w3.org/2000/svg" xmlns:xlink="http://www.w3.org/1999/xlink">
<g id="graph0" class="graph" transform="scale(1 1) rotate(0) translate(4 810)">
<title>G</title><style>.edge>path:hover{stroke-width:8}</style>
<polygon fill="#141414" stroke="none" points="-4,4 -4,-810 1714.24,-810 1714.24,4 -4,4"/>
<!-- annotated_doc -->
<g id="node1" class="node">
<title>annotated_doc</title><style>.edge>path:hover{stroke-width:8}</style>
<polygon fill="#f90606" stroke="#ffffff" points="1067,-314 1064,-318 1043,-318 1040,-314 987.25,-314 987.25,-278 1067,-278 1067,-314"/>
<text xml:space="preserve" text-anchor="middle" x="1027.12" y="-292.5" font-family="Helvetica,sans-Serif" font-size="10.00" fill="#e0e0e0">annotated_doc</text>
</g>
<!-- fastapi -->
<g id="node7" class="node">
<title>fastapi</title><style>.edge>path:hover{stroke-width:8}</style>
<polygon fill="#5a5a5a" stroke="#ffffff" points="1266.25,-268 1263.25,-272 1242.25,-272 1239.25,-268 1212.25,-268 1212.25,-232 1266.25,-232 1266.25,-268"/>
<text xml:space="preserve" text-anchor="middle" x="1239.25" y="-246.5" font-family="Helvetica,sans-Serif" font-size="10.00" fill="#e0e0e0">fastapi</text>
</g>
<!-- annotated_doc&#45;&gt;fastapi -->
<g id="edge1" class="edge">
<title>annotated_doc&#45;&gt;fastapi</title><style>.edge>path:hover{stroke-width:8}</style>
<path fill="none" stroke="#ffffff" d="M1055.85,-277.7C1075.37,-266.28 1102.63,-253.16 1129,-250"/>
</g>
<!-- annotated_types -->
<g id="node2" class="node">
<title>annotated_types</title><style>.edge>path:hover{stroke-width:8}</style>
<polygon fill="#d94b26" stroke="#ffffff" points="508,-456 505,-460 484,-460 481,-456 420,-456 420,-420 508,-420 508,-456"/>
<text xml:space="preserve" text-anchor="middle" x="464" y="-434.5" font-family="Helvetica,sans-Serif" font-size="10.00" fill="#e0e0e0">annotated_types</text>
</g>
<!-- pydantic -->
<g id="node15" class="node">
<title>pydantic</title><style>.edge>path:hover{stroke-width:8}</style>
<polygon fill="#5a5a5a" stroke="#ffffff" points="945.5,-417 942.5,-421 921.5,-421 918.5,-417 891.5,-417 891.5,-381 945.5,-381 945.5,-417"/>
<text xml:space="preserve" text-anchor="middle" x="918.5" y="-395.5" font-family="Helvetica,sans-Serif" font-size="10.00" fill="#e0e0e0">pydantic</text>
</g>
<!-- annotated_types&#45;&gt;pydantic -->
<g id="edge2" class="edge">
<title>annotated_types&#45;&gt;pydantic</title><style>.edge>path:hover{stroke-width:8}</style>
<path fill="none" stroke="#ffffff" d="M481.46,-419.52C509.35,-389.78 569.2,-332.47 634,-311 672.71,-298.17 689,-293.34 725.75,-311 748.83,-322.1 742.2,-339.45 761.75,-356 778.45,-370.14 783.46,-374.91 804.75,-380"/>
<path fill="none" stroke="#ffffff" d="M806.75,-380C831.01,-385.39 858.56,-390.13 880.11,-393.52"/>
<polygon fill="#d94b26" stroke="#ffffff" points="879.49,-396.96 889.91,-395.03 880.56,-390.05 879.49,-396.96"/>
</g>
<!-- anyio -->
<g id="node3" class="node">
<title>anyio</title><style>.edge>path:hover{stroke-width:8}</style>
<polygon fill="#5a5a5a" stroke="#ffffff" points="945.5,-134 942.5,-138 921.5,-138 918.5,-134 891.5,-134 891.5,-98 945.5,-98 945.5,-134"/>
<text xml:space="preserve" text-anchor="middle" x="918.5" y="-112.5" font-family="Helvetica,sans-Serif" font-size="10.00" fill="#e0e0e0">anyio</text>
</g>
<!-- anyio&#45;&gt;fastapi -->
<g id="edge3" class="edge">
<title>anyio&#45;&gt;fastapi</title><style>.edge>path:hover{stroke-width:8}</style>
<path fill="none" stroke="#ffffff" d="M945.9,-115.66C967.55,-115.7 998.93,-116.49 1026.12,-120"/>
<path fill="none" stroke="#ffffff" d="M1028.12,-120C1085.55,-127.41 1107.42,-109.1 1157,-139 1189.17,-158.4 1212.49,-195.88 1225.68,-221.89"/>
<polygon fill="#5a5a5a" stroke="#ffffff" points="1222.37,-223.08 1229.89,-230.55 1228.67,-220.02 1222.37,-223.08"/>
</g>
<!-- starlette -->
<g id="node24" class="node">
<title>starlette</title><style>.edge>path:hover{stroke-width:8}</style>
<polygon fill="#c110f9" stroke="#ffffff" points="1157,-184 1154,-188 1133,-188 1130,-184 1103,-184 1103,-148 1157,-148 1157,-184"/>
<text xml:space="preserve" text-anchor="middle" x="1130" y="-162.5" font-family="Helvetica,sans-Serif" font-size="10.00" fill="#e0e0e0">starlette</text>
</g>
<!-- anyio&#45;&gt;starlette -->
<g id="edge4" class="edge">
<title>anyio&#45;&gt;starlette</title><style>.edge>path:hover{stroke-width:8}</style>
<path fill="none" stroke="#ffffff" d="M1028.12,-120C1050.73,-122.92 1074.01,-132.98 1092.5,-142.95"/>
<polygon fill="#5a5a5a" stroke="#ffffff" points="1090.77,-145.99 1101.2,-147.85 1094.2,-139.89 1090.77,-145.99"/>
</g>
<!-- click -->
<g id="node4" class="node">
<title>click</title><style>.edge>path:hover{stroke-width:8}</style>
<polygon fill="#5a5a5a" stroke="#ffffff" points="491,-806 488,-810 467,-810 464,-806 437,-806 437,-770 491,-770 491,-806"/>
<text xml:space="preserve" text-anchor="middle" x="464" y="-784.5" font-family="Helvetica,sans-Serif" font-size="10.00" fill="#e0e0e0">click</text>
</g>
<!-- uvicorn -->
<g id="node29" class="node">
<title>uvicorn</title><style>.edge>path:hover{stroke-width:8}</style>
<polygon fill="#5a5a5a" stroke="#ffffff" points="832.75,-666 829.75,-670 808.75,-670 805.75,-666 778.75,-666 778.75,-630 832.75,-630 832.75,-666"/>
<text xml:space="preserve" text-anchor="middle" x="805.75" y="-644.5" font-family="Helvetica,sans-Serif" font-size="10.00" fill="#e0e0e0">uvicorn</text>
</g>
<!-- click&#45;&gt;uvicorn -->
<g id="edge5" class="edge">
<title>click&#45;&gt;uvicorn</title><style>.edge>path:hover{stroke-width:8}</style>
<path fill="none" stroke="#ffffff" d="M491.45,-787.08C512.75,-786.08 543.43,-784.04 570,-780"/>
</g>
<!-- colorama -->
<g id="node5" class="node">
<title>colorama</title><style>.edge>path:hover{stroke-width:8}</style>
<polygon fill="#5a5a5a" stroke="#ffffff" points="276.5,-760 273.5,-764 252.5,-764 249.5,-760 220.75,-760 220.75,-724 276.5,-724 276.5,-760"/>
<text xml:space="preserve" text-anchor="middle" x="248.62" y="-738.5" font-family="Helvetica,sans-Serif" font-size="10.00" fill="#e0e0e0">colorama</text>
</g>
<!-- colorama&#45;&gt;click -->
<g id="edge6" class="edge">
<title>colorama&#45;&gt;click</title><style>.edge>path:hover{stroke-width:8}</style>
<path fill="none" stroke="#ffffff" d="M349.25,-750C375.82,-752.79 404.34,-762.33 426.17,-771.15"/>
<polygon fill="#5a5a5a" stroke="#ffffff" points="424.65,-774.31 435.22,-774.94 427.35,-767.85 424.65,-774.31"/>
</g>
<!-- structlog -->
<g id="node25" class="node">
<title>structlog</title><style>.edge>path:hover{stroke-width:8}</style>
<polygon fill="#5a5a5a" stroke="#ffffff" points="832.75,-612 829.75,-616 808.75,-616 805.75,-612 778.75,-612 778.75,-576 832.75,-576 832.75,-612"/>
<text xml:space="preserve" text-anchor="middle" x="805.75" y="-590.5" font-family="Helvetica,sans-Serif" font-size="10.00" fill="#e0e0e0">structlog</text>
</g>
<!-- colorama&#45;&gt;structlog -->
<g id="edge7" class="edge">
<title>colorama&#45;&gt;structlog</title><style>.edge>path:hover{stroke-width:8}</style>
<path fill="none" stroke="#ffffff" d="M349.25,-750C460.11,-761.63 495.09,-760.84 598,-718 616.71,-710.21 617.12,-701.22 634,-690 678.72,-660.27 733.24,-630.69 768.45,-612.39"/>
<polygon fill="#5a5a5a" stroke="#ffffff" points="769.67,-615.7 776.95,-608 766.45,-609.48 769.67,-615.7"/>
<path fill="none" stroke="#ffffff" d="M276.63,-743.55C296.27,-744.84 323.47,-746.96 347.25,-750"/>
</g>
<!-- dotenv -->
<g id="node6" class="node">
<title>dotenv</title><style>.edge>path:hover{stroke-width:8}</style>
<polygon fill="#bfc431" stroke="#ffffff" points="598,-642 595,-646 574,-646 571,-642 544,-642 544,-606 598,-606 598,-642"/>
<text xml:space="preserve" text-anchor="middle" x="571" y="-620.5" font-family="Helvetica,sans-Serif" font-size="10.00" fill="#e0e0e0">dotenv</text>
</g>
<!-- dotenv&#45;&gt;pydantic -->
<g id="edge8" class="edge">
<title>dotenv&#45;&gt;pydantic</title><style>.edge>path:hover{stroke-width:8}</style>
<path fill="none" stroke="#ffffff" d="M680.88,-552C701.11,-541.43 708.84,-542.34 725.75,-527 746.57,-508.11 740.08,-492.91 761.75,-475 777.86,-461.69 785.56,-464.26 804.75,-456"/>
<path fill="none" stroke="#ffffff" d="M594.01,-605.51C605.57,-596.17 620.18,-584.96 634,-576 652.98,-563.7 658.83,-562.47 678.88,-552"/>
</g>
<!-- pydantic_settings -->
<g id="node17" class="node">
<title>pydantic_settings</title><style>.edge>path:hover{stroke-width:8}</style>
<polygon fill="#5a5a5a" stroke="#ffffff" points="1285.5,-463 1282.5,-467 1261.5,-467 1258.5,-463 1193,-463 1193,-427 1285.5,-427 1285.5,-463"/>
<text xml:space="preserve" text-anchor="middle" x="1239.25" y="-441.5" font-family="Helvetica,sans-Serif" font-size="10.00" fill="#e0e0e0">pydantic_settings</text>
</g>
<!-- dotenv&#45;&gt;pydantic_settings -->
<g id="edge9" class="edge">
<title>dotenv&#45;&gt;pydantic_settings</title><style>.edge>path:hover{stroke-width:8}</style>
<path fill="none" stroke="#ffffff" d="M680.88,-552C748.02,-516.94 776.5,-548.28 849.75,-529 881.1,-520.75 885.1,-501.08 917.5,-502"/>
</g>
<!-- dotenv&#45;&gt;uvicorn -->
<g id="edge10" class="edge">
<title>dotenv&#45;&gt;uvicorn</title><style>.edge>path:hover{stroke-width:8}</style>
<path fill="none" stroke="#ffffff" d="M598.25,-626.71C639.57,-630.97 719.94,-639.25 767.31,-644.14"/>
<polygon fill="#bfc431" stroke="#ffffff" points="766.79,-647.6 777.09,-645.15 767.51,-640.64 766.79,-647.6"/>
</g>
<!-- main_py -->
<g id="node11" class="node">
<title>main_py</title><style>.edge>path:hover{stroke-width:8}</style>
<ellipse fill="#356338" stroke="#ffffff" cx="1679.87" cy="-494" rx="30.37" ry="18"/>
<text xml:space="preserve" text-anchor="middle" x="1679.87" y="-490.5" font-family="Helvetica,sans-Serif" font-size="10.00" fill="#e0e0e0">main.py</text>
</g>
<!-- fastapi&#45;&gt;main_py -->
<g id="edge11" class="edge">
<title>fastapi&#45;&gt;main_py</title><style>.edge>path:hover{stroke-width:8}</style>
<path fill="none" stroke="#ffffff" d="M1322.5,-361C1356.42,-384.73 1374.65,-368.23 1412.5,-385 1473.93,-412.21 1484.37,-428.6 1539.5,-467 1555.91,-478.43 1555.57,-492.34 1575.5,-494"/>
<path fill="none" stroke="#ffffff" d="M1576.5,-494C1596.71,-494.05 1619.17,-494.05 1637.89,-494.04"/>
<polygon fill="#5a5a5a" stroke="#ffffff" points="1637.79,-497.54 1647.79,-494.04 1637.79,-490.54 1637.79,-497.54"/>
<path fill="none" stroke="#ffffff" d="M1249.71,-268.45C1262.9,-292.58 1288.9,-334.85 1321.5,-361"/>
</g>
<!-- src -->
<g id="node22" class="node">
<title>src</title><style>.edge>path:hover{stroke-width:8}</style>
<polygon fill="#6010f9" stroke="#ffffff" points="1539.5,-512 1536.5,-516 1515.5,-516 1512.5,-512 1485.5,-512 1485.5,-476 1539.5,-476 1539.5,-512"/>
<text xml:space="preserve" text-anchor="middle" x="1512.5" y="-490.5" font-family="Helvetica,sans-Serif" font-size="10.00" fill="#e0e0e0">src</text>
</g>
<!-- fastapi&#45;&gt;src -->
<g id="edge12" class="edge">
<title>fastapi&#45;&gt;src</title><style>.edge>path:hover{stroke-width:8}</style>
<path fill="none" stroke="#ffffff" d="M1322.5,-361C1348.98,-379.53 1361.17,-376.63 1384.5,-399"/>
</g>
<!-- greenlet -->
<g id="node8" class="node">
<title>greenlet</title><style>.edge>path:hover{stroke-width:8}</style>
<polygon fill="#87cc33" stroke="#ffffff" points="598,-456 595,-460 574,-460 571,-456 544,-456 544,-420 598,-420 598,-456"/>
<text xml:space="preserve" text-anchor="middle" x="571" y="-434.5" font-family="Helvetica,sans-Serif" font-size="10.00" fill="#e0e0e0">greenlet</text>
</g>
<!-- sqlalchemy -->
<g id="node21" class="node">
<title>sqlalchemy</title><style>.edge>path:hover{stroke-width:8}</style>
<polygon fill="#5a5a5a" stroke="#ffffff" points="951.25,-36 948.25,-40 927.25,-40 924.25,-36 885.75,-36 885.75,0 951.25,0 951.25,-36"/>
<text xml:space="preserve" text-anchor="middle" x="918.5" y="-14.5" font-family="Helvetica,sans-Serif" font-size="10.00" fill="#e0e0e0">sqlalchemy</text>
</g>
<!-- greenlet&#45;&gt;sqlalchemy -->
<g id="edge13" class="edge">
<title>greenlet&#45;&gt;sqlalchemy</title><style>.edge>path:hover{stroke-width:8}</style>
<path fill="none" stroke="#ffffff" d="M588.46,-419.78C591.89,-415.45 595.29,-410.71 598,-406 620.52,-366.87 613.02,-350.98 634,-311 680.43,-222.52 687.48,-192.85 761.75,-126 794.86,-96.19 813.29,-103.6 849.75,-78 864.13,-67.9 878.88,-55.17 890.93,-44.04"/>
<polygon fill="#87cc33" stroke="#ffffff" points="893.19,-46.72 898.08,-37.32 888.4,-41.62 893.19,-46.72"/>
</g>
<!-- greenlet&#45;&gt;structlog -->
<g id="edge14" class="edge">
<title>greenlet&#45;&gt;structlog</title><style>.edge>path:hover{stroke-width:8}</style>
<path fill="none" stroke="#ffffff" d="M598.33,-454.67C629.11,-474.27 681.5,-507.94 725.75,-538 740.44,-547.98 756.46,-559.25 770.2,-569.06"/>
<polygon fill="#87cc33" stroke="#ffffff" points="767.91,-571.73 778.08,-574.7 771.99,-566.03 767.91,-571.73"/>
</g>
<!-- h11 -->
<g id="node9" class="node">
<title>h11</title><style>.edge>path:hover{stroke-width:8}</style>
<polygon fill="#569933" stroke="#ffffff" points="375.25,-722 372.25,-726 351.25,-726 348.25,-722 321.25,-722 321.25,-686 375.25,-686 375.25,-722"/>
<text xml:space="preserve" text-anchor="middle" x="348.25" y="-700.5" font-family="Helvetica,sans-Serif" font-size="10.00" fill="#e0e0e0">h11</text>
</g>
<!-- h11&#45;&gt;uvicorn -->
<g id="edge15" class="edge">
<title>h11&#45;&gt;uvicorn</title><style>.edge>path:hover{stroke-width:8}</style>
<path fill="none" stroke="#ffffff" d="M572,-780C629.62,-771.24 624.69,-725.47 678.88,-704"/>
<path fill="none" stroke="#ffffff" d="M375.6,-713.43C433.07,-733.95 564.99,-780.76 570,-780"/>
</g>
<!-- idna -->
<g id="node10" class="node">
<title>idna</title><style>.edge>path:hover{stroke-width:8}</style>
<polygon fill="#5a5a5a" stroke="#ffffff" points="598,-226 595,-230 574,-230 571,-226 544,-226 544,-190 598,-190 598,-226"/>
<text xml:space="preserve" text-anchor="middle" x="571" y="-204.5" font-family="Helvetica,sans-Serif" font-size="10.00" fill="#e0e0e0">idna</text>
</g>
<!-- idna&#45;&gt;anyio -->
<g id="edge16" class="edge">
<title>idna&#45;&gt;anyio</title><style>.edge>path:hover{stroke-width:8}</style>
<path fill="none" stroke="#ffffff" d="M598.37,-199.68C641.36,-186.26 729.32,-159.38 804.75,-140"/>
</g>
<!-- markdown_it -->
<g id="node12" class="node">
<title>markdown_it</title><style>.edge>path:hover{stroke-width:8}</style>
<polygon fill="#5a5a5a" stroke="#ffffff" points="384,-630 381,-634 360,-634 357,-630 312.5,-630 312.5,-594 384,-594 384,-630"/>
<text xml:space="preserve" text-anchor="middle" x="348.25" y="-608.5" font-family="Helvetica,sans-Serif" font-size="10.00" fill="#e0e0e0">markdown_it</text>
</g>
<!-- rich -->
<g id="node20" class="node">
<title>rich</title><style>.edge>path:hover{stroke-width:8}</style>
<polygon fill="#5a5a5a" stroke="#ffffff" points="598,-584 595,-588 574,-588 571,-584 544,-584 544,-548 598,-548 598,-584"/>
<text xml:space="preserve" text-anchor="middle" x="571" y="-562.5" font-family="Helvetica,sans-Serif" font-size="10.00" fill="#e0e0e0">rich</text>
</g>
<!-- markdown_it&#45;&gt;rich -->
<g id="edge17" class="edge">
<title>markdown_it&#45;&gt;rich</title><style>.edge>path:hover{stroke-width:8}</style>
<path fill="none" stroke="#ffffff" d="M377.44,-593.56C399.72,-580.76 432.11,-566 463,-566"/>
</g>
<!-- mdurl -->
<g id="node13" class="node">
<title>mdurl</title><style>.edge>path:hover{stroke-width:8}</style>
<polygon fill="#5a5a5a" stroke="#ffffff" points="54,-634 51,-638 30,-638 27,-634 0,-634 0,-598 54,-598 54,-634"/>
<text xml:space="preserve" text-anchor="middle" x="27" y="-612.5" font-family="Helvetica,sans-Serif" font-size="10.00" fill="#e0e0e0">mdurl</text>
</g>
<!-- mdurl&#45;&gt;markdown_it -->
<g id="edge18" class="edge">
<title>mdurl&#45;&gt;markdown_it</title><style>.edge>path:hover{stroke-width:8}</style>
<path fill="none" stroke="#ffffff" d="M54.4,-615.67C108.63,-614.99 233.17,-613.43 301.06,-612.58"/>
<polygon fill="#5a5a5a" stroke="#ffffff" points="300.78,-616.08 310.73,-612.46 300.69,-609.08 300.78,-616.08"/>
</g>
<!-- multipart -->
<g id="node14" class="node">
<title>multipart</title><style>.edge>path:hover{stroke-width:8}</style>
<polygon fill="#33cc9d" stroke="#ffffff" points="945.5,-226 942.5,-230 921.5,-230 918.5,-226 891.5,-226 891.5,-190 945.5,-190 945.5,-226"/>
<text xml:space="preserve" text-anchor="middle" x="918.5" y="-204.5" font-family="Helvetica,sans-Serif" font-size="10.00" fill="#e0e0e0">multipart</text>
</g>
<!-- multipart&#45;&gt;fastapi -->
<g id="edge19" class="edge">
<title>multipart&#45;&gt;fastapi</title><style>.edge>path:hover{stroke-width:8}</style>
<path fill="none" stroke="#ffffff" d="M1131,-250C1154.03,-247.24 1180.04,-247.17 1200.67,-247.82"/>
<polygon fill="#33cc9d" stroke="#ffffff" points="1200.5,-251.31 1210.63,-248.21 1200.77,-244.32 1200.5,-251.31"/>
<path fill="none" stroke="#ffffff" d="M1028.12,-212C1076.03,-211.95 1081.43,-255.7 1129,-250"/>
</g>
<!-- multipart&#45;&gt;starlette -->
<g id="edge20" class="edge">
<title>multipart&#45;&gt;starlette</title><style>.edge>path:hover{stroke-width:8}</style>
<path fill="none" stroke="#ffffff" d="M945.78,-209.55C967.36,-210.69 998.71,-212.03 1026.12,-212"/>
<path fill="none" stroke="#ffffff" d="M1028.12,-212C1051.78,-211.98 1075.98,-201.37 1094.74,-190.35"/>
<polygon fill="#33cc9d" stroke="#ffffff" points="1096.35,-193.47 1103.01,-185.23 1092.66,-187.52 1096.35,-193.47"/>
</g>
<!-- pydantic&#45;&gt;fastapi -->
<g id="edge21" class="edge">
<title>pydantic&#45;&gt;fastapi</title><style>.edge>path:hover{stroke-width:8}</style>
<path fill="none" stroke="#ffffff" d="M1131,-399C1187.75,-390.29 1217.74,-320.06 1230.53,-279.2"/>
<polygon fill="#5a5a5a" stroke="#ffffff" points="1233.85,-280.32 1233.33,-269.74 1227.13,-278.34 1233.85,-280.32"/>
<path fill="none" stroke="#ffffff" d="M945.82,-401.54C985.72,-404.83 1063.75,-409.01 1129,-399"/>
</g>
<!-- pydantic&#45;&gt;pydantic_settings -->
<g id="edge22" class="edge">
<title>pydantic&#45;&gt;pydantic_settings</title><style>.edge>path:hover{stroke-width:8}</style>
<path fill="none" stroke="#ffffff" d="M1131,-399C1144.1,-396.99 1171.81,-409.05 1195.79,-421.32"/>
<polygon fill="#5a5a5a" stroke="#ffffff" points="1193.96,-424.31 1204.44,-425.85 1197.2,-418.11 1193.96,-424.31"/>
</g>
<!-- pydantic&#45;&gt;src -->
<g id="edge23" class="edge">
<title>pydantic&#45;&gt;src</title><style>.edge>path:hover{stroke-width:8}</style>
<path fill="none" stroke="#ffffff" d="M1131,-399C1186.42,-388.9 1343.84,-360.01 1384.5,-399"/>
</g>
<!-- pydantic_core -->
<g id="node16" class="node">
<title>pydantic_core</title><style>.edge>path:hover{stroke-width:8}</style>
<polygon fill="#5a5a5a" stroke="#ffffff" points="718.25,-410 715.25,-414 694.25,-414 691.25,-410 641.5,-410 641.5,-374 718.25,-374 718.25,-410"/>
<text xml:space="preserve" text-anchor="middle" x="679.88" y="-388.5" font-family="Helvetica,sans-Serif" font-size="10.00" fill="#e0e0e0">pydantic_core</text>
</g>
<!-- pydantic_core&#45;&gt;fastapi -->
<g id="edge24" class="edge">
<title>pydantic_core&#45;&gt;fastapi</title><style>.edge>path:hover{stroke-width:8}</style>
<path fill="none" stroke="#ffffff" d="M711.13,-373.62C735.44,-360.41 770.98,-344.5 804.75,-342"/>
</g>
<!-- pydantic_core&#45;&gt;pydantic -->
<g id="edge25" class="edge">
<title>pydantic_core&#45;&gt;pydantic</title><style>.edge>path:hover{stroke-width:8}</style>
<path fill="none" stroke="#ffffff" d="M718.72,-381.94C743.48,-376.92 776.38,-373.21 804.75,-380"/>
</g>
<!-- pydantic_core&#45;&gt;pydantic_settings -->
<g id="edge26" class="edge">
<title>pydantic_core&#45;&gt;pydantic_settings</title><style>.edge>path:hover{stroke-width:8}</style>
<path fill="none" stroke="#ffffff" d="M718.51,-393.86C744.24,-396.52 778.33,-402.89 804.75,-418"/>
</g>
<!-- pydantic_settings&#45;&gt;src -->
<g id="edge27" class="edge">
<title>pydantic_settings&#45;&gt;src</title><style>.edge>path:hover{stroke-width:8}</style>
<path fill="none" stroke="#ffffff" d="M1285.89,-457.94C1307.67,-463.46 1334.23,-469.26 1358.5,-472 1382.35,-474.69 1389.73,-479.59 1412.5,-472 1431.47,-465.68 1429.57,-438.55 1448.5,-445"/>
</g>
<!-- pygments -->
<g id="node18" class="node">
<title>pygments</title><style>.edge>path:hover{stroke-width:8}</style>
<polygon fill="#5a5a5a" stroke="#ffffff" points="377.62,-538 374.62,-542 353.62,-542 350.62,-538 318.88,-538 318.88,-502 377.62,-502 377.62,-538"/>
<text xml:space="preserve" text-anchor="middle" x="348.25" y="-516.5" font-family="Helvetica,sans-Serif" font-size="10.00" fill="#e0e0e0">pygments</text>
</g>
<!-- pygments&#45;&gt;rich -->
<g id="edge28" class="edge">
<title>pygments&#45;&gt;rich</title><style>.edge>path:hover{stroke-width:8}</style>
<path fill="none" stroke="#ffffff" d="M377.44,-538.44C399.72,-551.24 432.11,-566 463,-566"/>
<path fill="none" stroke="#ffffff" d="M465,-566C487.3,-566 512.25,-566 532.24,-566"/>
<polygon fill="#5a5a5a" stroke="#ffffff" points="532.16,-569.5 542.16,-566 532.16,-562.5 532.16,-569.5"/>
</g>
<!-- python_multipart -->
<g id="node19" class="node">
<title>python_multipart</title><style>.edge>path:hover{stroke-width:8}</style>
<polygon fill="#1952e6" stroke="#ffffff" points="849.75,-226 846.75,-230 825.75,-230 822.75,-226 761.75,-226 761.75,-190 849.75,-190 849.75,-226"/>
<text xml:space="preserve" text-anchor="middle" x="805.75" y="-204.5" font-family="Helvetica,sans-Serif" font-size="10.00" fill="#e0e0e0">python_multipart</text>
</g>
<!-- python_multipart&#45;&gt;fastapi -->
<g id="edge29" class="edge">
<title>python_multipart&#45;&gt;fastapi</title><style>.edge>path:hover{stroke-width:8}</style>
<path fill="none" stroke="#ffffff" d="M836.47,-226.3C858.05,-238.07 888.45,-251.61 917.5,-254"/>
<path fill="none" stroke="#ffffff" d="M919.5,-254C1012.31,-261.65 1036.53,-261.07 1129,-250"/>
</g>
<!-- python_multipart&#45;&gt;multipart -->
<g id="edge30" class="edge">
<title>python_multipart&#45;&gt;multipart</title><style>.edge>path:hover{stroke-width:8}</style>
<path fill="none" stroke="#ffffff" d="M850.2,-208C859.92,-208 870.15,-208 879.62,-208"/>
<polygon fill="#1952e6" stroke="#ffffff" points="879.59,-211.5 889.59,-208 879.59,-204.5 879.59,-211.5"/>
</g>
<!-- python_multipart&#45;&gt;starlette -->
<g id="edge31" class="edge">
<title>python_multipart&#45;&gt;starlette</title><style>.edge>path:hover{stroke-width:8}</style>
<path fill="none" stroke="#ffffff" d="M850.05,-190.88C861.5,-187 873.95,-183.34 885.75,-181 957.49,-166.8 1043.25,-164.93 1091.39,-165.22"/>
<polygon fill="#1952e6" stroke="#ffffff" points="1091.24,-168.72 1101.27,-165.32 1091.31,-161.72 1091.24,-168.72"/>
</g>
<!-- rich&#45;&gt;pydantic -->
<g id="edge32" class="edge">
<title>rich&#45;&gt;pydantic</title><style>.edge>path:hover{stroke-width:8}</style>
<path fill="none" stroke="#ffffff" d="M598.26,-552.86C641.08,-531.6 728.82,-488.72 804.75,-456"/>
</g>
<!-- rich&#45;&gt;structlog -->
<g id="edge33" class="edge">
<title>rich&#45;&gt;structlog</title><style>.edge>path:hover{stroke-width:8}</style>
<path fill="none" stroke="#ffffff" d="M598.23,-577.9C619.79,-586.23 651.19,-595.04 678.88,-590"/>
<path fill="none" stroke="#ffffff" d="M680.88,-590C709.44,-584.8 742.3,-586.19 767,-588.67"/>
<polygon fill="#5a5a5a" stroke="#ffffff" points="766.58,-592.15 776.91,-589.78 767.36,-585.19 766.58,-592.15"/>
</g>
<!-- sqlalchemy&#45;&gt;src -->
<g id="edge34" class="edge">
<title>sqlalchemy&#45;&gt;src</title><style>.edge>path:hover{stroke-width:8}</style>
<path fill="none" stroke="#ffffff" d="M1386.5,-399C1396.65,-409.09 1401,-409.48 1412.5,-418 1428.57,-429.9 1429.88,-437.71 1448.5,-445"/>
<path fill="none" stroke="#ffffff" d="M1449.5,-445C1462.64,-450.14 1475.23,-459.07 1485.59,-467.9"/>
<polygon fill="#5a5a5a" stroke="#ffffff" points="1483.18,-470.44 1492.96,-474.53 1487.87,-465.24 1483.18,-470.44"/>
<path fill="none" stroke="#ffffff" d="M951.6,-23.32C982.2,-29.12 1029.08,-39.92 1067,-57 1178.2,-107.09 1207.24,-129.46 1285.5,-223 1343.09,-291.83 1320.87,-335.7 1384.5,-399"/>
</g>
<!-- src&#45;&gt;main_py -->
<g id="edge35" class="edge">
<title>src&#45;&gt;main_py</title><style>.edge>path:hover{stroke-width:8}</style>
<path fill="none" stroke="#ffffff" d="M1539.79,-493.04C1550.83,-492.88 1563.81,-493.02 1575.5,-494"/>
</g>
<!-- src2 -->
<g id="node23" class="node">
<title>src2</title><style>.edge>path:hover{stroke-width:8}</style>
<polygon fill="#8a53b6" stroke="#ffffff" points="1412.5,-463 1409.5,-467 1388.5,-467 1385.5,-463 1358.5,-463 1358.5,-427 1412.5,-427 1412.5,-463"/>
<text xml:space="preserve" text-anchor="middle" x="1385.5" y="-441.5" font-family="Helvetica,sans-Serif" font-size="10.00" fill="#e0e0e0">src2</text>
</g>
<!-- src2&#45;&gt;src -->
<g id="edge36" class="edge">
<title>src2&#45;&gt;src</title><style>.edge>path:hover{stroke-width:8}</style>
<path fill="none" stroke="#ffffff" d="M1412.76,-441.29C1424.03,-440.63 1437.19,-441.14 1448.5,-445"/>
</g>
<!-- starlette&#45;&gt;fastapi -->
<g id="edge37" class="edge">
<title>starlette&#45;&gt;fastapi</title><style>.edge>path:hover{stroke-width:8}</style>
<path fill="none" stroke="#ffffff" d="M1154.54,-184.43C1169.62,-196.25 1189.41,-211.75 1205.96,-224.71"/>
<polygon fill="#c110f9" stroke="#ffffff" points="1203.55,-227.26 1213.58,-230.68 1207.86,-221.75 1203.55,-227.26"/>
</g>
<!-- structlog&#45;&gt;main_py -->
<g id="edge38" class="edge">
<title>structlog&#45;&gt;main_py</title><style>.edge>path:hover{stroke-width:8}</style>
<path fill="none" stroke="#ffffff" d="M1513.5,-540C1526.33,-533.66 1528,-529.52 1539.5,-521 1555.57,-509.1 1555.5,-493.94 1575.5,-494"/>
<path fill="none" stroke="#ffffff" d="M1449.5,-540C1476.53,-534.62 1486.79,-552.2 1511.5,-540"/>
</g>
<!-- structlog&#45;&gt;src -->
<g id="edge39" class="edge">
<title>structlog&#45;&gt;src</title><style>.edge>path:hover{stroke-width:8}</style>
<path fill="none" stroke="#ffffff" d="M1449.5,-540C1463.73,-537.5 1476.97,-528.95 1487.53,-519.88"/>
<polygon fill="#5a5a5a" stroke="#ffffff" points="1489.68,-522.67 1494.63,-513.3 1484.92,-517.54 1489.68,-522.67"/>
<path fill="none" stroke="#ffffff" d="M833.02,-582.56C848.19,-576.32 867.77,-568.9 885.75,-564 946.82,-547.35 962.83,-540 1026.12,-540 1026.12,-540 1026.12,-540 1322.5,-540 1378.5,-540 1393.34,-549.68 1448.5,-540"/>
</g>
<!-- tomli -->
<g id="node26" class="node">
<title>tomli</title><style>.edge>path:hover{stroke-width:8}</style>
<polygon fill="#b653a5" stroke="#ffffff" points="832.75,-520 829.75,-524 808.75,-524 805.75,-520 778.75,-520 778.75,-484 832.75,-484 832.75,-520"/>
<text xml:space="preserve" text-anchor="middle" x="805.75" y="-498.5" font-family="Helvetica,sans-Serif" font-size="10.00" fill="#e0e0e0">tomli</text>
</g>
<!-- tomli&#45;&gt;pydantic_settings -->
<g id="edge40" class="edge">
<title>tomli&#45;&gt;pydantic_settings</title><style>.edge>path:hover{stroke-width:8}</style>
<path fill="none" stroke="#ffffff" d="M833.18,-501.17C855.63,-500.66 888.7,-500.39 917.5,-502"/>
</g>
<!-- typing_extensions -->
<g id="node27" class="node">
<title>typing_extensions</title><style>.edge>path:hover{stroke-width:8}</style>
<polygon fill="#f910a1" stroke="#ffffff" points="184.75,-588 181.75,-592 160.75,-592 157.75,-588 90,-588 90,-552 184.75,-552 184.75,-588"/>
<text xml:space="preserve" text-anchor="middle" x="137.38" y="-566.5" font-family="Helvetica,sans-Serif" font-size="10.00" fill="#e0e0e0">typing_extensions</text>
</g>
<!-- typing_extensions&#45;&gt;annotated_types -->
<g id="edge41" class="edge">
<title>typing_extensions&#45;&gt;annotated_types</title><style>.edge>path:hover{stroke-width:8}</style>
<path fill="none" stroke="#ffffff" d="M349.25,-474C366.16,-460.3 388.34,-451.78 408.62,-446.5"/>
<polygon fill="#f910a1" stroke="#ffffff" points="409.26,-449.95 418.18,-444.24 407.64,-443.14 409.26,-449.95"/>
</g>
<!-- typing_extensions&#45;&gt;anyio -->
<g id="edge42" class="edge">
<title>typing_extensions&#45;&gt;anyio</title><style>.edge>path:hover{stroke-width:8}</style>
<path fill="none" stroke="#ffffff" d="M680.88,-140C734.87,-129.23 750.53,-149.53 804.75,-140"/>
<path fill="none" stroke="#ffffff" d="M806.75,-140C831.27,-135.69 858.62,-129.77 880,-124.9"/>
<polygon fill="#f910a1" stroke="#ffffff" points="880.78,-128.31 889.74,-122.65 879.2,-121.49 880.78,-128.31"/>
</g>
<!-- typing_extensions&#45;&gt;click -->
<g id="edge43" class="edge">
<title>typing_extensions&#45;&gt;click</title><style>.edge>path:hover{stroke-width:8}</style>
<path fill="none" stroke="#ffffff" d="M139.82,-588.39C144.08,-628.79 160.4,-725.15 220.75,-769 281.23,-812.94 374.05,-805.15 425.46,-796.2"/>
<polygon fill="#f910a1" stroke="#ffffff" points="426.01,-799.66 435.2,-794.38 424.73,-792.77 426.01,-799.66"/>
</g>
<!-- typing_extensions&#45;&gt;fastapi -->
<g id="edge44" class="edge">
<title>typing_extensions&#45;&gt;fastapi</title><style>.edge>path:hover{stroke-width:8}</style>
<path fill="none" stroke="#ffffff" d="M465,-254C502.38,-220.37 867.58,-248.03 917.5,-254"/>
</g>
<!-- typing_extensions&#45;&gt;h11 -->
<g id="edge45" class="edge">
<title>typing_extensions&#45;&gt;h11</title><style>.edge>path:hover{stroke-width:8}</style>
<path fill="none" stroke="#ffffff" d="M249.62,-658C269.81,-667.7 292.43,-678.37 310.81,-686.99"/>
<polygon fill="#f910a1" stroke="#ffffff" points="309.18,-690.1 319.72,-691.17 312.15,-683.76 309.18,-690.1"/>
</g>
<!-- typing_extensions&#45;&gt;markdown_it -->
<g id="edge46" class="edge">
<title>typing_extensions&#45;&gt;markdown_it</title><style>.edge>path:hover{stroke-width:8}</style>
<path fill="none" stroke="#ffffff" d="M249.62,-566C273.34,-563.76 297.58,-575.09 315.98,-587.07"/>
<polygon fill="#f910a1" stroke="#ffffff" points="313.83,-589.84 324.04,-592.65 317.81,-584.08 313.83,-589.84"/>
</g>
<!-- typing_extensions&#45;&gt;pydantic -->
<g id="edge47" class="edge">
<title>typing_extensions&#45;&gt;pydantic</title><style>.edge>path:hover{stroke-width:8}</style>
<path fill="none" stroke="#ffffff" d="M465,-484C614.58,-459.87 665.57,-515.87 804.75,-456"/>
<path fill="none" stroke="#ffffff" d="M806.75,-456C831.77,-443.71 859.67,-429.35 881.21,-418.11"/>
<polygon fill="#f910a1" stroke="#ffffff" points="882.66,-421.31 889.89,-413.57 879.41,-415.1 882.66,-421.31"/>
</g>
<!-- typing_extensions&#45;&gt;pydantic_core -->
<g id="edge48" class="edge">
<title>typing_extensions&#45;&gt;pydantic_core</title><style>.edge>path:hover{stroke-width:8}</style>
<path fill="none" stroke="#ffffff" d="M572,-392C589.41,-383.01 610.64,-381.44 629.57,-382.69"/>
<polygon fill="#f910a1" stroke="#ffffff" points="629.22,-386.17 639.51,-383.65 629.89,-379.21 629.22,-386.17"/>
</g>
<!-- typing_extensions&#45;&gt;rich -->
<g id="edge49" class="edge">
<title>typing_extensions&#45;&gt;rich</title><style>.edge>path:hover{stroke-width:8}</style>
<path fill="none" stroke="#ffffff" d="M249.62,-566C344.04,-557.07 368.17,-566 463,-566"/>
</g>
<!-- typing_extensions&#45;&gt;sqlalchemy -->
<g id="edge50" class="edge">
<title>typing_extensions&#45;&gt;sqlalchemy</title><style>.edge>path:hover{stroke-width:8}</style>
<path fill="none" stroke="#ffffff" d="M465,-254C499.4,-220.81 502.53,-204.78 544,-181 598.35,-149.84 617.43,-152.26 678.88,-140"/>
<path fill="none" stroke="#ffffff" d="M806.75,-64C829.44,-55.14 854.51,-44.78 875.06,-36.13"/>
<polygon fill="#f910a1" stroke="#ffffff" points="876.42,-39.35 884.27,-32.24 873.69,-32.91 876.42,-39.35"/>
<path fill="none" stroke="#ffffff" d="M185.25,-569.57C204.6,-569.06 227.23,-568.03 247.62,-566"/>
<path fill="none" stroke="#ffffff" d="M249.62,-566C292.23,-561.75 279.21,-519.93 312.5,-493 326.19,-481.93 333.57,-485.08 347.25,-474"/>
<path fill="none" stroke="#ffffff" d="M680.88,-140C724.45,-127.66 721.67,-99.09 761.75,-78 779.54,-68.64 786.03,-71.31 804.75,-64"/>
<path fill="none" stroke="#ffffff" d="M349.25,-474C434.77,-404.7 381.17,-327.62 463,-254"/>
</g>
<!-- typing_extensions&#45;&gt;starlette -->
<g id="edge51" class="edge">
<title>typing_extensions&#45;&gt;starlette</title><style>.edge>path:hover{stroke-width:8}</style>
<path fill="none" stroke="#ffffff" d="M806.75,-64C861.32,-42.7 1014.63,-79.76 1067,-106 1082.73,-113.88 1097.08,-127.17 1108.01,-139.24"/>
<polygon fill="#f910a1" stroke="#ffffff" points="1105.15,-141.29 1114.34,-146.57 1110.45,-136.71 1105.15,-141.29"/>
</g>
<!-- typing_extensions&#45;&gt;structlog -->
<g id="edge52" class="edge">
<title>typing_extensions&#45;&gt;structlog</title><style>.edge>path:hover{stroke-width:8}</style>
<path fill="none" stroke="#ffffff" d="M155.88,-588.49C176.07,-608.68 211.19,-640.49 247.62,-658"/>
<path fill="none" stroke="#ffffff" d="M572,-704C641.35,-700.24 610.55,-602.44 678.88,-590"/>
<path fill="none" stroke="#ffffff" d="M249.62,-658C303.99,-684.13 324.29,-668.45 384,-677 466.69,-688.85 486.59,-708.52 570,-704"/>
</g>
<!-- typing_inspection -->
<g id="node28" class="node">
<title>typing_inspection</title><style>.edge>path:hover{stroke-width:8}</style>
<polygon fill="#f91070" stroke="#ffffff" points="725.75,-356 722.75,-360 701.75,-360 698.75,-356 634,-356 634,-320 725.75,-320 725.75,-356"/>
<text xml:space="preserve" text-anchor="middle" x="679.88" y="-334.5" font-family="Helvetica,sans-Serif" font-size="10.00" fill="#e0e0e0">typing_inspection</text>
</g>
<!-- typing_extensions&#45;&gt;typing_inspection -->
<g id="edge53" class="edge">
<title>typing_extensions&#45;&gt;typing_inspection</title><style>.edge>path:hover{stroke-width:8}</style>
<path fill="none" stroke="#ffffff" d="M465,-484C485.63,-480.67 492.01,-478.45 508,-465 530.07,-446.43 524.05,-431.83 544,-411 553.9,-400.66 557.28,-398.57 570,-392"/>
<path fill="none" stroke="#ffffff" d="M349.25,-474C388.68,-442.05 412.9,-492.08 463,-484"/>
<path fill="none" stroke="#ffffff" d="M572,-392C591.64,-381.86 613.4,-370.83 632.13,-361.4"/>
<polygon fill="#f910a1" stroke="#ffffff" points="633.48,-364.64 640.84,-357.02 630.33,-358.38 633.48,-364.64"/>
</g>
<!-- typing_extensions&#45;&gt;uvicorn -->
<g id="edge54" class="edge">
<title>typing_extensions&#45;&gt;uvicorn</title><style>.edge>path:hover{stroke-width:8}</style>
<path fill="none" stroke="#ffffff" d="M680.88,-704C710.69,-692.19 743.76,-677.14 768.22,-665.61"/>
<polygon fill="#f910a1" stroke="#ffffff" points="769.58,-668.85 777.11,-661.4 766.58,-662.52 769.58,-668.85"/>
<path fill="none" stroke="#ffffff" d="M572,-704C618.65,-695.06 634.71,-721.5 678.88,-704"/>
</g>
<!-- typing_inspection&#45;&gt;fastapi -->
<g id="edge55" class="edge">
<title>typing_inspection&#45;&gt;fastapi</title><style>.edge>path:hover{stroke-width:8}</style>
<path fill="none" stroke="#ffffff" d="M806.75,-342C922.25,-331.53 963.59,-375.5 1067,-323 1104.96,-303.73 1086.78,-255.45 1129,-250"/>
<path fill="none" stroke="#ffffff" d="M726.23,-341.77C749.69,-343.13 778.79,-343.92 804.75,-342"/>
</g>
<!-- typing_inspection&#45;&gt;pydantic -->
<g id="edge56" class="edge">
<title>typing_inspection&#45;&gt;pydantic</title><style>.edge>path:hover{stroke-width:8}</style>
<path fill="none" stroke="#ffffff" d="M726.17,-355.6C749.37,-364.03 778.25,-373.66 804.75,-380"/>
</g>
<!-- typing_inspection&#45;&gt;pydantic_settings -->
<g id="edge57" class="edge">
<title>typing_inspection&#45;&gt;pydantic_settings</title><style>.edge>path:hover{stroke-width:8}</style>
<path fill="none" stroke="#ffffff" d="M919.5,-502C1012.43,-507.2 1118.47,-481.84 1181.8,-463.26"/>
<polygon fill="#f91070" stroke="#ffffff" points="1182.71,-466.65 1191.29,-460.43 1180.7,-459.94 1182.71,-466.65"/>
<path fill="none" stroke="#ffffff" d="M806.75,-418C860.38,-448.67 855.75,-500.24 917.5,-502"/>
<path fill="none" stroke="#ffffff" d="M712.61,-356.35C717.08,-359.15 721.58,-362.08 725.75,-365 742.59,-376.77 744.72,-382.51 761.75,-394 779.89,-406.24 785.75,-407.14 804.75,-418"/>
</g>
<!-- uvicorn&#45;&gt;main_py -->
<g id="edge58" class="edge">
<title>uvicorn&#45;&gt;main_py</title><style>.edge>path:hover{stroke-width:8}</style>
<path fill="none" stroke="#ffffff" d="M833.24,-633.67C873.62,-613.19 953.57,-578 1026.12,-578 1026.12,-578 1026.12,-578 1386.5,-578 1444.57,-578 1459.44,-565.72 1511.5,-540"/>
</g>
</g>
</svg>

